<?xml version="1.0" encoding="UTF-8"?>
<svg xmlns="http://www.w3.org/2000/svg" xmlns:xlink="http://www.w3.org/1999/xlink" version="1.2" >
<font id="Unna Italic">
<font-face  font-family="Unna" units-per-em="1000" ascent="883" descent="-269" font-style="italic" font-weight="400" font-stretch="normal" slope="-8" cap-height="597" x-height="420" underline-position="-75" underline-thickness="50" />
<missing-glyph  horiz-adv-x="488" d="M400 730 L400 -245 L91 -245 L91 730 L400 730 Z M325 665 L164 665 L164 633 L227 633 L227 596 L163 596 L163 564 L325 564 L325 596 L260 596 L260 633 L325 633 L325 665 Z M260 539 L163 539 L163 438 L325 438 L325 471 L260 471 L260 539 Z M227 506 L227 471 L195 471 L195 506 L227 506 Z M325 411 L163 411 L163 379 L227 379 L227 343 L163 343 L163 311 L260 311 L260 379 L325 379 L325 411 Z M325 353 L293 353 L293 288 L163 288 L163 255 L325 255 L325 353 Z M325 234 L227 234 L227 179 L260 179 L260 202 L293 202 L293 156 L195 156 L195 234 L163 234 L163 124 L325 124 L325 234 Z M325 65 L163 65 L163 -45 L325 -45 L325 65 Z M293 33 L293 -13 L195 -13 L195 33 L293 33 Z M325 -68 L163 -68 L163 -100 L231 -100 L163 -146 L163 -178 L325 -178 L325 -146 L225 -146 L293 -100 L325 -100 L325 -68 Z " />
<glyph glyph-name="NULL" d="" />
<glyph glyph-name="nonmarkingreturn" unicode="&#xd;" horiz-adv-x="220" d="" />
<glyph glyph-name="space" unicode="&#x20;" horiz-adv-x="220" d="" />
<glyph glyph-name="A" unicode="A" horiz-adv-x="580" d="M575 29 L571 0 L312 0 L316 29 L369 27 Q396 26 396 58 Q396 77 392 90 L361 208 L139 208 L79 96 Q58 58 58 41 Q58 26 72 26 L123 29 L119 0 L-51 0 L-47 29 L-16 27 Q1 27 16.5 46 Q32 65 53 104 L326 607 L355 607 L486 102 Q497 61 507 44 Q517 27 536 27 L541 27 L575 29 Z M154 236 L353 236 L288 484 L154 236 Z " />
<glyph glyph-name="Aacute" unicode="&#xc1;" horiz-adv-x="580" d="M575 29 L571 0 L312 0 L316 29 L369 27 Q396 26 396 58 Q396 77 392 90 L361 208 L139 208 L79 96 Q58 58 58 41 Q58 26 72 26 L123 29 L119 0 L-51 0 L-47 29 L-16 27 Q1 27 16.5 46 Q32 65 53 104 L326 607 L355 607 L486 102 Q497 61 507 44 Q517 27 536 27 L541 27 L575 29 Z M154 236 L353 236 L288 484 L154 236 Z M508 800 Q508 796 498 788 L327 675 Q315 666 306 666 Q292 666 292 673 Q292 677 301 686 Q310 695 312 697 L419 805 Q431 818 437 822 Q443 826 454 826 Q471 826 489.5 816.5 Q508 807 508 800 Z " />
<glyph glyph-name="Abreve" unicode="&#x102;" horiz-adv-x="580" d="M575 29 L571 0 L312 0 L316 29 L369 27 Q396 26 396 58 Q396 77 392 90 L361 208 L139 208 L79 96 Q58 58 58 41 Q58 26 72 26 L123 29 L119 0 L-51 0 L-47 29 L-16 27 Q1 27 16.5 46 Q32 65 53 104 L326 607 L355 607 L486 102 Q497 61 507 44 Q517 27 536 27 L541 27 L575 29 Z M154 236 L353 236 L288 484 L154 236 Z M500 790 Q486 733 449 699.5 Q412 666 357 666 Q302 666 274.5 699.5 Q247 733 249 790 L293 790 Q296 758 312 737 Q328 716 364 716 Q399 716 422.5 737.5 Q446 759 457 790 L500 790 Z " />
<glyph glyph-name="Acircumflex" unicode="&#xc2;" horiz-adv-x="580" d="M575 29 L571 0 L312 0 L316 29 L369 27 Q396 26 396 58 Q396 77 392 90 L361 208 L139 208 L79 96 Q58 58 58 41 Q58 26 72 26 L123 29 L119 0 L-51 0 L-47 29 L-16 27 Q1 27 16.5 46 Q32 65 53 104 L326 607 L355 607 L486 102 Q497 61 507 44 Q517 27 536 27 L541 27 L575 29 Z M154 236 L353 236 L288 484 L154 236 Z M220 666 Q209 666 209 673 Q209 677 236 698 Q243 704 261 719 Q279 734 295 749 L345 797 Q372 822 379 822 Q382 822 389.5 815 Q397 808 405 797 L441 749 Q460 724 490 694 Q506 678 506 674 Q506 671 503 668.5 Q500 666 493 666 Q483 666 466 678 L369 751 L249 678 Q227 666 220 666 Z " />
<glyph glyph-name="Adieresis" unicode="&#xc4;" horiz-adv-x="580" d="M575 29 L571 0 L312 0 L316 29 L369 27 Q396 26 396 58 Q396 77 392 90 L361 208 L139 208 L79 96 Q58 58 58 41 Q58 26 72 26 L123 29 L119 0 L-51 0 L-47 29 L-16 27 Q1 27 16.5 46 Q32 65 53 104 L326 607 L355 607 L486 102 Q497 61 507 44 Q517 27 536 27 L541 27 L575 29 Z M154 236 L353 236 L288 484 L154 236 Z M286 772 Q308 772 320.5 761 Q333 750 333 731 Q333 706 316 691.5 Q299 677 272 677 Q251 677 237.5 688 Q224 699 224 718 Q224 742 242 757 Q260 772 286 772 Z M460 772 Q482 772 494.5 761 Q507 750 507 731 Q507 706 490 691.5 Q473 677 446 677 Q425 677 411.5 688 Q398 699 398 718 Q398 742 416 757 Q434 772 460 772 Z " />
<glyph glyph-name="Agrave" unicode="&#xc0;" horiz-adv-x="580" d="M575 29 L571 0 L312 0 L316 29 L369 27 Q396 26 396 58 Q396 77 392 90 L361 208 L139 208 L79 96 Q58 58 58 41 Q58 26 72 26 L123 29 L119 0 L-51 0 L-47 29 L-16 27 Q1 27 16.5 46 Q32 65 53 104 L326 607 L355 607 L486 102 Q497 61 507 44 Q517 27 536 27 L541 27 L575 29 Z M154 236 L353 236 L288 484 L154 236 Z M301 826 Q310 826 314.5 823 Q319 820 323.5 813.5 Q328 807 330 805 L412 691 Q421 677 421 674 Q421 666 404 666 Q395 666 386 675 L247 788 Q241 794 241 799 Q241 806 262 816 Q283 826 301 826 Z " />
<glyph glyph-name="Amacron" unicode="&#x100;" horiz-adv-x="580" d="M575 29 L571 0 L312 0 L316 29 L369 27 Q396 26 396 58 Q396 77 392 90 L361 208 L139 208 L79 96 Q58 58 58 41 Q58 26 72 26 L123 29 L119 0 L-51 0 L-47 29 L-16 27 Q1 27 16.5 46 Q32 65 53 104 L326 607 L355 607 L486 102 Q497 61 507 44 Q517 27 536 27 L541 27 L575 29 Z M154 236 L353 236 L288 484 L154 236 Z M483 716 L477 676 L235 676 L241 716 L483 716 Z " />
<glyph glyph-name="Aogonek" unicode="&#x104;" horiz-adv-x="580" d="M629 -99 Q602 -128 570.5 -143.5 Q539 -159 508 -159 Q482 -159 463.5 -142.5 Q445 -126 445 -97 Q445 -70 461 -44.5 Q477 -19 507 0 L312 0 L316 29 L369 27 Q396 26 396 58 Q396 77 392 90 L361 208 L139 208 L79 96 Q58 58 58 41 Q58 26 72 26 L123 29 L119 0 L-51 0 L-47 29 L-16 27 Q1 27 16.5 46 Q32 65 53 104 L326 607 L355 607 L486 102 Q497 61 507 44 Q517 27 536 27 L541 27 L575 29 L571 0 L539 0 Q503 -29 503 -71 Q503 -91 514 -103.5 Q525 -116 548 -116 Q578 -116 617 -85 L629 -99 Z M154 236 L353 236 L288 484 L154 236 Z " />
<glyph glyph-name="Aring" unicode="&#xc5;" horiz-adv-x="580" d="M575 29 L571 0 L312 0 L316 29 L369 27 Q396 26 396 58 Q396 77 392 90 L361 208 L139 208 L79 96 Q58 58 58 41 Q58 26 72 26 L123 29 L119 0 L-51 0 L-47 29 L-16 27 Q1 27 16.5 46 Q32 65 53 104 L326 607 L355 607 L486 102 Q497 61 507 44 Q517 27 536 27 L541 27 L575 29 Z M154 236 L353 236 L288 484 L154 236 Z M287 738 Q287 776 314.5 802.5 Q342 829 379 829 Q413 829 431.5 810 Q450 791 450 758 Q450 718 423.5 692 Q397 666 356 666 Q323 666 305 685.5 Q287 705 287 738 Z M332 742 Q332 724 339.5 713 Q347 702 361 702 Q379 702 391.5 717.5 Q404 733 404 754 Q404 772 396.5 782.5 Q389 793 374 793 Q356 793 344 778 Q332 763 332 742 Z " />
<glyph glyph-name="Atilde" unicode="&#xc3;" horiz-adv-x="580" d="M575 29 L571 0 L312 0 L316 29 L369 27 Q396 26 396 58 Q396 77 392 90 L361 208 L139 208 L79 96 Q58 58 58 41 Q58 26 72 26 L123 29 L119 0 L-51 0 L-47 29 L-16 27 Q1 27 16.5 46 Q32 65 53 104 L326 607 L355 607 L486 102 Q497 61 507 44 Q517 27 536 27 L541 27 L575 29 Z M154 236 L353 236 L288 484 L154 236 Z M293 767 Q316 767 376 745 Q429 724 451 724 Q465 724 476.5 736 Q488 748 490 766 L510 766 Q505 729 482.5 702 Q460 675 433 675 Q418 675 399 680.5 Q380 686 350 697 Q297 718 275 718 Q261 718 250 706 Q239 694 236 676 L216 676 Q221 713 243.5 740 Q266 767 293 767 Z " />
<glyph glyph-name="AE" unicode="&#xc6;" horiz-adv-x="818" d="M789 443 L761 443 Q763 454 763 474 Q763 523 733.5 546 Q704 569 643 569 L487 569 L496 324 L575 324 Q605 324 629 352.5 Q653 381 660 426 L689 426 L656 195 L627 195 Q629 211 629 219 Q629 254 613 275.5 Q597 297 571 297 L496 297 L506 46 Q509 27 523 27 L587 27 Q722 27 741 171 L770 171 L746 -3 Q710 0 660 0 L326 0 L330 30 L386 27 L388 27 Q396 27 401.5 33 Q407 39 409 47 L403 208 L168 208 L77 80 Q60 56 60 39 Q60 27 71 27 L125 30 L121 0 L-51 0 L-47 30 L-12 27 Q-2 27 12.5 41.5 Q27 56 49 86 L383 543 Q386 548 386 552 Q386 557 382 562 Q378 567 373 567 L322 565 L327 597 L777 597 Q795 597 811 599 L789 443 Z M390 511 L188 236 L401 236 L390 511 Z " />
<glyph glyph-name="B" unicode="B" horiz-adv-x="555" d="M370 597 Q444 597 482.5 566.5 Q521 536 521 476 Q521 414 478 371.5 Q435 329 366 317 Q429 317 470 278 Q511 239 511 180 Q511 92 451 46 Q391 0 272 0 L18 0 L22 29 L72 27 Q87 27 90 49 L160 549 L160 552 Q160 569 149 569 L98 567 L102 597 L370 597 Z M266 569 Q257 569 254 557 L222 327 L294 327 Q359 327 392 365 Q425 403 425 471 Q425 517 398.5 543 Q372 569 322 569 L266 569 Z M218 299 L182 41 L181 37 Q181 28 192 28 L260 28 Q329 28 372 71.5 Q415 115 415 191 Q415 299 316 299 L218 299 Z " />
<glyph glyph-name="C" unicode="C" horiz-adv-x="585" d="M49 245 Q49 355 90.5 436.5 Q132 518 208.5 562.5 Q285 607 388 607 Q432 607 456.5 600.5 Q481 594 508 582 Q529 573 545 568.5 Q561 564 584 564 Q576 532 570.5 498 Q565 464 565 448 Q565 434 566 433 L540 433 Q537 474 515 508 Q493 542 457.5 562 Q422 582 380 582 Q313 582 260.5 537 Q208 492 179 413.5 Q150 335 150 240 Q150 139 191.5 78 Q233 17 305 17 Q372 17 428 59.5 Q484 102 507 167 L538 167 Q524 108 520 87 Q516 66 516 47 L516 35 L509 35 Q489 35 471 30.5 Q453 26 426 16 Q390 3 362 -3.5 Q334 -10 297 -10 Q180 -10 114.5 58 Q49 126 49 245 Z " />
<glyph glyph-name="Cacute" unicode="&#x106;" horiz-adv-x="585" d="M49 245 Q49 355 90.5 436.5 Q132 518 208.5 562.5 Q285 607 388 607 Q432 607 456.5 600.5 Q481 594 508 582 Q529 573 545 568.5 Q561 564 584 564 Q576 532 570.5 498 Q565 464 565 448 Q565 434 566 433 L540 433 Q537 474 515 508 Q493 542 457.5 562 Q422 582 380 582 Q313 582 260.5 537 Q208 492 179 413.5 Q150 335 150 240 Q150 139 191.5 78 Q233 17 305 17 Q372 17 428 59.5 Q484 102 507 167 L538 167 Q524 108 520 87 Q516 66 516 47 L516 35 L509 35 Q489 35 471 30.5 Q453 26 426 16 Q390 3 362 -3.5 Q334 -10 297 -10 Q180 -10 114.5 58 Q49 126 49 245 Z M516 800 Q516 796 506 788 L335 675 Q323 666 314 666 Q300 666 300 673 Q300 677 309 686 Q318 695 320 697 L427 805 Q439 818 445 822 Q451 826 462 826 Q479 826 497.5 816.5 Q516 807 516 800 Z " />
<glyph glyph-name="Ccaron" unicode="&#x10c;" horiz-adv-x="585" d="M49 245 Q49 355 90.5 436.5 Q132 518 208.5 562.5 Q285 607 388 607 Q432 607 456.5 600.5 Q481 594 508 582 Q529 573 545 568.5 Q561 564 584 564 Q576 532 570.5 498 Q565 464 565 448 Q565 434 566 433 L540 433 Q537 474 515 508 Q493 542 457.5 562 Q422 582 380 582 Q313 582 260.5 537 Q208 492 179 413.5 Q150 335 150 240 Q150 139 191.5 78 Q233 17 305 17 Q372 17 428 59.5 Q484 102 507 167 L538 167 Q524 108 520 87 Q516 66 516 47 L516 35 L509 35 Q489 35 471 30.5 Q453 26 426 16 Q390 3 362 -3.5 Q334 -10 297 -10 Q180 -10 114.5 58 Q49 126 49 245 Z M523 824 Q534 824 534 817 Q534 813 507 792 Q500 786 482 771 Q464 756 448 741 L398 693 Q371 668 364 668 Q361 668 353.5 675 Q346 682 338 693 L302 741 Q283 766 253 796 Q237 812 237 816 Q237 819 240 821.5 Q243 824 250 824 Q260 824 277 812 L374 739 L494 812 Q516 824 523 824 Z " />
<glyph glyph-name="Ccedilla" unicode="&#xc7;" horiz-adv-x="585" d="M584 564 Q576 532 570.5 498 Q565 464 565 448 Q565 434 566 433 L540 433 Q537 474 515 508 Q493 542 457.5 562 Q422 582 380 582 Q313 582 260.5 537 Q208 492 179 413.5 Q150 335 150 240 Q150 139 191.5 78 Q233 17 305 17 Q372 17 428 59.5 Q484 102 507 167 L538 167 Q524 108 520 87 Q516 66 516 47 L516 35 L509 35 Q489 35 471 30.5 Q453 26 426 16 Q390 3 362 -3.5 Q334 -10 297 -10 L284 -10 L260 -43 Q251 -55 251 -63 Q251 -69 257.5 -72 Q264 -75 279 -79 Q302 -86 313.5 -93 Q325 -100 325 -117 Q325 -159 297.5 -186.5 Q270 -214 221 -214 Q177 -214 155 -198 L167 -171 Q177 -187 199 -187 Q222 -187 239.5 -170 Q257 -153 257 -130 Q257 -113 232 -94 L212 -80 Q202 -73 202 -66 Q202 -60 211 -52 L250 -7 Q154 6 101.5 72 Q49 138 49 245 Q49 355 90.5 436.5 Q132 518 208.5 562.5 Q285 607 388 607 Q432 607 456.5 600.5 Q481 594 508 582 Q529 573 545 568.5 Q561 564 584 564 Z " />
<glyph glyph-name="D" unicode="D" horiz-adv-x="613" d="M320 597 Q456 597 522 541.5 Q588 486 588 362 Q588 187 503.5 93.5 Q419 0 248 0 L18 0 L22 29 L65 27 Q77 27 81 49 L151 548 L151 553 Q151 560 147.5 564.5 Q144 569 137 569 L98 567 L102 597 L320 597 Z M256 569 Q245 569 244 556 L172 41 L171 37 Q171 28 180 28 L224 28 Q300 28 347.5 48 Q395 68 421.5 105.5 Q448 143 464 202 Q487 287 487 373 Q487 477 443 523 Q399 569 300 569 L256 569 Z " />
<glyph glyph-name="Eth" unicode="&#xd0;" horiz-adv-x="613" d="M320 597 Q456 597 522 541.5 Q588 486 588 362 Q588 187 503.5 93.5 Q419 0 248 0 L18 0 L22 29 L65 27 Q77 27 81 49 L115 293 L51 293 L56 329 L120 329 L151 548 L151 553 Q151 560 147.5 564.5 Q144 569 137 569 L98 567 L102 597 L320 597 Z M464 202 Q487 287 487 373 Q487 477 443 523 Q399 569 300 569 L256 569 Q245 569 244 556 L212 329 L396 329 L391 293 L207 293 L172 41 L171 37 Q171 28 180 28 L224 28 Q300 28 347.5 48 Q395 68 421.5 105.5 Q448 143 464 202 Z " />
<glyph glyph-name="Dcaron" unicode="&#x10e;" horiz-adv-x="613" d="M320 597 Q456 597 522 541.5 Q588 486 588 362 Q588 187 503.5 93.5 Q419 0 248 0 L18 0 L22 29 L65 27 Q77 27 81 49 L151 548 L151 553 Q151 560 147.5 564.5 Q144 569 137 569 L98 567 L102 597 L320 597 Z M256 569 Q245 569 244 556 L172 41 L171 37 Q171 28 180 28 L224 28 Q300 28 347.5 48 Q395 68 421.5 105.5 Q448 143 464 202 Q487 287 487 373 Q487 477 443 523 Q399 569 300 569 L256 569 Z M528 824 Q539 824 539 817 Q539 813 512 792 Q505 786 487 771 Q469 756 453 741 L403 693 Q376 668 369 668 Q366 668 358.5 675 Q351 682 343 693 L307 741 Q288 766 258 796 Q242 812 242 816 Q242 819 245 821.5 Q248 824 255 824 Q265 824 282 812 L379 739 L499 812 Q521 824 528 824 Z " />
<glyph glyph-name="Dcroat" unicode="&#x110;" horiz-adv-x="613" d="M320 597 Q456 597 522 541.5 Q588 486 588 362 Q588 187 503.5 93.5 Q419 0 248 0 L18 0 L22 29 L65 27 Q77 27 81 49 L115 293 L51 293 L56 329 L120 329 L151 548 L151 553 Q151 560 147.5 564.5 Q144 569 137 569 L98 567 L102 597 L320 597 Z M464 202 Q487 287 487 373 Q487 477 443 523 Q399 569 300 569 L256 569 Q245 569 244 556 L212 329 L396 329 L391 293 L207 293 L172 41 L171 37 Q171 28 180 28 L224 28 Q300 28 347.5 48 Q395 68 421.5 105.5 Q448 143 464 202 Z " />
<glyph glyph-name="E" unicode="E" horiz-adv-x="545" d="M506 443 L477 443 Q480 461 480 475 Q480 524 451 546.5 Q422 569 360 569 L256 569 Q246 569 244 555 L212 325 L302 325 Q333 325 356.5 352 Q380 379 387 426 L417 426 L384 195 L354 195 Q356 211 356 218 Q356 253 339.5 275 Q323 297 298 297 L208 297 L172 41 L172 38 Q172 28 180 28 L316 28 Q380 28 419.5 67 Q459 106 469 179 L498 179 L473 -3 Q451 0 387 0 L18 0 L22 30 L62 27 Q78 27 81 49 L151 548 L151 553 Q151 569 136 569 L98 567 L102 597 L510 597 Q523 597 528 599 L506 443 Z " />
<glyph glyph-name="Eacute" unicode="&#xc9;" horiz-adv-x="545" d="M506 443 L477 443 Q480 461 480 475 Q480 524 451 546.5 Q422 569 360 569 L256 569 Q246 569 244 555 L212 325 L302 325 Q333 325 356.5 352 Q380 379 387 426 L417 426 L384 195 L354 195 Q356 211 356 218 Q356 253 339.5 275 Q323 297 298 297 L208 297 L172 41 L172 38 Q172 28 180 28 L316 28 Q380 28 419.5 67 Q459 106 469 179 L498 179 L473 -3 Q451 0 387 0 L18 0 L22 30 L62 27 Q78 27 81 49 L151 548 L151 553 Q151 569 136 569 L98 567 L102 597 L510 597 Q523 597 528 599 L506 443 Z M491 800 Q491 796 481 788 L310 675 Q298 666 289 666 Q275 666 275 673 Q275 677 284 686 Q293 695 295 697 L402 805 Q414 818 420 822 Q426 826 437 826 Q454 826 472.5 816.5 Q491 807 491 800 Z " />
<glyph glyph-name="Ecaron" unicode="&#x11a;" horiz-adv-x="545" d="M506 443 L477 443 Q480 461 480 475 Q480 524 451 546.5 Q422 569 360 569 L256 569 Q246 569 244 555 L212 325 L302 325 Q333 325 356.5 352 Q380 379 387 426 L417 426 L384 195 L354 195 Q356 211 356 218 Q356 253 339.5 275 Q323 297 298 297 L208 297 L172 41 L172 38 Q172 28 180 28 L316 28 Q380 28 419.5 67 Q459 106 469 179 L498 179 L473 -3 Q451 0 387 0 L18 0 L22 30 L62 27 Q78 27 81 49 L151 548 L151 553 Q151 569 136 569 L98 567 L102 597 L510 597 Q523 597 528 599 L506 443 Z M498 824 Q509 824 509 817 Q509 813 482 792 Q475 786 457 771 Q439 756 423 741 L373 693 Q346 668 339 668 Q336 668 328.5 675 Q321 682 313 693 L277 741 Q258 766 228 796 Q212 812 212 816 Q212 819 215 821.5 Q218 824 225 824 Q235 824 252 812 L349 739 L469 812 Q491 824 498 824 Z " />
<glyph glyph-name="Ecircumflex" unicode="&#xca;" horiz-adv-x="545" d="M506 443 L477 443 Q480 461 480 475 Q480 524 451 546.5 Q422 569 360 569 L256 569 Q246 569 244 555 L212 325 L302 325 Q333 325 356.5 352 Q380 379 387 426 L417 426 L384 195 L354 195 Q356 211 356 218 Q356 253 339.5 275 Q323 297 298 297 L208 297 L172 41 L172 38 Q172 28 180 28 L316 28 Q380 28 419.5 67 Q459 106 469 179 L498 179 L473 -3 Q451 0 387 0 L18 0 L22 30 L62 27 Q78 27 81 49 L151 548 L151 553 Q151 569 136 569 L98 567 L102 597 L510 597 Q523 597 528 599 L506 443 Z M203 666 Q192 666 192 673 Q192 677 219 698 Q226 704 244 719 Q262 734 278 749 L328 797 Q355 822 362 822 Q365 822 372.5 815 Q380 808 388 797 L424 749 Q443 724 473 694 Q489 678 489 674 Q489 671 486 668.5 Q483 666 476 666 Q466 666 449 678 L352 751 L232 678 Q210 666 203 666 Z " />
<glyph glyph-name="Edieresis" unicode="&#xcb;" horiz-adv-x="545" d="M506 443 L477 443 Q480 461 480 475 Q480 524 451 546.5 Q422 569 360 569 L256 569 Q246 569 244 555 L212 325 L302 325 Q333 325 356.5 352 Q380 379 387 426 L417 426 L384 195 L354 195 Q356 211 356 218 Q356 253 339.5 275 Q323 297 298 297 L208 297 L172 41 L172 38 Q172 28 180 28 L316 28 Q380 28 419.5 67 Q459 106 469 179 L498 179 L473 -3 Q451 0 387 0 L18 0 L22 30 L62 27 Q78 27 81 49 L151 548 L151 553 Q151 569 136 569 L98 567 L102 597 L510 597 Q523 597 528 599 L506 443 Z M269 772 Q291 772 303.5 761 Q316 750 316 731 Q316 706 299 691.5 Q282 677 255 677 Q234 677 220.5 688 Q207 699 207 718 Q207 742 225 757 Q243 772 269 772 Z M443 772 Q465 772 477.5 761 Q490 750 490 731 Q490 706 473 691.5 Q456 677 429 677 Q408 677 394.5 688 Q381 699 381 718 Q381 742 399 757 Q417 772 443 772 Z " />
<glyph glyph-name="Edotaccent" unicode="&#x116;" horiz-adv-x="545" d="M506 443 L477 443 Q480 461 480 475 Q480 524 451 546.5 Q422 569 360 569 L256 569 Q246 569 244 555 L212 325 L302 325 Q333 325 356.5 352 Q380 379 387 426 L417 426 L384 195 L354 195 Q356 211 356 218 Q356 253 339.5 275 Q323 297 298 297 L208 297 L172 41 L172 38 Q172 28 180 28 L316 28 Q380 28 419.5 67 Q459 106 469 179 L498 179 L473 -3 Q451 0 387 0 L18 0 L22 30 L62 27 Q78 27 81 49 L151 548 L151 553 Q151 569 136 569 L98 567 L102 597 L510 597 Q523 597 528 599 L506 443 Z M355 773 Q377 773 389.5 762 Q402 751 402 732 Q402 707 385 692.5 Q368 678 341 678 Q320 678 306.5 689 Q293 700 293 719 Q293 743 311 758 Q329 773 355 773 Z " />
<glyph glyph-name="Egrave" unicode="&#xc8;" horiz-adv-x="545" d="M506 443 L477 443 Q480 461 480 475 Q480 524 451 546.5 Q422 569 360 569 L256 569 Q246 569 244 555 L212 325 L302 325 Q333 325 356.5 352 Q380 379 387 426 L417 426 L384 195 L354 195 Q356 211 356 218 Q356 253 339.5 275 Q323 297 298 297 L208 297 L172 41 L172 38 Q172 28 180 28 L316 28 Q380 28 419.5 67 Q459 106 469 179 L498 179 L473 -3 Q451 0 387 0 L18 0 L22 30 L62 27 Q78 27 81 49 L151 548 L151 553 Q151 569 136 569 L98 567 L102 597 L510 597 Q523 597 528 599 L506 443 Z M284 826 Q293 826 297.5 823 Q302 820 306.5 813.5 Q311 807 313 805 L395 691 Q404 677 404 674 Q404 666 387 666 Q378 666 369 675 L230 788 Q224 794 224 799 Q224 806 245 816 Q266 826 284 826 Z " />
<glyph glyph-name="Emacron" unicode="&#x112;" horiz-adv-x="545" d="M506 443 L477 443 Q480 461 480 475 Q480 524 451 546.5 Q422 569 360 569 L256 569 Q246 569 244 555 L212 325 L302 325 Q333 325 356.5 352 Q380 379 387 426 L417 426 L384 195 L354 195 Q356 211 356 218 Q356 253 339.5 275 Q323 297 298 297 L208 297 L172 41 L172 38 Q172 28 180 28 L316 28 Q380 28 419.5 67 Q459 106 469 179 L498 179 L473 -3 Q451 0 387 0 L18 0 L22 30 L62 27 Q78 27 81 49 L151 548 L151 553 Q151 569 136 569 L98 567 L102 597 L510 597 Q523 597 528 599 L506 443 Z M466 716 L460 676 L218 676 L224 716 L466 716 Z " />
<glyph glyph-name="Eogonek" unicode="&#x118;" horiz-adv-x="545" d="M477 443 Q480 461 480 475 Q480 524 451 546.5 Q422 569 360 569 L256 569 Q246 569 244 555 L212 325 L302 325 Q333 325 356.5 352 Q380 379 387 426 L417 426 L384 195 L354 195 Q356 211 356 218 Q356 253 339.5 275 Q323 297 298 297 L208 297 L172 41 L172 38 Q172 28 180 28 L316 28 Q380 28 419.5 67 Q459 106 469 179 L498 179 L473 -3 Q454 0 406 0 Q370 -29 370 -71 Q370 -91 381 -103.5 Q392 -116 415 -116 Q445 -116 484 -85 L496 -99 Q469 -128 437.5 -143.5 Q406 -159 375 -159 Q349 -159 330.5 -142.5 Q312 -126 312 -97 Q312 -70 328 -44.5 Q344 -19 374 0 L18 0 L22 30 L62 27 Q78 27 81 49 L151 548 L151 553 Q151 569 136 569 L98 567 L102 597 L510 597 Q523 597 528 599 L506 443 L477 443 Z " />
<glyph glyph-name="F" unicode="F" horiz-adv-x="513" d="M516 443 L487 443 Q490 461 490 475 Q490 524 460.5 546.5 Q431 569 369 569 L256 569 Q245 569 244 556 L210 315 L281 315 Q315 315 339.5 342.5 Q364 370 371 417 L400 417 L367 187 L338 187 Q340 203 340 211 Q340 246 323 266.5 Q306 287 277 287 L207 287 L173 48 L173 44 Q173 37 177 32 Q181 27 187 27 L239 30 L235 0 L18 0 L22 30 L62 27 Q78 27 81 49 L151 548 L151 554 Q151 569 139 569 L98 567 L102 597 L522 597 Q533 597 538 599 L516 443 Z " />
<glyph glyph-name="G" unicode="G" horiz-adv-x="626" d="M389 607 Q441 607 472.5 599 Q504 591 534 578 Q565 564 585 564 Q579 544 572.5 500.5 Q566 457 567 433 L525 433 Q530 446 530 467 Q530 525 489.5 553.5 Q449 582 381 582 Q316 582 263.5 541 Q211 500 180 419 Q149 338 149 224 Q149 119 189.5 68 Q230 17 306 17 Q349 17 377 27 Q405 37 434 63 L457 223 L457 230 Q457 245 443 245 L385 243 L389 272 L615 272 L611 243 L569 245 Q562 245 556.5 238.5 Q551 232 550 224 L523 35 Q517 36 509 36 Q496 36 463 23 Q427 8 390 -1 Q353 -10 298 -10 Q179 -10 114 53.5 Q49 117 49 239 Q49 416 138.5 511.5 Q228 607 389 607 Z " />
<glyph glyph-name="Gbreve" unicode="&#x11e;" horiz-adv-x="626" d="M389 607 Q441 607 472.5 599 Q504 591 534 578 Q565 564 585 564 Q579 544 572.5 500.5 Q566 457 567 433 L525 433 Q530 446 530 467 Q530 525 489.5 553.5 Q449 582 381 582 Q316 582 263.5 541 Q211 500 180 419 Q149 338 149 224 Q149 119 189.5 68 Q230 17 306 17 Q349 17 377 27 Q405 37 434 63 L457 223 L457 230 Q457 245 443 245 L385 243 L389 272 L615 272 L611 243 L569 245 Q562 245 556.5 238.5 Q551 232 550 224 L523 35 Q517 36 509 36 Q496 36 463 23 Q427 8 390 -1 Q353 -10 298 -10 Q179 -10 114 53.5 Q49 117 49 239 Q49 416 138.5 511.5 Q228 607 389 607 Z M504 790 Q490 733 453 699.5 Q416 666 361 666 Q306 666 278.5 699.5 Q251 733 253 790 L297 790 Q300 758 316 737 Q332 716 368 716 Q403 716 426.5 737.5 Q450 759 461 790 L504 790 Z " />
<glyph glyph-name="Gcommaaccent" unicode="&#x122;" horiz-adv-x="626" d="M389 607 Q441 607 472.5 599 Q504 591 534 578 Q565 564 585 564 Q579 544 572.5 500.5 Q566 457 567 433 L525 433 Q530 446 530 467 Q530 525 489.5 553.5 Q449 582 381 582 Q316 582 263.5 541 Q211 500 180 419 Q149 338 149 224 Q149 119 189.5 68 Q230 17 306 17 Q349 17 377 27 Q405 37 434 63 L457 223 L457 230 Q457 245 443 245 L385 243 L389 272 L615 272 L611 243 L569 245 Q562 245 556.5 238.5 Q551 232 550 224 L523 35 Q517 36 509 36 Q496 36 463 23 Q427 8 390 -1 Q353 -10 298 -10 Q179 -10 114 53.5 Q49 117 49 239 Q49 416 138.5 511.5 Q228 607 389 607 Z M281 -34 Q306 -34 320 -49.5 Q334 -65 334 -87 Q334 -127 304 -161 Q274 -195 235 -213 L221 -200 Q242 -188 259.5 -170.5 Q277 -153 278 -140 Q282 -111 254 -111 Q242 -111 235 -102 Q228 -93 228 -81 Q228 -63 242.5 -48.5 Q257 -34 281 -34 Z " />
<glyph glyph-name="H" unicode="H" horiz-adv-x="674" d="M676 567 L636 569 Q620 569 617 548 L547 49 L547 42 Q547 27 560 27 L600 29 L596 0 L381 0 L385 29 L434 27 Q451 27 454 49 L488 294 L207 294 L173 49 L173 44 Q173 27 188 27 L237 29 L233 0 L18 0 L22 29 L61 27 Q78 27 81 49 L151 548 L152 554 Q152 570 137 569 L98 567 L102 597 L317 597 L313 567 L264 569 Q256 569 250.5 563.5 Q245 558 243 548 L211 322 L492 322 L524 548 L524 553 Q524 569 510 569 L461 567 L465 597 L680 597 L676 567 Z " />
<glyph glyph-name="I" unicode="I" horiz-adv-x="301" d="M303 567 L264 569 Q256 569 250.5 563.5 Q245 558 243 548 L173 49 L173 44 Q173 27 188 27 L227 29 L223 0 L18 0 L22 29 L61 27 Q78 27 81 49 L151 548 L151 553 Q151 560 147.5 564.5 Q144 569 137 569 L98 567 L102 597 L307 597 L303 567 Z " />
<glyph glyph-name="IJ" unicode="&#x132;" horiz-adv-x="738" d="M303 567 L264 569 Q256 569 250.5 563.5 Q245 558 243 548 L173 49 L173 44 Q173 27 188 27 L227 29 L223 0 L18 0 L22 29 L61 27 Q78 27 81 49 L151 548 L151 553 Q151 560 147.5 564.5 Q144 569 137 569 L98 567 L102 597 L307 597 L303 567 Z M744 567 L707 569 Q689 569 686 549 L634 179 Q607 -10 445 -10 Q407 -10 365 0 Q342 5 329 5 Q307 5 293 -4 L318 172 L355 172 Q352 154 352 133 Q352 84 371 50 Q390 16 433 16 Q479 16 503.5 53 Q528 90 541 179 L593 548 L593 553 Q593 569 580 569 L511 567 L515 597 L748 597 L744 567 Z " />
<glyph glyph-name="Iacute" unicode="&#xcd;" horiz-adv-x="301" d="M303 567 L264 569 Q256 569 250.5 563.5 Q245 558 243 548 L173 49 L173 44 Q173 27 188 27 L227 29 L223 0 L18 0 L22 29 L61 27 Q78 27 81 49 L151 548 L151 553 Q151 560 147.5 564.5 Q144 569 137 569 L98 567 L102 597 L307 597 L303 567 Z M362 800 Q362 796 352 788 L181 675 Q169 666 160 666 Q146 666 146 673 Q146 677 155 686 Q164 695 166 697 L273 805 Q285 818 291 822 Q297 826 308 826 Q325 826 343.5 816.5 Q362 807 362 800 Z " />
<glyph glyph-name="Icircumflex" unicode="&#xce;" horiz-adv-x="301" d="M303 567 L264 569 Q256 569 250.5 563.5 Q245 558 243 548 L173 49 L173 44 Q173 27 188 27 L227 29 L223 0 L18 0 L22 29 L61 27 Q78 27 81 49 L151 548 L151 553 Q151 560 147.5 564.5 Q144 569 137 569 L98 567 L102 597 L307 597 L303 567 Z M74 666 Q63 666 63 673 Q63 677 90 698 Q97 704 115 719 Q133 734 149 749 L199 797 Q226 822 233 822 Q236 822 243.5 815 Q251 808 259 797 L295 749 Q314 724 344 694 Q360 678 360 674 Q360 671 357 668.5 Q354 666 347 666 Q337 666 320 678 L223 751 L103 678 Q81 666 74 666 Z " />
<glyph glyph-name="Idieresis" unicode="&#xcf;" horiz-adv-x="301" d="M303 567 L264 569 Q256 569 250.5 563.5 Q245 558 243 548 L173 49 L173 44 Q173 27 188 27 L227 29 L223 0 L18 0 L22 29 L61 27 Q78 27 81 49 L151 548 L151 553 Q151 560 147.5 564.5 Q144 569 137 569 L98 567 L102 597 L307 597 L303 567 Z M140 772 Q162 772 174.5 761 Q187 750 187 731 Q187 706 170 691.5 Q153 677 126 677 Q105 677 91.5 688 Q78 699 78 718 Q78 742 96 757 Q114 772 140 772 Z M314 772 Q336 772 348.5 761 Q361 750 361 731 Q361 706 344 691.5 Q327 677 300 677 Q279 677 265.5 688 Q252 699 252 718 Q252 742 270 757 Q288 772 314 772 Z " />
<glyph glyph-name="Idot" unicode="&#x130;" horiz-adv-x="301" d="M303 567 L264 569 Q256 569 250.5 563.5 Q245 558 243 548 L173 49 L173 44 Q173 27 188 27 L227 29 L223 0 L18 0 L22 29 L61 27 Q78 27 81 49 L151 548 L151 553 Q151 560 147.5 564.5 Q144 569 137 569 L98 567 L102 597 L307 597 L303 567 Z M226 773 Q248 773 260.5 762 Q273 751 273 732 Q273 707 256 692.5 Q239 678 212 678 Q191 678 177.5 689 Q164 700 164 719 Q164 743 182 758 Q200 773 226 773 Z " />
<glyph glyph-name="Igrave" unicode="&#xcc;" horiz-adv-x="301" d="M303 567 L264 569 Q256 569 250.5 563.5 Q245 558 243 548 L173 49 L173 44 Q173 27 188 27 L227 29 L223 0 L18 0 L22 29 L61 27 Q78 27 81 49 L151 548 L151 553 Q151 560 147.5 564.5 Q144 569 137 569 L98 567 L102 597 L307 597 L303 567 Z M155 826 Q164 826 168.5 823 Q173 820 177.5 813.5 Q182 807 184 805 L266 691 Q275 677 275 674 Q275 666 258 666 Q249 666 240 675 L101 788 Q95 794 95 799 Q95 806 116 816 Q137 826 155 826 Z " />
<glyph glyph-name="Imacron" unicode="&#x12a;" horiz-adv-x="301" d="M303 567 L264 569 Q256 569 250.5 563.5 Q245 558 243 548 L173 49 L173 44 Q173 27 188 27 L227 29 L223 0 L18 0 L22 29 L61 27 Q78 27 81 49 L151 548 L151 553 Q151 560 147.5 564.5 Q144 569 137 569 L98 567 L102 597 L307 597 L303 567 Z M337 716 L331 676 L89 676 L95 716 L337 716 Z " />
<glyph glyph-name="Iogonek" unicode="&#x12e;" horiz-adv-x="301" d="M307 597 L303 567 L264 569 Q256 569 250.5 563.5 Q245 558 243 548 L173 49 L173 44 Q173 27 188 27 L227 29 L223 0 L168 0 Q132 -29 132 -71 Q132 -91 143 -103.5 Q154 -116 177 -116 Q207 -116 246 -85 L258 -99 Q231 -128 199.5 -143.5 Q168 -159 137 -159 Q111 -159 92.5 -142.5 Q74 -126 74 -97 Q74 -70 90 -44.5 Q106 -19 136 0 L18 0 L22 29 L61 27 Q78 27 81 49 L151 548 L151 553 Q151 560 147.5 564.5 Q144 569 137 569 L98 567 L102 597 L307 597 Z " />
<glyph glyph-name="J" unicode="J" horiz-adv-x="437" d="M443 567 L406 569 Q388 569 385 549 L333 179 Q306 -10 144 -10 Q106 -10 64 0 Q41 5 28 5 Q6 5 -8 -4 L17 172 L54 172 Q51 154 51 133 Q51 84 70 50 Q89 16 132 16 Q178 16 202.5 53 Q227 90 240 179 L292 548 L292 553 Q292 569 279 569 L210 567 L214 597 L447 597 L443 567 Z " />
<glyph glyph-name="K" unicode="K" horiz-adv-x="598" d="M553 569 Q529 570 499 540 L328 365 L512 41 Q520 27 532 27 Q533 27 566 30 L562 0 L330 0 L334 30 L388 27 Q404 27 404 41 Q404 46 401 52 L262 298 L199 234 L173 49 L173 44 Q173 27 188 27 L237 29 L233 0 L18 0 L22 29 L61 27 Q78 27 81 49 L151 548 L151 553 Q151 569 137 569 L98 567 L102 597 L317 597 L313 567 L264 569 Q246 569 243 547 L206 281 L459 548 Q466 557 466 562 Q466 569 459 569 L417 567 L421 597 L596 597 L592 567 L553 569 Z " />
<glyph glyph-name="Kcommaaccent" unicode="&#x136;" horiz-adv-x="598" d="M553 569 Q529 570 499 540 L328 365 L512 41 Q520 27 532 27 Q533 27 566 30 L562 0 L330 0 L334 30 L388 27 Q404 27 404 41 Q404 46 401 52 L262 298 L199 234 L173 49 L173 44 Q173 27 188 27 L237 29 L233 0 L18 0 L22 29 L61 27 Q78 27 81 49 L151 548 L151 553 Q151 569 137 569 L98 567 L102 597 L317 597 L313 567 L264 569 Q246 569 243 547 L206 281 L459 548 Q466 557 466 562 Q466 569 459 569 L417 567 L421 597 L596 597 L592 567 L553 569 Z M268 -34 Q293 -34 307 -49.5 Q321 -65 321 -87 Q321 -127 291 -161 Q261 -195 222 -213 L208 -200 Q229 -188 246.5 -170.5 Q264 -153 265 -140 Q269 -111 241 -111 Q229 -111 222 -102 Q215 -93 215 -81 Q215 -63 229.5 -48.5 Q244 -34 268 -34 Z " />
<glyph glyph-name="L" unicode="L" horiz-adv-x="498" d="M313 567 L264 569 Q256 569 250.5 563.5 Q245 558 243 548 L172 41 L172 38 Q172 28 180 28 L289 28 Q355 28 394 64.5 Q433 101 443 171 L471 171 L447 -3 Q428 0 326 0 L18 0 L22 30 L65 27 Q77 27 81 49 L151 548 L151 552 Q151 560 147.5 564.5 Q144 569 137 569 L98 567 L102 597 L317 597 L313 567 Z " />
<glyph glyph-name="Lacute" unicode="&#x139;" horiz-adv-x="498" d="M313 567 L264 569 Q256 569 250.5 563.5 Q245 558 243 548 L172 41 L172 38 Q172 28 180 28 L289 28 Q355 28 394 64.5 Q433 101 443 171 L471 171 L447 -3 Q428 0 326 0 L18 0 L22 30 L65 27 Q77 27 81 49 L151 548 L151 552 Q151 560 147.5 564.5 Q144 569 137 569 L98 567 L102 597 L317 597 L313 567 Z M384 800 Q384 796 374 788 L203 675 Q191 666 182 666 Q168 666 168 673 Q168 677 177 686 Q186 695 188 697 L295 805 Q307 818 313 822 Q319 826 330 826 Q347 826 365.5 816.5 Q384 807 384 800 Z " />
<glyph glyph-name="Lcaron" unicode="&#x13d;" horiz-adv-x="498" d="M313 567 L264 569 Q256 569 250.5 563.5 Q245 558 243 548 L172 41 L172 38 Q172 28 180 28 L289 28 Q355 28 394 64.5 Q433 101 443 171 L471 171 L447 -3 Q428 0 326 0 L18 0 L22 30 L65 27 Q77 27 81 49 L151 548 L151 552 Q151 560 147.5 564.5 Q144 569 137 569 L98 567 L102 597 L317 597 L313 567 Z M461 607 Q483 607 496 591.5 Q509 576 509 554 Q509 518 482 486 Q455 454 420 438 L406 451 Q424 463 438 480.5 Q452 498 453 511 L453 515 Q453 530 439 530 Q427 530 420 539 Q413 548 413 560 Q413 578 425.5 592.5 Q438 607 461 607 Z " />
<glyph glyph-name="Lcommaaccent" unicode="&#x13b;" horiz-adv-x="498" d="M313 567 L264 569 Q256 569 250.5 563.5 Q245 558 243 548 L172 41 L172 38 Q172 28 180 28 L289 28 Q355 28 394 64.5 Q433 101 443 171 L471 171 L447 -3 Q428 0 326 0 L18 0 L22 30 L65 27 Q77 27 81 49 L151 548 L151 552 Q151 560 147.5 564.5 Q144 569 137 569 L98 567 L102 597 L317 597 L313 567 Z M215 -34 Q240 -34 254 -49.5 Q268 -65 268 -87 Q268 -127 238 -161 Q208 -195 169 -213 L155 -200 Q176 -188 193.5 -170.5 Q211 -153 212 -140 Q216 -111 188 -111 Q176 -111 169 -102 Q162 -93 162 -81 Q162 -63 176.5 -48.5 Q191 -34 215 -34 Z " />
<glyph glyph-name="Ldot" unicode="&#x13f;" horiz-adv-x="498" d="M313 567 L264 569 Q256 569 250.5 563.5 Q245 558 243 548 L172 41 L172 38 Q172 28 180 28 L289 28 Q355 28 394 64.5 Q433 101 443 171 L471 171 L447 -3 Q428 0 326 0 L18 0 L22 30 L65 27 Q77 27 81 49 L151 548 L151 552 Q151 560 147.5 564.5 Q144 569 137 569 L98 567 L102 597 L317 597 L313 567 Z M349 326 Q349 355 369.5 373.5 Q390 392 420 392 Q444 392 459 378.5 Q474 365 474 342 Q474 313 453.5 295 Q433 277 404 277 Q379 277 364 290.5 Q349 304 349 326 Z " />
<glyph glyph-name="Lslash" unicode="&#x141;" horiz-adv-x="498" d="M471 171 L447 -3 Q428 0 326 0 L18 0 L22 30 L65 27 Q77 27 81 49 L105 221 L42 173 L49 220 L112 268 L151 548 L151 552 Q151 560 147.5 564.5 Q144 569 137 569 L98 567 L102 597 L317 597 L313 567 L264 569 Q256 569 250.5 563.5 Q245 558 243 548 L214 343 L321 425 L314 377 L208 295 L172 41 L172 38 Q172 28 180 28 L289 28 Q355 28 394 64.5 Q433 101 443 171 L471 171 Z " />
<glyph glyph-name="M" unicode="M" horiz-adv-x="830" d="M827 567 L793 569 Q785 569 779.5 563.5 Q774 558 772 549 L702 49 L702 43 Q702 27 717 27 L756 29 L752 0 L537 0 L541 29 L590 27 Q607 27 610 49 L675 513 L376 -10 L350 -10 L179 520 L113 49 L113 42 Q113 27 126 27 L175 29 L171 0 L13 0 L17 29 L56 27 Q74 27 77 49 L149 563 Q151 569 145 569 L100 567 L104 597 L255 597 L410 115 L687 597 L831 597 L827 567 Z " />
<glyph glyph-name="N" unicode="N" horiz-adv-x="641" d="M648 567 L607 569 Q592 569 589 548 L511 -6 L479 -6 L179 521 L113 49 L113 42 Q113 27 126 27 L175 29 L171 0 L13 0 L17 29 L56 27 Q74 27 77 49 L147 548 L147 553 Q147 560 143 564.5 Q139 569 132 569 L93 567 L97 597 L249 597 L498 158 L553 549 L554 555 Q552 569 541 569 L489 567 L493 597 L652 597 L648 567 Z " />
<glyph glyph-name="Nacute" unicode="&#x143;" horiz-adv-x="641" d="M648 567 L607 569 Q592 569 589 548 L511 -6 L479 -6 L179 521 L113 49 L113 42 Q113 27 126 27 L175 29 L171 0 L13 0 L17 29 L56 27 Q74 27 77 49 L147 548 L147 553 Q147 560 143 564.5 Q139 569 132 569 L93 567 L97 597 L249 597 L498 158 L553 549 L554 555 Q552 569 541 569 L489 567 L493 597 L652 597 L648 567 Z M537 800 Q537 796 527 788 L356 675 Q344 666 335 666 Q321 666 321 673 Q321 677 330 686 Q339 695 341 697 L448 805 Q460 818 466 822 Q472 826 483 826 Q500 826 518.5 816.5 Q537 807 537 800 Z " />
<glyph glyph-name="Ncaron" unicode="&#x147;" horiz-adv-x="641" d="M648 567 L607 569 Q592 569 589 548 L511 -6 L479 -6 L179 521 L113 49 L113 42 Q113 27 126 27 L175 29 L171 0 L13 0 L17 29 L56 27 Q74 27 77 49 L147 548 L147 553 Q147 560 143 564.5 Q139 569 132 569 L93 567 L97 597 L249 597 L498 158 L553 549 L554 555 Q552 569 541 569 L489 567 L493 597 L652 597 L648 567 Z M544 824 Q555 824 555 817 Q555 813 528 792 Q521 786 503 771 Q485 756 469 741 L419 693 Q392 668 385 668 Q382 668 374.5 675 Q367 682 359 693 L323 741 Q304 766 274 796 Q258 812 258 816 Q258 819 261 821.5 Q264 824 271 824 Q281 824 298 812 L395 739 L515 812 Q537 824 544 824 Z " />
<glyph glyph-name="Ncommaaccent" unicode="&#x145;" horiz-adv-x="641" d="M648 567 L607 569 Q592 569 589 548 L511 -6 L479 -6 L179 521 L113 49 L113 42 Q113 27 126 27 L175 29 L171 0 L13 0 L17 29 L56 27 Q74 27 77 49 L147 548 L147 553 Q147 560 143 564.5 Q139 569 132 569 L93 567 L97 597 L249 597 L498 158 L553 549 L554 555 Q552 569 541 569 L489 567 L493 597 L652 597 L648 567 Z M316 -34 Q341 -34 355 -49.5 Q369 -65 369 -87 Q369 -127 339 -161 Q309 -195 270 -213 L256 -200 Q277 -188 294.5 -170.5 Q312 -153 313 -140 Q317 -111 289 -111 Q277 -111 270 -102 Q263 -93 263 -81 Q263 -63 277.5 -48.5 Q292 -34 316 -34 Z " />
<glyph glyph-name="Ntilde" unicode="&#xd1;" horiz-adv-x="641" d="M648 567 L607 569 Q592 569 589 548 L511 -6 L479 -6 L179 521 L113 49 L113 42 Q113 27 126 27 L175 29 L171 0 L13 0 L17 29 L56 27 Q74 27 77 49 L147 548 L147 553 Q147 560 143 564.5 Q139 569 132 569 L93 567 L97 597 L249 597 L498 158 L553 549 L554 555 Q552 569 541 569 L489 567 L493 597 L652 597 L648 567 Z M322 767 Q345 767 405 745 Q458 724 480 724 Q494 724 505.5 736 Q517 748 519 766 L539 766 Q534 729 511.5 702 Q489 675 462 675 Q447 675 428 680.5 Q409 686 379 697 Q326 718 304 718 Q290 718 279 706 Q268 694 265 676 L245 676 Q250 713 272.5 740 Q295 767 322 767 Z " />
<glyph glyph-name="O" unicode="O" horiz-adv-x="649" d="M50 242 Q50 389 105 470 Q160 551 234 579 Q308 607 379 607 Q472 607 547.5 554 Q623 501 623 356 Q623 209 567.5 128 Q512 47 438 18.5 Q364 -10 293 -10 Q200 -10 125 44 Q50 98 50 242 Z M148 215 Q148 140 164.5 97 Q181 54 215.5 35.5 Q250 17 306 17 Q425 17 478 139 Q524 247 524 383 Q524 457 507.5 500 Q491 543 457 561.5 Q423 580 366 580 Q240 580 189 443 Q148 335 148 215 Z " />
<glyph glyph-name="Oacute" unicode="&#xd3;" horiz-adv-x="649" d="M50 242 Q50 389 105 470 Q160 551 234 579 Q308 607 379 607 Q472 607 547.5 554 Q623 501 623 356 Q623 209 567.5 128 Q512 47 438 18.5 Q364 -10 293 -10 Q200 -10 125 44 Q50 98 50 242 Z M148 215 Q148 140 164.5 97 Q181 54 215.5 35.5 Q250 17 306 17 Q425 17 478 139 Q524 247 524 383 Q524 457 507.5 500 Q491 543 457 561.5 Q423 580 366 580 Q240 580 189 443 Q148 335 148 215 Z M537 800 Q537 796 527 788 L356 675 Q344 666 335 666 Q321 666 321 673 Q321 677 330 686 Q339 695 341 697 L448 805 Q460 818 466 822 Q472 826 483 826 Q500 826 518.5 816.5 Q537 807 537 800 Z " />
<glyph glyph-name="Ocircumflex" unicode="&#xd4;" horiz-adv-x="649" d="M50 242 Q50 389 105 470 Q160 551 234 579 Q308 607 379 607 Q472 607 547.5 554 Q623 501 623 356 Q623 209 567.5 128 Q512 47 438 18.5 Q364 -10 293 -10 Q200 -10 125 44 Q50 98 50 242 Z M148 215 Q148 140 164.5 97 Q181 54 215.5 35.5 Q250 17 306 17 Q425 17 478 139 Q524 247 524 383 Q524 457 507.5 500 Q491 543 457 561.5 Q423 580 366 580 Q240 580 189 443 Q148 335 148 215 Z M249 666 Q238 666 238 673 Q238 677 265 698 Q272 704 290 719 Q308 734 324 749 L374 797 Q401 822 408 822 Q411 822 418.5 815 Q426 808 434 797 L470 749 Q489 724 519 694 Q535 678 535 674 Q535 671 532 668.5 Q529 666 522 666 Q512 666 495 678 L398 751 L278 678 Q256 666 249 666 Z " />
<glyph glyph-name="Odieresis" unicode="&#xd6;" horiz-adv-x="649" d="M50 242 Q50 389 105 470 Q160 551 234 579 Q308 607 379 607 Q472 607 547.5 554 Q623 501 623 356 Q623 209 567.5 128 Q512 47 438 18.5 Q364 -10 293 -10 Q200 -10 125 44 Q50 98 50 242 Z M148 215 Q148 140 164.5 97 Q181 54 215.5 35.5 Q250 17 306 17 Q425 17 478 139 Q524 247 524 383 Q524 457 507.5 500 Q491 543 457 561.5 Q423 580 366 580 Q240 580 189 443 Q148 335 148 215 Z M315 772 Q337 772 349.5 761 Q362 750 362 731 Q362 706 345 691.5 Q328 677 301 677 Q280 677 266.5 688 Q253 699 253 718 Q253 742 271 757 Q289 772 315 772 Z M489 772 Q511 772 523.5 761 Q536 750 536 731 Q536 706 519 691.5 Q502 677 475 677 Q454 677 440.5 688 Q427 699 427 718 Q427 742 445 757 Q463 772 489 772 Z " />
<glyph glyph-name="Ograve" unicode="&#xd2;" horiz-adv-x="649" d="M50 242 Q50 389 105 470 Q160 551 234 579 Q308 607 379 607 Q472 607 547.5 554 Q623 501 623 356 Q623 209 567.5 128 Q512 47 438 18.5 Q364 -10 293 -10 Q200 -10 125 44 Q50 98 50 242 Z M148 215 Q148 140 164.5 97 Q181 54 215.5 35.5 Q250 17 306 17 Q425 17 478 139 Q524 247 524 383 Q524 457 507.5 500 Q491 543 457 561.5 Q423 580 366 580 Q240 580 189 443 Q148 335 148 215 Z M330 826 Q339 826 343.5 823 Q348 820 352.5 813.5 Q357 807 359 805 L441 691 Q450 677 450 674 Q450 666 433 666 Q424 666 415 675 L276 788 Q270 794 270 799 Q270 806 291 816 Q312 826 330 826 Z " />
<glyph glyph-name="Ohungarumlaut" unicode="&#x150;" horiz-adv-x="649" d="M50 242 Q50 389 105 470 Q160 551 234 579 Q308 607 379 607 Q472 607 547.5 554 Q623 501 623 356 Q623 209 567.5 128 Q512 47 438 18.5 Q364 -10 293 -10 Q200 -10 125 44 Q50 98 50 242 Z M148 215 Q148 140 164.5 97 Q181 54 215.5 35.5 Q250 17 306 17 Q425 17 478 139 Q524 247 524 383 Q524 457 507.5 500 Q491 543 457 561.5 Q423 580 366 580 Q240 580 189 443 Q148 335 148 215 Z M389 826 Q404 826 421 817 Q438 808 438 801 Q438 798 429 789 Q419 778 303 672 Q297 666 286 666 Q276 666 276 673 Q276 678 280 683 Q332 759 373 817 Q377 823 380 824.5 Q383 826 389 826 Z M501 826 Q515 826 532 817.5 Q549 809 549 802 Q549 798 541 789 Q524 769 415 672 Q408 666 398 666 Q393 666 390 668 Q387 670 387 673 Q387 675 391 683 Q435 743 457.5 776.5 Q480 810 485 817 Q490 823 493 824.5 Q496 826 501 826 Z " />
<glyph glyph-name="Omacron" unicode="&#x14c;" horiz-adv-x="649" d="M50 242 Q50 389 105 470 Q160 551 234 579 Q308 607 379 607 Q472 607 547.5 554 Q623 501 623 356 Q623 209 567.5 128 Q512 47 438 18.5 Q364 -10 293 -10 Q200 -10 125 44 Q50 98 50 242 Z M148 215 Q148 140 164.5 97 Q181 54 215.5 35.5 Q250 17 306 17 Q425 17 478 139 Q524 247 524 383 Q524 457 507.5 500 Q491 543 457 561.5 Q423 580 366 580 Q240 580 189 443 Q148 335 148 215 Z M512 716 L506 676 L264 676 L270 716 L512 716 Z " />
<glyph glyph-name="Oslash" unicode="&#xd8;" horiz-adv-x="644" d="M542 557 Q623 494 623 356 Q623 209 567.5 128 Q512 47 438 18.5 Q364 -10 293 -10 Q217 -10 161 21 L81 -92 L46 -74 L128 42 Q50 108 50 242 Q50 389 105 470 Q160 551 234 579 Q308 607 379 607 Q452 607 508 579 L584 687 L619 666 L542 557 Z M148 215 Q148 140 166 95 L482 542 Q445 580 366 580 Q240 580 189 443 Q148 335 148 215 Z M478 139 Q524 247 524 383 Q524 462 505 506 L188 58 Q223 17 306 17 Q425 17 478 139 Z " />
<glyph glyph-name="Otilde" unicode="&#xd5;" horiz-adv-x="649" d="M50 242 Q50 389 105 470 Q160 551 234 579 Q308 607 379 607 Q472 607 547.5 554 Q623 501 623 356 Q623 209 567.5 128 Q512 47 438 18.5 Q364 -10 293 -10 Q200 -10 125 44 Q50 98 50 242 Z M148 215 Q148 140 164.5 97 Q181 54 215.5 35.5 Q250 17 306 17 Q425 17 478 139 Q524 247 524 383 Q524 457 507.5 500 Q491 543 457 561.5 Q423 580 366 580 Q240 580 189 443 Q148 335 148 215 Z M322 767 Q345 767 405 745 Q458 724 480 724 Q494 724 505.5 736 Q517 748 519 766 L539 766 Q534 729 511.5 702 Q489 675 462 675 Q447 675 428 680.5 Q409 686 379 697 Q326 718 304 718 Q290 718 279 706 Q268 694 265 676 L245 676 Q250 713 272.5 740 Q295 767 322 767 Z " />
<glyph glyph-name="OE" unicode="&#x152;" horiz-adv-x="834" d="M387 607 Q407 607 427 605 Q447 603 453 602 Q483 597 510 597 L827 597 L805 443 L776 443 Q779 461 779 476 Q779 526 750 547.5 Q721 569 659 569 L568 569 Q557 569 555 555 L523 324 L595 324 Q627 324 651 351.5 Q675 379 682 426 L711 426 L678 195 L649 195 Q651 211 651 217 Q651 253 634 275 Q617 297 591 297 L519 297 L483 40 L483 37 Q483 27 492 27 L603 27 Q669 27 708.5 66.5 Q748 106 758 179 L787 179 L762 -3 Q737 0 675 0 L434 0 Q374 0 336.5 -5 Q299 -10 298 -10 Q178 -10 114 54 Q50 118 50 237 Q50 410 133 508.5 Q216 607 387 607 Z M377 581 Q221 581 172 422 Q144 347 144 212 Q144 111 181 64.5 Q218 18 298 18 Q350 18 373.5 38.5 Q397 59 402 90 L463 526 Q466 549 441 565 Q416 581 377 581 Z " />
<glyph glyph-name="P" unicode="P" horiz-adv-x="507" d="M330 597 Q420 597 463.5 563.5 Q507 530 507 463 Q507 404 481.5 359 Q456 314 410 288.5 Q364 263 303 263 L203 263 L173 49 L173 44 Q173 27 188 27 L237 29 L233 0 L18 0 L22 29 L61 27 Q78 27 81 49 L151 547 L152 554 Q152 561 148 565.5 Q144 570 136 569 L98 567 L102 597 L330 597 Z M256 569 Q253 569 249 565.5 Q245 562 244 557 L207 291 L287 291 Q320 291 348.5 313.5 Q377 336 394 374.5 Q411 413 411 458 Q411 508 384 538.5 Q357 569 310 569 L256 569 Z " />
<glyph glyph-name="Thorn" unicode="&#xde;" horiz-adv-x="508" d="M313 567 L264 569 Q257 569 251.5 563 Q246 557 244 548 L237 496 L314 496 Q406 496 450 463.5 Q494 431 494 362 Q494 272 438 217 Q382 162 288 162 L190 162 L174 49 L173 42 Q173 26 188 27 L237 29 L233 0 L18 0 L22 29 L61 27 Q78 27 81 49 L151 548 L151 553 Q151 569 137 569 L98 567 L102 597 L317 597 L313 567 Z M233 471 L195 201 L195 199 Q195 194 197.5 191 Q200 188 204 188 L270 188 Q301 188 331 211 Q361 234 379.5 273 Q398 312 398 357 Q398 409 371 440 Q344 471 295 471 L233 471 Z " />
<glyph glyph-name="Q" unicode="Q" horiz-adv-x="649" d="M504 -98 Q532 -98 582 -86 L589 -112 Q519 -156 466 -156 Q421 -156 380 -121 Q339 -86 293 -10 Q200 -10 125 44 Q50 98 50 242 Q50 389 105 470 Q160 551 234 579 Q308 607 379 607 Q472 607 547.5 554 Q623 501 623 356 Q623 181 546.5 98.5 Q470 16 364 -3 Q403 -56 435.5 -77 Q468 -98 504 -98 Z M148 215 Q148 140 164.5 97 Q181 54 215.5 35.5 Q250 17 306 17 Q425 17 478 139 Q524 247 524 383 Q524 457 507.5 500 Q491 543 457 561.5 Q423 580 366 580 Q240 580 189 443 Q148 335 148 215 Z " />
<glyph glyph-name="R" unicode="R" horiz-adv-x="563" d="M320 597 Q415 597 460 566 Q505 535 505 468 Q505 401 465.5 357 Q426 313 365 297 Q416 290 440 257 Q464 224 464 172 L462 117 L460 69 Q460 47 467 36.5 Q474 26 489 26 Q501 26 510 32 L518 13 Q501 4 477 -3 Q453 -10 431 -10 Q400 -10 385.5 7.5 Q371 25 371 64 Q371 80 372 92.5 Q373 105 374 114 Q377 140 377 161 Q377 223 342.5 253.5 Q308 284 253 286 L206 286 L173 41 Q173 27 188 27 L237 29 L233 0 L18 0 L22 29 L61 27 Q78 27 81 49 L150 542 L151 551 Q151 560 147 564.5 Q143 569 133 569 L98 567 L102 597 L320 597 Z M256 569 Q246 569 245 559 L210 313 L299 313 Q350 313 381 354.5 Q412 396 412 465 Q412 520 389 544.5 Q366 569 316 569 L256 569 Z " />
<glyph glyph-name="Racute" unicode="&#x154;" horiz-adv-x="563" d="M320 597 Q415 597 460 566 Q505 535 505 468 Q505 401 465.5 357 Q426 313 365 297 Q416 290 440 257 Q464 224 464 172 L462 117 L460 69 Q460 47 467 36.5 Q474 26 489 26 Q501 26 510 32 L518 13 Q501 4 477 -3 Q453 -10 431 -10 Q400 -10 385.5 7.5 Q371 25 371 64 Q371 80 372 92.5 Q373 105 374 114 Q377 140 377 161 Q377 223 342.5 253.5 Q308 284 253 286 L206 286 L173 41 Q173 27 188 27 L237 29 L233 0 L18 0 L22 29 L61 27 Q78 27 81 49 L150 542 L151 551 Q151 560 147 564.5 Q143 569 133 569 L98 567 L102 597 L320 597 Z M256 569 Q246 569 245 559 L210 313 L299 313 Q350 313 381 354.5 Q412 396 412 465 Q412 520 389 544.5 Q366 569 316 569 L256 569 Z M493 800 Q493 796 483 788 L312 675 Q300 666 291 666 Q277 666 277 673 Q277 677 286 686 Q295 695 297 697 L404 805 Q416 818 422 822 Q428 826 439 826 Q456 826 474.5 816.5 Q493 807 493 800 Z " />
<glyph glyph-name="Rcaron" unicode="&#x158;" horiz-adv-x="563" d="M320 597 Q415 597 460 566 Q505 535 505 468 Q505 401 465.5 357 Q426 313 365 297 Q416 290 440 257 Q464 224 464 172 L462 117 L460 69 Q460 47 467 36.5 Q474 26 489 26 Q501 26 510 32 L518 13 Q501 4 477 -3 Q453 -10 431 -10 Q400 -10 385.5 7.5 Q371 25 371 64 Q371 80 372 92.5 Q373 105 374 114 Q377 140 377 161 Q377 223 342.5 253.5 Q308 284 253 286 L206 286 L173 41 Q173 27 188 27 L237 29 L233 0 L18 0 L22 29 L61 27 Q78 27 81 49 L150 542 L151 551 Q151 560 147 564.5 Q143 569 133 569 L98 567 L102 597 L320 597 Z M256 569 Q246 569 245 559 L210 313 L299 313 Q350 313 381 354.5 Q412 396 412 465 Q412 520 389 544.5 Q366 569 316 569 L256 569 Z M500 824 Q511 824 511 817 Q511 813 484 792 Q477 786 459 771 Q441 756 425 741 L375 693 Q348 668 341 668 Q338 668 330.5 675 Q323 682 315 693 L279 741 Q260 766 230 796 Q214 812 214 816 Q214 819 217 821.5 Q220 824 227 824 Q237 824 254 812 L351 739 L471 812 Q493 824 500 824 Z " />
<glyph glyph-name="Rcommaaccent" unicode="&#x156;" horiz-adv-x="563" d="M320 597 Q415 597 460 566 Q505 535 505 468 Q505 401 465.5 357 Q426 313 365 297 Q416 290 440 257 Q464 224 464 172 L462 117 L460 69 Q460 47 467 36.5 Q474 26 489 26 Q501 26 510 32 L518 13 Q501 4 477 -3 Q453 -10 431 -10 Q400 -10 385.5 7.5 Q371 25 371 64 Q371 80 372 92.5 Q373 105 374 114 Q377 140 377 161 Q377 223 342.5 253.5 Q308 284 253 286 L206 286 L173 41 Q173 27 188 27 L237 29 L233 0 L18 0 L22 29 L61 27 Q78 27 81 49 L150 542 L151 551 Q151 560 147 564.5 Q143 569 133 569 L98 567 L102 597 L320 597 Z M256 569 Q246 569 245 559 L210 313 L299 313 Q350 313 381 354.5 Q412 396 412 465 Q412 520 389 544.5 Q366 569 316 569 L256 569 Z M249 -34 Q274 -34 288 -49.5 Q302 -65 302 -87 Q302 -127 272 -161 Q242 -195 203 -213 L189 -200 Q210 -188 227.5 -170.5 Q245 -153 246 -140 Q250 -111 222 -111 Q210 -111 203 -102 Q196 -93 196 -81 Q196 -63 210.5 -48.5 Q225 -34 249 -34 Z " />
<glyph glyph-name="S" unicode="S" horiz-adv-x="479" d="M289 607 Q318 607 339 601.5 Q360 596 409 578 Q424 572 434 572 Q451 572 465 577 Q464 573 458.5 558 Q453 543 449.5 518 Q446 493 446 458 Q446 439 447 434 L419 434 Q421 450 421 458 Q421 513 386.5 546.5 Q352 580 297 580 Q242 580 207 553 Q172 526 171 481 Q171 443 195.5 417.5 Q220 392 267 365 L329 330 Q381 300 409.5 264.5 Q438 229 438 176 Q438 122 408.5 79.5 Q379 37 330.5 13.5 Q282 -10 228 -10 Q189 -10 139 3 L114 9 Q80 18 69 18 Q56 18 41 15 Q26 12 20 10 Q21 14 28 31 Q35 48 40 84 Q45 120 45 172 Q45 199 44 203 L71 203 Q66 18 221 18 Q252 18 280.5 33 Q309 48 326 74 Q343 100 343 132 Q343 176 317.5 205 Q292 234 244 261 L195 288 Q141 318 112 352 Q83 386 83 441 Q83 484 107.5 522.5 Q132 561 179 584 Q226 607 289 607 Z " />
<glyph glyph-name="Sacute" unicode="&#x15a;" horiz-adv-x="479" d="M289 607 Q318 607 339 601.5 Q360 596 409 578 Q424 572 434 572 Q451 572 465 577 Q464 573 458.5 558 Q453 543 449.5 518 Q446 493 446 458 Q446 439 447 434 L419 434 Q421 450 421 458 Q421 513 386.5 546.5 Q352 580 297 580 Q242 580 207 553 Q172 526 171 481 Q171 443 195.5 417.5 Q220 392 267 365 L329 330 Q381 300 409.5 264.5 Q438 229 438 176 Q438 122 408.5 79.5 Q379 37 330.5 13.5 Q282 -10 228 -10 Q189 -10 139 3 L114 9 Q80 18 69 18 Q56 18 41 15 Q26 12 20 10 Q21 14 28 31 Q35 48 40 84 Q45 120 45 172 Q45 199 44 203 L71 203 Q66 18 221 18 Q252 18 280.5 33 Q309 48 326 74 Q343 100 343 132 Q343 176 317.5 205 Q292 234 244 261 L195 288 Q141 318 112 352 Q83 386 83 441 Q83 484 107.5 522.5 Q132 561 179 584 Q226 607 289 607 Z M456 800 Q456 796 446 788 L275 675 Q263 666 254 666 Q240 666 240 673 Q240 677 249 686 Q258 695 260 697 L367 805 Q379 818 385 822 Q391 826 402 826 Q419 826 437.5 816.5 Q456 807 456 800 Z " />
<glyph glyph-name="Scaron" unicode="&#x160;" horiz-adv-x="479" d="M289 607 Q318 607 339 601.5 Q360 596 409 578 Q424 572 434 572 Q451 572 465 577 Q464 573 458.5 558 Q453 543 449.5 518 Q446 493 446 458 Q446 439 447 434 L419 434 Q421 450 421 458 Q421 513 386.5 546.5 Q352 580 297 580 Q242 580 207 553 Q172 526 171 481 Q171 443 195.5 417.5 Q220 392 267 365 L329 330 Q381 300 409.5 264.5 Q438 229 438 176 Q438 122 408.5 79.5 Q379 37 330.5 13.5 Q282 -10 228 -10 Q189 -10 139 3 L114 9 Q80 18 69 18 Q56 18 41 15 Q26 12 20 10 Q21 14 28 31 Q35 48 40 84 Q45 120 45 172 Q45 199 44 203 L71 203 Q66 18 221 18 Q252 18 280.5 33 Q309 48 326 74 Q343 100 343 132 Q343 176 317.5 205 Q292 234 244 261 L195 288 Q141 318 112 352 Q83 386 83 441 Q83 484 107.5 522.5 Q132 561 179 584 Q226 607 289 607 Z M463 824 Q474 824 474 817 Q474 813 447 792 Q440 786 422 771 Q404 756 388 741 L338 693 Q311 668 304 668 Q301 668 293.5 675 Q286 682 278 693 L242 741 Q223 766 193 796 Q177 812 177 816 Q177 819 180 821.5 Q183 824 190 824 Q200 824 217 812 L314 739 L434 812 Q456 824 463 824 Z " />
<glyph glyph-name="Scedilla" unicode="&#x15e;" horiz-adv-x="479" d="M419 434 Q421 450 421 458 Q421 513 386.5 546.5 Q352 580 297 580 Q242 580 207 553 Q172 526 171 481 Q171 443 195.5 417.5 Q220 392 267 365 L329 330 Q381 300 409.5 264.5 Q438 229 438 176 Q438 125 412 84.5 Q386 44 342.5 20 Q299 -4 248 -9 L224 -43 Q215 -55 215 -63 Q215 -69 221.5 -72 Q228 -75 243 -79 Q266 -86 277.5 -93 Q289 -100 289 -117 Q289 -159 261.5 -186.5 Q234 -214 185 -214 Q141 -214 119 -198 L131 -171 Q141 -187 163 -187 Q186 -187 203.5 -170 Q221 -153 221 -130 Q221 -113 196 -94 L176 -80 Q166 -73 166 -66 Q166 -60 175 -52 L212 -9 Q178 -8 139 3 L114 9 Q80 18 69 18 Q56 18 41 15 Q26 12 20 10 Q21 14 28 31 Q35 48 40 84 Q45 120 45 172 Q45 199 44 203 L71 203 Q66 18 221 18 Q252 18 280.5 33 Q309 48 326 74 Q343 100 343 132 Q343 176 317.5 205 Q292 234 244 261 L195 288 Q141 318 112 352 Q83 386 83 441 Q83 484 107.5 522.5 Q132 561 179 584 Q226 607 289 607 Q318 607 339 601.5 Q360 596 409 578 Q424 572 434 572 Q451 572 465 577 Q464 573 458.5 558 Q453 543 449.5 518 Q446 493 446 458 Q446 439 447 434 L419 434 Z " />
<glyph glyph-name="Scommaaccent" unicode="&#x218;" horiz-adv-x="479" d="M289 607 Q318 607 339 601.5 Q360 596 409 578 Q424 572 434 572 Q451 572 465 577 Q464 573 458.5 558 Q453 543 449.5 518 Q446 493 446 458 Q446 439 447 434 L419 434 Q421 450 421 458 Q421 513 386.5 546.5 Q352 580 297 580 Q242 580 207 553 Q172 526 171 481 Q171 443 195.5 417.5 Q220 392 267 365 L329 330 Q381 300 409.5 264.5 Q438 229 438 176 Q438 122 408.5 79.5 Q379 37 330.5 13.5 Q282 -10 228 -10 Q189 -10 139 3 L114 9 Q80 18 69 18 Q56 18 41 15 Q26 12 20 10 Q21 14 28 31 Q35 48 40 84 Q45 120 45 172 Q45 199 44 203 L71 203 Q66 18 221 18 Q252 18 280.5 33 Q309 48 326 74 Q343 100 343 132 Q343 176 317.5 205 Q292 234 244 261 L195 288 Q141 318 112 352 Q83 386 83 441 Q83 484 107.5 522.5 Q132 561 179 584 Q226 607 289 607 Z M225 -34 Q250 -34 264 -49.5 Q278 -65 278 -87 Q278 -127 248 -161 Q218 -195 179 -213 L165 -200 Q186 -188 203.5 -170.5 Q221 -153 222 -140 Q226 -111 198 -111 Q186 -111 179 -102 Q172 -93 172 -81 Q172 -63 186.5 -48.5 Q201 -34 225 -34 Z " />
<glyph glyph-name="T" unicode="T" horiz-adv-x="512" d="M530 443 L502 443 Q505 463 505 479 Q505 525 480.5 547 Q456 569 403 569 L363 569 Q359 569 355.5 566 Q352 563 351 558 L280 49 L280 43 Q280 27 294 27 L347 29 L343 0 L109 0 L113 29 L167 27 Q175 27 180 34 Q185 41 187 52 L258 557 L258 560 Q258 569 250 569 L210 569 Q147 569 115 538.5 Q83 508 74 443 L46 443 L68 599 Q84 597 108 597 L512 597 Q546 597 552 600 L530 443 Z " />
<glyph glyph-name="Tcaron" unicode="&#x164;" horiz-adv-x="512" d="M530 443 L502 443 Q505 463 505 479 Q505 525 480.5 547 Q456 569 403 569 L363 569 Q359 569 355.5 566 Q352 563 351 558 L280 49 L280 43 Q280 27 294 27 L347 29 L343 0 L109 0 L113 29 L167 27 Q175 27 180 34 Q185 41 187 52 L258 557 L258 560 Q258 569 250 569 L210 569 Q147 569 115 538.5 Q83 508 74 443 L46 443 L68 599 Q84 597 108 597 L512 597 Q546 597 552 600 L530 443 Z M471 824 Q482 824 482 817 Q482 813 455 792 Q448 786 430 771 Q412 756 396 741 L346 693 Q319 668 312 668 Q309 668 301.5 675 Q294 682 286 693 L250 741 Q231 766 201 796 Q185 812 185 816 Q185 819 188 821.5 Q191 824 198 824 Q208 824 225 812 L322 739 L442 812 Q464 824 471 824 Z " />
<glyph glyph-name="uni0162" unicode="&#x162;" horiz-adv-x="512" d="M530 443 L502 443 Q505 463 505 479 Q505 525 480.5 547 Q456 569 403 569 L363 569 Q359 569 355.5 566 Q352 563 351 558 L280 49 L280 43 Q280 27 294 27 L347 29 L343 0 L109 0 L113 29 L167 27 Q175 27 180 34 Q185 41 187 52 L258 557 L258 560 Q258 569 250 569 L210 569 Q147 569 115 538.5 Q83 508 74 443 L46 443 L68 599 Q84 597 108 597 L512 597 Q546 597 552 600 L530 443 Z M223 -43 Q214 -55 214 -63 Q214 -69 220.5 -72 Q227 -75 242 -79 Q265 -86 276.5 -93 Q288 -100 288 -117 Q288 -159 260.5 -186.5 Q233 -214 184 -214 Q140 -214 118 -198 L130 -171 Q140 -187 162 -187 Q185 -187 202.5 -170 Q220 -153 220 -130 Q220 -113 195 -94 L175 -80 Q165 -73 165 -66 Q165 -60 174 -52 L219 0 L254 0 L223 -43 Z " />
<glyph glyph-name="uni021A" unicode="&#x21a;" horiz-adv-x="512" d="M530 443 L502 443 Q505 463 505 479 Q505 525 480.5 547 Q456 569 403 569 L363 569 Q359 569 355.5 566 Q352 563 351 558 L280 49 L280 43 Q280 27 294 27 L347 29 L343 0 L109 0 L113 29 L167 27 Q175 27 180 34 Q185 41 187 52 L258 557 L258 560 Q258 569 250 569 L210 569 Q147 569 115 538.5 Q83 508 74 443 L46 443 L68 599 Q84 597 108 597 L512 597 Q546 597 552 600 L530 443 Z M224 -34 Q249 -34 263 -49.5 Q277 -65 277 -87 Q277 -127 247 -161 Q217 -195 178 -213 L164 -200 Q185 -188 202.5 -170.5 Q220 -153 221 -140 Q225 -111 197 -111 Q185 -111 178 -102 Q171 -93 171 -81 Q171 -63 185.5 -48.5 Q200 -34 224 -34 Z " />
<glyph glyph-name="U" unicode="U" horiz-adv-x="631" d="M657 567 L618 569 Q602 569 599 549 L548 189 Q534 88 473 39 Q412 -10 303 -10 Q197 -10 140.5 33.5 Q84 77 84 161 Q84 180 87 199 L136 548 L136 553 Q136 560 132.5 564.5 Q129 569 123 569 L84 567 L88 597 L303 597 L299 567 L250 569 Q232 569 229 549 L180 199 Q177 180 177 163 Q177 98 215.5 62 Q254 26 324 26 Q409 26 454 68 Q499 110 512 198 L561 548 L561 553 Q561 569 548 569 L499 567 L503 597 L661 597 L657 567 Z " />
<glyph glyph-name="Uacute" unicode="&#xda;" horiz-adv-x="631" d="M657 567 L618 569 Q602 569 599 549 L548 189 Q534 88 473 39 Q412 -10 303 -10 Q197 -10 140.5 33.5 Q84 77 84 161 Q84 180 87 199 L136 548 L136 553 Q136 560 132.5 564.5 Q129 569 123 569 L84 567 L88 597 L303 597 L299 567 L250 569 Q232 569 229 549 L180 199 Q177 180 177 163 Q177 98 215.5 62 Q254 26 324 26 Q409 26 454 68 Q499 110 512 198 L561 548 L561 553 Q561 569 548 569 L499 567 L503 597 L661 597 L657 567 Z M537 800 Q537 796 527 788 L356 675 Q344 666 335 666 Q321 666 321 673 Q321 677 330 686 Q339 695 341 697 L448 805 Q460 818 466 822 Q472 826 483 826 Q500 826 518.5 816.5 Q537 807 537 800 Z " />
<glyph glyph-name="Ucircumflex" unicode="&#xdb;" horiz-adv-x="631" d="M657 567 L618 569 Q602 569 599 549 L548 189 Q534 88 473 39 Q412 -10 303 -10 Q197 -10 140.5 33.5 Q84 77 84 161 Q84 180 87 199 L136 548 L136 553 Q136 560 132.5 564.5 Q129 569 123 569 L84 567 L88 597 L303 597 L299 567 L250 569 Q232 569 229 549 L180 199 Q177 180 177 163 Q177 98 215.5 62 Q254 26 324 26 Q409 26 454 68 Q499 110 512 198 L561 548 L561 553 Q561 569 548 569 L499 567 L503 597 L661 597 L657 567 Z M249 666 Q238 666 238 673 Q238 677 265 698 Q272 704 290 719 Q308 734 324 749 L374 797 Q401 822 408 822 Q411 822 418.5 815 Q426 808 434 797 L470 749 Q489 724 519 694 Q535 678 535 674 Q535 671 532 668.5 Q529 666 522 666 Q512 666 495 678 L398 751 L278 678 Q256 666 249 666 Z " />
<glyph glyph-name="Udieresis" unicode="&#xdc;" horiz-adv-x="631" d="M657 567 L618 569 Q602 569 599 549 L548 189 Q534 88 473 39 Q412 -10 303 -10 Q197 -10 140.5 33.5 Q84 77 84 161 Q84 180 87 199 L136 548 L136 553 Q136 560 132.5 564.5 Q129 569 123 569 L84 567 L88 597 L303 597 L299 567 L250 569 Q232 569 229 549 L180 199 Q177 180 177 163 Q177 98 215.5 62 Q254 26 324 26 Q409 26 454 68 Q499 110 512 198 L561 548 L561 553 Q561 569 548 569 L499 567 L503 597 L661 597 L657 567 Z M315 772 Q337 772 349.5 761 Q362 750 362 731 Q362 706 345 691.5 Q328 677 301 677 Q280 677 266.5 688 Q253 699 253 718 Q253 742 271 757 Q289 772 315 772 Z M489 772 Q511 772 523.5 761 Q536 750 536 731 Q536 706 519 691.5 Q502 677 475 677 Q454 677 440.5 688 Q427 699 427 718 Q427 742 445 757 Q463 772 489 772 Z " />
<glyph glyph-name="Ugrave" unicode="&#xd9;" horiz-adv-x="631" d="M657 567 L618 569 Q602 569 599 549 L548 189 Q534 88 473 39 Q412 -10 303 -10 Q197 -10 140.5 33.5 Q84 77 84 161 Q84 180 87 199 L136 548 L136 553 Q136 560 132.5 564.5 Q129 569 123 569 L84 567 L88 597 L303 597 L299 567 L250 569 Q232 569 229 549 L180 199 Q177 180 177 163 Q177 98 215.5 62 Q254 26 324 26 Q409 26 454 68 Q499 110 512 198 L561 548 L561 553 Q561 569 548 569 L499 567 L503 597 L661 597 L657 567 Z M330 826 Q339 826 343.5 823 Q348 820 352.5 813.5 Q357 807 359 805 L441 691 Q450 677 450 674 Q450 666 433 666 Q424 666 415 675 L276 788 Q270 794 270 799 Q270 806 291 816 Q312 826 330 826 Z " />
<glyph glyph-name="Uhungarumlaut" unicode="&#x170;" horiz-adv-x="631" d="M657 567 L618 569 Q602 569 599 549 L548 189 Q534 88 473 39 Q412 -10 303 -10 Q197 -10 140.5 33.5 Q84 77 84 161 Q84 180 87 199 L136 548 L136 553 Q136 560 132.5 564.5 Q129 569 123 569 L84 567 L88 597 L303 597 L299 567 L250 569 Q232 569 229 549 L180 199 Q177 180 177 163 Q177 98 215.5 62 Q254 26 324 26 Q409 26 454 68 Q499 110 512 198 L561 548 L561 553 Q561 569 548 569 L499 567 L503 597 L661 597 L657 567 Z M389 826 Q404 826 421 817 Q438 808 438 801 Q438 798 429 789 Q419 778 303 672 Q297 666 286 666 Q276 666 276 673 Q276 678 280 683 Q332 759 373 817 Q377 823 380 824.5 Q383 826 389 826 Z M501 826 Q515 826 532 817.5 Q549 809 549 802 Q549 798 541 789 Q524 769 415 672 Q408 666 398 666 Q393 666 390 668 Q387 670 387 673 Q387 675 391 683 Q435 743 457.5 776.5 Q480 810 485 817 Q490 823 493 824.5 Q496 826 501 826 Z " />
<glyph glyph-name="Umacron" unicode="&#x16a;" horiz-adv-x="631" d="M657 567 L618 569 Q602 569 599 549 L548 189 Q534 88 473 39 Q412 -10 303 -10 Q197 -10 140.5 33.5 Q84 77 84 161 Q84 180 87 199 L136 548 L136 553 Q136 560 132.5 564.5 Q129 569 123 569 L84 567 L88 597 L303 597 L299 567 L250 569 Q232 569 229 549 L180 199 Q177 180 177 163 Q177 98 215.5 62 Q254 26 324 26 Q409 26 454 68 Q499 110 512 198 L561 548 L561 553 Q561 569 548 569 L499 567 L503 597 L661 597 L657 567 Z M512 716 L506 676 L264 676 L270 716 L512 716 Z " />
<glyph glyph-name="Uogonek" unicode="&#x172;" horiz-adv-x="631" d="M661 597 L657 567 L618 569 Q602 569 599 549 L548 189 Q530 57 430 13 Q404 0 389 -22.5 Q374 -45 374 -71 Q374 -91 385 -103.5 Q396 -116 419 -116 Q449 -116 488 -85 L500 -99 Q473 -128 441.5 -143.5 Q410 -159 379 -159 Q353 -159 334.5 -142.5 Q316 -126 316 -97 Q316 -72 330 -47.5 Q344 -23 371 -4 Q339 -10 303 -10 Q197 -10 140.5 33.5 Q84 77 84 161 Q84 180 87 199 L136 548 L136 553 Q136 560 132.5 564.5 Q129 569 123 569 L84 567 L88 597 L303 597 L299 567 L250 569 Q232 569 229 549 L180 199 Q177 180 177 163 Q177 98 215.5 62 Q254 26 324 26 Q409 26 454 68 Q499 110 512 198 L561 548 L561 553 Q561 569 548 569 L499 567 L503 597 L661 597 Z " />
<glyph glyph-name="Uring" unicode="&#x16e;" horiz-adv-x="631" d="M657 567 L618 569 Q602 569 599 549 L548 189 Q534 88 473 39 Q412 -10 303 -10 Q197 -10 140.5 33.5 Q84 77 84 161 Q84 180 87 199 L136 548 L136 553 Q136 560 132.5 564.5 Q129 569 123 569 L84 567 L88 597 L303 597 L299 567 L250 569 Q232 569 229 549 L180 199 Q177 180 177 163 Q177 98 215.5 62 Q254 26 324 26 Q409 26 454 68 Q499 110 512 198 L561 548 L561 553 Q561 569 548 569 L499 567 L503 597 L661 597 L657 567 Z M316 738 Q316 776 343.5 802.5 Q371 829 408 829 Q442 829 460.5 810 Q479 791 479 758 Q479 718 452.5 692 Q426 666 385 666 Q352 666 334 685.5 Q316 705 316 738 Z M361 742 Q361 724 368.5 713 Q376 702 390 702 Q408 702 420.5 717.5 Q433 733 433 754 Q433 772 425.5 782.5 Q418 793 403 793 Q385 793 373 778 Q361 763 361 742 Z " />
<glyph glyph-name="V" unicode="V" horiz-adv-x="564" d="M639 597 L635 567 L599 569 Q593 569 588.5 564 Q584 559 577 546 L275 -4 L246 -4 L91 546 Q85 569 73 569 L45 567 L49 597 L259 597 L255 567 L202 569 Q197 569 193.5 565 Q190 561 190 555 Q190 551 192 545 L311 134 L536 546 Q541 554 541 561 Q541 569 532 569 L481 567 L485 597 L639 597 Z " />
<glyph glyph-name="W" unicode="W" horiz-adv-x="854" d="M929 597 L925 567 L894 569 Q880 569 869 548 L620 -10 L602 -10 L471 505 L242 -10 L221 -10 L91 547 Q87 569 75 569 L45 567 L49 597 L260 597 L256 567 L200 569 Q190 569 190 559 L192 547 L284 160 L458 556 L458 557 Q456 563 453 566 Q450 569 443 569 L402 567 L406 597 L609 597 L605 567 L561 569 Q551 569 551 556 Q551 550 552 547 L657 145 L832 549 Q835 555 835 561 Q835 569 826 569 L774 567 L778 597 L929 597 Z " />
<glyph glyph-name="Wacute" unicode="&#x1e82;" horiz-adv-x="854" d="M929 597 L925 567 L894 569 Q880 569 869 548 L620 -10 L602 -10 L471 505 L242 -10 L221 -10 L91 547 Q87 569 75 569 L45 567 L49 597 L260 597 L256 567 L200 569 Q190 569 190 559 L192 547 L284 160 L458 556 L458 557 Q456 563 453 566 Q450 569 443 569 L402 567 L406 597 L609 597 L605 567 L561 569 Q551 569 551 556 Q551 550 552 547 L657 145 L832 549 Q835 555 835 561 Q835 569 826 569 L774 567 L778 597 L929 597 Z M666 800 Q666 796 656 788 L485 675 Q473 666 464 666 Q450 666 450 673 Q450 677 459 686 Q468 695 470 697 L577 805 Q589 818 595 822 Q601 826 612 826 Q629 826 647.5 816.5 Q666 807 666 800 Z " />
<glyph glyph-name="Wcircumflex" unicode="&#x174;" horiz-adv-x="854" d="M929 597 L925 567 L894 569 Q880 569 869 548 L620 -10 L602 -10 L471 505 L242 -10 L221 -10 L91 547 Q87 569 75 569 L45 567 L49 597 L260 597 L256 567 L200 569 Q190 569 190 559 L192 547 L284 160 L458 556 L458 557 Q456 563 453 566 Q450 569 443 569 L402 567 L406 597 L609 597 L605 567 L561 569 Q551 569 551 556 Q551 550 552 547 L657 145 L832 549 Q835 555 835 561 Q835 569 826 569 L774 567 L778 597 L929 597 Z M378 666 Q367 666 367 673 Q367 677 394 698 Q401 704 419 719 Q437 734 453 749 L503 797 Q530 822 537 822 Q540 822 547.5 815 Q555 808 563 797 L599 749 Q618 724 648 694 Q664 678 664 674 Q664 671 661 668.5 Q658 666 651 666 Q641 666 624 678 L527 751 L407 678 Q385 666 378 666 Z " />
<glyph glyph-name="Wdieresis" unicode="&#x1e84;" horiz-adv-x="854" d="M929 597 L925 567 L894 569 Q880 569 869 548 L620 -10 L602 -10 L471 505 L242 -10 L221 -10 L91 547 Q87 569 75 569 L45 567 L49 597 L260 597 L256 567 L200 569 Q190 569 190 559 L192 547 L284 160 L458 556 L458 557 Q456 563 453 566 Q450 569 443 569 L402 567 L406 597 L609 597 L605 567 L561 569 Q551 569 551 556 Q551 550 552 547 L657 145 L832 549 Q835 555 835 561 Q835 569 826 569 L774 567 L778 597 L929 597 Z M444 772 Q466 772 478.5 761 Q491 750 491 731 Q491 706 474 691.5 Q457 677 430 677 Q409 677 395.5 688 Q382 699 382 718 Q382 742 400 757 Q418 772 444 772 Z M618 772 Q640 772 652.5 761 Q665 750 665 731 Q665 706 648 691.5 Q631 677 604 677 Q583 677 569.5 688 Q556 699 556 718 Q556 742 574 757 Q592 772 618 772 Z " />
<glyph glyph-name="Wgrave" unicode="&#x1e80;" horiz-adv-x="854" d="M929 597 L925 567 L894 569 Q880 569 869 548 L620 -10 L602 -10 L471 505 L242 -10 L221 -10 L91 547 Q87 569 75 569 L45 567 L49 597 L260 597 L256 567 L200 569 Q190 569 190 559 L192 547 L284 160 L458 556 L458 557 Q456 563 453 566 Q450 569 443 569 L402 567 L406 597 L609 597 L605 567 L561 569 Q551 569 551 556 Q551 550 552 547 L657 145 L832 549 Q835 555 835 561 Q835 569 826 569 L774 567 L778 597 L929 597 Z M459 826 Q468 826 472.5 823 Q477 820 481.5 813.5 Q486 807 488 805 L570 691 Q579 677 579 674 Q579 666 562 666 Q553 666 544 675 L405 788 Q399 794 399 799 Q399 806 420 816 Q441 826 459 826 Z " />
<glyph glyph-name="X" unicode="X" horiz-adv-x="549" d="M578 597 L574 567 L543 569 Q528 571 511 549 L347 329 L470 44 Q474 37 480.5 31.5 Q487 26 496 27 L535 30 L531 0 L301 0 L305 30 L354 27 Q365 27 365 38 Q365 44 362 51 L272 261 L113 47 Q108 40 108 34 Q108 27 114 27 L160 30 L156 0 L-1 0 L3 30 L40 28 Q58 28 74 50 L258 295 L147 550 Q139 569 121 569 L88 567 L92 597 L315 597 L311 567 L269 569 Q257 569 253.5 562 Q250 555 254 548 L332 363 L471 549 Q477 557 477 562 Q477 565 474.5 567 Q472 569 468 569 L425 567 L429 597 L578 597 Z " />
<glyph glyph-name="Y" unicode="Y" horiz-adv-x="491" d="M555 597 L551 567 L521 569 Q507 569 492 548 L315 288 L281 48 L281 42 Q281 27 296 27 L344 29 L340 0 L116 0 L120 29 L169 27 Q186 27 189 49 L219 263 L92 550 Q87 561 83 565 Q79 569 73 569 L45 567 L49 597 L265 597 L261 567 L208 569 Q197 569 197 558 Q197 554 200 545 L299 319 L456 549 Q460 555 460 561 Q460 569 453 569 L402 567 L406 597 L555 597 Z " />
<glyph glyph-name="Yacute" unicode="&#xdd;" horiz-adv-x="491" d="M555 597 L551 567 L521 569 Q507 569 492 548 L315 288 L281 48 L281 42 Q281 27 296 27 L344 29 L340 0 L116 0 L120 29 L169 27 Q186 27 189 49 L219 263 L92 550 Q87 561 83 565 Q79 569 73 569 L45 567 L49 597 L265 597 L261 567 L208 569 Q197 569 197 558 Q197 554 200 545 L299 319 L456 549 Q460 555 460 561 Q460 569 453 569 L402 567 L406 597 L555 597 Z M468 800 Q468 796 458 788 L287 675 Q275 666 266 666 Q252 666 252 673 Q252 677 261 686 Q270 695 272 697 L379 805 Q391 818 397 822 Q403 826 414 826 Q431 826 449.5 816.5 Q468 807 468 800 Z " />
<glyph glyph-name="Ycircumflex" unicode="&#x176;" horiz-adv-x="491" d="M555 597 L551 567 L521 569 Q507 569 492 548 L315 288 L281 48 L281 42 Q281 27 296 27 L344 29 L340 0 L116 0 L120 29 L169 27 Q186 27 189 49 L219 263 L92 550 Q87 561 83 565 Q79 569 73 569 L45 567 L49 597 L265 597 L261 567 L208 569 Q197 569 197 558 Q197 554 200 545 L299 319 L456 549 Q460 555 460 561 Q460 569 453 569 L402 567 L406 597 L555 597 Z M180 666 Q169 666 169 673 Q169 677 196 698 Q203 704 221 719 Q239 734 255 749 L305 797 Q332 822 339 822 Q342 822 349.5 815 Q357 808 365 797 L401 749 Q420 724 450 694 Q466 678 466 674 Q466 671 463 668.5 Q460 666 453 666 Q443 666 426 678 L329 751 L209 678 Q187 666 180 666 Z " />
<glyph glyph-name="Ydieresis" unicode="&#x178;" horiz-adv-x="491" d="M555 597 L551 567 L521 569 Q507 569 492 548 L315 288 L281 48 L281 42 Q281 27 296 27 L344 29 L340 0 L116 0 L120 29 L169 27 Q186 27 189 49 L219 263 L92 550 Q87 561 83 565 Q79 569 73 569 L45 567 L49 597 L265 597 L261 567 L208 569 Q197 569 197 558 Q197 554 200 545 L299 319 L456 549 Q460 555 460 561 Q460 569 453 569 L402 567 L406 597 L555 597 Z M246 772 Q268 772 280.5 761 Q293 750 293 731 Q293 706 276 691.5 Q259 677 232 677 Q211 677 197.5 688 Q184 699 184 718 Q184 742 202 757 Q220 772 246 772 Z M420 772 Q442 772 454.5 761 Q467 750 467 731 Q467 706 450 691.5 Q433 677 406 677 Q385 677 371.5 688 Q358 699 358 718 Q358 742 376 757 Q394 772 420 772 Z " />
<glyph glyph-name="Ygrave" unicode="&#x1ef2;" horiz-adv-x="491" d="M555 597 L551 567 L521 569 Q507 569 492 548 L315 288 L281 48 L281 42 Q281 27 296 27 L344 29 L340 0 L116 0 L120 29 L169 27 Q186 27 189 49 L219 263 L92 550 Q87 561 83 565 Q79 569 73 569 L45 567 L49 597 L265 597 L261 567 L208 569 Q197 569 197 558 Q197 554 200 545 L299 319 L456 549 Q460 555 460 561 Q460 569 453 569 L402 567 L406 597 L555 597 Z M261 826 Q270 826 274.5 823 Q279 820 283.5 813.5 Q288 807 290 805 L372 691 Q381 677 381 674 Q381 666 364 666 Q355 666 346 675 L207 788 Q201 794 201 799 Q201 806 222 816 Q243 826 261 826 Z " />
<glyph glyph-name="Z" unicode="Z" horiz-adv-x="497" d="M502 574 L113 28 L280 28 Q346 28 389.5 65 Q433 102 442 168 L471 168 L439 -4 Q428 1 330 1 L3 1 L7 28 L391 570 L248 570 Q179 570 141.5 539.5 Q104 509 95 444 L66 444 L88 601 L137 600 L195 598 L505 598 L502 574 Z " />
<glyph glyph-name="Zacute" unicode="&#x179;" horiz-adv-x="497" d="M502 574 L113 28 L280 28 Q346 28 389.5 65 Q433 102 442 168 L471 168 L439 -4 Q428 1 330 1 L3 1 L7 28 L391 570 L248 570 Q179 570 141.5 539.5 Q104 509 95 444 L66 444 L88 601 L137 600 L195 598 L505 598 L502 574 Z M465 800 Q465 796 455 788 L284 675 Q272 666 263 666 Q249 666 249 673 Q249 677 258 686 Q267 695 269 697 L376 805 Q388 818 394 822 Q400 826 411 826 Q428 826 446.5 816.5 Q465 807 465 800 Z " />
<glyph glyph-name="Zcaron" unicode="&#x17d;" horiz-adv-x="497" d="M502 574 L113 28 L280 28 Q346 28 389.5 65 Q433 102 442 168 L471 168 L439 -4 Q428 1 330 1 L3 1 L7 28 L391 570 L248 570 Q179 570 141.5 539.5 Q104 509 95 444 L66 444 L88 601 L137 600 L195 598 L505 598 L502 574 Z M472 824 Q483 824 483 817 Q483 813 456 792 Q449 786 431 771 Q413 756 397 741 L347 693 Q320 668 313 668 Q310 668 302.5 675 Q295 682 287 693 L251 741 Q232 766 202 796 Q186 812 186 816 Q186 819 189 821.5 Q192 824 199 824 Q209 824 226 812 L323 739 L443 812 Q465 824 472 824 Z " />
<glyph glyph-name="Zdotaccent" unicode="&#x17b;" horiz-adv-x="497" d="M502 574 L113 28 L280 28 Q346 28 389.5 65 Q433 102 442 168 L471 168 L439 -4 Q428 1 330 1 L3 1 L7 28 L391 570 L248 570 Q179 570 141.5 539.5 Q104 509 95 444 L66 444 L88 601 L137 600 L195 598 L505 598 L502 574 Z M329 773 Q351 773 363.5 762 Q376 751 376 732 Q376 707 359 692.5 Q342 678 315 678 Q294 678 280.5 689 Q267 700 267 719 Q267 743 285 758 Q303 773 329 773 Z " />
<glyph glyph-name="a" unicode="a" horiz-adv-x="466" d="M390 67 Q408 67 428 80 L440 60 Q410 24 376.5 7 Q343 -10 318 -10 Q304 -10 299 1 Q294 12 294 36 Q294 65 315 187 Q258 79 213 34.5 Q168 -10 120 -10 Q76 -10 52 22.5 Q28 55 28 112 Q28 182 62.5 256.5 Q97 331 154.5 380.5 Q212 430 275 430 Q299 430 319.5 420 Q340 410 353 393 L359 415 L443 429 L419 330 Q401 250 389 180 Q377 110 377 84 Q377 67 390 67 Z M156 45 Q185 45 229.5 99 Q274 153 307 225 Q340 297 340 346 Q340 369 322 384.5 Q304 400 277 400 Q223 400 185.5 352.5 Q148 305 131 232 Q117 180 117 123 Q117 85 128 65 Q139 45 156 45 Z " />
<glyph glyph-name="aacute" unicode="&#xe1;" horiz-adv-x="466" d="M390 67 Q408 67 428 80 L440 60 Q410 24 376.5 7 Q343 -10 318 -10 Q304 -10 299 1 Q294 12 294 36 Q294 65 315 187 Q258 79 213 34.5 Q168 -10 120 -10 Q76 -10 52 22.5 Q28 55 28 112 Q28 182 62.5 256.5 Q97 331 154.5 380.5 Q212 430 275 430 Q299 430 319.5 420 Q340 410 353 393 L359 415 L443 429 L419 330 Q401 250 389 180 Q377 110 377 84 Q377 67 390 67 Z M156 45 Q185 45 229.5 99 Q274 153 307 225 Q340 297 340 346 Q340 369 322 384.5 Q304 400 277 400 Q223 400 185.5 352.5 Q148 305 131 232 Q117 180 117 123 Q117 85 128 65 Q139 45 156 45 Z M433 627 Q433 623 423 615 L252 502 Q240 493 231 493 Q217 493 217 500 Q217 504 226 513 Q235 522 237 524 L344 632 Q356 645 362 649 Q368 653 379 653 Q396 653 414.5 643.5 Q433 634 433 627 Z " />
<glyph glyph-name="abreve" unicode="&#x103;" horiz-adv-x="466" d="M390 67 Q408 67 428 80 L440 60 Q410 24 376.5 7 Q343 -10 318 -10 Q304 -10 299 1 Q294 12 294 36 Q294 65 315 187 Q258 79 213 34.5 Q168 -10 120 -10 Q76 -10 52 22.5 Q28 55 28 112 Q28 182 62.5 256.5 Q97 331 154.5 380.5 Q212 430 275 430 Q299 430 319.5 420 Q340 410 353 393 L359 415 L443 429 L419 330 Q401 250 389 180 Q377 110 377 84 Q377 67 390 67 Z M156 45 Q185 45 229.5 99 Q274 153 307 225 Q340 297 340 346 Q340 369 322 384.5 Q304 400 277 400 Q223 400 185.5 352.5 Q148 305 131 232 Q117 180 117 123 Q117 85 128 65 Q139 45 156 45 Z M429 642 Q415 585 378 551.5 Q341 518 286 518 Q231 518 203.5 551.5 Q176 585 178 642 L222 642 Q225 610 241 589 Q257 568 293 568 Q328 568 351.5 589.5 Q375 611 386 642 L429 642 Z " />
<glyph glyph-name="acircumflex" unicode="&#xe2;" horiz-adv-x="466" d="M390 67 Q408 67 428 80 L440 60 Q410 24 376.5 7 Q343 -10 318 -10 Q304 -10 299 1 Q294 12 294 36 Q294 65 315 187 Q258 79 213 34.5 Q168 -10 120 -10 Q76 -10 52 22.5 Q28 55 28 112 Q28 182 62.5 256.5 Q97 331 154.5 380.5 Q212 430 275 430 Q299 430 319.5 420 Q340 410 353 393 L359 415 L443 429 L419 330 Q401 250 389 180 Q377 110 377 84 Q377 67 390 67 Z M156 45 Q185 45 229.5 99 Q274 153 307 225 Q340 297 340 346 Q340 369 322 384.5 Q304 400 277 400 Q223 400 185.5 352.5 Q148 305 131 232 Q117 180 117 123 Q117 85 128 65 Q139 45 156 45 Z M145 493 Q134 493 134 500 Q134 504 161 525 Q168 531 186 546 Q204 561 220 576 L270 624 Q297 649 304 649 Q307 649 314.5 642 Q322 635 330 624 L366 576 Q385 551 415 521 Q431 505 431 501 Q431 498 428 495.5 Q425 493 418 493 Q408 493 391 505 L294 578 L174 505 Q152 493 145 493 Z " />
<glyph glyph-name="adieresis" unicode="&#xe4;" horiz-adv-x="466" d="M390 67 Q408 67 428 80 L440 60 Q410 24 376.5 7 Q343 -10 318 -10 Q304 -10 299 1 Q294 12 294 36 Q294 65 315 187 Q258 79 213 34.5 Q168 -10 120 -10 Q76 -10 52 22.5 Q28 55 28 112 Q28 182 62.5 256.5 Q97 331 154.5 380.5 Q212 430 275 430 Q299 430 319.5 420 Q340 410 353 393 L359 415 L443 429 L419 330 Q401 250 389 180 Q377 110 377 84 Q377 67 390 67 Z M156 45 Q185 45 229.5 99 Q274 153 307 225 Q340 297 340 346 Q340 369 322 384.5 Q304 400 277 400 Q223 400 185.5 352.5 Q148 305 131 232 Q117 180 117 123 Q117 85 128 65 Q139 45 156 45 Z M216 643 Q238 643 250.5 632 Q263 621 263 602 Q263 577 246 562.5 Q229 548 202 548 Q181 548 167.5 559 Q154 570 154 589 Q154 613 172 628 Q190 643 216 643 Z M390 643 Q412 643 424.5 632 Q437 621 437 602 Q437 577 420 562.5 Q403 548 376 548 Q355 548 341.5 559 Q328 570 328 589 Q328 613 346 628 Q364 643 390 643 Z " />
<glyph glyph-name="agrave" unicode="&#xe0;" horiz-adv-x="466" d="M390 67 Q408 67 428 80 L440 60 Q410 24 376.5 7 Q343 -10 318 -10 Q304 -10 299 1 Q294 12 294 36 Q294 65 315 187 Q258 79 213 34.5 Q168 -10 120 -10 Q76 -10 52 22.5 Q28 55 28 112 Q28 182 62.5 256.5 Q97 331 154.5 380.5 Q212 430 275 430 Q299 430 319.5 420 Q340 410 353 393 L359 415 L443 429 L419 330 Q401 250 389 180 Q377 110 377 84 Q377 67 390 67 Z M156 45 Q185 45 229.5 99 Q274 153 307 225 Q340 297 340 346 Q340 369 322 384.5 Q304 400 277 400 Q223 400 185.5 352.5 Q148 305 131 232 Q117 180 117 123 Q117 85 128 65 Q139 45 156 45 Z M228 653 Q237 653 241.5 650 Q246 647 250.5 640.5 Q255 634 257 632 L339 518 Q348 504 348 501 Q348 493 331 493 Q322 493 313 502 L174 615 Q168 621 168 626 Q168 633 189 643 Q210 653 228 653 Z " />
<glyph glyph-name="amacron" unicode="&#x101;" horiz-adv-x="466" d="M390 67 Q408 67 428 80 L440 60 Q410 24 376.5 7 Q343 -10 318 -10 Q304 -10 299 1 Q294 12 294 36 Q294 65 315 187 Q258 79 213 34.5 Q168 -10 120 -10 Q76 -10 52 22.5 Q28 55 28 112 Q28 182 62.5 256.5 Q97 331 154.5 380.5 Q212 430 275 430 Q299 430 319.5 420 Q340 410 353 393 L359 415 L443 429 L419 330 Q401 250 389 180 Q377 110 377 84 Q377 67 390 67 Z M156 45 Q185 45 229.5 99 Q274 153 307 225 Q340 297 340 346 Q340 369 322 384.5 Q304 400 277 400 Q223 400 185.5 352.5 Q148 305 131 232 Q117 180 117 123 Q117 85 128 65 Q139 45 156 45 Z M419 607 L413 567 L171 567 L177 607 L419 607 Z " />
<glyph glyph-name="aogonek" unicode="&#x105;" horiz-adv-x="466" d="M456 -99 Q429 -128 397.5 -143.5 Q366 -159 335 -159 Q309 -159 290.5 -142.5 Q272 -126 272 -97 Q272 -48 320 -10 L318 -10 Q304 -10 299 1 Q294 12 294 36 Q294 65 315 187 Q258 79 213 34.5 Q168 -10 120 -10 Q76 -10 52 22.5 Q28 55 28 112 Q28 182 62.5 256.5 Q97 331 154.5 380.5 Q212 430 275 430 Q299 430 319.5 420 Q340 410 353 393 L359 415 L443 429 L419 330 Q401 250 389 180 Q377 110 377 84 Q377 67 390 67 Q408 67 428 80 L440 60 Q409 22 372 5 Q352 -9 341 -29 Q330 -49 330 -71 Q330 -91 341 -103.5 Q352 -116 375 -116 Q405 -116 444 -85 L456 -99 Z M156 45 Q185 45 229.5 99 Q274 153 307 225 Q340 297 340 346 Q340 369 322 384.5 Q304 400 277 400 Q223 400 185.5 352.5 Q148 305 131 232 Q117 180 117 123 Q117 85 128 65 Q139 45 156 45 Z " />
<glyph glyph-name="aring" unicode="&#xe5;" horiz-adv-x="466" d="M390 67 Q408 67 428 80 L440 60 Q410 24 376.5 7 Q343 -10 318 -10 Q304 -10 299 1 Q294 12 294 36 Q294 65 315 187 Q258 79 213 34.5 Q168 -10 120 -10 Q76 -10 52 22.5 Q28 55 28 112 Q28 182 62.5 256.5 Q97 331 154.5 380.5 Q212 430 275 430 Q299 430 319.5 420 Q340 410 353 393 L359 415 L443 429 L419 330 Q401 250 389 180 Q377 110 377 84 Q377 67 390 67 Z M156 45 Q185 45 229.5 99 Q274 153 307 225 Q340 297 340 346 Q340 369 322 384.5 Q304 400 277 400 Q223 400 185.5 352.5 Q148 305 131 232 Q117 180 117 123 Q117 85 128 65 Q139 45 156 45 Z M214 565 Q214 603 241.5 629.5 Q269 656 306 656 Q340 656 358.5 637 Q377 618 377 585 Q377 545 350.5 519 Q324 493 283 493 Q250 493 232 512.5 Q214 532 214 565 Z M259 569 Q259 551 266.5 540 Q274 529 288 529 Q306 529 318.5 544.5 Q331 560 331 581 Q331 599 323.5 609.5 Q316 620 301 620 Q283 620 271 605 Q259 590 259 569 Z " />
<glyph glyph-name="atilde" unicode="&#xe3;" horiz-adv-x="466" d="M390 67 Q408 67 428 80 L440 60 Q410 24 376.5 7 Q343 -10 318 -10 Q304 -10 299 1 Q294 12 294 36 Q294 65 315 187 Q258 79 213 34.5 Q168 -10 120 -10 Q76 -10 52 22.5 Q28 55 28 112 Q28 182 62.5 256.5 Q97 331 154.5 380.5 Q212 430 275 430 Q299 430 319.5 420 Q340 410 353 393 L359 415 L443 429 L419 330 Q401 250 389 180 Q377 110 377 84 Q377 67 390 67 Z M156 45 Q185 45 229.5 99 Q274 153 307 225 Q340 297 340 346 Q340 369 322 384.5 Q304 400 277 400 Q223 400 185.5 352.5 Q148 305 131 232 Q117 180 117 123 Q117 85 128 65 Q139 45 156 45 Z M223 621 Q246 621 306 599 Q359 578 381 578 Q395 578 406.5 590 Q418 602 420 620 L440 620 Q435 583 412.5 556 Q390 529 363 529 Q348 529 329 534.5 Q310 540 280 551 Q227 572 205 572 Q191 572 180 560 Q169 548 166 530 L146 530 Q151 567 173.5 594 Q196 621 223 621 Z " />
<glyph glyph-name="ae" unicode="&#xe6;" horiz-adv-x="643" d="M634 332 Q634 297 606 265 Q578 233 516.5 210.5 Q455 188 360 181 Q359 172 359 154 Q359 104 380.5 74.5 Q402 45 436 45 Q481 45 568 100 L590 84 Q550 43 503.5 17 Q457 -9 411 -9 Q354 -9 315 29 Q276 67 271 130 Q231 56 192 23 Q153 -10 106 -10 Q62 -10 37.5 22 Q13 54 13 103 Q13 175 65 246.5 Q117 318 201 364 Q285 410 376 410 Q404 410 420 406 Q463 430 508 430 Q562 430 598 401.5 Q634 373 634 332 Z M563 338 Q563 364 548.5 382 Q534 400 506 400 Q440 400 397 319 Q371 268 364 213 Q459 220 511 254.5 Q563 289 563 338 Z M274 191 Q283 245 311.5 295 Q340 345 382 380 L380 380 Q306 380 249 347 Q192 314 155 261 Q129 225 115.5 186 Q102 147 102 115 Q102 89 112 67 Q122 45 141 45 Q173 45 210 87.5 Q247 130 274 191 Z " />
<glyph glyph-name="b" unicode="b" horiz-adv-x="457" d="M175 730 Q196 730 204.5 725 Q213 720 213 708 Q213 701 194 585 Q154 334 142 240 Q186 337 236.5 383.5 Q287 430 335 430 Q381 430 408 394.5 Q435 359 435 301 Q435 230 400.5 158.5 Q366 87 305 40 Q244 -7 168 -7 Q112 -7 82.5 16.5 Q53 40 53 84 Q53 118 64 205.5 Q75 293 88 385 Q100 469 110 546 Q120 623 120 651 Q120 663 111.5 669.5 Q103 676 89 676 Q78 676 63 673 L57 698 Q87 714 120 722 Q153 730 175 730 Z M299 375 Q271 375 228.5 326 Q186 277 154.5 210 Q123 143 123 95 Q123 54 144.5 38.5 Q166 23 194 23 Q245 23 279.5 66.5 Q314 110 331 174 Q346 233 346 279 Q346 322 332.5 348.5 Q319 375 299 375 Z " />
<glyph glyph-name="c" unicode="c" horiz-adv-x="406" d="M265 430 Q317 430 352 403 Q387 376 387 337 Q387 314 373.5 296 Q360 278 332 278 Q300 278 300 304 Q300 313 308 329 Q316 345 316 358 Q316 378 301 389 Q286 400 263 400 Q195 400 149 307 Q115 237 115 158 Q115 106 135.5 75.5 Q156 45 192 45 Q219 45 251 60 Q283 75 324 100 L346 84 Q307 43 260.5 17 Q214 -9 171 -9 Q104 -9 65 33.5 Q26 76 26 145 Q26 217 60 283 Q94 349 149 389.5 Q204 430 265 430 Z " />
<glyph glyph-name="cacute" unicode="&#x107;" horiz-adv-x="406" d="M265 430 Q317 430 352 403 Q387 376 387 337 Q387 314 373.5 296 Q360 278 332 278 Q300 278 300 304 Q300 313 308 329 Q316 345 316 358 Q316 378 301 389 Q286 400 263 400 Q195 400 149 307 Q115 237 115 158 Q115 106 135.5 75.5 Q156 45 192 45 Q219 45 251 60 Q283 75 324 100 L346 84 Q307 43 260.5 17 Q214 -9 171 -9 Q104 -9 65 33.5 Q26 76 26 145 Q26 217 60 283 Q94 349 149 389.5 Q204 430 265 430 Z M386 627 Q386 623 376 615 L205 502 Q193 493 184 493 Q170 493 170 500 Q170 504 179 513 Q188 522 190 524 L297 632 Q309 645 315 649 Q321 653 332 653 Q349 653 367.5 643.5 Q386 634 386 627 Z " />
<glyph glyph-name="ccaron" unicode="&#x10d;" horiz-adv-x="406" d="M265 430 Q317 430 352 403 Q387 376 387 337 Q387 314 373.5 296 Q360 278 332 278 Q300 278 300 304 Q300 313 308 329 Q316 345 316 358 Q316 378 301 389 Q286 400 263 400 Q195 400 149 307 Q115 237 115 158 Q115 106 135.5 75.5 Q156 45 192 45 Q219 45 251 60 Q283 75 324 100 L346 84 Q307 43 260.5 17 Q214 -9 171 -9 Q104 -9 65 33.5 Q26 76 26 145 Q26 217 60 283 Q94 349 149 389.5 Q204 430 265 430 Z M395 657 Q406 657 406 650 Q406 646 379 625 Q372 619 354 604 Q336 589 320 574 L270 526 Q243 501 236 501 Q233 501 225.5 508 Q218 515 210 526 L174 574 Q155 599 125 629 Q109 645 109 649 Q109 652 112 654.5 Q115 657 122 657 Q132 657 149 645 L246 572 L366 645 Q388 657 395 657 Z " />
<glyph glyph-name="ccedilla" unicode="&#xe7;" horiz-adv-x="406" d="M332 278 Q300 278 300 304 Q300 313 308 329 Q316 345 316 358 Q316 378 301 389 Q286 400 263 400 Q195 400 149 307 Q115 237 115 158 Q115 106 135.5 75.5 Q156 45 192 45 Q219 45 251 60 Q283 75 324 100 L346 84 Q312 49 272.5 24 Q233 -1 195 -7 L169 -43 Q160 -55 160 -63 Q160 -69 166.5 -72 Q173 -75 188 -79 Q211 -86 222.5 -93 Q234 -100 234 -117 Q234 -159 206.5 -186.5 Q179 -214 130 -214 Q86 -214 64 -198 L76 -171 Q86 -187 108 -187 Q131 -187 148.5 -170 Q166 -153 166 -130 Q166 -113 141 -94 L121 -80 Q111 -73 111 -66 Q111 -60 120 -52 L158 -9 Q97 -5 61.5 37.5 Q26 80 26 145 Q26 217 60 283 Q94 349 149 389.5 Q204 430 265 430 Q317 430 352 403 Q387 376 387 337 Q387 314 373.5 296 Q360 278 332 278 Z " />
<glyph glyph-name="d" unicode="d" horiz-adv-x="476" d="M470 708 Q470 693 463 651 L457 617 Q427 440 407 301 Q387 162 387 94 Q387 67 404 67 Q421 67 441 80 L453 60 Q419 24 386.5 7 Q354 -10 331 -10 Q314 -10 307.5 3 Q301 16 301 39 Q301 100 316 186 Q272 85 222 37.5 Q172 -10 123 -10 Q77 -10 50 25.5 Q23 61 23 120 Q23 191 54 263.5 Q85 336 138 383 Q191 430 253 430 Q284 430 308 419 Q332 408 346 391 Q355 440 366.5 540 Q378 640 378 651 Q378 675 343 675 Q328 675 319 673 L313 698 Q370 730 432 730 Q452 730 461 725.5 Q470 721 470 708 Z M159 45 Q187 45 229 95 Q271 145 302.5 212 Q334 279 334 326 Q334 368 309.5 384 Q285 400 257 400 Q208 400 174 355.5 Q140 311 124 245 Q111 193 111 144 Q111 98 125 71.5 Q139 45 159 45 Z " />
<glyph glyph-name="eth" unicode="&#xf0;" horiz-adv-x="449" d="M310 546 Q364 501 393 429.5 Q422 358 422 269 Q422 192 389.5 128 Q357 64 300.5 27 Q244 -10 175 -10 Q97 -10 62.5 36.5 Q28 83 28 151 Q28 231 61.5 294.5 Q95 358 146.5 394 Q198 430 250 430 Q288 430 317 411 Q308 444 291.5 472.5 Q275 501 256 517 L145 456 L134 483 L235 538 Q177 585 136 585 L158 607 Q190 607 224 596 Q258 585 286 566 L386 621 L396 594 L310 546 Z M300 119 Q316 153 325 194 Q334 235 334 276 Q334 338 313.5 370 Q293 402 259 402 Q226 402 197 374 Q168 346 148 300 Q116 228 116 149 Q116 88 136.5 55 Q157 22 192 22 Q223 22 251.5 48.5 Q280 75 300 119 Z " />
<glyph glyph-name="dcaron" unicode="&#x10f;" horiz-adv-x="476" d="M470 708 Q470 693 463 651 L457 617 Q427 440 407 301 Q387 162 387 94 Q387 67 404 67 Q421 67 441 80 L453 60 Q419 24 386.5 7 Q354 -10 331 -10 Q314 -10 307.5 3 Q301 16 301 39 Q301 100 316 186 Q272 85 222 37.5 Q172 -10 123 -10 Q77 -10 50 25.5 Q23 61 23 120 Q23 191 54 263.5 Q85 336 138 383 Q191 430 253 430 Q284 430 308 419 Q332 408 346 391 Q355 440 366.5 540 Q378 640 378 651 Q378 675 343 675 Q328 675 319 673 L313 698 Q370 730 432 730 Q452 730 461 725.5 Q470 721 470 708 Z M159 45 Q187 45 229 95 Q271 145 302.5 212 Q334 279 334 326 Q334 368 309.5 384 Q285 400 257 400 Q208 400 174 355.5 Q140 311 124 245 Q111 193 111 144 Q111 98 125 71.5 Q139 45 159 45 Z M531 607 Q553 607 566 591.5 Q579 576 579 554 Q579 518 552 486 Q525 454 490 438 L476 451 Q494 463 508 480.5 Q522 498 523 511 L523 515 Q523 530 509 530 Q497 530 490 539 Q483 548 483 560 Q483 578 495.5 592.5 Q508 607 531 607 Z " />
<glyph glyph-name="dslash" unicode="&#x111;" horiz-adv-x="476" d="M447 558 Q421 396 404 275 Q387 154 387 94 Q387 67 404 67 Q421 67 441 80 L453 60 Q419 24 386.5 7 Q354 -10 331 -10 Q314 -10 307.5 3 Q301 16 301 39 Q301 100 316 186 Q272 85 222 37.5 Q172 -10 123 -10 Q77 -10 50 25.5 Q23 61 23 120 Q23 191 54 263.5 Q85 336 138 383 Q191 430 253 430 Q284 430 308 419 Q332 408 346 391 Q358 459 368 558 L277 558 L283 598 L373 598 L378 651 Q378 675 343 675 Q328 675 319 673 L313 698 Q370 730 432 730 Q452 730 461 725.5 Q470 721 470 708 Q470 693 463 651 Q460 627 454 598 L525 598 L519 558 L447 558 Z M159 45 Q187 45 229 95 Q271 145 302.5 212 Q334 279 334 326 Q334 368 309.5 384 Q285 400 257 400 Q208 400 174 355.5 Q140 311 124 245 Q111 193 111 144 Q111 98 125 71.5 Q139 45 159 45 Z " />
<glyph glyph-name="e" unicode="e" horiz-adv-x="399" d="M390 332 Q390 297 362 265 Q334 233 272.5 210.5 Q211 188 116 181 Q115 172 115 154 Q115 104 136.5 74.5 Q158 45 192 45 Q237 45 324 100 L346 84 Q306 43 259.5 17 Q213 -9 167 -9 Q106 -9 66 34 Q26 77 26 147 Q26 214 59.5 280 Q93 346 148 388 Q203 430 264 430 Q318 430 354 401.5 Q390 373 390 332 Z M262 400 Q196 400 153 319 Q127 268 120 213 Q215 220 267 254.5 Q319 289 319 338 Q319 364 304.5 382 Q290 400 262 400 Z " />
<glyph glyph-name="eacute" unicode="&#xe9;" horiz-adv-x="399" d="M390 332 Q390 297 362 265 Q334 233 272.5 210.5 Q211 188 116 181 Q115 172 115 154 Q115 104 136.5 74.5 Q158 45 192 45 Q237 45 324 100 L346 84 Q306 43 259.5 17 Q213 -9 167 -9 Q106 -9 66 34 Q26 77 26 147 Q26 214 59.5 280 Q93 346 148 388 Q203 430 264 430 Q318 430 354 401.5 Q390 373 390 332 Z M262 400 Q196 400 153 319 Q127 268 120 213 Q215 220 267 254.5 Q319 289 319 338 Q319 364 304.5 382 Q290 400 262 400 Z M398 627 Q398 623 388 615 L217 502 Q205 493 196 493 Q182 493 182 500 Q182 504 191 513 Q200 522 202 524 L309 632 Q321 645 327 649 Q333 653 344 653 Q361 653 379.5 643.5 Q398 634 398 627 Z " />
<glyph glyph-name="ecaron" unicode="&#x11b;" horiz-adv-x="399" d="M390 332 Q390 297 362 265 Q334 233 272.5 210.5 Q211 188 116 181 Q115 172 115 154 Q115 104 136.5 74.5 Q158 45 192 45 Q237 45 324 100 L346 84 Q306 43 259.5 17 Q213 -9 167 -9 Q106 -9 66 34 Q26 77 26 147 Q26 214 59.5 280 Q93 346 148 388 Q203 430 264 430 Q318 430 354 401.5 Q390 373 390 332 Z M262 400 Q196 400 153 319 Q127 268 120 213 Q215 220 267 254.5 Q319 289 319 338 Q319 364 304.5 382 Q290 400 262 400 Z M407 657 Q418 657 418 650 Q418 646 391 625 Q384 619 366 604 Q348 589 332 574 L282 526 Q255 501 248 501 Q245 501 237.5 508 Q230 515 222 526 L186 574 Q167 599 137 629 Q121 645 121 649 Q121 652 124 654.5 Q127 657 134 657 Q144 657 161 645 L258 572 L378 645 Q400 657 407 657 Z " />
<glyph glyph-name="ecircumflex" unicode="&#xea;" horiz-adv-x="399" d="M390 332 Q390 297 362 265 Q334 233 272.5 210.5 Q211 188 116 181 Q115 172 115 154 Q115 104 136.5 74.5 Q158 45 192 45 Q237 45 324 100 L346 84 Q306 43 259.5 17 Q213 -9 167 -9 Q106 -9 66 34 Q26 77 26 147 Q26 214 59.5 280 Q93 346 148 388 Q203 430 264 430 Q318 430 354 401.5 Q390 373 390 332 Z M262 400 Q196 400 153 319 Q127 268 120 213 Q215 220 267 254.5 Q319 289 319 338 Q319 364 304.5 382 Q290 400 262 400 Z M110 493 Q99 493 99 500 Q99 504 126 525 Q133 531 151 546 Q169 561 185 576 L235 624 Q262 649 269 649 Q272 649 279.5 642 Q287 635 295 624 L331 576 Q350 551 380 521 Q396 505 396 501 Q396 498 393 495.5 Q390 493 383 493 Q373 493 356 505 L259 578 L139 505 Q117 493 110 493 Z " />
<glyph glyph-name="edieresis" unicode="&#xeb;" horiz-adv-x="399" d="M390 332 Q390 297 362 265 Q334 233 272.5 210.5 Q211 188 116 181 Q115 172 115 154 Q115 104 136.5 74.5 Q158 45 192 45 Q237 45 324 100 L346 84 Q306 43 259.5 17 Q213 -9 167 -9 Q106 -9 66 34 Q26 77 26 147 Q26 214 59.5 280 Q93 346 148 388 Q203 430 264 430 Q318 430 354 401.5 Q390 373 390 332 Z M262 400 Q196 400 153 319 Q127 268 120 213 Q215 220 267 254.5 Q319 289 319 338 Q319 364 304.5 382 Q290 400 262 400 Z M181 643 Q203 643 215.5 632 Q228 621 228 602 Q228 577 211 562.5 Q194 548 167 548 Q146 548 132.5 559 Q119 570 119 589 Q119 613 137 628 Q155 643 181 643 Z M355 643 Q377 643 389.5 632 Q402 621 402 602 Q402 577 385 562.5 Q368 548 341 548 Q320 548 306.5 559 Q293 570 293 589 Q293 613 311 628 Q329 643 355 643 Z " />
<glyph glyph-name="edotaccent" unicode="&#x117;" horiz-adv-x="399" d="M390 332 Q390 297 362 265 Q334 233 272.5 210.5 Q211 188 116 181 Q115 172 115 154 Q115 104 136.5 74.5 Q158 45 192 45 Q237 45 324 100 L346 84 Q306 43 259.5 17 Q213 -9 167 -9 Q106 -9 66 34 Q26 77 26 147 Q26 214 59.5 280 Q93 346 148 388 Q203 430 264 430 Q318 430 354 401.5 Q390 373 390 332 Z M262 400 Q196 400 153 319 Q127 268 120 213 Q215 220 267 254.5 Q319 289 319 338 Q319 364 304.5 382 Q290 400 262 400 Z M267 643 Q289 643 301.5 632 Q314 621 314 602 Q314 577 297 562.5 Q280 548 253 548 Q232 548 218.5 559 Q205 570 205 589 Q205 613 223 628 Q241 643 267 643 Z " />
<glyph glyph-name="egrave" unicode="&#xe8;" horiz-adv-x="399" d="M390 332 Q390 297 362 265 Q334 233 272.5 210.5 Q211 188 116 181 Q115 172 115 154 Q115 104 136.5 74.5 Q158 45 192 45 Q237 45 324 100 L346 84 Q306 43 259.5 17 Q213 -9 167 -9 Q106 -9 66 34 Q26 77 26 147 Q26 214 59.5 280 Q93 346 148 388 Q203 430 264 430 Q318 430 354 401.5 Q390 373 390 332 Z M262 400 Q196 400 153 319 Q127 268 120 213 Q215 220 267 254.5 Q319 289 319 338 Q319 364 304.5 382 Q290 400 262 400 Z M193 653 Q202 653 206.5 650 Q211 647 215.5 640.5 Q220 634 222 632 L304 518 Q313 504 313 501 Q313 493 296 493 Q287 493 278 502 L139 615 Q133 621 133 626 Q133 633 154 643 Q175 653 193 653 Z " />
<glyph glyph-name="emacron" unicode="&#x113;" horiz-adv-x="399" d="M390 332 Q390 297 362 265 Q334 233 272.5 210.5 Q211 188 116 181 Q115 172 115 154 Q115 104 136.5 74.5 Q158 45 192 45 Q237 45 324 100 L346 84 Q306 43 259.5 17 Q213 -9 167 -9 Q106 -9 66 34 Q26 77 26 147 Q26 214 59.5 280 Q93 346 148 388 Q203 430 264 430 Q318 430 354 401.5 Q390 373 390 332 Z M262 400 Q196 400 153 319 Q127 268 120 213 Q215 220 267 254.5 Q319 289 319 338 Q319 364 304.5 382 Q290 400 262 400 Z M384 607 L378 567 L136 567 L142 607 L384 607 Z " />
<glyph glyph-name="eogonek" unicode="&#x119;" horiz-adv-x="399" d="M390 332 Q390 297 362 265 Q334 233 272.5 210.5 Q211 188 116 181 Q115 172 115 154 Q115 104 136.5 74.5 Q158 45 192 45 Q237 45 324 100 L346 84 Q299 35 249 11 Q225 -2 210.5 -24 Q196 -46 196 -71 Q196 -91 207 -103.5 Q218 -116 241 -116 Q271 -116 310 -85 L322 -99 Q295 -128 263.5 -143.5 Q232 -159 201 -159 Q175 -159 156.5 -142.5 Q138 -126 138 -97 Q138 -73 151 -49.5 Q164 -26 189 -7 Q175 -9 167 -9 Q106 -9 66 34 Q26 77 26 147 Q26 214 59.5 280 Q93 346 148 388 Q203 430 264 430 Q318 430 354 401.5 Q390 373 390 332 Z M262 400 Q196 400 153 319 Q127 268 120 213 Q215 220 267 254.5 Q319 289 319 338 Q319 364 304.5 382 Q290 400 262 400 Z " />
<glyph glyph-name="f" unicode="f" horiz-adv-x="284" d="M324 730 Q372 730 402.5 704 Q433 678 433 639 Q433 617 421.5 602.5 Q410 588 386 588 Q350 588 350 617 Q350 624 354 638 Q359 650 359 663 Q359 680 350 691.5 Q341 703 319 703 Q279 703 252 648.5 Q225 594 209 454 L205 420 L310 420 L310 405 L281 389 L202 389 L170 102 Q131 -245 -37 -245 Q-78 -245 -107 -226.5 Q-136 -208 -136 -178 Q-136 -160 -124.5 -147 Q-113 -134 -91 -134 Q-76 -134 -65 -140.5 Q-54 -147 -54 -162 Q-54 -168 -57 -178 Q-60 -188 -60 -193 Q-60 -205 -51.5 -211.5 Q-43 -218 -29 -218 Q2 -218 22 -187 Q42 -156 55 -94 Q68 -32 80 72 L115 389 L29 389 L56 420 L119 420 L121 440 Q135 568 187.5 649 Q240 730 324 730 Z " />
<glyph glyph-name="g" unicode="g" horiz-adv-x="428" d="M430 505 Q452 505 461.5 493.5 Q471 482 471 467 Q471 452 459.5 438 Q448 424 432 424 Q420 424 414.5 427.5 Q409 431 404 439 Q399 447 392 447 Q383 447 363 437.5 Q343 428 328 414 Q379 385 379 319 Q379 269 350.5 225.5 Q322 182 272.5 156 Q223 130 165 130 Q135 130 111 138 Q91 114 91 101 Q91 84 111 74 Q131 64 174 52 Q183 49 195 45.5 Q207 42 221 37 Q276 18 305 4.5 Q334 -9 355.5 -35 Q377 -61 377 -102 Q377 -171 305 -208 Q233 -245 126 -245 Q-36 -245 -36 -140 Q-36 -97 -2 -61 Q32 -25 87 3 Q57 16 41 32.5 Q25 49 25 71 Q25 92 39.5 108.5 Q54 125 81 143 L88 148 Q41 176 41 241 Q41 291 69 334.5 Q97 378 146 404 Q195 430 253 430 Q281 430 307 423 Q337 456 374 480.5 Q411 505 430 505 Z M277 230 Q285 250 289 279.5 Q293 309 293 334 Q293 367 278.5 385 Q264 403 233 403 Q201 403 179 385.5 Q157 368 143 330 Q135 310 131 280.5 Q127 251 127 226 Q127 193 141.5 175 Q156 157 187 157 Q219 157 241 174.5 Q263 192 277 230 Z M308 -125 Q308 -88 275 -67 Q242 -46 181 -27 L120 -9 Q79 -25 47.5 -59.5 Q16 -94 16 -138 Q16 -219 129 -219 Q204 -219 256 -193 Q308 -167 308 -125 Z " />
<glyph glyph-name="gbreve" unicode="&#x11f;" horiz-adv-x="428" d="M430 505 Q452 505 461.5 493.5 Q471 482 471 467 Q471 452 459.5 438 Q448 424 432 424 Q420 424 414.5 427.5 Q409 431 404 439 Q399 447 392 447 Q383 447 363 437.5 Q343 428 328 414 Q379 385 379 319 Q379 269 350.5 225.5 Q322 182 272.5 156 Q223 130 165 130 Q135 130 111 138 Q91 114 91 101 Q91 84 111 74 Q131 64 174 52 Q183 49 195 45.5 Q207 42 221 37 Q276 18 305 4.5 Q334 -9 355.5 -35 Q377 -61 377 -102 Q377 -171 305 -208 Q233 -245 126 -245 Q-36 -245 -36 -140 Q-36 -97 -2 -61 Q32 -25 87 3 Q57 16 41 32.5 Q25 49 25 71 Q25 92 39.5 108.5 Q54 125 81 143 L88 148 Q41 176 41 241 Q41 291 69 334.5 Q97 378 146 404 Q195 430 253 430 Q281 430 307 423 Q337 456 374 480.5 Q411 505 430 505 Z M277 230 Q285 250 289 279.5 Q293 309 293 334 Q293 367 278.5 385 Q264 403 233 403 Q201 403 179 385.5 Q157 368 143 330 Q135 310 131 280.5 Q127 251 127 226 Q127 193 141.5 175 Q156 157 187 157 Q219 157 241 174.5 Q263 192 277 230 Z M308 -125 Q308 -88 275 -67 Q242 -46 181 -27 L120 -9 Q79 -25 47.5 -59.5 Q16 -94 16 -138 Q16 -219 129 -219 Q204 -219 256 -193 Q308 -167 308 -125 Z M385 642 Q371 585 334 551.5 Q297 518 242 518 Q187 518 159.5 551.5 Q132 585 134 642 L178 642 Q181 610 197 589 Q213 568 249 568 Q284 568 307.5 589.5 Q331 611 342 642 L385 642 Z " />
<glyph glyph-name="gcommaaccent" unicode="&#x123;" horiz-adv-x="428" d="M260 486 Q235 486 221 501.5 Q207 517 207 539 Q207 579 237 613 Q267 647 306 665 L320 652 Q299 640 281.5 622.5 Q264 605 263 592 Q259 563 287 563 Q299 563 306 554 Q313 545 313 533 Q313 515 298.5 500.5 Q284 486 260 486 Z M430 505 Q452 505 461.5 493.5 Q471 482 471 467 Q471 452 459.5 438 Q448 424 432 424 Q420 424 414.5 427.5 Q409 431 404 439 Q399 447 392 447 Q383 447 363 437.5 Q343 428 328 414 Q379 385 379 319 Q379 269 350.5 225.5 Q322 182 272.5 156 Q223 130 165 130 Q135 130 111 138 Q91 114 91 101 Q91 84 111 74 Q131 64 174 52 Q183 49 195 45.5 Q207 42 221 37 Q276 18 305 4.5 Q334 -9 355.5 -35 Q377 -61 377 -102 Q377 -171 305 -208 Q233 -245 126 -245 Q-36 -245 -36 -140 Q-36 -97 -2 -61 Q32 -25 87 3 Q57 16 41 32.5 Q25 49 25 71 Q25 92 39.5 108.5 Q54 125 81 143 L88 148 Q41 176 41 241 Q41 291 69 334.5 Q97 378 146 404 Q195 430 253 430 Q281 430 307 423 Q337 456 374 480.5 Q411 505 430 505 Z M277 230 Q285 250 289 279.5 Q293 309 293 334 Q293 367 278.5 385 Q264 403 233 403 Q201 403 179 385.5 Q157 368 143 330 Q135 310 131 280.5 Q127 251 127 226 Q127 193 141.5 175 Q156 157 187 157 Q219 157 241 174.5 Q263 192 277 230 Z M308 -125 Q308 -88 275 -67 Q242 -46 181 -27 L120 -9 Q79 -25 47.5 -59.5 Q16 -94 16 -138 Q16 -219 129 -219 Q204 -219 256 -193 Q308 -167 308 -125 Z " />
<glyph glyph-name="h" unicode="h" horiz-adv-x="499" d="M466 60 Q435 28 402.5 9 Q370 -10 348 -10 Q334 -10 325 2 Q316 14 316 35 Q316 52 323 89 Q330 126 338 166 Q364 284 364 324 Q364 347 352.5 361 Q341 375 321 375 Q291 375 253.5 334.5 Q216 294 184.5 232.5 Q153 171 138 112 L124 0 L45 0 Q64 119 98.5 362 Q133 605 133 651 Q133 663 124 669 Q115 675 100 675 Q85 675 76 673 L70 698 Q103 714 135 722 Q167 730 188 730 Q208 730 217 725.5 Q226 721 226 708 Q226 697 216 640 Q213 620 210 601.5 Q207 583 204 566 L187 464 L152 222 Q190 309 241.5 369.5 Q293 430 357 430 Q398 430 422 405 Q446 380 446 340 Q446 318 439.5 285.5 Q433 253 426 222.5 Q419 192 417 183 Q398 105 398 90 Q398 82 402 74.5 Q406 67 417 67 Q434 67 454 80 L466 60 Z " />
<glyph glyph-name="i" unicode="i" horiz-adv-x="260" d="M178 643 Q200 643 212.5 632 Q225 621 225 602 Q225 577 208 562.5 Q191 548 164 548 Q143 548 129.5 559 Q116 570 116 589 Q116 613 134 628 Q152 643 178 643 Z M213 60 Q181 27 152.5 8.5 Q124 -10 102 -10 Q84 -10 74 1.5 Q64 13 64 36 Q64 53 70 93.5 Q76 134 78 147 L90 223 Q103 310 103 347 Q103 361 93.5 367 Q84 373 72 373 Q64 373 56 371 L51 400 Q114 426 165 426 Q180 426 188 421.5 Q196 417 196 404 Q196 396 184 334 Q165 235 164 230 Q148 139 148 94 Q148 67 165 67 Q181 67 201 80 L213 60 Z " />
<glyph glyph-name="dotlessi" unicode="&#x131;" horiz-adv-x="256" d="M213 60 Q181 27 152.5 8.5 Q124 -10 102 -10 Q84 -10 74 1.5 Q64 13 64 36 Q64 53 70 93.5 Q76 134 78 147 L90 223 Q103 310 103 347 Q103 361 93.5 367 Q84 373 72 373 Q64 373 56 371 L51 400 Q114 426 165 426 Q180 426 188 421.5 Q196 417 196 404 Q196 396 184 334 Q165 235 164 230 Q148 139 148 94 Q148 67 165 67 Q181 67 201 80 L213 60 Z " />
<glyph glyph-name="iacute" unicode="&#xed;" horiz-adv-x="256" d="M213 60 Q181 27 152.5 8.5 Q124 -10 102 -10 Q84 -10 74 1.5 Q64 13 64 36 Q64 53 70 93.5 Q76 134 78 147 L90 223 Q103 310 103 347 Q103 361 93.5 367 Q84 373 72 373 Q64 373 56 371 L51 400 Q114 426 165 426 Q180 426 188 421.5 Q196 417 196 404 Q196 396 184 334 Q165 235 164 230 Q148 139 148 94 Q148 67 165 67 Q181 67 201 80 L213 60 Z M315 627 Q315 623 305 615 L134 502 Q122 493 113 493 Q99 493 99 500 Q99 504 108 513 Q117 522 119 524 L226 632 Q238 645 244 649 Q250 653 261 653 Q278 653 296.5 643.5 Q315 634 315 627 Z " />
<glyph glyph-name="icircumflex" unicode="&#xee;" horiz-adv-x="256" d="M213 60 Q181 27 152.5 8.5 Q124 -10 102 -10 Q84 -10 74 1.5 Q64 13 64 36 Q64 53 70 93.5 Q76 134 78 147 L90 223 Q103 310 103 347 Q103 361 93.5 367 Q84 373 72 373 Q64 373 56 371 L51 400 Q114 426 165 426 Q180 426 188 421.5 Q196 417 196 404 Q196 396 184 334 Q165 235 164 230 Q148 139 148 94 Q148 67 165 67 Q181 67 201 80 L213 60 Z M187 659 Q193 659 201 644 L280 521 Q293 502 293 500 Q293 497 289.5 495 Q286 493 282 493 Q268 493 255 506 L176 583 L75 506 Q58 493 44 493 Q41 493 38 495 Q35 497 35 499 Q35 501 53 521 L169 644 Q174 650 179.5 654.5 Q185 659 187 659 Z " />
<glyph glyph-name="idieresis" unicode="&#xef;" horiz-adv-x="256" d="M213 60 Q181 27 152.5 8.5 Q124 -10 102 -10 Q84 -10 74 1.5 Q64 13 64 36 Q64 53 70 93.5 Q76 134 78 147 L90 223 Q103 310 103 347 Q103 361 93.5 367 Q84 373 72 373 Q64 373 56 371 L51 400 Q114 426 165 426 Q180 426 188 421.5 Q196 417 196 404 Q196 396 184 334 Q165 235 164 230 Q148 139 148 94 Q148 67 165 67 Q181 67 201 80 L213 60 Z M98 643 Q120 643 132.5 632 Q145 621 145 602 Q145 577 128 562.5 Q111 548 84 548 Q63 548 49.5 559 Q36 570 36 589 Q36 613 54 628 Q72 643 98 643 Z M272 643 Q294 643 306.5 632 Q319 621 319 602 Q319 577 302 562.5 Q285 548 258 548 Q237 548 223.5 559 Q210 570 210 589 Q210 613 228 628 Q246 643 272 643 Z " />
<glyph glyph-name="igrave" unicode="&#xec;" horiz-adv-x="256" d="M213 60 Q181 27 152.5 8.5 Q124 -10 102 -10 Q84 -10 74 1.5 Q64 13 64 36 Q64 53 70 93.5 Q76 134 78 147 L90 223 Q103 310 103 347 Q103 361 93.5 367 Q84 373 72 373 Q64 373 56 371 L51 400 Q114 426 165 426 Q180 426 188 421.5 Q196 417 196 404 Q196 396 184 334 Q165 235 164 230 Q148 139 148 94 Q148 67 165 67 Q181 67 201 80 L213 60 Z M110 653 Q119 653 123.5 650 Q128 647 132.5 640.5 Q137 634 139 632 L221 518 Q230 504 230 501 Q230 493 213 493 Q204 493 195 502 L56 615 Q50 621 50 626 Q50 633 71 643 Q92 653 110 653 Z " />
<glyph glyph-name="ij" unicode="&#x133;" horiz-adv-x="502" d="M178 643 Q200 643 212.5 632 Q225 621 225 602 Q225 577 208 562.5 Q191 548 164 548 Q143 548 129.5 559 Q116 570 116 589 Q116 613 134 628 Q152 643 178 643 Z M213 60 Q181 27 152.5 8.5 Q124 -10 102 -10 Q84 -10 74 1.5 Q64 13 64 36 Q64 53 70 93.5 Q76 134 78 147 L90 223 Q103 310 103 347 Q103 361 93.5 367 Q84 373 72 373 Q64 373 56 371 L51 400 Q114 426 165 426 Q180 426 188 421.5 Q196 417 196 404 Q196 396 184 334 Q165 235 164 230 Q148 139 148 94 Q148 67 165 67 Q181 67 201 80 L213 60 Z M439 643 Q461 643 473.5 632 Q486 621 486 602 Q486 577 469 562.5 Q452 548 425 548 Q404 548 390.5 559 Q377 570 377 589 Q377 613 395 628 Q413 643 439 643 Z M422 426 Q437 426 445 421.5 Q453 417 453 403 Q445 355 423 210.5 Q401 66 394 11 Q377 -115 337 -180 Q297 -245 223 -245 Q182 -245 153 -226.5 Q124 -208 124 -178 Q124 -160 135.5 -147 Q147 -134 169 -134 Q184 -134 195 -140.5 Q206 -147 206 -162 Q206 -168 203 -178 Q200 -188 200 -193 Q200 -205 208.5 -211.5 Q217 -218 230 -218 Q257 -218 273 -187.5 Q289 -157 299.5 -101 Q310 -45 326 72 L347 225 Q360 321 360 342 Q360 373 330 373 Q321 373 313 371 L308 400 Q371 426 422 426 Z " />
<glyph glyph-name="imacron" unicode="&#x12b;" horiz-adv-x="256" d="M213 60 Q181 27 152.5 8.5 Q124 -10 102 -10 Q84 -10 74 1.5 Q64 13 64 36 Q64 53 70 93.5 Q76 134 78 147 L90 223 Q103 310 103 347 Q103 361 93.5 367 Q84 373 72 373 Q64 373 56 371 L51 400 Q114 426 165 426 Q180 426 188 421.5 Q196 417 196 404 Q196 396 184 334 Q165 235 164 230 Q148 139 148 94 Q148 67 165 67 Q181 67 201 80 L213 60 Z M301 607 L295 567 L53 567 L59 607 L301 607 Z " />
<glyph glyph-name="iogonek" unicode="&#x12f;" horiz-adv-x="256" d="M170 548 Q149 548 135.5 559 Q122 570 122 589 Q122 613 140 628 Q158 643 184 643 Q206 643 218.5 632 Q231 621 231 602 Q231 577 214 562.5 Q197 548 170 548 Z M146 -117 Q176 -117 215 -86 L227 -100 Q200 -129 168.5 -144.5 Q137 -160 106 -160 Q80 -160 61.5 -143.5 Q43 -127 43 -98 Q43 -74 56 -51 Q69 -28 93 -9 Q64 -4 64 36 Q64 53 70 93.5 Q76 134 78 147 L90 223 Q103 310 103 347 Q103 361 93.5 367 Q84 373 72 373 Q64 373 56 371 L51 400 Q114 426 165 426 Q180 426 188 421.5 Q196 417 196 404 Q196 396 184 334 Q165 235 164 230 Q148 139 148 94 Q148 67 165 67 Q181 67 201 80 L213 60 Q172 18 139 1 Q121 -13 111 -31.5 Q101 -50 101 -72 Q101 -92 112 -104.5 Q123 -117 146 -117 Z " />
<glyph glyph-name="j" unicode="j" horiz-adv-x="242" d="M179 643 Q201 643 213.5 632 Q226 621 226 602 Q226 577 209 562.5 Q192 548 165 548 Q144 548 130.5 559 Q117 570 117 589 Q117 613 135 628 Q153 643 179 643 Z M162 426 Q177 426 185 421.5 Q193 417 193 403 Q185 355 163 210.5 Q141 66 134 11 Q117 -115 77 -180 Q37 -245 -37 -245 Q-78 -245 -107 -226.5 Q-136 -208 -136 -178 Q-136 -160 -124.5 -147 Q-113 -134 -91 -134 Q-76 -134 -65 -140.5 Q-54 -147 -54 -162 Q-54 -168 -57 -178 Q-60 -188 -60 -193 Q-60 -205 -51.5 -211.5 Q-43 -218 -30 -218 Q-3 -218 13 -187.5 Q29 -157 39.5 -101 Q50 -45 66 72 L87 225 Q100 321 100 342 Q100 373 70 373 Q61 373 53 371 L48 400 Q111 426 162 426 Z " />
<glyph glyph-name="uni0237" unicode="&#x237;" horiz-adv-x="242" d="M162 426 Q177 426 185 421.5 Q193 417 193 403 Q185 355 163 210.5 Q141 66 134 11 Q117 -115 77 -180 Q37 -245 -37 -245 Q-78 -245 -107 -226.5 Q-136 -208 -136 -178 Q-136 -160 -124.5 -147 Q-113 -134 -91 -134 Q-76 -134 -65 -140.5 Q-54 -147 -54 -162 Q-54 -168 -57 -178 Q-60 -188 -60 -193 Q-60 -205 -51.5 -211.5 Q-43 -218 -30 -218 Q-3 -218 13 -187.5 Q29 -157 39.5 -101 Q50 -45 66 72 L87 225 Q100 321 100 342 Q100 373 70 373 Q61 373 53 371 L48 400 Q111 426 162 426 Z " />
<glyph glyph-name="k" unicode="k" horiz-adv-x="481" d="M448 60 Q419 27 391 8.5 Q363 -10 342 -10 Q319 -10 306.5 2.5 Q294 15 286 40 L229 206 Q291 227 322 262 Q353 297 353 333 Q353 353 343.5 364 Q334 375 321 375 Q291 375 253.5 334.5 Q216 294 184.5 232.5 Q153 171 138 112 L124 0 L45 0 Q64 119 98.5 362 Q133 605 133 651 Q133 663 124 669 Q115 675 100 675 Q85 675 76 673 L70 698 Q103 714 135 722 Q167 730 188 730 Q208 730 217 725.5 Q226 721 226 708 Q226 697 216 640 Q213 620 210 601.5 Q207 583 204 566 L187 464 L152 222 Q190 309 241.5 369.5 Q293 430 357 430 Q393 430 415 409 Q437 388 437 357 Q437 320 402.5 283 Q368 246 307 219 L357 85 Q365 60 382 60 Q390 60 404.5 64.5 Q419 69 436 80 L448 60 Z " />
<glyph glyph-name="kcommaaccent" unicode="&#x137;" horiz-adv-x="481" d="M448 60 Q419 27 391 8.5 Q363 -10 342 -10 Q319 -10 306.5 2.5 Q294 15 286 40 L229 206 Q291 227 322 262 Q353 297 353 333 Q353 353 343.5 364 Q334 375 321 375 Q291 375 253.5 334.5 Q216 294 184.5 232.5 Q153 171 138 112 L124 0 L45 0 Q64 119 98.5 362 Q133 605 133 651 Q133 663 124 669 Q115 675 100 675 Q85 675 76 673 L70 698 Q103 714 135 722 Q167 730 188 730 Q208 730 217 725.5 Q226 721 226 708 Q226 697 216 640 Q213 620 210 601.5 Q207 583 204 566 L187 464 L152 222 Q190 309 241.5 369.5 Q293 430 357 430 Q393 430 415 409 Q437 388 437 357 Q437 320 402.5 283 Q368 246 307 219 L357 85 Q365 60 382 60 Q390 60 404.5 64.5 Q419 69 436 80 L448 60 Z M223 -34 Q248 -34 262 -49.5 Q276 -65 276 -87 Q276 -127 246 -161 Q216 -195 177 -213 L163 -200 Q184 -188 201.5 -170.5 Q219 -153 220 -140 Q224 -111 196 -111 Q184 -111 177 -102 Q170 -93 170 -81 Q170 -63 184.5 -48.5 Q199 -34 223 -34 Z " />
<glyph glyph-name="l" unicode="l" horiz-adv-x="236" d="M123 651 Q123 663 114 669 Q105 675 90 675 Q75 675 66 673 L60 698 Q127 730 183 730 Q199 730 207.5 725.5 Q216 721 216 708 Q216 693 203 621 L189 539 Q167 403 149.5 276 Q132 149 130 94 Q130 82 133.5 74.5 Q137 67 149 67 Q156 67 167.5 70 Q179 73 190 80 L202 60 Q171 27 138.5 8.5 Q106 -10 82 -10 Q64 -10 53.5 1.5 Q43 13 43 36 Q43 63 76 279 L89 370 Q123 599 123 651 Z " />
<glyph glyph-name="lacute" unicode="&#x13a;" horiz-adv-x="236" d="M335 845 Q334 839 324 834 L154 762 Q144 758 136 758 Q123 758 123 767 Q125 774 138 783 L263 866 Q280 878 291 878 Q304 878 320 865.5 Q336 853 335 845 Z M123 651 Q123 663 114 669 Q105 675 90 675 Q75 675 66 673 L60 698 Q127 730 183 730 Q199 730 207.5 725.5 Q216 721 216 708 Q216 693 203 621 L189 539 Q167 403 149.5 276 Q132 149 130 94 Q130 82 133.5 74.5 Q137 67 149 67 Q156 67 167.5 70 Q179 73 190 80 L202 60 Q171 27 138.5 8.5 Q106 -10 82 -10 Q64 -10 53.5 1.5 Q43 13 43 36 Q43 63 76 279 L89 370 Q123 599 123 651 Z " />
<glyph glyph-name="lcaron" unicode="&#x13e;" horiz-adv-x="236" d="M123 651 Q123 663 114 669 Q105 675 90 675 Q75 675 66 673 L60 698 Q127 730 183 730 Q199 730 207.5 725.5 Q216 721 216 708 Q216 693 203 621 L189 539 Q167 403 149.5 276 Q132 149 130 94 Q130 82 133.5 74.5 Q137 67 149 67 Q156 67 167.5 70 Q179 73 190 80 L202 60 Q171 27 138.5 8.5 Q106 -10 82 -10 Q64 -10 53.5 1.5 Q43 13 43 36 Q43 63 76 279 L89 370 Q123 599 123 651 Z M278 607 Q300 607 313 591.5 Q326 576 326 554 Q326 518 299 486 Q272 454 237 438 L223 451 Q241 463 255 480.5 Q269 498 270 511 L270 515 Q270 530 256 530 Q244 530 237 539 Q230 548 230 560 Q230 578 242.5 592.5 Q255 607 278 607 Z " />
<glyph glyph-name="lcommaaccent" unicode="&#x13c;" horiz-adv-x="236" d="M123 651 Q123 663 114 669 Q105 675 90 675 Q75 675 66 673 L60 698 Q127 730 183 730 Q199 730 207.5 725.5 Q216 721 216 708 Q216 693 203 621 L189 539 Q167 403 149.5 276 Q132 149 130 94 Q130 82 133.5 74.5 Q137 67 149 67 Q156 67 167.5 70 Q179 73 190 80 L202 60 Q171 27 138.5 8.5 Q106 -10 82 -10 Q64 -10 53.5 1.5 Q43 13 43 36 Q43 63 76 279 L89 370 Q123 599 123 651 Z M88 -34 Q113 -34 127 -49.5 Q141 -65 141 -87 Q141 -127 111 -161 Q81 -195 42 -213 L28 -200 Q49 -188 66.5 -170.5 Q84 -153 85 -140 Q89 -111 61 -111 Q49 -111 42 -102 Q35 -93 35 -81 Q35 -63 49.5 -48.5 Q64 -34 88 -34 Z " />
<glyph glyph-name="ldot" unicode="&#x140;" horiz-adv-x="236" d="M123 651 Q123 663 114 669 Q105 675 90 675 Q75 675 66 673 L60 698 Q127 730 183 730 Q199 730 207.5 725.5 Q216 721 216 708 Q216 693 203 621 L189 539 Q167 403 149.5 276 Q132 149 130 94 Q130 82 133.5 74.5 Q137 67 149 67 Q156 67 167.5 70 Q179 73 190 80 L202 60 Q171 27 138.5 8.5 Q106 -10 82 -10 Q64 -10 53.5 1.5 Q43 13 43 36 Q43 63 76 279 L89 370 Q123 599 123 651 Z M186 329 Q186 354 204 371.5 Q222 389 247 389 Q267 389 279.5 376.5 Q292 364 292 344 Q292 318 274.5 301 Q257 284 231 284 Q212 284 199 297 Q186 310 186 329 Z " />
<glyph glyph-name="lslash" unicode="&#x142;" horiz-adv-x="249" d="M169 409 Q132 167 130 94 Q130 82 133.5 74.5 Q137 67 149 67 Q156 67 167.5 70 Q179 73 190 80 L202 60 Q171 27 138.5 8.5 Q106 -10 82 -10 Q64 -10 53.5 1.5 Q43 13 43 36 Q43 57 75 275 Q78 300 86 352 L17 299 L24 346 L93 399 Q123 607 123 651 Q123 663 114 669 Q105 675 90 675 Q75 675 66 673 L60 698 Q127 730 183 730 Q199 730 207.5 725.5 Q216 721 216 708 Q216 693 203 621 L189 539 L176 456 L249 513 L242 465 L169 409 Z " />
<glyph glyph-name="m" unicode="m" horiz-adv-x="761" d="M728 60 Q697 28 664.5 9 Q632 -10 610 -10 Q594 -10 586 2 Q578 14 578 35 Q578 52 585 89 Q592 126 600 166 Q626 284 626 324 Q626 347 614.5 361 Q603 375 583 375 Q553 375 517 334.5 Q481 294 450.5 232.5 Q420 171 406 113 L392 0 L314 0 Q335 125 347.5 206.5 Q360 288 360 328 Q360 350 350.5 362.5 Q341 375 324 375 Q295 375 259.5 337.5 Q224 300 192.5 242 Q161 184 144 127 L144 125 L129 0 L51 0 Q52 7 56 28 Q76 148 87 225.5 Q98 303 98 341 Q98 373 69 373 Q61 373 53 371 L48 400 Q77 412 101.5 419 Q126 426 151 426 Q188 426 188 407 Q188 396 173 315 Q170 292 166 271 Q162 250 159 230 Q196 315 246.5 372.5 Q297 430 360 430 Q395 430 418 405 Q441 380 441 340 Q441 310 429 250 Q514 430 619 430 Q660 430 684 405 Q708 380 708 340 Q708 318 701.5 285.5 Q695 253 688 222.5 Q681 192 679 183 Q660 105 660 90 Q660 82 664 74.5 Q668 67 679 67 Q696 67 716 80 L728 60 Z " />
<glyph glyph-name="n" unicode="n" horiz-adv-x="504" d="M471 60 Q440 28 407.5 9 Q375 -10 353 -10 Q339 -10 330 2 Q321 14 321 35 Q321 52 328 89 Q335 126 343 166 Q369 284 369 324 Q369 347 357.5 361 Q346 375 326 375 Q296 375 259 334.5 Q222 294 190 233 Q158 172 143 114 L129 0 L51 0 Q52 7 56 28 Q76 148 87 225.5 Q98 303 98 341 Q98 373 69 373 Q61 373 53 371 L48 400 Q77 412 101.5 419 Q126 426 151 426 Q188 426 188 407 Q188 395 173 309 Q158 222 158 222 Q194 309 246 369.5 Q298 430 362 430 Q403 430 427 405 Q451 380 451 340 Q451 318 444.5 285.5 Q438 253 431 222.5 Q424 192 422 183 Q403 105 403 90 Q403 82 407 74.5 Q411 67 422 67 Q439 67 459 80 L471 60 Z " />
<glyph glyph-name="nacute" unicode="&#x144;" horiz-adv-x="504" d="M471 60 Q440 28 407.5 9 Q375 -10 353 -10 Q339 -10 330 2 Q321 14 321 35 Q321 52 328 89 Q335 126 343 166 Q369 284 369 324 Q369 347 357.5 361 Q346 375 326 375 Q296 375 259 334.5 Q222 294 190 233 Q158 172 143 114 L129 0 L51 0 Q52 7 56 28 Q76 148 87 225.5 Q98 303 98 341 Q98 373 69 373 Q61 373 53 371 L48 400 Q77 412 101.5 419 Q126 426 151 426 Q188 426 188 407 Q188 395 173 309 Q158 222 158 222 Q194 309 246 369.5 Q298 430 362 430 Q403 430 427 405 Q451 380 451 340 Q451 318 444.5 285.5 Q438 253 431 222.5 Q424 192 422 183 Q403 105 403 90 Q403 82 407 74.5 Q411 67 422 67 Q439 67 459 80 L471 60 Z M438 627 Q438 623 428 615 L257 502 Q245 493 236 493 Q222 493 222 500 Q222 504 231 513 Q240 522 242 524 L349 632 Q361 645 367 649 Q373 653 384 653 Q401 653 419.5 643.5 Q438 634 438 627 Z " />
<glyph glyph-name="ncaron" unicode="&#x148;" horiz-adv-x="504" d="M471 60 Q440 28 407.5 9 Q375 -10 353 -10 Q339 -10 330 2 Q321 14 321 35 Q321 52 328 89 Q335 126 343 166 Q369 284 369 324 Q369 347 357.5 361 Q346 375 326 375 Q296 375 259 334.5 Q222 294 190 233 Q158 172 143 114 L129 0 L51 0 Q52 7 56 28 Q76 148 87 225.5 Q98 303 98 341 Q98 373 69 373 Q61 373 53 371 L48 400 Q77 412 101.5 419 Q126 426 151 426 Q188 426 188 407 Q188 395 173 309 Q158 222 158 222 Q194 309 246 369.5 Q298 430 362 430 Q403 430 427 405 Q451 380 451 340 Q451 318 444.5 285.5 Q438 253 431 222.5 Q424 192 422 183 Q403 105 403 90 Q403 82 407 74.5 Q411 67 422 67 Q439 67 459 80 L471 60 Z M447 657 Q458 657 458 650 Q458 646 431 625 Q424 619 406 604 Q388 589 372 574 L322 526 Q295 501 288 501 Q285 501 277.5 508 Q270 515 262 526 L226 574 Q207 599 177 629 Q161 645 161 649 Q161 652 164 654.5 Q167 657 174 657 Q184 657 201 645 L298 572 L418 645 Q440 657 447 657 Z " />
<glyph glyph-name="ncommaaccent" unicode="&#x146;" horiz-adv-x="504" d="M471 60 Q440 28 407.5 9 Q375 -10 353 -10 Q339 -10 330 2 Q321 14 321 35 Q321 52 328 89 Q335 126 343 166 Q369 284 369 324 Q369 347 357.5 361 Q346 375 326 375 Q296 375 259 334.5 Q222 294 190 233 Q158 172 143 114 L129 0 L51 0 Q52 7 56 28 Q76 148 87 225.5 Q98 303 98 341 Q98 373 69 373 Q61 373 53 371 L48 400 Q77 412 101.5 419 Q126 426 151 426 Q188 426 188 407 Q188 395 173 309 Q158 222 158 222 Q194 309 246 369.5 Q298 430 362 430 Q403 430 427 405 Q451 380 451 340 Q451 318 444.5 285.5 Q438 253 431 222.5 Q424 192 422 183 Q403 105 403 90 Q403 82 407 74.5 Q411 67 422 67 Q439 67 459 80 L471 60 Z M215 -34 Q240 -34 254 -49.5 Q268 -65 268 -87 Q268 -127 238 -161 Q208 -195 169 -213 L155 -200 Q176 -188 193.5 -170.5 Q211 -153 212 -140 Q216 -111 188 -111 Q176 -111 169 -102 Q162 -93 162 -81 Q162 -63 176.5 -48.5 Q191 -34 215 -34 Z " />
<glyph glyph-name="ntilde" unicode="&#xf1;" horiz-adv-x="504" d="M471 60 Q440 28 407.5 9 Q375 -10 353 -10 Q339 -10 330 2 Q321 14 321 35 Q321 52 328 89 Q335 126 343 166 Q369 284 369 324 Q369 347 357.5 361 Q346 375 326 375 Q296 375 259 334.5 Q222 294 190 233 Q158 172 143 114 L129 0 L51 0 Q52 7 56 28 Q76 148 87 225.5 Q98 303 98 341 Q98 373 69 373 Q61 373 53 371 L48 400 Q77 412 101.5 419 Q126 426 151 426 Q188 426 188 407 Q188 395 173 309 Q158 222 158 222 Q194 309 246 369.5 Q298 430 362 430 Q403 430 427 405 Q451 380 451 340 Q451 318 444.5 285.5 Q438 253 431 222.5 Q424 192 422 183 Q403 105 403 90 Q403 82 407 74.5 Q411 67 422 67 Q439 67 459 80 L471 60 Z M228 621 Q251 621 311 599 Q364 578 386 578 Q400 578 411.5 590 Q423 602 425 620 L445 620 Q440 583 417.5 556 Q395 529 368 529 Q353 529 334 534.5 Q315 540 285 551 Q232 572 210 572 Q196 572 185 560 Q174 548 171 530 L151 530 Q156 567 178.5 594 Q201 621 228 621 Z " />
<glyph glyph-name="o" unicode="o" horiz-adv-x="451" d="M272 430 Q350 430 386.5 384.5 Q423 339 423 264 Q423 193 392.5 130 Q362 67 306.5 28.5 Q251 -10 179 -10 Q101 -10 64.5 35.5 Q28 81 28 156 Q28 227 58.5 290 Q89 353 144.5 391.5 Q200 430 272 430 Z M258 398 Q219 398 188.5 366 Q158 334 140 285 Q116 219 116 148 Q116 86 136 54 Q156 22 193 22 Q234 22 266.5 58.5 Q299 95 317 152 Q335 211 335 272 Q335 334 315 366 Q295 398 258 398 Z " />
<glyph glyph-name="oacute" unicode="&#xf3;" horiz-adv-x="451" d="M272 430 Q350 430 386.5 384.5 Q423 339 423 264 Q423 193 392.5 130 Q362 67 306.5 28.5 Q251 -10 179 -10 Q101 -10 64.5 35.5 Q28 81 28 156 Q28 227 58.5 290 Q89 353 144.5 391.5 Q200 430 272 430 Z M258 398 Q219 398 188.5 366 Q158 334 140 285 Q116 219 116 148 Q116 86 136 54 Q156 22 193 22 Q234 22 266.5 58.5 Q299 95 317 152 Q335 211 335 272 Q335 334 315 366 Q295 398 258 398 Z M433 627 Q433 623 423 615 L252 502 Q240 493 231 493 Q217 493 217 500 Q217 504 226 513 Q235 522 237 524 L344 632 Q356 645 362 649 Q368 653 379 653 Q396 653 414.5 643.5 Q433 634 433 627 Z " />
<glyph glyph-name="ocircumflex" unicode="&#xf4;" horiz-adv-x="451" d="M272 430 Q350 430 386.5 384.5 Q423 339 423 264 Q423 193 392.5 130 Q362 67 306.5 28.5 Q251 -10 179 -10 Q101 -10 64.5 35.5 Q28 81 28 156 Q28 227 58.5 290 Q89 353 144.5 391.5 Q200 430 272 430 Z M258 398 Q219 398 188.5 366 Q158 334 140 285 Q116 219 116 148 Q116 86 136 54 Q156 22 193 22 Q234 22 266.5 58.5 Q299 95 317 152 Q335 211 335 272 Q335 334 315 366 Q295 398 258 398 Z M145 493 Q134 493 134 500 Q134 504 161 525 Q168 531 186 546 Q204 561 220 576 L270 624 Q297 649 304 649 Q307 649 314.5 642 Q322 635 330 624 L366 576 Q385 551 415 521 Q431 505 431 501 Q431 498 428 495.5 Q425 493 418 493 Q408 493 391 505 L294 578 L174 505 Q152 493 145 493 Z " />
<glyph glyph-name="odieresis" unicode="&#xf6;" horiz-adv-x="451" d="M272 430 Q350 430 386.5 384.5 Q423 339 423 264 Q423 193 392.5 130 Q362 67 306.5 28.5 Q251 -10 179 -10 Q101 -10 64.5 35.5 Q28 81 28 156 Q28 227 58.5 290 Q89 353 144.5 391.5 Q200 430 272 430 Z M258 398 Q219 398 188.5 366 Q158 334 140 285 Q116 219 116 148 Q116 86 136 54 Q156 22 193 22 Q234 22 266.5 58.5 Q299 95 317 152 Q335 211 335 272 Q335 334 315 366 Q295 398 258 398 Z M216 643 Q238 643 250.5 632 Q263 621 263 602 Q263 577 246 562.5 Q229 548 202 548 Q181 548 167.5 559 Q154 570 154 589 Q154 613 172 628 Q190 643 216 643 Z M390 643 Q412 643 424.5 632 Q437 621 437 602 Q437 577 420 562.5 Q403 548 376 548 Q355 548 341.5 559 Q328 570 328 589 Q328 613 346 628 Q364 643 390 643 Z " />
<glyph glyph-name="ograve" unicode="&#xf2;" horiz-adv-x="451" d="M272 430 Q350 430 386.5 384.5 Q423 339 423 264 Q423 193 392.5 130 Q362 67 306.5 28.5 Q251 -10 179 -10 Q101 -10 64.5 35.5 Q28 81 28 156 Q28 227 58.5 290 Q89 353 144.5 391.5 Q200 430 272 430 Z M258 398 Q219 398 188.5 366 Q158 334 140 285 Q116 219 116 148 Q116 86 136 54 Q156 22 193 22 Q234 22 266.5 58.5 Q299 95 317 152 Q335 211 335 272 Q335 334 315 366 Q295 398 258 398 Z M228 653 Q237 653 241.5 650 Q246 647 250.5 640.5 Q255 634 257 632 L339 518 Q348 504 348 501 Q348 493 331 493 Q322 493 313 502 L174 615 Q168 621 168 626 Q168 633 189 643 Q210 653 228 653 Z " />
<glyph glyph-name="ohungarumlaut" unicode="&#x151;" horiz-adv-x="451" d="M272 430 Q350 430 386.5 384.5 Q423 339 423 264 Q423 193 392.5 130 Q362 67 306.5 28.5 Q251 -10 179 -10 Q101 -10 64.5 35.5 Q28 81 28 156 Q28 227 58.5 290 Q89 353 144.5 391.5 Q200 430 272 430 Z M258 398 Q219 398 188.5 366 Q158 334 140 285 Q116 219 116 148 Q116 86 136 54 Q156 22 193 22 Q234 22 266.5 58.5 Q299 95 317 152 Q335 211 335 272 Q335 334 315 366 Q295 398 258 398 Z M286 653 Q301 653 318 644 Q335 635 335 628 Q335 625 326 616 Q316 605 200 499 Q194 493 183 493 Q173 493 173 500 Q173 505 177 510 Q229 586 270 644 Q274 650 277 651.5 Q280 653 286 653 Z M398 653 Q412 653 429 644.5 Q446 636 446 629 Q446 625 438 616 Q421 596 312 499 Q305 493 295 493 Q290 493 287 495 Q284 497 284 500 Q284 502 288 510 Q332 570 354.5 603.5 Q377 637 382 644 Q387 650 390 651.5 Q393 653 398 653 Z " />
<glyph glyph-name="omacron" unicode="&#x14d;" horiz-adv-x="451" d="M272 430 Q350 430 386.5 384.5 Q423 339 423 264 Q423 193 392.5 130 Q362 67 306.5 28.5 Q251 -10 179 -10 Q101 -10 64.5 35.5 Q28 81 28 156 Q28 227 58.5 290 Q89 353 144.5 391.5 Q200 430 272 430 Z M258 398 Q219 398 188.5 366 Q158 334 140 285 Q116 219 116 148 Q116 86 136 54 Q156 22 193 22 Q234 22 266.5 58.5 Q299 95 317 152 Q335 211 335 272 Q335 334 315 366 Q295 398 258 398 Z M419 607 L413 567 L171 567 L177 607 L419 607 Z " />
<glyph glyph-name="oslash" unicode="&#xf8;" horiz-adv-x="459" d="M381 391 Q423 348 423 264 Q423 193 392.5 130 Q362 67 306.5 28.5 Q251 -10 179 -10 Q143 -10 113 1 L54 -85 L18 -67 L79 21 Q28 64 28 156 Q28 227 58.5 290 Q89 353 144.5 391.5 Q200 430 272 430 Q315 430 349 414 L411 504 L443 482 L381 391 Z M116 148 Q116 110 123 86 L315 365 Q296 398 258 398 Q219 398 188.5 366 Q158 334 140 285 Q116 219 116 148 Z M335 272 Q335 300 331 319 L143 45 Q163 22 193 22 Q234 22 266.5 58.5 Q299 95 317 152 Q335 211 335 272 Z " />
<glyph glyph-name="otilde" unicode="&#xf5;" horiz-adv-x="451" d="M272 430 Q350 430 386.5 384.5 Q423 339 423 264 Q423 193 392.5 130 Q362 67 306.5 28.5 Q251 -10 179 -10 Q101 -10 64.5 35.5 Q28 81 28 156 Q28 227 58.5 290 Q89 353 144.5 391.5 Q200 430 272 430 Z M258 398 Q219 398 188.5 366 Q158 334 140 285 Q116 219 116 148 Q116 86 136 54 Q156 22 193 22 Q234 22 266.5 58.5 Q299 95 317 152 Q335 211 335 272 Q335 334 315 366 Q295 398 258 398 Z M223 621 Q246 621 306 599 Q359 578 381 578 Q395 578 406.5 590 Q418 602 420 620 L440 620 Q435 583 412.5 556 Q390 529 363 529 Q348 529 329 534.5 Q310 540 280 551 Q227 572 205 572 Q191 572 180 560 Q169 548 166 530 L146 530 Q151 567 173.5 594 Q196 621 223 621 Z " />
<glyph glyph-name="oe" unicode="&#x153;" horiz-adv-x="699" d="M690 329 Q690 294 662 262 Q634 230 572.5 207.5 Q511 185 416 178 Q415 169 415 151 Q415 101 436.5 71.5 Q458 42 492 42 Q537 42 624 97 L646 81 Q606 40 559.5 14 Q513 -12 467 -12 Q427 -12 395 7 Q363 26 345 61 Q276 -10 179 -10 Q101 -10 64.5 35.5 Q28 81 28 156 Q28 227 58.5 290 Q89 353 144.5 391.5 Q200 430 272 430 Q375 430 408 348 Q441 385 481.5 406 Q522 427 564 427 Q618 427 654 398.5 Q690 370 690 329 Z M193 22 Q234 22 266.5 58.5 Q299 95 317 152 Q335 211 335 272 Q335 334 315 366 Q295 398 258 398 Q219 398 188.5 366 Q158 334 140 285 Q116 219 116 148 Q116 86 136 54 Q156 22 193 22 Z M562 397 Q496 397 453 316 Q427 265 420 210 Q515 217 567 251.5 Q619 286 619 335 Q619 361 604.5 379 Q590 397 562 397 Z " />
<glyph glyph-name="p" unicode="p" horiz-adv-x="472" d="M348 430 Q395 430 422.5 394.5 Q450 359 450 300 Q450 230 419 157.5 Q388 85 334.5 37.5 Q281 -10 218 -10 Q188 -10 164 1 Q140 12 126 30 Q99 -157 98 -203 Q98 -215 107 -215 L170 -213 L166 -239 L-28 -239 L-24 -213 L7 -215 Q18 -214 21 -195 Q38 -92 66 107 Q94 306 94 341 Q94 373 65 373 Q57 373 49 371 L44 400 Q73 412 97.5 419 Q122 426 147 426 Q184 426 184 407 Q184 395 164 285 Q162 266 156 238 Q200 337 250 383.5 Q300 430 348 430 Z M349 182 Q361 229 361 276 Q361 322 347 348.5 Q333 375 312 375 Q284 375 242 325 Q200 275 168.5 208 Q137 141 137 94 Q137 52 161.5 36 Q186 20 214 20 Q267 20 300 66.5 Q333 113 349 182 Z " />
<glyph glyph-name="thorn" unicode="&#xfe;" horiz-adv-x="460" d="M336 430 Q383 430 410.5 394.5 Q438 359 438 300 Q438 230 407 157.5 Q376 85 322.5 37.5 Q269 -10 206 -10 Q176 -10 151.5 1 Q127 12 114 31 Q88 -154 86 -203 Q86 -215 95 -215 L158 -213 L154 -239 L-40 -239 L-36 -213 L-5 -215 Q6 -214 9 -195 Q16 -139 32 -42 Q75 246 98 417 Q121 588 121 651 Q121 663 112 669 Q103 675 88 675 Q73 675 64 673 L58 698 Q91 714 123 722 Q155 730 176 730 Q196 730 205 725.5 Q214 721 214 708 Q214 696 192 568 L175 464 L142 232 Q186 334 236.5 382 Q287 430 336 430 Z M311 103 Q330 143 339.5 191 Q349 239 349 276 Q349 322 335 348.5 Q321 375 300 375 Q272 375 230 325 Q188 275 156.5 208 Q125 141 125 94 Q125 52 149.5 36 Q174 20 202 20 Q270 20 311 103 Z " />
<glyph glyph-name="q" unicode="q" horiz-adv-x="452" d="M439 428 Q415 335 393 198 Q371 61 357 -59.5 Q343 -180 343 -202 Q343 -215 352 -215 L415 -213 L411 -239 L213 -239 L217 -213 L248 -215 Q259 -214 262 -195 Q266 -165 275 -92 Q298 88 315 183 Q271 83 221 36.5 Q171 -10 123 -10 Q77 -10 50 25.5 Q23 61 23 120 Q23 191 54 263.5 Q85 336 138 383 Q191 430 253 430 Q313 430 341 390 L347 411 L439 428 Z M159 45 Q187 45 229 95 Q271 145 302.5 212 Q334 279 334 326 Q334 368 309.5 384 Q285 400 257 400 Q206 400 173 354.5 Q140 309 124 242 Q112 187 112 144 Q112 98 125.5 71.5 Q139 45 159 45 Z " />
<glyph glyph-name="r" unicode="r" horiz-adv-x="368" d="M307 430 Q337 430 356 408.5 Q375 387 375 358 Q375 335 362 316.5 Q349 298 323 298 Q307 298 298 305.5 Q289 313 289 326 Q289 335 295 346.5 Q301 358 301 363 Q301 370 296 375 Q291 380 283 380 Q260 380 231 335.5 Q202 291 177.5 224.5 Q153 158 141 96 L129 0 L51 0 Q52 7 56 28 Q76 148 87 225.5 Q98 303 98 341 Q98 373 69 373 Q61 373 53 371 L48 400 Q77 412 101.5 419 Q126 426 151 426 Q188 426 188 407 Q188 391 172 309 L163 255 Q193 332 228 381 Q263 430 307 430 Z " />
<glyph glyph-name="racute" unicode="&#x155;" horiz-adv-x="368" d="M307 430 Q337 430 356 408.5 Q375 387 375 358 Q375 335 362 316.5 Q349 298 323 298 Q307 298 298 305.5 Q289 313 289 326 Q289 335 295 346.5 Q301 358 301 363 Q301 370 296 375 Q291 380 283 380 Q260 380 231 335.5 Q202 291 177.5 224.5 Q153 158 141 96 L129 0 L51 0 Q52 7 56 28 Q76 148 87 225.5 Q98 303 98 341 Q98 373 69 373 Q61 373 53 371 L48 400 Q77 412 101.5 419 Q126 426 151 426 Q188 426 188 407 Q188 391 172 309 L163 255 Q193 332 228 381 Q263 430 307 430 Z M326 627 Q326 623 316 615 L145 502 Q133 493 124 493 Q110 493 110 500 Q110 504 119 513 Q128 522 130 524 L237 632 Q249 645 255 649 Q261 653 272 653 Q289 653 307.5 643.5 Q326 634 326 627 Z " />
<glyph glyph-name="rcaron" unicode="&#x159;" horiz-adv-x="368" d="M307 430 Q337 430 356 408.5 Q375 387 375 358 Q375 335 362 316.5 Q349 298 323 298 Q307 298 298 305.5 Q289 313 289 326 Q289 335 295 346.5 Q301 358 301 363 Q301 370 296 375 Q291 380 283 380 Q260 380 231 335.5 Q202 291 177.5 224.5 Q153 158 141 96 L129 0 L51 0 Q52 7 56 28 Q76 148 87 225.5 Q98 303 98 341 Q98 373 69 373 Q61 373 53 371 L48 400 Q77 412 101.5 419 Q126 426 151 426 Q188 426 188 407 Q188 391 172 309 L163 255 Q193 332 228 381 Q263 430 307 430 Z M335 657 Q346 657 346 650 Q346 646 319 625 Q312 619 294 604 Q276 589 260 574 L210 526 Q183 501 176 501 Q173 501 165.5 508 Q158 515 150 526 L114 574 Q95 599 65 629 Q49 645 49 649 Q49 652 52 654.5 Q55 657 62 657 Q72 657 89 645 L186 572 L306 645 Q328 657 335 657 Z " />
<glyph glyph-name="rcommaaccent" unicode="&#x157;" horiz-adv-x="368" d="M307 430 Q337 430 356 408.5 Q375 387 375 358 Q375 335 362 316.5 Q349 298 323 298 Q307 298 298 305.5 Q289 313 289 326 Q289 335 295 346.5 Q301 358 301 363 Q301 370 296 375 Q291 380 283 380 Q260 380 231 335.5 Q202 291 177.5 224.5 Q153 158 141 96 L129 0 L51 0 Q52 7 56 28 Q76 148 87 225.5 Q98 303 98 341 Q98 373 69 373 Q61 373 53 371 L48 400 Q77 412 101.5 419 Q126 426 151 426 Q188 426 188 407 Q188 391 172 309 L163 255 Q193 332 228 381 Q263 430 307 430 Z M96 -34 Q121 -34 135 -49.5 Q149 -65 149 -87 Q149 -127 119 -161 Q89 -195 50 -213 L36 -200 Q57 -188 74.5 -170.5 Q92 -153 93 -140 Q97 -111 69 -111 Q57 -111 50 -102 Q43 -93 43 -81 Q43 -63 57.5 -48.5 Q72 -34 96 -34 Z " />
<glyph glyph-name="s" unicode="s" horiz-adv-x="352" d="M292 287 Q277 287 266.5 294.5 Q256 302 256 313 Q256 326 263 338 Q269 352 269 362 Q269 381 252.5 392 Q236 403 207 403 Q167 403 141.5 381.5 Q116 360 116 329 Q117 300 139.5 281 Q162 262 208 239 Q262 212 290 187 Q318 162 318 121 Q318 59 266 24.5 Q214 -10 138 -10 Q72 -10 32.5 16 Q-7 42 -7 81 Q-7 106 7.5 121.5 Q22 137 45 137 Q61 137 72.5 129.5 Q84 122 84 111 Q84 100 76 84 Q69 65 69 58 Q69 39 87 28 Q105 17 141 17 Q181 17 209.5 35.5 Q238 54 238 91 Q237 118 215.5 135.5 Q194 153 150 174 Q95 201 66 227 Q37 253 37 298 Q37 335 60.5 365.5 Q84 396 123.5 413 Q163 430 208 430 Q268 430 306.5 404 Q345 378 345 341 Q345 317 330.5 302 Q316 287 292 287 Z " />
<glyph glyph-name="sacute" unicode="&#x15b;" horiz-adv-x="352" d="M292 287 Q277 287 266.5 294.5 Q256 302 256 313 Q256 326 263 338 Q269 352 269 362 Q269 381 252.5 392 Q236 403 207 403 Q167 403 141.5 381.5 Q116 360 116 329 Q117 300 139.5 281 Q162 262 208 239 Q262 212 290 187 Q318 162 318 121 Q318 59 266 24.5 Q214 -10 138 -10 Q72 -10 32.5 16 Q-7 42 -7 81 Q-7 106 7.5 121.5 Q22 137 45 137 Q61 137 72.5 129.5 Q84 122 84 111 Q84 100 76 84 Q69 65 69 58 Q69 39 87 28 Q105 17 141 17 Q181 17 209.5 35.5 Q238 54 238 91 Q237 118 215.5 135.5 Q194 153 150 174 Q95 201 66 227 Q37 253 37 298 Q37 335 60.5 365.5 Q84 396 123.5 413 Q163 430 208 430 Q268 430 306.5 404 Q345 378 345 341 Q345 317 330.5 302 Q316 287 292 287 Z M366 627 Q366 623 356 615 L185 502 Q173 493 164 493 Q150 493 150 500 Q150 504 159 513 Q168 522 170 524 L277 632 Q289 645 295 649 Q301 653 312 653 Q329 653 347.5 643.5 Q366 634 366 627 Z " />
<glyph glyph-name="scaron" unicode="&#x161;" horiz-adv-x="352" d="M292 287 Q277 287 266.5 294.5 Q256 302 256 313 Q256 326 263 338 Q269 352 269 362 Q269 381 252.5 392 Q236 403 207 403 Q167 403 141.5 381.5 Q116 360 116 329 Q117 300 139.5 281 Q162 262 208 239 Q262 212 290 187 Q318 162 318 121 Q318 59 266 24.5 Q214 -10 138 -10 Q72 -10 32.5 16 Q-7 42 -7 81 Q-7 106 7.5 121.5 Q22 137 45 137 Q61 137 72.5 129.5 Q84 122 84 111 Q84 100 76 84 Q69 65 69 58 Q69 39 87 28 Q105 17 141 17 Q181 17 209.5 35.5 Q238 54 238 91 Q237 118 215.5 135.5 Q194 153 150 174 Q95 201 66 227 Q37 253 37 298 Q37 335 60.5 365.5 Q84 396 123.5 413 Q163 430 208 430 Q268 430 306.5 404 Q345 378 345 341 Q345 317 330.5 302 Q316 287 292 287 Z M375 657 Q386 657 386 650 Q386 646 359 625 Q352 619 334 604 Q316 589 300 574 L250 526 Q223 501 216 501 Q213 501 205.5 508 Q198 515 190 526 L154 574 Q135 599 105 629 Q89 645 89 649 Q89 652 92 654.5 Q95 657 102 657 Q112 657 129 645 L226 572 L346 645 Q368 657 375 657 Z " />
<glyph glyph-name="scedilla" unicode="&#x15f;" horiz-adv-x="352" d="M292 287 Q277 287 266.5 294.5 Q256 302 256 313 Q256 326 263 338 Q269 352 269 362 Q269 381 252.5 392 Q236 403 207 403 Q167 403 141.5 381.5 Q116 360 116 329 Q117 300 139.5 281 Q162 262 208 239 Q262 212 290 187 Q318 162 318 121 Q318 63 272 29 Q226 -5 155 -10 L131 -43 Q122 -55 122 -63 Q122 -69 128.5 -72 Q135 -75 150 -79 Q173 -86 184.5 -93 Q196 -100 196 -117 Q196 -159 168.5 -186.5 Q141 -214 92 -214 Q48 -214 26 -198 L38 -171 Q48 -187 70 -187 Q93 -187 110.5 -170 Q128 -153 128 -130 Q128 -113 103 -94 L83 -80 Q73 -73 73 -66 Q73 -60 82 -52 L119 -9 Q61 -5 27 20.5 Q-7 46 -7 81 Q-7 106 7.5 121.5 Q22 137 45 137 Q61 137 72.5 129.5 Q84 122 84 111 Q84 100 76 84 Q69 65 69 58 Q69 39 87 28 Q105 17 141 17 Q181 17 209.5 35.5 Q238 54 238 91 Q237 118 215.5 135.5 Q194 153 150 174 Q95 201 66 227 Q37 253 37 298 Q37 335 60.5 365.5 Q84 396 123.5 413 Q163 430 208 430 Q268 430 306.5 404 Q345 378 345 341 Q345 317 330.5 302 Q316 287 292 287 Z " />
<glyph glyph-name="scommaaccent" unicode="&#x219;" horiz-adv-x="352" d="M292 287 Q277 287 266.5 294.5 Q256 302 256 313 Q256 326 263 338 Q269 352 269 362 Q269 381 252.5 392 Q236 403 207 403 Q167 403 141.5 381.5 Q116 360 116 329 Q117 300 139.5 281 Q162 262 208 239 Q262 212 290 187 Q318 162 318 121 Q318 59 266 24.5 Q214 -10 138 -10 Q72 -10 32.5 16 Q-7 42 -7 81 Q-7 106 7.5 121.5 Q22 137 45 137 Q61 137 72.5 129.5 Q84 122 84 111 Q84 100 76 84 Q69 65 69 58 Q69 39 87 28 Q105 17 141 17 Q181 17 209.5 35.5 Q238 54 238 91 Q237 118 215.5 135.5 Q194 153 150 174 Q95 201 66 227 Q37 253 37 298 Q37 335 60.5 365.5 Q84 396 123.5 413 Q163 430 208 430 Q268 430 306.5 404 Q345 378 345 341 Q345 317 330.5 302 Q316 287 292 287 Z M132 -34 Q157 -34 171 -49.5 Q185 -65 185 -87 Q185 -127 155 -161 Q125 -195 86 -213 L72 -200 Q93 -188 110.5 -170.5 Q128 -153 129 -140 Q133 -111 105 -111 Q93 -111 86 -102 Q79 -93 79 -81 Q79 -63 93.5 -48.5 Q108 -34 132 -34 Z " />
<glyph glyph-name="germandbls" unicode="&#xdf;" horiz-adv-x="558" d="M121 440 Q135 567 198.5 648.5 Q262 730 365 730 Q427 730 464.5 700 Q502 670 502 624 Q502 597 489.5 577 Q477 557 460 544 Q443 531 411 510 Q379 489 362.5 469.5 Q346 450 346 424 Q346 396 364 372.5 Q382 349 420 315 Q453 286 473 264 Q493 242 507.5 211.5 Q522 181 522 144 Q522 97 499 62 Q476 27 437.5 8.5 Q399 -10 353 -10 Q296 -10 260.5 16 Q225 42 225 80 Q225 102 238.5 119.5 Q252 137 279 137 Q311 137 311 111 Q311 101 305 85 Q298 69 298 57 Q298 17 362 17 Q401 17 423 34.5 Q445 52 445 96 Q445 142 423 175 Q401 208 357 250 Q314 290 292 322.5 Q270 355 270 400 Q270 430 280.5 450 Q291 470 306 482.5 Q321 495 348 511 Q371 523 384 534 Q405 550 416.5 571 Q428 592 428 623 Q428 663 408.5 683 Q389 703 356 703 Q237 703 209 454 L170 102 Q131 -245 -37 -245 Q-78 -245 -107 -226.5 Q-136 -208 -136 -178 Q-136 -160 -124.5 -147 Q-113 -134 -91 -134 Q-76 -134 -65 -140.5 Q-54 -147 -54 -162 Q-54 -168 -57 -178 Q-60 -188 -60 -193 Q-60 -205 -51.5 -211.5 Q-43 -218 -29 -218 Q2 -218 22 -187 Q42 -156 55 -94 Q68 -32 80 72 L121 440 Z " />
<glyph glyph-name="t" unicode="t" horiz-adv-x="322" d="M177 254 Q156 130 156 91 Q156 51 184 51 Q215 51 264 100 L286 84 Q253 40 218 15.5 Q183 -9 140 -9 Q103 -9 86 9 Q69 27 69 57 Q69 81 86 186 L92 226 L118 389 L43 389 L70 420 L123 420 L140 524 L230 540 L207 420 L314 420 L314 405 L285 389 L201 389 L177 254 Z " />
<glyph glyph-name="tcaron" unicode="&#x165;" horiz-adv-x="322" d="M177 254 Q156 130 156 91 Q156 51 184 51 Q215 51 264 100 L286 84 Q253 40 218 15.5 Q183 -9 140 -9 Q103 -9 86 9 Q69 27 69 57 Q69 81 86 186 L92 226 L118 389 L43 389 L70 420 L123 420 L140 524 L230 540 L207 420 L314 420 L314 405 L285 389 L201 389 L177 254 Z M315 607 Q337 607 350 591.5 Q363 576 363 554 Q363 518 336 486 Q309 454 274 438 L260 451 Q278 463 292 480.5 Q306 498 307 511 L307 515 Q307 530 293 530 Q281 530 274 539 Q267 548 267 560 Q267 578 279.5 592.5 Q292 607 315 607 Z " />
<glyph glyph-name="uni0163" unicode="&#x163;" horiz-adv-x="322" d="M177 254 Q156 130 156 91 Q156 51 184 51 Q215 51 264 100 L286 84 Q257 46 227.5 22.5 Q198 -1 164 -7 L138 -43 Q129 -55 129 -63 Q129 -69 135.5 -72 Q142 -75 157 -79 Q180 -86 191.5 -93 Q203 -100 203 -117 Q203 -159 175.5 -186.5 Q148 -214 99 -214 Q55 -214 33 -198 L45 -171 Q55 -187 77 -187 Q100 -187 117.5 -170 Q135 -153 135 -130 Q135 -113 110 -94 L90 -80 Q80 -73 80 -66 Q80 -60 89 -52 L127 -8 Q97 -5 83 12.5 Q69 30 69 57 Q69 81 86 186 L92 226 L118 389 L43 389 L70 420 L123 420 L140 524 L230 540 L207 420 L314 420 L314 405 L285 389 L201 389 L177 254 Z " />
<glyph glyph-name="uni021B" unicode="&#x21b;" horiz-adv-x="322" d="M177 254 Q156 130 156 91 Q156 51 184 51 Q215 51 264 100 L286 84 Q253 40 218 15.5 Q183 -9 140 -9 Q103 -9 86 9 Q69 27 69 57 Q69 81 86 186 L92 226 L118 389 L43 389 L70 420 L123 420 L140 524 L230 540 L207 420 L314 420 L314 405 L285 389 L201 389 L177 254 Z M139 -34 Q164 -34 178 -49.5 Q192 -65 192 -87 Q192 -127 162 -161 Q132 -195 93 -213 L79 -200 Q100 -188 117.5 -170.5 Q135 -153 136 -140 Q140 -111 112 -111 Q100 -111 93 -102 Q86 -93 86 -81 Q86 -63 100.5 -48.5 Q115 -34 139 -34 Z " />
<glyph glyph-name="u" unicode="u" horiz-adv-x="489" d="M463 60 Q429 23 396.5 6.5 Q364 -10 338 -10 Q324 -10 319 1 Q314 12 314 36 Q314 64 331 179 Q275 76 229.5 33 Q184 -10 136 -10 Q96 -10 75 12.5 Q54 35 54 70 Q54 107 84 240 Q104 327 104 346 Q104 373 67 373 Q55 373 47 371 L42 400 Q83 414 107 420 Q131 426 157 426 Q189 426 189 407 Q189 393 169 295 Q157 238 146.5 179.5 Q136 121 136 99 Q136 75 144 60 Q152 45 170 45 Q198 45 234 84 Q270 123 301.5 181.5 Q333 240 348 292 L366 411 L458 428 Q426 263 413 188.5 Q400 114 400 84 Q400 67 413 67 Q431 67 451 80 L463 60 Z " />
<glyph glyph-name="uacute" unicode="&#xfa;" horiz-adv-x="489" d="M463 60 Q429 23 396.5 6.5 Q364 -10 338 -10 Q324 -10 319 1 Q314 12 314 36 Q314 64 331 179 Q275 76 229.5 33 Q184 -10 136 -10 Q96 -10 75 12.5 Q54 35 54 70 Q54 107 84 240 Q104 327 104 346 Q104 373 67 373 Q55 373 47 371 L42 400 Q83 414 107 420 Q131 426 157 426 Q189 426 189 407 Q189 393 169 295 Q157 238 146.5 179.5 Q136 121 136 99 Q136 75 144 60 Q152 45 170 45 Q198 45 234 84 Q270 123 301.5 181.5 Q333 240 348 292 L366 411 L458 428 Q426 263 413 188.5 Q400 114 400 84 Q400 67 413 67 Q431 67 451 80 L463 60 Z M437 627 Q437 623 427 615 L256 502 Q244 493 235 493 Q221 493 221 500 Q221 504 230 513 Q239 522 241 524 L348 632 Q360 645 366 649 Q372 653 383 653 Q400 653 418.5 643.5 Q437 634 437 627 Z " />
<glyph glyph-name="ucircumflex" unicode="&#xfb;" horiz-adv-x="489" d="M463 60 Q429 23 396.5 6.5 Q364 -10 338 -10 Q324 -10 319 1 Q314 12 314 36 Q314 64 331 179 Q275 76 229.5 33 Q184 -10 136 -10 Q96 -10 75 12.5 Q54 35 54 70 Q54 107 84 240 Q104 327 104 346 Q104 373 67 373 Q55 373 47 371 L42 400 Q83 414 107 420 Q131 426 157 426 Q189 426 189 407 Q189 393 169 295 Q157 238 146.5 179.5 Q136 121 136 99 Q136 75 144 60 Q152 45 170 45 Q198 45 234 84 Q270 123 301.5 181.5 Q333 240 348 292 L366 411 L458 428 Q426 263 413 188.5 Q400 114 400 84 Q400 67 413 67 Q431 67 451 80 L463 60 Z M149 493 Q138 493 138 500 Q138 504 165 525 Q172 531 190 546 Q208 561 224 576 L274 624 Q301 649 308 649 Q311 649 318.5 642 Q326 635 334 624 L370 576 Q389 551 419 521 Q435 505 435 501 Q435 498 432 495.5 Q429 493 422 493 Q412 493 395 505 L298 578 L178 505 Q156 493 149 493 Z " />
<glyph glyph-name="udieresis" unicode="&#xfc;" horiz-adv-x="489" d="M463 60 Q429 23 396.5 6.5 Q364 -10 338 -10 Q324 -10 319 1 Q314 12 314 36 Q314 64 331 179 Q275 76 229.5 33 Q184 -10 136 -10 Q96 -10 75 12.5 Q54 35 54 70 Q54 107 84 240 Q104 327 104 346 Q104 373 67 373 Q55 373 47 371 L42 400 Q83 414 107 420 Q131 426 157 426 Q189 426 189 407 Q189 393 169 295 Q157 238 146.5 179.5 Q136 121 136 99 Q136 75 144 60 Q152 45 170 45 Q198 45 234 84 Q270 123 301.5 181.5 Q333 240 348 292 L366 411 L458 428 Q426 263 413 188.5 Q400 114 400 84 Q400 67 413 67 Q431 67 451 80 L463 60 Z M220 643 Q242 643 254.5 632 Q267 621 267 602 Q267 577 250 562.5 Q233 548 206 548 Q185 548 171.5 559 Q158 570 158 589 Q158 613 176 628 Q194 643 220 643 Z M394 643 Q416 643 428.5 632 Q441 621 441 602 Q441 577 424 562.5 Q407 548 380 548 Q359 548 345.5 559 Q332 570 332 589 Q332 613 350 628 Q368 643 394 643 Z " />
<glyph glyph-name="ugrave" unicode="&#xf9;" horiz-adv-x="489" d="M463 60 Q429 23 396.5 6.5 Q364 -10 338 -10 Q324 -10 319 1 Q314 12 314 36 Q314 64 331 179 Q275 76 229.5 33 Q184 -10 136 -10 Q96 -10 75 12.5 Q54 35 54 70 Q54 107 84 240 Q104 327 104 346 Q104 373 67 373 Q55 373 47 371 L42 400 Q83 414 107 420 Q131 426 157 426 Q189 426 189 407 Q189 393 169 295 Q157 238 146.5 179.5 Q136 121 136 99 Q136 75 144 60 Q152 45 170 45 Q198 45 234 84 Q270 123 301.5 181.5 Q333 240 348 292 L366 411 L458 428 Q426 263 413 188.5 Q400 114 400 84 Q400 67 413 67 Q431 67 451 80 L463 60 Z M232 653 Q241 653 245.5 650 Q250 647 254.5 640.5 Q259 634 261 632 L343 518 Q352 504 352 501 Q352 493 335 493 Q326 493 317 502 L178 615 Q172 621 172 626 Q172 633 193 643 Q214 653 232 653 Z " />
<glyph glyph-name="uhungarumlaut" unicode="&#x171;" horiz-adv-x="489" d="M463 60 Q429 23 396.5 6.5 Q364 -10 338 -10 Q324 -10 319 1 Q314 12 314 36 Q314 64 331 179 Q275 76 229.5 33 Q184 -10 136 -10 Q96 -10 75 12.5 Q54 35 54 70 Q54 107 84 240 Q104 327 104 346 Q104 373 67 373 Q55 373 47 371 L42 400 Q83 414 107 420 Q131 426 157 426 Q189 426 189 407 Q189 393 169 295 Q157 238 146.5 179.5 Q136 121 136 99 Q136 75 144 60 Q152 45 170 45 Q198 45 234 84 Q270 123 301.5 181.5 Q333 240 348 292 L366 411 L458 428 Q426 263 413 188.5 Q400 114 400 84 Q400 67 413 67 Q431 67 451 80 L463 60 Z M290 653 Q305 653 322 644 Q339 635 339 628 Q339 625 330 616 Q320 605 204 499 Q198 493 187 493 Q177 493 177 500 Q177 505 181 510 Q233 586 274 644 Q278 650 281 651.5 Q284 653 290 653 Z M402 653 Q416 653 433 644.5 Q450 636 450 629 Q450 625 442 616 Q425 596 316 499 Q309 493 299 493 Q294 493 291 495 Q288 497 288 500 Q288 502 292 510 Q336 570 358.5 603.5 Q381 637 386 644 Q391 650 394 651.5 Q397 653 402 653 Z " />
<glyph glyph-name="umacron" unicode="&#x16b;" horiz-adv-x="489" d="M463 60 Q429 23 396.5 6.5 Q364 -10 338 -10 Q324 -10 319 1 Q314 12 314 36 Q314 64 331 179 Q275 76 229.5 33 Q184 -10 136 -10 Q96 -10 75 12.5 Q54 35 54 70 Q54 107 84 240 Q104 327 104 346 Q104 373 67 373 Q55 373 47 371 L42 400 Q83 414 107 420 Q131 426 157 426 Q189 426 189 407 Q189 393 169 295 Q157 238 146.5 179.5 Q136 121 136 99 Q136 75 144 60 Q152 45 170 45 Q198 45 234 84 Q270 123 301.5 181.5 Q333 240 348 292 L366 411 L458 428 Q426 263 413 188.5 Q400 114 400 84 Q400 67 413 67 Q431 67 451 80 L463 60 Z M423 607 L417 567 L175 567 L181 607 L423 607 Z " />
<glyph glyph-name="uogonek" unicode="&#x173;" horiz-adv-x="489" d="M477 -99 Q450 -128 418.5 -143.5 Q387 -159 356 -159 Q330 -159 311.5 -142.5 Q293 -126 293 -97 Q293 -48 341 -10 L338 -10 Q324 -10 319 1 Q314 12 314 36 Q314 64 331 179 Q275 76 229.5 33 Q184 -10 136 -10 Q96 -10 75 12.5 Q54 35 54 70 Q54 107 84 240 Q104 327 104 346 Q104 373 67 373 Q55 373 47 371 L42 400 Q83 414 107 420 Q131 426 157 426 Q189 426 189 407 Q189 393 169 295 Q157 238 146.5 179.5 Q136 121 136 99 Q136 75 144 60 Q152 45 170 45 Q198 45 234 84 Q270 123 301.5 181.5 Q333 240 348 292 L366 411 L458 428 Q426 263 413 188.5 Q400 114 400 84 Q400 67 413 67 Q431 67 451 80 L463 60 Q436 31 409 14 L395 6 Q374 -8 362.5 -28 Q351 -48 351 -71 Q351 -91 362 -103.5 Q373 -116 396 -116 Q426 -116 465 -85 L477 -99 Z " />
<glyph glyph-name="uring" unicode="&#x16f;" horiz-adv-x="489" d="M463 60 Q429 23 396.5 6.5 Q364 -10 338 -10 Q324 -10 319 1 Q314 12 314 36 Q314 64 331 179 Q275 76 229.5 33 Q184 -10 136 -10 Q96 -10 75 12.5 Q54 35 54 70 Q54 107 84 240 Q104 327 104 346 Q104 373 67 373 Q55 373 47 371 L42 400 Q83 414 107 420 Q131 426 157 426 Q189 426 189 407 Q189 393 169 295 Q157 238 146.5 179.5 Q136 121 136 99 Q136 75 144 60 Q152 45 170 45 Q198 45 234 84 Q270 123 301.5 181.5 Q333 240 348 292 L366 411 L458 428 Q426 263 413 188.5 Q400 114 400 84 Q400 67 413 67 Q431 67 451 80 L463 60 Z M218 565 Q218 603 245.5 629.5 Q273 656 310 656 Q344 656 362.5 637 Q381 618 381 585 Q381 545 354.5 519 Q328 493 287 493 Q254 493 236 512.5 Q218 532 218 565 Z M263 569 Q263 551 270.5 540 Q278 529 292 529 Q310 529 322.5 544.5 Q335 560 335 581 Q335 599 327.5 609.5 Q320 620 305 620 Q287 620 275 605 Q263 590 263 569 Z " />
<glyph glyph-name="v" unicode="v" horiz-adv-x="411" d="M340 429 Q371 429 387.5 413 Q404 397 404 368 Q404 323 367 249.5 Q330 176 278 104 Q226 32 185 -5 L158 -5 L74 341 Q70 359 62.5 366.5 Q55 374 41 374 Q31 374 16 371 L11 400 Q34 410 60.5 418 Q87 426 104 426 Q123 426 135 413.5 Q147 401 153 368 L217 78 Q269 138 308.5 206 Q348 274 348 315 Q348 329 341 333.5 Q334 338 315 339 Q302 340 294.5 351.5 Q287 363 287 381 Q287 429 340 429 Z " />
<glyph glyph-name="w" unicode="w" horiz-adv-x="662" d="M591 429 Q622 429 638.5 413 Q655 397 655 368 Q655 323 618 249.5 Q581 176 529 104 Q477 32 436 -5 L409 -5 L356 228 Q320 161 271.5 94.5 Q223 28 185 -5 L158 -5 L74 341 Q70 359 62.5 366.5 Q55 374 41 374 Q31 374 16 371 L11 400 Q34 410 60.5 418 Q87 426 104 426 Q123 426 135 413.5 Q147 401 153 368 L217 79 Q259 127 295 184.5 Q331 242 343 284 L324 353 Q319 371 311.5 391.5 Q304 412 301 420 L393 420 L468 79 Q520 139 559.5 208 Q599 277 599 315 Q599 329 592 333.5 Q585 338 566 339 Q553 340 545.5 351.5 Q538 363 538 381 Q538 429 591 429 Z " />
<glyph glyph-name="wacute" unicode="&#x1e83;" horiz-adv-x="662" d="M591 429 Q622 429 638.5 413 Q655 397 655 368 Q655 323 618 249.5 Q581 176 529 104 Q477 32 436 -5 L409 -5 L356 228 Q320 161 271.5 94.5 Q223 28 185 -5 L158 -5 L74 341 Q70 359 62.5 366.5 Q55 374 41 374 Q31 374 16 371 L11 400 Q34 410 60.5 418 Q87 426 104 426 Q123 426 135 413.5 Q147 401 153 368 L217 79 Q259 127 295 184.5 Q331 242 343 284 L324 353 Q319 371 311.5 391.5 Q304 412 301 420 L393 420 L468 79 Q520 139 559.5 208 Q599 277 599 315 Q599 329 592 333.5 Q585 338 566 339 Q553 340 545.5 351.5 Q538 363 538 381 Q538 429 591 429 Z M523 627 Q523 623 513 615 L342 502 Q330 493 321 493 Q307 493 307 500 Q307 504 316 513 Q325 522 327 524 L434 632 Q446 645 452 649 Q458 653 469 653 Q486 653 504.5 643.5 Q523 634 523 627 Z " />
<glyph glyph-name="wcircumflex" unicode="&#x175;" horiz-adv-x="662" d="M591 429 Q622 429 638.5 413 Q655 397 655 368 Q655 323 618 249.5 Q581 176 529 104 Q477 32 436 -5 L409 -5 L356 228 Q320 161 271.5 94.5 Q223 28 185 -5 L158 -5 L74 341 Q70 359 62.5 366.5 Q55 374 41 374 Q31 374 16 371 L11 400 Q34 410 60.5 418 Q87 426 104 426 Q123 426 135 413.5 Q147 401 153 368 L217 79 Q259 127 295 184.5 Q331 242 343 284 L324 353 Q319 371 311.5 391.5 Q304 412 301 420 L393 420 L468 79 Q520 139 559.5 208 Q599 277 599 315 Q599 329 592 333.5 Q585 338 566 339 Q553 340 545.5 351.5 Q538 363 538 381 Q538 429 591 429 Z M235 493 Q224 493 224 500 Q224 504 251 525 Q258 531 276 546 Q294 561 310 576 L360 624 Q387 649 394 649 Q397 649 404.5 642 Q412 635 420 624 L456 576 Q475 551 505 521 Q521 505 521 501 Q521 498 518 495.5 Q515 493 508 493 Q498 493 481 505 L384 578 L264 505 Q242 493 235 493 Z " />
<glyph glyph-name="wdieresis" unicode="&#x1e85;" horiz-adv-x="662" d="M591 429 Q622 429 638.5 413 Q655 397 655 368 Q655 323 618 249.5 Q581 176 529 104 Q477 32 436 -5 L409 -5 L356 228 Q320 161 271.5 94.5 Q223 28 185 -5 L158 -5 L74 341 Q70 359 62.5 366.5 Q55 374 41 374 Q31 374 16 371 L11 400 Q34 410 60.5 418 Q87 426 104 426 Q123 426 135 413.5 Q147 401 153 368 L217 79 Q259 127 295 184.5 Q331 242 343 284 L324 353 Q319 371 311.5 391.5 Q304 412 301 420 L393 420 L468 79 Q520 139 559.5 208 Q599 277 599 315 Q599 329 592 333.5 Q585 338 566 339 Q553 340 545.5 351.5 Q538 363 538 381 Q538 429 591 429 Z M306 643 Q328 643 340.5 632 Q353 621 353 602 Q353 577 336 562.5 Q319 548 292 548 Q271 548 257.5 559 Q244 570 244 589 Q244 613 262 628 Q280 643 306 643 Z M480 643 Q502 643 514.5 632 Q527 621 527 602 Q527 577 510 562.5 Q493 548 466 548 Q445 548 431.5 559 Q418 570 418 589 Q418 613 436 628 Q454 643 480 643 Z " />
<glyph glyph-name="wgrave" unicode="&#x1e81;" horiz-adv-x="662" d="M591 429 Q622 429 638.5 413 Q655 397 655 368 Q655 323 618 249.5 Q581 176 529 104 Q477 32 436 -5 L409 -5 L356 228 Q320 161 271.5 94.5 Q223 28 185 -5 L158 -5 L74 341 Q70 359 62.5 366.5 Q55 374 41 374 Q31 374 16 371 L11 400 Q34 410 60.5 418 Q87 426 104 426 Q123 426 135 413.5 Q147 401 153 368 L217 79 Q259 127 295 184.5 Q331 242 343 284 L324 353 Q319 371 311.5 391.5 Q304 412 301 420 L393 420 L468 79 Q520 139 559.5 208 Q599 277 599 315 Q599 329 592 333.5 Q585 338 566 339 Q553 340 545.5 351.5 Q538 363 538 381 Q538 429 591 429 Z M318 653 Q327 653 331.5 650 Q336 647 340.5 640.5 Q345 634 347 632 L429 518 Q438 504 438 501 Q438 493 421 493 Q412 493 403 502 L264 615 Q258 621 258 626 Q258 633 279 643 Q300 653 318 653 Z " />
<glyph glyph-name="x" unicode="x" horiz-adv-x="471" d="M367 347 Q359 346 352.5 342.5 Q346 339 339 329 L272 229 L335 81 Q339 72 343.5 69 Q348 66 355 66 Q373 66 415 85 L427 65 Q393 31 361 10.5 Q329 -10 309 -10 Q297 -10 288.5 -4 Q280 2 273 17 L214 154 L145 49 Q106 -10 51 -10 Q9 -10 9 33 Q9 54 21 69 Q33 84 52 84 Q63 84 81 74 Q95 65 106 65 Q114 66 120.5 70 Q127 74 134 84 L201 184 L134 341 Q125 361 119.5 367.5 Q114 374 101 374 Q83 374 56 371 L51 400 Q79 411 111 418.5 Q143 426 164 426 Q180 426 189 414.5 Q198 403 213 368 L259 259 L328 363 Q367 422 422 422 Q464 422 464 379 Q464 358 452 343 Q440 328 421 328 Q410 328 392 338 Q378 347 367 347 Z " />
<glyph glyph-name="y" unicode="y" horiz-adv-x="411" d="M340 429 Q371 429 387.5 413 Q404 397 404 368 Q404 320 362.5 224.5 Q321 129 263 39 Q195 -67 129 -129 Q63 -191 14.5 -215 Q-34 -239 -58 -239 Q-80 -239 -94 -230.5 Q-108 -222 -108 -195 Q-108 -176 -95 -160.5 Q-82 -145 -63 -145 Q-51 -145 -29 -157 Q-20 -162 -10.5 -165.5 Q-1 -169 8 -169 Q18 -169 43.5 -152 Q69 -135 105 -100 Q141 -65 181 -15 L74 341 Q70 359 62.5 366.5 Q55 374 41 374 Q31 374 16 371 L11 400 Q34 410 60.5 418 Q87 426 104 426 Q122 426 133 414 Q144 402 153 368 L239 66 Q287 138 319 206.5 Q351 275 351 315 Q351 330 344.5 333.5 Q338 337 315 339 Q302 340 294.5 351.5 Q287 363 287 381 Q287 429 340 429 Z " />
<glyph glyph-name="yacute" unicode="&#xfd;" horiz-adv-x="411" d="M340 429 Q371 429 387.5 413 Q404 397 404 368 Q404 320 362.5 224.5 Q321 129 263 39 Q195 -67 129 -129 Q63 -191 14.5 -215 Q-34 -239 -58 -239 Q-80 -239 -94 -230.5 Q-108 -222 -108 -195 Q-108 -176 -95 -160.5 Q-82 -145 -63 -145 Q-51 -145 -29 -157 Q-20 -162 -10.5 -165.5 Q-1 -169 8 -169 Q18 -169 43.5 -152 Q69 -135 105 -100 Q141 -65 181 -15 L74 341 Q70 359 62.5 366.5 Q55 374 41 374 Q31 374 16 371 L11 400 Q34 410 60.5 418 Q87 426 104 426 Q122 426 133 414 Q144 402 153 368 L239 66 Q287 138 319 206.5 Q351 275 351 315 Q351 330 344.5 333.5 Q338 337 315 339 Q302 340 294.5 351.5 Q287 363 287 381 Q287 429 340 429 Z M398 627 Q398 623 388 615 L217 502 Q205 493 196 493 Q182 493 182 500 Q182 504 191 513 Q200 522 202 524 L309 632 Q321 645 327 649 Q333 653 344 653 Q361 653 379.5 643.5 Q398 634 398 627 Z " />
<glyph glyph-name="ycircumflex" unicode="&#x177;" horiz-adv-x="411" d="M340 429 Q371 429 387.5 413 Q404 397 404 368 Q404 320 362.5 224.5 Q321 129 263 39 Q195 -67 129 -129 Q63 -191 14.5 -215 Q-34 -239 -58 -239 Q-80 -239 -94 -230.5 Q-108 -222 -108 -195 Q-108 -176 -95 -160.5 Q-82 -145 -63 -145 Q-51 -145 -29 -157 Q-20 -162 -10.5 -165.5 Q-1 -169 8 -169 Q18 -169 43.5 -152 Q69 -135 105 -100 Q141 -65 181 -15 L74 341 Q70 359 62.5 366.5 Q55 374 41 374 Q31 374 16 371 L11 400 Q34 410 60.5 418 Q87 426 104 426 Q122 426 133 414 Q144 402 153 368 L239 66 Q287 138 319 206.5 Q351 275 351 315 Q351 330 344.5 333.5 Q338 337 315 339 Q302 340 294.5 351.5 Q287 363 287 381 Q287 429 340 429 Z M110 493 Q99 493 99 500 Q99 504 126 525 Q133 531 151 546 Q169 561 185 576 L235 624 Q262 649 269 649 Q272 649 279.5 642 Q287 635 295 624 L331 576 Q350 551 380 521 Q396 505 396 501 Q396 498 393 495.5 Q390 493 383 493 Q373 493 356 505 L259 578 L139 505 Q117 493 110 493 Z " />
<glyph glyph-name="ydieresis" unicode="&#xff;" horiz-adv-x="411" d="M340 429 Q371 429 387.5 413 Q404 397 404 368 Q404 320 362.5 224.5 Q321 129 263 39 Q195 -67 129 -129 Q63 -191 14.5 -215 Q-34 -239 -58 -239 Q-80 -239 -94 -230.5 Q-108 -222 -108 -195 Q-108 -176 -95 -160.5 Q-82 -145 -63 -145 Q-51 -145 -29 -157 Q-20 -162 -10.5 -165.5 Q-1 -169 8 -169 Q18 -169 43.5 -152 Q69 -135 105 -100 Q141 -65 181 -15 L74 341 Q70 359 62.5 366.5 Q55 374 41 374 Q31 374 16 371 L11 400 Q34 410 60.5 418 Q87 426 104 426 Q122 426 133 414 Q144 402 153 368 L239 66 Q287 138 319 206.5 Q351 275 351 315 Q351 330 344.5 333.5 Q338 337 315 339 Q302 340 294.5 351.5 Q287 363 287 381 Q287 429 340 429 Z M181 643 Q203 643 215.5 632 Q228 621 228 602 Q228 577 211 562.5 Q194 548 167 548 Q146 548 132.5 559 Q119 570 119 589 Q119 613 137 628 Q155 643 181 643 Z M355 643 Q377 643 389.5 632 Q402 621 402 602 Q402 577 385 562.5 Q368 548 341 548 Q320 548 306.5 559 Q293 570 293 589 Q293 613 311 628 Q329 643 355 643 Z " />
<glyph glyph-name="ygrave" unicode="&#x1ef3;" horiz-adv-x="411" d="M340 429 Q371 429 387.5 413 Q404 397 404 368 Q404 320 362.5 224.5 Q321 129 263 39 Q195 -67 129 -129 Q63 -191 14.5 -215 Q-34 -239 -58 -239 Q-80 -239 -94 -230.5 Q-108 -222 -108 -195 Q-108 -176 -95 -160.5 Q-82 -145 -63 -145 Q-51 -145 -29 -157 Q-20 -162 -10.5 -165.5 Q-1 -169 8 -169 Q18 -169 43.5 -152 Q69 -135 105 -100 Q141 -65 181 -15 L74 341 Q70 359 62.5 366.5 Q55 374 41 374 Q31 374 16 371 L11 400 Q34 410 60.5 418 Q87 426 104 426 Q122 426 133 414 Q144 402 153 368 L239 66 Q287 138 319 206.5 Q351 275 351 315 Q351 330 344.5 333.5 Q338 337 315 339 Q302 340 294.5 351.5 Q287 363 287 381 Q287 429 340 429 Z M193 653 Q202 653 206.5 650 Q211 647 215.5 640.5 Q220 634 222 632 L304 518 Q313 504 313 501 Q313 493 296 493 Q287 493 278 502 L139 615 Q133 621 133 626 Q133 633 154 643 Q175 653 193 653 Z " />
<glyph glyph-name="z" unicode="z" horiz-adv-x="376" d="M266 50 Q295 50 325 84 L341 70 Q321 34 293.5 12 Q266 -10 222 -10 Q203 -10 187.5 -5.5 Q172 -1 152 8 Q118 23 97 23 Q66 23 31 2 L21 -10 L17 -7 L17 -7 L-1 7 L277 337 Q259 335 252 335 Q231 335 214.5 340 Q198 345 180 355 Q161 364 151 367.5 Q141 371 128 371 Q93 371 58 337 L42 351 Q63 387 93.5 409 Q124 431 170 431 Q189 431 203.5 427 Q218 423 237 416 Q265 405 284 405 Q314 405 352 427 L354 429 L376 411 L108 93 Q129 103 150 103 Q170 103 184.5 95.5 Q199 88 217 74 Q232 62 242.5 56 Q253 50 266 50 Z " />
<glyph glyph-name="zacute" unicode="&#x17a;" horiz-adv-x="376" d="M266 50 Q295 50 325 84 L341 70 Q321 34 293.5 12 Q266 -10 222 -10 Q203 -10 187.5 -5.5 Q172 -1 152 8 Q118 23 97 23 Q66 23 31 2 L21 -10 L17 -7 L17 -7 L-1 7 L277 337 Q259 335 252 335 Q231 335 214.5 340 Q198 345 180 355 Q161 364 151 367.5 Q141 371 128 371 Q93 371 58 337 L42 351 Q63 387 93.5 409 Q124 431 170 431 Q189 431 203.5 427 Q218 423 237 416 Q265 405 284 405 Q314 405 352 427 L354 429 L376 411 L108 93 Q129 103 150 103 Q170 103 184.5 95.5 Q199 88 217 74 Q232 62 242.5 56 Q253 50 266 50 Z M370 627 Q370 623 360 615 L189 502 Q177 493 168 493 Q154 493 154 500 Q154 504 163 513 Q172 522 174 524 L281 632 Q293 645 299 649 Q305 653 316 653 Q333 653 351.5 643.5 Q370 634 370 627 Z " />
<glyph glyph-name="zcaron" unicode="&#x17e;" horiz-adv-x="376" d="M266 50 Q295 50 325 84 L341 70 Q321 34 293.5 12 Q266 -10 222 -10 Q203 -10 187.5 -5.5 Q172 -1 152 8 Q118 23 97 23 Q66 23 31 2 L21 -10 L17 -7 L17 -7 L-1 7 L277 337 Q259 335 252 335 Q231 335 214.5 340 Q198 345 180 355 Q161 364 151 367.5 Q141 371 128 371 Q93 371 58 337 L42 351 Q63 387 93.5 409 Q124 431 170 431 Q189 431 203.5 427 Q218 423 237 416 Q265 405 284 405 Q314 405 352 427 L354 429 L376 411 L108 93 Q129 103 150 103 Q170 103 184.5 95.5 Q199 88 217 74 Q232 62 242.5 56 Q253 50 266 50 Z M379 657 Q390 657 390 650 Q390 646 363 625 Q356 619 338 604 Q320 589 304 574 L254 526 Q227 501 220 501 Q217 501 209.5 508 Q202 515 194 526 L158 574 Q139 599 109 629 Q93 645 93 649 Q93 652 96 654.5 Q99 657 106 657 Q116 657 133 645 L230 572 L350 645 Q372 657 379 657 Z " />
<glyph glyph-name="zdotaccent" unicode="&#x17c;" horiz-adv-x="376" d="M266 50 Q295 50 325 84 L341 70 Q321 34 293.5 12 Q266 -10 222 -10 Q203 -10 187.5 -5.5 Q172 -1 152 8 Q118 23 97 23 Q66 23 31 2 L21 -10 L17 -7 L17 -7 L-1 7 L277 337 Q259 335 252 335 Q231 335 214.5 340 Q198 345 180 355 Q161 364 151 367.5 Q141 371 128 371 Q93 371 58 337 L42 351 Q63 387 93.5 409 Q124 431 170 431 Q189 431 203.5 427 Q218 423 237 416 Q265 405 284 405 Q314 405 352 427 L354 429 L376 411 L108 93 Q129 103 150 103 Q170 103 184.5 95.5 Q199 88 217 74 Q232 62 242.5 56 Q253 50 266 50 Z M239 643 Q261 643 273.5 632 Q286 621 286 602 Q286 577 269 562.5 Q252 548 225 548 Q204 548 190.5 559 Q177 570 177 589 Q177 613 195 628 Q213 643 239 643 Z " />
<glyph glyph-name="fi" unicode="&#xfb01;" horiz-adv-x="547" d="M384 701 Q448 701 483.5 687 Q519 673 519 639 Q519 614 502 599.5 Q485 585 458 585 Q437 585 423.5 596 Q410 607 410 626 Q410 650 399 661.5 Q388 673 359 673 Q231 673 209 454 L205 420 L310 420 L310 405 L281 389 L202 389 L170 102 Q131 -245 -37 -245 Q-78 -245 -107 -226.5 Q-136 -208 -136 -178 Q-136 -160 -124.5 -147 Q-113 -134 -91 -134 Q-76 -134 -65 -140.5 Q-54 -147 -54 -162 Q-54 -168 -57 -178 Q-60 -188 -60 -193 Q-60 -205 -51.5 -211.5 Q-43 -218 -29 -218 Q2 -218 22 -187 Q42 -156 55 -94 Q68 -32 80 72 L115 389 L29 389 L56 420 L119 420 L121 440 Q130 514 163.5 573 Q197 632 253 666.5 Q309 701 384 701 Z M452 67 Q468 67 488 80 L500 60 Q468 27 439.5 8.5 Q411 -10 389 -10 Q371 -10 361 1.5 Q351 13 351 36 Q351 53 357 93.5 Q363 134 365 147 L377 223 Q390 310 390 347 Q390 361 380.5 367 Q371 373 359 373 Q351 373 343 371 L338 400 Q401 426 452 426 Q467 426 475 421.5 Q483 417 483 404 Q483 396 471 334 Q452 235 451 230 Q435 139 435 94 Q435 67 452 67 Z " />
<glyph glyph-name="fl" unicode="&#xfb02;" horiz-adv-x="520" d="M433 67 Q440 67 451.5 70 Q463 73 474 80 L486 60 Q455 27 422.5 8.5 Q390 -10 366 -10 Q348 -10 337.5 1.5 Q327 13 327 36 Q327 63 360 279 L373 370 Q407 599 407 651 Q407 665 395 671 Q381 673 369 673 Q233 673 209 454 L205 420 L310 420 L310 405 L281 389 L202 389 L170 102 Q131 -245 -37 -245 Q-78 -245 -107 -226.5 Q-136 -208 -136 -178 Q-136 -160 -124.5 -147 Q-113 -134 -91 -134 Q-76 -134 -65 -140.5 Q-54 -147 -54 -162 Q-54 -168 -57 -178 Q-60 -188 -60 -193 Q-60 -205 -51.5 -211.5 Q-43 -218 -29 -218 Q2 -218 22 -187 Q42 -156 55 -94 Q68 -32 80 72 L115 389 L29 389 L56 420 L119 420 L121 440 Q133 546 192.5 618.5 Q252 691 348 700 Q411 730 467 730 Q483 730 491.5 725.5 Q500 721 500 708 Q500 693 487 621 L473 539 Q451 403 433.5 276 Q416 149 414 94 Q414 82 417.5 74.5 Q421 67 433 67 Z " />
<glyph glyph-name="ordfeminine" unicode="&#xaa;" horiz-adv-x="255" d="M28 400 Q28 453 69 479 Q110 505 201 505 L204 528 Q207 549 207 556 Q207 592 165 592 Q123 592 123 562 Q123 529 88 529 Q60 529 60 555 Q60 583 87.5 599 Q115 615 168 615 Q219 615 242.5 598 Q266 581 266 544 Q266 531 264 519 L244 380 Q243 373 247 373 L278 374 L274 350 L180 350 L187 387 Q158 342 101 342 Q28 342 28 400 Z M93 407 Q93 390 100.5 381.5 Q108 373 121 373 Q146 373 167.5 397.5 Q189 422 194 457 L198 482 Q143 482 118 463.5 Q93 445 93 407 Z " />
<glyph glyph-name="ordmasculine" unicode="&#xba;" horiz-adv-x="339" d="M77 458 Q77 531 118 574.5 Q159 618 226 618 Q278 618 307.5 588 Q337 558 337 504 Q337 431 297 387.5 Q257 344 187 344 Q132 344 104.5 375.5 Q77 407 77 458 Z M146 432 Q146 398 156.5 383 Q167 368 191 368 Q227 368 247 400 Q267 432 267 527 Q267 563 257 578.5 Q247 594 222 594 Q186 594 166 558.5 Q146 523 146 432 Z " />
<glyph glyph-name="uni0394" unicode="&#x394;" horiz-adv-x="583" d="M355 607 L515 0 L-4 0 L327 607 L355 607 Z M408 28 L290 484 L41 28 L408 28 Z " />
<glyph glyph-name="uni03A9" unicode="&#x3a9;" horiz-adv-x="650" d="M481 56 Q523 56 546 75 Q569 94 580 140 L613 140 Q601 102 589 57.5 Q577 13 574 -4 Q566 -1 537.5 -0.5 Q509 0 474 0 L356 0 L354 5 Q410 68 444 120 Q478 172 499.5 244 Q521 316 521 413 Q521 500 485.5 540 Q450 580 377 580 Q266 580 216.5 505 Q167 430 167 267 Q167 183 186 122 Q205 61 239 5 L237 0 L119 0 Q30 0 17 -4 Q19 7 19 48 Q19 88 17 140 L50 140 Q49 94 66.5 75 Q84 56 126 56 L180 56 Q143 105 122.5 138 Q102 171 88.5 212.5 Q75 254 75 305 Q75 389 112.5 458 Q150 527 219.5 567 Q289 607 381 607 Q455 607 507.5 578 Q560 549 587 499 Q614 449 614 385 Q614 314 593.5 262 Q573 210 539.5 171 Q506 132 441 70 L426 56 L481 56 Z " />
<glyph glyph-name="uni03BC" unicode="&#x3bc;" horiz-adv-x="493" d="M467 60 Q433 23 400.5 6.5 Q368 -10 342 -10 Q328 -10 323 1 Q318 12 318 36 Q318 64 335 179 Q279 76 233.5 33 Q188 -10 140 -10 Q132 -10 120 -8 L93 -195 L93 -200 Q93 -206 96 -210 Q99 -214 104 -214 L149 -213 L145 -239 L-56 -239 L-52 -213 L-6 -214 Q-1 -213 3.5 -207.5 Q8 -202 9 -195 L91 377 L92 384 Q92 396 82 396 L46 394 L50 420 L183 420 L140 129 L141 129 Q139 117 139 99 Q139 45 174 45 Q202 45 238 84 Q274 123 305.5 181.5 Q337 240 352 292 L370 411 L462 428 Q430 263 417 188.5 Q404 114 404 84 Q404 67 417 67 Q435 67 455 80 L467 60 Z " />
<glyph glyph-name="pi" unicode="&#x3c0;" horiz-adv-x="589" d="M608 458 Q585 407 581 372 L578 353 Q566 355 548 355 L472 355 L457 278 Q440 193 433 150 Q426 107 426 79 Q426 23 453 23 Q481 23 513 64 L529 50 Q507 19 484.5 6.5 Q462 -6 427 -6 Q378 -6 359 17 Q340 40 340 79 Q340 118 352 171 Q364 224 387 313 Q394 336 399 357 L368 358 Q300 362 257 363 Q219 214 194 144 Q139 -10 52 -10 Q33 -10 20.5 -0.5 Q8 9 8 30 Q8 53 21 68.5 Q34 84 53 84 Q64 84 78 78 Q80 77 87 75 Q94 73 100 73 Q120 73 135.5 97 Q151 121 160 153 L181 223 Q212 327 221 365 L203 365 Q160 365 129 352.5 Q98 340 73 309 L55 322 Q120 430 226 430 Q288 430 408 424 Q502 420 525 420 Q548 420 559.5 429 Q571 438 583 463 L608 458 Z " />
<glyph glyph-name="zero" unicode="0" horiz-adv-x="538" d="M323 607 Q417 607 471.5 547 Q526 487 526 373 Q526 284 497 196.5 Q468 109 403 49.5 Q338 -10 237 -10 Q142 -10 89 49.5 Q36 109 36 221 Q36 311 65 399.5 Q94 488 158.5 547.5 Q223 607 323 607 Z M131 298 Q121 221 121 180 Q121 91 151 55.5 Q181 20 241 20 Q318 20 364.5 82 Q411 144 433 298 Q442 367 442 415 Q442 506 411.5 543 Q381 580 320 580 Q245 580 199 516 Q153 452 131 298 Z " />
<glyph glyph-name="one" unicode="1" horiz-adv-x="388" d="M219 43 L219 38 Q219 23 235 23 L300 24 L297 0 L49 0 L52 24 L118 23 Q139 23 142 43 L205 497 L205 501 Q205 509 200 512.5 Q195 516 187 512 L108 479 L105 513 Q166 530 231 576 Q255 593 282 617 L299 617 L219 43 Z " />
<glyph glyph-name="two" unicode="2" horiz-adv-x="506" d="M283 66 Q339 66 369 87.5 Q399 109 413 165 L449 165 Q408 36 400 -3 Q391 0 347 0 L20 0 L24 45 L156 156 Q238 225 284.5 276.5 Q331 328 352.5 376.5 Q374 425 374 481 Q374 529 350.5 554.5 Q327 580 283 580 Q230 580 203.5 555 Q177 530 177 494 Q177 486 179.5 473.5 Q182 461 182 454 Q182 435 167.5 423.5 Q153 412 130 412 Q109 412 98 425 Q87 438 87 463 Q87 495 108 528 Q129 561 175.5 584 Q222 607 294 607 Q370 607 416.5 571.5 Q463 536 463 478 Q463 432 447.5 392.5 Q432 353 383 299.5 Q334 246 236 168 L106 66 L283 66 Z " />
<glyph glyph-name="three" unicode="3" horiz-adv-x="499" d="M234 318 Q458 312 458 185 Q458 127 426 83 Q394 39 336.5 14.5 Q279 -10 203 -10 Q149 -10 107.5 5.5 Q66 21 43.5 47 Q21 73 21 104 Q21 131 36 148 Q51 165 78 165 Q98 165 109 155.5 Q120 146 120 131 Q120 118 111 102 Q102 82 102 70 Q102 45 129.5 31 Q157 17 198 17 Q252 17 290.5 41 Q329 65 348.5 102.5 Q368 140 368 181 Q368 236 321 265.5 Q274 295 173 299 L177 327 Q228 334 273.5 358 Q319 382 347 420 Q375 458 375 505 Q375 539 350.5 559.5 Q326 580 285 580 Q241 580 209 561 Q177 542 177 512 Q177 506 180 495.5 Q183 485 183 478 Q183 455 166.5 443.5 Q150 432 129 432 Q107 432 96.5 443 Q86 454 86 473 Q86 509 115 540 Q144 571 193.5 589 Q243 607 301 607 Q375 607 419.5 578 Q464 549 464 501 Q464 454 431.5 415.5 Q399 377 346.5 352.5 Q294 328 234 320 L234 318 Z " />
<glyph glyph-name="four" unicode="4" horiz-adv-x="470" d="M366 224 L446 224 L436 155 L356 155 L341 43 L341 38 Q341 23 357 23 L403 24 L400 0 L172 0 L175 24 L242 23 Q260 23 263 43 L278 155 L9 155 L18 215 Q38 231 52 245 L85 276 L350 554 L370 576 L394 604 L419 604 L366 224 Z M325 488 L74 224 L288 224 L325 488 Z " />
<glyph glyph-name="five" unicode="5" horiz-adv-x="492" d="M162 531 L122 331 Q152 353 195 367.5 Q238 382 275 382 Q357 382 404.5 341.5 Q452 301 452 224 Q452 168 424 114 Q396 60 339.5 25 Q283 -10 203 -10 Q132 -10 78.5 22 Q25 54 25 112 Q25 143 40.5 160 Q56 177 84 177 Q101 177 112.5 167.5 Q124 158 124 141 Q124 127 114 111 Q105 93 105 82 Q105 49 135.5 33 Q166 17 208 17 Q261 17 295.5 51.5 Q330 86 345.5 133.5 Q361 181 361 220 Q361 276 329 308.5 Q297 341 241 341 Q202 341 166 326 Q130 311 108 288 L81 288 L139 597 L403 597 Q445 597 487 600 Q474 579 463 531 L162 531 Z " />
<glyph glyph-name="six" unicode="6" horiz-adv-x="487" d="M298 399 Q370 399 414 355 Q458 311 458 238 Q458 164 428 107.5 Q398 51 344 20 Q290 -11 219 -11 Q136 -11 92.5 40 Q49 91 49 189 Q49 313 85 408 Q121 503 187 555 Q253 607 339 607 Q375 607 405 594.5 Q435 582 453 561 Q471 540 471 516 Q471 492 454.5 474.5 Q438 457 410 457 Q392 457 381 465 Q370 473 370 488 Q370 499 377 511 Q384 525 384 536 Q384 555 367.5 567 Q351 579 324 579 Q257 579 210.5 504.5 Q164 430 148 317 Q172 355 209.5 377 Q247 399 298 399 Z M232 14 Q309 14 340.5 88 Q372 162 372 246 Q372 301 351 336.5 Q330 372 280 372 Q226 372 191.5 335.5 Q157 299 141.5 247.5 Q126 196 126 151 Q126 91 152 52.5 Q178 14 232 14 Z " />
<glyph glyph-name="seven" unicode="7" horiz-adv-x="428" d="M472 597 L470 555 Q223 317 205 0 L111 0 Q125 86 152 165 Q179 244 240.5 336.5 Q302 429 407 530 L200 530 Q156 530 134 516.5 Q112 503 103 472 L67 472 Q77 505 87.5 546 Q98 587 100 600 Q113 597 219 597 L472 597 Z " />
<glyph glyph-name="eight" unicode="8" horiz-adv-x="494" d="M329 327 Q391 289 424 255 Q457 221 457 173 Q457 119 425.5 77.5 Q394 36 336.5 13 Q279 -10 204 -10 Q124 -10 74.5 23 Q25 56 25 111 Q25 175 74 227 Q123 279 197 305 Q148 336 122.5 366.5 Q97 397 97 438 Q97 488 125 526.5 Q153 565 204 586 Q255 607 322 607 Q396 607 441.5 576 Q487 545 487 494 Q487 440 443 392 Q399 344 329 327 Z M325 580 Q267 580 230 550 Q193 520 193 470 Q193 430 221.5 402.5 Q250 375 307 340 Q367 366 396 406 Q425 446 425 496 Q425 534 397.5 557 Q370 580 325 580 Z M213 17 Q275 17 316.5 49 Q358 81 358 138 Q358 172 338 199.5 Q318 227 290.5 246.5 Q263 266 220 291 Q168 267 130 218 Q92 169 92 117 Q92 72 125 44.5 Q158 17 213 17 Z " />
<glyph glyph-name="nine" unicode="9" horiz-adv-x="487" d="M293 607 Q376 607 419.5 556 Q463 505 463 407 Q463 283 427 188 Q391 93 325 41 Q259 -11 173 -11 Q137 -11 107 1.5 Q77 14 59 35 Q41 56 41 80 Q41 104 57.5 121.5 Q74 139 102 139 Q120 139 131 131 Q142 123 142 108 Q142 97 135 85 Q128 71 128 60 Q128 41 144.5 29 Q161 17 188 17 Q255 17 301.5 91.5 Q348 166 364 279 Q340 241 302.5 219 Q265 197 214 197 Q142 197 98 241 Q54 285 54 358 Q54 432 84 488.5 Q114 545 168 576 Q222 607 293 607 Z M232 224 Q286 224 320.5 260.5 Q355 297 370.5 348.5 Q386 400 386 445 Q386 505 360 543.5 Q334 582 280 582 Q203 582 171.5 508 Q140 434 140 350 Q140 295 161 259.5 Q182 224 232 224 Z " />
<glyph glyph-name="uni00B9" unicode="&#xb9;" horiz-adv-x="192" d="M166 439 L165 434 Q165 421 176 421 L206 422 L203 404 L50 404 L53 422 L94 421 Q103 421 106 439 L129 604 L129 607 Q129 616 123 616 Q120 616 106 611 Q92 606 84 603 L83 629 Q107 635 127 648 Q147 661 173 683 L200 683 L166 439 Z " />
<glyph glyph-name="uni00B2" unicode="&#xb2;" horiz-adv-x="262" d="M199 454 Q227 454 240.5 459.5 Q254 465 259 480 L279 480 Q271 461 265 436 Q259 411 258 401 Q250 403 227 403 L56 403 L60 447 L124 493 Q167 524 187.5 546 Q208 568 214 585 Q220 602 220 626 Q220 660 188 660 Q169 660 161 652 Q153 644 153 634 Q153 629 154 621.5 Q155 614 154 609 Q152 597 141 590 Q130 583 115 583 Q98 583 90 591.5 Q82 600 82 614 Q82 640 113 659 Q144 678 193 678 Q238 678 266 662 Q294 646 294 616 Q294 594 285.5 578 Q277 562 249.5 541 Q222 520 165 488 L104 454 L199 454 Z " />
<glyph glyph-name="uni00B3" unicode="&#xb3;" horiz-adv-x="251" d="M188 678 Q230 678 257.5 664.5 Q285 651 285 626 Q285 595 254 575 Q223 555 177 550 L176 547 Q228 546 255.5 531 Q283 516 283 488 Q283 448 242 422.5 Q201 397 141 397 Q98 397 70.5 411 Q43 425 43 448 Q43 464 54.5 475 Q66 486 86 486 Q100 486 108 480 Q116 474 116 463 Q116 459 112.5 449 Q109 439 109 436 Q109 426 119 421 Q129 416 143 416 Q172 416 190 436 Q208 456 208 486 Q208 510 186.5 521 Q165 532 113 537 L115 553 Q156 553 183 577 Q210 601 210 630 Q210 643 201.5 651.5 Q193 660 178 660 Q162 660 153 652.5 Q144 645 144 635 L145 620 Q145 605 133.5 597.5 Q122 590 106 590 Q90 590 82 598 Q74 606 74 618 Q74 646 108.5 662 Q143 678 188 678 Z " />
<glyph glyph-name="fraction" unicode="&#x2044;" horiz-adv-x="124" d="M325 607 L357 586 L-130 -5 L-161 19 L325 607 Z " />
<glyph glyph-name="onehalf" unicode="&#xbd;" horiz-adv-x="615" d="M519 607 L551 586 L64 -5 L33 19 L519 607 Z M185 368 L184 363 Q184 350 195 350 L225 351 L222 333 L69 333 L72 351 L113 350 Q122 350 125 368 L148 533 L148 536 Q148 545 142 545 Q139 545 125 540 Q111 535 103 532 L102 558 Q126 564 146 577 Q166 590 192 612 L219 612 L185 368 Z M491 51 Q519 51 532.5 56.5 Q546 62 551 77 L571 77 Q563 58 557 33 Q551 8 550 -2 Q542 0 519 0 L348 0 L352 44 L416 90 Q459 121 479.5 143 Q500 165 506 182 Q512 199 512 223 Q512 257 480 257 Q461 257 453 249 Q445 241 445 231 Q445 226 446 218.5 Q447 211 446 206 Q444 194 433 187 Q422 180 407 180 Q390 180 382 188.5 Q374 197 374 211 Q374 237 405 256 Q436 275 485 275 Q530 275 558 259 Q586 243 586 213 Q586 191 577.5 175 Q569 159 541.5 138 Q514 117 457 85 L396 51 L491 51 Z " />
<glyph glyph-name="onequarter" unicode="&#xbc;" horiz-adv-x="559" d="M222 333 L69 333 L72 351 L113 350 Q122 350 125 368 L148 533 L148 536 Q148 545 142 545 Q139 545 125 540 Q111 535 103 532 L102 558 Q126 564 146 577 Q166 590 192 612 L219 612 L185 368 L184 363 Q184 350 195 350 L225 351 L222 333 Z M519 607 L551 586 L64 -5 L33 19 L519 607 Z M478 102 L514 102 L509 65 L473 65 L468 30 L468 28 Q468 21 476 21 L496 21 L493 0 L353 0 L356 21 L389 21 Q398 21 399 30 L404 65 L277 65 L282 98 L469 274 L502 274 L478 102 Z M319 102 L409 102 L423 198 L319 102 Z " />
<glyph glyph-name="threequarters" unicode="&#xbe;" horiz-adv-x="559" d="M529 607 L561 586 L74 -5 L43 19 L529 607 Z M155 326 Q112 326 84.5 340 Q57 354 57 377 Q57 393 68.5 404 Q80 415 100 415 Q114 415 122 409 Q130 403 130 392 Q130 388 126.5 378 Q123 368 123 365 Q123 355 133 350 Q143 345 157 345 Q186 345 204 365 Q222 385 222 415 Q222 439 200.5 450 Q179 461 127 466 L129 482 Q170 482 197 506 Q224 530 224 559 Q224 572 215.5 580.5 Q207 589 192 589 Q176 589 167 581.5 Q158 574 158 564 L159 549 Q159 534 147.5 526.5 Q136 519 120 519 Q104 519 96 527 Q88 535 88 547 Q88 575 122.5 591 Q157 607 202 607 Q244 607 271.5 593.5 Q299 580 299 555 Q299 524 268 504 Q237 484 191 479 L190 476 Q242 475 269.5 460 Q297 445 297 417 Q297 377 256 351.5 Q215 326 155 326 Z M478 102 L514 102 L509 65 L473 65 L468 30 L468 28 Q468 21 476 21 L496 21 L493 0 L353 0 L356 21 L389 21 Q398 21 399 30 L404 65 L277 65 L282 98 L469 274 L502 274 L478 102 Z M319 102 L409 102 L423 198 L319 102 Z " />
<glyph glyph-name="asterisk" unicode="&#x2a;" horiz-adv-x="327" d="M269 630 Q283 630 298 617 Q313 604 313 595 Q313 584 304 574 Q295 564 285 564 Q272 564 258 546 Q244 528 238 511 Q246 506 263 506 Q278 506 285 509.5 Q292 513 297 520 Q302 525 306 527.5 Q310 530 318 530 Q335 530 341.5 524 Q348 518 348 503 Q348 475 338.5 464.5 Q329 454 308 454 Q301 454 297.5 456.5 Q294 459 291 464 Q286 471 280 474.5 Q274 478 259 478 Q243 478 233 473 Q232 462 239.5 445 Q247 428 253 424 Q257 422 265.5 420 Q274 418 279 413 Q284 408 284 396 Q284 384 265 369 Q246 354 230 354 Q223 354 215 361.5 Q207 369 207 380 Q207 384 210.5 392.5 Q214 401 214 407 Q214 417 208.5 431.5 Q203 446 197 452 Q185 443 175.5 427 Q166 411 166 402 Q166 396 167 391.5 Q168 387 168 384 Q168 371 156.5 362.5 Q145 354 137 354 Q123 354 108 366 Q93 378 93 389 Q93 403 102 412 Q111 421 121 421 Q134 421 148.5 440 Q163 459 165 473 Q160 478 142 478 Q127 478 120 474.5 Q113 471 107 464 Q103 459 99 456.5 Q95 454 87 454 Q70 454 63.5 460 Q57 466 57 481 Q57 509 66.5 519.5 Q76 530 97 530 Q104 530 107.5 527.5 Q111 525 114 520 Q119 513 125 509.5 Q131 506 146 506 Q161 506 171 511 Q173 526 167 543 Q161 560 150 561 Q135 562 128 570.5 Q121 579 121 589 Q121 603 140 616.5 Q159 630 175 630 Q182 630 190.5 622.5 Q199 615 199 604 Q199 599 194.5 591 Q190 583 190 577 Q190 568 195.5 553 Q201 538 208 532 Q219 539 229 556 Q239 573 239 583 Q239 589 238 592.5 Q237 596 237 599 Q237 612 249 621 Q261 630 269 630 Z " />
<glyph glyph-name="backslash" unicode="&#x5c;" horiz-adv-x="242" d="M91 636 L215 7 L171 -5 L50 627 L91 636 Z " />
<glyph glyph-name="middot" unicode="&#xb7;" horiz-adv-x="244" d="M56 176 Q56 205 76.5 223.5 Q97 242 127 242 Q151 242 166 228.5 Q181 215 181 192 Q181 163 160.5 145 Q140 127 111 127 Q86 127 71 140.5 Q56 154 56 176 Z " />
<glyph glyph-name="bullet" unicode="&#x2022;" horiz-adv-x="452" d="M104 232 Q104 269 123.5 299 Q143 329 176 346 Q209 363 247 363 Q295 363 325 334.5 Q355 306 355 261 Q355 224 335.5 194.5 Q316 165 283.5 148 Q251 131 214 131 Q164 131 134 159 Q104 187 104 232 Z " />
<glyph glyph-name="colon" unicode="&#x3a;" horiz-adv-x="244" d="M34 39 Q34 68 54.5 86.5 Q75 105 105 105 Q129 105 144 91.5 Q159 78 159 55 Q159 26 138.5 8 Q118 -10 89 -10 Q64 -10 49 3.5 Q34 17 34 39 Z M79 337 Q79 366 99.5 384.5 Q120 403 150 403 Q174 403 189 389.5 Q204 376 204 353 Q204 324 183.5 306 Q163 288 134 288 Q109 288 94 301.5 Q79 315 79 337 Z " />
<glyph glyph-name="comma" unicode="&#x2c;" horiz-adv-x="243" d="M98 92 Q127 92 142 75 Q157 58 157 27 Q157 -28 116 -77.5 Q75 -127 24 -160 L7 -148 Q37 -121 63 -86 Q89 -51 89 -28 Q89 -4 60 -4 Q45 -4 38.5 6 Q32 16 32 30 Q32 55 52.5 73.5 Q73 92 98 92 Z " />
<glyph glyph-name="ellipsis" unicode="&#x2026;" horiz-adv-x="684" d="M37 39 Q37 68 57.5 86.5 Q78 105 108 105 Q132 105 147 91.5 Q162 78 162 55 Q162 26 141.5 8 Q121 -10 92 -10 Q67 -10 52 3.5 Q37 17 37 39 Z M257 39 Q257 68 277.5 86.5 Q298 105 328 105 Q352 105 367 91.5 Q382 78 382 55 Q382 26 361.5 8 Q341 -10 312 -10 Q287 -10 272 3.5 Q257 17 257 39 Z M477 39 Q477 68 497.5 86.5 Q518 105 548 105 Q572 105 587 91.5 Q602 78 602 55 Q602 26 581.5 8 Q561 -10 532 -10 Q507 -10 492 3.5 Q477 17 477 39 Z " />
<glyph glyph-name="exclam" unicode="&#x21;" horiz-adv-x="263" d="M200 637 Q222 637 233.5 626.5 Q245 616 245 597 Q245 584 240.5 563.5 Q236 543 230 520 L205 428 Q169 292 160 217 Q159 201 147 201 Q136 201 136 210 Q137 224 140.5 268 Q144 312 145 336 L144 428 L143 520 Q142 558 145 588 Q148 611 162.5 624 Q177 637 200 637 Z M63 42 Q63 68 85 86.5 Q107 105 137 105 Q161 105 176.5 90 Q192 75 192 53 Q192 28 169.5 9 Q147 -10 120 -10 Q97 -10 80 5 Q63 20 63 42 Z " />
<glyph glyph-name="exclamdown" unicode="&#xa1;" horiz-adv-x="262" d="M142 445 Q167 445 183.5 430 Q200 415 200 394 Q200 368 179 349 Q158 330 129 330 Q104 330 87.5 344.5 Q71 359 71 381 Q71 406 93 425.5 Q115 445 142 445 Z M117 234 Q123 234 124.5 231 Q126 228 126 218 L123 180 Q122 166 117.5 99.5 Q113 33 114 -34 Q117 -97 117 -139 Q117 -191 106.5 -216.5 Q96 -242 58 -242 Q16 -242 14 -203 Q14 -187 24.5 -139.5 Q35 -92 53 -34 Q70 30 83.5 102.5 Q97 175 103 218 Q104 234 117 234 Z " />
<glyph glyph-name="numbersign" unicode="&#x23;" horiz-adv-x="489" d="M491 639 L407 445 L504 445 L489 405 L390 405 L317 234 L415 234 L397 194 L300 194 L212 -9 L170 -9 L258 194 L151 194 L63 -9 L22 -9 L109 194 L14 194 L31 234 L126 234 L200 405 L104 405 L119 445 L216 445 L301 639 L342 639 L257 445 L365 445 L449 639 L491 639 Z M349 405 L242 405 L168 234 L276 234 L349 405 Z " />
<glyph glyph-name="period" unicode="&#x2e;" horiz-adv-x="240" d="M34 39 Q34 68 54.5 86.5 Q75 105 105 105 Q129 105 144 91.5 Q159 78 159 55 Q159 26 138.5 8 Q118 -10 89 -10 Q64 -10 49 3.5 Q34 17 34 39 Z " />
<glyph glyph-name="question" unicode="&#x3f;" horiz-adv-x="392" d="M214 219 Q195 224 173.5 239.5 Q152 255 137 277 Q122 299 122 321 Q122 347 144.5 373 Q167 399 215 442 Q266 488 291.5 518.5 Q317 549 317 580 Q317 607 295.5 625 Q274 643 234 643 Q200 643 174.5 631 Q149 619 149 597 Q149 591 151.5 583 Q154 575 154 570 Q154 553 142 545.5 Q130 538 113 538 Q92 538 82 550 Q72 562 72 579 Q72 622 127 646 Q182 670 253 670 Q323 670 364.5 644 Q406 618 406 572 Q406 530 377.5 498.5 Q349 467 294 427 Q244 391 218.5 363.5 Q193 336 193 301 Q193 259 229 238 L214 219 Z M146 -10 Q123 -10 105.5 3 Q88 16 88 39 Q88 65 109.5 85 Q131 105 161 105 Q185 105 202 92 Q219 79 219 55 Q219 26 197 8 Q175 -10 146 -10 Z " />
<glyph glyph-name="questiondown" unicode="&#xbf;" horiz-adv-x="389" d="M246 445 Q269 445 286.5 432 Q304 419 304 396 Q304 370 282.5 350 Q261 330 231 330 Q207 330 190 343 Q173 356 173 380 Q173 409 195 427 Q217 445 246 445 Z M178 216 Q197 211 218.5 195.5 Q240 180 255 158 Q270 136 270 114 Q270 88 247.5 62 Q225 36 177 -7 Q126 -53 100.5 -83.5 Q75 -114 75 -145 Q75 -172 96.5 -190 Q118 -208 158 -208 Q192 -208 217.5 -196 Q243 -184 243 -162 Q243 -156 240.5 -148 Q238 -140 238 -135 Q238 -118 250 -110.5 Q262 -103 279 -103 Q300 -103 310 -115 Q320 -127 320 -144 Q320 -187 265 -211 Q210 -235 139 -235 Q69 -235 27.5 -209 Q-14 -183 -14 -137 Q-14 -95 14.5 -63.5 Q43 -32 98 8 Q148 44 173.5 71.5 Q199 99 199 134 Q199 176 163 197 L178 216 Z " />
<glyph glyph-name="quotedbl" unicode="&#x22;" horiz-adv-x="247" d="M89 600 Q89 618 101 629 Q113 640 129 640 Q156 640 156 607 Q156 594 135 516 L113 423 Q110 409 96 409 Q90 409 86.5 414 Q83 419 84 426 L85 449 L87 519 Q87 546 89 600 Z M202 600 Q202 618 214 629 Q226 640 242 640 Q269 640 269 607 Q269 594 248 516 L226 423 Q223 409 209 409 Q203 409 199.5 414 Q196 419 197 426 L198 449 L200 519 Q200 546 202 600 Z " />
<glyph glyph-name="quotesingle" unicode="&#x27;" horiz-adv-x="132" d="M87 600 Q87 618 99 629 Q111 640 127 640 Q154 640 154 607 Q154 594 133 516 L111 423 Q108 409 94 409 Q88 409 84.5 414 Q81 419 82 426 L83 449 L85 519 Q85 546 87 600 Z " />
<glyph glyph-name="semicolon" unicode="&#x3b;" horiz-adv-x="243" d="M110 92 Q139 92 154 75 Q169 58 169 27 Q169 -28 128 -77.5 Q87 -127 36 -160 L19 -148 Q49 -121 75 -86 Q101 -51 101 -28 Q101 -4 72 -4 Q57 -4 50.5 6 Q44 16 44 30 Q44 55 64.5 73.5 Q85 92 110 92 Z M66 337 Q66 366 86.5 384.5 Q107 403 137 403 Q161 403 176 389.5 Q191 376 191 353 Q191 324 170.5 306 Q150 288 121 288 Q96 288 81 301.5 Q66 315 66 337 Z " />
<glyph glyph-name="slash" unicode="&#x2f;" horiz-adv-x="241" d="M265 636 L304 627 L4 -5 L-34 7 L265 636 Z " />
<glyph glyph-name="underscore" unicode="&#x5f;" horiz-adv-x="503" d="M453 -143 L447 -183 L-56 -183 L-50 -143 L453 -143 Z " />
<glyph glyph-name="braceleft" unicode="&#x7b;" horiz-adv-x="273" d="M291 645 L263 645 Q227 645 219 589 L186 358 Q179 313 157 295 Q135 277 79 267 Q126 256 144.5 242.5 Q163 229 163 199 Q163 177 144 59 Q126 -63 126 -78 Q126 -116 156 -116 L184 -116 L179 -146 L144 -146 Q95 -146 76 -133 Q57 -120 57 -86 Q57 -68 75 50 Q95 178 95 205 Q95 230 83 239 Q71 248 35 257 L38 277 Q77 283 95 301 Q113 319 118 358 L150 582 Q157 636 180.5 655.5 Q204 675 260 675 L295 675 L291 645 Z " />
<glyph glyph-name="braceright" unicode="&#x7d;" horiz-adv-x="283" d="M7 -116 L35 -116 Q71 -116 79 -60 L112 171 Q119 216 141 234 Q163 252 219 262 Q172 273 153.5 286.5 Q135 300 135 330 Q135 352 154 470 Q172 592 172 607 Q172 645 142 645 L114 645 L119 675 L154 675 Q203 675 222 662 Q241 649 241 615 Q241 597 223 479 Q203 351 203 324 Q203 299 215 290 Q227 281 263 272 L260 252 Q221 246 203 228 Q185 210 180 171 L148 -53 Q141 -107 117.5 -126.5 Q94 -146 38 -146 L3 -146 L7 -116 Z " />
<glyph glyph-name="bracketleft" unicode="&#x5b;" horiz-adv-x="250" d="M283 675 L279 648 L178 648 L70 -120 L171 -120 L167 -147 L-7 -147 L109 675 L283 675 Z " />
<glyph glyph-name="bracketright" unicode="&#x5d;" horiz-adv-x="250" d="M-18 -147 L-14 -120 L87 -120 L195 648 L94 648 L98 675 L272 675 L156 -147 L-18 -147 Z " />
<glyph glyph-name="parenleft" unicode="&#x28;" horiz-adv-x="248" d="M15 169 Q15 317 83 450.5 Q151 584 274 711 L318 711 Q260 647 211.5 548 Q163 449 135.5 342.5 Q108 236 108 149 Q108 47 128 -62 Q148 -171 186 -231 L142 -231 Q82 -144 48.5 -41 Q15 62 15 169 Z " />
<glyph glyph-name="parenright" unicode="&#x29;" horiz-adv-x="248" d="M240 311 Q240 163 172 29.5 Q104 -104 -19 -231 L-63 -231 Q-5 -167 43.5 -68 Q92 31 119.5 137.5 Q147 244 147 331 Q147 433 127 542 Q107 651 69 711 L113 711 Q173 624 206.5 521 Q240 418 240 311 Z " />
<glyph glyph-name="emdash" unicode="&#x2014;" horiz-adv-x="810" d="M812 230 L807 191 L-3 191 L2 230 L812 230 Z " />
<glyph glyph-name="endash" unicode="&#x2013;" horiz-adv-x="484" d="M469 230 L464 191 L14 191 L19 230 L469 230 Z " />
<glyph glyph-name="hyphen" unicode="&#x2d;" horiz-adv-x="253" d="M238 244 L230 189 L18 189 L26 244 L238 244 Z " />
<glyph glyph-name="uni00AD" unicode="&#xad;" horiz-adv-x="253" d="M238 244 L230 189 L18 189 L26 244 L238 244 Z " />
<glyph glyph-name="guillemotleft" unicode="&#xab;" horiz-adv-x="441" d="M392 358 L274 187 L344 16 L307 16 L188 187 L355 358 L392 358 Z M224 358 L106 187 L176 16 L139 16 L20 187 L187 358 L224 358 Z " />
<glyph glyph-name="guillemotright" unicode="&#xbb;" horiz-adv-x="441" d="M27 16 L145 187 L75 358 L112 358 L231 187 L64 16 L27 16 Z M195 16 L313 187 L243 358 L280 358 L399 187 L232 16 L195 16 Z " />
<glyph glyph-name="guilsinglleft" unicode="&#x2039;" horiz-adv-x="219" d="M225 358 L107 187 L177 16 L140 16 L21 187 L188 358 L225 358 Z " />
<glyph glyph-name="guilsinglright" unicode="&#x203a;" horiz-adv-x="218" d="M-14 16 L104 187 L34 358 L71 358 L190 187 L23 16 L-14 16 Z " />
<glyph glyph-name="quotedblbase" unicode="&#x201e;" horiz-adv-x="445" d="M138 92 Q167 92 182 75 Q197 58 197 26 Q197 -29 156 -78 Q115 -127 64 -160 L47 -148 Q77 -121 103 -86 Q129 -51 129 -28 Q129 -4 99 -4 Q85 -4 78.5 6 Q72 16 72 30 Q72 55 92.5 73.5 Q113 92 138 92 Z M318 92 Q347 92 362 75 Q377 58 377 26 Q377 -29 336 -78 Q295 -127 244 -160 L227 -148 Q257 -121 283 -86 Q309 -51 309 -28 Q309 -4 279 -4 Q265 -4 258.5 6 Q252 16 252 30 Q252 55 272.5 73.5 Q293 92 318 92 Z " />
<glyph glyph-name="quotedblleft" unicode="&#x201c;" horiz-adv-x="371" d="M131 394 Q102 394 87 411 Q72 428 72 460 Q72 515 113 564 Q154 613 205 646 L222 634 Q192 607 166 572 Q140 537 140 514 Q140 490 170 490 Q184 490 190.5 480 Q197 470 197 456 Q197 431 176.5 412.5 Q156 394 131 394 Z M295 394 Q266 394 251 411 Q236 428 236 460 Q236 515 277 564 Q318 613 369 646 L386 634 Q356 607 330 572 Q304 537 304 514 Q304 490 334 490 Q348 490 354.5 480 Q361 470 361 456 Q361 431 340.5 412.5 Q320 394 295 394 Z " />
<glyph glyph-name="quotedblright" unicode="&#x201d;" horiz-adv-x="382" d="M181 631 Q210 631 225 614 Q240 597 240 565 Q240 510 199 461 Q158 412 107 379 L90 391 Q120 418 146 453 Q172 488 172 511 Q172 535 142 535 Q128 535 121.5 545 Q115 555 115 569 Q115 594 135.5 612.5 Q156 631 181 631 Z M345 631 Q374 631 389 614 Q404 597 404 565 Q404 510 363 461 Q322 412 271 379 L254 391 Q284 418 310 453 Q336 488 336 511 Q336 535 306 535 Q292 535 285.5 545 Q279 555 279 569 Q279 594 299.5 612.5 Q320 631 345 631 Z " />
<glyph glyph-name="quoteleft" unicode="&#x2018;" horiz-adv-x="218" d="M122 393 Q93 393 78 410 Q63 427 63 459 Q63 514 104 563 Q145 612 196 645 L213 633 Q183 606 157 571 Q131 536 131 513 Q131 489 161 489 Q175 489 181.5 479 Q188 469 188 455 Q188 430 167.5 411.5 Q147 393 122 393 Z " />
<glyph glyph-name="quoteright" unicode="&#x2019;" horiz-adv-x="214" d="M178 631 Q207 631 222 614 Q237 597 237 565 Q237 510 196 461 Q155 412 104 379 L87 391 Q117 418 143 453 Q169 488 169 511 Q169 535 139 535 Q125 535 118.5 545 Q112 555 112 569 Q112 594 132.5 612.5 Q153 631 178 631 Z " />
<glyph glyph-name="quotesinglbase" unicode="&#x201a;" horiz-adv-x="256" d="M138 92 Q167 92 182 75 Q197 58 197 26 Q197 -29 156 -78 Q115 -127 64 -160 L47 -148 Q77 -121 103 -86 Q129 -51 129 -28 Q129 -4 99 -4 Q85 -4 78.5 6 Q72 16 72 30 Q72 55 92.5 73.5 Q113 92 138 92 Z " />
<glyph glyph-name="uni00A0" unicode="&#xa0;" horiz-adv-x="220" d="" />
<glyph glyph-name="cent" unicode="&#xa2;" horiz-adv-x="382" d="M201 137 Q235 137 267.5 161.5 Q300 186 317 223 L336 209 Q321 173 290 147.5 Q259 122 223 117 L194 -95 L156 -95 L185 116 Q57 123 57 258 Q57 319 79.5 365.5 Q102 412 142.5 438.5 Q183 465 235 467 L260 647 L297 647 L271 464 Q306 457 327 437 Q348 417 348 392 Q348 372 335 358.5 Q322 345 306 345 Q275 345 275 365 Q275 376 282 385 Q290 395 290 409 Q290 426 274 435.5 Q258 445 235 445 Q131 445 131 244 Q131 191 149 164 Q167 137 201 137 Z " />
<glyph glyph-name="currency" unicode="&#xa4;" horiz-adv-x="427" d="M364 373 Q389 332 389 284 Q389 248 374.5 214.5 Q360 181 334 155 L372 107 L345 83 L306 131 Q254 95 197 95 Q140 95 100 133 L45 84 L25 108 L80 157 Q54 195 54 245 Q54 281 68.5 314.5 Q83 348 108 374 L70 421 L96 445 L136 398 Q187 436 245 436 Q305 436 345 396 L397 444 L417 420 L364 373 Z M202 127 Q241 127 276.5 148.5 Q312 170 333.5 206 Q355 242 355 283 Q355 334 322.5 369 Q290 404 241 404 Q202 404 166.5 382.5 Q131 361 109.5 325.5 Q88 290 88 249 Q88 198 120.5 162.5 Q153 127 202 127 Z " />
<glyph glyph-name="dollar" unicode="&#x24;" horiz-adv-x="452" d="M287 318 Q348 300 348 242 Q348 189 314 156.5 Q280 124 223 120 L194 -95 L156 -95 L186 120 Q161 123 132 133 Q109 140 98 140 Q84 140 73 134 L88 241 L109 242 Q111 197 138.5 169 Q166 141 211 141 Q245 141 264 160.5 Q283 180 283 211 Q283 230 273 242 Q263 254 238 261 L164 283 Q138 291 122 312.5 Q106 334 106 362 Q106 409 142 439 Q178 469 236 471 L260 647 L298 647 L273 467 L295 461 Q323 453 336 453 Q348 453 361 462 L343 369 L323 369 Q324 372 324 379 Q324 408 301.5 428.5 Q279 449 241 449 Q169 449 169 387 Q169 352 212 340 L287 318 Z " />
<glyph glyph-name="Euro" unicode="&#x20ac;" horiz-adv-x="453" d="M339 607 Q363 607 382.5 601 Q402 595 426 583 Q447 573 461.5 568.5 Q476 564 491 564 Q484 533 478 493 Q472 453 472 433 L451 433 Q449 495 415 538.5 Q381 582 331 582 Q276 582 231 521.5 Q186 461 162 372 L395 372 L379 331 L152 331 Q144 293 143 258 L379 258 L363 217 L142 217 Q142 124 172 70.5 Q202 17 256 17 Q308 17 353 59.5 Q398 102 417 167 L441 167 L436 142 Q421 77 420 45 L420 35 L414 35 Q398 35 381.5 29.5 Q365 24 341 14 Q311 1 290.5 -5 Q270 -11 248 -10 Q162 -10 112.5 50.5 Q63 111 62 217 L2 217 L18 258 L63 258 Q64 287 73 331 L18 331 L34 372 L83 372 Q112 473 176 540 Q240 607 339 607 Z " />
<glyph glyph-name="florin" unicode="&#x192;" horiz-adv-x="405" d="M352 607 Q397 607 428.5 587.5 Q460 568 460 534 Q460 514 448.5 499.5 Q437 485 413 485 Q398 485 387.5 491.5 Q377 498 377 513 Q377 521 381.5 531.5 Q386 542 386 549 Q386 562 377 571 Q368 580 351 580 Q316 580 291.5 538.5 Q267 497 246 395 L240 364 L339 364 L339 349 L310 333 L233 333 L182 87 Q160 -12 106.5 -100 Q53 -188 -35 -188 Q-75 -188 -104 -169.5 Q-133 -151 -133 -121 Q-133 -103 -121.5 -90 Q-110 -77 -88 -77 Q-73 -77 -62 -83.5 Q-51 -90 -51 -105 Q-51 -111 -54 -121 Q-57 -131 -57 -136 Q-57 -147 -49 -154 Q-41 -161 -25 -161 Q5 -161 25.5 -129 Q46 -97 60 -46.5 Q74 4 94 99 Q102 144 112 184 L145 333 L48 333 L75 364 L152 364 L168 434 Q177 475 201 514.5 Q225 554 263 580.5 Q301 607 352 607 Z " />
<glyph glyph-name="sterling" unicode="&#xa3;" horiz-adv-x="491" d="M278 73 Q329 73 356.5 81.5 Q384 90 397.5 110 Q411 130 417 168 L444 168 L411 -3 Q397 -3 386 -2 L334 0 L87 0 Q58 0 -2 -3 L-3 1 Q39 26 67.5 67.5 Q96 109 103 156 L124 306 L47 306 L50 329 L128 329 L139 410 Q153 513 200 560 Q247 607 338 607 Q386 607 417.5 584.5 Q449 562 449 528 Q449 508 434 494 Q419 480 401 480 Q387 480 376 489.5 Q365 499 365 511 Q365 520 371 532 Q377 544 377 552 Q377 584 329 584 Q299 584 280.5 572.5 Q262 561 250 539 Q239 518 235.5 491 Q232 464 230 420 Q228 377 225 356 L222 329 L338 329 L335 306 L219 306 L209 226 Q204 188 171 139.5 Q138 91 108 73 L278 73 Z " />
<glyph glyph-name="yen" unicode="&#xa5;" horiz-adv-x="491" d="M555 597 L551 567 L521 569 Q507 569 492 548 L351 341 L450 341 L446 312 L331 312 L315 288 L307 231 L435 231 L431 202 L303 202 L281 48 L281 42 Q281 27 296 27 L344 29 L340 0 L116 0 L120 29 L169 27 Q186 27 189 49 L210 202 L83 202 L87 231 L215 231 L219 263 L197 312 L98 312 L102 341 L184 341 L92 550 Q87 561 83 565 Q79 569 73 569 L45 567 L49 597 L265 597 L261 567 L208 569 Q197 569 197 558 Q197 554 200 545 L299 319 L456 549 Q460 555 460 561 Q460 569 453 569 L402 567 L406 597 L555 597 Z " />
<glyph glyph-name="uni2219" unicode="&#x2219;" horiz-adv-x="224" d="M46 176 Q46 205 66.5 223.5 Q87 242 117 242 Q141 242 156 228.5 Q171 215 171 192 Q171 163 150.5 145 Q130 127 101 127 Q76 127 61 140.5 Q46 154 46 176 Z " />
<glyph glyph-name="uni2215" unicode="&#x2215;" horiz-adv-x="124" d="M325 607 L357 586 L-130 -5 L-161 19 L325 607 Z " />
<glyph glyph-name="plus" unicode="&#x2b;" horiz-adv-x="447" d="M288 488 L262 303 L440 303 L434 259 L256 259 L230 73 L179 73 L205 259 L27 259 L33 303 L211 303 L237 488 L288 488 Z " />
<glyph glyph-name="minus" unicode="&#x2212;" horiz-adv-x="466" d="M460 301 L454 260 L26 260 L32 301 L460 301 Z " />
<glyph glyph-name="multiply" unicode="&#xd7;" horiz-adv-x="445" d="M385 435 L410 405 L260 269 L372 131 L340 102 L227 239 L77 103 L51 132 L202 269 L91 404 L124 434 L234 298 L385 435 Z " />
<glyph glyph-name="divide" unicode="&#xf7;" horiz-adv-x="445" d="M259 484 Q281 484 294.5 473 Q308 462 308 442 Q308 418 290.5 403.5 Q273 389 246 389 Q224 389 211.5 400 Q199 411 199 430 Q199 455 216 469.5 Q233 484 259 484 Z M438 290 L432 249 L23 249 L29 290 L438 290 Z M211 145 Q233 145 246.5 134 Q260 123 260 103 Q260 79 242.5 64.5 Q225 50 198 50 Q177 50 164 61 Q151 72 151 91 Q151 115 168.5 130 Q186 145 211 145 Z " />
<glyph glyph-name="equal" unicode="&#x3d;" horiz-adv-x="444" d="M428 345 L422 302 L46 302 L52 345 L428 345 Z M400 146 L394 103 L18 103 L24 146 L400 146 Z " />
<glyph glyph-name="notequal" unicode="&#x2260;" horiz-adv-x="447" d="M422 302 L277 302 L203 146 L400 146 L394 103 L183 103 L132 -5 L93 7 L139 103 L18 103 L24 146 L159 146 L234 302 L46 302 L52 345 L254 345 L306 454 L344 445 L297 345 L428 345 L422 302 Z " />
<glyph glyph-name="greater" unicode="&#x3e;" horiz-adv-x="446" d="M84 446 L396 233 L393 210 L21 -5 L28 45 L297 200 L342 220 L303 242 L77 396 L84 446 Z " />
<glyph glyph-name="less" unicode="&#x3c;" horiz-adv-x="446" d="M376 -10 L64 203 L67 226 L439 441 L432 391 L163 236 L118 216 L157 194 L383 40 L376 -10 Z " />
<glyph glyph-name="greaterequal" unicode="&#x2265;" horiz-adv-x="447" d="M89 478 L409 311 L405 287 L39 119 L45 166 L284 272 L356 298 L292 325 L83 432 L89 478 Z M371 41 L365 0 L22 0 L28 41 L371 41 Z " />
<glyph glyph-name="lessequal" unicode="&#x2264;" horiz-adv-x="460" d="M68 311 L444 477 L436 421 L190 315 L131 298 L185 282 L401 176 L393 120 L65 286 L68 311 Z M384 51 L376 0 L24 0 L32 51 L384 51 Z " />
<glyph glyph-name="plusminus" unicode="&#xb1;" horiz-adv-x="446" d="M286 506 L259 315 L441 315 L436 274 L254 274 L226 80 L180 80 L208 274 L28 274 L33 315 L213 315 L240 506 L286 506 Z M403 41 L397 0 L-11 0 L-5 41 L403 41 Z " />
<glyph glyph-name="approxequal" unicode="&#x2248;" horiz-adv-x="444" d="M156 380 Q176 380 196.5 371.5 Q217 363 245 346 Q271 331 288.5 323 Q306 315 323 315 Q347 315 367 328 Q387 341 414 376 L438 345 Q412 308 380.5 287.5 Q349 267 317 267 Q298 267 279.5 275 Q261 283 232 300 Q204 316 185.5 324 Q167 332 150 332 Q126 332 108.5 321 Q91 310 64 276 L40 307 Q92 380 156 380 Z M128 180 Q148 180 168.5 171.5 Q189 163 217 146 Q243 131 260.5 123 Q278 115 295 115 Q319 115 339 128 Q359 141 386 176 L410 145 Q384 108 352 87.5 Q320 67 288 67 Q270 67 252.5 74.5 Q235 82 203 100 Q177 116 158 124 Q139 132 122 132 Q98 132 80.5 121 Q63 110 36 76 L12 107 Q64 180 128 180 Z " />
<glyph glyph-name="asciitilde" unicode="&#x7e;" horiz-adv-x="409" d="M400 292 Q376 256 346 235.5 Q316 215 286 215 Q265 215 246.5 223.5 Q228 232 200 250 Q175 266 160.5 273 Q146 280 131 280 Q112 280 96 268 Q80 256 53 219 L28 255 Q76 328 137 328 Q158 328 177 319.5 Q196 311 224 293 Q247 278 262 270.5 Q277 263 293 263 Q311 263 329 277.5 Q347 292 374 329 L400 292 Z " />
<glyph glyph-name="logicalnot" unicode="&#xac;" horiz-adv-x="440" d="M442 360 L412 146 L367 146 L391 319 L34 319 L40 360 L442 360 Z " />
<glyph glyph-name="infinity" unicode="&#x221e;" horiz-adv-x="520" d="M414 420 Q469 420 498.5 383 Q528 346 528 286 Q528 248 515 207.5 Q502 167 471 138 Q440 109 388 109 Q345 109 314.5 137.5 Q284 166 273 207 Q240 161 205 135 Q170 109 121 109 Q65 109 35.5 148.5 Q6 188 6 250 Q6 289 20.5 328 Q35 367 67 393.5 Q99 420 147 420 Q190 420 220.5 391 Q251 362 263 321 Q296 368 330 394 Q364 420 414 420 Z M394 181 Q454 181 477 209 Q500 237 500 276 Q500 309 481 330 Q462 351 430 351 Q401 351 377.5 335.5 Q354 320 337 298.5 Q320 277 292 236 Q323 181 394 181 Z M105 178 Q135 178 159 193.5 Q183 209 200 230.5 Q217 252 243 292 Q214 348 141 348 Q90 348 62 323.5 Q34 299 34 252 Q34 219 53 198.5 Q72 178 105 178 Z " />
<glyph glyph-name="integral" unicode="&#x222b;" horiz-adv-x="413" d="M374 779 Q405 779 425.5 765.5 Q446 752 446 727 Q446 707 432 692 Q418 677 391 677 Q361 677 361 698 Q361 705 362 708 Q365 723 365 732 Q365 741 361 744.5 Q357 748 347 748 Q328 748 313.5 704.5 Q299 661 285 560 Q281 535 272 395 Q256 163 247 98 Q231 -17 184.5 -92 Q138 -167 74 -167 Q43 -167 23 -153.5 Q3 -140 3 -116 Q3 -96 17 -80.5 Q31 -65 58 -65 Q75 -65 81 -70.5 Q87 -76 87 -86 L86 -96 L84 -120 Q84 -130 88 -133 Q92 -136 102 -136 Q121 -136 134.5 -92.5 Q148 -49 163 52 Q165 65 168.5 111.5 Q172 158 174 187 Q190 433 202 514 Q218 629 264 704 Q310 779 374 779 Z " />
<glyph glyph-name="uni2126" unicode="&#x2126;" horiz-adv-x="650" d="M481 56 Q523 56 546 75 Q569 94 580 140 L613 140 Q601 102 589 57.5 Q577 13 574 -4 Q566 -1 537.5 -0.5 Q509 0 474 0 L356 0 L354 5 Q410 68 444 120 Q478 172 499.5 244 Q521 316 521 413 Q521 500 485.5 540 Q450 580 377 580 Q266 580 216.5 505 Q167 430 167 267 Q167 183 186 122 Q205 61 239 5 L237 0 L119 0 Q30 0 17 -4 Q19 7 19 48 Q19 88 17 140 L50 140 Q49 94 66.5 75 Q84 56 126 56 L180 56 Q143 105 122.5 138 Q102 171 88.5 212.5 Q75 254 75 305 Q75 389 112.5 458 Q150 527 219.5 567 Q289 607 381 607 Q455 607 507.5 578 Q560 549 587 499 Q614 449 614 385 Q614 314 593.5 262 Q573 210 539.5 171 Q506 132 441 70 L426 56 L481 56 Z " />
<glyph glyph-name="uni2206" unicode="&#x2206;" horiz-adv-x="583" d="M355 607 L515 0 L-4 0 L327 607 L355 607 Z M408 28 L290 484 L41 28 L408 28 Z " />
<glyph glyph-name="product" unicode="&#x220f;" horiz-adv-x="613" d="M616 567 L577 569 Q560 569 557 548 L476 -31 L476 -38 Q476 -53 490 -53 L529 -51 L525 -80 L311 -80 L315 -51 L364 -53 Q380 -53 383 -31 L466 566 L245 566 L162 -31 L162 -36 Q162 -53 177 -53 L226 -51 L222 -80 L7 -80 L11 -51 L50 -53 Q67 -53 70 -31 L151 548 L152 554 Q152 570 137 569 L97 567 L102 597 L620 597 L616 567 Z " />
<glyph glyph-name="summation" unicode="&#x2211;" horiz-adv-x="498" d="M399 597 Q434 597 462.5 597.5 Q491 598 500 601 Q497 577 494.5 539.5 Q492 502 491 468 L458 468 Q460 524 443.5 546.5 Q427 569 385 569 L207 569 L310 308 L76 -14 L310 -14 Q352 -14 374.5 5 Q397 24 409 70 L442 70 Q430 31 417 -17 Q404 -65 401 -83 Q393 -80 365.5 -79.5 Q338 -79 303 -79 L-4 -79 L-1 -55 L227 258 L98 573 L102 597 L399 597 Z " />
<glyph glyph-name="radical" unicode="&#x221a;" horiz-adv-x="460" d="M537 786 L563 786 L247 -95 L220 -95 L112 331 L32 306 L27 331 L189 382 L195 357 L268 38 L537 786 Z " />
<glyph glyph-name="uni00B5" unicode="&#xb5;" horiz-adv-x="493" d="M467 60 Q433 23 400.5 6.5 Q368 -10 342 -10 Q328 -10 323 1 Q318 12 318 36 Q318 64 335 179 Q279 76 233.5 33 Q188 -10 140 -10 Q132 -10 120 -8 L93 -195 L93 -200 Q93 -206 96 -210 Q99 -214 104 -214 L149 -213 L145 -239 L-56 -239 L-52 -213 L-6 -214 Q-1 -213 3.5 -207.5 Q8 -202 9 -195 L91 377 L92 384 Q92 396 82 396 L46 394 L50 420 L183 420 L140 129 L141 129 Q139 117 139 99 Q139 45 174 45 Q202 45 238 84 Q274 123 305.5 181.5 Q337 240 352 292 L370 411 L462 428 Q430 263 417 188.5 Q404 114 404 84 Q404 67 417 67 Q435 67 455 80 L467 60 Z " />
<glyph glyph-name="partialdiff" unicode="&#x2202;" horiz-adv-x="448" d="M268 605 Q344 605 389.5 547.5 Q435 490 435 386 Q435 325 411.5 231.5 Q388 138 330.5 63.5 Q273 -11 180 -11 Q143 -11 107.5 3 Q72 17 48 49 Q24 81 24 131 Q24 188 50 232 Q76 276 120.5 300.5 Q165 325 217 325 Q246 325 277 316.5 Q308 308 333 288 Q351 366 351 414 Q351 489 327 533.5 Q303 578 259 578 Q233 578 212.5 566 Q192 554 192 532 Q192 526 194.5 517.5 Q197 509 197 504 Q197 489 185.5 481 Q174 473 158 473 Q140 473 128 483 Q116 493 116 512 Q116 541 139.5 562 Q163 583 198 594 Q233 605 268 605 Z M171 16 Q219 16 258 83.5 Q297 151 323 248 Q309 266 288 277 Q267 288 244 288 Q209 288 178 266.5 Q147 245 128 205.5 Q109 166 109 114 Q109 70 125.5 43 Q142 16 171 16 Z " />
<glyph glyph-name="percent" unicode="&#x25;" horiz-adv-x="597" d="M204 608 Q251 608 278.5 577.5 Q306 547 306 492 Q306 412 266.5 368 Q227 324 164 324 Q116 324 89 354 Q62 384 62 439 Q62 519 101.5 563.5 Q141 608 204 608 Z M539 607 L571 586 L84 -5 L53 19 L539 607 Z M201 590 Q165 590 144.5 547 Q124 504 124 421 Q124 343 167 343 Q204 343 223.5 385 Q243 427 243 512 Q243 554 232.5 572 Q222 590 201 590 Z M458 275 Q505 275 532.5 244.5 Q560 214 560 159 Q560 80 520.5 35.5 Q481 -9 418 -9 Q369 -9 342 21 Q315 51 315 106 Q315 186 355 230.5 Q395 275 458 275 Z M455 257 Q419 257 398.5 214 Q378 171 378 88 Q378 10 420 10 Q497 10 497 179 Q497 221 486.5 239 Q476 257 455 257 Z " />
<glyph glyph-name="perthousand" unicode="&#x2030;" horiz-adv-x="859" d="M204 608 Q251 608 279 577.5 Q307 547 307 492 Q307 412 267 368 Q227 324 164 324 Q116 324 89.5 354 Q63 384 63 439 Q63 519 102.5 563.5 Q142 608 204 608 Z M539 607 L571 586 L84 -5 L53 19 L539 607 Z M202 590 Q165 590 145 547 Q125 504 125 421 Q125 378 136 360.5 Q147 343 167 343 Q244 343 244 512 Q244 590 202 590 Z M443 274 Q490 274 517.5 244 Q545 214 545 158 Q545 78 506 34 Q467 -10 403 -10 Q355 -10 328.5 20 Q302 50 302 105 Q302 185 341.5 229.5 Q381 274 443 274 Z M718 274 Q765 274 793 243.5 Q821 213 821 158 Q821 78 781.5 34 Q742 -10 678 -10 Q630 -10 603.5 20 Q577 50 577 105 Q577 185 616.5 229.5 Q656 274 718 274 Z M440 256 Q403 256 383.5 212 Q364 168 364 86 Q364 44 375 26.5 Q386 9 406 9 Q443 9 463 50.5 Q483 92 483 177 Q483 220 472 238 Q461 256 440 256 Z M715 256 Q678 256 658.5 212 Q639 168 639 86 Q639 44 650 26.5 Q661 9 681 9 Q718 9 738 50.5 Q758 92 758 177 Q758 220 747 238 Q736 256 715 256 Z " />
<glyph glyph-name="lozenge" unicode="&#x25ca;" horiz-adv-x="448" d="M297 645 L448 281 L200 -79 L170 -79 L19 286 L267 645 L297 645 Z M276 589 L251 549 L70 285 L180 16 L192 -23 L216 17 L397 281 L288 550 L276 589 Z " />
<glyph glyph-name="at" unicode="&#x40;" horiz-adv-x="718" d="M462 596 Q534 596 590 563 Q646 530 677 472 Q708 414 708 343 Q708 240 660 159.5 Q612 79 546.5 34.5 Q481 -10 435 -10 Q411 -10 411 16 Q411 43 418.5 89.5 Q426 136 439 187 Q382 79 337 34.5 Q292 -10 244 -10 Q200 -10 176 22.5 Q152 55 152 112 Q152 182 189.5 256.5 Q227 331 289 380.5 Q351 430 419 430 Q440 430 453 421 Q466 412 476 391 L481 411 L563 428 L540 330 Q498 139 498 92 Q498 75 509 75 Q535 75 575 107 Q615 139 645 198.5 Q675 258 675 337 Q675 400 647.5 453 Q620 506 570.5 536.5 Q521 567 458 567 Q361 567 272 508.5 Q183 450 128 349.5 Q73 249 73 131 Q73 57 103 1.5 Q133 -54 190.5 -85 Q248 -116 327 -116 Q413 -116 483 -86.5 Q553 -57 625 10 L640 -13 Q565 -84 487.5 -114.5 Q410 -145 314 -145 Q222 -145 155 -111.5 Q88 -78 52 -15.5 Q16 47 16 132 Q16 247 77.5 354.5 Q139 462 242 529 Q345 596 462 596 Z M421 400 Q373 400 332 357 Q291 314 264 241 Q241 177 241 123 Q241 45 291 45 Q311 45 354 98 Q397 151 430.5 222 Q464 293 464 348 Q464 369 451.5 384.5 Q439 400 421 400 Z " />
<glyph glyph-name="ampersand" unicode="&#x26;" horiz-adv-x="590" d="M574 354 Q574 317 536.5 289.5 Q499 262 442 249 Q483 219 483 164 Q483 114 451.5 74.5 Q420 35 366.5 13 Q313 -9 248 -9 Q183 -9 130.5 13 Q78 35 47.5 75 Q17 115 17 168 Q17 215 42.5 256.5 Q68 298 119 324.5 Q170 351 243 352 Q208 372 184.5 404 Q161 436 161 475 Q161 515 186 545 Q211 575 250.5 591 Q290 607 332 607 Q385 607 415 583.5 Q445 560 445 530 Q445 508 430 494 Q415 480 397 480 Q383 480 372 489 Q361 498 361 512 Q361 519 367 531 Q373 543 373 552 Q373 568 361 576 Q349 584 328 584 Q288 584 264.5 556 Q241 528 241 476 Q241 429 261 399.5 Q281 370 322 356 L319 333 Q306 335 282 335 Q224 335 183.5 309.5 Q143 284 123 243.5 Q103 203 103 160 Q103 94 147 56 Q191 18 264 18 Q314 18 358 36 Q402 54 428.5 87 Q455 120 455 162 Q455 200 433.5 221.5 Q412 243 377 243 Q348 243 327 228 Q306 213 306 185 Q306 177 307.5 169 Q309 161 309 153 Q309 135 298.5 125.5 Q288 116 270 116 Q228 116 228 163 Q228 210 270.5 235.5 Q313 261 381 269 L389 270 Q439 276 467.5 287.5 Q496 299 496 328 Q496 336 494.5 344 Q493 352 493 360 Q493 378 503 387.5 Q513 397 531 397 Q552 397 563 385.5 Q574 374 574 354 Z " />
<glyph glyph-name="paragraph" unicode="&#xb6;" horiz-adv-x="484" d="M59 421 Q59 501 117.5 549 Q176 597 275 597 L518 597 L514 566 L417 566 L299 -269 L262 -269 L380 566 L342 566 Q307 566 301 528 L189 -269 L152 -269 L230 288 Q148 288 103.5 322.5 Q59 357 59 421 Z " />
<glyph glyph-name="section" unicode="&#xa7;" horiz-adv-x="436" d="M368 458 Q352 458 341.5 466.5 Q331 475 331 490 Q331 500 334.5 506 Q338 512 346 521 Q351 525 354.5 530.5 Q358 536 358 543 Q358 560 333.5 572 Q309 584 279 584 Q238 584 207.5 561 Q177 538 177 498 Q177 477 189 461.5 Q201 446 225 428 L337 343 Q374 316 391 292 Q408 268 408 237 Q408 140 301 105 Q327 81 338.5 59.5 Q350 38 350 13 Q350 -30 325.5 -63.5 Q301 -97 256.5 -116 Q212 -135 156 -135 Q94 -135 56.5 -113 Q19 -91 19 -53 Q19 -23 37 -4.5 Q55 14 80 14 Q96 14 106.5 5.5 Q117 -3 117 -18 Q117 -28 113.5 -34 Q110 -40 102 -49 Q97 -53 93.5 -58.5 Q90 -64 90 -71 Q90 -88 114.5 -100 Q139 -112 169 -112 Q210 -112 240.5 -89 Q271 -66 271 -26 Q271 -5 259 10.5 Q247 26 223 44 L111 129 Q74 156 57 180 Q40 204 40 235 Q40 332 147 367 Q121 391 109.5 412.5 Q98 434 98 459 Q98 502 122.5 535.5 Q147 569 191.5 588 Q236 607 292 607 Q354 607 391.5 585 Q429 563 429 525 Q429 495 411 476.5 Q393 458 368 458 Z M166 350 Q135 337 122.5 321 Q110 305 110 279 Q110 266 118 254 Q126 242 145 227 L260 139 L282 122 Q313 135 325.5 151 Q338 167 338 193 Q338 206 330 218 Q322 230 303 245 L188 333 L166 350 Z " />
<glyph glyph-name="copyright" unicode="&#xa9;" horiz-adv-x="697" d="M399 607 Q476 607 538.5 571 Q601 535 636.5 473 Q672 411 672 336 Q672 261 635.5 181 Q599 101 520.5 45.5 Q442 -10 323 -10 Q246 -10 184 26 Q122 62 86.5 123.5 Q51 185 51 260 Q51 335 87.5 415.5 Q124 496 202 551.5 Q280 607 399 607 Z M83 265 Q83 197 114.5 141 Q146 85 201.5 52.5 Q257 20 326 20 Q434 20 504 71.5 Q574 123 606 195.5 Q638 268 638 332 Q638 400 606 456 Q574 512 518.5 544.5 Q463 577 394 577 Q287 577 217 525.5 Q147 474 115 401.5 Q83 329 83 265 Z M389 471 Q413 471 428.5 467.5 Q444 464 460 457 Q470 453 481.5 450 Q493 447 506 447 Q504 438 500.5 417 Q497 396 497 375 L478 375 Q475 406 450.5 428.5 Q426 451 395 451 Q356 451 330 419.5 Q304 388 291.5 346 Q279 304 279 273 Q279 222 302 187.5 Q325 153 360 153 Q396 153 423.5 174.5 Q451 196 462 229 L484 229 L479 201 Q476 188 475.5 179 Q475 170 475 156 L471 156 Q454 156 419 145 Q373 131 344 131 Q301 131 266 150.5 Q231 170 211.5 203.5 Q192 237 192 278 Q192 318 212 363 Q232 408 276.5 439.5 Q321 471 389 471 Z " />
<glyph glyph-name="registered" unicode="&#xae;" horiz-adv-x="464" d="M261 607 Q315 607 361 582 Q407 557 434 512.5 Q461 468 461 413 Q461 359 434 315 Q407 271 361 245.5 Q315 220 261 220 Q206 220 160 245.5 Q114 271 87.5 315 Q61 359 61 413 Q61 468 87.5 512.5 Q114 557 160 582 Q206 607 261 607 Z M260 581 Q212 581 173 559.5 Q134 538 112 500 Q90 462 90 413 Q90 365 112 327 Q134 289 173 267.5 Q212 246 260 246 Q308 246 347 267.5 Q386 289 408.5 327 Q431 365 431 413 Q431 462 408.5 500 Q386 538 347 559.5 Q308 581 260 581 Z M268 514 Q307 514 326 502.5 Q345 491 345 466 Q345 444 330 430 Q315 416 289 411 Q312 411 331 396 Q350 381 350 356 Q350 328 370 334 L370 317 L333 317 Q292 317 292 348 L292 362 Q292 381 280.5 390.5 Q269 400 253 400 L243 400 L243 342 Q243 335 250 335 L267 335 L267 317 L166 317 L166 335 L178 335 Q184 335 184 342 L184 489 Q184 496 176 496 L166 496 L166 514 L268 514 Z M248 496 Q243 496 243 493 L243 419 L262 419 Q274 419 280.5 430 Q287 441 287 459 Q287 496 257 496 L248 496 Z " />
<glyph glyph-name="trademark" unicode="&#x2122;" horiz-adv-x="758" d="M334 523 L315 523 Q317 533 317 538 Q317 578 262 578 L247 578 Q242 578 240 573 L207 339 L207 337 Q207 328 216 329 L242 329 L239 310 L88 310 L91 328 L118 328 Q122 328 125 331.5 Q128 335 128 340 L161 572 Q163 578 156 578 L142 578 Q109 578 92.5 564.5 Q76 551 72 523 L54 523 L65 597 L345 597 L334 523 Z M792 597 L789 577 L775 578 Q771 578 767.5 575 Q764 572 763 568 L731 337 Q731 328 740 328 L757 329 L754 310 L614 310 L617 328 L642 328 Q651 328 653 339 L682 547 L534 305 L517 305 L424 563 L401 399 Q393 338 393 337 Q393 331 398 329.5 Q403 328 426 329 L423 310 L338 310 L341 329 L360 328 Q369 328 371 339 L403 568 L404 572 Q404 578 392 578 Q384 578 379 577 L382 597 L496 597 L568 399 L690 597 L792 597 Z " />
<glyph glyph-name="degree" unicode="&#xb0;" horiz-adv-x="362" d="M127 498 Q127 543 159 575 Q191 607 236 607 Q273 607 295.5 583 Q318 559 318 519 Q318 475 286 443 Q254 411 209 411 Q172 411 149.5 435 Q127 459 127 498 Z M170 502 Q170 480 182.5 466.5 Q195 453 215 453 Q239 453 256 471.5 Q273 490 273 516 Q273 538 261 551.5 Q249 565 230 565 Q205 565 187.5 546.5 Q170 528 170 502 Z " />
<glyph glyph-name="bar" unicode="&#x7c;" horiz-adv-x="226" d="M166 730 L204 730 L68 -239 L30 -239 L166 730 Z " />
<glyph glyph-name="brokenbar" unicode="&#xa6;" horiz-adv-x="226" d="M149 607 L189 607 L141 265 L101 265 L149 607 Z M119 113 L71 -231 L31 -231 L79 113 L119 113 Z " />
<glyph glyph-name="uni2113" unicode="&#x2113;" horiz-adv-x="373" d="M183 23 Q204 23 227.5 42.5 Q251 62 273 100 L292 90 Q263 40 232 17 Q201 -6 157 -6 Q105 -6 80.5 16 Q56 38 56 86 Q56 101 59.5 126 Q63 151 72 200 Q42 186 -8 166 L-14 196 Q41 217 79 236 L88 287 L106 387 Q146 607 285 607 Q325 607 346 585.5 Q367 564 367 522 Q367 462 324.5 388.5 Q282 315 166 245 Q152 165 146 126.5 Q140 88 140 73 Q140 46 150.5 34.5 Q161 23 183 23 Z M173 284 Q258 339 291.5 399 Q325 459 325 522 Q325 551 313 565.5 Q301 580 280 580 Q250 580 233 557.5 Q216 535 209.5 508.5 Q203 482 198 446 Q193 393 187 360 L173 284 Z " />
</font>
</svg>
