<?xml version="1.0" encoding="UTF-8"?>
<svg xmlns="http://www.w3.org/2000/svg" xmlns:xlink="http://www.w3.org/1999/xlink" version="1.2" >
<font id="Unna Bold Italic">
<font-face  font-family="Unna" units-per-em="1000" ascent="883" descent="-269" font-style="italic" font-weight="700" font-stretch="normal" slope="-8" cap-height="597" x-height="425" underline-position="-75" underline-thickness="50" />
<missing-glyph  horiz-adv-x="488" d="M400 730 L400 -245 L91 -245 L91 730 L400 730 Z M325 665 L164 665 L164 633 L227 633 L227 596 L163 596 L163 564 L325 564 L325 596 L260 596 L260 633 L325 633 L325 665 Z M260 539 L163 539 L163 438 L325 438 L325 471 L260 471 L260 539 Z M227 506 L227 471 L195 471 L195 506 L227 506 Z M325 411 L163 411 L163 379 L227 379 L227 343 L163 343 L163 311 L260 311 L260 379 L325 379 L325 411 Z M325 353 L293 353 L293 288 L163 288 L163 255 L325 255 L325 353 Z M325 234 L227 234 L227 179 L260 179 L260 202 L293 202 L293 156 L195 156 L195 234 L163 234 L163 124 L325 124 L325 234 Z M325 65 L163 65 L163 -45 L325 -45 L325 65 Z M293 33 L293 -13 L195 -13 L195 33 L293 33 Z M325 -68 L163 -68 L163 -100 L231 -100 L163 -146 L163 -178 L325 -178 L325 -146 L225 -146 L293 -100 L325 -100 L325 -68 Z " />
<glyph glyph-name="NULL" d="" />
<glyph glyph-name="nonmarkingreturn" unicode="&#xd;" horiz-adv-x="205" d="" />
<glyph glyph-name="space" unicode="&#x20;" horiz-adv-x="205" d="" />
<glyph glyph-name="A" unicode="A" horiz-adv-x="608" d="M606 37 L601 0 L302 0 L307 37 L354 35 Q384 32 386 63 Q386 74 380 98 L355 186 L137 186 L93 104 Q73 68 73 49 Q73 33 91 34 L137 37 L133 0 L-47 0 L-43 37 L-9 35 Q10 35 26.5 55.5 Q43 76 62 112 L330 607 L379 607 L521 110 Q532 70 543 52.5 Q554 35 575 35 L580 35 L606 37 Z M156 221 L345 221 L280 451 L156 221 Z " />
<glyph glyph-name="Aacute" unicode="&#xc1;" horiz-adv-x="608" d="M606 37 L601 0 L302 0 L307 37 L354 35 Q384 32 386 63 Q386 74 380 98 L355 186 L137 186 L93 104 Q73 68 73 49 Q73 33 91 34 L137 37 L133 0 L-47 0 L-43 37 L-9 35 Q10 35 26.5 55.5 Q43 76 62 112 L330 607 L379 607 L521 110 Q532 70 543 52.5 Q554 35 575 35 L580 35 L606 37 Z M156 221 L345 221 L280 451 L156 221 Z M519 790 Q519 780 504 772 L325 669 Q312 660 300 660 Q290 660 290 669 Q290 675 294 680.5 Q298 686 310 697 L418 802 Q435 818 441 822 Q447 826 457 826 Q474 826 496.5 813 Q519 800 519 790 Z " />
<glyph glyph-name="Abreve" unicode="&#x102;" horiz-adv-x="608" d="M606 37 L601 0 L302 0 L307 37 L354 35 Q384 32 386 63 Q386 74 380 98 L355 186 L137 186 L93 104 Q73 68 73 49 Q73 33 91 34 L137 37 L133 0 L-47 0 L-43 37 L-9 35 Q10 35 26.5 55.5 Q43 76 62 112 L330 607 L379 607 L521 110 Q532 70 543 52.5 Q554 35 575 35 L580 35 L606 37 Z M156 221 L345 221 L280 451 L156 221 Z M511 790 Q501 732 459.5 695.5 Q418 659 359 659 Q305 659 274.5 689.5 Q244 720 244 770 Q244 783 245 790 L292 790 Q295 762 312.5 743 Q330 724 368 724 Q405 724 429.5 743.5 Q454 763 464 790 L511 790 Z " />
<glyph glyph-name="Acircumflex" unicode="&#xc2;" horiz-adv-x="608" d="M606 37 L601 0 L302 0 L307 37 L354 35 Q384 32 386 63 Q386 74 380 98 L355 186 L137 186 L93 104 Q73 68 73 49 Q73 33 91 34 L137 37 L133 0 L-47 0 L-43 37 L-9 35 Q10 35 26.5 55.5 Q43 76 62 112 L330 607 L379 607 L521 110 Q532 70 543 52.5 Q554 35 575 35 L580 35 L606 37 Z M156 221 L345 221 L280 451 L156 221 Z M218 666 Q207 666 207 673 Q207 679 240 707 Q270 733 293 756 L346 804 Q366 822 382 822 Q398 822 412 804 L451 756 Q470 730 494 704 Q503 694 509 686 Q515 678 515 675 Q515 666 501 666 Q487 666 470 678 L370 744 L252 678 Q233 666 218 666 Z " />
<glyph glyph-name="Adieresis" unicode="&#xc4;" horiz-adv-x="608" d="M606 37 L601 0 L302 0 L307 37 L354 35 Q384 32 386 63 Q386 74 380 98 L355 186 L137 186 L93 104 Q73 68 73 49 Q73 33 91 34 L137 37 L133 0 L-47 0 L-43 37 L-9 35 Q10 35 26.5 55.5 Q43 76 62 112 L330 607 L379 607 L521 110 Q532 70 543 52.5 Q554 35 575 35 L580 35 L606 37 Z M156 221 L345 221 L280 451 L156 221 Z M281 802 Q313 802 332 787.5 Q351 773 351 749 Q351 715 327 696 Q303 677 264 677 Q233 677 214 691.5 Q195 706 195 730 Q195 762 219.5 782 Q244 802 281 802 Z M475 802 Q507 802 526 787.5 Q545 773 545 749 Q545 715 521 696 Q497 677 458 677 Q427 677 408 691.5 Q389 706 389 730 Q389 762 413.5 782 Q438 802 475 802 Z " />
<glyph glyph-name="Agrave" unicode="&#xc0;" horiz-adv-x="608" d="M606 37 L601 0 L302 0 L307 37 L354 35 Q384 32 386 63 Q386 74 380 98 L355 186 L137 186 L93 104 Q73 68 73 49 Q73 33 91 34 L137 37 L133 0 L-47 0 L-43 37 L-9 35 Q10 35 26.5 55.5 Q43 76 62 112 L330 607 L379 607 L521 110 Q532 70 543 52.5 Q554 35 575 35 L580 35 L606 37 Z M156 221 L345 221 L280 451 L156 221 Z M307 826 Q317 826 321.5 822.5 Q326 819 338 802 L420 696 Q425 688 428.5 682 Q432 676 431 670 Q429 660 417 660 Q407 660 394 669 L244 772 Q234 779 234 789 Q235 799 262 812.5 Q289 826 307 826 Z " />
<glyph glyph-name="Amacron" unicode="&#x100;" horiz-adv-x="608" d="M606 37 L601 0 L302 0 L307 37 L354 35 Q384 32 386 63 Q386 74 380 98 L355 186 L137 186 L93 104 Q73 68 73 49 Q73 33 91 34 L137 37 L133 0 L-47 0 L-43 37 L-9 35 Q10 35 26.5 55.5 Q43 76 62 112 L330 607 L379 607 L521 110 Q532 70 543 52.5 Q554 35 575 35 L580 35 L606 37 Z M156 221 L345 221 L280 451 L156 221 Z M486 724 L479 677 L239 677 L246 724 L486 724 Z " />
<glyph glyph-name="Aogonek" unicode="&#x104;" horiz-adv-x="608" d="M636 -99 Q607 -128 575 -143.5 Q543 -159 511 -159 Q481 -159 460 -142.5 Q439 -126 439 -96 Q439 -69 455.5 -44 Q472 -19 502 0 L302 0 L307 37 L354 35 Q384 32 386 63 Q386 74 380 98 L355 186 L137 186 L93 104 Q73 68 73 49 Q73 33 91 34 L137 37 L133 0 L-47 0 L-43 37 L-9 35 Q10 35 26.5 55.5 Q43 76 62 112 L330 607 L379 607 L521 110 Q532 70 543 52.5 Q554 35 575 35 L580 35 L606 37 L601 0 L542 0 Q511 -25 511 -61 Q511 -79 522 -90 Q533 -101 555 -101 Q588 -101 626 -79 L636 -99 Z M156 221 L345 221 L280 451 L156 221 Z " />
<glyph glyph-name="Aring" unicode="&#xc5;" horiz-adv-x="608" d="M606 37 L601 0 L302 0 L307 37 L354 35 Q384 32 386 63 Q386 74 380 98 L355 186 L137 186 L93 104 Q73 68 73 49 Q73 33 91 34 L137 37 L133 0 L-47 0 L-43 37 L-9 35 Q10 35 26.5 55.5 Q43 76 62 112 L330 607 L379 607 L521 110 Q532 70 543 52.5 Q554 35 575 35 L580 35 L606 37 Z M156 221 L345 221 L280 451 L156 221 Z M285 737 Q285 776 314 803.5 Q343 831 383 831 Q418 831 439 811 Q460 791 460 759 Q460 718 431 691.5 Q402 665 360 665 Q326 665 305.5 685 Q285 705 285 737 Z M335 741 Q335 725 343.5 715.5 Q352 706 366 706 Q385 706 397 719.5 Q409 733 409 754 Q409 770 400.5 779.5 Q392 789 377 789 Q359 789 347 775.5 Q335 762 335 741 Z " />
<glyph glyph-name="Atilde" unicode="&#xc3;" horiz-adv-x="608" d="M606 37 L601 0 L302 0 L307 37 L354 35 Q384 32 386 63 Q386 74 380 98 L355 186 L137 186 L93 104 Q73 68 73 49 Q73 33 91 34 L137 37 L133 0 L-47 0 L-43 37 L-9 35 Q10 35 26.5 55.5 Q43 76 62 112 L330 607 L379 607 L521 110 Q532 70 543 52.5 Q554 35 575 35 L580 35 L606 37 Z M156 221 L345 221 L280 451 L156 221 Z M296 771 Q313 771 332.5 765.5 Q352 760 382 750 Q401 743 420 737.5 Q439 732 451 732 Q465 732 476 742.5 Q487 753 489 770 L517 770 Q511 725 491 698 Q471 671 439 671 Q422 671 401.5 676.5 Q381 682 352 693 Q333 700 314.5 705.5 Q296 711 284 711 Q270 711 259 700.5 Q248 690 246 672 L218 672 Q224 717 244 744 Q264 771 296 771 Z " />
<glyph glyph-name="AE" unicode="&#xc6;" horiz-adv-x="846" d="M815 443 L781 443 Q783 461 783 469 Q783 517 752 539.5 Q721 562 657 562 L519 562 L529 324 L589 324 Q621 324 645.5 352.5 Q670 381 677 426 L713 426 L680 191 L646 191 Q647 197 647 209 Q647 244 630 266.5 Q613 289 585 289 L529 289 L542 53 Q544 34 560 34 L603 34 Q672 34 712 69 Q752 104 761 171 L796 171 L772 -3 Q733 0 677 0 L311 0 L317 38 L373 35 Q384 34 391 41.5 Q398 49 398 58 L392 186 L165 186 L94 88 Q75 63 75 46 Q75 34 91 35 L143 38 L138 0 L-47 0 L-42 38 L-11 35 Q2 33 17 46.5 Q32 60 57 94 L386 536 Q390 542 390 545 Q390 551 385 555.5 Q380 560 375 560 L324 558 L329 597 L795 597 Q819 597 837 599 L815 443 Z M379 472 L192 221 L390 221 L379 472 Z " />
<glyph glyph-name="B" unicode="B" horiz-adv-x="577" d="M401 597 Q476 597 515.5 566.5 Q555 536 555 476 Q555 413 511.5 371 Q468 329 397 317 Q462 317 504 278 Q546 239 546 179 Q546 92 484.5 46 Q423 0 302 0 L8 0 L13 37 L61 35 Q77 35 80 57 L148 542 L148 545 Q148 552 144.5 557 Q141 562 135 562 L87 560 L92 597 L401 597 Z M301 562 Q290 562 287 550 L256 329 L307 329 Q363 329 389 366 Q415 403 415 475 Q415 519 395 540.5 Q375 562 338 562 L301 562 Z M251 294 L217 49 L216 45 Q216 36 228 36 L277 36 Q335 36 370 76.5 Q405 117 405 197 Q405 247 385.5 270.5 Q366 294 326 294 L251 294 Z " />
<glyph glyph-name="C" unicode="C" horiz-adv-x="593" d="M39 251 Q39 360 81.5 440.5 Q124 521 203.5 564 Q283 607 391 607 Q433 607 460.5 600.5 Q488 594 518 582 Q543 573 559.5 568.5 Q576 564 599 564 Q591 533 586.5 499.5 Q582 466 582 450 Q582 434 583 433 L551 433 Q548 472 527 504.5 Q506 537 472.5 556 Q439 575 400 575 Q336 575 288 533.5 Q240 492 214 416 Q188 340 188 238 Q188 137 226.5 81 Q265 25 334 25 Q396 25 448.5 65.5 Q501 106 522 167 L558 167 Q546 121 542 96.5 Q538 72 538 49 L538 35 L532 35 Q512 35 491.5 30 Q471 25 441 16 Q404 4 373 -3 Q342 -10 308 -10 Q181 -10 110 59.5 Q39 129 39 251 Z " />
<glyph glyph-name="Cacute" unicode="&#x106;" horiz-adv-x="593" d="M39 251 Q39 360 81.5 440.5 Q124 521 203.5 564 Q283 607 391 607 Q433 607 460.5 600.5 Q488 594 518 582 Q543 573 559.5 568.5 Q576 564 599 564 Q591 533 586.5 499.5 Q582 466 582 450 Q582 434 583 433 L551 433 Q548 472 527 504.5 Q506 537 472.5 556 Q439 575 400 575 Q336 575 288 533.5 Q240 492 214 416 Q188 340 188 238 Q188 137 226.5 81 Q265 25 334 25 Q396 25 448.5 65.5 Q501 106 522 167 L558 167 Q546 121 542 96.5 Q538 72 538 49 L538 35 L532 35 Q512 35 491.5 30 Q471 25 441 16 Q404 4 373 -3 Q342 -10 308 -10 Q181 -10 110 59.5 Q39 129 39 251 Z M560 790 Q560 780 545 772 L366 669 Q353 660 341 660 Q331 660 331 669 Q331 675 335 680.5 Q339 686 351 697 L459 802 Q476 818 482 822 Q488 826 498 826 Q515 826 537.5 813 Q560 800 560 790 Z " />
<glyph glyph-name="Ccaron" unicode="&#x10c;" horiz-adv-x="593" d="M39 251 Q39 360 81.5 440.5 Q124 521 203.5 564 Q283 607 391 607 Q433 607 460.5 600.5 Q488 594 518 582 Q543 573 559.5 568.5 Q576 564 599 564 Q591 533 586.5 499.5 Q582 466 582 450 Q582 434 583 433 L551 433 Q548 472 527 504.5 Q506 537 472.5 556 Q439 575 400 575 Q336 575 288 533.5 Q240 492 214 416 Q188 340 188 238 Q188 137 226.5 81 Q265 25 334 25 Q396 25 448.5 65.5 Q501 106 522 167 L558 167 Q546 121 542 96.5 Q538 72 538 49 L538 35 L532 35 Q512 35 491.5 30 Q471 25 441 16 Q404 4 373 -3 Q342 -10 308 -10 Q181 -10 110 59.5 Q39 129 39 251 Z M563 824 Q574 824 574 817 Q574 811 541 783 Q511 757 488 734 L435 686 Q415 668 399 668 Q382 668 369 686 L330 734 Q311 760 287 786 Q278 796 272 804 Q266 812 266 815 Q266 824 280 824 Q294 824 311 812 L411 746 L529 812 Q548 824 563 824 Z " />
<glyph glyph-name="Ccedilla" unicode="&#xc7;" horiz-adv-x="593" d="M400 575 Q336 575 288 533.5 Q240 492 214 416 Q188 340 188 238 Q188 137 226.5 81 Q265 25 334 25 Q396 25 448.5 65.5 Q501 106 522 167 L558 167 Q546 121 542 96.5 Q538 72 538 49 L538 35 L532 35 Q512 35 491.5 30 Q471 25 441 16 Q374 -6 327 -9 L306 -36 Q298 -49 298 -56 Q298 -62 305 -65 Q312 -68 328 -72 Q354 -77 369 -86 Q384 -95 384 -116 Q384 -161 344 -187.5 Q304 -214 255 -214 Q210 -214 188 -198 L206 -165 Q216 -179 239 -179 Q260 -179 277.5 -164 Q295 -149 295 -130 Q295 -110 267 -94 L246 -80 Q237 -73 237 -66 Q237 -59 245 -52 L284 -9 Q168 -3 103.5 66 Q39 135 39 251 Q39 360 81.5 440.5 Q124 521 203.5 564 Q283 607 391 607 Q433 607 460.5 600.5 Q488 594 518 582 Q543 573 559.5 568.5 Q576 564 599 564 Q591 533 586.5 499.5 Q582 466 582 450 Q582 434 583 433 L551 433 Q548 472 527 504.5 Q506 537 472.5 556 Q439 575 400 575 Z " />
<glyph glyph-name="D" unicode="D" horiz-adv-x="636" d="M334 597 Q478 597 549 531.5 Q620 466 620 340 Q620 244 581 167 Q542 90 461.5 45 Q381 0 262 0 L8 0 L13 37 L52 35 L53 35 Q61 35 65 41.5 Q69 48 70 57 L138 541 L138 545 Q138 562 123 562 L87 560 L92 597 L334 597 Z M291 562 Q278 562 277 549 L207 49 L206 45 Q206 36 216 36 L238 36 Q327 36 378 80 Q429 124 454 202 Q476 274 476 360 Q476 468 438 515 Q400 562 313 562 L291 562 Z " />
<glyph glyph-name="Eth" unicode="&#xd0;" horiz-adv-x="636" d="M334 597 Q478 597 549 531.5 Q620 466 620 340 Q620 244 581 167 Q542 90 461.5 45 Q381 0 262 0 L8 0 L13 37 L52 35 L53 35 Q61 35 65 41.5 Q69 48 70 57 L102 286 L50 286 L56 329 L108 329 L138 541 L138 545 Q138 562 123 562 L87 560 L92 597 L334 597 Z M454 202 Q476 274 476 360 Q476 468 438 515 Q400 562 313 562 L291 562 Q278 562 277 549 L246 329 L396 329 L390 286 L240 286 L207 49 L206 45 Q206 36 216 36 L238 36 Q327 36 378 80 Q429 124 454 202 Z " />
<glyph glyph-name="Dcaron" unicode="&#x10e;" horiz-adv-x="636" d="M334 597 Q478 597 549 531.5 Q620 466 620 340 Q620 244 581 167 Q542 90 461.5 45 Q381 0 262 0 L8 0 L13 37 L52 35 L53 35 Q61 35 65 41.5 Q69 48 70 57 L138 541 L138 545 Q138 562 123 562 L87 560 L92 597 L334 597 Z M291 562 Q278 562 277 549 L207 49 L206 45 Q206 36 216 36 L238 36 Q327 36 378 80 Q429 124 454 202 Q476 274 476 360 Q476 468 438 515 Q400 562 313 562 L291 562 Z M517 824 Q528 824 528 817 Q528 811 495 783 Q465 757 442 734 L389 686 Q369 668 353 668 Q336 668 323 686 L284 734 Q265 760 241 786 Q232 796 226 804 Q220 812 220 815 Q220 824 234 824 Q248 824 265 812 L365 746 L483 812 Q502 824 517 824 Z " />
<glyph glyph-name="Dcroat" unicode="&#x110;" horiz-adv-x="636" d="M334 597 Q478 597 549 531.5 Q620 466 620 340 Q620 244 581 167 Q542 90 461.5 45 Q381 0 262 0 L8 0 L13 37 L52 35 L53 35 Q61 35 65 41.5 Q69 48 70 57 L102 286 L50 286 L56 329 L108 329 L138 541 L138 545 Q138 562 123 562 L87 560 L92 597 L334 597 Z M454 202 Q476 274 476 360 Q476 468 438 515 Q400 562 313 562 L291 562 Q278 562 277 549 L246 329 L396 329 L390 286 L240 286 L207 49 L206 45 Q206 36 216 36 L238 36 Q327 36 378 80 Q429 124 454 202 Z " />
<glyph glyph-name="E" unicode="E" horiz-adv-x="566" d="M525 443 L490 443 Q492 463 492 471 Q492 519 462 540.5 Q432 562 367 562 L291 562 Q279 562 277 548 L246 325 L316 325 Q350 325 374 352 Q398 379 405 426 L440 426 L407 191 L372 191 Q373 197 373 210 Q373 245 355.5 267.5 Q338 290 311 290 L240 290 L207 49 L207 46 Q207 36 216 36 L325 36 Q392 36 432.5 73 Q473 110 483 179 L518 179 L493 -3 Q471 0 398 0 L8 0 L14 38 L49 35 Q67 35 70 57 L138 541 L138 545 Q138 553 133.5 557.5 Q129 562 122 562 L87 560 L92 597 L530 597 Q543 597 547 598 L525 443 Z " />
<glyph glyph-name="Eacute" unicode="&#xc9;" horiz-adv-x="566" d="M525 443 L490 443 Q492 463 492 471 Q492 519 462 540.5 Q432 562 367 562 L291 562 Q279 562 277 548 L246 325 L316 325 Q350 325 374 352 Q398 379 405 426 L440 426 L407 191 L372 191 Q373 197 373 210 Q373 245 355.5 267.5 Q338 290 311 290 L240 290 L207 49 L207 46 Q207 36 216 36 L325 36 Q392 36 432.5 73 Q473 110 483 179 L518 179 L493 -3 Q471 0 398 0 L8 0 L14 38 L49 35 Q67 35 70 57 L138 541 L138 545 Q138 553 133.5 557.5 Q129 562 122 562 L87 560 L92 597 L530 597 Q543 597 547 598 L525 443 Z M507 790 Q507 780 492 772 L313 669 Q300 660 288 660 Q278 660 278 669 Q278 675 282 680.5 Q286 686 298 697 L406 802 Q423 818 429 822 Q435 826 445 826 Q462 826 484.5 813 Q507 800 507 790 Z " />
<glyph glyph-name="Ecaron" unicode="&#x11a;" horiz-adv-x="566" d="M525 443 L490 443 Q492 463 492 471 Q492 519 462 540.5 Q432 562 367 562 L291 562 Q279 562 277 548 L246 325 L316 325 Q350 325 374 352 Q398 379 405 426 L440 426 L407 191 L372 191 Q373 197 373 210 Q373 245 355.5 267.5 Q338 290 311 290 L240 290 L207 49 L207 46 Q207 36 216 36 L325 36 Q392 36 432.5 73 Q473 110 483 179 L518 179 L493 -3 Q471 0 398 0 L8 0 L14 38 L49 35 Q67 35 70 57 L138 541 L138 545 Q138 553 133.5 557.5 Q129 562 122 562 L87 560 L92 597 L530 597 Q543 597 547 598 L525 443 Z M510 824 Q521 824 521 817 Q521 811 488 783 Q458 757 435 734 L382 686 Q362 668 346 668 Q329 668 316 686 L277 734 Q258 760 234 786 Q225 796 219 804 Q213 812 213 815 Q213 824 227 824 Q241 824 258 812 L358 746 L476 812 Q495 824 510 824 Z " />
<glyph glyph-name="Ecircumflex" unicode="&#xca;" horiz-adv-x="566" d="M525 443 L490 443 Q492 463 492 471 Q492 519 462 540.5 Q432 562 367 562 L291 562 Q279 562 277 548 L246 325 L316 325 Q350 325 374 352 Q398 379 405 426 L440 426 L407 191 L372 191 Q373 197 373 210 Q373 245 355.5 267.5 Q338 290 311 290 L240 290 L207 49 L207 46 Q207 36 216 36 L325 36 Q392 36 432.5 73 Q473 110 483 179 L518 179 L493 -3 Q471 0 398 0 L8 0 L14 38 L49 35 Q67 35 70 57 L138 541 L138 545 Q138 553 133.5 557.5 Q129 562 122 562 L87 560 L92 597 L530 597 Q543 597 547 598 L525 443 Z M206 666 Q195 666 195 673 Q195 679 228 707 Q258 733 281 756 L334 804 Q354 822 370 822 Q386 822 400 804 L439 756 Q458 730 482 704 Q491 694 497 686 Q503 678 503 675 Q503 666 489 666 Q475 666 458 678 L358 744 L240 678 Q221 666 206 666 Z " />
<glyph glyph-name="Edieresis" unicode="&#xcb;" horiz-adv-x="566" d="M525 443 L490 443 Q492 463 492 471 Q492 519 462 540.5 Q432 562 367 562 L291 562 Q279 562 277 548 L246 325 L316 325 Q350 325 374 352 Q398 379 405 426 L440 426 L407 191 L372 191 Q373 197 373 210 Q373 245 355.5 267.5 Q338 290 311 290 L240 290 L207 49 L207 46 Q207 36 216 36 L325 36 Q392 36 432.5 73 Q473 110 483 179 L518 179 L493 -3 Q471 0 398 0 L8 0 L14 38 L49 35 Q67 35 70 57 L138 541 L138 545 Q138 553 133.5 557.5 Q129 562 122 562 L87 560 L92 597 L530 597 Q543 597 547 598 L525 443 Z M269 802 Q301 802 320 787.5 Q339 773 339 749 Q339 715 315 696 Q291 677 252 677 Q221 677 202 691.5 Q183 706 183 730 Q183 762 207.5 782 Q232 802 269 802 Z M463 802 Q495 802 514 787.5 Q533 773 533 749 Q533 715 509 696 Q485 677 446 677 Q415 677 396 691.5 Q377 706 377 730 Q377 762 401.5 782 Q426 802 463 802 Z " />
<glyph glyph-name="Edotaccent" unicode="&#x116;" horiz-adv-x="566" d="M525 443 L490 443 Q492 463 492 471 Q492 519 462 540.5 Q432 562 367 562 L291 562 Q279 562 277 548 L246 325 L316 325 Q350 325 374 352 Q398 379 405 426 L440 426 L407 191 L372 191 Q373 197 373 210 Q373 245 355.5 267.5 Q338 290 311 290 L240 290 L207 49 L207 46 Q207 36 216 36 L325 36 Q392 36 432.5 73 Q473 110 483 179 L518 179 L493 -3 Q471 0 398 0 L8 0 L14 38 L49 35 Q67 35 70 57 L138 541 L138 545 Q138 553 133.5 557.5 Q129 562 122 562 L87 560 L92 597 L530 597 Q543 597 547 598 L525 443 Z M365 804 Q397 804 416 789.5 Q435 775 435 751 Q435 717 411 698 Q387 679 348 679 Q317 679 298 693.5 Q279 708 279 732 Q279 764 303.5 784 Q328 804 365 804 Z " />
<glyph glyph-name="Egrave" unicode="&#xc8;" horiz-adv-x="566" d="M525 443 L490 443 Q492 463 492 471 Q492 519 462 540.5 Q432 562 367 562 L291 562 Q279 562 277 548 L246 325 L316 325 Q350 325 374 352 Q398 379 405 426 L440 426 L407 191 L372 191 Q373 197 373 210 Q373 245 355.5 267.5 Q338 290 311 290 L240 290 L207 49 L207 46 Q207 36 216 36 L325 36 Q392 36 432.5 73 Q473 110 483 179 L518 179 L493 -3 Q471 0 398 0 L8 0 L14 38 L49 35 Q67 35 70 57 L138 541 L138 545 Q138 553 133.5 557.5 Q129 562 122 562 L87 560 L92 597 L530 597 Q543 597 547 598 L525 443 Z M295 826 Q305 826 309.5 822.5 Q314 819 326 802 L408 696 Q413 688 416.5 682 Q420 676 419 670 Q417 660 405 660 Q395 660 382 669 L232 772 Q222 779 222 789 Q223 799 250 812.5 Q277 826 295 826 Z " />
<glyph glyph-name="Emacron" unicode="&#x112;" horiz-adv-x="566" d="M525 443 L490 443 Q492 463 492 471 Q492 519 462 540.5 Q432 562 367 562 L291 562 Q279 562 277 548 L246 325 L316 325 Q350 325 374 352 Q398 379 405 426 L440 426 L407 191 L372 191 Q373 197 373 210 Q373 245 355.5 267.5 Q338 290 311 290 L240 290 L207 49 L207 46 Q207 36 216 36 L325 36 Q392 36 432.5 73 Q473 110 483 179 L518 179 L493 -3 Q471 0 398 0 L8 0 L14 38 L49 35 Q67 35 70 57 L138 541 L138 545 Q138 553 133.5 557.5 Q129 562 122 562 L87 560 L92 597 L530 597 Q543 597 547 598 L525 443 Z M474 724 L467 677 L227 677 L234 724 L474 724 Z " />
<glyph glyph-name="Eogonek" unicode="&#x118;" horiz-adv-x="566" d="M490 443 Q492 463 492 471 Q492 519 462 540.5 Q432 562 367 562 L291 562 Q279 562 277 548 L246 325 L316 325 Q350 325 374 352 Q398 379 405 426 L440 426 L407 191 L372 191 Q373 197 373 210 Q373 245 355.5 267.5 Q338 290 311 290 L240 290 L207 49 L207 46 Q207 36 216 36 L325 36 Q392 36 432.5 73 Q473 110 483 179 L518 179 L493 -3 L429 0 Q398 -25 398 -61 Q398 -79 409 -90 Q420 -101 442 -101 Q475 -101 513 -79 L523 -99 Q494 -128 462 -143.5 Q430 -159 398 -159 Q368 -159 347 -142.5 Q326 -126 326 -96 Q326 -69 342.5 -44 Q359 -19 389 0 L8 0 L14 38 L49 35 Q67 35 70 57 L138 541 L138 545 Q138 553 133.5 557.5 Q129 562 122 562 L87 560 L92 597 L530 597 Q543 597 547 598 L525 443 L490 443 Z " />
<glyph glyph-name="F" unicode="F" horiz-adv-x="525" d="M535 443 L500 443 Q503 460 503 473 Q503 519 472 540.5 Q441 562 377 562 L291 562 Q278 562 277 549 L244 315 L310 315 Q346 315 371 342.5 Q396 370 403 417 L438 417 L405 180 L370 180 Q371 187 371 201 Q371 238 353.5 259 Q336 280 306 280 L239 280 L208 56 L208 52 Q208 44 212 39.5 Q216 35 223 35 L276 38 L270 0 L8 0 L14 38 L49 35 Q67 35 70 57 L138 541 L138 547 Q138 562 125 562 L87 560 L92 597 L542 597 Q553 597 557 598 L535 443 Z " />
<glyph glyph-name="G" unicode="G" horiz-adv-x="646" d="M397 607 Q441 607 474 599.5 Q507 592 548 579 Q552 578 573 571 Q594 564 611 564 Q595 504 591 426 L540 426 Q544 435 544 449 Q549 510 512.5 542.5 Q476 575 403 575 Q336 575 287 530.5 Q238 486 211.5 404.5 Q185 323 185 214 Q185 119 218.5 72 Q252 25 316 25 Q347 25 370.5 34.5 Q394 44 418 68 L439 216 L439 222 Q439 238 424 238 L365 236 L370 272 L636 272 L631 236 L598 238 Q591 238 585 231.5 Q579 225 577 217 L552 35 Q540 37 533 37 Q520 37 504 32.5 Q488 28 471 22 Q431 7 393 -1.5 Q355 -10 303 -10 Q177 -10 107.5 54.5 Q38 119 38 244 Q38 418 133 512.5 Q228 607 397 607 Z " />
<glyph glyph-name="Gbreve" unicode="&#x11e;" horiz-adv-x="646" d="M397 607 Q441 607 474 599.5 Q507 592 548 579 Q552 578 573 571 Q594 564 611 564 Q595 504 591 426 L540 426 Q544 435 544 449 Q549 510 512.5 542.5 Q476 575 403 575 Q336 575 287 530.5 Q238 486 211.5 404.5 Q185 323 185 214 Q185 119 218.5 72 Q252 25 316 25 Q347 25 370.5 34.5 Q394 44 418 68 L439 216 L439 222 Q439 238 424 238 L365 236 L370 272 L636 272 L631 236 L598 238 Q591 238 585 231.5 Q579 225 577 217 L552 35 Q540 37 533 37 Q520 37 504 32.5 Q488 28 471 22 Q431 7 393 -1.5 Q355 -10 303 -10 Q177 -10 107.5 54.5 Q38 119 38 244 Q38 418 133 512.5 Q228 607 397 607 Z M536 790 Q526 732 484.5 695.5 Q443 659 384 659 Q330 659 299.5 689.5 Q269 720 269 770 Q269 783 270 790 L317 790 Q320 762 337.5 743 Q355 724 393 724 Q430 724 454.5 743.5 Q479 763 489 790 L536 790 Z " />
<glyph glyph-name="Gcommaaccent" unicode="&#x122;" horiz-adv-x="646" d="M397 607 Q441 607 474 599.5 Q507 592 548 579 Q552 578 573 571 Q594 564 611 564 Q595 504 591 426 L540 426 Q544 435 544 449 Q549 510 512.5 542.5 Q476 575 403 575 Q336 575 287 530.5 Q238 486 211.5 404.5 Q185 323 185 214 Q185 119 218.5 72 Q252 25 316 25 Q347 25 370.5 34.5 Q394 44 418 68 L439 216 L439 222 Q439 238 424 238 L365 236 L370 272 L636 272 L631 236 L598 238 Q591 238 585 231.5 Q579 225 577 217 L552 35 Q540 37 533 37 Q520 37 504 32.5 Q488 28 471 22 Q431 7 393 -1.5 Q355 -10 303 -10 Q177 -10 107.5 54.5 Q38 119 38 244 Q38 418 133 512.5 Q228 607 397 607 Z M298 -34 Q330 -34 349 -54 Q368 -74 368 -102 Q368 -148 332.5 -188.5 Q297 -229 248 -251 L231 -229 Q253 -216 269.5 -198.5 Q286 -181 286 -166 Q287 -141 262 -141 Q246 -141 236.5 -129 Q227 -117 227 -99 Q227 -74 245.5 -54 Q264 -34 298 -34 Z " />
<glyph glyph-name="H" unicode="H" horiz-adv-x="691" d="M701 560 L666 562 Q657 562 651.5 556 Q646 550 645 541 L576 57 L576 51 Q576 34 592 35 L627 37 L622 0 L363 0 L368 37 L417 35 Q435 35 438 57 L471 287 L240 287 L208 57 L208 52 Q208 35 224 35 L273 37 L268 0 L8 0 L13 37 L48 35 L50 35 Q67 35 70 57 L138 541 L139 547 Q139 554 135 558.5 Q131 563 123 562 L87 560 L92 597 L352 597 L347 560 L299 562 Q289 562 283 556 Q277 550 276 541 L245 322 L476 322 L507 541 L507 545 Q507 562 491 562 L442 560 L447 597 L706 597 L701 560 Z " />
<glyph glyph-name="I" unicode="I" horiz-adv-x="323" d="M333 560 L299 562 Q290 562 283.5 556 Q277 550 276 541 L208 57 L208 52 Q208 33 224 35 L259 37 L255 0 L8 0 L13 37 L48 35 L50 35 Q67 35 70 57 L138 541 L138 546 Q138 553 134 557.5 Q130 562 123 562 L87 560 L92 597 L339 597 L333 560 Z " />
<glyph glyph-name="IJ" unicode="&#x132;" horiz-adv-x="778" d="M333 560 L299 562 Q290 562 283.5 556 Q277 550 276 541 L208 57 L208 52 Q208 33 224 35 L259 37 L255 0 L8 0 L13 37 L48 35 L50 35 Q67 35 70 57 L138 541 L138 546 Q138 553 134 557.5 Q130 562 123 562 L87 560 L92 597 L339 597 L333 560 Z M793 560 L760 562 Q751 562 745 556.5 Q739 551 737 542 L686 179 Q659 -10 466 -10 Q436 -10 391 -1 Q361 5 353 5 Q325 5 316 -2 L341 172 L385 172 Q382 153 382 130 Q382 85 397.5 54.5 Q413 24 448 24 Q490 24 513 59 Q536 94 548 179 L599 541 L599 545 Q599 562 584 562 L514 560 L520 597 L799 597 L793 560 Z " />
<glyph glyph-name="Iacute" unicode="&#xcd;" horiz-adv-x="323" d="M333 560 L299 562 Q290 562 283.5 556 Q277 550 276 541 L208 57 L208 52 Q208 33 224 35 L259 37 L255 0 L8 0 L13 37 L48 35 L50 35 Q67 35 70 57 L138 541 L138 546 Q138 553 134 557.5 Q130 562 123 562 L87 560 L92 597 L339 597 L333 560 Z M376 790 Q376 780 361 772 L182 669 Q169 660 157 660 Q147 660 147 669 Q147 675 151 680.5 Q155 686 167 697 L275 802 Q292 818 298 822 Q304 826 314 826 Q331 826 353.5 813 Q376 800 376 790 Z " />
<glyph glyph-name="Icircumflex" unicode="&#xce;" horiz-adv-x="323" d="M333 560 L299 562 Q290 562 283.5 556 Q277 550 276 541 L208 57 L208 52 Q208 33 224 35 L259 37 L255 0 L8 0 L13 37 L48 35 L50 35 Q67 35 70 57 L138 541 L138 546 Q138 553 134 557.5 Q130 562 123 562 L87 560 L92 597 L339 597 L333 560 Z M75 666 Q64 666 64 673 Q64 679 97 707 Q127 733 150 756 L203 804 Q223 822 239 822 Q255 822 269 804 L308 756 Q327 730 351 704 Q360 694 366 686 Q372 678 372 675 Q372 666 358 666 Q344 666 327 678 L227 744 L109 678 Q90 666 75 666 Z " />
<glyph glyph-name="Idieresis" unicode="&#xcf;" horiz-adv-x="323" d="M333 560 L299 562 Q290 562 283.5 556 Q277 550 276 541 L208 57 L208 52 Q208 33 224 35 L259 37 L255 0 L8 0 L13 37 L48 35 L50 35 Q67 35 70 57 L138 541 L138 546 Q138 553 134 557.5 Q130 562 123 562 L87 560 L92 597 L339 597 L333 560 Z M138 802 Q170 802 189 787.5 Q208 773 208 749 Q208 715 184 696 Q160 677 121 677 Q90 677 71 691.5 Q52 706 52 730 Q52 762 76.5 782 Q101 802 138 802 Z M332 802 Q364 802 383 787.5 Q402 773 402 749 Q402 715 378 696 Q354 677 315 677 Q284 677 265 691.5 Q246 706 246 730 Q246 762 270.5 782 Q295 802 332 802 Z " />
<glyph glyph-name="Idot" unicode="&#x130;" horiz-adv-x="323" d="M333 560 L299 562 Q290 562 283.5 556 Q277 550 276 541 L208 57 L208 52 Q208 33 224 35 L259 37 L255 0 L8 0 L13 37 L48 35 L50 35 Q67 35 70 57 L138 541 L138 546 Q138 553 134 557.5 Q130 562 123 562 L87 560 L92 597 L339 597 L333 560 Z M234 804 Q266 804 285 789.5 Q304 775 304 751 Q304 717 280 698 Q256 679 217 679 Q186 679 167 693.5 Q148 708 148 732 Q148 764 172.5 784 Q197 804 234 804 Z " />
<glyph glyph-name="Igrave" unicode="&#xcc;" horiz-adv-x="323" d="M333 560 L299 562 Q290 562 283.5 556 Q277 550 276 541 L208 57 L208 52 Q208 33 224 35 L259 37 L255 0 L8 0 L13 37 L48 35 L50 35 Q67 35 70 57 L138 541 L138 546 Q138 553 134 557.5 Q130 562 123 562 L87 560 L92 597 L339 597 L333 560 Z M164 826 Q174 826 178.5 822.5 Q183 819 195 802 L277 696 Q282 688 285.5 682 Q289 676 288 670 Q286 660 274 660 Q264 660 251 669 L101 772 Q91 779 91 789 Q92 799 119 812.5 Q146 826 164 826 Z " />
<glyph glyph-name="Imacron" unicode="&#x12a;" horiz-adv-x="323" d="M333 560 L299 562 Q290 562 283.5 556 Q277 550 276 541 L208 57 L208 52 Q208 33 224 35 L259 37 L255 0 L8 0 L13 37 L48 35 L50 35 Q67 35 70 57 L138 541 L138 546 Q138 553 134 557.5 Q130 562 123 562 L87 560 L92 597 L339 597 L333 560 Z M343 724 L336 677 L96 677 L103 724 L343 724 Z " />
<glyph glyph-name="Iogonek" unicode="&#x12e;" horiz-adv-x="323" d="M339 597 L333 560 L299 562 Q290 562 283.5 556 Q277 550 276 541 L208 57 L208 52 Q208 33 224 35 L259 37 L255 0 L197 0 Q166 -25 166 -61 Q166 -79 177 -90 Q188 -101 210 -101 Q243 -101 281 -79 L291 -99 Q262 -128 230 -143.5 Q198 -159 166 -159 Q136 -159 115 -142.5 Q94 -126 94 -96 Q94 -69 110.5 -44 Q127 -19 157 0 L8 0 L13 37 L48 35 L50 35 Q67 35 70 57 L138 541 L138 546 Q138 553 134 557.5 Q130 562 123 562 L87 560 L92 597 L339 597 Z " />
<glyph glyph-name="J" unicode="J" horiz-adv-x="455" d="M470 560 L437 562 Q428 562 422 556.5 Q416 551 414 542 L363 179 Q336 -10 143 -10 Q113 -10 68 -1 Q38 5 30 5 Q2 5 -7 -2 L18 172 L62 172 Q59 153 59 130 Q59 85 74.5 54.5 Q90 24 125 24 Q167 24 190 59 Q213 94 225 179 L276 541 L276 545 Q276 562 261 562 L191 560 L197 597 L476 597 L470 560 Z " />
<glyph glyph-name="K" unicode="K" horiz-adv-x="634" d="M600 562 Q585 563 571.5 557 Q558 551 540 533 L380 373 L551 48 Q559 34 573 34 Q588 34 603 37 L598 0 L314 0 L319 37 L363 34 L365 34 Q373 34 378 37.5 Q383 41 383 47 Q383 52 380 59 L272 265 L231 224 L208 57 L208 52 Q208 33 224 35 L269 37 L265 0 L8 0 L13 37 L48 35 L50 35 Q67 35 70 57 L138 541 L138 546 Q138 553 134 557.5 Q130 562 123 562 L87 560 L92 597 L352 597 L347 560 L299 562 Q279 562 275 540 L239 279 L484 529 Q501 548 501 555 Q501 562 493 562 L456 560 L462 597 L640 597 L635 560 L600 562 Z " />
<glyph glyph-name="Kcommaaccent" unicode="&#x136;" horiz-adv-x="634" d="M600 562 Q585 563 571.5 557 Q558 551 540 533 L380 373 L551 48 Q559 34 573 34 Q588 34 603 37 L598 0 L314 0 L319 37 L363 34 L365 34 Q373 34 378 37.5 Q383 41 383 47 Q383 52 380 59 L272 265 L231 224 L208 57 L208 52 Q208 33 224 35 L269 37 L265 0 L8 0 L13 37 L48 35 L50 35 Q67 35 70 57 L138 541 L138 546 Q138 553 134 557.5 Q130 562 123 562 L87 560 L92 597 L352 597 L347 560 L299 562 Q279 562 275 540 L239 279 L484 529 Q501 548 501 555 Q501 562 493 562 L456 560 L462 597 L640 597 L635 560 L600 562 Z M291 -34 Q323 -34 342 -54 Q361 -74 361 -102 Q361 -148 325.5 -188.5 Q290 -229 241 -251 L224 -229 Q246 -216 262.5 -198.5 Q279 -181 279 -166 Q280 -141 255 -141 Q239 -141 229.5 -129 Q220 -117 220 -99 Q220 -74 238.5 -54 Q257 -34 291 -34 Z " />
<glyph glyph-name="L" unicode="L" horiz-adv-x="510" d="M347 560 L299 562 Q290 562 283.5 556 Q277 550 276 541 L207 49 L207 46 Q207 36 216 36 L298 36 Q362 36 400.5 70.5 Q439 105 448 171 L482 171 L458 -3 Q440 0 335 0 L8 0 L14 38 L52 35 Q60 35 64.5 41 Q69 47 70 57 L138 541 L138 545 Q138 552 134 557 Q130 562 123 562 L87 560 L92 597 L352 597 L347 560 Z " />
<glyph glyph-name="Lacute" unicode="&#x139;" horiz-adv-x="510" d="M347 560 L299 562 Q290 562 283.5 556 Q277 550 276 541 L207 49 L207 46 Q207 36 216 36 L298 36 Q362 36 400.5 70.5 Q439 105 448 171 L482 171 L458 -3 Q440 0 335 0 L8 0 L14 38 L52 35 Q60 35 64.5 41 Q69 47 70 57 L138 541 L138 545 Q138 552 134 557 Q130 562 123 562 L87 560 L92 597 L352 597 L347 560 Z M385 790 Q385 780 370 772 L191 669 Q178 660 166 660 Q156 660 156 669 Q156 675 160 680.5 Q164 686 176 697 L284 802 Q301 818 307 822 Q313 826 323 826 Q340 826 362.5 813 Q385 800 385 790 Z " />
<glyph glyph-name="Lcaron" unicode="&#x13d;" horiz-adv-x="510" d="M347 560 L299 562 Q290 562 283.5 556 Q277 550 276 541 L207 49 L207 46 Q207 36 216 36 L298 36 Q362 36 400.5 70.5 Q439 105 448 171 L482 171 L458 -3 Q440 0 335 0 L8 0 L14 38 L52 35 Q60 35 64.5 41 Q69 47 70 57 L138 541 L138 545 Q138 552 134 557 Q130 562 123 562 L87 560 L92 597 L352 597 L347 560 Z M456 630 Q483 630 500 613 Q517 596 517 569 Q517 529 484.5 492.5 Q452 456 410 438 L392 460 Q437 488 437 514 L437 516 Q437 533 419 533 Q403 533 394.5 542.5 Q386 552 386 569 Q386 596 406.5 613 Q427 630 456 630 Z " />
<glyph glyph-name="Lcommaaccent" unicode="&#x13b;" horiz-adv-x="510" d="M347 560 L299 562 Q290 562 283.5 556 Q277 550 276 541 L207 49 L207 46 Q207 36 216 36 L298 36 Q362 36 400.5 70.5 Q439 105 448 171 L482 171 L458 -3 Q440 0 335 0 L8 0 L14 38 L52 35 Q60 35 64.5 41 Q69 47 70 57 L138 541 L138 545 Q138 552 134 557 Q130 562 123 562 L87 560 L92 597 L352 597 L347 560 Z M208 -34 Q240 -34 259 -54 Q278 -74 278 -102 Q278 -148 242.5 -188.5 Q207 -229 158 -251 L141 -229 Q163 -216 179.5 -198.5 Q196 -181 196 -166 Q197 -141 172 -141 Q156 -141 146.5 -129 Q137 -117 137 -99 Q137 -74 155.5 -54 Q174 -34 208 -34 Z " />
<glyph glyph-name="Ldot" unicode="&#x13f;" horiz-adv-x="510" d="M347 560 L299 562 Q290 562 283.5 556 Q277 550 276 541 L207 49 L207 46 Q207 36 216 36 L298 36 Q362 36 400.5 70.5 Q439 105 448 171 L482 171 L458 -3 Q440 0 335 0 L8 0 L14 38 L52 35 Q60 35 64.5 41 Q69 47 70 57 L138 541 L138 545 Q138 552 134 557 Q130 562 123 562 L87 560 L92 597 L352 597 L347 560 Z M335 335 Q335 373 364 396 Q393 419 437 419 Q475 419 497.5 401.5 Q520 384 520 353 Q520 315 491 292 Q462 269 417 269 Q379 269 357 286.5 Q335 304 335 335 Z " />
<glyph glyph-name="Lslash" unicode="&#x141;" horiz-adv-x="498" d="M482 171 L458 -3 Q440 0 335 0 L8 0 L14 38 L52 35 Q60 35 64.5 41 Q69 47 70 57 L92 211 L42 173 L49 220 L98 258 L138 541 L138 545 Q138 552 134 557 Q130 562 123 562 L87 560 L92 597 L352 597 L347 560 L299 562 Q290 562 283.5 556 Q277 550 276 541 L252 372 L321 425 L314 377 L246 324 L207 49 L207 46 Q207 36 216 36 L298 36 Q362 36 400.5 70.5 Q439 105 448 171 L482 171 Z " />
<glyph glyph-name="M" unicode="M" horiz-adv-x="877" d="M883 560 L853 562 Q844 562 838 556 Q832 550 831 542 L762 57 L762 52 Q762 33 779 35 L814 37 L809 0 L549 0 L554 37 L603 35 Q622 35 625 57 L688 502 L389 -10 L357 -10 L177 525 L112 57 L112 50 Q112 35 127 35 L176 37 L171 0 L3 0 L8 37 L47 35 Q67 35 70 57 L140 556 Q140 562 132 562 L89 560 L94 597 L300 597 L445 160 L702 597 L888 597 L883 560 Z " />
<glyph glyph-name="N" unicode="N" horiz-adv-x="672" d="M689 567 L648 569 Q631 569 628 548 L550 -6 L490 -6 L177 524 L111 49 L111 43 Q111 27 126 27 L175 29 L171 0 L3 0 L7 29 L46 27 Q66 27 69 49 L139 553 Q139 560 134.5 565 Q130 570 122 569 L83 567 L87 597 L293 597 L535 184 L586 549 L586 554 Q586 569 573 569 L521 567 L525 597 L693 597 L689 567 Z " />
<glyph glyph-name="Nacute" unicode="&#x143;" horiz-adv-x="672" d="M689 567 L648 569 Q631 569 628 548 L550 -6 L490 -6 L177 524 L111 49 L111 43 Q111 27 126 27 L175 29 L171 0 L3 0 L7 29 L46 27 Q66 27 69 49 L139 553 Q139 560 134.5 565 Q130 570 122 569 L83 567 L87 597 L293 597 L535 184 L586 549 L586 554 Q586 569 573 569 L521 567 L525 597 L693 597 L689 567 Z M545 790 Q545 780 530 772 L351 669 Q338 660 326 660 Q316 660 316 669 Q316 675 320 680.5 Q324 686 336 697 L444 802 Q461 818 467 822 Q473 826 483 826 Q500 826 522.5 813 Q545 800 545 790 Z " />
<glyph glyph-name="Ncaron" unicode="&#x147;" horiz-adv-x="672" d="M689 567 L648 569 Q631 569 628 548 L550 -6 L490 -6 L177 524 L111 49 L111 43 Q111 27 126 27 L175 29 L171 0 L3 0 L7 29 L46 27 Q66 27 69 49 L139 553 Q139 560 134.5 565 Q130 570 122 569 L83 567 L87 597 L293 597 L535 184 L586 549 L586 554 Q586 569 573 569 L521 567 L525 597 L693 597 L689 567 Z M548 824 Q559 824 559 817 Q559 811 526 783 Q496 757 473 734 L420 686 Q400 668 384 668 Q367 668 354 686 L315 734 Q296 760 272 786 Q263 796 257 804 Q251 812 251 815 Q251 824 265 824 Q279 824 296 812 L396 746 L514 812 Q533 824 548 824 Z " />
<glyph glyph-name="Ncommaaccent" unicode="&#x145;" horiz-adv-x="672" d="M689 567 L648 569 Q631 569 628 548 L550 -6 L490 -6 L177 524 L111 49 L111 43 Q111 27 126 27 L175 29 L171 0 L3 0 L7 29 L46 27 Q66 27 69 49 L139 553 Q139 560 134.5 565 Q130 570 122 569 L83 567 L87 597 L293 597 L535 184 L586 549 L586 554 Q586 569 573 569 L521 567 L525 597 L693 597 L689 567 Z M316 -34 Q348 -34 367 -54 Q386 -74 386 -102 Q386 -148 350.5 -188.5 Q315 -229 266 -251 L249 -229 Q271 -216 287.5 -198.5 Q304 -181 304 -166 Q305 -141 280 -141 Q264 -141 254.5 -129 Q245 -117 245 -99 Q245 -74 263.5 -54 Q282 -34 316 -34 Z " />
<glyph glyph-name="Ntilde" unicode="&#xd1;" horiz-adv-x="672" d="M689 567 L648 569 Q631 569 628 548 L550 -6 L490 -6 L177 524 L111 49 L111 43 Q111 27 126 27 L175 29 L171 0 L3 0 L7 29 L46 27 Q66 27 69 49 L139 553 Q139 560 134.5 565 Q130 570 122 569 L83 567 L87 597 L293 597 L535 184 L586 549 L586 554 Q586 569 573 569 L521 567 L525 597 L693 597 L689 567 Z M322 771 Q339 771 358.5 765.5 Q378 760 408 750 Q427 743 446 737.5 Q465 732 477 732 Q491 732 502 742.5 Q513 753 515 770 L543 770 Q537 725 517 698 Q497 671 465 671 Q448 671 427.5 676.5 Q407 682 378 693 Q359 700 340.5 705.5 Q322 711 310 711 Q296 711 285 700.5 Q274 690 272 672 L244 672 Q250 717 270 744 Q290 771 322 771 Z " />
<glyph glyph-name="O" unicode="O" horiz-adv-x="677" d="M39 254 Q39 366 86 446 Q133 526 213.5 566.5 Q294 607 393 607 Q518 607 590 543 Q662 479 662 345 Q662 234 615 153.5 Q568 73 487.5 31.5 Q407 -10 308 -10 Q184 -10 111.5 54.5 Q39 119 39 254 Z M185 188 Q186 109 215 67 Q244 25 317 25 Q381 25 418 60 Q455 95 477 161 Q495 215 505.5 280.5 Q516 346 516 401 Q516 481 487.5 527 Q459 573 386 573 Q319 573 280.5 534.5 Q242 496 220 425 Q203 371 194 307.5 Q185 244 185 188 Z " />
<glyph glyph-name="Oacute" unicode="&#xd3;" horiz-adv-x="677" d="M39 254 Q39 366 86 446 Q133 526 213.5 566.5 Q294 607 393 607 Q518 607 590 543 Q662 479 662 345 Q662 234 615 153.5 Q568 73 487.5 31.5 Q407 -10 308 -10 Q184 -10 111.5 54.5 Q39 119 39 254 Z M185 188 Q186 109 215 67 Q244 25 317 25 Q381 25 418 60 Q455 95 477 161 Q495 215 505.5 280.5 Q516 346 516 401 Q516 481 487.5 527 Q459 573 386 573 Q319 573 280.5 534.5 Q242 496 220 425 Q203 371 194 307.5 Q185 244 185 188 Z M552 790 Q552 780 537 772 L358 669 Q345 660 333 660 Q323 660 323 669 Q323 675 327 680.5 Q331 686 343 697 L451 802 Q468 818 474 822 Q480 826 490 826 Q507 826 529.5 813 Q552 800 552 790 Z " />
<glyph glyph-name="Ocircumflex" unicode="&#xd4;" horiz-adv-x="677" d="M39 254 Q39 366 86 446 Q133 526 213.5 566.5 Q294 607 393 607 Q518 607 590 543 Q662 479 662 345 Q662 234 615 153.5 Q568 73 487.5 31.5 Q407 -10 308 -10 Q184 -10 111.5 54.5 Q39 119 39 254 Z M185 188 Q186 109 215 67 Q244 25 317 25 Q381 25 418 60 Q455 95 477 161 Q495 215 505.5 280.5 Q516 346 516 401 Q516 481 487.5 527 Q459 573 386 573 Q319 573 280.5 534.5 Q242 496 220 425 Q203 371 194 307.5 Q185 244 185 188 Z M251 666 Q240 666 240 673 Q240 679 273 707 Q303 733 326 756 L379 804 Q399 822 415 822 Q431 822 445 804 L484 756 Q503 730 527 704 Q536 694 542 686 Q548 678 548 675 Q548 666 534 666 Q520 666 503 678 L403 744 L285 678 Q266 666 251 666 Z " />
<glyph glyph-name="Odieresis" unicode="&#xd6;" horiz-adv-x="677" d="M39 254 Q39 366 86 446 Q133 526 213.5 566.5 Q294 607 393 607 Q518 607 590 543 Q662 479 662 345 Q662 234 615 153.5 Q568 73 487.5 31.5 Q407 -10 308 -10 Q184 -10 111.5 54.5 Q39 119 39 254 Z M185 188 Q186 109 215 67 Q244 25 317 25 Q381 25 418 60 Q455 95 477 161 Q495 215 505.5 280.5 Q516 346 516 401 Q516 481 487.5 527 Q459 573 386 573 Q319 573 280.5 534.5 Q242 496 220 425 Q203 371 194 307.5 Q185 244 185 188 Z M314 802 Q346 802 365 787.5 Q384 773 384 749 Q384 715 360 696 Q336 677 297 677 Q266 677 247 691.5 Q228 706 228 730 Q228 762 252.5 782 Q277 802 314 802 Z M508 802 Q540 802 559 787.5 Q578 773 578 749 Q578 715 554 696 Q530 677 491 677 Q460 677 441 691.5 Q422 706 422 730 Q422 762 446.5 782 Q471 802 508 802 Z " />
<glyph glyph-name="Ograve" unicode="&#xd2;" horiz-adv-x="677" d="M39 254 Q39 366 86 446 Q133 526 213.5 566.5 Q294 607 393 607 Q518 607 590 543 Q662 479 662 345 Q662 234 615 153.5 Q568 73 487.5 31.5 Q407 -10 308 -10 Q184 -10 111.5 54.5 Q39 119 39 254 Z M185 188 Q186 109 215 67 Q244 25 317 25 Q381 25 418 60 Q455 95 477 161 Q495 215 505.5 280.5 Q516 346 516 401 Q516 481 487.5 527 Q459 573 386 573 Q319 573 280.5 534.5 Q242 496 220 425 Q203 371 194 307.5 Q185 244 185 188 Z M340 826 Q350 826 354.5 822.5 Q359 819 371 802 L453 696 Q458 688 461.5 682 Q465 676 464 670 Q462 660 450 660 Q440 660 427 669 L277 772 Q267 779 267 789 Q268 799 295 812.5 Q322 826 340 826 Z " />
<glyph glyph-name="Ohungarumlaut" unicode="&#x150;" horiz-adv-x="677" d="M39 254 Q39 366 86 446 Q133 526 213.5 566.5 Q294 607 393 607 Q518 607 590 543 Q662 479 662 345 Q662 234 615 153.5 Q568 73 487.5 31.5 Q407 -10 308 -10 Q184 -10 111.5 54.5 Q39 119 39 254 Z M185 188 Q186 109 215 67 Q244 25 317 25 Q381 25 418 60 Q455 95 477 161 Q495 215 505.5 280.5 Q516 346 516 401 Q516 481 487.5 527 Q459 573 386 573 Q319 573 280.5 534.5 Q242 496 220 425 Q203 371 194 307.5 Q185 244 185 188 Z M383 826 Q400 826 423.5 817.5 Q447 809 447 799 Q447 794 439 786 Q417 766 310 677 Q296 665 284 665 Q274 665 274 673 Q274 678 279 685 Q359 805 369 817 Q376 826 383 826 Z M509 826 Q526 826 549 817.5 Q572 809 572 799 Q572 794 564 786 Q554 776 435 677 Q421 665 409 665 Q399 665 399 673 Q399 678 404 685 L472 785 Q493 816 494 817 Q498 822 501 824 Q504 826 509 826 Z " />
<glyph glyph-name="Omacron" unicode="&#x14c;" horiz-adv-x="677" d="M39 254 Q39 366 86 446 Q133 526 213.5 566.5 Q294 607 393 607 Q518 607 590 543 Q662 479 662 345 Q662 234 615 153.5 Q568 73 487.5 31.5 Q407 -10 308 -10 Q184 -10 111.5 54.5 Q39 119 39 254 Z M185 188 Q186 109 215 67 Q244 25 317 25 Q381 25 418 60 Q455 95 477 161 Q495 215 505.5 280.5 Q516 346 516 401 Q516 481 487.5 527 Q459 573 386 573 Q319 573 280.5 534.5 Q242 496 220 425 Q203 371 194 307.5 Q185 244 185 188 Z M519 724 L512 677 L272 677 L279 724 L519 724 Z " />
<glyph glyph-name="Oslash" unicode="&#xd8;" horiz-adv-x="676" d="M564 564 Q662 498 662 345 Q662 234 615 153.5 Q568 73 487.5 31.5 Q407 -10 308 -10 Q229 -10 167 17 L86 -95 L45 -71 L127 42 Q39 109 39 254 Q39 366 86 446 Q133 526 213.5 566.5 Q294 607 393 607 Q465 607 520 586 L594 689 L635 662 L564 564 Z M185 188 Q185 160 190 130 L482 534 Q450 573 386 573 Q319 573 280.5 534.5 Q242 496 220 425 Q203 371 194 307.5 Q185 244 185 188 Z M477 161 Q495 215 505.5 280.5 Q516 346 516 401 Q516 453 507 485 L210 75 Q241 25 317 25 Q381 25 418 60 Q455 95 477 161 Z " />
<glyph glyph-name="Otilde" unicode="&#xd5;" horiz-adv-x="677" d="M39 254 Q39 366 86 446 Q133 526 213.5 566.5 Q294 607 393 607 Q518 607 590 543 Q662 479 662 345 Q662 234 615 153.5 Q568 73 487.5 31.5 Q407 -10 308 -10 Q184 -10 111.5 54.5 Q39 119 39 254 Z M185 188 Q186 109 215 67 Q244 25 317 25 Q381 25 418 60 Q455 95 477 161 Q495 215 505.5 280.5 Q516 346 516 401 Q516 481 487.5 527 Q459 573 386 573 Q319 573 280.5 534.5 Q242 496 220 425 Q203 371 194 307.5 Q185 244 185 188 Z M329 771 Q346 771 365.5 765.5 Q385 760 415 750 Q434 743 453 737.5 Q472 732 484 732 Q498 732 509 742.5 Q520 753 522 770 L550 770 Q544 725 524 698 Q504 671 472 671 Q455 671 434.5 676.5 Q414 682 385 693 Q366 700 347.5 705.5 Q329 711 317 711 Q303 711 292 700.5 Q281 690 279 672 L251 672 Q257 717 277 744 Q297 771 329 771 Z " />
<glyph glyph-name="OE" unicode="&#x152;" horiz-adv-x="887" d="M395 607 Q423 607 453 602 Q487 598 502 598 L870 598 L848 443 L813 443 Q815 463 815 471 Q815 519 785 540.5 Q755 562 690 562 L617 562 Q605 562 603 548 L572 325 L638 325 Q671 325 695.5 352 Q720 379 727 426 L762 426 L729 191 L694 191 Q695 197 695 210 Q695 245 677 267.5 Q659 290 632 290 L566 290 L533 48 L533 45 Q533 35 542 35 L645 35 Q712 35 752.5 72.5 Q793 110 803 179 L838 179 L813 -3 Q791 0 718 0 L415 0 Q335 -10 309 -10 Q178 -10 108.5 56.5 Q39 123 39 253 Q39 357 81 437 Q123 517 203.5 562 Q284 607 395 607 Z M388 573 Q317 573 277.5 533 Q238 493 216 420 Q199 367 191.5 305.5 Q184 244 184 187 Q185 110 214 67.5 Q243 25 315 25 Q379 25 400 78 L464 529 Q463 548 445.5 560.5 Q428 573 388 573 Z " />
<glyph glyph-name="P" unicode="P" horiz-adv-x="544" d="M353 597 Q454 597 503 562 Q552 527 552 456 Q552 395 524.5 347.5 Q497 300 446.5 274 Q396 248 331 248 L235 248 L208 57 L208 52 Q208 35 224 35 L273 37 L268 0 L8 0 L13 37 L48 35 L50 35 Q67 35 70 57 L138 540 L139 547 Q139 563 120 562 L87 560 L92 597 L353 597 Z M291 562 Q287 562 282.5 558.5 Q278 555 277 550 L239 284 L293 284 Q323 284 349 307 Q375 330 391 369.5 Q407 409 407 455 Q407 504 386.5 533 Q366 562 330 562 L291 562 Z " />
<glyph glyph-name="Thorn" unicode="&#xde;" horiz-adv-x="540" d="M348 567 L299 569 Q291 569 285 563 Q279 557 277 548 L270 496 L343 496 Q442 496 488.5 465.5 Q535 435 535 364 Q535 267 477 214.5 Q419 162 317 162 L223 162 L207 49 L207 43 Q207 26 223 27 L272 29 L268 0 L8 0 L12 29 L48 27 L50 27 Q65 27 69 49 L139 548 L139 553 Q139 560 135 565 Q131 570 124 569 L88 567 L92 597 L352 597 L348 567 Z M266 471 L228 201 L228 199 Q228 195 231.5 191.5 Q235 188 239 188 L284 188 Q312 188 337.5 210.5 Q363 233 378.5 273.5 Q394 314 394 364 Q394 416 372 443.5 Q350 471 309 471 L266 471 Z " />
<glyph glyph-name="Q" unicode="Q" horiz-adv-x="677" d="M549 -98 Q577 -98 627 -86 L634 -112 Q557 -179 496 -179 Q448 -179 403.5 -138.5 Q359 -98 308 -10 Q184 -10 111.5 54.5 Q39 119 39 254 Q39 366 86 446 Q133 526 213.5 566.5 Q294 607 393 607 Q518 607 590 543 Q662 479 662 345 Q662 208 591.5 118.5 Q521 29 406 1 Q446 -54 479 -76 Q512 -98 549 -98 Z M185 188 Q186 109 215 67 Q244 25 317 25 Q381 25 418 60 Q455 95 477 161 Q495 215 505.5 280.5 Q516 346 516 401 Q516 481 487.5 527 Q459 573 386 573 Q319 573 280.5 534.5 Q242 496 220 425 Q203 371 194 307.5 Q185 244 185 188 Z " />
<glyph glyph-name="R" unicode="R" horiz-adv-x="587" d="M350 597 Q446 597 493 565.5 Q540 534 540 470 Q540 404 500 359 Q460 314 392 295 Q444 288 469 255.5 Q494 223 494 170 L492 119 L490 74 Q490 53 496.5 43.5 Q503 34 519 34 Q531 34 540 40 L548 17 Q526 6 494.5 -2 Q463 -10 434 -10 Q394 -10 375 6.5 Q356 23 356 61 Q356 76 360 116 Q364 152 364 163 Q364 213 345 241.5 Q326 270 274 271 L238 271 L208 55 L208 50 Q208 35 224 35 L273 37 L268 0 L8 0 L13 37 L48 35 L50 35 Q67 35 70 57 L138 539 L138 543 Q138 562 120 562 L87 560 L92 597 L350 597 Z M291 562 Q278 562 277 552 L243 306 L305 306 Q347 306 375.5 350.5 Q404 395 404 466 Q404 516 383.5 539 Q363 562 322 562 L291 562 Z " />
<glyph glyph-name="Racute" unicode="&#x154;" horiz-adv-x="587" d="M350 597 Q446 597 493 565.5 Q540 534 540 470 Q540 404 500 359 Q460 314 392 295 Q444 288 469 255.5 Q494 223 494 170 L492 119 L490 74 Q490 53 496.5 43.5 Q503 34 519 34 Q531 34 540 40 L548 17 Q526 6 494.5 -2 Q463 -10 434 -10 Q394 -10 375 6.5 Q356 23 356 61 Q356 76 360 116 Q364 152 364 163 Q364 213 345 241.5 Q326 270 274 271 L238 271 L208 55 L208 50 Q208 35 224 35 L273 37 L268 0 L8 0 L13 37 L48 35 L50 35 Q67 35 70 57 L138 539 L138 543 Q138 562 120 562 L87 560 L92 597 L350 597 Z M291 562 Q278 562 277 552 L243 306 L305 306 Q347 306 375.5 350.5 Q404 395 404 466 Q404 516 383.5 539 Q363 562 322 562 L291 562 Z M516 790 Q516 780 501 772 L322 669 Q309 660 297 660 Q287 660 287 669 Q287 675 291 680.5 Q295 686 307 697 L415 802 Q432 818 438 822 Q444 826 454 826 Q471 826 493.5 813 Q516 800 516 790 Z " />
<glyph glyph-name="Rcaron" unicode="&#x158;" horiz-adv-x="587" d="M350 597 Q446 597 493 565.5 Q540 534 540 470 Q540 404 500 359 Q460 314 392 295 Q444 288 469 255.5 Q494 223 494 170 L492 119 L490 74 Q490 53 496.5 43.5 Q503 34 519 34 Q531 34 540 40 L548 17 Q526 6 494.5 -2 Q463 -10 434 -10 Q394 -10 375 6.5 Q356 23 356 61 Q356 76 360 116 Q364 152 364 163 Q364 213 345 241.5 Q326 270 274 271 L238 271 L208 55 L208 50 Q208 35 224 35 L273 37 L268 0 L8 0 L13 37 L48 35 L50 35 Q67 35 70 57 L138 539 L138 543 Q138 562 120 562 L87 560 L92 597 L350 597 Z M291 562 Q278 562 277 552 L243 306 L305 306 Q347 306 375.5 350.5 Q404 395 404 466 Q404 516 383.5 539 Q363 562 322 562 L291 562 Z M519 824 Q530 824 530 817 Q530 811 497 783 Q467 757 444 734 L391 686 Q371 668 355 668 Q338 668 325 686 L286 734 Q267 760 243 786 Q234 796 228 804 Q222 812 222 815 Q222 824 236 824 Q250 824 267 812 L367 746 L485 812 Q504 824 519 824 Z " />
<glyph glyph-name="Rcommaaccent" unicode="&#x156;" horiz-adv-x="587" d="M350 597 Q446 597 493 565.5 Q540 534 540 470 Q540 404 500 359 Q460 314 392 295 Q444 288 469 255.5 Q494 223 494 170 L492 119 L490 74 Q490 53 496.5 43.5 Q503 34 519 34 Q531 34 540 40 L548 17 Q526 6 494.5 -2 Q463 -10 434 -10 Q394 -10 375 6.5 Q356 23 356 61 Q356 76 360 116 Q364 152 364 163 Q364 213 345 241.5 Q326 270 274 271 L238 271 L208 55 L208 50 Q208 35 224 35 L273 37 L268 0 L8 0 L13 37 L48 35 L50 35 Q67 35 70 57 L138 539 L138 543 Q138 562 120 562 L87 560 L92 597 L350 597 Z M291 562 Q278 562 277 552 L243 306 L305 306 Q347 306 375.5 350.5 Q404 395 404 466 Q404 516 383.5 539 Q363 562 322 562 L291 562 Z M264 -34 Q296 -34 315 -54 Q334 -74 334 -102 Q334 -148 298.5 -188.5 Q263 -229 214 -251 L197 -229 Q219 -216 235.5 -198.5 Q252 -181 252 -166 Q253 -141 228 -141 Q212 -141 202.5 -129 Q193 -117 193 -99 Q193 -74 211.5 -54 Q230 -34 264 -34 Z " />
<glyph glyph-name="S" unicode="S" horiz-adv-x="496" d="M303 607 Q336 607 358.5 602 Q381 597 403.5 589 Q426 581 435 578 Q452 572 463 572 Q481 572 493 576 Q485 542 479.5 516 Q474 490 474 459 Q474 446 476 434 L442 434 Q443 441 443 455 Q443 508 407.5 540.5 Q372 573 314 573 Q265 573 230 550 Q195 527 195 484 Q195 452 216 429 Q237 406 282 382 L343 347 Q408 311 437.5 277.5 Q467 244 467 189 Q467 134 438.5 88.5 Q410 43 354.5 16.5 Q299 -10 223 -10 Q184 -10 132 3 Q75 18 59 18 Q48 18 34.5 16 Q21 14 16 12 Q40 87 40 178 Q40 199 38 200 L72 203 Q70 116 109.5 71 Q149 26 219 26 Q270 26 305 53 Q340 80 340 122 Q340 156 318 180.5 Q296 205 251 229 L182 265 Q131 292 103.5 329 Q76 366 76 420 Q76 472 102.5 514.5 Q129 557 180 582 Q231 607 303 607 Z " />
<glyph glyph-name="Sacute" unicode="&#x15a;" horiz-adv-x="496" d="M303 607 Q336 607 358.5 602 Q381 597 403.5 589 Q426 581 435 578 Q452 572 463 572 Q481 572 493 576 Q485 542 479.5 516 Q474 490 474 459 Q474 446 476 434 L442 434 Q443 441 443 455 Q443 508 407.5 540.5 Q372 573 314 573 Q265 573 230 550 Q195 527 195 484 Q195 452 216 429 Q237 406 282 382 L343 347 Q408 311 437.5 277.5 Q467 244 467 189 Q467 134 438.5 88.5 Q410 43 354.5 16.5 Q299 -10 223 -10 Q184 -10 132 3 Q75 18 59 18 Q48 18 34.5 16 Q21 14 16 12 Q40 87 40 178 Q40 199 38 200 L72 203 Q70 116 109.5 71 Q149 26 219 26 Q270 26 305 53 Q340 80 340 122 Q340 156 318 180.5 Q296 205 251 229 L182 265 Q131 292 103.5 329 Q76 366 76 420 Q76 472 102.5 514.5 Q129 557 180 582 Q231 607 303 607 Z M479 790 Q479 780 464 772 L285 669 Q272 660 260 660 Q250 660 250 669 Q250 675 254 680.5 Q258 686 270 697 L378 802 Q395 818 401 822 Q407 826 417 826 Q434 826 456.5 813 Q479 800 479 790 Z " />
<glyph glyph-name="Scaron" unicode="&#x160;" horiz-adv-x="496" d="M303 607 Q336 607 358.5 602 Q381 597 403.5 589 Q426 581 435 578 Q452 572 463 572 Q481 572 493 576 Q485 542 479.5 516 Q474 490 474 459 Q474 446 476 434 L442 434 Q443 441 443 455 Q443 508 407.5 540.5 Q372 573 314 573 Q265 573 230 550 Q195 527 195 484 Q195 452 216 429 Q237 406 282 382 L343 347 Q408 311 437.5 277.5 Q467 244 467 189 Q467 134 438.5 88.5 Q410 43 354.5 16.5 Q299 -10 223 -10 Q184 -10 132 3 Q75 18 59 18 Q48 18 34.5 16 Q21 14 16 12 Q40 87 40 178 Q40 199 38 200 L72 203 Q70 116 109.5 71 Q149 26 219 26 Q270 26 305 53 Q340 80 340 122 Q340 156 318 180.5 Q296 205 251 229 L182 265 Q131 292 103.5 329 Q76 366 76 420 Q76 472 102.5 514.5 Q129 557 180 582 Q231 607 303 607 Z M482 824 Q493 824 493 817 Q493 811 460 783 Q430 757 407 734 L354 686 Q334 668 318 668 Q301 668 288 686 L249 734 Q230 760 206 786 Q197 796 191 804 Q185 812 185 815 Q185 824 199 824 Q213 824 230 812 L330 746 L448 812 Q467 824 482 824 Z " />
<glyph glyph-name="Scedilla" unicode="&#x15e;" horiz-adv-x="496" d="M442 434 Q443 441 443 455 Q443 508 407.5 540.5 Q372 573 314 573 Q265 573 230 550 Q195 527 195 484 Q195 452 216 429 Q237 406 282 382 L343 347 Q408 311 437.5 277.5 Q467 244 467 189 Q467 138 442 95 Q417 52 369 24 Q321 -4 254 -9 L233 -36 Q225 -49 225 -56 Q225 -62 232 -65 Q239 -68 255 -72 Q281 -77 296 -86 Q311 -95 311 -116 Q311 -161 271 -187.5 Q231 -214 182 -214 Q137 -214 115 -198 L133 -165 Q143 -179 166 -179 Q187 -179 204.5 -164 Q222 -149 222 -130 Q222 -110 194 -94 L173 -80 Q164 -73 164 -66 Q164 -59 172 -52 L211 -10 Q177 -9 132 3 Q75 18 59 18 Q48 18 34.5 16 Q21 14 16 12 Q40 87 40 178 Q40 199 38 200 L72 203 Q70 116 109.5 71 Q149 26 219 26 Q270 26 305 53 Q340 80 340 122 Q340 156 318 180.5 Q296 205 251 229 L182 265 Q131 292 103.5 329 Q76 366 76 420 Q76 472 102.5 514.5 Q129 557 180 582 Q231 607 303 607 Q336 607 358.5 602 Q381 597 403.5 589 Q426 581 435 578 Q452 572 463 572 Q481 572 493 576 Q485 542 479.5 516 Q474 490 474 459 Q474 446 476 434 L442 434 Z " />
<glyph glyph-name="Scommaaccent" unicode="&#x218;" horiz-adv-x="496" d="M303 607 Q336 607 358.5 602 Q381 597 403.5 589 Q426 581 435 578 Q452 572 463 572 Q481 572 493 576 Q485 542 479.5 516 Q474 490 474 459 Q474 446 476 434 L442 434 Q443 441 443 455 Q443 508 407.5 540.5 Q372 573 314 573 Q265 573 230 550 Q195 527 195 484 Q195 452 216 429 Q237 406 282 382 L343 347 Q408 311 437.5 277.5 Q467 244 467 189 Q467 134 438.5 88.5 Q410 43 354.5 16.5 Q299 -10 223 -10 Q184 -10 132 3 Q75 18 59 18 Q48 18 34.5 16 Q21 14 16 12 Q40 87 40 178 Q40 199 38 200 L72 203 Q70 116 109.5 71 Q149 26 219 26 Q270 26 305 53 Q340 80 340 122 Q340 156 318 180.5 Q296 205 251 229 L182 265 Q131 292 103.5 329 Q76 366 76 420 Q76 472 102.5 514.5 Q129 557 180 582 Q231 607 303 607 Z M232 -34 Q264 -34 283 -54 Q302 -74 302 -102 Q302 -148 266.5 -188.5 Q231 -229 182 -251 L165 -229 Q187 -216 203.5 -198.5 Q220 -181 220 -166 Q221 -141 196 -141 Q180 -141 170.5 -129 Q161 -117 161 -99 Q161 -74 179.5 -54 Q198 -34 232 -34 Z " />
<glyph glyph-name="T" unicode="T" horiz-adv-x="540" d="M557 444 L523 444 Q525 455 525 475 Q525 520 500 541 Q475 562 419 562 L400 562 Q389 562 386 551 L317 57 L317 52 Q317 35 333 35 L386 37 L381 0 L99 0 L103 37 L157 35 Q166 35 172 42.5 Q178 50 180 60 L248 550 L248 553 Q248 562 239 562 L221 562 Q156 562 122.5 533.5 Q89 505 81 444 L47 444 L69 600 Q87 598 116 598 L532 598 Q569 598 579 600 L557 444 Z " />
<glyph glyph-name="Tcaron" unicode="&#x164;" horiz-adv-x="540" d="M557 444 L523 444 Q525 455 525 475 Q525 520 500 541 Q475 562 419 562 L400 562 Q389 562 386 551 L317 57 L317 52 Q317 35 333 35 L386 37 L381 0 L99 0 L103 37 L157 35 Q166 35 172 42.5 Q178 50 180 60 L248 550 L248 553 Q248 562 239 562 L221 562 Q156 562 122.5 533.5 Q89 505 81 444 L47 444 L69 600 Q87 598 116 598 L532 598 Q569 598 579 600 L557 444 Z M484 824 Q495 824 495 817 Q495 811 462 783 Q432 757 409 734 L356 686 Q336 668 320 668 Q303 668 290 686 L251 734 Q232 760 208 786 Q199 796 193 804 Q187 812 187 815 Q187 824 201 824 Q215 824 232 812 L332 746 L450 812 Q469 824 484 824 Z " />
<glyph glyph-name="uni0162" unicode="&#x162;" horiz-adv-x="540" d="M557 444 L523 444 Q525 455 525 475 Q525 520 500 541 Q475 562 419 562 L400 562 Q389 562 386 551 L317 57 L317 52 Q317 35 333 35 L386 37 L381 0 L99 0 L103 37 L157 35 Q166 35 172 42.5 Q178 50 180 60 L248 550 L248 553 Q248 562 239 562 L221 562 Q156 562 122.5 533.5 Q89 505 81 444 L47 444 L69 600 Q87 598 116 598 L532 598 Q569 598 579 600 L557 444 Z M234 -36 Q226 -49 226 -56 Q226 -62 233 -65 Q240 -68 256 -72 Q282 -77 297 -86 Q312 -95 312 -116 Q312 -161 272 -187.5 Q232 -214 183 -214 Q138 -214 116 -198 L134 -165 Q144 -179 167 -179 Q188 -179 205.5 -164 Q223 -149 223 -130 Q223 -110 195 -94 L174 -80 Q165 -73 165 -66 Q165 -59 173 -52 L221 0 L262 0 L234 -36 Z " />
<glyph glyph-name="uni021A" unicode="&#x21a;" horiz-adv-x="540" d="M557 444 L523 444 Q525 455 525 475 Q525 520 500 541 Q475 562 419 562 L400 562 Q389 562 386 551 L317 57 L317 52 Q317 35 333 35 L386 37 L381 0 L99 0 L103 37 L157 35 Q166 35 172 42.5 Q178 50 180 60 L248 550 L248 553 Q248 562 239 562 L221 562 Q156 562 122.5 533.5 Q89 505 81 444 L47 444 L69 600 Q87 598 116 598 L532 598 Q569 598 579 600 L557 444 Z M233 -34 Q265 -34 284 -54 Q303 -74 303 -102 Q303 -148 267.5 -188.5 Q232 -229 183 -251 L166 -229 Q188 -216 204.5 -198.5 Q221 -181 221 -166 Q222 -141 197 -141 Q181 -141 171.5 -129 Q162 -117 162 -99 Q162 -74 180.5 -54 Q199 -34 233 -34 Z " />
<glyph glyph-name="U" unicode="U" horiz-adv-x="654" d="M677 560 L639 562 Q631 562 624.5 556.5 Q618 551 617 542 L569 203 Q554 98 495.5 44 Q437 -10 325 -10 Q86 -10 86 160 Q86 178 89 199 L138 541 L138 543 Q138 551 133.5 556.5 Q129 562 122 562 L83 560 L89 597 L352 597 L346 560 L298 562 Q289 562 283 556.5 Q277 551 276 542 L227 199 Q224 178 224 159 Q224 95 258 63.5 Q292 32 356 32 Q435 32 475 76 Q515 120 526 203 L574 541 L574 544 Q574 562 559 562 L510 560 L515 597 L683 597 L677 560 Z " />
<glyph glyph-name="Uacute" unicode="&#xda;" horiz-adv-x="654" d="M677 560 L639 562 Q631 562 624.5 556.5 Q618 551 617 542 L569 203 Q554 98 495.5 44 Q437 -10 325 -10 Q86 -10 86 160 Q86 178 89 199 L138 541 L138 543 Q138 551 133.5 556.5 Q129 562 122 562 L83 560 L89 597 L352 597 L346 560 L298 562 Q289 562 283 556.5 Q277 551 276 542 L227 199 Q224 178 224 159 Q224 95 258 63.5 Q292 32 356 32 Q435 32 475 76 Q515 120 526 203 L574 541 L574 544 Q574 562 559 562 L510 560 L515 597 L683 597 L677 560 Z M568 790 Q568 780 553 772 L374 669 Q361 660 349 660 Q339 660 339 669 Q339 675 343 680.5 Q347 686 359 697 L467 802 Q484 818 490 822 Q496 826 506 826 Q523 826 545.5 813 Q568 800 568 790 Z " />
<glyph glyph-name="Ucircumflex" unicode="&#xdb;" horiz-adv-x="654" d="M677 560 L639 562 Q631 562 624.5 556.5 Q618 551 617 542 L569 203 Q554 98 495.5 44 Q437 -10 325 -10 Q86 -10 86 160 Q86 178 89 199 L138 541 L138 543 Q138 551 133.5 556.5 Q129 562 122 562 L83 560 L89 597 L352 597 L346 560 L298 562 Q289 562 283 556.5 Q277 551 276 542 L227 199 Q224 178 224 159 Q224 95 258 63.5 Q292 32 356 32 Q435 32 475 76 Q515 120 526 203 L574 541 L574 544 Q574 562 559 562 L510 560 L515 597 L683 597 L677 560 Z M267 666 Q256 666 256 673 Q256 679 289 707 Q319 733 342 756 L395 804 Q415 822 431 822 Q447 822 461 804 L500 756 Q519 730 543 704 Q552 694 558 686 Q564 678 564 675 Q564 666 550 666 Q536 666 519 678 L419 744 L301 678 Q282 666 267 666 Z " />
<glyph glyph-name="Udieresis" unicode="&#xdc;" horiz-adv-x="654" d="M677 560 L639 562 Q631 562 624.5 556.5 Q618 551 617 542 L569 203 Q554 98 495.5 44 Q437 -10 325 -10 Q86 -10 86 160 Q86 178 89 199 L138 541 L138 543 Q138 551 133.5 556.5 Q129 562 122 562 L83 560 L89 597 L352 597 L346 560 L298 562 Q289 562 283 556.5 Q277 551 276 542 L227 199 Q224 178 224 159 Q224 95 258 63.5 Q292 32 356 32 Q435 32 475 76 Q515 120 526 203 L574 541 L574 544 Q574 562 559 562 L510 560 L515 597 L683 597 L677 560 Z M330 802 Q362 802 381 787.5 Q400 773 400 749 Q400 715 376 696 Q352 677 313 677 Q282 677 263 691.5 Q244 706 244 730 Q244 762 268.5 782 Q293 802 330 802 Z M524 802 Q556 802 575 787.5 Q594 773 594 749 Q594 715 570 696 Q546 677 507 677 Q476 677 457 691.5 Q438 706 438 730 Q438 762 462.5 782 Q487 802 524 802 Z " />
<glyph glyph-name="Ugrave" unicode="&#xd9;" horiz-adv-x="654" d="M677 560 L639 562 Q631 562 624.5 556.5 Q618 551 617 542 L569 203 Q554 98 495.5 44 Q437 -10 325 -10 Q86 -10 86 160 Q86 178 89 199 L138 541 L138 543 Q138 551 133.5 556.5 Q129 562 122 562 L83 560 L89 597 L352 597 L346 560 L298 562 Q289 562 283 556.5 Q277 551 276 542 L227 199 Q224 178 224 159 Q224 95 258 63.5 Q292 32 356 32 Q435 32 475 76 Q515 120 526 203 L574 541 L574 544 Q574 562 559 562 L510 560 L515 597 L683 597 L677 560 Z M356 826 Q366 826 370.5 822.5 Q375 819 387 802 L469 696 Q474 688 477.5 682 Q481 676 480 670 Q478 660 466 660 Q456 660 443 669 L293 772 Q283 779 283 789 Q284 799 311 812.5 Q338 826 356 826 Z " />
<glyph glyph-name="Uhungarumlaut" unicode="&#x170;" horiz-adv-x="654" d="M677 560 L639 562 Q631 562 624.5 556.5 Q618 551 617 542 L569 203 Q554 98 495.5 44 Q437 -10 325 -10 Q86 -10 86 160 Q86 178 89 199 L138 541 L138 543 Q138 551 133.5 556.5 Q129 562 122 562 L83 560 L89 597 L352 597 L346 560 L298 562 Q289 562 283 556.5 Q277 551 276 542 L227 199 Q224 178 224 159 Q224 95 258 63.5 Q292 32 356 32 Q435 32 475 76 Q515 120 526 203 L574 541 L574 544 Q574 562 559 562 L510 560 L515 597 L683 597 L677 560 Z M399 826 Q416 826 439.5 817.5 Q463 809 463 799 Q463 794 455 786 Q433 766 326 677 Q312 665 300 665 Q290 665 290 673 Q290 678 295 685 Q375 805 385 817 Q392 826 399 826 Z M525 826 Q542 826 565 817.5 Q588 809 588 799 Q588 794 580 786 Q570 776 451 677 Q437 665 425 665 Q415 665 415 673 Q415 678 420 685 L488 785 Q509 816 510 817 Q514 822 517 824 Q520 826 525 826 Z " />
<glyph glyph-name="Umacron" unicode="&#x16a;" horiz-adv-x="654" d="M677 560 L639 562 Q631 562 624.5 556.5 Q618 551 617 542 L569 203 Q554 98 495.5 44 Q437 -10 325 -10 Q86 -10 86 160 Q86 178 89 199 L138 541 L138 543 Q138 551 133.5 556.5 Q129 562 122 562 L83 560 L89 597 L352 597 L346 560 L298 562 Q289 562 283 556.5 Q277 551 276 542 L227 199 Q224 178 224 159 Q224 95 258 63.5 Q292 32 356 32 Q435 32 475 76 Q515 120 526 203 L574 541 L574 544 Q574 562 559 562 L510 560 L515 597 L683 597 L677 560 Z M535 724 L528 677 L288 677 L295 724 L535 724 Z " />
<glyph glyph-name="Uogonek" unicode="&#x172;" horiz-adv-x="654" d="M683 597 L677 560 L639 562 Q631 562 624.5 556.5 Q618 551 617 542 L569 203 Q549 57 443 11 Q421 -1 408.5 -20 Q396 -39 396 -61 Q396 -79 407 -90 Q418 -101 440 -101 Q473 -101 511 -79 L521 -99 Q492 -128 460 -143.5 Q428 -159 396 -159 Q366 -159 345 -142.5 Q324 -126 324 -96 Q324 -72 337.5 -49 Q351 -26 377 -7 Q353 -10 325 -10 Q86 -10 86 160 Q86 178 89 199 L138 541 L138 543 Q138 551 133.5 556.5 Q129 562 122 562 L83 560 L89 597 L352 597 L346 560 L298 562 Q289 562 283 556.5 Q277 551 276 542 L227 199 Q224 178 224 159 Q224 95 258 63.5 Q292 32 356 32 Q435 32 475 76 Q515 120 526 203 L574 541 L574 544 Q574 562 559 562 L510 560 L515 597 L683 597 Z " />
<glyph glyph-name="Uring" unicode="&#x16e;" horiz-adv-x="654" d="M677 560 L639 562 Q631 562 624.5 556.5 Q618 551 617 542 L569 203 Q554 98 495.5 44 Q437 -10 325 -10 Q86 -10 86 160 Q86 178 89 199 L138 541 L138 543 Q138 551 133.5 556.5 Q129 562 122 562 L83 560 L89 597 L352 597 L346 560 L298 562 Q289 562 283 556.5 Q277 551 276 542 L227 199 Q224 178 224 159 Q224 95 258 63.5 Q292 32 356 32 Q435 32 475 76 Q515 120 526 203 L574 541 L574 544 Q574 562 559 562 L510 560 L515 597 L683 597 L677 560 Z M334 737 Q334 776 363 803.5 Q392 831 432 831 Q467 831 488 811 Q509 791 509 759 Q509 718 480 691.5 Q451 665 409 665 Q375 665 354.5 685 Q334 705 334 737 Z M384 741 Q384 725 392.5 715.5 Q401 706 415 706 Q434 706 446 719.5 Q458 733 458 754 Q458 770 449.5 779.5 Q441 789 426 789 Q408 789 396 775.5 Q384 762 384 741 Z " />
<glyph glyph-name="V" unicode="V" horiz-adv-x="602" d="M677 597 L671 560 L636 562 Q629 562 624.5 557.5 Q620 553 612 539 L304 -4 L251 -4 L94 539 Q90 551 85.5 556.5 Q81 562 75 562 L47 560 L52 597 L306 597 L301 560 L252 562 Q245 562 241 554.5 Q237 547 239 538 L350 159 L560 530 Q570 548 570 554 Q570 562 559 562 L510 560 L516 597 L677 597 Z " />
<glyph glyph-name="W" unicode="W" horiz-adv-x="904" d="M978 597 L972 560 L943 562 Q934 562 927 555.5 Q920 549 916 541 L655 -10 L609 -10 L493 467 L267 -10 L217 -10 L93 540 Q90 562 77 562 L46 560 L51 597 L305 597 L300 560 L249 562 Q235 562 235 549 Q235 543 236 540 L315 183 L479 526 L477 534 Q473 549 469.5 555.5 Q466 562 457 562 L415 560 L420 597 L666 597 L661 560 L619 562 Q612 562 608 554.5 Q604 547 606 540 L692 159 L873 542 Q875 550 875 552 Q875 562 865 562 L812 560 L819 597 L978 597 Z " />
<glyph glyph-name="Wacute" unicode="&#x1e82;" horiz-adv-x="904" d="M978 597 L972 560 L943 562 Q934 562 927 555.5 Q920 549 916 541 L655 -10 L609 -10 L493 467 L267 -10 L217 -10 L93 540 Q90 562 77 562 L46 560 L51 597 L305 597 L300 560 L249 562 Q235 562 235 549 Q235 543 236 540 L315 183 L479 526 L477 534 Q473 549 469.5 555.5 Q466 562 457 562 L415 560 L420 597 L666 597 L661 560 L619 562 Q612 562 608 554.5 Q604 547 606 540 L692 159 L873 542 Q875 550 875 552 Q875 562 865 562 L812 560 L819 597 L978 597 Z M704 790 Q704 780 689 772 L510 669 Q497 660 485 660 Q475 660 475 669 Q475 675 479 680.5 Q483 686 495 697 L603 802 Q620 818 626 822 Q632 826 642 826 Q659 826 681.5 813 Q704 800 704 790 Z " />
<glyph glyph-name="Wcircumflex" unicode="&#x174;" horiz-adv-x="904" d="M978 597 L972 560 L943 562 Q934 562 927 555.5 Q920 549 916 541 L655 -10 L609 -10 L493 467 L267 -10 L217 -10 L93 540 Q90 562 77 562 L46 560 L51 597 L305 597 L300 560 L249 562 Q235 562 235 549 Q235 543 236 540 L315 183 L479 526 L477 534 Q473 549 469.5 555.5 Q466 562 457 562 L415 560 L420 597 L666 597 L661 560 L619 562 Q612 562 608 554.5 Q604 547 606 540 L692 159 L873 542 Q875 550 875 552 Q875 562 865 562 L812 560 L819 597 L978 597 Z M403 666 Q392 666 392 673 Q392 679 425 707 Q455 733 478 756 L531 804 Q551 822 567 822 Q583 822 597 804 L636 756 Q655 730 679 704 Q688 694 694 686 Q700 678 700 675 Q700 666 686 666 Q672 666 655 678 L555 744 L437 678 Q418 666 403 666 Z " />
<glyph glyph-name="Wdieresis" unicode="&#x1e84;" horiz-adv-x="904" d="M978 597 L972 560 L943 562 Q934 562 927 555.5 Q920 549 916 541 L655 -10 L609 -10 L493 467 L267 -10 L217 -10 L93 540 Q90 562 77 562 L46 560 L51 597 L305 597 L300 560 L249 562 Q235 562 235 549 Q235 543 236 540 L315 183 L479 526 L477 534 Q473 549 469.5 555.5 Q466 562 457 562 L415 560 L420 597 L666 597 L661 560 L619 562 Q612 562 608 554.5 Q604 547 606 540 L692 159 L873 542 Q875 550 875 552 Q875 562 865 562 L812 560 L819 597 L978 597 Z M466 802 Q498 802 517 787.5 Q536 773 536 749 Q536 715 512 696 Q488 677 449 677 Q418 677 399 691.5 Q380 706 380 730 Q380 762 404.5 782 Q429 802 466 802 Z M660 802 Q692 802 711 787.5 Q730 773 730 749 Q730 715 706 696 Q682 677 643 677 Q612 677 593 691.5 Q574 706 574 730 Q574 762 598.5 782 Q623 802 660 802 Z " />
<glyph glyph-name="Wgrave" unicode="&#x1e80;" horiz-adv-x="904" d="M978 597 L972 560 L943 562 Q934 562 927 555.5 Q920 549 916 541 L655 -10 L609 -10 L493 467 L267 -10 L217 -10 L93 540 Q90 562 77 562 L46 560 L51 597 L305 597 L300 560 L249 562 Q235 562 235 549 Q235 543 236 540 L315 183 L479 526 L477 534 Q473 549 469.5 555.5 Q466 562 457 562 L415 560 L420 597 L666 597 L661 560 L619 562 Q612 562 608 554.5 Q604 547 606 540 L692 159 L873 542 Q875 550 875 552 Q875 562 865 562 L812 560 L819 597 L978 597 Z M492 826 Q502 826 506.5 822.5 Q511 819 523 802 L605 696 Q610 688 613.5 682 Q617 676 616 670 Q614 660 602 660 Q592 660 579 669 L429 772 Q419 779 419 789 Q420 799 447 812.5 Q474 826 492 826 Z " />
<glyph glyph-name="X" unicode="X" horiz-adv-x="581" d="M612 597 L606 560 L572 562 Q554 562 539 542 L378 331 L505 51 Q509 43 515.5 38 Q522 33 532 34 L564 37 L559 0 L284 0 L289 37 L338 34 L340 34 Q351 34 351 44 Q351 47 347 57 L261 250 L112 55 Q107 47 107 43 Q107 35 115 35 L161 38 L155 0 L-11 0 L-5 38 L30 36 Q51 36 67 58 L246 293 L134 543 Q126 562 106 562 L81 560 L86 597 L354 597 L349 560 L307 562 Q295 562 291 555 Q287 548 291 541 L362 374 L492 542 Q498 550 498 555 Q498 562 488 562 L444 560 L449 597 L612 597 Z " />
<glyph glyph-name="Y" unicode="Y" horiz-adv-x="555" d="M619 597 L613 560 L584 562 Q569 562 554 541 L368 274 L337 56 L337 51 Q337 35 354 35 L402 37 L397 0 L124 0 L129 37 L178 35 Q197 35 200 57 L228 256 L97 543 Q92 553 88 557.5 Q84 562 77 562 L48 560 L54 597 L322 597 L317 560 L264 562 Q252 562 252 549 Q252 544 254 538 L354 318 L511 542 Q515 548 515 554 Q515 562 507 562 L455 560 L460 597 L619 597 Z " />
<glyph glyph-name="Yacute" unicode="&#xdd;" horiz-adv-x="555" d="M619 597 L613 560 L584 562 Q569 562 554 541 L368 274 L337 56 L337 51 Q337 35 354 35 L402 37 L397 0 L124 0 L129 37 L178 35 Q197 35 200 57 L228 256 L97 543 Q92 553 88 557.5 Q84 562 77 562 L48 560 L54 597 L322 597 L317 560 L264 562 Q252 562 252 549 Q252 544 254 538 L354 318 L511 542 Q515 548 515 554 Q515 562 507 562 L455 560 L460 597 L619 597 Z M522 790 Q522 780 507 772 L328 669 Q315 660 303 660 Q293 660 293 669 Q293 675 297 680.5 Q301 686 313 697 L421 802 Q438 818 444 822 Q450 826 460 826 Q477 826 499.5 813 Q522 800 522 790 Z " />
<glyph glyph-name="Ycircumflex" unicode="&#x176;" horiz-adv-x="555" d="M619 597 L613 560 L584 562 Q569 562 554 541 L368 274 L337 56 L337 51 Q337 35 354 35 L402 37 L397 0 L124 0 L129 37 L178 35 Q197 35 200 57 L228 256 L97 543 Q92 553 88 557.5 Q84 562 77 562 L48 560 L54 597 L322 597 L317 560 L264 562 Q252 562 252 549 Q252 544 254 538 L354 318 L511 542 Q515 548 515 554 Q515 562 507 562 L455 560 L460 597 L619 597 Z M221 666 Q210 666 210 673 Q210 679 243 707 Q273 733 296 756 L349 804 Q369 822 385 822 Q401 822 415 804 L454 756 Q473 730 497 704 Q506 694 512 686 Q518 678 518 675 Q518 666 504 666 Q490 666 473 678 L373 744 L255 678 Q236 666 221 666 Z " />
<glyph glyph-name="Ydieresis" unicode="&#x178;" horiz-adv-x="555" d="M619 597 L613 560 L584 562 Q569 562 554 541 L368 274 L337 56 L337 51 Q337 35 354 35 L402 37 L397 0 L124 0 L129 37 L178 35 Q197 35 200 57 L228 256 L97 543 Q92 553 88 557.5 Q84 562 77 562 L48 560 L54 597 L322 597 L317 560 L264 562 Q252 562 252 549 Q252 544 254 538 L354 318 L511 542 Q515 548 515 554 Q515 562 507 562 L455 560 L460 597 L619 597 Z M284 802 Q316 802 335 787.5 Q354 773 354 749 Q354 715 330 696 Q306 677 267 677 Q236 677 217 691.5 Q198 706 198 730 Q198 762 222.5 782 Q247 802 284 802 Z M478 802 Q510 802 529 787.5 Q548 773 548 749 Q548 715 524 696 Q500 677 461 677 Q430 677 411 691.5 Q392 706 392 730 Q392 762 416.5 782 Q441 802 478 802 Z " />
<glyph glyph-name="Ygrave" unicode="&#x1ef2;" horiz-adv-x="555" d="M619 597 L613 560 L584 562 Q569 562 554 541 L368 274 L337 56 L337 51 Q337 35 354 35 L402 37 L397 0 L124 0 L129 37 L178 35 Q197 35 200 57 L228 256 L97 543 Q92 553 88 557.5 Q84 562 77 562 L48 560 L54 597 L322 597 L317 560 L264 562 Q252 562 252 549 Q252 544 254 538 L354 318 L511 542 Q515 548 515 554 Q515 562 507 562 L455 560 L460 597 L619 597 Z M310 826 Q320 826 324.5 822.5 Q329 819 341 802 L423 696 Q428 688 431.5 682 Q435 676 434 670 Q432 660 420 660 Q410 660 397 669 L247 772 Q237 779 237 789 Q238 799 265 812.5 Q292 826 310 826 Z " />
<glyph glyph-name="Z" unicode="Z" horiz-adv-x="543" d="M558 573 L176 35 L315 35 Q383 35 428 70 Q473 105 481 167 L516 167 L484 -4 Q473 0 373 0 L1 0 L5 27 L389 562 L278 562 Q207 562 168.5 533 Q130 504 121 443 L86 443 L108 600 L145 599 Q189 597 217 597 L561 597 L558 573 Z " />
<glyph glyph-name="Zacute" unicode="&#x179;" horiz-adv-x="543" d="M558 573 L176 35 L315 35 Q383 35 428 70 Q473 105 481 167 L516 167 L484 -4 Q473 0 373 0 L1 0 L5 27 L389 562 L278 562 Q207 562 168.5 533 Q130 504 121 443 L86 443 L108 600 L145 599 Q189 597 217 597 L561 597 L558 573 Z M523 790 Q523 780 508 772 L329 669 Q316 660 304 660 Q294 660 294 669 Q294 675 298 680.5 Q302 686 314 697 L422 802 Q439 818 445 822 Q451 826 461 826 Q478 826 500.5 813 Q523 800 523 790 Z " />
<glyph glyph-name="Zcaron" unicode="&#x17d;" horiz-adv-x="543" d="M558 573 L176 35 L315 35 Q383 35 428 70 Q473 105 481 167 L516 167 L484 -4 Q473 0 373 0 L1 0 L5 27 L389 562 L278 562 Q207 562 168.5 533 Q130 504 121 443 L86 443 L108 600 L145 599 Q189 597 217 597 L561 597 L558 573 Z M526 824 Q537 824 537 817 Q537 811 504 783 Q474 757 451 734 L398 686 Q378 668 362 668 Q345 668 332 686 L293 734 Q274 760 250 786 Q241 796 235 804 Q229 812 229 815 Q229 824 243 824 Q257 824 274 812 L374 746 L492 812 Q511 824 526 824 Z " />
<glyph glyph-name="Zdotaccent" unicode="&#x17b;" horiz-adv-x="543" d="M558 573 L176 35 L315 35 Q383 35 428 70 Q473 105 481 167 L516 167 L484 -4 Q473 0 373 0 L1 0 L5 27 L389 562 L278 562 Q207 562 168.5 533 Q130 504 121 443 L86 443 L108 600 L145 599 Q189 597 217 597 L561 597 L558 573 Z M381 804 Q413 804 432 789.5 Q451 775 451 751 Q451 717 427 698 Q403 679 364 679 Q333 679 314 693.5 Q295 708 295 732 Q295 764 319.5 784 Q344 804 381 804 Z " />
<glyph glyph-name="a" unicode="a" horiz-adv-x="511" d="M435 75 Q454 75 473 88 L484 60 Q453 30 409 10 Q365 -10 329 -10 Q308 -10 300.5 0.5 Q293 11 293 36 Q293 61 307 138 Q309 156 311 165 Q269 73 219.5 31.5 Q170 -10 118 -10 Q74 -10 50 22.5 Q26 55 26 112 Q26 192 60 267 Q94 342 152 388.5 Q210 435 279 435 Q302 435 322 425 Q342 415 353 397 L359 420 L488 434 L465 338 Q447 264 434.5 191.5 Q422 119 422 92 Q422 75 435 75 Z M192 68 Q215 68 250.5 119 Q286 170 313 238 Q340 306 340 353 Q340 373 328 385.5 Q316 398 294 398 Q257 398 225.5 355 Q194 312 176 241 Q160 186 160 131 Q160 100 168.5 84 Q177 68 192 68 Z " />
<glyph glyph-name="aacute" unicode="&#xe1;" horiz-adv-x="511" d="M435 75 Q454 75 473 88 L484 60 Q453 30 409 10 Q365 -10 329 -10 Q308 -10 300.5 0.5 Q293 11 293 36 Q293 61 307 138 Q309 156 311 165 Q269 73 219.5 31.5 Q170 -10 118 -10 Q74 -10 50 22.5 Q26 55 26 112 Q26 192 60 267 Q94 342 152 388.5 Q210 435 279 435 Q302 435 322 425 Q342 415 353 397 L359 420 L488 434 L465 338 Q447 264 434.5 191.5 Q422 119 422 92 Q422 75 435 75 Z M192 68 Q215 68 250.5 119 Q286 170 313 238 Q340 306 340 353 Q340 373 328 385.5 Q316 398 294 398 Q257 398 225.5 355 Q194 312 176 241 Q160 186 160 131 Q160 100 168.5 84 Q177 68 192 68 Z M470 617 Q470 607 455 599 L276 496 Q262 487 251 487 Q241 487 241 496 Q241 502 245 507.5 Q249 513 261 524 L369 629 Q386 645 392 649 Q398 653 408 653 Q425 653 447.5 640 Q470 627 470 617 Z " />
<glyph glyph-name="abreve" unicode="&#x103;" horiz-adv-x="511" d="M435 75 Q454 75 473 88 L484 60 Q453 30 409 10 Q365 -10 329 -10 Q308 -10 300.5 0.5 Q293 11 293 36 Q293 61 307 138 Q309 156 311 165 Q269 73 219.5 31.5 Q170 -10 118 -10 Q74 -10 50 22.5 Q26 55 26 112 Q26 192 60 267 Q94 342 152 388.5 Q210 435 279 435 Q302 435 322 425 Q342 415 353 397 L359 420 L488 434 L465 338 Q447 264 434.5 191.5 Q422 119 422 92 Q422 75 435 75 Z M192 68 Q215 68 250.5 119 Q286 170 313 238 Q340 306 340 353 Q340 373 328 385.5 Q316 398 294 398 Q257 398 225.5 355 Q194 312 176 241 Q160 186 160 131 Q160 100 168.5 84 Q177 68 192 68 Z M466 642 Q456 584 414.5 547.5 Q373 511 314 511 Q260 511 229.5 541.5 Q199 572 199 622 Q199 635 200 642 L247 642 Q250 614 267.5 595 Q285 576 323 576 Q360 576 384.5 595.5 Q409 615 419 642 L466 642 Z " />
<glyph glyph-name="acircumflex" unicode="&#xe2;" horiz-adv-x="511" d="M435 75 Q454 75 473 88 L484 60 Q453 30 409 10 Q365 -10 329 -10 Q308 -10 300.5 0.5 Q293 11 293 36 Q293 61 307 138 Q309 156 311 165 Q269 73 219.5 31.5 Q170 -10 118 -10 Q74 -10 50 22.5 Q26 55 26 112 Q26 192 60 267 Q94 342 152 388.5 Q210 435 279 435 Q302 435 322 425 Q342 415 353 397 L359 420 L488 434 L465 338 Q447 264 434.5 191.5 Q422 119 422 92 Q422 75 435 75 Z M192 68 Q215 68 250.5 119 Q286 170 313 238 Q340 306 340 353 Q340 373 328 385.5 Q316 398 294 398 Q257 398 225.5 355 Q194 312 176 241 Q160 186 160 131 Q160 100 168.5 84 Q177 68 192 68 Z M170 492 Q159 492 159 499 Q159 505 192 533 Q222 559 245 582 L298 630 Q317 648 334 648 Q351 648 364 630 L403 582 Q422 556 446 530 Q455 520 461 512 Q467 504 467 501 Q467 492 453 492 Q439 492 422 504 L322 570 L204 504 Q185 492 170 492 Z " />
<glyph glyph-name="adieresis" unicode="&#xe4;" horiz-adv-x="511" d="M435 75 Q454 75 473 88 L484 60 Q453 30 409 10 Q365 -10 329 -10 Q308 -10 300.5 0.5 Q293 11 293 36 Q293 61 307 138 Q309 156 311 165 Q269 73 219.5 31.5 Q170 -10 118 -10 Q74 -10 50 22.5 Q26 55 26 112 Q26 192 60 267 Q94 342 152 388.5 Q210 435 279 435 Q302 435 322 425 Q342 415 353 397 L359 420 L488 434 L465 338 Q447 264 434.5 191.5 Q422 119 422 92 Q422 75 435 75 Z M192 68 Q215 68 250.5 119 Q286 170 313 238 Q340 306 340 353 Q340 373 328 385.5 Q316 398 294 398 Q257 398 225.5 355 Q194 312 176 241 Q160 186 160 131 Q160 100 168.5 84 Q177 68 192 68 Z M237 657 Q269 657 288 642.5 Q307 628 307 604 Q307 570 283 551 Q259 532 220 532 Q189 532 170 546.5 Q151 561 151 585 Q151 617 175.5 637 Q200 657 237 657 Z M431 657 Q463 657 482 642.5 Q501 628 501 604 Q501 570 477 551 Q453 532 414 532 Q383 532 364 546.5 Q345 561 345 585 Q345 617 369.5 637 Q394 657 431 657 Z " />
<glyph glyph-name="agrave" unicode="&#xe0;" horiz-adv-x="511" d="M435 75 Q454 75 473 88 L484 60 Q453 30 409 10 Q365 -10 329 -10 Q308 -10 300.5 0.5 Q293 11 293 36 Q293 61 307 138 Q309 156 311 165 Q269 73 219.5 31.5 Q170 -10 118 -10 Q74 -10 50 22.5 Q26 55 26 112 Q26 192 60 267 Q94 342 152 388.5 Q210 435 279 435 Q302 435 322 425 Q342 415 353 397 L359 420 L488 434 L465 338 Q447 264 434.5 191.5 Q422 119 422 92 Q422 75 435 75 Z M192 68 Q215 68 250.5 119 Q286 170 313 238 Q340 306 340 353 Q340 373 328 385.5 Q316 398 294 398 Q257 398 225.5 355 Q194 312 176 241 Q160 186 160 131 Q160 100 168.5 84 Q177 68 192 68 Z M260 653 Q270 653 274.5 649.5 Q279 646 291 629 L373 523 Q378 515 381.5 508.5 Q385 502 384 497 Q382 487 370 487 Q360 487 347 496 L197 599 Q187 606 187 616 Q188 626 215 639.5 Q242 653 260 653 Z " />
<glyph glyph-name="amacron" unicode="&#x101;" horiz-adv-x="511" d="M435 75 Q454 75 473 88 L484 60 Q453 30 409 10 Q365 -10 329 -10 Q308 -10 300.5 0.5 Q293 11 293 36 Q293 61 307 138 Q309 156 311 165 Q269 73 219.5 31.5 Q170 -10 118 -10 Q74 -10 50 22.5 Q26 55 26 112 Q26 192 60 267 Q94 342 152 388.5 Q210 435 279 435 Q302 435 322 425 Q342 415 353 397 L359 420 L488 434 L465 338 Q447 264 434.5 191.5 Q422 119 422 92 Q422 75 435 75 Z M192 68 Q215 68 250.5 119 Q286 170 313 238 Q340 306 340 353 Q340 373 328 385.5 Q316 398 294 398 Q257 398 225.5 355 Q194 312 176 241 Q160 186 160 131 Q160 100 168.5 84 Q177 68 192 68 Z M447 607 L440 560 L200 560 L207 607 L447 607 Z " />
<glyph glyph-name="aogonek" unicode="&#x105;" horiz-adv-x="511" d="M489 -99 Q460 -128 428 -143.5 Q396 -159 364 -159 Q334 -159 313 -142.5 Q292 -126 292 -96 Q292 -73 304.5 -50.5 Q317 -28 341 -9 Q337 -10 329 -10 Q308 -10 300.5 0.5 Q293 11 293 36 Q293 61 307 138 Q309 156 311 165 Q269 73 219.5 31.5 Q170 -10 118 -10 Q74 -10 50 22.5 Q26 55 26 112 Q26 192 60 267 Q94 342 152 388.5 Q210 435 279 435 Q302 435 322 425 Q342 415 353 397 L359 420 L488 434 L465 338 Q447 264 434.5 191.5 Q422 119 422 92 Q422 75 435 75 Q454 75 473 88 L484 60 Q455 31 410 11 Q388 -2 376 -20.5 Q364 -39 364 -61 Q364 -79 375 -90 Q386 -101 408 -101 Q441 -101 479 -79 L489 -99 Z M192 68 Q215 68 250.5 119 Q286 170 313 238 Q340 306 340 353 Q340 373 328 385.5 Q316 398 294 398 Q257 398 225.5 355 Q194 312 176 241 Q160 186 160 131 Q160 100 168.5 84 Q177 68 192 68 Z " />
<glyph glyph-name="aring" unicode="&#xe5;" horiz-adv-x="511" d="M435 75 Q454 75 473 88 L484 60 Q453 30 409 10 Q365 -10 329 -10 Q308 -10 300.5 0.5 Q293 11 293 36 Q293 61 307 138 Q309 156 311 165 Q269 73 219.5 31.5 Q170 -10 118 -10 Q74 -10 50 22.5 Q26 55 26 112 Q26 192 60 267 Q94 342 152 388.5 Q210 435 279 435 Q302 435 322 425 Q342 415 353 397 L359 420 L488 434 L465 338 Q447 264 434.5 191.5 Q422 119 422 92 Q422 75 435 75 Z M192 68 Q215 68 250.5 119 Q286 170 313 238 Q340 306 340 353 Q340 373 328 385.5 Q316 398 294 398 Q257 398 225.5 355 Q194 312 176 241 Q160 186 160 131 Q160 100 168.5 84 Q177 68 192 68 Z M237 564 Q237 603 266 630.5 Q295 658 335 658 Q370 658 391 638 Q412 618 412 586 Q412 545 383 518.5 Q354 492 312 492 Q278 492 257.5 512 Q237 532 237 564 Z M287 568 Q287 552 295.5 542.5 Q304 533 318 533 Q337 533 349 546.5 Q361 560 361 581 Q361 597 352.5 606.5 Q344 616 329 616 Q311 616 299 602.5 Q287 589 287 568 Z " />
<glyph glyph-name="atilde" unicode="&#xe3;" horiz-adv-x="511" d="M435 75 Q454 75 473 88 L484 60 Q453 30 409 10 Q365 -10 329 -10 Q308 -10 300.5 0.5 Q293 11 293 36 Q293 61 307 138 Q309 156 311 165 Q269 73 219.5 31.5 Q170 -10 118 -10 Q74 -10 50 22.5 Q26 55 26 112 Q26 192 60 267 Q94 342 152 388.5 Q210 435 279 435 Q302 435 322 425 Q342 415 353 397 L359 420 L488 434 L465 338 Q447 264 434.5 191.5 Q422 119 422 92 Q422 75 435 75 Z M192 68 Q215 68 250.5 119 Q286 170 313 238 Q340 306 340 353 Q340 373 328 385.5 Q316 398 294 398 Q257 398 225.5 355 Q194 312 176 241 Q160 186 160 131 Q160 100 168.5 84 Q177 68 192 68 Z M250 625 Q267 625 286.5 619.5 Q306 614 336 604 Q355 597 374 591.5 Q393 586 405 586 Q419 586 430 596.5 Q441 607 443 624 L471 624 Q465 579 445 552 Q425 525 393 525 Q376 525 355.5 530.5 Q335 536 306 547 Q287 554 268.5 559.5 Q250 565 238 565 Q224 565 213 554.5 Q202 544 200 526 L172 526 Q178 571 198 598 Q218 625 250 625 Z " />
<glyph glyph-name="ae" unicode="&#xe6;" horiz-adv-x="636" d="M646 341 Q646 306 619 273.5 Q592 241 533.5 216.5 Q475 192 385 183 L385 168 Q385 115 405.5 88.5 Q426 62 462 62 Q490 62 522 75 Q554 88 584 112 L606 92 Q571 46 517.5 18.5 Q464 -9 408 -9 Q352 -9 313.5 17.5 Q275 44 260 93 Q193 -10 105 -10 Q61 -10 36.5 22 Q12 54 12 110 Q12 186 55 256.5 Q98 327 171 371 Q244 415 329 415 Q364 415 388 401 Q444 435 506 435 Q569 435 607.5 409 Q646 383 646 341 Z M500 400 Q449 400 415 319 Q394 270 388 216 Q462 229 500.5 265.5 Q539 302 539 355 Q539 375 529.5 387.5 Q520 400 500 400 Z M251 158 Q251 223 278 279.5 Q305 336 352 376 Q338 378 328 378 Q280 378 235.5 341.5 Q191 305 169 248 Q143 189 143 129 Q143 101 152 84.5 Q161 68 179 68 Q194 68 213 87 Q232 106 252 139 Q251 145 251 158 Z " />
<glyph glyph-name="b" unicode="b" horiz-adv-x="487" d="M208 730 Q231 730 242.5 724.5 Q254 719 254 703 Q254 695 247 653 Q240 611 236 586 Q197 359 183 247 Q217 339 268.5 387 Q320 435 374 435 Q421 435 448.5 401 Q476 367 476 309 Q476 238 437.5 164 Q399 90 331 41.5 Q263 -7 179 -7 Q111 -7 80.5 23 Q50 53 50 102 Q50 129 58.5 196 Q67 263 73.5 308.5 Q80 354 83 372 Q116 587 116 639 Q116 655 108 661.5 Q100 668 83 668 Q73 668 59 666 L53 698 Q95 714 136.5 722 Q178 730 208 730 Z M309 358 Q285 358 250.5 309.5 Q216 261 190 196 Q164 131 164 88 Q164 56 178 42 Q192 28 211 28 Q248 28 277.5 71.5 Q307 115 324 176 Q342 236 342 290 Q342 324 332.5 341 Q323 358 309 358 Z " />
<glyph glyph-name="c" unicode="c" horiz-adv-x="416" d="M278 435 Q337 435 376 408 Q415 381 415 339 Q415 310 395.5 289 Q376 268 342 268 Q322 268 307.5 276.5 Q293 285 293 306 Q293 317 301 335 Q309 351 309 362 Q309 380 297.5 390 Q286 400 268 400 Q216 400 181 316 Q152 248 152 169 Q152 116 172.5 89 Q193 62 229 62 Q257 62 290 75.5 Q323 89 351 112 L373 92 Q338 47 284.5 19 Q231 -9 176 -9 Q101 -9 59.5 35 Q18 79 18 158 Q18 234 54.5 297.5 Q91 361 151 398 Q211 435 278 435 Z " />
<glyph glyph-name="cacute" unicode="&#x107;" horiz-adv-x="416" d="M278 435 Q337 435 376 408 Q415 381 415 339 Q415 310 395.5 289 Q376 268 342 268 Q322 268 307.5 276.5 Q293 285 293 306 Q293 317 301 335 Q309 351 309 362 Q309 380 297.5 390 Q286 400 268 400 Q216 400 181 316 Q152 248 152 169 Q152 116 172.5 89 Q193 62 229 62 Q257 62 290 75.5 Q323 89 351 112 L373 92 Q338 47 284.5 19 Q231 -9 176 -9 Q101 -9 59.5 35 Q18 79 18 158 Q18 234 54.5 297.5 Q91 361 151 398 Q211 435 278 435 Z M425 617 Q425 607 410 599 L231 496 Q217 487 206 487 Q196 487 196 496 Q196 502 200 507.5 Q204 513 216 524 L324 629 Q341 645 347 649 Q353 653 363 653 Q380 653 402.5 640 Q425 627 425 617 Z " />
<glyph glyph-name="ccaron" unicode="&#x10d;" horiz-adv-x="416" d="M278 435 Q337 435 376 408 Q415 381 415 339 Q415 310 395.5 289 Q376 268 342 268 Q322 268 307.5 276.5 Q293 285 293 306 Q293 317 301 335 Q309 351 309 362 Q309 380 297.5 390 Q286 400 268 400 Q216 400 181 316 Q152 248 152 169 Q152 116 172.5 89 Q193 62 229 62 Q257 62 290 75.5 Q323 89 351 112 L373 92 Q338 47 284.5 19 Q231 -9 176 -9 Q101 -9 59.5 35 Q18 79 18 158 Q18 234 54.5 297.5 Q91 361 151 398 Q211 435 278 435 Z M431 657 Q442 657 442 650 Q442 644 409 616 Q379 590 356 567 L303 519 Q284 501 267 501 Q251 501 237 519 L198 567 Q179 593 155 619 Q146 629 140 637 Q134 645 134 648 Q134 657 148 657 Q162 657 179 645 L279 579 L397 645 Q416 657 431 657 Z " />
<glyph glyph-name="ccedilla" unicode="&#xe7;" horiz-adv-x="416" d="M342 268 Q322 268 307.5 276.5 Q293 285 293 306 Q293 317 301 335 Q309 351 309 362 Q309 380 297.5 390 Q286 400 268 400 Q216 400 181 316 Q152 248 152 169 Q152 116 172.5 89 Q193 62 229 62 Q257 62 290 75.5 Q323 89 351 112 L373 92 Q344 54 300.5 27.5 Q257 1 210 -6 L187 -36 Q179 -49 179 -56 Q179 -62 186 -65 Q193 -68 209 -72 Q235 -77 250 -86 Q265 -95 265 -116 Q265 -161 225 -187.5 Q185 -214 136 -214 Q91 -214 69 -198 L87 -165 Q97 -179 120 -179 Q141 -179 158.5 -164 Q176 -149 176 -130 Q176 -110 148 -94 L127 -80 Q118 -73 118 -66 Q118 -59 126 -52 L166 -9 Q95 -6 56.5 38 Q18 82 18 158 Q18 234 54.5 297.5 Q91 361 151 398 Q211 435 278 435 Q337 435 376 408 Q415 381 415 339 Q415 310 395.5 289 Q376 268 342 268 Z " />
<glyph glyph-name="d" unicode="d" horiz-adv-x="511" d="M508 701 Q508 690 492 601 L486 567 Q459 398 441.5 278.5 Q424 159 422 102 Q422 92 426.5 83.5 Q431 75 441 75 Q456 75 473 86 L485 59 Q447 26 407.5 8 Q368 -10 339 -10 Q316 -10 303.5 2.5 Q291 15 291 37 Q291 95 304 175 Q268 79 216.5 34.5 Q165 -10 114 -10 Q71 -10 42 24 Q13 58 13 114 Q13 194 46 268.5 Q79 343 136 389 Q193 435 261 435 Q288 435 309.5 424 Q331 413 340 393 Q352 474 361 548 Q370 622 370 644 Q370 668 336 668 Q321 668 312 666 L307 698 Q390 730 464 730 Q487 730 497.5 724 Q508 718 508 701 Z M181 68 Q204 68 239 118 Q274 168 300.5 235 Q327 302 327 348 Q327 372 312.5 385 Q298 398 277 398 Q241 398 211 356 Q181 314 162 244 Q146 185 146 136 Q146 103 155.5 85.5 Q165 68 181 68 Z " />
<glyph glyph-name="eth" unicode="&#xf0;" horiz-adv-x="462" d="M313 552 Q374 509 409 437.5 Q444 366 444 268 Q444 193 413 129.5 Q382 66 322 28 Q262 -10 179 -10 Q98 -10 58 37 Q18 84 18 157 Q18 232 48.5 295.5 Q79 359 136 397 Q193 435 269 435 Q276 435 290 433 Q272 480 238 512 L129 453 L115 483 L212 535 Q160 573 116 578 L139 607 Q215 605 281 571 L372 620 L384 590 L313 552 Z M290 144 Q301 178 307 217.5 Q313 257 313 293 Q313 394 262 394 Q206 394 171 281 Q149 209 149 133 Q149 82 162.5 57.5 Q176 33 200 33 Q258 33 290 144 Z " />
<glyph glyph-name="dcaron" unicode="&#x10f;" horiz-adv-x="511" d="M508 701 Q508 690 492 601 L486 567 Q459 398 441.5 278.5 Q424 159 422 102 Q422 92 426.5 83.5 Q431 75 441 75 Q456 75 473 86 L485 59 Q447 26 407.5 8 Q368 -10 339 -10 Q316 -10 303.5 2.5 Q291 15 291 37 Q291 95 304 175 Q268 79 216.5 34.5 Q165 -10 114 -10 Q71 -10 42 24 Q13 58 13 114 Q13 194 46 268.5 Q79 343 136 389 Q193 435 261 435 Q288 435 309.5 424 Q331 413 340 393 Q352 474 361 548 Q370 622 370 644 Q370 668 336 668 Q321 668 312 666 L307 698 Q390 730 464 730 Q487 730 497.5 724 Q508 718 508 701 Z M181 68 Q204 68 239 118 Q274 168 300.5 235 Q327 302 327 348 Q327 372 312.5 385 Q298 398 277 398 Q241 398 211 356 Q181 314 162 244 Q146 185 146 136 Q146 103 155.5 85.5 Q165 68 181 68 Z M586 630 Q613 630 630 613 Q647 596 647 569 Q647 529 614.5 492.5 Q582 456 540 438 L522 460 Q567 488 567 514 L567 516 Q567 533 549 533 Q533 533 524.5 542.5 Q516 552 516 569 Q516 596 536.5 613 Q557 630 586 630 Z " />
<glyph glyph-name="dslash" unicode="&#x111;" horiz-adv-x="511" d="M483 551 Q425 188 422 102 Q422 92 426.5 83.5 Q431 75 441 75 Q456 75 473 86 L485 59 Q447 26 407.5 8 Q368 -10 339 -10 Q316 -10 303.5 2.5 Q291 15 291 37 Q291 95 304 175 Q268 79 216.5 34.5 Q165 -10 114 -10 Q71 -10 42 24 Q13 58 13 114 Q13 194 46 268.5 Q79 343 136 389 Q193 435 261 435 Q288 435 309.5 424 Q331 413 340 393 Q355 490 361 551 L272 551 L280 598 L367 598 Q370 630 370 644 Q370 668 336 668 Q321 668 312 666 L307 698 Q390 730 464 730 Q487 730 497.5 724 Q508 718 508 701 Q508 689 496 619 L492 598 L547 598 L539 551 L483 551 Z M181 68 Q204 68 239 118 Q274 168 300.5 235 Q327 302 327 348 Q327 372 312.5 385 Q298 398 277 398 Q241 398 211 356 Q181 314 162 244 Q146 185 146 136 Q146 103 155.5 85.5 Q165 68 181 68 Z " />
<glyph glyph-name="e" unicode="e" horiz-adv-x="408" d="M413 341 Q413 306 386 273.5 Q359 241 300.5 216.5 Q242 192 152 183 L152 168 Q152 115 172.5 88.5 Q193 62 229 62 Q257 62 289 75 Q321 88 351 112 L373 92 Q338 46 284.5 18.5 Q231 -9 175 -9 Q101 -9 59.5 35.5 Q18 80 18 158 Q18 233 54 297 Q90 361 149 398 Q208 435 273 435 Q336 435 374.5 409 Q413 383 413 341 Z M267 400 Q216 400 182 319 Q161 270 155 216 Q229 229 267.5 265.5 Q306 302 306 355 Q306 375 296.5 387.5 Q287 400 267 400 Z " />
<glyph glyph-name="eacute" unicode="&#xe9;" horiz-adv-x="408" d="M413 341 Q413 306 386 273.5 Q359 241 300.5 216.5 Q242 192 152 183 L152 168 Q152 115 172.5 88.5 Q193 62 229 62 Q257 62 289 75 Q321 88 351 112 L373 92 Q338 46 284.5 18.5 Q231 -9 175 -9 Q101 -9 59.5 35.5 Q18 80 18 158 Q18 233 54 297 Q90 361 149 398 Q208 435 273 435 Q336 435 374.5 409 Q413 383 413 341 Z M267 400 Q216 400 182 319 Q161 270 155 216 Q229 229 267.5 265.5 Q306 302 306 355 Q306 375 296.5 387.5 Q287 400 267 400 Z M440 617 Q440 607 425 599 L246 496 Q232 487 221 487 Q211 487 211 496 Q211 502 215 507.5 Q219 513 231 524 L339 629 Q356 645 362 649 Q368 653 378 653 Q395 653 417.5 640 Q440 627 440 617 Z " />
<glyph glyph-name="ecaron" unicode="&#x11b;" horiz-adv-x="408" d="M413 341 Q413 306 386 273.5 Q359 241 300.5 216.5 Q242 192 152 183 L152 168 Q152 115 172.5 88.5 Q193 62 229 62 Q257 62 289 75 Q321 88 351 112 L373 92 Q338 46 284.5 18.5 Q231 -9 175 -9 Q101 -9 59.5 35.5 Q18 80 18 158 Q18 233 54 297 Q90 361 149 398 Q208 435 273 435 Q336 435 374.5 409 Q413 383 413 341 Z M267 400 Q216 400 182 319 Q161 270 155 216 Q229 229 267.5 265.5 Q306 302 306 355 Q306 375 296.5 387.5 Q287 400 267 400 Z M446 657 Q457 657 457 650 Q457 644 424 616 Q394 590 371 567 L318 519 Q299 501 282 501 Q266 501 252 519 L213 567 Q194 593 170 619 Q161 629 155 637 Q149 645 149 648 Q149 657 163 657 Q177 657 194 645 L294 579 L412 645 Q431 657 446 657 Z " />
<glyph glyph-name="ecircumflex" unicode="&#xea;" horiz-adv-x="408" d="M413 341 Q413 306 386 273.5 Q359 241 300.5 216.5 Q242 192 152 183 L152 168 Q152 115 172.5 88.5 Q193 62 229 62 Q257 62 289 75 Q321 88 351 112 L373 92 Q338 46 284.5 18.5 Q231 -9 175 -9 Q101 -9 59.5 35.5 Q18 80 18 158 Q18 233 54 297 Q90 361 149 398 Q208 435 273 435 Q336 435 374.5 409 Q413 383 413 341 Z M267 400 Q216 400 182 319 Q161 270 155 216 Q229 229 267.5 265.5 Q306 302 306 355 Q306 375 296.5 387.5 Q287 400 267 400 Z M140 492 Q129 492 129 499 Q129 505 162 533 Q192 559 215 582 L268 630 Q287 648 304 648 Q321 648 334 630 L373 582 Q392 556 416 530 Q425 520 431 512 Q437 504 437 501 Q437 492 423 492 Q409 492 392 504 L292 570 L174 504 Q155 492 140 492 Z " />
<glyph glyph-name="edieresis" unicode="&#xeb;" horiz-adv-x="408" d="M413 341 Q413 306 386 273.5 Q359 241 300.5 216.5 Q242 192 152 183 L152 168 Q152 115 172.5 88.5 Q193 62 229 62 Q257 62 289 75 Q321 88 351 112 L373 92 Q338 46 284.5 18.5 Q231 -9 175 -9 Q101 -9 59.5 35.5 Q18 80 18 158 Q18 233 54 297 Q90 361 149 398 Q208 435 273 435 Q336 435 374.5 409 Q413 383 413 341 Z M267 400 Q216 400 182 319 Q161 270 155 216 Q229 229 267.5 265.5 Q306 302 306 355 Q306 375 296.5 387.5 Q287 400 267 400 Z M207 657 Q239 657 258 642.5 Q277 628 277 604 Q277 570 253 551 Q229 532 190 532 Q159 532 140 546.5 Q121 561 121 585 Q121 617 145.5 637 Q170 657 207 657 Z M401 657 Q433 657 452 642.5 Q471 628 471 604 Q471 570 447 551 Q423 532 384 532 Q353 532 334 546.5 Q315 561 315 585 Q315 617 339.5 637 Q364 657 401 657 Z " />
<glyph glyph-name="edotaccent" unicode="&#x117;" horiz-adv-x="408" d="M413 341 Q413 306 386 273.5 Q359 241 300.5 216.5 Q242 192 152 183 L152 168 Q152 115 172.5 88.5 Q193 62 229 62 Q257 62 289 75 Q321 88 351 112 L373 92 Q338 46 284.5 18.5 Q231 -9 175 -9 Q101 -9 59.5 35.5 Q18 80 18 158 Q18 233 54 297 Q90 361 149 398 Q208 435 273 435 Q336 435 374.5 409 Q413 383 413 341 Z M267 400 Q216 400 182 319 Q161 270 155 216 Q229 229 267.5 265.5 Q306 302 306 355 Q306 375 296.5 387.5 Q287 400 267 400 Z M302 657 Q334 657 353 642.5 Q372 628 372 604 Q372 570 348 551 Q324 532 285 532 Q254 532 235 546.5 Q216 561 216 585 Q216 617 240.5 637 Q265 657 302 657 Z " />
<glyph glyph-name="egrave" unicode="&#xe8;" horiz-adv-x="408" d="M413 341 Q413 306 386 273.5 Q359 241 300.5 216.5 Q242 192 152 183 L152 168 Q152 115 172.5 88.5 Q193 62 229 62 Q257 62 289 75 Q321 88 351 112 L373 92 Q338 46 284.5 18.5 Q231 -9 175 -9 Q101 -9 59.5 35.5 Q18 80 18 158 Q18 233 54 297 Q90 361 149 398 Q208 435 273 435 Q336 435 374.5 409 Q413 383 413 341 Z M267 400 Q216 400 182 319 Q161 270 155 216 Q229 229 267.5 265.5 Q306 302 306 355 Q306 375 296.5 387.5 Q287 400 267 400 Z M230 653 Q240 653 244.5 649.5 Q249 646 261 629 L343 523 Q348 515 351.5 508.5 Q355 502 354 497 Q352 487 340 487 Q330 487 317 496 L167 599 Q157 606 157 616 Q158 626 185 639.5 Q212 653 230 653 Z " />
<glyph glyph-name="emacron" unicode="&#x113;" horiz-adv-x="408" d="M413 341 Q413 306 386 273.5 Q359 241 300.5 216.5 Q242 192 152 183 L152 168 Q152 115 172.5 88.5 Q193 62 229 62 Q257 62 289 75 Q321 88 351 112 L373 92 Q338 46 284.5 18.5 Q231 -9 175 -9 Q101 -9 59.5 35.5 Q18 80 18 158 Q18 233 54 297 Q90 361 149 398 Q208 435 273 435 Q336 435 374.5 409 Q413 383 413 341 Z M267 400 Q216 400 182 319 Q161 270 155 216 Q229 229 267.5 265.5 Q306 302 306 355 Q306 375 296.5 387.5 Q287 400 267 400 Z M417 607 L410 560 L170 560 L177 607 L417 607 Z " />
<glyph glyph-name="eogonek" unicode="&#x119;" horiz-adv-x="408" d="M413 341 Q413 306 386 273.5 Q359 241 300.5 216.5 Q242 192 152 183 L152 168 Q152 115 172.5 88.5 Q193 62 229 62 Q257 62 289 75 Q321 88 351 112 L373 92 Q332 38 269 12 Q246 -1 233.5 -20 Q221 -39 221 -61 Q221 -79 232 -90 Q243 -101 265 -101 Q298 -101 336 -79 L346 -99 Q317 -128 285 -143.5 Q253 -159 221 -159 Q191 -159 170 -142.5 Q149 -126 149 -96 Q149 -72 162.5 -49 Q176 -26 201 -7 Q183 -9 175 -9 Q101 -9 59.5 35.5 Q18 80 18 158 Q18 233 54 297 Q90 361 149 398 Q208 435 273 435 Q336 435 374.5 409 Q413 383 413 341 Z M267 400 Q216 400 182 319 Q161 270 155 216 Q229 229 267.5 265.5 Q306 302 306 355 Q306 375 296.5 387.5 Q287 400 267 400 Z " />
<glyph glyph-name="f" unicode="f" horiz-adv-x="301" d="M340 730 Q395 730 430 704 Q465 678 465 641 Q465 615 447 594 Q429 573 394 573 Q371 573 357 583 Q343 593 343 609 Q343 621 350 635 Q358 655 358 666 Q358 696 330 696 Q259 696 241 454 L238 428 L314 428 L314 405 L293 389 L234 389 L202 102 Q182 -54 124.5 -149.5 Q67 -245 -32 -245 Q-83 -245 -118.5 -220.5 Q-154 -196 -154 -159 Q-154 -132 -135.5 -111.5 Q-117 -91 -83 -91 Q-61 -91 -47 -100.5 Q-33 -110 -33 -128 Q-33 -136 -39 -152 Q-47 -168 -47 -181 Q-47 -211 -19 -211 Q17 -211 36 -145.5 Q55 -80 67 72 L102 389 L33 389 L51 428 L107 428 L108 440 Q122 569 183 649.5 Q244 730 340 730 Z " />
<glyph glyph-name="g" unicode="g" horiz-adv-x="481" d="M476 510 Q501 510 515.5 498.5 Q530 487 530 465 Q530 447 517.5 430.5 Q505 414 481 414 Q467 414 460 419 Q453 424 447 434 Q442 442 438 445.5 Q434 449 426 449 Q416 449 400.5 441.5 Q385 434 372 420 Q406 406 423 380 Q440 354 440 320 Q440 268 411.5 224 Q383 180 328 153.5 Q273 127 197 127 Q169 127 141 132 Q123 114 123 98 Q123 78 148.5 68 Q174 58 230 48 L256 43 Q312 32 349 19 Q386 6 411.5 -20 Q437 -46 437 -90 Q437 -164 360 -204.5 Q283 -245 158 -245 Q64 -245 16.5 -221 Q-31 -197 -31 -152 Q-31 -116 1.5 -86 Q34 -56 91 -36 Q57 -24 38.5 -6.5 Q20 11 20 38 Q20 60 34 81 Q48 102 78 125 L104 145 Q73 160 57.5 185 Q42 210 42 243 Q42 294 70 338 Q98 382 153.5 408.5 Q209 435 286 435 Q315 435 342 430 Q413 510 476 510 Z M294 237 Q308 276 308 339 Q308 405 267 405 Q214 405 188 326 Q173 278 173 223 Q173 158 216 158 Q244 158 262.5 178.5 Q281 199 294 237 Z M322 -130 Q322 -100 290 -85.5 Q258 -71 195 -59 Q146 -50 128 -46 Q102 -59 82.5 -86.5 Q63 -114 63 -144 Q63 -175 88.5 -193.5 Q114 -212 168 -212 Q213 -212 248 -200.5 Q283 -189 302.5 -170.5 Q322 -152 322 -130 Z " />
<glyph glyph-name="gbreve" unicode="&#x11f;" horiz-adv-x="481" d="M476 510 Q501 510 515.5 498.5 Q530 487 530 465 Q530 447 517.5 430.5 Q505 414 481 414 Q467 414 460 419 Q453 424 447 434 Q442 442 438 445.5 Q434 449 426 449 Q416 449 400.5 441.5 Q385 434 372 420 Q406 406 423 380 Q440 354 440 320 Q440 268 411.5 224 Q383 180 328 153.5 Q273 127 197 127 Q169 127 141 132 Q123 114 123 98 Q123 78 148.5 68 Q174 58 230 48 L256 43 Q312 32 349 19 Q386 6 411.5 -20 Q437 -46 437 -90 Q437 -164 360 -204.5 Q283 -245 158 -245 Q64 -245 16.5 -221 Q-31 -197 -31 -152 Q-31 -116 1.5 -86 Q34 -56 91 -36 Q57 -24 38.5 -6.5 Q20 11 20 38 Q20 60 34 81 Q48 102 78 125 L104 145 Q73 160 57.5 185 Q42 210 42 243 Q42 294 70 338 Q98 382 153.5 408.5 Q209 435 286 435 Q315 435 342 430 Q413 510 476 510 Z M294 237 Q308 276 308 339 Q308 405 267 405 Q214 405 188 326 Q173 278 173 223 Q173 158 216 158 Q244 158 262.5 178.5 Q281 199 294 237 Z M322 -130 Q322 -100 290 -85.5 Q258 -71 195 -59 Q146 -50 128 -46 Q102 -59 82.5 -86.5 Q63 -114 63 -144 Q63 -175 88.5 -193.5 Q114 -212 168 -212 Q213 -212 248 -200.5 Q283 -189 302.5 -170.5 Q322 -152 322 -130 Z M425 642 Q415 584 373.5 547.5 Q332 511 273 511 Q219 511 188.5 541.5 Q158 572 158 622 Q158 635 159 642 L206 642 Q209 614 226.5 595 Q244 576 282 576 Q319 576 343.5 595.5 Q368 615 378 642 L425 642 Z " />
<glyph glyph-name="gcommaaccent" unicode="&#x123;" horiz-adv-x="481" d="M260 486 Q228 486 209 506 Q190 526 190 554 Q190 600 225.5 640.5 Q261 681 310 703 L327 681 Q305 668 288.5 650.5 Q272 633 272 618 Q271 593 296 593 Q312 593 321.5 581 Q331 569 331 551 Q331 526 312.5 506 Q294 486 260 486 Z M476 510 Q501 510 515.5 498.5 Q530 487 530 465 Q530 447 517.5 430.5 Q505 414 481 414 Q467 414 460 419 Q453 424 447 434 Q442 442 438 445.5 Q434 449 426 449 Q416 449 400.5 441.5 Q385 434 372 420 Q406 406 423 380 Q440 354 440 320 Q440 268 411.5 224 Q383 180 328 153.5 Q273 127 197 127 Q169 127 141 132 Q123 114 123 98 Q123 78 148.5 68 Q174 58 230 48 L256 43 Q312 32 349 19 Q386 6 411.5 -20 Q437 -46 437 -90 Q437 -164 360 -204.5 Q283 -245 158 -245 Q64 -245 16.5 -221 Q-31 -197 -31 -152 Q-31 -116 1.5 -86 Q34 -56 91 -36 Q57 -24 38.5 -6.5 Q20 11 20 38 Q20 60 34 81 Q48 102 78 125 L104 145 Q73 160 57.5 185 Q42 210 42 243 Q42 294 70 338 Q98 382 153.5 408.5 Q209 435 286 435 Q315 435 342 430 Q413 510 476 510 Z M294 237 Q308 276 308 339 Q308 405 267 405 Q214 405 188 326 Q173 278 173 223 Q173 158 216 158 Q244 158 262.5 178.5 Q281 199 294 237 Z M322 -130 Q322 -100 290 -85.5 Q258 -71 195 -59 Q146 -50 128 -46 Q102 -59 82.5 -86.5 Q63 -114 63 -144 Q63 -175 88.5 -193.5 Q114 -212 168 -212 Q213 -212 248 -200.5 Q283 -189 302.5 -170.5 Q322 -152 322 -130 Z " />
<glyph glyph-name="h" unicode="h" horiz-adv-x="520" d="M496 60 Q456 28 413 9 Q370 -10 341 -10 Q323 -10 311 2 Q299 14 299 35 Q299 66 324 178 Q333 220 340.5 259.5 Q348 299 348 316 Q348 350 319 350 Q294 350 264 314.5 Q234 279 208 225 Q182 171 169 119 L155 0 L31 0 Q49 113 83.5 355.5 Q118 598 118 644 Q118 656 109 662 Q100 668 85 668 Q70 668 61 666 L56 698 Q98 714 139 722 Q180 730 208 730 Q234 730 245.5 724.5 Q257 719 257 701 Q257 690 247 640 Q235 579 218 464 L187 247 Q224 326 275 380.5 Q326 435 389 435 Q430 435 454 410 Q478 385 478 345 Q478 323 471 290 Q464 257 450 197 Q429 117 429 98 Q429 90 433 82.5 Q437 75 448 75 Q465 75 485 88 L496 60 Z " />
<glyph glyph-name="i" unicode="i" horiz-adv-x="276" d="M186 657 Q218 657 237 642.5 Q256 628 256 604 Q256 570 232 551 Q208 532 169 532 Q138 532 119 546.5 Q100 561 100 585 Q100 617 124.5 637 Q149 657 186 657 Z M245 60 Q203 27 165.5 8.5 Q128 -10 100 -10 Q77 -10 64 1.5 Q51 13 51 36 Q51 53 57 93.5 Q63 134 65 147 L77 223 Q89 313 89 346 Q89 371 59 371 Q51 371 43 369 L38 405 Q121 431 187 431 Q207 431 217.5 425.5 Q228 420 228 402 Q228 393 216 333 Q199 246 196 230 Q180 144 180 102 Q180 75 197 75 Q213 75 233 88 L245 60 Z " />
<glyph glyph-name="dotlessi" unicode="&#x131;" horiz-adv-x="275" d="M245 60 Q203 27 165.5 8.5 Q128 -10 100 -10 Q77 -10 64 1.5 Q51 13 51 36 Q51 53 57 93.5 Q63 134 65 147 L77 223 Q89 313 89 346 Q89 371 59 371 Q51 371 43 369 L38 405 Q121 431 187 431 Q207 431 217.5 425.5 Q228 420 228 402 Q228 393 216 333 Q199 246 196 230 Q180 144 180 102 Q180 75 197 75 Q213 75 233 88 L245 60 Z " />
<glyph glyph-name="iacute" unicode="&#xed;" horiz-adv-x="275" d="M245 60 Q203 27 165.5 8.5 Q128 -10 100 -10 Q77 -10 64 1.5 Q51 13 51 36 Q51 53 57 93.5 Q63 134 65 147 L77 223 Q89 313 89 346 Q89 371 59 371 Q51 371 43 369 L38 405 Q121 431 187 431 Q207 431 217.5 425.5 Q228 420 228 402 Q228 393 216 333 Q199 246 196 230 Q180 144 180 102 Q180 75 197 75 Q213 75 233 88 L245 60 Z M332 617 Q332 607 317 599 L138 496 Q124 487 113 487 Q103 487 103 496 Q103 502 107 507.5 Q111 513 123 524 L231 629 Q248 645 254 649 Q260 653 270 653 Q287 653 309.5 640 Q332 627 332 617 Z " />
<glyph glyph-name="icircumflex" unicode="&#xee;" horiz-adv-x="275" d="M245 60 Q203 27 165.5 8.5 Q128 -10 100 -10 Q77 -10 64 1.5 Q51 13 51 36 Q51 53 57 93.5 Q63 134 65 147 L77 223 Q89 313 89 346 Q89 371 59 371 Q51 371 43 369 L38 405 Q121 431 187 431 Q207 431 217.5 425.5 Q228 420 228 402 Q228 393 216 333 Q199 246 196 230 Q180 144 180 102 Q180 75 197 75 Q213 75 233 88 L245 60 Z M196 659 Q207 659 217 644 L294 528 Q307 510 307 505 Q307 500 303.5 496.5 Q300 493 294 493 Q287 493 270 504 L183 569 L78 504 Q58 493 50 493 Q46 493 43 495.5 Q40 498 40 502 Q40 507 59 528 L171 644 Q185 659 196 659 Z " />
<glyph glyph-name="idieresis" unicode="&#xef;" horiz-adv-x="275" d="M245 60 Q203 27 165.5 8.5 Q128 -10 100 -10 Q77 -10 64 1.5 Q51 13 51 36 Q51 53 57 93.5 Q63 134 65 147 L77 223 Q89 313 89 346 Q89 371 59 371 Q51 371 43 369 L38 405 Q121 431 187 431 Q207 431 217.5 425.5 Q228 420 228 402 Q228 393 216 333 Q199 246 196 230 Q180 144 180 102 Q180 75 197 75 Q213 75 233 88 L245 60 Z M99 657 Q131 657 150 642.5 Q169 628 169 604 Q169 570 145 551 Q121 532 82 532 Q51 532 32 546.5 Q13 561 13 585 Q13 617 37.5 637 Q62 657 99 657 Z M293 657 Q325 657 344 642.5 Q363 628 363 604 Q363 570 339 551 Q315 532 276 532 Q245 532 226 546.5 Q207 561 207 585 Q207 617 231.5 637 Q256 657 293 657 Z " />
<glyph glyph-name="igrave" unicode="&#xec;" horiz-adv-x="275" d="M245 60 Q203 27 165.5 8.5 Q128 -10 100 -10 Q77 -10 64 1.5 Q51 13 51 36 Q51 53 57 93.5 Q63 134 65 147 L77 223 Q89 313 89 346 Q89 371 59 371 Q51 371 43 369 L38 405 Q121 431 187 431 Q207 431 217.5 425.5 Q228 420 228 402 Q228 393 216 333 Q199 246 196 230 Q180 144 180 102 Q180 75 197 75 Q213 75 233 88 L245 60 Z M122 653 Q132 653 136.5 649.5 Q141 646 153 629 L235 523 Q240 515 243.5 508.5 Q247 502 246 497 Q244 487 232 487 Q222 487 209 496 L59 599 Q49 606 49 616 Q50 626 77 639.5 Q104 653 122 653 Z " />
<glyph glyph-name="ij" unicode="&#x133;" horiz-adv-x="539" d="M186 657 Q218 657 237 642.5 Q256 628 256 604 Q256 570 232 551 Q208 532 169 532 Q138 532 119 546.5 Q100 561 100 585 Q100 617 124.5 637 Q149 657 186 657 Z M245 60 Q203 27 165.5 8.5 Q128 -10 100 -10 Q77 -10 64 1.5 Q51 13 51 36 Q51 53 57 93.5 Q63 134 65 147 L77 223 Q89 313 89 346 Q89 371 59 371 Q51 371 43 369 L38 405 Q121 431 187 431 Q207 431 217.5 425.5 Q228 420 228 402 Q228 393 216 333 Q199 246 196 230 Q180 144 180 102 Q180 75 197 75 Q213 75 233 88 L245 60 Z M462 657 Q493 657 512 642.5 Q531 628 531 604 Q531 570 507 551 Q483 532 445 532 Q414 532 395 546.5 Q376 561 376 585 Q376 617 400.5 637 Q425 657 462 657 Z M461 431 Q481 431 491.5 425.5 Q502 420 502 402 Q502 396 488 303 Q467 169 454 73 Q436 -73 383 -159 Q330 -245 241 -245 Q190 -245 154.5 -220.5 Q119 -196 119 -159 Q119 -132 137.5 -111.5 Q156 -91 190 -91 Q212 -91 226 -100.5 Q240 -110 240 -128 Q240 -136 234 -152 Q226 -168 226 -181 Q226 -197 234 -204 Q242 -211 253 -211 Q273 -211 283.5 -190.5 Q294 -170 302 -122 Q310 -74 323 36 L349 224 Q363 319 363 344 Q363 360 354.5 365.5 Q346 371 333 371 Q325 371 317 369 L312 405 Q395 431 461 431 Z " />
<glyph glyph-name="imacron" unicode="&#x12b;" horiz-adv-x="275" d="M245 60 Q203 27 165.5 8.5 Q128 -10 100 -10 Q77 -10 64 1.5 Q51 13 51 36 Q51 53 57 93.5 Q63 134 65 147 L77 223 Q89 313 89 346 Q89 371 59 371 Q51 371 43 369 L38 405 Q121 431 187 431 Q207 431 217.5 425.5 Q228 420 228 402 Q228 393 216 333 Q199 246 196 230 Q180 144 180 102 Q180 75 197 75 Q213 75 233 88 L245 60 Z M309 607 L302 560 L62 560 L69 607 L309 607 Z " />
<glyph glyph-name="iogonek" unicode="&#x12f;" horiz-adv-x="275" d="M177 532 Q146 532 127 546.5 Q108 561 108 585 Q108 617 132.5 637 Q157 657 194 657 Q226 657 245 642.5 Q264 628 264 604 Q264 570 240 551 Q216 532 177 532 Z M166 -102 Q199 -102 237 -80 L247 -100 Q218 -129 186 -144.5 Q154 -160 122 -160 Q92 -160 71 -143.5 Q50 -127 50 -97 Q50 -73 63 -51 Q76 -29 100 -10 Q77 -10 64 1.5 Q51 13 51 36 Q51 53 57 93.5 Q63 134 65 147 L77 223 Q89 313 89 346 Q89 371 59 371 Q51 371 43 369 L38 405 Q121 431 187 431 Q207 431 217.5 425.5 Q228 420 228 402 Q228 393 216 333 Q199 246 196 230 Q180 144 180 102 Q180 75 197 75 Q213 75 233 88 L245 60 Q209 32 175 13 L170 10 Q147 -2 134.5 -21 Q122 -40 122 -62 Q122 -80 133 -91 Q144 -102 166 -102 Z " />
<glyph glyph-name="j" unicode="j" horiz-adv-x="263" d="M186 657 Q217 657 236 642.5 Q255 628 255 604 Q255 570 231 551 Q207 532 169 532 Q138 532 119 546.5 Q100 561 100 585 Q100 617 124.5 637 Q149 657 186 657 Z M185 431 Q205 431 215.5 425.5 Q226 420 226 402 Q226 396 212 303 Q191 169 178 73 Q160 -73 107 -159 Q54 -245 -35 -245 Q-86 -245 -121.5 -220.5 Q-157 -196 -157 -159 Q-157 -132 -138.5 -111.5 Q-120 -91 -86 -91 Q-64 -91 -50 -100.5 Q-36 -110 -36 -128 Q-36 -136 -42 -152 Q-50 -168 -50 -181 Q-50 -197 -42 -204 Q-34 -211 -23 -211 Q-3 -211 7.5 -190.5 Q18 -170 26 -122 Q34 -74 47 36 L73 224 Q87 319 87 344 Q87 360 78.5 365.5 Q70 371 57 371 Q49 371 41 369 L36 405 Q119 431 185 431 Z " />
<glyph glyph-name="uni0237" unicode="&#x237;" horiz-adv-x="263" d="M185 431 Q205 431 215.5 425.5 Q226 420 226 402 Q226 396 212 303 Q191 169 178 73 Q160 -73 107 -159 Q54 -245 -35 -245 Q-86 -245 -121.5 -220.5 Q-157 -196 -157 -159 Q-157 -132 -138.5 -111.5 Q-120 -91 -86 -91 Q-64 -91 -50 -100.5 Q-36 -110 -36 -128 Q-36 -136 -42 -152 Q-50 -168 -50 -181 Q-50 -197 -42 -204 Q-34 -211 -23 -211 Q-3 -211 7.5 -190.5 Q18 -170 26 -122 Q34 -74 47 36 L73 224 Q87 319 87 344 Q87 360 78.5 365.5 Q70 371 57 371 Q49 371 41 369 L36 405 Q119 431 185 431 Z " />
<glyph glyph-name="k" unicode="k" horiz-adv-x="506" d="M495 65 Q457 32 421.5 13 Q386 -6 359 -6 Q329 -6 313.5 6.5 Q298 19 288 45 L236 196 Q300 224 329.5 263 Q359 302 359 335 Q359 364 336 364 Q309 364 276.5 332.5 Q244 301 215.5 251 Q187 201 173 148 L170 123 L155 0 L31 0 Q49 113 83.5 355.5 Q118 598 118 644 Q118 656 109 662 Q100 668 85 668 Q70 668 61 666 L56 698 Q98 714 139 722 Q180 730 208 730 Q234 730 245.5 724.5 Q257 719 257 701 Q257 696 252 669 L247 640 Q229 537 218 464 L189 258 Q273 435 399 435 Q437 435 460.5 414 Q484 393 484 362 Q484 325 449 290.5 Q414 256 352 228 L401 96 Q404 85 410 79.5 Q416 74 426 74 Q446 74 480 91 L495 65 Z " />
<glyph glyph-name="kcommaaccent" unicode="&#x137;" horiz-adv-x="506" d="M495 65 Q457 32 421.5 13 Q386 -6 359 -6 Q329 -6 313.5 6.5 Q298 19 288 45 L236 196 Q300 224 329.5 263 Q359 302 359 335 Q359 364 336 364 Q309 364 276.5 332.5 Q244 301 215.5 251 Q187 201 173 148 L170 123 L155 0 L31 0 Q49 113 83.5 355.5 Q118 598 118 644 Q118 656 109 662 Q100 668 85 668 Q70 668 61 666 L56 698 Q98 714 139 722 Q180 730 208 730 Q234 730 245.5 724.5 Q257 719 257 701 Q257 696 252 669 L247 640 Q229 537 218 464 L189 258 Q273 435 399 435 Q437 435 460.5 414 Q484 393 484 362 Q484 325 449 290.5 Q414 256 352 228 L401 96 Q404 85 410 79.5 Q416 74 426 74 Q446 74 480 91 L495 65 Z M254 -34 Q286 -34 305 -54 Q324 -74 324 -102 Q324 -148 288.5 -188.5 Q253 -229 204 -251 L187 -229 Q209 -216 225.5 -198.5 Q242 -181 242 -166 Q243 -141 218 -141 Q202 -141 192.5 -129 Q183 -117 183 -99 Q183 -74 201.5 -54 Q220 -34 254 -34 Z " />
<glyph glyph-name="l" unicode="l" horiz-adv-x="261" d="M116 644 Q116 656 107 662 Q98 668 83 668 Q68 668 59 666 L54 698 Q141 730 212 730 Q233 730 244 724 Q255 718 255 701 Q255 693 250 663.5 Q245 634 242 615 Q240 606 228 539 Q172 196 168 102 Q168 90 171.5 82.5 Q175 75 187 75 Q194 75 205.5 78 Q217 81 228 88 L241 60 Q201 27 159.5 8.5 Q118 -10 87 -10 Q64 -10 50.5 2 Q37 14 37 36 Q37 63 70 279 L83 370 Q116 599 116 644 Z " />
<glyph glyph-name="lacute" unicode="&#x13a;" horiz-adv-x="261" d="M332 841 Q332 831 317 825 L141 755 Q137 754 128 751 Q119 748 114 748 Q104 748 104 757 Q104 762 108 767 Q112 772 125 781 L235 859 Q253 872 261.5 876.5 Q270 881 279 881 Q295 881 313.5 867 Q332 853 332 841 Z M116 644 Q116 656 107 662 Q98 668 83 668 Q68 668 59 666 L54 698 Q141 730 212 730 Q233 730 244 724 Q255 718 255 701 Q255 693 250 663.5 Q245 634 242 615 Q240 606 228 539 Q172 196 168 102 Q168 90 171.5 82.5 Q175 75 187 75 Q194 75 205.5 78 Q217 81 228 88 L241 60 Q201 27 159.5 8.5 Q118 -10 87 -10 Q64 -10 50.5 2 Q37 14 37 36 Q37 63 70 279 L83 370 Q116 599 116 644 Z " />
<glyph glyph-name="lcaron" unicode="&#x13e;" horiz-adv-x="261" d="M116 644 Q116 656 107 662 Q98 668 83 668 Q68 668 59 666 L54 698 Q141 730 212 730 Q233 730 244 724 Q255 718 255 701 Q255 693 250 663.5 Q245 634 242 615 Q240 606 228 539 Q172 196 168 102 Q168 90 171.5 82.5 Q175 75 187 75 Q194 75 205.5 78 Q217 81 228 88 L241 60 Q201 27 159.5 8.5 Q118 -10 87 -10 Q64 -10 50.5 2 Q37 14 37 36 Q37 63 70 279 L83 370 Q116 599 116 644 Z M336 630 Q363 630 380 613 Q397 596 397 569 Q397 529 364.5 492.5 Q332 456 290 438 L272 460 Q317 488 317 514 L317 516 Q317 533 299 533 Q283 533 274.5 542.5 Q266 552 266 569 Q266 596 286.5 613 Q307 630 336 630 Z " />
<glyph glyph-name="lcommaaccent" unicode="&#x13c;" horiz-adv-x="261" d="M116 644 Q116 656 107 662 Q98 668 83 668 Q68 668 59 666 L54 698 Q141 730 212 730 Q233 730 244 724 Q255 718 255 701 Q255 693 250 663.5 Q245 634 242 615 Q240 606 228 539 Q172 196 168 102 Q168 90 171.5 82.5 Q175 75 187 75 Q194 75 205.5 78 Q217 81 228 88 L241 60 Q201 27 159.5 8.5 Q118 -10 87 -10 Q64 -10 50.5 2 Q37 14 37 36 Q37 63 70 279 L83 370 Q116 599 116 644 Z M97 -34 Q129 -34 148 -54 Q167 -74 167 -102 Q167 -148 131.5 -188.5 Q96 -229 47 -251 L30 -229 Q52 -216 68.5 -198.5 Q85 -181 85 -166 Q86 -141 61 -141 Q45 -141 35.5 -129 Q26 -117 26 -99 Q26 -74 44.5 -54 Q63 -34 97 -34 Z " />
<glyph glyph-name="ldot" unicode="&#x140;" horiz-adv-x="304" d="M116 644 Q116 656 107 662 Q98 668 83 668 Q68 668 59 666 L54 698 Q141 730 212 730 Q233 730 244 724 Q255 718 255 701 Q255 693 250 663.5 Q245 634 242 615 Q240 606 228 539 Q172 196 168 102 Q168 90 171.5 82.5 Q175 75 187 75 Q194 75 205.5 78 Q217 81 228 88 L241 60 Q201 27 159.5 8.5 Q118 -10 87 -10 Q64 -10 50.5 2 Q37 14 37 36 Q37 63 70 279 L83 370 Q116 599 116 644 Z M216 329 Q216 359 233 378 Q250 397 277 397 Q297 397 309.5 382 Q322 367 322 344 Q322 314 305 295.5 Q288 277 261 277 Q242 277 229 291.5 Q216 306 216 329 Z " />
<glyph glyph-name="lslash" unicode="&#x142;" horiz-adv-x="264" d="M209 422 Q170 176 168 102 Q168 90 171.5 82.5 Q175 75 187 75 Q194 75 205.5 78 Q217 81 228 88 L241 60 Q201 27 159.5 8.5 Q118 -10 87 -10 Q64 -10 50.5 2 Q37 14 37 36 Q37 55 67 257 L77 326 L30 290 L39 346 L85 381 Q116 602 116 644 Q116 656 107 662 Q98 668 83 668 Q68 668 59 666 L54 698 Q141 730 212 730 Q233 730 244 724 Q255 718 255 701 Q255 693 250 663.5 Q245 634 242 615 Q240 606 228 539 L218 477 L279 525 L270 468 L209 422 Z " />
<glyph glyph-name="m" unicode="m" horiz-adv-x="781" d="M757 60 Q718 28 675.5 9 Q633 -10 604 -10 Q560 -10 560 35 Q560 65 585 177 Q609 289 609 314 Q609 331 601.5 340.5 Q594 350 580 350 Q555 350 526 315 Q497 280 472.5 226 Q448 172 436 119 L421 0 L298 0 Q343 246 343 311 Q343 350 317 350 Q294 350 266.5 317.5 Q239 285 214 235 Q189 185 175 134 L174 130 L158 0 L35 0 Q56 125 69 212 Q82 299 82 339 Q82 371 53 371 Q45 371 37 369 L33 405 Q71 417 103.5 424 Q136 431 169 431 Q218 431 218 405 Q218 397 211.5 360.5 Q205 324 202 307 L193 257 Q230 334 279.5 384.5 Q329 435 390 435 Q425 435 448 410 Q471 385 471 345 Q471 320 463 278 Q546 435 649 435 Q690 435 714 410 Q738 385 738 345 Q738 322 731 288.5 Q724 255 710 196 Q708 186 699 149.5 Q690 113 690 98 Q690 90 694 82.5 Q698 75 709 75 Q726 75 746 88 L757 60 Z " />
<glyph glyph-name="n" unicode="n" horiz-adv-x="524" d="M500 60 Q460 28 416.5 9 Q373 -10 344 -10 Q326 -10 314 2.5 Q302 15 302 35 Q302 58 313.5 113 Q325 168 327 178 Q352 288 352 316 Q352 332 344 341 Q336 350 322 350 Q298 350 268.5 316 Q239 282 213.5 229 Q188 176 174 124 L159 0 L36 0 Q82 273 82 339 Q82 371 53 371 Q45 371 37 369 L33 405 Q71 417 103.5 424 Q136 431 169 431 Q218 431 218 405 Q218 389 202 307 L193 253 Q229 330 279.5 382.5 Q330 435 392 435 Q433 435 457 410 Q481 385 481 345 Q481 323 474 290 Q467 257 453 197 Q432 117 432 98 Q432 90 436 82.5 Q440 75 451 75 Q468 75 488 88 L500 60 Z " />
<glyph glyph-name="nacute" unicode="&#x144;" horiz-adv-x="524" d="M500 60 Q460 28 416.5 9 Q373 -10 344 -10 Q326 -10 314 2.5 Q302 15 302 35 Q302 58 313.5 113 Q325 168 327 178 Q352 288 352 316 Q352 332 344 341 Q336 350 322 350 Q298 350 268.5 316 Q239 282 213.5 229 Q188 176 174 124 L159 0 L36 0 Q82 273 82 339 Q82 371 53 371 Q45 371 37 369 L33 405 Q71 417 103.5 424 Q136 431 169 431 Q218 431 218 405 Q218 389 202 307 L193 253 Q229 330 279.5 382.5 Q330 435 392 435 Q433 435 457 410 Q481 385 481 345 Q481 323 474 290 Q467 257 453 197 Q432 117 432 98 Q432 90 436 82.5 Q440 75 451 75 Q468 75 488 88 L500 60 Z M476 617 Q476 607 461 599 L282 496 Q268 487 257 487 Q247 487 247 496 Q247 502 251 507.5 Q255 513 267 524 L375 629 Q392 645 398 649 Q404 653 414 653 Q431 653 453.5 640 Q476 627 476 617 Z " />
<glyph glyph-name="ncaron" unicode="&#x148;" horiz-adv-x="524" d="M500 60 Q460 28 416.5 9 Q373 -10 344 -10 Q326 -10 314 2.5 Q302 15 302 35 Q302 58 313.5 113 Q325 168 327 178 Q352 288 352 316 Q352 332 344 341 Q336 350 322 350 Q298 350 268.5 316 Q239 282 213.5 229 Q188 176 174 124 L159 0 L36 0 Q82 273 82 339 Q82 371 53 371 Q45 371 37 369 L33 405 Q71 417 103.5 424 Q136 431 169 431 Q218 431 218 405 Q218 389 202 307 L193 253 Q229 330 279.5 382.5 Q330 435 392 435 Q433 435 457 410 Q481 385 481 345 Q481 323 474 290 Q467 257 453 197 Q432 117 432 98 Q432 90 436 82.5 Q440 75 451 75 Q468 75 488 88 L500 60 Z M482 657 Q493 657 493 650 Q493 644 460 616 Q430 590 407 567 L354 519 Q335 501 318 501 Q302 501 288 519 L249 567 Q230 593 206 619 Q197 629 191 637 Q185 645 185 648 Q185 657 199 657 Q213 657 230 645 L330 579 L448 645 Q467 657 482 657 Z " />
<glyph glyph-name="ncommaaccent" unicode="&#x146;" horiz-adv-x="524" d="M500 60 Q460 28 416.5 9 Q373 -10 344 -10 Q326 -10 314 2.5 Q302 15 302 35 Q302 58 313.5 113 Q325 168 327 178 Q352 288 352 316 Q352 332 344 341 Q336 350 322 350 Q298 350 268.5 316 Q239 282 213.5 229 Q188 176 174 124 L159 0 L36 0 Q82 273 82 339 Q82 371 53 371 Q45 371 37 369 L33 405 Q71 417 103.5 424 Q136 431 169 431 Q218 431 218 405 Q218 389 202 307 L193 253 Q229 330 279.5 382.5 Q330 435 392 435 Q433 435 457 410 Q481 385 481 345 Q481 323 474 290 Q467 257 453 197 Q432 117 432 98 Q432 90 436 82.5 Q440 75 451 75 Q468 75 488 88 L500 60 Z M245 -34 Q277 -34 296 -54 Q315 -74 315 -102 Q315 -148 279.5 -188.5 Q244 -229 195 -251 L178 -229 Q200 -216 216.5 -198.5 Q233 -181 233 -166 Q234 -141 209 -141 Q193 -141 183.5 -129 Q174 -117 174 -99 Q174 -74 192.5 -54 Q211 -34 245 -34 Z " />
<glyph glyph-name="ntilde" unicode="&#xf1;" horiz-adv-x="524" d="M500 60 Q460 28 416.5 9 Q373 -10 344 -10 Q326 -10 314 2.5 Q302 15 302 35 Q302 58 313.5 113 Q325 168 327 178 Q352 288 352 316 Q352 332 344 341 Q336 350 322 350 Q298 350 268.5 316 Q239 282 213.5 229 Q188 176 174 124 L159 0 L36 0 Q82 273 82 339 Q82 371 53 371 Q45 371 37 369 L33 405 Q71 417 103.5 424 Q136 431 169 431 Q218 431 218 405 Q218 389 202 307 L193 253 Q229 330 279.5 382.5 Q330 435 392 435 Q433 435 457 410 Q481 385 481 345 Q481 323 474 290 Q467 257 453 197 Q432 117 432 98 Q432 90 436 82.5 Q440 75 451 75 Q468 75 488 88 L500 60 Z M256 625 Q273 625 292.5 619.5 Q312 614 342 604 Q361 597 380 591.5 Q399 586 411 586 Q425 586 436 596.5 Q447 607 449 624 L477 624 Q471 579 451 552 Q431 525 399 525 Q382 525 361.5 530.5 Q341 536 312 547 Q293 554 274.5 559.5 Q256 565 244 565 Q230 565 219 554.5 Q208 544 206 526 L178 526 Q184 571 204 598 Q224 625 256 625 Z " />
<glyph glyph-name="o" unicode="o" horiz-adv-x="462" d="M283 435 Q364 435 404 389 Q444 343 444 267 Q444 194 413.5 130.5 Q383 67 323.5 28.5 Q264 -10 180 -10 Q99 -10 58.5 36.5 Q18 83 18 158 Q18 232 48.5 295 Q79 358 139 396.5 Q199 435 283 435 Z M262 393 Q202 393 169 278 Q149 206 149 133 Q149 33 201 33 Q262 33 295 152 Q313 220 313 292 Q313 393 262 393 Z " />
<glyph glyph-name="oacute" unicode="&#xf3;" horiz-adv-x="462" d="M283 435 Q364 435 404 389 Q444 343 444 267 Q444 194 413.5 130.5 Q383 67 323.5 28.5 Q264 -10 180 -10 Q99 -10 58.5 36.5 Q18 83 18 158 Q18 232 48.5 295 Q79 358 139 396.5 Q199 435 283 435 Z M262 393 Q202 393 169 278 Q149 206 149 133 Q149 33 201 33 Q262 33 295 152 Q313 220 313 292 Q313 393 262 393 Z M446 617 Q446 607 431 599 L252 496 Q238 487 227 487 Q217 487 217 496 Q217 502 221 507.5 Q225 513 237 524 L345 629 Q362 645 368 649 Q374 653 384 653 Q401 653 423.5 640 Q446 627 446 617 Z " />
<glyph glyph-name="ocircumflex" unicode="&#xf4;" horiz-adv-x="462" d="M283 435 Q364 435 404 389 Q444 343 444 267 Q444 194 413.5 130.5 Q383 67 323.5 28.5 Q264 -10 180 -10 Q99 -10 58.5 36.5 Q18 83 18 158 Q18 232 48.5 295 Q79 358 139 396.5 Q199 435 283 435 Z M262 393 Q202 393 169 278 Q149 206 149 133 Q149 33 201 33 Q262 33 295 152 Q313 220 313 292 Q313 393 262 393 Z M146 492 Q135 492 135 499 Q135 505 168 533 Q198 559 221 582 L274 630 Q293 648 310 648 Q327 648 340 630 L379 582 Q398 556 422 530 Q431 520 437 512 Q443 504 443 501 Q443 492 429 492 Q415 492 398 504 L298 570 L180 504 Q161 492 146 492 Z " />
<glyph glyph-name="odieresis" unicode="&#xf6;" horiz-adv-x="462" d="M283 435 Q364 435 404 389 Q444 343 444 267 Q444 194 413.5 130.5 Q383 67 323.5 28.5 Q264 -10 180 -10 Q99 -10 58.5 36.5 Q18 83 18 158 Q18 232 48.5 295 Q79 358 139 396.5 Q199 435 283 435 Z M262 393 Q202 393 169 278 Q149 206 149 133 Q149 33 201 33 Q262 33 295 152 Q313 220 313 292 Q313 393 262 393 Z M213 657 Q245 657 264 642.5 Q283 628 283 604 Q283 570 259 551 Q235 532 196 532 Q165 532 146 546.5 Q127 561 127 585 Q127 617 151.5 637 Q176 657 213 657 Z M407 657 Q439 657 458 642.5 Q477 628 477 604 Q477 570 453 551 Q429 532 390 532 Q359 532 340 546.5 Q321 561 321 585 Q321 617 345.5 637 Q370 657 407 657 Z " />
<glyph glyph-name="ograve" unicode="&#xf2;" horiz-adv-x="462" d="M283 435 Q364 435 404 389 Q444 343 444 267 Q444 194 413.5 130.5 Q383 67 323.5 28.5 Q264 -10 180 -10 Q99 -10 58.5 36.5 Q18 83 18 158 Q18 232 48.5 295 Q79 358 139 396.5 Q199 435 283 435 Z M262 393 Q202 393 169 278 Q149 206 149 133 Q149 33 201 33 Q262 33 295 152 Q313 220 313 292 Q313 393 262 393 Z M236 653 Q246 653 250.5 649.5 Q255 646 267 629 L349 523 Q354 515 357.5 508.5 Q361 502 360 497 Q358 487 346 487 Q336 487 323 496 L173 599 Q163 606 163 616 Q164 626 191 639.5 Q218 653 236 653 Z " />
<glyph glyph-name="ohungarumlaut" unicode="&#x151;" horiz-adv-x="462" d="M283 435 Q364 435 404 389 Q444 343 444 267 Q444 194 413.5 130.5 Q383 67 323.5 28.5 Q264 -10 180 -10 Q99 -10 58.5 36.5 Q18 83 18 158 Q18 232 48.5 295 Q79 358 139 396.5 Q199 435 283 435 Z M262 393 Q202 393 169 278 Q149 206 149 133 Q149 33 201 33 Q262 33 295 152 Q313 220 313 292 Q313 393 262 393 Z M288 653 Q305 653 328.5 644.5 Q352 636 352 626 Q352 621 344 613 Q322 593 215 504 Q201 492 189 492 Q179 492 179 500 Q179 505 184 512 Q264 632 274 644 Q281 653 288 653 Z M414 653 Q431 653 454 644.5 Q477 636 477 626 Q477 621 469 613 Q459 603 340 504 Q326 492 314 492 Q304 492 304 500 Q304 505 309 512 L377 612 Q398 643 399 644 Q403 649 406 651 Q409 653 414 653 Z " />
<glyph glyph-name="omacron" unicode="&#x14d;" horiz-adv-x="462" d="M283 435 Q364 435 404 389 Q444 343 444 267 Q444 194 413.5 130.5 Q383 67 323.5 28.5 Q264 -10 180 -10 Q99 -10 58.5 36.5 Q18 83 18 158 Q18 232 48.5 295 Q79 358 139 396.5 Q199 435 283 435 Z M262 393 Q202 393 169 278 Q149 206 149 133 Q149 33 201 33 Q262 33 295 152 Q313 220 313 292 Q313 393 262 393 Z M423 607 L416 560 L176 560 L183 607 L423 607 Z " />
<glyph glyph-name="oslash" unicode="&#xf8;" horiz-adv-x="459" d="M389 403 Q444 360 444 267 Q444 194 413.5 130.5 Q383 67 323.5 28.5 Q264 -10 180 -10 Q143 -10 113 1 L54 -85 L18 -67 L77 19 Q47 41 32.5 77 Q18 113 18 158 Q18 232 48.5 295 Q79 358 139 396.5 Q199 435 283 435 Q326 435 355 422 L411 504 L443 482 L389 403 Z M149 124 L306 352 Q294 393 262 393 Q202 393 169 278 Q149 206 149 133 L149 124 Z M295 152 Q313 220 313 292 L313 293 L158 67 Q171 33 201 33 Q262 33 295 152 Z " />
<glyph glyph-name="otilde" unicode="&#xf5;" horiz-adv-x="462" d="M283 435 Q364 435 404 389 Q444 343 444 267 Q444 194 413.5 130.5 Q383 67 323.5 28.5 Q264 -10 180 -10 Q99 -10 58.5 36.5 Q18 83 18 158 Q18 232 48.5 295 Q79 358 139 396.5 Q199 435 283 435 Z M262 393 Q202 393 169 278 Q149 206 149 133 Q149 33 201 33 Q262 33 295 152 Q313 220 313 292 Q313 393 262 393 Z M226 625 Q243 625 262.5 619.5 Q282 614 312 604 Q331 597 350 591.5 Q369 586 381 586 Q395 586 406 596.5 Q417 607 419 624 L447 624 Q441 579 421 552 Q401 525 369 525 Q352 525 331.5 530.5 Q311 536 282 547 Q263 554 244.5 559.5 Q226 565 214 565 Q200 565 189 554.5 Q178 544 176 526 L148 526 Q154 571 174 598 Q194 625 226 625 Z " />
<glyph glyph-name="oe" unicode="&#x153;" horiz-adv-x="704" d="M713 338 Q713 303 686 270.5 Q659 238 600.5 213.5 Q542 189 452 180 L452 165 Q452 112 472.5 85.5 Q493 59 529 59 Q557 59 589 72 Q621 85 651 109 L673 89 Q638 43 584.5 15.5 Q531 -12 475 -12 Q390 -12 348 46 Q281 -10 180 -10 Q99 -10 58.5 36.5 Q18 83 18 158 Q18 232 48.5 295 Q79 358 139 396.5 Q199 435 283 435 Q376 435 417 371 Q451 400 491.5 416 Q532 432 573 432 Q636 432 674.5 406 Q713 380 713 338 Z M567 397 Q516 397 482 316 Q461 267 455 213 Q529 226 567.5 262.5 Q606 299 606 352 Q606 372 596.5 384.5 Q587 397 567 397 Z M295 152 Q313 220 313 292 Q313 393 262 393 Q202 393 169 278 Q149 206 149 133 Q149 33 201 33 Q262 33 295 152 Z " />
<glyph glyph-name="p" unicode="p" horiz-adv-x="498" d="M383 435 Q427 435 456 401 Q485 367 485 311 Q485 231 452 156.5 Q419 82 362 36 Q305 -10 236 -10 Q211 -10 190 0 Q169 10 159 30 Q134 -143 132 -196 Q132 -208 141 -208 L204 -206 L199 -239 L-40 -239 L-35 -206 L-4 -208 Q7 -207 10 -188 Q26 -91 53.5 106 Q81 303 81 338 Q81 370 52 370 Q44 370 36 368 L32 405 Q70 417 102.5 424 Q135 431 168 431 Q217 431 217 406 Q217 393 194 268 L190 244 Q227 344 279 389.5 Q331 435 383 435 Z M336 183 Q351 239 351 290 Q351 322 341.5 340 Q332 358 317 358 Q294 358 259 308 Q224 258 197.5 191 Q171 124 171 78 Q171 54 185 41 Q199 28 220 28 Q257 28 287 70 Q317 112 336 183 Z " />
<glyph glyph-name="thorn" unicode="&#xfe;" horiz-adv-x="495" d="M380 435 Q424 435 453 401 Q482 367 482 311 Q482 231 449 156.5 Q416 82 359 36 Q302 -10 233 -10 Q208 -10 187 0 Q166 10 156 30 Q130 -159 129 -196 Q129 -208 138 -208 L201 -206 L196 -239 L-43 -239 L-38 -206 L-7 -208 Q4 -207 7 -188 Q33 -8 74.5 298 Q116 604 116 644 Q116 656 107 662 Q98 668 83 668 Q67 668 59 666 L54 698 Q137 730 211 730 Q233 730 244 724 Q255 718 255 701 Q255 695 242 617 Q234 575 225 520 L214 451 Q191 312 179 220 Q215 332 269.5 383.5 Q324 435 380 435 Z M326 163 Q348 226 348 290 Q348 322 338.5 340 Q329 358 314 358 Q291 358 256 308 Q221 258 194.5 191 Q168 124 168 78 Q168 54 182 41 Q196 28 217 28 Q250 28 279 64.5 Q308 101 326 163 Z " />
<glyph glyph-name="q" unicode="q" horiz-adv-x="478" d="M476 434 Q452 342 430 204.5 Q408 67 393 -53 Q378 -173 378 -195 Q378 -208 387 -208 L450 -206 L445 -239 L202 -239 L207 -206 L238 -208 Q249 -207 252 -188 Q279 16 308 184 Q271 83 219 36.5 Q167 -10 114 -10 Q71 -10 42 24 Q13 58 13 114 Q13 194 46 268.5 Q79 343 136 389 Q193 435 261 435 Q284 435 303.5 426.5 Q323 418 334 401 L341 420 L476 434 Z M182 68 Q205 68 240 118 Q275 168 301 235 Q327 302 327 348 Q327 372 313 385 Q299 398 278 398 Q242 398 211.5 355.5 Q181 313 163 244 Q147 183 147 136 Q147 103 156.5 85.5 Q166 68 182 68 Z " />
<glyph glyph-name="r" unicode="r" horiz-adv-x="421" d="M353 428 Q389 428 408 404.5 Q427 381 427 350 Q427 318 407.5 293 Q388 268 352 268 Q334 268 320 276 Q306 284 306 304 Q306 313 309.5 323.5 Q313 334 313 339 Q313 344 310 347.5 Q307 351 303 351 Q282 351 256.5 316 Q231 281 208 226 Q185 171 173 115 L159 0 L36 0 Q82 273 82 339 Q82 371 53 371 Q45 371 37 369 L33 405 Q71 417 103.5 424 Q136 431 169 431 Q218 431 218 405 Q218 391 195 263 Q223 335 264 381.5 Q305 428 353 428 Z " />
<glyph glyph-name="racute" unicode="&#x155;" horiz-adv-x="421" d="M353 428 Q389 428 408 404.5 Q427 381 427 350 Q427 318 407.5 293 Q388 268 352 268 Q334 268 320 276 Q306 284 306 304 Q306 313 309.5 323.5 Q313 334 313 339 Q313 344 310 347.5 Q307 351 303 351 Q282 351 256.5 316 Q231 281 208 226 Q185 171 173 115 L159 0 L36 0 Q82 273 82 339 Q82 371 53 371 Q45 371 37 369 L33 405 Q71 417 103.5 424 Q136 431 169 431 Q218 431 218 405 Q218 391 195 263 Q223 335 264 381.5 Q305 428 353 428 Z M342 617 Q342 607 327 599 L148 496 Q134 487 123 487 Q113 487 113 496 Q113 502 117 507.5 Q121 513 133 524 L241 629 Q258 645 264 649 Q270 653 280 653 Q297 653 319.5 640 Q342 627 342 617 Z " />
<glyph glyph-name="rcaron" unicode="&#x159;" horiz-adv-x="421" d="M353 428 Q389 428 408 404.5 Q427 381 427 350 Q427 318 407.5 293 Q388 268 352 268 Q334 268 320 276 Q306 284 306 304 Q306 313 309.5 323.5 Q313 334 313 339 Q313 344 310 347.5 Q307 351 303 351 Q282 351 256.5 316 Q231 281 208 226 Q185 171 173 115 L159 0 L36 0 Q82 273 82 339 Q82 371 53 371 Q45 371 37 369 L33 405 Q71 417 103.5 424 Q136 431 169 431 Q218 431 218 405 Q218 391 195 263 Q223 335 264 381.5 Q305 428 353 428 Z M348 657 Q359 657 359 650 Q359 644 326 616 Q296 590 273 567 L220 519 Q201 501 184 501 Q168 501 154 519 L115 567 Q96 593 72 619 Q63 629 57 637 Q51 645 51 648 Q51 657 65 657 Q79 657 96 645 L196 579 L314 645 Q333 657 348 657 Z " />
<glyph glyph-name="rcommaaccent" unicode="&#x157;" horiz-adv-x="421" d="M353 428 Q389 428 408 404.5 Q427 381 427 350 Q427 318 407.5 293 Q388 268 352 268 Q334 268 320 276 Q306 284 306 304 Q306 313 309.5 323.5 Q313 334 313 339 Q313 344 310 347.5 Q307 351 303 351 Q282 351 256.5 316 Q231 281 208 226 Q185 171 173 115 L159 0 L36 0 Q82 273 82 339 Q82 371 53 371 Q45 371 37 369 L33 405 Q71 417 103.5 424 Q136 431 169 431 Q218 431 218 405 Q218 391 195 263 Q223 335 264 381.5 Q305 428 353 428 Z M96 -34 Q128 -34 147 -54 Q166 -74 166 -102 Q166 -148 130.5 -188.5 Q95 -229 46 -251 L29 -229 Q51 -216 67.5 -198.5 Q84 -181 84 -166 Q85 -141 60 -141 Q44 -141 34.5 -129 Q25 -117 25 -99 Q25 -74 43.5 -54 Q62 -34 96 -34 Z " />
<glyph glyph-name="s" unicode="s" horiz-adv-x="390" d="M318 278 Q296 278 282 288.5 Q268 299 268 315 Q268 327 275 341 Q281 355 281 364 Q281 381 264.5 391 Q248 401 221 401 Q190 401 171.5 383.5 Q153 366 152 341 Q153 316 173.5 299.5 Q194 283 238 260 Q275 241 298 226 Q321 211 337 187.5 Q353 164 353 131 Q353 62 296 26 Q239 -10 155 -10 Q86 -10 42 16.5 Q-2 43 -2 83 Q-2 111 16 129.5 Q34 148 66 148 Q115 148 115 111 Q115 98 107 84 Q101 70 101 62 Q101 45 117 35 Q133 25 161 25 Q199 25 221.5 41 Q244 57 244 82 Q244 107 223.5 124.5 Q203 142 161 163 Q124 182 101 197.5 Q78 213 61.5 237.5 Q45 262 45 296 Q45 362 98.5 398.5 Q152 435 227 435 Q270 435 305 422.5 Q340 410 360 389 Q380 368 380 343 Q380 315 362.5 296.5 Q345 278 318 278 Z " />
<glyph glyph-name="sacute" unicode="&#x15b;" horiz-adv-x="390" d="M318 278 Q296 278 282 288.5 Q268 299 268 315 Q268 327 275 341 Q281 355 281 364 Q281 381 264.5 391 Q248 401 221 401 Q190 401 171.5 383.5 Q153 366 152 341 Q153 316 173.5 299.5 Q194 283 238 260 Q275 241 298 226 Q321 211 337 187.5 Q353 164 353 131 Q353 62 296 26 Q239 -10 155 -10 Q86 -10 42 16.5 Q-2 43 -2 83 Q-2 111 16 129.5 Q34 148 66 148 Q115 148 115 111 Q115 98 107 84 Q101 70 101 62 Q101 45 117 35 Q133 25 161 25 Q199 25 221.5 41 Q244 57 244 82 Q244 107 223.5 124.5 Q203 142 161 163 Q124 182 101 197.5 Q78 213 61.5 237.5 Q45 262 45 296 Q45 362 98.5 398.5 Q152 435 227 435 Q270 435 305 422.5 Q340 410 360 389 Q380 368 380 343 Q380 315 362.5 296.5 Q345 278 318 278 Z M391 617 Q391 607 376 599 L197 496 Q183 487 172 487 Q162 487 162 496 Q162 502 166 507.5 Q170 513 182 524 L290 629 Q307 645 313 649 Q319 653 329 653 Q346 653 368.5 640 Q391 627 391 617 Z " />
<glyph glyph-name="scaron" unicode="&#x161;" horiz-adv-x="390" d="M318 278 Q296 278 282 288.5 Q268 299 268 315 Q268 327 275 341 Q281 355 281 364 Q281 381 264.5 391 Q248 401 221 401 Q190 401 171.5 383.5 Q153 366 152 341 Q153 316 173.5 299.5 Q194 283 238 260 Q275 241 298 226 Q321 211 337 187.5 Q353 164 353 131 Q353 62 296 26 Q239 -10 155 -10 Q86 -10 42 16.5 Q-2 43 -2 83 Q-2 111 16 129.5 Q34 148 66 148 Q115 148 115 111 Q115 98 107 84 Q101 70 101 62 Q101 45 117 35 Q133 25 161 25 Q199 25 221.5 41 Q244 57 244 82 Q244 107 223.5 124.5 Q203 142 161 163 Q124 182 101 197.5 Q78 213 61.5 237.5 Q45 262 45 296 Q45 362 98.5 398.5 Q152 435 227 435 Q270 435 305 422.5 Q340 410 360 389 Q380 368 380 343 Q380 315 362.5 296.5 Q345 278 318 278 Z M397 657 Q408 657 408 650 Q408 644 375 616 Q345 590 322 567 L269 519 Q250 501 233 501 Q217 501 203 519 L164 567 Q145 593 121 619 Q112 629 106 637 Q100 645 100 648 Q100 657 114 657 Q128 657 145 645 L245 579 L363 645 Q382 657 397 657 Z " />
<glyph glyph-name="scedilla" unicode="&#x15f;" horiz-adv-x="390" d="M318 278 Q296 278 282 288.5 Q268 299 268 315 Q268 327 275 341 Q281 355 281 364 Q281 381 264.5 391 Q248 401 221 401 Q190 401 171.5 383.5 Q153 366 152 341 Q153 316 173.5 299.5 Q194 283 238 260 Q275 241 298 226 Q321 211 337 187.5 Q353 164 353 131 Q353 66 303 30.5 Q253 -5 176 -9 L155 -36 Q147 -49 147 -56 Q147 -62 154 -65 Q161 -68 177 -72 Q203 -77 218 -86 Q233 -95 233 -116 Q233 -161 193 -187.5 Q153 -214 104 -214 Q59 -214 37 -198 L55 -165 Q65 -179 88 -179 Q109 -179 126.5 -164 Q144 -149 144 -130 Q144 -110 116 -94 L95 -80 Q86 -73 86 -66 Q86 -59 94 -52 L133 -9 Q73 -5 35.5 21 Q-2 47 -2 83 Q-2 111 16 129.5 Q34 148 66 148 Q115 148 115 111 Q115 98 107 84 Q101 70 101 62 Q101 45 117 35 Q133 25 161 25 Q199 25 221.5 41 Q244 57 244 82 Q244 107 223.5 124.5 Q203 142 161 163 Q124 182 101 197.5 Q78 213 61.5 237.5 Q45 262 45 296 Q45 362 98.5 398.5 Q152 435 227 435 Q270 435 305 422.5 Q340 410 360 389 Q380 368 380 343 Q380 315 362.5 296.5 Q345 278 318 278 Z " />
<glyph glyph-name="scommaaccent" unicode="&#x219;" horiz-adv-x="390" d="M318 278 Q296 278 282 288.5 Q268 299 268 315 Q268 327 275 341 Q281 355 281 364 Q281 381 264.5 391 Q248 401 221 401 Q190 401 171.5 383.5 Q153 366 152 341 Q153 316 173.5 299.5 Q194 283 238 260 Q275 241 298 226 Q321 211 337 187.5 Q353 164 353 131 Q353 62 296 26 Q239 -10 155 -10 Q86 -10 42 16.5 Q-2 43 -2 83 Q-2 111 16 129.5 Q34 148 66 148 Q115 148 115 111 Q115 98 107 84 Q101 70 101 62 Q101 45 117 35 Q133 25 161 25 Q199 25 221.5 41 Q244 57 244 82 Q244 107 223.5 124.5 Q203 142 161 163 Q124 182 101 197.5 Q78 213 61.5 237.5 Q45 262 45 296 Q45 362 98.5 398.5 Q152 435 227 435 Q270 435 305 422.5 Q340 410 360 389 Q380 368 380 343 Q380 315 362.5 296.5 Q345 278 318 278 Z M154 -34 Q186 -34 205 -54 Q224 -74 224 -102 Q224 -148 188.5 -188.5 Q153 -229 104 -251 L87 -229 Q109 -216 125.5 -198.5 Q142 -181 142 -166 Q143 -141 118 -141 Q102 -141 92.5 -129 Q83 -117 83 -99 Q83 -74 101.5 -54 Q120 -34 154 -34 Z " />
<glyph glyph-name="germandbls" unicode="&#xdf;" horiz-adv-x="593" d="M108 440 Q123 570 194 649.5 Q265 729 389 729 Q458 729 502 702 Q546 675 546 629 Q546 588 523.5 560.5 Q501 533 459 501 Q443 490 433 481 Q414 465 403.5 449 Q393 433 393 414 Q393 372 413.5 345.5 Q434 319 474 287 Q517 253 539 223.5 Q561 194 561 146 Q561 74 505.5 32.5 Q450 -9 364 -9 Q308 -9 277.5 10.5 Q247 30 247 64 Q247 92 265 110 Q283 128 314 128 Q355 128 355 95 Q355 83 347 65 Q341 49 341 41 Q341 20 370 20 Q397 20 415 41.5 Q433 63 433 103 Q433 146 414.5 171 Q396 196 359 226 Q322 255 303.5 280.5 Q285 306 285 347 Q285 385 299.5 407.5 Q314 430 344 457 Q349 462 360.5 473 Q372 484 380 494 Q421 545 421 614 Q421 655 408 675.5 Q395 696 361 696 Q314 696 282.5 643.5 Q251 591 241 454 L202 102 Q182 -54 124.5 -149.5 Q67 -245 -32 -245 Q-83 -245 -118.5 -220.5 Q-154 -196 -154 -159 Q-154 -132 -135.5 -111.5 Q-117 -91 -83 -91 Q-61 -91 -47 -100.5 Q-33 -110 -33 -128 Q-33 -136 -39 -152 Q-47 -168 -47 -181 Q-47 -211 -19 -211 Q17 -211 36 -145.5 Q55 -80 67 72 L108 440 Z " />
<glyph glyph-name="t" unicode="t" horiz-adv-x="348" d="M237 387 Q220 299 214 262 Q193 141 193 104 Q193 70 221 70 Q249 70 291 106 L314 84 Q233 -9 142 -9 Q99 -9 79 9.5 Q59 28 59 57 Q59 81 76 186 L82 226 L109 387 L31 387 L54 425 L115 425 L130 517 L265 540 L244 425 L341 425 L341 403 L312 387 L237 387 Z " />
<glyph glyph-name="tcaron" unicode="&#x165;" horiz-adv-x="348" d="M237 387 Q220 299 214 262 Q193 141 193 104 Q193 70 221 70 Q249 70 291 106 L314 84 Q233 -9 142 -9 Q99 -9 79 9.5 Q59 28 59 57 Q59 81 76 186 L82 226 L109 387 L31 387 L54 425 L115 425 L130 517 L265 540 L244 425 L341 425 L341 403 L312 387 L237 387 Z M352 630 Q379 630 396 613 Q413 596 413 569 Q413 529 380.5 492.5 Q348 456 306 438 L288 460 Q333 488 333 514 L333 516 Q333 533 315 533 Q299 533 290.5 542.5 Q282 552 282 569 Q282 596 302.5 613 Q323 630 352 630 Z " />
<glyph glyph-name="uni0163" unicode="&#x163;" horiz-adv-x="348" d="M237 387 Q220 299 214 262 Q193 141 193 104 Q193 70 221 70 Q249 70 291 106 L314 84 Q249 9 177 -6 L153 -36 Q145 -49 145 -56 Q145 -62 152 -65 Q159 -68 175 -72 Q201 -77 216 -86 Q231 -95 231 -116 Q231 -161 191 -187.5 Q151 -214 102 -214 Q57 -214 35 -198 L53 -165 Q63 -179 86 -179 Q107 -179 124.5 -164 Q142 -149 142 -130 Q142 -110 114 -94 L93 -80 Q84 -73 84 -66 Q84 -59 92 -52 L132 -9 Q94 -7 76.5 11 Q59 29 59 57 Q59 81 76 186 L82 226 L109 387 L31 387 L54 425 L115 425 L130 517 L265 540 L244 425 L341 425 L341 403 L312 387 L237 387 Z " />
<glyph glyph-name="uni021B" unicode="&#x21b;" horiz-adv-x="348" d="M237 387 Q220 299 214 262 Q193 141 193 104 Q193 70 221 70 Q249 70 291 106 L314 84 Q233 -9 142 -9 Q99 -9 79 9.5 Q59 28 59 57 Q59 81 76 186 L82 226 L109 387 L31 387 L54 425 L115 425 L130 517 L265 540 L244 425 L341 425 L341 403 L312 387 L237 387 Z M152 -34 Q184 -34 203 -54 Q222 -74 222 -102 Q222 -148 186.5 -188.5 Q151 -229 102 -251 L85 -229 Q107 -216 123.5 -198.5 Q140 -181 140 -166 Q141 -141 116 -141 Q100 -141 90.5 -129 Q81 -117 81 -99 Q81 -74 99.5 -54 Q118 -34 152 -34 Z " />
<glyph glyph-name="u" unicode="u" horiz-adv-x="525" d="M498 60 Q454 23 411.5 6.5 Q369 -10 336 -10 Q318 -10 311 1 Q304 12 304 36 Q304 54 308.5 89.5 Q313 125 319 165 Q267 70 221 30 Q175 -10 126 -10 Q86 -10 65 12.5 Q44 35 44 70 Q44 106 74 239 Q94 326 94 344 Q94 371 57 371 Q45 371 37 369 L33 405 Q87 419 118 425 Q149 431 183 431 Q224 431 224 405 Q224 395 215 354 Q206 313 203 302 Q200 289 190 243.5 Q180 198 174.5 167 Q169 136 169 122 Q169 104 175.5 93.5 Q182 83 196 83 Q220 83 249.5 117.5 Q279 152 303.5 202 Q328 252 338 295 L357 416 L494 433 Q491 419 484 380 Q455 228 445.5 173 Q436 118 436 92 Q436 75 449 75 Q467 75 487 88 L498 60 Z " />
<glyph glyph-name="uacute" unicode="&#xfa;" horiz-adv-x="525" d="M498 60 Q454 23 411.5 6.5 Q369 -10 336 -10 Q318 -10 311 1 Q304 12 304 36 Q304 54 308.5 89.5 Q313 125 319 165 Q267 70 221 30 Q175 -10 126 -10 Q86 -10 65 12.5 Q44 35 44 70 Q44 106 74 239 Q94 326 94 344 Q94 371 57 371 Q45 371 37 369 L33 405 Q87 419 118 425 Q149 431 183 431 Q224 431 224 405 Q224 395 215 354 Q206 313 203 302 Q200 289 190 243.5 Q180 198 174.5 167 Q169 136 169 122 Q169 104 175.5 93.5 Q182 83 196 83 Q220 83 249.5 117.5 Q279 152 303.5 202 Q328 252 338 295 L357 416 L494 433 Q491 419 484 380 Q455 228 445.5 173 Q436 118 436 92 Q436 75 449 75 Q467 75 487 88 L498 60 Z M443 617 Q443 607 428 599 L249 496 Q235 487 224 487 Q214 487 214 496 Q214 502 218 507.5 Q222 513 234 524 L342 629 Q359 645 365 649 Q371 653 381 653 Q398 653 420.5 640 Q443 627 443 617 Z " />
<glyph glyph-name="ucircumflex" unicode="&#xfb;" horiz-adv-x="525" d="M498 60 Q454 23 411.5 6.5 Q369 -10 336 -10 Q318 -10 311 1 Q304 12 304 36 Q304 54 308.5 89.5 Q313 125 319 165 Q267 70 221 30 Q175 -10 126 -10 Q86 -10 65 12.5 Q44 35 44 70 Q44 106 74 239 Q94 326 94 344 Q94 371 57 371 Q45 371 37 369 L33 405 Q87 419 118 425 Q149 431 183 431 Q224 431 224 405 Q224 395 215 354 Q206 313 203 302 Q200 289 190 243.5 Q180 198 174.5 167 Q169 136 169 122 Q169 104 175.5 93.5 Q182 83 196 83 Q220 83 249.5 117.5 Q279 152 303.5 202 Q328 252 338 295 L357 416 L494 433 Q491 419 484 380 Q455 228 445.5 173 Q436 118 436 92 Q436 75 449 75 Q467 75 487 88 L498 60 Z M143 492 Q132 492 132 499 Q132 505 165 533 Q195 559 218 582 L271 630 Q290 648 307 648 Q324 648 337 630 L376 582 Q395 556 419 530 Q428 520 434 512 Q440 504 440 501 Q440 492 426 492 Q412 492 395 504 L295 570 L177 504 Q158 492 143 492 Z " />
<glyph glyph-name="udieresis" unicode="&#xfc;" horiz-adv-x="525" d="M498 60 Q454 23 411.5 6.5 Q369 -10 336 -10 Q318 -10 311 1 Q304 12 304 36 Q304 54 308.5 89.5 Q313 125 319 165 Q267 70 221 30 Q175 -10 126 -10 Q86 -10 65 12.5 Q44 35 44 70 Q44 106 74 239 Q94 326 94 344 Q94 371 57 371 Q45 371 37 369 L33 405 Q87 419 118 425 Q149 431 183 431 Q224 431 224 405 Q224 395 215 354 Q206 313 203 302 Q200 289 190 243.5 Q180 198 174.5 167 Q169 136 169 122 Q169 104 175.5 93.5 Q182 83 196 83 Q220 83 249.5 117.5 Q279 152 303.5 202 Q328 252 338 295 L357 416 L494 433 Q491 419 484 380 Q455 228 445.5 173 Q436 118 436 92 Q436 75 449 75 Q467 75 487 88 L498 60 Z M210 657 Q242 657 261 642.5 Q280 628 280 604 Q280 570 256 551 Q232 532 193 532 Q162 532 143 546.5 Q124 561 124 585 Q124 617 148.5 637 Q173 657 210 657 Z M404 657 Q436 657 455 642.5 Q474 628 474 604 Q474 570 450 551 Q426 532 387 532 Q356 532 337 546.5 Q318 561 318 585 Q318 617 342.5 637 Q367 657 404 657 Z " />
<glyph glyph-name="ugrave" unicode="&#xf9;" horiz-adv-x="525" d="M498 60 Q454 23 411.5 6.5 Q369 -10 336 -10 Q318 -10 311 1 Q304 12 304 36 Q304 54 308.5 89.5 Q313 125 319 165 Q267 70 221 30 Q175 -10 126 -10 Q86 -10 65 12.5 Q44 35 44 70 Q44 106 74 239 Q94 326 94 344 Q94 371 57 371 Q45 371 37 369 L33 405 Q87 419 118 425 Q149 431 183 431 Q224 431 224 405 Q224 395 215 354 Q206 313 203 302 Q200 289 190 243.5 Q180 198 174.5 167 Q169 136 169 122 Q169 104 175.5 93.5 Q182 83 196 83 Q220 83 249.5 117.5 Q279 152 303.5 202 Q328 252 338 295 L357 416 L494 433 Q491 419 484 380 Q455 228 445.5 173 Q436 118 436 92 Q436 75 449 75 Q467 75 487 88 L498 60 Z M233 653 Q243 653 247.5 649.5 Q252 646 264 629 L346 523 Q351 515 354.5 508.5 Q358 502 357 497 Q355 487 343 487 Q333 487 320 496 L170 599 Q160 606 160 616 Q161 626 188 639.5 Q215 653 233 653 Z " />
<glyph glyph-name="uhungarumlaut" unicode="&#x171;" horiz-adv-x="525" d="M498 60 Q454 23 411.5 6.5 Q369 -10 336 -10 Q318 -10 311 1 Q304 12 304 36 Q304 54 308.5 89.5 Q313 125 319 165 Q267 70 221 30 Q175 -10 126 -10 Q86 -10 65 12.5 Q44 35 44 70 Q44 106 74 239 Q94 326 94 344 Q94 371 57 371 Q45 371 37 369 L33 405 Q87 419 118 425 Q149 431 183 431 Q224 431 224 405 Q224 395 215 354 Q206 313 203 302 Q200 289 190 243.5 Q180 198 174.5 167 Q169 136 169 122 Q169 104 175.5 93.5 Q182 83 196 83 Q220 83 249.5 117.5 Q279 152 303.5 202 Q328 252 338 295 L357 416 L494 433 Q491 419 484 380 Q455 228 445.5 173 Q436 118 436 92 Q436 75 449 75 Q467 75 487 88 L498 60 Z M285 653 Q302 653 325.5 644.5 Q349 636 349 626 Q349 621 341 613 Q319 593 212 504 Q198 492 186 492 Q176 492 176 500 Q176 505 181 512 Q261 632 271 644 Q278 653 285 653 Z M411 653 Q428 653 451 644.5 Q474 636 474 626 Q474 621 466 613 Q456 603 337 504 Q323 492 311 492 Q301 492 301 500 Q301 505 306 512 L374 612 Q395 643 396 644 Q400 649 403 651 Q406 653 411 653 Z " />
<glyph glyph-name="umacron" unicode="&#x16b;" horiz-adv-x="525" d="M498 60 Q454 23 411.5 6.5 Q369 -10 336 -10 Q318 -10 311 1 Q304 12 304 36 Q304 54 308.5 89.5 Q313 125 319 165 Q267 70 221 30 Q175 -10 126 -10 Q86 -10 65 12.5 Q44 35 44 70 Q44 106 74 239 Q94 326 94 344 Q94 371 57 371 Q45 371 37 369 L33 405 Q87 419 118 425 Q149 431 183 431 Q224 431 224 405 Q224 395 215 354 Q206 313 203 302 Q200 289 190 243.5 Q180 198 174.5 167 Q169 136 169 122 Q169 104 175.5 93.5 Q182 83 196 83 Q220 83 249.5 117.5 Q279 152 303.5 202 Q328 252 338 295 L357 416 L494 433 Q491 419 484 380 Q455 228 445.5 173 Q436 118 436 92 Q436 75 449 75 Q467 75 487 88 L498 60 Z M420 607 L413 560 L173 560 L180 607 L420 607 Z " />
<glyph glyph-name="uogonek" unicode="&#x173;" horiz-adv-x="525" d="M500 -99 Q471 -128 439 -143.5 Q407 -159 375 -159 Q345 -159 324 -142.5 Q303 -126 303 -96 Q303 -72 316 -50 Q329 -28 353 -9 Q347 -10 336 -10 Q318 -10 311 1 Q304 12 304 36 Q304 54 308.5 89.5 Q313 125 319 165 Q267 70 221 30 Q175 -10 126 -10 Q86 -10 65 12.5 Q44 35 44 70 Q44 106 74 239 Q94 326 94 344 Q94 371 57 371 Q45 371 37 369 L33 405 Q87 419 118 425 Q149 431 183 431 Q224 431 224 405 Q224 395 215 354 Q206 313 203 302 Q200 289 190 243.5 Q180 198 174.5 167 Q169 136 169 122 Q169 104 175.5 93.5 Q182 83 196 83 Q220 83 249.5 117.5 Q279 152 303.5 202 Q328 252 338 295 L357 416 L494 433 Q491 419 484 380 Q455 228 445.5 173 Q436 118 436 92 Q436 75 449 75 Q467 75 487 88 L498 60 Q465 32 428 14 Q403 2 389 -18 Q375 -38 375 -61 Q375 -79 386 -90 Q397 -101 419 -101 Q452 -101 490 -79 L500 -99 Z " />
<glyph glyph-name="uring" unicode="&#x16f;" horiz-adv-x="525" d="M498 60 Q454 23 411.5 6.5 Q369 -10 336 -10 Q318 -10 311 1 Q304 12 304 36 Q304 54 308.5 89.5 Q313 125 319 165 Q267 70 221 30 Q175 -10 126 -10 Q86 -10 65 12.5 Q44 35 44 70 Q44 106 74 239 Q94 326 94 344 Q94 371 57 371 Q45 371 37 369 L33 405 Q87 419 118 425 Q149 431 183 431 Q224 431 224 405 Q224 395 215 354 Q206 313 203 302 Q200 289 190 243.5 Q180 198 174.5 167 Q169 136 169 122 Q169 104 175.5 93.5 Q182 83 196 83 Q220 83 249.5 117.5 Q279 152 303.5 202 Q328 252 338 295 L357 416 L494 433 Q491 419 484 380 Q455 228 445.5 173 Q436 118 436 92 Q436 75 449 75 Q467 75 487 88 L498 60 Z M210 564 Q210 603 239 630.5 Q268 658 308 658 Q343 658 364 638 Q385 618 385 586 Q385 545 356 518.5 Q327 492 285 492 Q251 492 230.5 512 Q210 532 210 564 Z M260 568 Q260 552 268.5 542.5 Q277 533 291 533 Q310 533 322 546.5 Q334 560 334 581 Q334 597 325.5 606.5 Q317 616 302 616 Q284 616 272 602.5 Q260 589 260 568 Z " />
<glyph glyph-name="v" unicode="v" horiz-adv-x="432" d="M364 435 Q397 435 415.5 415.5 Q434 396 434 361 Q434 306 396.5 234.5 Q359 163 304.5 97.5 Q250 32 202 -5 L167 -5 L76 341 Q72 359 65 366.5 Q58 374 47 374 Q39 374 24 371 L18 405 Q92 431 134 431 Q160 431 176 417 Q192 403 200 364 L258 102 Q306 155 336.5 207 Q367 259 367 299 Q367 324 336 324 Q317 324 306.5 337.5 Q296 351 296 375 Q296 402 314.5 418.5 Q333 435 364 435 Z " />
<glyph glyph-name="w" unicode="w" horiz-adv-x="685" d="M617 435 Q650 435 668.5 415.5 Q687 396 687 361 Q687 306 649.5 234.5 Q612 163 557.5 97.5 Q503 32 454 -5 L420 -5 L371 189 Q335 132 288.5 79 Q242 26 202 -5 L167 -5 L76 341 Q72 359 65 366.5 Q58 374 47 374 Q39 374 24 371 L18 405 Q92 431 134 431 Q160 431 176 417 Q192 403 200 364 L258 102 Q333 188 356 248 L326 354 Q314 399 299 425 L439 425 L510 102 Q558 156 588.5 208 Q619 260 619 299 Q619 324 589 324 Q570 324 559.5 337.5 Q549 351 549 375 Q549 402 567.5 418.5 Q586 435 617 435 Z " />
<glyph glyph-name="wacute" unicode="&#x1e83;" horiz-adv-x="685" d="M617 435 Q650 435 668.5 415.5 Q687 396 687 361 Q687 306 649.5 234.5 Q612 163 557.5 97.5 Q503 32 454 -5 L420 -5 L371 189 Q335 132 288.5 79 Q242 26 202 -5 L167 -5 L76 341 Q72 359 65 366.5 Q58 374 47 374 Q39 374 24 371 L18 405 Q92 431 134 431 Q160 431 176 417 Q192 403 200 364 L258 102 Q333 188 356 248 L326 354 Q314 399 299 425 L439 425 L510 102 Q558 156 588.5 208 Q619 260 619 299 Q619 324 589 324 Q570 324 559.5 337.5 Q549 351 549 375 Q549 402 567.5 418.5 Q586 435 617 435 Z M531 617 Q531 607 516 599 L337 496 Q323 487 312 487 Q302 487 302 496 Q302 502 306 507.5 Q310 513 322 524 L430 629 Q447 645 453 649 Q459 653 469 653 Q486 653 508.5 640 Q531 627 531 617 Z " />
<glyph glyph-name="wcircumflex" unicode="&#x175;" horiz-adv-x="685" d="M617 435 Q650 435 668.5 415.5 Q687 396 687 361 Q687 306 649.5 234.5 Q612 163 557.5 97.5 Q503 32 454 -5 L420 -5 L371 189 Q335 132 288.5 79 Q242 26 202 -5 L167 -5 L76 341 Q72 359 65 366.5 Q58 374 47 374 Q39 374 24 371 L18 405 Q92 431 134 431 Q160 431 176 417 Q192 403 200 364 L258 102 Q333 188 356 248 L326 354 Q314 399 299 425 L439 425 L510 102 Q558 156 588.5 208 Q619 260 619 299 Q619 324 589 324 Q570 324 559.5 337.5 Q549 351 549 375 Q549 402 567.5 418.5 Q586 435 617 435 Z M231 492 Q220 492 220 499 Q220 505 253 533 Q283 559 306 582 L359 630 Q378 648 395 648 Q412 648 425 630 L464 582 Q483 556 507 530 Q516 520 522 512 Q528 504 528 501 Q528 492 514 492 Q500 492 483 504 L383 570 L265 504 Q246 492 231 492 Z " />
<glyph glyph-name="wdieresis" unicode="&#x1e85;" horiz-adv-x="685" d="M617 435 Q650 435 668.5 415.5 Q687 396 687 361 Q687 306 649.5 234.5 Q612 163 557.5 97.5 Q503 32 454 -5 L420 -5 L371 189 Q335 132 288.5 79 Q242 26 202 -5 L167 -5 L76 341 Q72 359 65 366.5 Q58 374 47 374 Q39 374 24 371 L18 405 Q92 431 134 431 Q160 431 176 417 Q192 403 200 364 L258 102 Q333 188 356 248 L326 354 Q314 399 299 425 L439 425 L510 102 Q558 156 588.5 208 Q619 260 619 299 Q619 324 589 324 Q570 324 559.5 337.5 Q549 351 549 375 Q549 402 567.5 418.5 Q586 435 617 435 Z M298 657 Q330 657 349 642.5 Q368 628 368 604 Q368 570 344 551 Q320 532 281 532 Q250 532 231 546.5 Q212 561 212 585 Q212 617 236.5 637 Q261 657 298 657 Z M492 657 Q524 657 543 642.5 Q562 628 562 604 Q562 570 538 551 Q514 532 475 532 Q444 532 425 546.5 Q406 561 406 585 Q406 617 430.5 637 Q455 657 492 657 Z " />
<glyph glyph-name="wgrave" unicode="&#x1e81;" horiz-adv-x="685" d="M617 435 Q650 435 668.5 415.5 Q687 396 687 361 Q687 306 649.5 234.5 Q612 163 557.5 97.5 Q503 32 454 -5 L420 -5 L371 189 Q335 132 288.5 79 Q242 26 202 -5 L167 -5 L76 341 Q72 359 65 366.5 Q58 374 47 374 Q39 374 24 371 L18 405 Q92 431 134 431 Q160 431 176 417 Q192 403 200 364 L258 102 Q333 188 356 248 L326 354 Q314 399 299 425 L439 425 L510 102 Q558 156 588.5 208 Q619 260 619 299 Q619 324 589 324 Q570 324 559.5 337.5 Q549 351 549 375 Q549 402 567.5 418.5 Q586 435 617 435 Z M321 653 Q331 653 335.5 649.5 Q340 646 352 629 L434 523 Q439 515 442.5 508.5 Q446 502 445 497 Q443 487 431 487 Q421 487 408 496 L258 599 Q248 606 248 616 Q249 626 276 639.5 Q303 653 321 653 Z " />
<glyph glyph-name="x" unicode="x" horiz-adv-x="488" d="M378 342 Q369 342 361.5 337.5 Q354 333 344 319 L300 252 L366 95 Q370 86 374.5 83 Q379 80 386 80 Q400 80 442 97 L456 73 Q413 36 374 15 Q335 -6 310 -6 Q294 -6 283.5 0 Q273 6 264 21 L214 138 L170 70 Q144 28 116 9 Q88 -10 53 -10 Q28 -10 13 4 Q-2 18 -2 43 Q-3 71 13 90 Q29 109 53 110 Q66 110 74 106 Q82 102 92 94 Q106 82 117 82 Q126 82 133.5 86.5 Q141 91 151 105 L198 176 L127 341 Q118 361 112.5 367.5 Q107 374 94 374 Q76 374 49 371 L42 405 Q76 416 116.5 423.5 Q157 431 184 431 Q205 431 219 420 Q233 409 245 381 L284 289 L325 353 Q352 396 380 414.5 Q408 433 444 433 Q468 433 482.5 419 Q497 405 497 380 Q498 352 482 333 Q466 314 442 314 Q430 314 421.5 318 Q413 322 403 330 Q397 335 391 338.5 Q385 342 378 342 Z " />
<glyph glyph-name="y" unicode="y" horiz-adv-x="417" d="M349 436 Q382 436 400.5 416 Q419 396 419 361 Q419 308 374 216.5 Q329 125 261 26 Q180 -95 99 -167 Q18 -239 -39 -239 Q-74 -239 -93.5 -219.5 Q-113 -200 -113 -169 Q-113 -143 -95.5 -125.5 Q-78 -108 -54 -108 Q-35 -108 -24.5 -115.5 Q-14 -123 -4 -137 Q5 -148 10.5 -152.5 Q16 -157 25 -157 Q47 -157 83.5 -125.5 Q120 -94 166 -36 L61 342 Q57 360 50 367.5 Q43 375 32 375 Q24 375 9 372 L3 406 Q77 432 119 432 Q145 432 160 418.5 Q175 405 185 365 L253 87 Q353 243 353 300 Q353 314 345 319 Q337 324 321 325 Q302 325 291.5 338.5 Q281 352 281 376 Q281 403 299.5 419.5 Q318 436 349 436 Z " />
<glyph glyph-name="yacute" unicode="&#xfd;" horiz-adv-x="417" d="M349 436 Q382 436 400.5 416 Q419 396 419 361 Q419 308 374 216.5 Q329 125 261 26 Q180 -95 99 -167 Q18 -239 -39 -239 Q-74 -239 -93.5 -219.5 Q-113 -200 -113 -169 Q-113 -143 -95.5 -125.5 Q-78 -108 -54 -108 Q-35 -108 -24.5 -115.5 Q-14 -123 -4 -137 Q5 -148 10.5 -152.5 Q16 -157 25 -157 Q47 -157 83.5 -125.5 Q120 -94 166 -36 L61 342 Q57 360 50 367.5 Q43 375 32 375 Q24 375 9 372 L3 406 Q77 432 119 432 Q145 432 160 418.5 Q175 405 185 365 L253 87 Q353 243 353 300 Q353 314 345 319 Q337 324 321 325 Q302 325 291.5 338.5 Q281 352 281 376 Q281 403 299.5 419.5 Q318 436 349 436 Z M399 617 Q399 607 384 599 L205 496 Q191 487 180 487 Q170 487 170 496 Q170 502 174 507.5 Q178 513 190 524 L298 629 Q315 645 321 649 Q327 653 337 653 Q354 653 376.5 640 Q399 627 399 617 Z " />
<glyph glyph-name="ycircumflex" unicode="&#x177;" horiz-adv-x="417" d="M349 436 Q382 436 400.5 416 Q419 396 419 361 Q419 308 374 216.5 Q329 125 261 26 Q180 -95 99 -167 Q18 -239 -39 -239 Q-74 -239 -93.5 -219.5 Q-113 -200 -113 -169 Q-113 -143 -95.5 -125.5 Q-78 -108 -54 -108 Q-35 -108 -24.5 -115.5 Q-14 -123 -4 -137 Q5 -148 10.5 -152.5 Q16 -157 25 -157 Q47 -157 83.5 -125.5 Q120 -94 166 -36 L61 342 Q57 360 50 367.5 Q43 375 32 375 Q24 375 9 372 L3 406 Q77 432 119 432 Q145 432 160 418.5 Q175 405 185 365 L253 87 Q353 243 353 300 Q353 314 345 319 Q337 324 321 325 Q302 325 291.5 338.5 Q281 352 281 376 Q281 403 299.5 419.5 Q318 436 349 436 Z M99 492 Q88 492 88 499 Q88 505 121 533 Q151 559 174 582 L227 630 Q246 648 263 648 Q280 648 293 630 L332 582 Q351 556 375 530 Q384 520 390 512 Q396 504 396 501 Q396 492 382 492 Q368 492 351 504 L251 570 L133 504 Q114 492 99 492 Z " />
<glyph glyph-name="ydieresis" unicode="&#xff;" horiz-adv-x="417" d="M349 436 Q382 436 400.5 416 Q419 396 419 361 Q419 308 374 216.5 Q329 125 261 26 Q180 -95 99 -167 Q18 -239 -39 -239 Q-74 -239 -93.5 -219.5 Q-113 -200 -113 -169 Q-113 -143 -95.5 -125.5 Q-78 -108 -54 -108 Q-35 -108 -24.5 -115.5 Q-14 -123 -4 -137 Q5 -148 10.5 -152.5 Q16 -157 25 -157 Q47 -157 83.5 -125.5 Q120 -94 166 -36 L61 342 Q57 360 50 367.5 Q43 375 32 375 Q24 375 9 372 L3 406 Q77 432 119 432 Q145 432 160 418.5 Q175 405 185 365 L253 87 Q353 243 353 300 Q353 314 345 319 Q337 324 321 325 Q302 325 291.5 338.5 Q281 352 281 376 Q281 403 299.5 419.5 Q318 436 349 436 Z M166 657 Q198 657 217 642.5 Q236 628 236 604 Q236 570 212 551 Q188 532 149 532 Q118 532 99 546.5 Q80 561 80 585 Q80 617 104.5 637 Q129 657 166 657 Z M360 657 Q392 657 411 642.5 Q430 628 430 604 Q430 570 406 551 Q382 532 343 532 Q312 532 293 546.5 Q274 561 274 585 Q274 617 298.5 637 Q323 657 360 657 Z " />
<glyph glyph-name="ygrave" unicode="&#x1ef3;" horiz-adv-x="417" d="M349 436 Q382 436 400.5 416 Q419 396 419 361 Q419 308 374 216.5 Q329 125 261 26 Q180 -95 99 -167 Q18 -239 -39 -239 Q-74 -239 -93.5 -219.5 Q-113 -200 -113 -169 Q-113 -143 -95.5 -125.5 Q-78 -108 -54 -108 Q-35 -108 -24.5 -115.5 Q-14 -123 -4 -137 Q5 -148 10.5 -152.5 Q16 -157 25 -157 Q47 -157 83.5 -125.5 Q120 -94 166 -36 L61 342 Q57 360 50 367.5 Q43 375 32 375 Q24 375 9 372 L3 406 Q77 432 119 432 Q145 432 160 418.5 Q175 405 185 365 L253 87 Q353 243 353 300 Q353 314 345 319 Q337 324 321 325 Q302 325 291.5 338.5 Q281 352 281 376 Q281 403 299.5 419.5 Q318 436 349 436 Z M189 653 Q199 653 203.5 649.5 Q208 646 220 629 L302 523 Q307 515 310.5 508.5 Q314 502 313 497 Q311 487 299 487 Q289 487 276 496 L126 599 Q116 606 116 616 Q117 626 144 639.5 Q171 653 189 653 Z " />
<glyph glyph-name="z" unicode="z" horiz-adv-x="411" d="M300 84 Q329 84 359 118 L381 102 Q356 52 321.5 21 Q287 -10 235 -10 Q214 -10 197.5 -5.5 Q181 -1 162 8 Q130 23 108 23 Q79 23 48 5 L34 -10 L29 -6 Q29 -7 28.5 -7 Q28 -7 28 -7 L29 -6 L2 14 L267 309 Q252 306 239 306 Q220 306 206 311 Q192 316 175 326 Q160 334 151 338 Q142 342 129 342 Q95 342 60 308 L41 328 Q67 375 102.5 405.5 Q138 436 193 436 Q213 436 227.5 432.5 Q242 429 261 421 Q288 410 308 410 Q340 410 378 433 L410 408 L165 136 Q170 137 178 137 Q204 137 220 129 Q236 121 254 106 Q266 95 276 89.5 Q286 84 300 84 Z " />
<glyph glyph-name="zacute" unicode="&#x17a;" horiz-adv-x="411" d="M300 84 Q329 84 359 118 L381 102 Q356 52 321.5 21 Q287 -10 235 -10 Q214 -10 197.5 -5.5 Q181 -1 162 8 Q130 23 108 23 Q79 23 48 5 L34 -10 L29 -6 Q29 -7 28.5 -7 Q28 -7 28 -7 L29 -6 L2 14 L267 309 Q252 306 239 306 Q220 306 206 311 Q192 316 175 326 Q160 334 151 338 Q142 342 129 342 Q95 342 60 308 L41 328 Q67 375 102.5 405.5 Q138 436 193 436 Q213 436 227.5 432.5 Q242 429 261 421 Q288 410 308 410 Q340 410 378 433 L410 408 L165 136 Q170 137 178 137 Q204 137 220 129 Q236 121 254 106 Q266 95 276 89.5 Q286 84 300 84 Z M389 617 Q389 607 374 599 L195 496 Q181 487 170 487 Q160 487 160 496 Q160 502 164 507.5 Q168 513 180 524 L288 629 Q305 645 311 649 Q317 653 327 653 Q344 653 366.5 640 Q389 627 389 617 Z " />
<glyph glyph-name="zcaron" unicode="&#x17e;" horiz-adv-x="411" d="M300 84 Q329 84 359 118 L381 102 Q356 52 321.5 21 Q287 -10 235 -10 Q214 -10 197.5 -5.5 Q181 -1 162 8 Q130 23 108 23 Q79 23 48 5 L34 -10 L29 -6 Q29 -7 28.5 -7 Q28 -7 28 -7 L29 -6 L2 14 L267 309 Q252 306 239 306 Q220 306 206 311 Q192 316 175 326 Q160 334 151 338 Q142 342 129 342 Q95 342 60 308 L41 328 Q67 375 102.5 405.5 Q138 436 193 436 Q213 436 227.5 432.5 Q242 429 261 421 Q288 410 308 410 Q340 410 378 433 L410 408 L165 136 Q170 137 178 137 Q204 137 220 129 Q236 121 254 106 Q266 95 276 89.5 Q286 84 300 84 Z M395 657 Q406 657 406 650 Q406 644 373 616 Q343 590 320 567 L267 519 Q248 501 231 501 Q215 501 201 519 L162 567 Q143 593 119 619 Q110 629 104 637 Q98 645 98 648 Q98 657 112 657 Q126 657 143 645 L243 579 L361 645 Q380 657 395 657 Z " />
<glyph glyph-name="zdotaccent" unicode="&#x17c;" horiz-adv-x="411" d="M300 84 Q329 84 359 118 L381 102 Q356 52 321.5 21 Q287 -10 235 -10 Q214 -10 197.5 -5.5 Q181 -1 162 8 Q130 23 108 23 Q79 23 48 5 L34 -10 L29 -6 Q29 -7 28.5 -7 Q28 -7 28 -7 L29 -6 L2 14 L267 309 Q252 306 239 306 Q220 306 206 311 Q192 316 175 326 Q160 334 151 338 Q142 342 129 342 Q95 342 60 308 L41 328 Q67 375 102.5 405.5 Q138 436 193 436 Q213 436 227.5 432.5 Q242 429 261 421 Q288 410 308 410 Q340 410 378 433 L410 408 L165 136 Q170 137 178 137 Q204 137 220 129 Q236 121 254 106 Q266 95 276 89.5 Q286 84 300 84 Z M251 657 Q283 657 302 642.5 Q321 628 321 604 Q321 570 297 551 Q273 532 234 532 Q203 532 184 546.5 Q165 561 165 585 Q165 617 189.5 637 Q214 657 251 657 Z " />
<glyph glyph-name="fi" unicode="&#xfb01;" horiz-adv-x="577" d="M400 700 Q480 700 523.5 683.5 Q567 667 568 629 Q568 555 481 555 Q450 555 431 569.5 Q412 584 412 609 Q412 639 401.5 652.5 Q391 666 365 666 Q338 666 312.5 641 Q287 616 267 562.5 Q247 509 238 428 L314 428 L314 405 L293 389 L233 389 L202 102 Q184 -53 125.5 -149 Q67 -245 -32 -245 Q-83 -245 -118.5 -220.5 Q-154 -196 -154 -159 Q-154 -132 -135.5 -111.5 Q-117 -91 -83 -91 Q-61 -91 -47 -100.5 Q-33 -110 -33 -128 Q-33 -136 -39 -152 Q-47 -168 -47 -181 Q-47 -211 -19 -211 Q17 -211 36 -145.5 Q55 -80 67 72 L102 389 L33 389 L51 428 L108 428 Q121 502 160 564 Q199 626 260.5 663 Q322 700 400 700 Z M498 75 Q514 75 534 88 L546 60 Q504 27 466.5 8.5 Q429 -10 401 -10 Q378 -10 365 1.5 Q352 13 352 36 Q352 53 358 93.5 Q364 134 366 147 L378 223 Q390 313 390 346 Q390 371 360 371 Q352 371 344 369 L339 405 Q422 431 488 431 Q508 431 518.5 425.5 Q529 420 529 402 Q529 393 517 333 Q500 246 497 230 Q481 144 481 102 Q481 75 498 75 Z " />
<glyph glyph-name="fl" unicode="&#xfb02;" horiz-adv-x="553" d="M479 75 Q486 75 497.5 78 Q509 81 520 88 L533 60 Q493 27 451.5 8.5 Q410 -10 379 -10 Q356 -10 342.5 2 Q329 14 329 36 Q329 63 362 279 L375 370 Q408 599 408 644 L408 645 Q401 666 368 666 Q325 666 288 606.5 Q251 547 238 428 L314 428 L314 405 L293 389 L233 389 L202 102 Q184 -53 125.5 -149 Q67 -245 -32 -245 Q-83 -245 -118.5 -220.5 Q-154 -196 -154 -159 Q-154 -132 -135.5 -111.5 Q-117 -91 -83 -91 Q-61 -91 -47 -100.5 Q-33 -110 -33 -128 Q-33 -136 -39 -152 Q-47 -168 -47 -181 Q-47 -211 -19 -211 Q17 -211 36 -145.5 Q55 -80 67 72 L102 389 L33 389 L51 428 L107 428 Q125 534 188.5 610.5 Q252 687 347 698 Q434 730 504 730 Q525 730 536 724 Q547 718 547 701 Q547 693 542 663.5 Q537 634 534 615 Q532 606 520 539 Q464 196 460 102 Q460 90 463.5 82.5 Q467 75 479 75 Z " />
<glyph glyph-name="ordfeminine" unicode="&#xaa;" horiz-adv-x="320" d="M36 400 Q36 451 78.5 474.5 Q121 498 221 498 L225 524 Q228 545 228 556 Q228 585 200 585 Q179 585 171.5 577 Q164 569 164 552 Q164 535 149 524.5 Q134 514 111 514 Q93 514 80.5 523.5 Q68 533 68 551 Q68 582 101 598.5 Q134 615 200 615 Q263 615 293.5 598 Q324 581 324 545 Q324 533 321 515 L303 388 Q302 381 308 381 L334 382 L330 350 L201 350 L209 387 Q195 365 169 353.5 Q143 342 111 342 Q36 342 36 400 Z M138 412 Q138 399 144 391.5 Q150 384 162 384 Q181 384 195.5 403.5 Q210 423 214 451 L217 467 Q175 467 156.5 453 Q138 439 138 412 Z " />
<glyph glyph-name="ordmasculine" unicode="&#xba;" horiz-adv-x="350" d="M58 461 Q58 533 105 575.5 Q152 618 231 618 Q295 618 331 587 Q367 556 367 500 Q367 428 320 386 Q273 344 192 344 Q125 344 91.5 376.5 Q58 409 58 461 Z M163 432 Q163 403 172 389.5 Q181 376 201 376 Q233 376 247.5 423 Q262 470 262 527 Q262 587 223 587 Q190 587 176.5 538.5 Q163 490 163 432 Z " />
<glyph glyph-name="uni0394" unicode="&#x394;" horiz-adv-x="605" d="M376 607 L543 0 L-11 0 L327 607 L376 607 Z M389 36 L276 451 L46 36 L389 36 Z " />
<glyph glyph-name="uni03A9" unicode="&#x3a9;" horiz-adv-x="665" d="M506 93 Q546 93 567 108.5 Q588 124 599 162 L634 162 Q595 28 591 -3 Q581 0 497 0 L354 0 L358 43 Q404 99 434 148.5 Q464 198 482.5 264.5 Q501 331 501 419 Q501 502 472 537.5 Q443 573 383 573 Q285 573 243.5 501.5 Q202 430 202 273 Q202 201 217.5 146 Q233 91 260 43 L252 0 L109 0 Q25 0 14 -3 Q18 22 18 103 L17 162 L52 162 Q51 125 68 109 Q85 93 126 93 L178 93 Q121 152 93.5 202.5 Q66 253 66 319 Q66 399 106 465 Q146 531 219 569 Q292 607 388 607 Q467 607 524 578.5 Q581 550 610 500 Q639 450 639 387 Q639 322 618 273.5 Q597 225 559.5 186 Q522 147 454 93 L506 93 Z " />
<glyph glyph-name="uni03BC" unicode="&#x3bc;" horiz-adv-x="559" d="M532 60 Q488 23 445.5 6.5 Q403 -10 370 -10 Q352 -10 345 1 Q338 12 338 36 Q338 54 342.5 89.5 Q347 125 353 165 Q307 82 266 41.5 Q225 1 184 -8 L158 -188 L158 -193 Q158 -207 169 -207 L226 -206 L222 -239 L-25 -239 L-21 -206 L12 -207 Q25 -205 28 -188 L108 375 L108 379 Q108 394 97 394 L64 392 L69 425 L245 425 L205 140 L203 115 Q203 101 209.5 92 Q216 83 230 83 Q254 83 283.5 117.5 Q313 152 337.5 202 Q362 252 372 295 L391 416 L528 433 Q525 419 518 380 Q489 228 479.5 173 Q470 118 470 92 Q470 75 483 75 Q501 75 521 88 L532 60 Z " />
<glyph glyph-name="pi" unicode="&#x3c0;" horiz-adv-x="615" d="M637 458 Q612 392 605 342 L602 323 Q590 325 572 325 L517 325 L492 325 Q472 227 462 172 Q452 117 452 85 Q452 59 458.5 45 Q465 31 481 31 Q508 31 539 64 L558 50 Q532 19 503.5 6.5 Q475 -6 434 -6 Q377 -6 352.5 20.5 Q328 47 328 90 Q328 122 342 183.5 Q356 245 378 329 Q303 333 263 334 Q239 238 207 144 Q187 81 152 35.5 Q117 -10 56 -10 Q36 -10 19 4 Q2 18 2 43 Q2 71 19.5 92 Q37 113 61 113 Q74 113 92 101 Q108 91 117 91 Q137 91 146 104.5 Q155 118 168 153 Q197 245 221 335 L195 335 Q153 335 123 322.5 Q93 310 68 280 L44 292 Q114 430 222 430 Q290 430 422 424 Q526 420 548 420 Q573 420 584.5 429.5 Q596 439 607 463 L637 458 Z " />
<glyph glyph-name="zero" unicode="0" horiz-adv-x="540" d="M325 607 Q422 607 480 543.5 Q538 480 538 365 Q538 282 507 195.5 Q476 109 408.5 49.5 Q341 -10 239 -10 Q140 -10 83 53 Q26 116 26 229 Q26 313 57.5 400.5 Q89 488 156.5 547.5 Q224 607 325 607 Z M165 298 Q152 202 152 154 Q152 82 174 53.5 Q196 25 243 25 Q287 25 316 49.5 Q345 74 365 133 Q385 192 400 298 Q413 396 413 444 Q413 517 391 546 Q369 575 321 575 Q278 575 249.5 549.5 Q221 524 200.5 464 Q180 404 165 298 Z " />
<glyph glyph-name="one" unicode="1" horiz-adv-x="366" d="M236 51 L236 46 Q236 31 251 31 L308 32 L305 0 L28 0 L32 32 L90 31 Q110 31 113 51 L174 484 L174 488 Q174 496 169 499 Q164 502 156 499 L87 476 L81 514 Q155 531 233 577 Q260 593 294 618 L315 618 L236 51 Z " />
<glyph glyph-name="two" unicode="2" horiz-adv-x="499" d="M294 96 Q349 96 377 112 Q405 128 416 169 L455 169 Q427 85 409 -3 Q400 0 351 0 L14 0 L22 80 L159 193 Q260 276 305 344.5 Q350 413 350 491 Q350 532 331 552.5 Q312 573 278 573 Q242 573 221.5 555 Q201 537 201 504 Q201 494 202.5 484.5 Q204 475 204 465 Q204 436 184.5 420.5 Q165 405 135 405 Q106 405 90.5 421.5 Q75 438 75 465 Q75 501 100.5 533.5 Q126 566 175 586.5 Q224 607 291 607 Q375 607 429 570.5 Q483 534 483 475 Q483 429 464.5 390.5 Q446 352 395.5 304.5 Q345 257 249 191 L106 96 L294 96 Z " />
<glyph glyph-name="three" unicode="3" horiz-adv-x="500" d="M259 321 Q365 319 421 286 Q477 253 477 190 Q477 131 441.5 85.5 Q406 40 342 15 Q278 -10 193 -10 Q106 -10 53.5 20.5 Q1 51 1 100 Q1 133 22.5 155 Q44 177 80 177 Q104 177 119 165 Q134 153 134 133 Q134 125 126 103 Q117 83 117 72 Q117 49 139 37 Q161 25 192 25 Q243 25 277 50.5 Q311 76 326.5 113 Q342 150 342 183 Q342 237 296.5 263.5 Q251 290 148 298 L152 331 Q210 332 255 357.5 Q300 383 324.5 422 Q349 461 349 502 Q349 534 330 553.5 Q311 573 275 573 Q241 573 216.5 556.5 Q192 540 192 514 Q192 508 194 497.5 Q196 487 196 481 Q196 451 175.5 436 Q155 421 128 421 Q97 421 82.5 436 Q68 451 68 475 Q68 513 96.5 543 Q125 573 176.5 590 Q228 607 293 607 Q379 607 431 577 Q483 547 483 497 Q483 458 457 421.5 Q431 385 380.5 359 Q330 333 260 324 L259 321 Z " />
<glyph glyph-name="four" unicode="4" horiz-adv-x="486" d="M397 224 L476 224 L465 147 L386 147 L373 51 L373 46 Q373 31 389 31 L432 32 L429 0 L155 0 L159 32 L228 31 Q247 31 250 51 L264 147 L0 147 L10 215 Q22 224 45 245 L78 276 L350 554 L372 576 L396 604 L450 604 L397 224 Z M309 463 L74 224 L275 224 L309 463 Z " />
<glyph glyph-name="five" unicode="5" horiz-adv-x="487" d="M147 501 L113 330 Q145 350 187.5 362.5 Q230 375 271 375 Q355 375 406 334.5 Q457 294 457 220 Q457 154 422.5 101.5 Q388 49 327 19.5 Q266 -10 190 -10 Q122 -10 67 17.5 Q12 45 12 105 Q12 140 34.5 161 Q57 182 90 182 Q114 182 129.5 169 Q145 156 145 136 Q145 125 141 116 Q137 107 136 104 Q126 86 126 72 Q126 48 146 36 Q166 24 195 24 Q269 24 296.5 84.5 Q324 145 324 214 Q324 325 216 325 Q181 325 146 310.5 Q111 296 95 276 L65 276 L123 597 L407 597 Q453 597 489 600 Q482 582 473.5 553 Q465 524 460 501 L147 501 Z " />
<glyph glyph-name="six" unicode="6" horiz-adv-x="502" d="M299 395 Q389 395 437 353 Q485 311 485 234 Q485 170 457 114.5 Q429 59 371.5 24 Q314 -11 230 -11 Q134 -11 83.5 40 Q33 91 33 188 Q33 288 62.5 383.5 Q92 479 161.5 543 Q231 607 342 607 Q408 607 455 579 Q502 551 502 508 Q502 475 481 456.5 Q460 438 428 438 Q402 438 386 448.5 Q370 459 370 477 Q370 490 378 508 Q386 526 386 535 Q386 551 373.5 561 Q361 571 335 571 Q278 571 241 512 Q204 453 184 354 Q206 373 236 384 Q266 395 299 395 Z M235 19 Q304 19 330 95.5 Q356 172 356 257 Q356 363 283 363 Q207 363 181 292.5 Q155 222 155 142 Q155 88 175 53.5 Q195 19 235 19 Z " />
<glyph glyph-name="seven" unicode="7" horiz-adv-x="448" d="M494 597 L493 551 Q360 423 302.5 281 Q245 139 239 0 L108 0 Q120 81 146.5 156 Q173 231 232 318.5 Q291 406 392 501 L189 501 Q146 501 124 489 Q102 477 93 447 L56 447 Q62 471 68 493 Q91 582 93 601 Q106 597 219 597 L494 597 Z " />
<glyph glyph-name="eight" unicode="8" horiz-adv-x="515" d="M363 338 Q422 301 454.5 264.5 Q487 228 487 178 Q487 118 449.5 75.5 Q412 33 350 11.5 Q288 -10 215 -10 Q121 -10 67 19.5 Q13 49 13 110 Q13 224 183 295 Q134 326 107.5 358 Q81 390 81 434 Q81 480 107.5 519.5 Q134 559 189 583 Q244 607 324 607 Q408 607 459.5 578.5 Q511 550 511 497 Q511 469 492 436 Q473 403 439 376 Q405 349 363 338 Z M324 573 Q274 573 242 547.5 Q210 522 210 484 Q210 448 239.5 421 Q269 394 329 358 Q369 382 390 419 Q411 456 411 495 Q411 532 388 552.5 Q365 573 324 573 Z M231 24 Q285 24 320 51.5 Q355 79 355 128 Q355 160 336 185 Q317 210 291 228.5 Q265 247 218 274 Q173 248 146 204.5 Q119 161 119 122 Q119 78 149 51 Q179 24 231 24 Z " />
<glyph glyph-name="nine" unicode="9" horiz-adv-x="502" d="M296 607 Q392 607 442.5 556 Q493 505 493 408 Q493 308 463.5 212.5 Q434 117 364.5 53 Q295 -11 184 -11 Q118 -11 71 17 Q24 45 24 88 Q24 121 45 139.5 Q66 158 98 158 Q124 158 140 147.5 Q156 137 156 119 Q156 106 148 88 Q140 70 140 61 Q140 45 152.5 35 Q165 25 191 25 Q248 25 285 84 Q322 143 342 242 Q320 223 290 212 Q260 201 227 201 Q137 201 89 243 Q41 285 41 362 Q41 426 69 481.5 Q97 537 154.5 572 Q212 607 296 607 Z M243 233 Q319 233 345 303.5 Q371 374 371 454 Q371 508 351 542.5 Q331 577 291 577 Q222 577 196 500.5 Q170 424 170 339 Q170 233 243 233 Z " />
<glyph glyph-name="uni00B9" unicode="&#xb9;" horiz-adv-x="224" d="M207 439 L206 435 Q206 428 214 428 L241 429 L238 403 L52 403 L55 429 L91 428 Q101 428 103 439 L125 601 L125 604 Q125 610 119 610 Q111 609 98.5 606.5 Q86 604 77 602 L76 633 Q113 638 153 653 Q193 668 217 682 L241 682 L207 439 Z " />
<glyph glyph-name="uni00B2" unicode="&#xb2;" horiz-adv-x="293" d="M241 469 Q282 469 291 495 L315 495 Q302 462 291 401 Q283 403 254 403 L50 403 L56 467 L141 509 Q188 534 208 559.5 Q228 585 228 622 Q228 638 220.5 647 Q213 656 202 656 Q187 656 178.5 648.5 Q170 641 170 629 Q170 623 171 617.5 Q172 612 172 605 Q171 587 155 576.5 Q139 566 116 566 Q69 566 69 606 Q69 638 104.5 658 Q140 678 205 678 Q263 678 298.5 661 Q334 644 334 611 Q334 576 299.5 549.5 Q265 523 192 497 L105 469 L241 469 Z " />
<glyph glyph-name="uni00B3" unicode="&#xb3;" horiz-adv-x="292" d="M204 678 Q256 678 289 664 Q322 650 322 621 Q322 590 291 571 Q260 552 211 547 L210 544 Q263 544 291.5 529.5 Q320 515 320 487 Q320 447 273.5 422 Q227 397 155 397 Q41 397 41 450 Q41 470 57 483.5 Q73 497 97 497 Q118 497 131 487.5 Q144 478 144 463 Q144 458 141 449 Q138 440 138 437 Q138 428 147 424 Q156 420 166 420 Q189 420 203 438 Q217 456 217 485 Q217 508 196 517.5 Q175 527 117 530 L120 551 Q160 551 190.5 570 Q221 589 221 628 Q221 641 214.5 648.5 Q208 656 197 656 Q186 656 178 649.5 Q170 643 170 635 Q170 632 171 628 Q172 624 171 620 Q171 600 154.5 589 Q138 578 114 578 Q92 578 80.5 588.5 Q69 599 69 614 Q69 644 107.5 661 Q146 678 204 678 Z " />
<glyph glyph-name="fraction" unicode="&#x2044;" horiz-adv-x="135" d="M333 609 L371 582 L-129 -8 L-166 23 L333 609 Z " />
<glyph glyph-name="onehalf" unicode="&#xbd;" horiz-adv-x="660" d="M546 609 L584 582 L84 -8 L47 23 L546 609 Z M226 368 L225 364 Q225 357 233 357 L260 358 L257 332 L71 332 L74 358 L110 357 Q120 357 122 368 L144 530 L144 533 Q144 539 138 539 Q130 538 117.5 535.5 Q105 533 96 531 L95 562 Q132 567 172 582 Q212 597 236 611 L260 611 L226 368 Z M532 66 Q573 66 582 92 L606 92 Q593 59 582 -2 Q574 0 545 0 L341 0 L347 64 L432 106 Q479 131 499 156.5 Q519 182 519 219 Q519 235 511.5 244 Q504 253 493 253 Q478 253 469.5 245.5 Q461 238 461 226 Q461 220 462 214.5 Q463 209 463 202 Q462 184 446 173.5 Q430 163 407 163 Q360 163 360 203 Q360 235 395.5 255 Q431 275 496 275 Q554 275 589.5 258 Q625 241 625 208 Q625 173 590.5 146.5 Q556 120 483 94 L396 66 L532 66 Z " />
<glyph glyph-name="onequarter" unicode="&#xbc;" horiz-adv-x="580" d="M257 332 L71 332 L74 358 L110 357 Q120 357 122 368 L144 530 L144 533 Q144 539 138 539 Q130 538 117.5 535.5 Q105 533 96 531 L95 562 Q132 567 172 582 Q212 597 236 611 L260 611 L226 368 L225 364 Q225 357 233 357 L260 358 L257 332 Z M546 609 L584 582 L84 -8 L47 23 L546 609 Z M491 102 L528 102 L522 61 L485 61 L482 35 L482 32 Q482 26 490 26 L509 26 L505 0 L325 0 L329 26 L364 26 Q375 26 376 35 L379 61 L252 61 L257 98 L457 274 L515 274 L491 102 Z M301 102 L385 102 L396 184 L301 102 Z " />
<glyph glyph-name="threequarters" unicode="&#xbe;" horiz-adv-x="580" d="M562 609 L600 582 L100 -8 L63 23 L562 609 Z M169 326 Q55 326 55 379 Q55 399 71 412.5 Q87 426 111 426 Q132 426 145 416.5 Q158 407 158 392 Q158 387 155 378 Q152 369 152 366 Q152 357 161 353 Q170 349 180 349 Q203 349 217 367 Q231 385 231 414 Q231 437 210 446.5 Q189 456 131 459 L134 480 Q174 480 204.5 499 Q235 518 235 557 Q235 570 228.5 577.5 Q222 585 211 585 Q200 585 192 578.5 Q184 572 184 564 Q184 561 185 557 Q186 553 185 549 Q185 529 168.5 518 Q152 507 128 507 Q106 507 94.5 517.5 Q83 528 83 543 Q83 573 121.5 590 Q160 607 218 607 Q270 607 303 593 Q336 579 336 550 Q336 519 305 500 Q274 481 225 476 L224 473 Q277 473 305.5 458.5 Q334 444 334 416 Q334 376 287.5 351 Q241 326 169 326 Z M497 102 L534 102 L528 61 L491 61 L488 35 L488 32 Q488 26 496 26 L515 26 L511 0 L331 0 L335 26 L370 26 Q381 26 382 35 L385 61 L258 61 L263 98 L463 274 L521 274 L497 102 Z M307 102 L391 102 L402 184 L307 102 Z " />
<glyph glyph-name="asterisk" unicode="&#x2a;" horiz-adv-x="327" d="M291 633 Q306 633 325.5 618 Q345 603 345 589 Q345 577 336.5 567.5 Q328 558 316 556 Q297 552 282.5 538 Q268 524 270 513 Q277 508 286 508 Q297 508 305 512 Q313 516 322 524 Q330 531 336 534.5 Q342 538 350 538 Q365 538 372 531 Q379 524 379 506 Q379 446 337 446 Q329 446 324 449.5 Q319 453 313 460 Q300 477 282 477 Q273 477 265 471 Q263 468 263 462 Q263 453 269.5 444.5 Q276 436 285 432 Q304 425 311.5 419.5 Q319 414 319 399 Q319 384 294.5 368.5 Q270 353 252 353 Q243 353 236.5 359 Q230 365 230 374 Q230 381 234 393 Q238 405 238 414 Q238 426 234 436.5 Q230 447 223 448 Q214 446 206 433.5 Q198 421 198 411 Q198 404 199 398 Q200 392 200 386 Q200 374 189.5 362.5 Q179 351 168 351 Q153 351 133 366 Q113 381 113 395 Q113 409 123 418 Q133 427 148 430 Q165 434 178 447 Q191 460 188 471 Q183 477 172 477 Q161 477 153 472.5 Q145 468 136 460 Q127 453 122 449.5 Q117 446 108 446 Q93 446 86.5 453 Q80 460 80 478 Q80 538 121 538 Q130 538 135 534.5 Q140 531 146 524 Q152 516 158.5 512 Q165 508 176 508 Q187 508 194 513 Q196 517 196 524 Q196 535 188 543 Q180 551 167 554 Q139 560 139 585 Q139 601 164 616.5 Q189 632 207 632 Q218 632 224.5 624.5 Q231 617 231 607 Q231 600 225.5 588 Q220 576 220 570 Q220 558 224 548 Q228 538 236 537 Q245 538 252.5 551.5 Q260 565 260 573 Q260 580 259 585.5 Q258 591 258 597 Q258 610 268.5 621.5 Q279 633 291 633 Z " />
<glyph glyph-name="backslash" unicode="&#x5c;" horiz-adv-x="256" d="M100 638 L229 9 L177 -5 L50 626 L100 638 Z " />
<glyph glyph-name="middot" unicode="&#xb7;" horiz-adv-x="274" d="M42 185 Q42 223 71 246 Q100 269 144 269 Q182 269 204.5 251.5 Q227 234 227 203 Q227 165 198 142 Q169 119 124 119 Q86 119 64 136.5 Q42 154 42 185 Z " />
<glyph glyph-name="bullet" unicode="&#x2022;" horiz-adv-x="464" d="M85 231 Q85 273 108.5 306.5 Q132 340 171 359 Q210 378 256 378 Q315 378 351.5 346.5 Q388 315 388 263 Q388 221 365 187.5 Q342 154 303 135 Q264 116 219 116 Q158 116 121.5 148 Q85 180 85 231 Z " />
<glyph glyph-name="colon" unicode="&#x3a;" horiz-adv-x="276" d="M23 56 Q23 94 52 117 Q81 140 125 140 Q163 140 185.5 122.5 Q208 105 208 74 Q208 36 179 13 Q150 -10 105 -10 Q67 -10 45 7.5 Q23 25 23 56 Z M67 345 Q67 383 96 406 Q125 429 169 429 Q207 429 229.5 411.5 Q252 394 252 363 Q252 325 223 302 Q194 279 149 279 Q111 279 89 296.5 Q67 314 67 345 Z " />
<glyph glyph-name="comma" unicode="&#x2c;" horiz-adv-x="275" d="M112 127 Q154 127 178.5 101 Q203 75 203 37 Q203 -24 155 -76.5 Q107 -129 41 -160 L24 -139 Q55 -120 79 -89.5 Q103 -59 103 -31 Q103 -18 95.5 -12.5 Q88 -7 71 -7 Q22 -7 22 41 Q22 76 47 101.5 Q72 127 112 127 Z " />
<glyph glyph-name="ellipsis" unicode="&#x2026;" horiz-adv-x="744" d="M24 56 Q24 94 53 117 Q82 140 126 140 Q164 140 186.5 122.5 Q209 105 209 74 Q209 36 180 13 Q151 -10 106 -10 Q68 -10 46 7.5 Q24 25 24 56 Z M259 56 Q259 94 288 117 Q317 140 361 140 Q399 140 421.5 122.5 Q444 105 444 74 Q444 36 415 13 Q386 -10 341 -10 Q303 -10 281 7.5 Q259 25 259 56 Z M494 56 Q494 94 523 117 Q552 140 596 140 Q634 140 656.5 122.5 Q679 105 679 74 Q679 36 650 13 Q621 -10 576 -10 Q538 -10 516 7.5 Q494 25 494 56 Z " />
<glyph glyph-name="exclam" unicode="&#x21;" horiz-adv-x="284" d="M208 637 Q241 637 257.5 620.5 Q274 604 274 576 Q274 559 269.5 541.5 Q265 524 254 494 L222 408 Q217 393 215 389 Q195 332 184.5 295.5 Q174 259 169 221 Q166 201 152 201 Q138 201 138 214 L140 236 L144 290 Q144 313 142 336 Q140 359 139 367 Q137 380 135 408 L128 494 Q127 512 127 539 Q128 579 146.5 608 Q165 637 208 637 Z M41 56 Q41 90 71 115 Q101 140 144 140 Q180 140 203 121 Q226 102 226 73 Q226 39 195.5 14.5 Q165 -10 123 -10 Q87 -10 64 8.5 Q41 27 41 56 Z " />
<glyph glyph-name="exclamdown" unicode="&#xa1;" horiz-adv-x="262" d="M174 445 Q210 445 233 426.5 Q256 408 256 379 Q256 345 226 320.5 Q196 296 154 296 Q117 296 94 314.5 Q71 333 71 362 Q71 396 101.5 420.5 Q132 445 174 445 Z M146 234 Q160 234 158 214 Q151 146 151 80 Q151 44 159 -40 Q165 -116 165 -136 Q165 -184 145 -213 Q125 -242 83 -242 Q50 -242 34.5 -226 Q19 -210 19 -182 Q19 -160 28.5 -128 Q38 -96 61 -30 Q81 24 101 94.5 Q121 165 128 214 Q130 234 146 234 Z " />
<glyph glyph-name="numbersign" unicode="&#x23;" horiz-adv-x="500" d="M505 639 L421 449 L517 449 L497 402 L400 402 L329 238 L426 238 L405 191 L308 191 L221 -9 L173 -9 L260 191 L156 191 L68 -9 L21 -9 L108 191 L13 191 L33 238 L128 238 L199 402 L104 402 L124 449 L219 449 L304 639 L352 639 L267 449 L372 449 L457 639 L505 639 Z M352 402 L247 402 L176 238 L281 238 L352 402 Z " />
<glyph glyph-name="period" unicode="&#x2e;" horiz-adv-x="273" d="M23 56 Q23 94 52 117 Q81 140 125 140 Q163 140 185.5 122.5 Q208 105 208 74 Q208 36 179 13 Q150 -10 105 -10 Q67 -10 45 7.5 Q23 25 23 56 Z " />
<glyph glyph-name="question" unicode="&#x3f;" horiz-adv-x="412" d="M228 216 Q194 225 162.5 256.5 Q131 288 131 327 Q131 358 151 383 Q171 408 212 444 Q256 483 278 511 Q300 539 300 575 Q300 602 283.5 619 Q267 636 240 636 Q218 636 203 626 Q188 616 188 599 Q188 592 189.5 584.5 Q191 577 191 570 Q191 544 170.5 530.5 Q150 517 123 517 Q94 517 79 533 Q64 549 64 572 Q64 622 119 646 Q174 670 261 670 Q348 670 394.5 644.5 Q441 619 441 572 Q441 539 423.5 512.5 Q406 486 381.5 466 Q357 446 316 419 Q264 384 239 360 Q214 336 214 305 Q214 287 222.5 270 Q231 253 248 242 L228 216 Z M162 -10 Q126 -10 103 8.5 Q80 27 80 56 Q80 90 110 114.5 Q140 139 183 139 Q219 139 242 120.5 Q265 102 265 73 Q265 37 235 13.5 Q205 -10 162 -10 Z " />
<glyph glyph-name="questiondown" unicode="&#xbf;" horiz-adv-x="412" d="M251 445 Q287 445 310 426.5 Q333 408 333 379 Q333 345 303 320.5 Q273 296 230 296 Q194 296 171 314.5 Q148 333 148 362 Q148 398 178 421.5 Q208 445 251 445 Z M185 219 Q219 210 250.5 178.5 Q282 147 282 108 Q282 77 262 52 Q242 27 201 -9 Q157 -48 135 -76 Q113 -104 113 -140 Q113 -167 129.5 -184 Q146 -201 173 -201 Q195 -201 210 -191 Q225 -181 225 -164 Q225 -157 223.5 -149.5 Q222 -142 222 -135 Q222 -109 242.5 -95.5 Q263 -82 290 -82 Q319 -82 334 -98 Q349 -114 349 -137 Q349 -187 294 -211 Q239 -235 152 -235 Q65 -235 18.5 -209.5 Q-28 -184 -28 -137 Q-28 -104 -10.5 -77.5 Q7 -51 31.5 -31 Q56 -11 97 16 Q149 51 174 75 Q199 99 199 130 Q199 148 190.5 165 Q182 182 165 193 L185 219 Z " />
<glyph glyph-name="quotedbl" unicode="&#x22;" horiz-adv-x="266" d="M68 572 Q68 603 84 621.5 Q100 640 128 640 Q150 640 161.5 628.5 Q173 617 173 596 Q173 576 149 521 Q135 489 127 468.5 Q119 448 116 429 Q113 409 96 409 Q79 409 82 430 L83 450 Q83 473 74 522 Q68 558 68 572 Z M199 572 Q199 603 215 621.5 Q231 640 259 640 Q281 640 292.5 628.5 Q304 617 304 596 Q304 576 280 521 Q266 489 258 468.5 Q250 448 247 429 Q244 409 227 409 Q210 409 213 430 L214 450 Q214 473 205 522 Q199 558 199 572 Z " />
<glyph glyph-name="quotesingle" unicode="&#x27;" horiz-adv-x="134" d="M67 572 Q67 603 83 621.5 Q99 640 127 640 Q149 640 160.5 628.5 Q172 617 172 596 Q172 576 148 521 Q134 489 126 468.5 Q118 448 115 429 Q112 409 95 409 Q78 409 81 430 L82 450 Q82 473 73 522 Q67 558 67 572 Z " />
<glyph glyph-name="semicolon" unicode="&#x3b;" horiz-adv-x="275" d="M117 127 Q159 127 183.5 101 Q208 75 208 37 Q208 -24 160 -76.5 Q112 -129 46 -160 L29 -139 Q60 -120 84 -89.5 Q108 -59 108 -31 Q108 -18 100.5 -12.5 Q93 -7 76 -7 Q27 -7 27 41 Q27 76 52 101.5 Q77 127 117 127 Z M57 345 Q57 383 86 406 Q115 429 159 429 Q197 429 219.5 411.5 Q242 394 242 363 Q242 325 213 302 Q184 279 139 279 Q101 279 79 296.5 Q57 314 57 345 Z " />
<glyph glyph-name="slash" unicode="&#x2f;" horiz-adv-x="253" d="M271 635 L316 625 L11 -7 L-34 6 L271 635 Z " />
<glyph glyph-name="underscore" unicode="&#x5f;" horiz-adv-x="496" d="M446 -143 L439 -191 L-57 -191 L-50 -143 L446 -143 Z " />
<glyph glyph-name="braceleft" unicode="&#x7b;" horiz-adv-x="279" d="M309 638 L282 638 Q251 638 245 589 L212 358 Q207 327 195 309.5 Q183 292 158.5 283 Q134 274 88 267 Q146 256 167 242 Q188 228 188 196 Q188 174 168 46 Q152 -68 152 -77 Q152 -93 157.5 -101 Q163 -109 177 -109 L204 -109 L199 -146 L149 -146 Q87 -146 63 -132.5 Q39 -119 39 -82 Q39 -61 58 59 Q61 81 69 137 Q77 193 77 207 Q77 228 68.5 236.5 Q60 245 36 253 L40 281 Q68 287 81 304 Q94 321 99 358 L131 582 Q136 619 149.5 638.5 Q163 658 190 666.5 Q217 675 265 675 L315 675 L309 638 Z " />
<glyph glyph-name="braceright" unicode="&#x7d;" horiz-adv-x="281" d="M-13 -109 L14 -109 Q45 -109 51 -60 L84 171 Q89 202 101 219.5 Q113 237 137.5 246 Q162 255 208 262 Q150 273 129 287 Q108 301 108 333 Q108 355 128 483 Q144 597 144 606 Q144 622 138.5 630 Q133 638 119 638 L92 638 L97 675 L147 675 Q209 675 233 661.5 Q257 648 257 611 Q257 590 238 470 Q235 448 227 392 Q219 336 219 322 Q219 301 227.5 292.5 Q236 284 260 276 L256 248 Q228 242 215 225 Q202 208 197 171 L165 -53 Q160 -90 146.5 -109.5 Q133 -129 106 -137.5 Q79 -146 31 -146 L-19 -146 L-13 -109 Z " />
<glyph glyph-name="bracketleft" unicode="&#x5b;" horiz-adv-x="277" d="M309 675 L305 641 L224 641 L117 -113 L198 -113 L193 -147 L-6 -147 L111 675 L309 675 Z " />
<glyph glyph-name="bracketright" unicode="&#x5d;" horiz-adv-x="278" d="M-17 -147 L-13 -113 L68 -113 L175 641 L94 641 L99 675 L298 675 L181 -147 L-17 -147 Z " />
<glyph glyph-name="parenleft" unicode="&#x28;" horiz-adv-x="277" d="M17 167 Q17 284 52 376 Q87 468 144.5 542 Q202 616 297 711 L347 711 Q258 591 208 432 Q158 273 158 102 Q158 7 173 -83 Q188 -173 215 -231 L165 -231 Q93 -132 55 -39 Q17 54 17 167 Z " />
<glyph glyph-name="parenright" unicode="&#x29;" horiz-adv-x="278" d="M268 313 Q268 196 233 104 Q198 12 140.5 -62 Q83 -136 -12 -231 L-62 -231 Q27 -111 77 48 Q127 207 127 378 Q127 473 112 563 Q97 653 70 711 L120 711 Q192 612 230 519 Q268 426 268 313 Z " />
<glyph glyph-name="emdash" unicode="&#x2014;" horiz-adv-x="798" d="M801 234 L794 187 L-4 187 L3 234 L801 234 Z " />
<glyph glyph-name="endash" unicode="&#x2013;" horiz-adv-x="479" d="M464 234 L457 187 L14 187 L21 234 L464 234 Z " />
<glyph glyph-name="hyphen" unicode="&#x2d;" horiz-adv-x="251" d="M234 244 L225 182 L17 182 L26 244 L234 244 Z " />
<glyph glyph-name="uni00AD" unicode="&#xad;" horiz-adv-x="253" d="M234 244 L225 182 L17 182 L26 244 L234 244 Z " />
<glyph glyph-name="guillemotleft" unicode="&#xab;" horiz-adv-x="491" d="M460 377 L339 206 L412 35 L368 35 L207 206 L416 377 L460 377 Z M277 377 L156 206 L229 35 L185 35 L24 206 L233 377 L277 377 Z " />
<glyph glyph-name="guillemotright" unicode="&#xbb;" horiz-adv-x="480" d="M26 35 L147 206 L74 377 L118 377 L279 206 L70 35 L26 35 Z M209 35 L330 206 L257 377 L301 377 L462 206 L253 35 L209 35 Z " />
<glyph glyph-name="guilsinglleft" unicode="&#x2039;" horiz-adv-x="291" d="M273 377 L152 206 L225 35 L181 35 L20 206 L229 377 L273 377 Z " />
<glyph glyph-name="guilsinglright" unicode="&#x203a;" horiz-adv-x="291" d="M16 35 L137 206 L64 377 L108 377 L269 206 L60 35 L16 35 Z " />
<glyph glyph-name="quotedblbase" unicode="&#x201e;" horiz-adv-x="508" d="M164 97 Q199 97 219 75 Q239 53 239 20 Q239 -40 193.5 -85 Q148 -130 82 -160 L73 -137 Q104 -121 127 -97 Q150 -73 150 -50 Q150 -40 143 -35 Q136 -30 124 -30 Q102 -30 88 -16.5 Q74 -3 74 20 Q74 51 99 74 Q124 97 164 97 Z M372 97 Q407 97 427 75 Q447 53 447 20 Q447 -40 401.5 -85 Q356 -130 290 -160 L281 -137 Q312 -121 335 -97 Q358 -73 358 -50 Q358 -40 351 -35 Q344 -30 332 -30 Q310 -30 296 -16.5 Q282 -3 282 20 Q282 51 307 74 Q332 97 372 97 Z " />
<glyph glyph-name="quotedblleft" unicode="&#x201c;" horiz-adv-x="457" d="M140 389 Q105 389 85 411 Q65 433 65 466 Q65 526 110.5 571 Q156 616 222 646 L231 623 Q200 607 177 583 Q154 559 154 536 Q154 526 161 521 Q168 516 180 516 Q202 516 216 502.5 Q230 489 230 466 Q230 435 205 412 Q180 389 140 389 Z M343 389 Q308 389 288 411 Q268 433 268 466 Q268 526 313.5 571 Q359 616 425 646 L434 623 Q403 607 380 583 Q357 559 357 536 Q357 526 364 521 Q371 516 383 516 Q405 516 419 502.5 Q433 489 433 466 Q433 435 408 412 Q383 389 343 389 Z " />
<glyph glyph-name="quotedblright" unicode="&#x201d;" horiz-adv-x="459" d="M204 636 Q239 636 259 614 Q279 592 279 559 Q279 499 233.5 454 Q188 409 122 379 L113 402 Q144 418 167 442 Q190 466 190 489 Q190 499 183 504 Q176 509 164 509 Q142 509 128 522.5 Q114 536 114 559 Q114 590 139 613 Q164 636 204 636 Z M407 636 Q442 636 462 614 Q482 592 482 559 Q482 499 436.5 454 Q391 409 325 379 L316 402 Q347 418 370 442 Q393 466 393 489 Q393 499 386 504 Q379 509 367 509 Q345 509 331 522.5 Q317 536 317 559 Q317 590 342 613 Q367 636 407 636 Z " />
<glyph glyph-name="quoteleft" unicode="&#x2018;" horiz-adv-x="258" d="M138 388 Q103 388 83 410 Q63 432 63 465 Q63 525 108.5 570 Q154 615 220 645 L229 622 Q198 606 175 582 Q152 558 152 535 Q152 525 159 520 Q166 515 178 515 Q200 515 214 501.5 Q228 488 228 465 Q228 434 203 411 Q178 388 138 388 Z " />
<glyph glyph-name="quoteright" unicode="&#x2019;" horiz-adv-x="257" d="M203 636 Q238 636 258 614 Q278 592 278 559 Q278 499 232.5 454 Q187 409 121 379 L112 402 Q143 418 166 442 Q189 466 189 489 Q189 499 182 504 Q175 509 163 509 Q141 509 127 522.5 Q113 536 113 559 Q113 590 138 613 Q163 636 203 636 Z " />
<glyph glyph-name="quotesinglbase" unicode="&#x201a;" horiz-adv-x="300" d="M164 97 Q199 97 219 75 Q239 53 239 20 Q239 -40 193.5 -85 Q148 -130 82 -160 L73 -137 Q104 -121 127 -97 Q150 -73 150 -50 Q150 -40 143 -35 Q136 -30 124 -30 Q102 -30 88 -16.5 Q74 -3 74 20 Q74 51 99 74 Q124 97 164 97 Z " />
<glyph glyph-name="uni00A0" unicode="&#xa0;" horiz-adv-x="205" d="" />
<glyph glyph-name="cent" unicode="&#xa2;" horiz-adv-x="411" d="M338 331 Q317 331 303.5 340 Q290 349 290 367 Q290 377 293 383 Q296 389 297 390 Q304 399 304 411 Q304 425 293 432.5 Q282 440 265 440 Q224 440 199 394.5 Q174 349 174 251 Q174 191 193.5 168 Q213 145 245 145 Q309 145 350 218 L377 208 Q334 120 236 113 L208 -95 L163 -95 L191 113 Q125 118 85 153 Q45 188 45 260 Q45 358 99.5 410.5 Q154 463 242 469 L267 647 L311 647 L286 469 Q340 465 371.5 443.5 Q403 422 403 391 Q403 366 385 348.5 Q367 331 338 331 Z " />
<glyph glyph-name="currency" unicode="&#xa4;" horiz-adv-x="439" d="M376 368 Q399 331 399 284 Q399 248 385.5 215.5 Q372 183 347 158 L387 110 L352 79 L312 128 Q261 94 203 94 Q148 94 107 130 L50 80 L24 111 L80 162 Q57 199 57 246 Q57 317 107 370 L67 417 L102 447 L142 401 Q194 435 251 435 Q310 435 350 398 L405 446 L431 416 L376 368 Z M209 134 Q247 134 281.5 154 Q316 174 337 207.5 Q358 241 358 280 Q358 329 326 362.5 Q294 396 246 396 Q208 396 173 376 Q138 356 117 322.5 Q96 289 96 250 Q96 202 128.5 168 Q161 134 209 134 Z " />
<glyph glyph-name="dollar" unicode="&#x24;" horiz-adv-x="449" d="M281 351 Q332 339 353 316 Q374 293 374 259 Q374 198 335 160 Q296 122 231 117 L202 -95 L158 -95 L187 117 Q173 118 135 128 Q106 137 90 137 Q75 137 63 132 L81 238 L111 239 Q108 198 138.5 172.5 Q169 147 218 147 Q244 147 260.5 160.5 Q277 174 277 197 Q277 212 267.5 220.5 Q258 229 234 236 L187 250 Q140 263 118.5 286 Q97 309 97 343 Q97 397 135 433.5 Q173 470 238 474 L262 647 L306 647 L282 472 Q297 470 316 464 Q322 463 336 460 Q350 457 360 457 Q375 457 386 464 L369 372 L341 372 Q345 401 322.5 422.5 Q300 444 256 444 Q230 444 214.5 432 Q199 420 199 399 Q199 370 235 363 L281 351 Z " />
<glyph glyph-name="Euro" unicode="&#x20ac;" horiz-adv-x="482" d="M367 575 Q313 575 273.5 519 Q234 463 214 371 L418 371 L402 330 L206 330 Q200 285 199 257 L402 257 L386 216 L198 216 Q197 124 222.5 74.5 Q248 25 294 25 Q339 25 378.5 65.5 Q418 106 436 167 L470 167 Q462 134 456 103 Q450 72 449 47 L449 35 L443 35 Q428 35 412.5 30.5 Q397 26 368 15 Q336 3 312.5 -3.5 Q289 -10 264 -10 Q168 -10 113.5 49.5 Q59 109 54 216 L2 216 L18 257 L54 257 Q55 290 62 330 L18 330 L34 371 L71 371 Q100 478 172.5 542.5 Q245 607 352 607 Q382 607 403 601 Q424 595 451 583 Q471 573 485.5 568.5 Q500 564 518 564 Q509 531 504.5 491.5 Q500 452 500 433 L469 433 Q468 492 439 533.5 Q410 575 367 575 Z " />
<glyph glyph-name="florin" unicode="&#x192;" horiz-adv-x="442" d="M372 607 Q424 607 459.5 583 Q495 559 495 522 Q495 500 480.5 481 Q466 462 432 462 Q406 462 391 473.5 Q376 485 376 504 Q376 515 381 528 Q385 542 385 549 Q385 560 379.5 566.5 Q374 573 363 573 Q338 573 319.5 525.5 Q301 478 285 373 L283 365 L395 365 L395 354 L347 326 L275 326 L226 87 Q202 -29 148.5 -108.5 Q95 -188 0 -188 Q-48 -188 -87 -167 Q-126 -146 -126 -105 Q-126 -78 -108.5 -62 Q-91 -46 -62 -46 Q-38 -46 -23 -57 Q-8 -68 -8 -86 Q-8 -95 -12 -111 Q-16 -125 -16 -132 Q-16 -142 -10 -148 Q-4 -154 7 -154 Q34 -154 48 -113.5 Q62 -73 81 27 Q90 77 99 117 L142 326 L40 326 L74 365 L150 365 Q176 482 228 544.5 Q280 607 372 607 Z " />
<glyph glyph-name="sterling" unicode="&#xa3;" horiz-adv-x="503" d="M422 461 Q400 461 385 472 Q370 483 370 500 Q370 507 373 514 Q376 521 377 524 Q385 538 385 550 Q385 577 352 577 Q333 577 316 565 Q299 553 288 532 Q281 516 279 490.5 Q277 465 277 426 Q277 369 272 329 L390 329 L386 299 L268 299 L260 241 Q254 202 225 163 Q196 124 158 97 L289 97 Q339 97 366 103.5 Q393 110 405.5 125 Q418 140 422 168 L455 168 L421 -3 Q406 -3 396 -2 Q366 0 343 0 L112 0 Q77 0 -1 -3 L0 16 Q43 39 72 76.5 Q101 114 107 156 L123 299 L48 299 L52 329 L126 329 L135 410 Q149 513 205 560 Q261 607 371 607 Q426 607 459 584 Q492 561 492 526 Q492 497 471 479 Q450 461 422 461 Z " />
<glyph glyph-name="yen" unicode="&#xa5;" horiz-adv-x="555" d="M619 597 L613 560 L584 562 Q569 562 554 541 L415 341 L515 341 L510 305 L389 305 L368 274 L362 231 L500 231 L495 195 L357 195 L337 56 L337 51 Q337 35 354 35 L402 37 L397 0 L124 0 L129 37 L178 35 Q197 35 200 57 L219 195 L85 195 L90 231 L224 231 L228 256 L206 305 L100 305 L106 341 L189 341 L97 543 Q92 553 88 557.5 Q84 562 77 562 L48 560 L54 597 L322 597 L317 560 L264 562 Q252 562 252 549 Q252 544 254 538 L354 318 L511 542 Q515 548 515 554 Q515 562 507 562 L455 560 L460 597 L619 597 Z " />
<glyph glyph-name="uni2219" unicode="&#x2219;" horiz-adv-x="269" d="M39 185 Q39 223 68 246 Q97 269 141 269 Q179 269 201.5 251.5 Q224 234 224 203 Q224 165 195 142 Q166 119 121 119 Q83 119 61 136.5 Q39 154 39 185 Z " />
<glyph glyph-name="uni2215" unicode="&#x2215;" horiz-adv-x="135" d="M333 609 L371 582 L-129 -8 L-166 23 L333 609 Z " />
<glyph glyph-name="plus" unicode="&#x2b;" horiz-adv-x="455" d="M296 488 L270 307 L449 307 L442 255 L263 255 L237 73 L180 73 L206 255 L26 255 L32 307 L213 307 L239 488 L296 488 Z " />
<glyph glyph-name="minus" unicode="&#x2212;" horiz-adv-x="462" d="M455 305 L448 256 L26 256 L33 305 L455 305 Z " />
<glyph glyph-name="multiply" unicode="&#xd7;" horiz-adv-x="456" d="M391 437 L423 400 L273 268 L386 134 L345 98 L231 231 L82 99 L49 135 L201 268 L88 400 L129 436 L240 304 L391 437 Z " />
<glyph glyph-name="divide" unicode="&#xf7;" horiz-adv-x="450" d="M267 501 Q299 501 318 486 Q337 471 337 446 Q337 414 312.5 395 Q288 376 250 376 Q219 376 200.5 390.5 Q182 405 182 431 Q182 462 206 481.5 Q230 501 267 501 Z M449 298 L442 242 L23 242 L31 298 L449 298 Z M219 159 Q251 159 270 144 Q289 129 289 104 Q289 72 264.5 53 Q240 34 202 34 Q171 34 152.5 48.5 Q134 63 134 89 Q134 120 158 139.5 Q182 159 219 159 Z " />
<glyph glyph-name="equal" unicode="&#x3d;" horiz-adv-x="456" d="M439 345 L433 295 L46 295 L53 345 L439 345 Z M413 154 L405 103 L19 103 L26 154 L413 154 Z " />
<glyph glyph-name="notequal" unicode="&#x2260;" horiz-adv-x="457" d="M433 295 L280 295 L212 154 L413 154 L405 103 L188 103 L136 -5 L90 9 L136 103 L19 103 L26 154 L161 154 L229 295 L46 295 L53 345 L254 345 L308 456 L352 444 L304 345 L439 345 L433 295 Z " />
<glyph glyph-name="greater" unicode="&#x3e;" horiz-adv-x="457" d="M86 443 L405 232 L402 208 L23 -5 L30 51 L306 206 L340 219 L310 232 L78 386 L86 443 Z " />
<glyph glyph-name="less" unicode="&#x3c;" horiz-adv-x="446" d="M374 -7 L55 204 L58 228 L437 441 L430 385 L154 230 L120 217 L150 204 L382 50 L374 -7 Z " />
<glyph glyph-name="greaterequal" unicode="&#x2265;" horiz-adv-x="457" d="M91 477 L417 311 L413 286 L41 120 L48 174 L292 280 L354 298 L297 318 L83 424 L91 477 Z M380 49 L373 0 L24 0 L30 49 L380 49 Z " />
<glyph glyph-name="lessequal" unicode="&#x2264;" horiz-adv-x="461" d="M68 311 L444 477 L436 421 L190 315 L131 298 L185 282 L401 176 L393 120 L65 286 L68 311 Z M384 51 L376 0 L24 0 L32 51 L384 51 Z " />
<glyph glyph-name="plusminus" unicode="&#xb1;" horiz-adv-x="457" d="M295 506 L270 322 L452 322 L445 273 L262 273 L237 87 L184 87 L210 273 L28 273 L35 322 L217 322 L242 506 L295 506 Z M414 49 L407 0 L-10 0 L-4 49 L414 49 Z " />
<glyph glyph-name="approxequal" unicode="&#x2248;" horiz-adv-x="456" d="M162 380 Q182 380 203 371 Q224 362 252 346 Q285 329 301.5 322 Q318 315 335 315 Q359 315 377 326.5 Q395 338 424 369 L452 338 Q424 301 392 280.5 Q360 260 328 260 Q309 260 290 268 Q271 276 239 293 Q209 309 191 317 Q173 325 155 325 Q129 325 111 314 Q93 303 66 270 L39 302 Q91 380 162 380 Z M136 188 Q156 188 175 180 Q194 172 226 155 Q254 139 272.5 131 Q291 123 309 123 Q332 123 350.5 135 Q369 147 397 180 L424 145 Q398 109 365.5 88 Q333 67 300 67 Q281 67 260.5 75.5 Q240 84 213 100 Q184 116 165 124 Q146 132 128 132 Q103 132 84.5 121.5 Q66 111 39 78 L12 112 Q38 150 70 169 Q102 188 136 188 Z " />
<glyph glyph-name="asciitilde" unicode="&#x7e;" horiz-adv-x="447" d="M441 293 Q416 254 382 232.5 Q348 211 315 211 Q294 211 273.5 219.5 Q253 228 224 244 Q195 260 176 268 Q157 276 138 276 Q114 276 96 265 Q78 254 51 221 L24 256 Q50 294 81 313 Q112 332 145 332 Q167 332 187.5 323.5 Q208 315 238 298 Q266 283 285 275 Q304 267 323 267 Q347 267 367 280 Q387 293 414 328 L441 293 Z " />
<glyph glyph-name="logicalnot" unicode="&#xac;" horiz-adv-x="455" d="M456 360 L426 146 L375 146 L398 312 L33 312 L41 360 L456 360 Z " />
<glyph glyph-name="infinity" unicode="&#x221e;" horiz-adv-x="544" d="M422 420 Q484 420 517.5 379.5 Q551 339 551 275 Q551 227 533 183.5 Q515 140 481 113.5 Q447 87 401 87 Q359 87 328 112 Q297 137 289 177 Q255 134 220 110.5 Q185 87 135 87 Q72 87 38.5 128 Q5 169 5 234 Q5 283 23.5 325.5 Q42 368 76 394 Q110 420 155 420 Q197 420 228 395 Q259 370 268 330 Q301 373 336.5 396.5 Q372 420 422 420 Z M415 194 Q464 194 490.5 213.5 Q517 233 517 265 Q517 288 501.5 301 Q486 314 458 314 Q416 314 386 290 Q356 266 321 220 Q360 194 415 194 Z M99 193 Q142 193 172 217 Q202 241 236 287 Q199 313 142 313 Q94 313 66.5 295 Q39 277 39 242 Q39 219 55 206 Q71 193 99 193 Z " />
<glyph glyph-name="integral" unicode="&#x222b;" horiz-adv-x="493" d="M436 779 Q478 779 507.5 758.5 Q537 738 537 705 Q537 680 518.5 660 Q500 640 471 640 Q448 640 438 651.5 Q428 663 426.5 676 Q425 689 426 712 L426 718 Q426 730 422 735.5 Q418 741 407 741 Q387 741 372.5 698.5 Q358 656 344 560 Q341 537 331 386 Q319 193 309 113 Q291 -10 232.5 -88.5 Q174 -167 87 -167 Q44 -167 15 -146.5 Q-14 -126 -14 -94 Q-14 -66 4.5 -47 Q23 -28 52 -28 Q75 -28 84.5 -39.5 Q94 -51 95.5 -63 Q97 -75 97 -100 L97 -107 Q97 -118 101.5 -123.5 Q106 -129 116 -129 Q136 -129 150.5 -86.5 Q165 -44 178 52 Q181 68 188 188 Q190 211 197.5 321 Q205 431 214 499 Q232 622 290.5 700.5 Q349 779 436 779 Z " />
<glyph glyph-name="uni2126" unicode="&#x2126;" horiz-adv-x="665" d="M506 93 Q546 93 567 108.5 Q588 124 599 162 L634 162 Q595 28 591 -3 Q581 0 497 0 L354 0 L358 43 Q404 99 434 148.5 Q464 198 482.5 264.5 Q501 331 501 419 Q501 502 472 537.5 Q443 573 383 573 Q285 573 243.5 501.5 Q202 430 202 273 Q202 201 217.5 146 Q233 91 260 43 L252 0 L109 0 Q25 0 14 -3 Q18 22 18 103 L17 162 L52 162 Q51 125 68 109 Q85 93 126 93 L178 93 Q121 152 93.5 202.5 Q66 253 66 319 Q66 399 106 465 Q146 531 219 569 Q292 607 388 607 Q467 607 524 578.5 Q581 550 610 500 Q639 450 639 387 Q639 322 618 273.5 Q597 225 559.5 186 Q522 147 454 93 L506 93 Z " />
<glyph glyph-name="uni2206" unicode="&#x2206;" horiz-adv-x="605" d="M376 607 L543 0 L-11 0 L327 607 L376 607 Z M389 36 L276 451 L46 36 L389 36 Z " />
<glyph glyph-name="product" unicode="&#x220f;" horiz-adv-x="636" d="M647 560 L612 562 Q594 562 590 541 L511 -24 L511 -31 Q511 -46 526 -46 L561 -44 L557 -80 L316 -80 L321 -44 L351 -46 Q370 -46 373 -24 L455 559 L279 559 L197 -24 L197 -29 Q197 -46 213 -46 L243 -44 L239 -80 L-3 -80 L2 -44 L37 -46 Q56 -46 59 -24 L138 541 L139 547 Q139 554 135 558.5 Q131 563 123 562 L87 560 L92 597 L652 597 L647 560 Z " />
<glyph glyph-name="summation" unicode="&#x2211;" horiz-adv-x="508" d="M412 597 Q503 597 515 600 Q512 577 506 468 L468 468 Q470 520 452.5 541 Q435 562 390 562 L249 562 L339 325 L105 15 L318 15 Q359 15 382 28 Q405 41 414 73 L450 73 Q439 43 426.5 -8.5 Q414 -60 410 -83 Q400 -80 311 -80 L-3 -80 L0 -55 L220 239 L96 546 L103 597 L412 597 Z " />
<glyph glyph-name="radical" unicode="&#x221a;" horiz-adv-x="460" d="M536 786 L570 786 L255 -95 L220 -95 L113 324 L34 299 L27 331 L236 397 L241 372 L242 372 L299 125 L536 786 Z " />
<glyph glyph-name="uni00B5" unicode="&#xb5;" horiz-adv-x="559" d="M532 60 Q488 23 445.5 6.5 Q403 -10 370 -10 Q352 -10 345 1 Q338 12 338 36 Q338 54 342.5 89.5 Q347 125 353 165 Q307 82 266 41.5 Q225 1 184 -8 L158 -188 L158 -193 Q158 -207 169 -207 L226 -206 L222 -239 L-25 -239 L-21 -206 L12 -207 Q25 -205 28 -188 L108 375 L108 379 Q108 394 97 394 L64 392 L69 425 L245 425 L205 140 L203 115 Q203 101 209.5 92 Q216 83 230 83 Q254 83 283.5 117.5 Q313 152 337.5 202 Q362 252 372 295 L391 416 L528 433 Q525 419 518 380 Q489 228 479.5 173 Q470 118 470 92 Q470 75 483 75 Q501 75 521 88 L532 60 Z " />
<glyph glyph-name="partialdiff" unicode="&#x2202;" horiz-adv-x="475" d="M282 605 Q369 605 421.5 543.5 Q474 482 474 370 Q474 306 449 217 Q424 128 361.5 58.5 Q299 -11 195 -11 Q153 -11 111.5 3 Q70 17 42 49.5 Q14 82 14 133 Q14 189 40.5 232.5 Q67 276 112 300.5 Q157 325 210 325 Q288 325 332 290 Q348 375 348 419 Q348 489 328.5 530 Q309 571 272 571 Q249 571 235.5 561 Q222 551 222 533 Q222 528 224 516 Q226 504 226 498 Q226 478 209.5 463.5 Q193 449 158 449 Q132 449 118 463.5 Q104 478 104 500 Q104 534 131 557.5 Q158 581 199.5 593 Q241 605 282 605 Z M194 24 Q233 24 266.5 88 Q300 152 322 246 Q312 262 295 271.5 Q278 281 259 281 Q227 281 200 258.5 Q173 236 157 194.5 Q141 153 141 98 Q141 62 154.5 43 Q168 24 194 24 Z " />
<glyph glyph-name="percent" unicode="&#x25;" horiz-adv-x="630" d="M558 609 L596 582 L96 -8 L59 23 L558 609 Z M219 608 Q283 608 316.5 575.5 Q350 543 350 488 Q350 417 304.5 372.5 Q259 328 180 328 Q116 328 82.5 360.5 Q49 393 49 447 Q49 519 95.5 563.5 Q142 608 219 608 Z M215 584 Q198 584 183 561.5 Q168 539 159 500 Q150 461 150 415 Q150 381 158.5 367.5 Q167 354 184 354 Q201 354 216 376 Q231 398 240 436 Q249 474 249 520 Q249 556 241 570 Q233 584 215 584 Z M474 271 Q538 271 571.5 238.5 Q605 206 605 151 Q605 80 559.5 35 Q514 -10 435 -10 Q371 -10 337.5 22.5 Q304 55 304 109 Q304 181 350.5 226 Q397 271 474 271 Z M471 247 Q454 247 439 224 Q424 201 415 162 Q406 123 406 78 Q406 43 413.5 29.5 Q421 16 438 16 Q456 16 471.5 38 Q487 60 496 98.5 Q505 137 505 183 Q505 218 496.5 232.5 Q488 247 471 247 Z " />
<glyph glyph-name="perthousand" unicode="&#x2030;" horiz-adv-x="958" d="M555 609 L593 582 L93 -8 L56 23 L555 609 Z M219 608 Q283 608 317 575.5 Q351 543 351 488 Q351 417 305 372.5 Q259 328 180 328 Q116 328 83 360.5 Q50 393 50 447 Q50 519 96.5 563.5 Q143 608 219 608 Z M216 584 Q199 584 184 561.5 Q169 539 160 500 Q151 461 151 415 Q151 381 159 367.5 Q167 354 184 354 Q201 354 216 376 Q231 398 240 436 Q249 474 249 520 Q249 556 241 570 Q233 584 216 584 Z M470 270 Q534 270 567.5 238 Q601 206 601 151 Q601 79 556 34.5 Q511 -10 431 -10 Q367 -10 334 22.5 Q301 55 301 109 Q301 181 347.5 225.5 Q394 270 470 270 Z M801 270 Q865 270 899 238 Q933 206 933 151 Q933 79 887.5 34.5 Q842 -10 762 -10 Q698 -10 665 22.5 Q632 55 632 109 Q632 181 678.5 225.5 Q725 270 801 270 Z M467 246 Q450 246 435 223 Q420 200 411 161.5 Q402 123 402 77 Q402 43 410 29.5 Q418 16 435 16 Q452 16 467.5 38 Q483 60 492 98 Q501 136 501 182 Q501 217 492.5 231.5 Q484 246 467 246 Z M798 246 Q781 246 766.5 223 Q752 200 743 161 Q734 122 734 77 Q734 43 742 29.5 Q750 16 766 16 Q783 16 798.5 38 Q814 60 823 98 Q832 136 832 182 Q832 218 824 232 Q816 246 798 246 Z " />
<glyph glyph-name="lozenge" unicode="&#x25ca;" horiz-adv-x="457" d="M302 645 L457 281 L204 -79 L175 -79 L19 286 L273 645 L302 645 Z M279 580 L262 549 L77 285 L190 17 L197 -14 L215 17 L399 281 L287 549 L279 580 Z " />
<glyph glyph-name="at" unicode="&#x40;" horiz-adv-x="773" d="M495 604 Q574 604 636 569.5 Q698 535 732.5 475.5 Q767 416 767 342 Q767 252 717 170.5 Q667 89 593.5 39.5 Q520 -10 455 -10 Q431 -10 423 -0.5 Q415 9 415 31 Q415 73 438 172 Q397 76 347 33 Q297 -10 245 -10 Q201 -10 177 22.5 Q153 55 153 112 Q153 192 188 267 Q223 342 282 388.5 Q341 435 411 435 Q434 435 452 425.5 Q470 416 479 396 L484 416 L619 433 L595 338 Q577 262 564 190.5 Q551 119 551 92 Q551 75 564 75 Q592 78 631 116 Q670 154 698.5 213 Q727 272 727 335 Q727 399 697 452 Q667 505 613 536 Q559 567 490 567 Q367 567 269 503 Q171 439 117 339 Q63 239 63 136 Q63 61 98.5 4 Q134 -53 201 -85 Q268 -117 360 -117 Q450 -117 526 -86 Q602 -55 678 12 L698 -17 Q616 -90 533 -121.5 Q450 -153 347 -153 Q244 -153 169 -118 Q94 -83 54 -18.5 Q14 46 14 134 Q14 250 80.5 359 Q147 468 258 536 Q369 604 495 604 Z M426 405 Q391 405 358.5 361 Q326 317 305 243 Q287 185 287 131 Q287 96 296.5 78 Q306 60 323 60 Q343 60 378 111 Q413 162 440 231 Q467 300 467 353 Q467 375 456 390 Q445 405 426 405 Z " />
<glyph glyph-name="ampersand" unicode="&#x26;" horiz-adv-x="590" d="M594 353 Q594 312 552 286 Q510 260 444 248 Q483 219 483 164 Q483 114 451.5 74.5 Q420 35 366.5 13 Q313 -9 248 -9 Q183 -9 130.5 13 Q78 35 47.5 75 Q17 115 17 168 Q17 215 42.5 256.5 Q68 298 119 324.5 Q170 351 243 352 Q208 372 184.5 404 Q161 436 161 475 Q161 515 186.5 545 Q212 575 253 591 Q294 607 340 607 Q409 607 447 580.5 Q485 554 485 516 Q485 490 465.5 469.5 Q446 449 414 449 Q388 449 376 461 Q364 473 364 489 Q364 496 367 504.5 Q370 513 371 516 Q379 534 379 545 Q379 560 368.5 568.5 Q358 577 344 577 Q317 577 302 550 Q287 523 287 473 Q287 428 307 399.5 Q327 371 368 358 L363 329 Q350 331 326 331 Q268 331 228 306 Q188 281 168 242.5 Q148 204 148 163 Q148 100 185.5 64.5 Q223 29 285 29 Q355 29 401.5 66.5 Q448 104 448 163 Q448 199 428.5 218.5 Q409 238 380 238 Q341 238 341 206 Q341 199 347 186 Q353 173 353 160 Q353 140 338 125.5 Q323 111 295 111 Q271 111 251.5 125 Q232 139 232 168 Q232 208 272 233 Q312 258 381 267 L389 268 Q396 269 424.5 273 Q453 277 469 287.5 Q485 298 485 315 Q485 321 478.5 334 Q472 347 472 359 Q472 379 487 393.5 Q502 408 530 408 Q561 408 577.5 391.5 Q594 375 594 353 Z " />
<glyph glyph-name="paragraph" unicode="&#xb6;" horiz-adv-x="484" d="M59 421 Q59 501 117.5 549 Q176 597 275 597 L518 597 L513 559 L424 559 L307 -269 L262 -269 L379 559 L349 559 Q314 559 308 521 L197 -269 L152 -269 L230 288 Q148 288 103.5 322.5 Q59 357 59 421 Z " />
<glyph glyph-name="section" unicode="&#xa7;" horiz-adv-x="441" d="M374 442 Q350 442 338 453.5 Q326 465 326 483 Q326 497 336 513 Q345 526 345 537 Q345 557 325 567 Q305 577 277 577 Q237 577 209.5 557.5 Q182 538 182 506 Q182 487 194.5 472.5 Q207 458 230 445 L345 379 Q421 336 421 272 Q421 184 319 136 Q380 90 380 28 Q380 -45 322 -90 Q264 -135 167 -135 Q98 -135 48 -111 Q-2 -87 -2 -42 Q-2 -10 19 10 Q40 30 74 30 Q98 30 110 18.5 Q122 7 122 -11 Q122 -25 112 -41 Q104 -55 104 -65 Q104 -85 124 -95 Q144 -105 172 -105 Q211 -105 239 -85.5 Q267 -66 267 -34 Q267 -15 254.5 -0.5 Q242 14 218 28 L104 93 Q27 136 27 201 Q27 287 130 337 Q69 380 69 444 Q69 517 126.5 562 Q184 607 281 607 Q350 607 400 583 Q450 559 450 514 Q450 482 429 462 Q408 442 374 442 Z M160 317 Q139 299 139 270 Q139 252 152.5 239.5 Q166 227 201 208 L288 156 Q309 174 309 202 Q309 220 295.5 233 Q282 246 248 265 L160 317 Z " />
<glyph glyph-name="copyright" unicode="&#xa9;" horiz-adv-x="684" d="M392 607 Q469 607 531.5 571 Q594 535 629.5 473 Q665 411 665 336 Q665 261 628.5 181 Q592 101 513.5 45.5 Q435 -10 316 -10 Q239 -10 177 26 Q115 62 79.5 123.5 Q44 185 44 260 Q44 335 80.5 415.5 Q117 496 195 551.5 Q273 607 392 607 Z M83 265 Q83 199 114 145 Q145 91 199 59.5 Q253 28 319 28 Q424 28 492.5 78 Q561 128 592 198 Q623 268 623 331 Q623 397 592.5 452 Q562 507 507.5 538.5 Q453 570 386 570 Q281 570 213 519.5 Q145 469 114 398.5 Q83 328 83 265 Z M385 470 Q411 470 427 466 Q443 462 462 455 Q488 444 508 444 Q499 397 499 373 L474 371 Q472 399 450 420 Q428 441 402 441 Q344 441 321.5 384 Q299 327 299 256 Q299 161 369 161 Q397 161 423.5 182 Q450 203 460 233 L487 233 Q481 206 479 190 Q477 174 477 158 L473 158 Q452 158 415 145 Q389 137 373.5 133.5 Q358 130 340 130 Q269 130 224 170 Q179 210 179 273 Q179 329 203.5 373.5 Q228 418 275 444 Q322 470 385 470 Z " />
<glyph glyph-name="registered" unicode="&#xae;" horiz-adv-x="477" d="M267 607 Q325 607 371 582 Q417 557 443 512.5 Q469 468 469 411 Q469 354 443 309.5 Q417 265 371 240 Q325 215 267 215 Q209 215 162.5 240 Q116 265 90 309.5 Q64 354 64 411 Q64 468 90 512.5 Q116 557 162.5 582 Q209 607 267 607 Z M266 576 Q192 576 145 530 Q98 484 98 411 Q98 338 145 292 Q192 246 266 246 Q340 246 387 292 Q434 338 434 411 Q434 484 387 530 Q340 576 266 576 Z M290 513 Q329 513 347.5 501.5 Q366 490 366 466 Q366 443 351 427 Q336 411 306 407 Q330 407 349.5 394 Q369 381 370 360 Q370 352 374 346.5 Q378 341 388 343 L388 316 L339 316 Q296 316 296 355 L296 361 Q296 377 289.5 382 Q283 387 273 387 L254 387 L254 350 Q254 343 263 343 L277 343 L277 316 L159 316 L159 343 L177 343 Q183 343 183 350 L183 479 Q183 486 175 486 L159 486 L159 513 L290 513 Z M259 486 Q254 486 254 483 L254 417 L267 417 Q280 417 287.5 427.5 Q295 438 295 453 Q295 470 287.5 478 Q280 486 269 486 L259 486 Z " />
<glyph glyph-name="trademark" unicode="&#x2122;" horiz-adv-x="773" d="M349 523 L326 523 L327 534 Q327 554 314 564 Q301 574 271 574 L264 574 Q257 574 257 568 L225 344 L225 342 Q225 332 233 334 L260 334 L257 310 L84 310 L87 333 L114 333 Q118 333 121 336.5 Q124 340 125 345 L157 568 Q157 574 152 574 L144 574 Q112 574 96 561.5 Q80 549 75 523 L53 523 L63 597 L359 597 L349 523 Z M812 597 L809 572 L796 573 Q788 573 786 564 L755 341 Q755 333 763 333 L778 334 L775 310 L616 310 L619 333 L644 333 Q653 333 655 344 L682 537 L548 313 L527 313 L444 563 L426 437 Q413 344 413 341 Q413 336 416 335 Q419 334 429 334 Q439 334 446 334 L443 310 L352 310 L355 334 L374 333 Q384 333 386 344 L416 559 L417 566 Q417 570 414.5 571.5 Q412 573 405 573 Q397 573 392 572 L396 597 L537 597 L591 429 L691 597 L812 597 Z " />
<glyph glyph-name="degree" unicode="&#xb0;" horiz-adv-x="362" d="M120 498 Q120 547 154 581 Q188 615 236 615 Q277 615 301.5 588.5 Q326 562 326 519 Q326 472 292 438 Q258 404 209 404 Q169 404 144.5 430 Q120 456 120 498 Z M170 502 Q170 480 182.5 466.5 Q195 453 215 453 Q239 453 256 471.5 Q273 490 273 516 Q273 538 261 551.5 Q249 565 230 565 Q205 565 187.5 546.5 Q170 528 170 502 Z " />
<glyph glyph-name="bar" unicode="&#x7c;" horiz-adv-x="226" d="M166 730 L212 730 L76 -239 L30 -239 L166 730 Z " />
<glyph glyph-name="brokenbar" unicode="&#xa6;" horiz-adv-x="234" d="M149 607 L197 607 L149 265 L101 265 L149 607 Z M127 113 L79 -231 L31 -231 L79 113 L127 113 Z " />
<glyph glyph-name="uni2113" unicode="&#x2113;" horiz-adv-x="418" d="M229 31 Q248 31 270 49.5 Q292 68 312 104 L337 90 Q313 54 294 34.5 Q275 15 248 4.5 Q221 -6 179 -6 Q123 -6 90.5 21 Q58 48 58 102 Q58 123 67 176 L46 167 L5 151 L-1 183 Q17 190 73 214 Q88 300 105 387 Q125 486 170.5 546.5 Q216 607 305 607 Q357 607 384 583 Q411 559 411 512 Q411 452 369.5 380.5 Q328 309 212 242 Q186 108 186 78 Q186 52 196 41.5 Q206 31 229 31 Z M245 452 Q241 425 240 408 Q238 399 236 378 L220 285 Q304 337 336.5 392.5 Q369 448 369 510 Q369 573 324 573 Q284 573 267.5 537 Q251 501 245 452 Z " />
</font>
</svg>
