<?xml version="1.0" encoding="UTF-8"?>
<svg xmlns="http://www.w3.org/2000/svg" xmlns:xlink="http://www.w3.org/1999/xlink" version="1.2" >
<font id="Roboto Mono">
<font-face  font-family="Roboto Mono" units-per-em="2048" ascent="1536" descent="-512" font-style="normal" font-weight="400" font-stretch="normal" cap-height="1456" x-height="1082" underline-position="-150" underline-thickness="100" />
<missing-glyph  horiz-adv-x="1229" d="" />
<glyph glyph-name="NULL" d="" />
<glyph glyph-name="nonmarkingreturn" unicode="&#xd;" horiz-adv-x="1229" d="" />
<glyph glyph-name="space" unicode="&#x20;" horiz-adv-x="1229" d="" />
<glyph glyph-name="quotedbl" unicode="&#x22;" horiz-adv-x="1229" d="M505 1427 L484 1057 L354 1057 L355 1411 L355 1536 L505 1536 L505 1427 Z M862 1427 L841 1057 L712 1057 L713 1411 L713 1536 L863 1536 L862 1427 Z " />
<glyph glyph-name="numbersign" unicode="&#x23;" horiz-adv-x="1229" d="M707 410 L443 410 L363 0 L220 0 L300 410 L61 410 L61 547 L326 547 L395 901 L137 901 L137 1040 L422 1040 L504 1456 L647 1456 L565 1040 L829 1040 L911 1456 L1054 1456 L972 1040 L1177 1040 L1177 901 L945 901 L876 547 L1102 547 L1102 410 L850 410 L770 0 L627 0 L707 410 Z M469 547 L733 547 L802 901 L538 901 L469 547 Z " />
<glyph glyph-name="dollar" unicode="&#x24;" horiz-adv-x="1229" d="M907 375 Q908 466 840.5 531 Q773 596 626 644 Q533 673 458 711 Q383 749 329.5 801.5 Q276 854 247 922 Q218 990 218 1079 Q218 1163 243.5 1231 Q269 1299 315.5 1349.5 Q362 1400 428.5 1431 Q495 1462 576 1472 L576 1692 L725 1692 L725 1472 Q893 1449 986 1330.5 Q1079 1212 1080 1008 L896 1008 Q896 1075 879.5 1131.5 Q863 1188 831.5 1228.5 Q800 1269 754 1292 Q708 1315 649 1315 Q528 1315 466 1252 Q404 1189 403 1082 Q403 1032 419 993 Q435 954 469.5 922 Q504 890 558.5 862.5 Q613 835 690 809 Q784 778 859 740 Q934 702 986 651 Q1038 600 1065.5 533 Q1093 466 1093 377 Q1093 290 1065.5 221 Q1038 152 988 102.5 Q938 53 866.5 23 Q795 -7 708 -16 L708 -208 L559 -208 L559 -17 Q481 -9 409.5 19 Q338 47 283 100.5 Q228 154 195 235 Q162 316 162 429 L347 429 Q347 345 372 289.5 Q397 234 436.5 201 Q476 168 526 154 Q576 140 627 140 Q692 140 744 156 Q796 172 832 202.5 Q868 233 887.5 276.5 Q907 320 907 375 Z " />
<glyph glyph-name="percent" unicode="&#x25;" horiz-adv-x="1229" d="M44 1194 Q44 1251 61.5 1302.5 Q79 1354 112.5 1393 Q146 1432 196 1454.5 Q246 1477 311 1477 Q377 1477 427.5 1454.5 Q478 1432 511.5 1393 Q545 1354 562.5 1302.5 Q580 1251 580 1194 L580 1117 Q580 1060 562.5 1009 Q545 958 511.5 919.5 Q478 881 428 858.5 Q378 836 313 836 Q248 836 197.5 858.5 Q147 881 113 919.5 Q79 958 61.5 1009 Q44 1060 44 1117 L44 1194 Z M182 1117 Q182 1086 189 1057.5 Q196 1029 212 1006.5 Q228 984 252.5 970.5 Q277 957 313 957 Q348 957 372.5 970.5 Q397 984 412 1006.5 Q427 1029 434.5 1057.5 Q442 1086 442 1117 L442 1194 Q442 1225 434.5 1254.5 Q427 1284 411.5 1306.5 Q396 1329 371.5 1342.5 Q347 1356 311 1356 Q276 1356 251.5 1342.5 Q227 1329 211.5 1306.5 Q196 1284 189 1254.5 Q182 1225 182 1194 L182 1117 Z M645 338 Q645 395 662.5 446 Q680 497 714 536 Q748 575 798 597.5 Q848 620 913 620 Q979 620 1029 597.5 Q1079 575 1113 536 Q1147 497 1164.5 446 Q1182 395 1182 338 L1182 260 Q1182 203 1164.5 152 Q1147 101 1113 62.5 Q1079 24 1029.5 1.5 Q980 -21 915 -21 Q849 -21 798.5 1.5 Q748 24 714 62.5 Q680 101 662.5 152 Q645 203 645 260 L645 338 Z M783 260 Q783 229 790.5 200 Q798 171 813.5 148.5 Q829 126 854 112.5 Q879 99 915 99 Q950 99 974.5 112.5 Q999 126 1014 148.5 Q1029 171 1036 200 Q1043 229 1043 260 L1043 338 Q1043 369 1036 398 Q1029 427 1013.5 449.5 Q998 472 973 485.5 Q948 499 913 499 Q877 499 852.5 485.5 Q828 472 812.5 449.5 Q797 427 790 398 Q783 369 783 338 L783 260 Z M398 188 L287 250 L854 1287 L965 1225 L398 188 Z " />
<glyph glyph-name="ampersand" unicode="&#x26;" horiz-adv-x="1229" d="M107 373 Q107 440 127 497 Q147 554 183 603.5 Q219 653 269 697.5 Q319 742 380 785 Q313 876 273.5 957 Q234 1038 234 1126 Q234 1211 259.5 1276.5 Q285 1342 332 1386.5 Q379 1431 445 1454 Q511 1477 593 1477 Q664 1477 722 1452 Q780 1427 820.5 1384.5 Q861 1342 883 1286 Q905 1230 905 1168 Q905 1115 889.5 1071.5 Q874 1028 846.5 990 Q819 952 781 918 Q743 884 699 851 L605 771 L912 368 Q947 432 967 508 Q987 584 988 672 L1155 672 Q1155 544 1118.5 434.5 Q1082 325 1012 237 L1193 0 L972 0 L889 110 Q815 47 726 13.5 Q637 -20 539 -20 Q440 -20 360 9 Q280 38 224 90 Q168 142 137.5 214.5 Q107 287 107 373 Z M539 130 Q610 130 676 156 Q742 182 799 230 L476 661 L448 637 Q398 596 367 557 Q336 518 319.5 483.5 Q303 449 297.5 420.5 Q292 392 292 373 Q292 322 308 278 Q324 234 355 201 Q386 168 432 149 Q478 130 539 130 Z M420 1128 Q420 1072 445 1013.5 Q470 955 515 890 L632 983 Q663 1004 683 1027 Q703 1050 714 1073.5 Q725 1097 729.5 1121 Q734 1145 734 1168 Q734 1198 724.5 1226.5 Q715 1255 696.5 1276.5 Q678 1298 652 1311.5 Q626 1325 593 1325 Q550 1325 517.5 1309 Q485 1293 463.5 1266 Q442 1239 431 1203.5 Q420 1168 420 1128 Z " />
<glyph glyph-name="quotesingle" unicode="&#x27;" horiz-adv-x="1229" d="M653 1425 L632 1057 L494 1057 L495 1409 L495 1536 L653 1536 L653 1425 Z " />
<glyph glyph-name="parenleft" unicode="&#x28;" horiz-adv-x="1229" d="M357 591 Q357 734 379.5 860 Q402 986 440 1093.5 Q478 1201 527.5 1290 Q577 1379 631.5 1448 Q686 1517 741 1566 Q796 1615 846 1643 L885 1521 Q823 1474 761.5 1393 Q700 1312 651.5 1196.5 Q603 1081 572.5 930.5 Q542 780 542 593 L542 579 Q542 392 572.5 241 Q603 90 651.5 -26 Q700 -142 761.5 -224.5 Q823 -307 885 -357 L846 -470 Q796 -442 740.5 -393.5 Q685 -345 630.5 -275.5 Q576 -206 526.5 -117.5 Q477 -29 439.5 78.5 Q402 186 379.5 312 Q357 438 357 581 L357 591 Z " />
<glyph glyph-name="parenright" unicode="&#x29;" horiz-adv-x="1229" d="M849 581 Q849 438 826.5 312 Q804 186 766 78.5 Q728 -29 678.5 -117.5 Q629 -206 574.5 -275.5 Q520 -345 464.5 -393.5 Q409 -442 359 -470 L320 -357 Q382 -311 443.5 -228.5 Q505 -146 553.5 -29 Q602 88 632.5 240 Q663 392 663 579 L663 593 Q663 780 631 932.5 Q599 1085 548.5 1202.5 Q498 1320 437.5 1402 Q377 1484 320 1530 L359 1643 Q409 1615 464.5 1566 Q520 1517 574.5 1448 Q629 1379 678.5 1290 Q728 1201 766 1093.5 Q804 986 826.5 860 Q849 734 849 591 L849 581 Z " />
<glyph glyph-name="asterisk" unicode="&#x2a;" horiz-adv-x="1229" d="M537 683 L160 779 L214 954 L579 803 L554 1224 L732 1224 L703 797 L1066 947 L1120 769 L738 675 L994 351 L848 241 L634 604 L422 250 L276 356 L537 683 Z " />
<glyph glyph-name="plus" unicode="&#x2b;" horiz-adv-x="1229" d="M710 781 L1117 781 L1117 597 L710 597 L710 146 L525 146 L525 597 L119 597 L119 781 L525 781 L525 1206 L710 1206 L710 781 Z " />
<glyph glyph-name="comma" unicode="&#x2c;" horiz-adv-x="1229" d="M643 43 Q643 -4 631.5 -55.5 Q620 -107 597.5 -157.5 Q575 -208 543 -254 Q511 -300 469 -336 L354 -273 Q402 -203 422 -124 Q442 -45 442 40 L442 219 L643 219 L643 43 Z " />
<glyph glyph-name="hyphen" unicode="&#x2d;" horiz-adv-x="1230" d="M983 561 L218 561 L218 713 L983 713 L983 561 Z " />
<glyph glyph-name="period" unicode="&#x2e;" horiz-adv-x="1229" d="M496 120 Q496 150 505.5 176 Q515 202 533 221.5 Q551 241 578 252 Q605 263 641 263 Q677 263 704.5 252 Q732 241 750.5 221.5 Q769 202 778.5 176 Q788 150 788 120 Q788 91 778.5 65.5 Q769 40 750.5 21 Q732 2 704.5 -8.5 Q677 -19 641 -19 Q605 -19 578 -8.5 Q551 2 533 21 Q515 40 505.5 65.5 Q496 91 496 120 Z " />
<glyph glyph-name="slash" unicode="&#x2f;" horiz-adv-x="1229" d="M418 -125 L252 -125 L860 1456 L1025 1456 L418 -125 Z " />
<glyph glyph-name="zero" unicode="0" horiz-adv-x="1229" d="M1088 557 Q1088 418 1056 310.5 Q1024 203 964 129.5 Q904 56 817 18 Q730 -20 618 -20 Q507 -20 419.5 18 Q332 56 271 129.5 Q210 203 177.5 310.5 Q145 418 145 557 L145 898 Q145 1037 177 1144.5 Q209 1252 269.5 1326 Q330 1400 417.5 1438.5 Q505 1477 616 1477 Q728 1477 815.5 1438.5 Q903 1400 963.5 1326 Q1024 1252 1056 1144.5 Q1088 1037 1088 898 L1088 557 Z M331 594 L898 1029 Q882 1174 813.5 1249.5 Q745 1325 616 1325 Q470 1325 400.5 1226.5 Q331 1128 331 939 L331 594 Z M902 852 L336 419 Q353 278 423 204 Q493 130 618 130 Q765 130 833.5 230 Q902 330 902 518 L902 852 Z " />
<glyph glyph-name="one" unicode="1" horiz-adv-x="1229" d="M774 0 L589 0 L589 1220 L208 1075 L208 1244 L759 1456 L774 1456 L774 0 Z " />
<glyph glyph-name="two" unicode="2" horiz-adv-x="1229" d="M1067 0 L113 0 L113 133 L590 663 Q654 734 697 789 Q740 844 766 890.5 Q792 937 803 978.5 Q814 1020 814 1064 Q814 1118 796.5 1165.5 Q779 1213 745.5 1248 Q712 1283 664.5 1303.5 Q617 1324 557 1324 Q484 1324 430.5 1303 Q377 1282 341.5 1243.5 Q306 1205 288.5 1150 Q271 1095 271 1027 L85 1027 Q85 1119 117 1200.5 Q149 1282 209.5 1343 Q270 1404 357.5 1440 Q445 1476 557 1476 Q660 1476 742.5 1445.5 Q825 1415 882 1361 Q939 1307 969.5 1233 Q1000 1159 1000 1072 Q1000 1007 978 943.5 Q956 880 918.5 818 Q881 756 831.5 695.5 Q782 635 727 575 L336 151 L1067 151 L1067 0 Z " />
<glyph glyph-name="three" unicode="3" horiz-adv-x="1229" d="M390 817 L522 817 Q592 817 645.5 836 Q699 855 735.5 888 Q772 921 791 967 Q810 1013 810 1068 Q810 1195 745 1259.5 Q680 1324 555 1324 Q496 1324 447.5 1306.5 Q399 1289 364.5 1256 Q330 1223 311 1177 Q292 1131 292 1074 L106 1074 Q106 1157 138.5 1230.5 Q171 1304 230 1358.5 Q289 1413 371.5 1444.5 Q454 1476 555 1476 Q653 1476 734 1449.5 Q815 1423 873 1371 Q931 1319 963 1242 Q995 1165 995 1064 Q995 1022 982 977 Q969 932 942 889.5 Q915 847 872.5 809.5 Q830 772 771 747 Q842 724 889.5 687 Q937 650 965.5 604 Q994 558 1005.5 507 Q1017 456 1017 406 Q1017 304 982 225 Q947 146 885 91.5 Q823 37 738.5 8.5 Q654 -20 556 -20 Q460 -20 375.5 7 Q291 34 229 86 Q167 138 130.5 213 Q94 288 94 384 L279 384 Q279 327 298.5 280 Q318 233 354 200 Q390 167 441.5 149 Q493 131 556 131 Q619 131 670 147.5 Q721 164 757 198 Q793 232 812.5 282.5 Q832 333 832 402 Q832 470 809.5 519.5 Q787 569 746.5 602 Q706 635 648.5 651 Q591 667 522 667 L390 667 L390 817 Z " />
<glyph glyph-name="four" unicode="4" horiz-adv-x="1229" d="M924 489 L1127 489 L1127 338 L924 338 L924 0 L739 0 L739 338 L75 338 L75 447 L727 1456 L924 1456 L924 489 Z M280 489 L739 489 L739 1210 L709 1154 L280 489 Z " />
<glyph glyph-name="five" unicode="5" horiz-adv-x="1229" d="M240 730 L313 1456 L1060 1456 L1060 1276 L469 1276 L428 888 Q471 913 531 932 Q591 951 670 951 Q771 951 851 916 Q931 881 987 817.5 Q1043 754 1073 664 Q1103 574 1103 464 Q1103 360 1075 271 Q1047 182 990.5 117.5 Q934 53 848 16.5 Q762 -20 646 -20 Q557 -20 478 5 Q399 30 337.5 80 Q276 130 236.5 206 Q197 282 187 383 L363 383 Q380 259 454.5 195 Q529 131 646 131 Q712 131 763 154.5 Q814 178 848.5 221.5 Q883 265 900.5 326 Q918 387 918 462 Q918 530 898.5 589 Q879 648 842 691.5 Q805 735 751 760 Q697 785 627 785 Q581 785 547.5 778.5 Q514 772 487 760 Q460 748 436.5 731 Q413 714 388 692 L240 730 Z " />
<glyph glyph-name="six" unicode="6" horiz-adv-x="1229" d="M856 1457 L856 1291 L840 1291 Q748 1291 675.5 1272 Q603 1253 548 1220 Q493 1187 453.5 1141.5 Q414 1096 388 1042 Q362 988 348 929 Q334 870 330 809 Q356 840 390 866.5 Q424 893 463.5 912.5 Q503 932 548.5 943.5 Q594 955 644 955 Q753 955 832 913.5 Q911 872 962 804 Q1013 736 1037 650 Q1061 564 1061 475 Q1061 373 1032.5 283 Q1004 193 947 125.5 Q890 58 805.5 19 Q721 -20 610 -20 Q531 -20 465.5 3 Q400 26 348 65.5 Q296 105 257 159 Q218 213 192.5 275 Q167 337 154 404 Q141 471 141 538 L141 625 Q141 725 153.5 825.5 Q166 926 196 1018 Q226 1110 277 1190.5 Q328 1271 405.5 1330 Q483 1389 590 1423 Q697 1457 840 1457 L856 1457 Z M614 801 Q567 801 523 786 Q479 771 441 744 Q403 717 374 679 Q345 641 328 595 L328 533 Q328 437 351 362.5 Q374 288 413 237 Q452 186 503 159.5 Q554 133 610 133 Q675 133 725 158 Q775 183 809.5 227 Q844 271 861.5 332.5 Q879 394 879 466 Q879 530 863 590.5 Q847 651 814 698 Q781 745 731 773 Q681 801 614 801 Z " />
<glyph glyph-name="seven" unicode="7" horiz-adv-x="1229" d="M1096 1352 L493 0 L299 0 L900 1294 L112 1294 L112 1456 L1096 1456 L1096 1352 Z " />
<glyph glyph-name="eight" unicode="8" horiz-adv-x="1229" d="M1070 1076 Q1069 967 1011 882 Q953 797 856 749 Q912 725 957.5 689.5 Q1003 654 1035.5 608 Q1068 562 1085.5 508 Q1103 454 1103 393 Q1103 294 1066.5 217 Q1030 140 967.5 87.5 Q905 35 821 7.5 Q737 -20 641 -20 Q543 -20 458.5 7 Q374 34 311.5 86.5 Q249 139 213 216 Q177 293 177 393 Q177 454 194 508.5 Q211 563 243 608.5 Q275 654 320 690 Q365 726 421 750 Q373 774 334 807.5 Q295 841 268 882.5 Q241 924 226 973 Q211 1022 211 1076 Q211 1171 243 1245.5 Q275 1320 331.5 1371 Q388 1422 466.5 1449 Q545 1476 638 1476 Q730 1476 809 1449 Q888 1422 946 1371 Q1004 1320 1037 1245.5 Q1070 1171 1070 1076 Z M918 397 Q918 458 897.5 509 Q877 560 840 596.5 Q803 633 751.5 653 Q700 673 639 673 Q576 673 525 653 Q474 633 438 596.5 Q402 560 382.5 509 Q363 458 363 397 Q363 334 382.5 284.5 Q402 235 438 201 Q474 167 525.5 149 Q577 131 641 131 Q702 131 753 149 Q804 167 840.5 201 Q877 235 897.5 284.5 Q918 334 918 397 Z M884 1073 Q884 1128 865.5 1174 Q847 1220 814.5 1253.5 Q782 1287 737 1305.5 Q692 1324 638 1324 Q584 1324 540 1306.5 Q496 1289 464 1256 Q432 1223 414.5 1176.5 Q397 1130 397 1073 Q397 1016 414.5 970.5 Q432 925 464.5 892.5 Q497 860 541.5 842.5 Q586 825 640 825 Q693 825 738 842.5 Q783 860 815.5 892.5 Q848 925 866 971 Q884 1017 884 1073 Z " />
<glyph glyph-name="nine" unicode="9" horiz-adv-x="1229" d="M373 164 Q472 164 547 181.5 Q622 199 677.5 231 Q733 263 770 306.5 Q807 350 830.5 402.5 Q854 455 865 513.5 Q876 572 879 633 Q855 603 824 576.5 Q793 550 754 530 Q715 510 667.5 498.5 Q620 487 564 487 Q456 487 377.5 529.5 Q299 572 248 641 Q197 710 173 797 Q149 884 149 972 Q149 1075 177.5 1166.5 Q206 1258 262.5 1326.5 Q319 1395 403.5 1435.5 Q488 1476 600 1476 Q684 1476 751.5 1452.5 Q819 1429 870.5 1387.5 Q922 1346 959 1289.5 Q996 1233 1019.5 1167.5 Q1043 1102 1054 1030.5 Q1065 959 1065 887 L1065 820 Q1065 727 1056 629.5 Q1047 532 1020.5 441 Q994 350 946 269.5 Q898 189 821 129 Q744 69 634 34 Q524 -1 373 -1 L354 -1 L354 164 L373 164 Z M594 640 Q641 640 685.5 655.5 Q730 671 767.5 699.5 Q805 728 834.5 766.5 Q864 805 881 852 L881 912 Q881 1009 858.5 1085 Q836 1161 797.5 1213.5 Q759 1266 708.5 1294 Q658 1322 601 1322 Q536 1322 486 1296 Q436 1270 401.5 1224.5 Q367 1179 349 1116.5 Q331 1054 331 982 Q331 918 347 856.5 Q363 795 395.5 747 Q428 699 477.5 669.5 Q527 640 594 640 Z " />
<glyph glyph-name="colon" unicode="&#x3a;" horiz-adv-x="1229" d="M546 120 Q546 150 555.5 176 Q565 202 583 221.5 Q601 241 628 252 Q655 263 691 263 Q727 263 754.5 252 Q782 241 800.5 221.5 Q819 202 828.5 176 Q838 150 838 120 Q838 91 828.5 65.5 Q819 40 800.5 21 Q782 2 754.5 -8.5 Q727 -19 691 -19 Q655 -19 628 -8.5 Q601 2 583 21 Q565 40 555.5 65.5 Q546 91 546 120 Z M546 996 Q546 1026 555.5 1052 Q565 1078 583 1097.5 Q601 1117 628 1128 Q655 1139 691 1139 Q727 1139 754.5 1128 Q782 1117 800.5 1097.5 Q819 1078 828.5 1052 Q838 1026 838 996 Q838 967 828.5 941.5 Q819 916 800.5 897 Q782 878 754.5 867.5 Q727 857 691 857 Q655 857 628 867.5 Q601 878 583 897 Q565 916 555.5 941.5 Q546 967 546 996 Z " />
<glyph glyph-name="semicolon" unicode="&#x3b;" horiz-adv-x="1229" d="M537 996 Q537 1026 546.5 1052 Q556 1078 574 1097.5 Q592 1117 619 1128 Q646 1139 682 1139 Q718 1139 745.5 1128 Q773 1117 791.5 1097.5 Q810 1078 819.5 1052 Q829 1026 829 996 Q829 967 819.5 941.5 Q810 916 791.5 897 Q773 878 745.5 867.5 Q718 857 682 857 Q646 857 619 867.5 Q592 878 574 897 Q556 916 546.5 941.5 Q537 967 537 996 Z M775 43 Q775 -4 763.5 -55.5 Q752 -107 729.5 -157.5 Q707 -208 675 -254 Q643 -300 601 -336 L486 -273 Q534 -203 554 -124 Q574 -45 574 40 L574 219 L775 219 L775 43 Z " />
<glyph glyph-name="less" unicode="&#x3c;" horiz-adv-x="1229" d="M406 663 L353 646 L406 628 L1018 392 L1018 196 L170 575 L170 721 L1018 1099 L1018 903 L406 663 Z " />
<glyph glyph-name="equal" unicode="&#x3d;" horiz-adv-x="1229" d="M1066 780 L173 780 L173 941 L1066 941 L1066 780 Z M1066 365 L173 365 L173 525 L1066 525 L1066 365 Z " />
<glyph glyph-name="greater" unicode="&#x3e;" horiz-adv-x="1229" d="M178 909 L178 1100 L1061 722 L1061 576 L178 197 L178 389 L825 633 L885 650 L825 669 L178 909 Z " />
<glyph glyph-name="question" unicode="&#x3f;" horiz-adv-x="1229" d="M511 410 Q512 482 517 528.5 Q522 575 538 611.5 Q554 648 584 681.5 Q614 715 664 761 Q698 796 733.5 833 Q769 870 798.5 910.5 Q828 951 847 996 Q866 1041 866 1091 Q866 1200 803 1257.5 Q740 1315 623 1315 Q576 1315 531.5 1303.5 Q487 1292 452.5 1267.5 Q418 1243 397 1205.5 Q376 1168 376 1116 L191 1116 Q192 1200 226 1267 Q260 1334 317.5 1380.5 Q375 1427 453.5 1451.5 Q532 1476 623 1476 Q724 1476 803.5 1450.5 Q883 1425 938 1376 Q993 1327 1022 1257 Q1051 1187 1051 1097 Q1051 1025 1026 961.5 Q1001 898 962 841.5 Q923 785 874.5 736 Q826 687 779 645 Q749 616 732.5 590 Q716 564 708 537 Q700 510 698 479.5 Q696 449 696 410 L511 410 Z M490 97 Q490 145 518.5 177 Q547 209 604 209 Q661 209 690.5 177 Q720 145 720 97 Q720 51 690.5 20 Q661 -11 604 -11 Q547 -11 518.5 20 Q490 51 490 97 Z " />
<glyph glyph-name="at" unicode="&#x40;" horiz-adv-x="1229" d="M1159 789 Q1156 709 1140 625.5 Q1124 542 1091.5 474 Q1059 406 1008 363 Q957 320 883 320 Q822 320 781.5 352 Q741 384 724 441 Q689 385 637.5 352.5 Q586 320 524 320 Q475 320 439 346 Q403 372 380.5 419 Q358 466 349.5 531 Q341 596 347 674 Q356 785 384 874.5 Q412 964 456.5 1026.5 Q501 1089 560 1122.5 Q619 1156 690 1156 Q757 1156 801 1129.5 Q845 1103 871 1067 L827 563 Q824 522 829 496.5 Q834 471 843.5 456.5 Q853 442 867 437 Q881 432 897 432 Q934 432 962.5 460.5 Q991 489 1010 537.5 Q1029 586 1039 651 Q1049 716 1050 789 Q1054 916 1029 1017 Q1004 1118 952.5 1188 Q901 1258 826 1295 Q751 1332 655 1332 Q554 1332 470.5 1284.5 Q387 1237 326 1152 Q265 1067 230 949 Q195 831 191 691 Q186 555 210 449 Q234 343 287 269.5 Q340 196 422.5 157.5 Q505 119 617 119 Q647 119 678 123.5 Q709 128 739 136.5 Q769 145 796 157 Q823 169 845 184 L877 67 Q852 48 820 34 Q788 20 753 10.5 Q718 1 682 -3.5 Q646 -8 614 -8 Q467 -8 361.5 43.5 Q256 95 189.5 188 Q123 281 93.5 409.5 Q64 538 69 691 Q73 794 94 891.5 Q115 989 151.5 1074 Q188 1159 239.5 1229.5 Q291 1300 355 1351 Q419 1402 495.5 1430 Q572 1458 658 1458 Q780 1458 875 1410.5 Q970 1363 1034.5 1275 Q1099 1187 1131 1063.5 Q1163 940 1159 789 Z M470 674 Q465 572 487 515 Q509 458 557 458 Q606 458 646 485 Q686 512 716 575 L755 1020 Q727 1033 697 1033 Q644 1033 604.5 1007.5 Q565 982 538 935.5 Q511 889 494.5 822.5 Q478 756 470 674 Z " />
<glyph glyph-name="A" unicode="A" horiz-adv-x="1229" d="M869 377 L383 377 L266 0 L81 0 L551 1456 L706 1456 L1168 0 L984 0 L869 377 Z M433 538 L820 538 L628 1170 L433 538 Z " />
<glyph glyph-name="B" unicode="B" horiz-adv-x="1229" d="M172 0 L172 1456 L605 1456 Q695 1455 781 1432.5 Q867 1410 934 1363 Q1001 1316 1041 1243 Q1081 1170 1080 1068 Q1079 1011 1061.5 964 Q1044 917 1013.5 879.5 Q983 842 942 814 Q901 786 855 766 Q913 749 961.5 717.5 Q1010 686 1045 641.5 Q1080 597 1099.5 541 Q1119 485 1119 420 Q1120 318 1080 240 Q1040 162 973 109.5 Q906 57 818.5 29 Q731 1 638 0 L172 0 Z M358 681 L358 157 L643 157 Q701 158 753 176.5 Q805 195 845 228 Q885 261 908.5 309 Q932 357 932 418 Q933 480 911.5 528 Q890 576 852 609.5 Q814 643 763 661 Q712 679 653 681 L358 681 Z M358 835 L616 835 Q668 836 718 851.5 Q768 867 807 896.5 Q846 926 870 969 Q894 1012 894 1069 Q894 1130 870.5 1173 Q847 1216 807.5 1243.5 Q768 1271 716.5 1284 Q665 1297 611 1298 L358 1298 L358 835 Z " />
<glyph glyph-name="C" unicode="C" horiz-adv-x="1229" d="M1117 438 Q1104 337 1065 252.5 Q1026 168 963.5 107.5 Q901 47 815.5 13.5 Q730 -20 625 -20 Q535 -20 461.5 5.5 Q388 31 330.5 76 Q273 121 231.5 182 Q190 243 162.5 315 Q135 387 121.5 466 Q108 545 107 626 L107 829 Q108 910 121.5 989 Q135 1068 162.5 1140 Q190 1212 231.5 1273.5 Q273 1335 330.5 1380 Q388 1425 461 1450.5 Q534 1476 625 1476 Q734 1476 820 1442.5 Q906 1409 968 1347.5 Q1030 1286 1067.5 1200 Q1105 1114 1117 1010 L932 1010 Q923 1076 901 1133 Q879 1190 842 1233 Q805 1276 751.5 1300.5 Q698 1325 625 1325 Q559 1325 508.5 1303.5 Q458 1282 421.5 1245 Q385 1208 360.5 1159 Q336 1110 321 1055 Q306 1000 299.5 942.5 Q293 885 293 831 L293 626 Q293 572 299.5 514.5 Q306 457 321 401.5 Q336 346 360 297 Q384 248 421 210.5 Q458 173 508 151.5 Q558 130 625 130 Q698 130 751.5 153 Q805 176 842 217.5 Q879 259 901 315.5 Q923 372 932 438 L1117 438 Z " />
<glyph glyph-name="D" unicode="D" horiz-adv-x="1229" d="M155 0 L155 1456 L492 1456 Q644 1454 763.5 1404.5 Q883 1355 965.5 1266.5 Q1048 1178 1091.5 1054.5 Q1135 931 1136 781 L1136 674 Q1135 524 1091.5 400.5 Q1048 277 965.5 188.5 Q883 100 763.5 50.5 Q644 1 492 0 L155 0 Z M343 1304 L343 151 L492 151 Q610 152 696 192.5 Q782 233 838.5 303 Q895 373 922.5 468 Q950 563 951 674 L951 783 Q950 894 922 988.5 Q894 1083 838 1152.5 Q782 1222 696 1262 Q610 1302 492 1304 L343 1304 Z " />
<glyph glyph-name="E" unicode="E" horiz-adv-x="1229" d="M975 673 L367 673 L367 157 L1076 157 L1076 0 L182 0 L182 1456 L1067 1456 L1067 1298 L367 1298 L367 830 L975 830 L975 673 Z " />
<glyph glyph-name="F" unicode="F" horiz-adv-x="1229" d="M984 643 L378 643 L378 0 L191 0 L191 1456 L1085 1456 L1085 1298 L378 1298 L378 800 L984 800 L984 643 Z " />
<glyph glyph-name="G" unicode="G" horiz-adv-x="1229" d="M1116 191 Q1024 83 905 31 Q786 -21 644 -20 Q554 -19 478.5 7.5 Q403 34 343 80.5 Q283 127 238 190 Q193 253 162.5 326.5 Q132 400 116.5 480.5 Q101 561 100 643 L100 812 Q101 893 114.5 973.5 Q128 1054 156 1128 Q184 1202 226 1265.5 Q268 1329 326.5 1375.5 Q385 1422 459 1449 Q533 1476 625 1476 Q727 1476 813 1444.5 Q899 1413 963 1354.5 Q1027 1296 1066 1213.5 Q1105 1131 1114 1029 L931 1029 Q920 1092 897 1145.5 Q874 1199 836.5 1237 Q799 1275 747 1296.5 Q695 1318 626 1318 Q560 1318 509 1295.5 Q458 1273 420 1235 Q382 1197 357 1146.5 Q332 1096 316 1040 Q300 984 293 926 Q286 868 286 814 L286 643 Q287 588 295.5 529.5 Q304 471 322 415 Q340 359 368 309 Q396 259 435.5 221 Q475 183 527 160.5 Q579 138 645 137 Q683 136 724.5 140 Q766 144 805 156 Q844 168 878 188.5 Q912 209 935 242 L937 569 L641 569 L641 725 L1113 725 L1116 191 Z " />
<glyph glyph-name="H" unicode="H" horiz-adv-x="1229" d="M1087 0 L912 0 L912 673 L315 673 L315 0 L141 0 L141 1456 L315 1456 L315 830 L912 830 L912 1456 L1087 1456 L1087 0 Z " />
<glyph glyph-name="I" unicode="I" horiz-adv-x="1229" d="M174 1456 L1054 1456 L1054 1295 L705 1295 L705 160 L1054 160 L1054 0 L174 0 L174 160 L515 160 L515 1295 L174 1295 L174 1456 Z " />
<glyph glyph-name="J" unicode="J" horiz-adv-x="1229" d="M857 1456 L1046 1456 L1046 443 Q1044 342 1007.5 257 Q971 172 908 110.5 Q845 49 759.5 14.5 Q674 -20 573 -20 Q471 -20 387.5 11 Q304 42 242.5 99.5 Q181 157 144 238.5 Q107 320 98 421 L286 421 Q289 360 310.5 308 Q332 256 369 217.5 Q406 179 457.5 158 Q509 137 573 137 Q639 137 691 161.5 Q743 186 779.5 228 Q816 270 835.5 325.5 Q855 381 857 443 L857 1456 Z " />
<glyph glyph-name="K" unicode="K" horiz-adv-x="1229" d="M523 676 L361 492 L361 0 L172 0 L172 1456 L361 1456 L361 745 L502 921 L929 1456 L1154 1456 L645 819 L1188 0 L963 0 L523 676 Z " />
<glyph glyph-name="L" unicode="L" horiz-adv-x="1229" d="M383 157 L1095 157 L1095 0 L198 0 L198 1456 L383 1456 L383 157 Z " />
<glyph glyph-name="M" unicode="M" horiz-adv-x="1229" d="M377 1456 L614 728 L870 1456 L1100 1456 L1100 0 L920 0 L920 581 L935 1189 L666 405 L560 405 L313 1168 L328 581 L328 0 L148 0 L148 1456 L377 1456 Z " />
<glyph glyph-name="N" unicode="N" horiz-adv-x="1229" d="M1086 0 L898 0 L333 1088 L330 0 L143 0 L143 1456 L331 1456 L896 370 L899 1456 L1086 1456 L1086 0 Z " />
<glyph glyph-name="O" unicode="O" horiz-adv-x="1229" d="M1121 644 Q1120 566 1107.5 486.5 Q1095 407 1069 333 Q1043 259 1002.5 195 Q962 131 906 83 Q850 35 777.5 7.5 Q705 -20 615 -20 Q525 -20 452.5 7.5 Q380 35 324 83 Q268 131 227 195.5 Q186 260 159.5 334 Q133 408 120 487 Q107 566 106 644 L106 810 Q107 888 119.5 967.5 Q132 1047 158.5 1121 Q185 1195 225.5 1259.5 Q266 1324 322 1372.5 Q378 1421 450.5 1448.5 Q523 1476 613 1476 Q703 1476 776 1448.5 Q849 1421 905 1373 Q961 1325 1001.5 1260.5 Q1042 1196 1068.5 1122 Q1095 1048 1107.5 968 Q1120 888 1121 810 L1121 644 Z M938 812 Q937 864 931 920.5 Q925 977 910.5 1032.5 Q896 1088 872 1138.5 Q848 1189 812 1227.5 Q776 1266 727 1288.5 Q678 1311 613 1311 Q549 1311 500 1288 Q451 1265 415 1226.5 Q379 1188 355 1137.5 Q331 1087 316.5 1031.5 Q302 976 295.5 919.5 Q289 863 288 812 L288 644 Q289 593 295.5 536 Q302 479 317 423.5 Q332 368 356 317 Q380 266 416 227.5 Q452 189 501 166 Q550 143 615 143 Q680 143 729.5 166 Q779 189 814.5 227.5 Q850 266 873.5 316.5 Q897 367 911.5 422.5 Q926 478 931.5 535 Q937 592 938 644 L938 812 Z " />
<glyph glyph-name="P" unicode="P" horiz-adv-x="1229" d="M376 584 L376 0 L191 0 L191 1456 L663 1456 Q761 1454 848.5 1425 Q936 1396 1002 1341 Q1068 1286 1106.5 1205 Q1145 1124 1145 1019 Q1145 914 1106.5 833.5 Q1068 753 1002 698 Q936 643 848.5 614 Q761 585 663 584 L376 584 Z M376 736 L663 736 Q727 737 781 756.5 Q835 776 875 812 Q915 848 937.5 899.5 Q960 951 960 1017 Q960 1083 937.5 1136 Q915 1189 875.5 1226 Q836 1263 781.5 1283 Q727 1303 663 1304 L376 1304 L376 736 Z " />
<glyph glyph-name="Q" unicode="Q" horiz-adv-x="1229" d="M1134 663 Q1133 582 1120 500 Q1107 418 1080.5 342 Q1054 266 1012.5 199.5 Q971 133 913 84 L1164 -125 L1037 -246 L749 -2 Q687 -20 615 -20 Q522 -20 448 8.5 Q374 37 316.5 86 Q259 135 217 201.5 Q175 268 148 344 Q121 420 108 501.5 Q95 583 94 663 L94 791 Q95 871 108 953 Q121 1035 148 1111 Q175 1187 216 1253.5 Q257 1320 314.5 1369.5 Q372 1419 446.5 1447.5 Q521 1476 614 1476 Q707 1476 781.5 1447.5 Q856 1419 913.5 1370 Q971 1321 1012.5 1254.5 Q1054 1188 1080.5 1112 Q1107 1036 1120 953.5 Q1133 871 1134 791 L1134 663 Z M950 793 Q949 848 943.5 907.5 Q938 967 923.5 1024.5 Q909 1082 884.5 1134 Q860 1186 823 1225.5 Q786 1265 734.5 1288 Q683 1311 614 1311 Q546 1311 495 1287.5 Q444 1264 407 1224.5 Q370 1185 345.5 1133 Q321 1081 306 1023.5 Q291 966 284.5 906.5 Q278 847 278 793 L278 663 Q278 609 284.5 549.5 Q291 490 306 432 Q321 374 345.5 322 Q370 270 407 230 Q444 190 495.5 166.5 Q547 143 615 143 Q684 143 735.5 166.5 Q787 190 824 229.5 Q861 269 885 321 Q909 373 923.5 431 Q938 489 943.5 548.5 Q949 608 950 663 L950 793 Z " />
<glyph glyph-name="R" unicode="R" horiz-adv-x="1229" d="M656 594 L365 594 L365 0 L181 0 L181 1456 L608 1456 Q710 1454 800 1427 Q890 1400 957.5 1346 Q1025 1292 1063.5 1210.5 Q1102 1129 1102 1019 Q1102 948 1081.5 889 Q1061 830 1025 782 Q989 734 939 697 Q889 660 829 634 L1138 12 L1137 0 L942 0 L656 594 Z M365 746 L613 746 Q675 747 730 765.5 Q785 784 826.5 819 Q868 854 892 904.5 Q916 955 916 1021 Q916 1091 893 1143.5 Q870 1196 829 1231.5 Q788 1267 731.5 1285 Q675 1303 608 1304 L365 1304 L365 746 Z " />
<glyph glyph-name="S" unicode="S" horiz-adv-x="1229" d="M936 368 Q936 435 905.5 481 Q875 527 827 558.5 Q779 590 721.5 611 Q664 632 611 649 Q534 674 454.5 709 Q375 744 309.5 795 Q244 846 202.5 915.5 Q161 985 161 1079 Q161 1173 202.5 1247 Q244 1321 311 1372 Q378 1423 463 1449.5 Q548 1476 634 1476 Q729 1476 817 1444.5 Q905 1413 973 1356 Q1041 1299 1082 1218 Q1123 1137 1125 1037 L935 1037 Q927 1100 904 1151.5 Q881 1203 843 1240 Q805 1277 752.5 1297.5 Q700 1318 634 1318 Q581 1318 530.5 1303 Q480 1288 440.5 1258 Q401 1228 377.5 1184 Q354 1140 354 1082 Q355 1019 386 975.5 Q417 932 464.5 902 Q512 872 567.5 852 Q623 832 672 817 Q726 800 781 778.5 Q836 757 887 729 Q938 701 982 666 Q1026 631 1059 586.5 Q1092 542 1110.5 488.5 Q1129 435 1129 370 Q1129 272 1085.5 199 Q1042 126 973 77.5 Q904 29 817 4.5 Q730 -20 643 -20 Q546 -20 453 10 Q360 40 286.5 96.5 Q213 153 167 234.5 Q121 316 118 420 L307 420 Q316 352 344 299.5 Q372 247 416 210.5 Q460 174 517.5 155.5 Q575 137 643 137 Q697 137 749.5 150.5 Q802 164 843 192.5 Q884 221 910 264.5 Q936 308 936 368 Z " />
<glyph glyph-name="T" unicode="T" horiz-adv-x="1229" d="M1156 1298 L706 1298 L706 0 L526 0 L526 1298 L76 1298 L76 1456 L1156 1456 L1156 1298 Z " />
<glyph glyph-name="U" unicode="U" horiz-adv-x="1229" d="M1088 1456 L1090 470 Q1088 368 1053 279 Q1018 190 955 123.5 Q892 57 805 18.5 Q718 -20 614 -20 Q508 -20 421 18 Q334 56 272 122.5 Q210 189 175 278.5 Q140 368 139 470 L141 1456 L317 1456 L321 470 Q322 405 341.5 345 Q361 285 397.5 239 Q434 193 488.5 165 Q543 137 614 137 Q685 137 739 164.5 Q793 192 829.5 238.5 Q866 285 885 345 Q904 405 906 470 L909 1456 L1088 1456 Z " />
<glyph glyph-name="V" unicode="V" horiz-adv-x="1229" d="M610 298 L954 1456 L1151 1456 L692 0 L531 0 L71 1456 L269 1456 L610 298 Z " />
<glyph glyph-name="W" unicode="W" horiz-adv-x="1229" d="M896 394 L1007 1456 L1182 1456 L1005 0 L816 0 L629 1097 L440 0 L250 0 L73 1456 L249 1456 L360 394 L547 1456 L708 1456 L896 394 Z " />
<glyph glyph-name="X" unicode="X" horiz-adv-x="1229" d="M625 885 L939 1456 L1157 1456 L734 734 L1167 0 L951 0 L629 582 L306 0 L87 0 L521 734 L98 1456 L315 1456 L625 885 Z " />
<glyph glyph-name="Y" unicode="Y" horiz-adv-x="1229" d="M603 725 L935 1456 L1145 1456 L692 543 L689 0 L517 0 L514 543 L61 1456 L272 1456 L603 725 Z " />
<glyph glyph-name="Z" unicode="Z" horiz-adv-x="1229" d="M325 157 L1079 157 L1079 0 L116 0 L114 144 L839 1298 L127 1298 L127 1456 L1050 1456 L1052 1315 L325 157 Z " />
<glyph glyph-name="bracketleft" unicode="&#x5b;" horiz-adv-x="1229" d="M822 1512 L601 1512 L601 -160 L822 -160 L822 -312 L426 -312 L426 1664 L822 1664 L822 1512 Z " />
<glyph glyph-name="backslash" unicode="&#x5c;" horiz-adv-x="1229" d="M231 1456 L398 1456 L1006 -125 L839 -125 L231 1456 Z " />
<glyph glyph-name="bracketright" unicode="&#x5d;" horiz-adv-x="1229" d="M405 1664 L802 1664 L802 -312 L405 -312 L405 -160 L627 -160 L627 1512 L405 1512 L405 1664 Z " />
<glyph glyph-name="asciicircum" unicode="&#x5e;" horiz-adv-x="1229" d="M403 677 L231 677 L551 1456 L678 1456 L997 677 L826 677 L628 1163 L613 1231 L598 1163 L403 677 Z " />
<glyph glyph-name="underscore" unicode="&#x5f;" horiz-adv-x="1229" d="M1072 -151 L155 -151 L155 0 L1072 0 L1072 -151 Z " />
<glyph glyph-name="grave" unicode="&#x60;" horiz-adv-x="1229" d="M813 1215 L663 1215 L415 1481 L638 1481 L813 1215 Z " />
<glyph glyph-name="a" unicode="a" horiz-adv-x="1229" d="M885 0 Q874 21 867.5 52.5 Q861 84 858 118 Q830 90 795.5 65 Q761 40 719.5 21 Q678 2 631 -9 Q584 -20 531 -20 Q445 -20 375.5 5 Q306 30 257.5 72.5 Q209 115 182.5 173.5 Q156 232 156 300 Q156 389 191.5 456 Q227 523 292 567.5 Q357 612 448.5 634 Q540 656 653 656 L855 656 L855 741 Q855 790 837 829 Q819 868 786 895.5 Q753 923 705.5 938 Q658 953 599 953 Q544 953 500.5 939 Q457 925 427 902 Q397 879 380.5 847.5 Q364 816 364 782 L178 782 Q179 841 208.5 898 Q238 955 293.5 1000.5 Q349 1046 428.5 1074 Q508 1102 609 1102 Q701 1102 780 1079.5 Q859 1057 916.5 1011.5 Q974 966 1007 898 Q1040 830 1040 739 L1040 236 Q1040 182 1050 121.5 Q1060 61 1078 16 L1078 0 L885 0 Z M558 141 Q612 141 659 155 Q706 169 744.5 192 Q783 215 811 244.5 Q839 274 855 306 L855 525 L683 525 Q521 525 431 477 Q341 429 341 326 Q341 286 354.5 252 Q368 218 395 193.5 Q422 169 463 155 Q504 141 558 141 Z " />
<glyph glyph-name="b" unicode="b" horiz-adv-x="1229" d="M1091 529 Q1091 413 1063 312.5 Q1035 212 981 138 Q927 64 847.5 22 Q768 -20 665 -20 Q561 -20 484.5 17 Q408 54 354 123 L345 0 L175 0 L175 1536 L360 1536 L360 966 Q413 1032 488 1067 Q563 1102 663 1102 Q767 1102 847 1061 Q927 1020 981 947 Q1035 874 1063 772.5 Q1091 671 1091 550 L1091 529 Z M906 550 Q906 629 890.5 700.5 Q875 772 841 826.5 Q807 881 752 913 Q697 945 617 945 Q569 945 529 932.5 Q489 920 457.5 897.5 Q426 875 401.5 844.5 Q377 814 360 778 L360 305 Q378 269 402.5 238.5 Q427 208 459 185 Q491 162 531 149.5 Q571 137 619 137 Q695 137 749.5 168.5 Q804 200 838.5 254 Q873 308 889.5 379 Q906 450 906 529 L906 550 Z " />
<glyph glyph-name="c" unicode="c" horiz-adv-x="1229" d="M635 130 Q685 130 732.5 146 Q780 162 817 190.5 Q854 219 876.5 257.5 Q899 296 900 341 L1075 341 Q1074 269 1037.5 203.5 Q1001 138 940 88.5 Q879 39 800 9.5 Q721 -20 635 -20 Q512 -20 420 24 Q328 68 266.5 142.5 Q205 217 174 314.5 Q143 412 143 520 L143 562 Q143 669 174 767 Q205 865 266.5 939.5 Q328 1014 420 1058 Q512 1102 635 1102 Q731 1102 811.5 1071.5 Q892 1041 950.5 988.5 Q1009 936 1042 864 Q1075 792 1075 710 L900 710 Q899 759 878.5 802.5 Q858 846 823 879 Q788 912 739.5 931 Q691 950 635 950 Q549 950 490.5 915.5 Q432 881 396 825.5 Q360 770 344.5 701 Q329 632 329 562 L329 520 Q329 449 344.5 379.5 Q360 310 395.5 254.5 Q431 199 489.5 164.5 Q548 130 635 130 Z " />
<glyph glyph-name="d" unicode="d" horiz-adv-x="1229" d="M139 550 Q139 671 169.5 772.5 Q200 874 256.5 947 Q313 1020 393 1061 Q473 1102 572 1102 Q669 1102 741.5 1069.5 Q814 1037 867 975 L867 1536 L1052 1536 L1052 0 L882 0 L874 114 Q820 48 745 14 Q670 -20 570 -20 Q472 -20 392.5 22 Q313 64 257 138 Q201 212 170 312.5 Q139 413 139 529 L139 550 Z M324 529 Q324 450 341 379 Q358 308 393.5 254 Q429 200 484 168.5 Q539 137 616 137 Q663 137 701 148 Q739 159 770 179.5 Q801 200 825 228.5 Q849 257 867 292 L867 794 Q831 860 770 902.5 Q709 945 618 945 Q540 945 484.5 913 Q429 881 393.5 826.5 Q358 772 341 700.5 Q324 629 324 550 L324 529 Z " />
<glyph glyph-name="e" unicode="e" horiz-adv-x="1229" d="M652 -20 Q538 -20 442.5 19 Q347 58 279 128 Q211 198 173 294 Q135 390 135 503 L135 545 Q135 676 177 779.5 Q219 883 288.5 954.5 Q358 1026 446.5 1064 Q535 1102 628 1102 Q745 1102 832.5 1061.5 Q920 1021 978 949.5 Q1036 878 1064.5 781 Q1093 684 1093 571 L1093 488 L320 488 Q323 414 348.5 349 Q374 284 418.5 235.5 Q463 187 525 159 Q587 131 662 131 Q761 131 838 171 Q915 211 966 277 L1079 189 Q1052 148 1011.5 110.5 Q971 73 918 44 Q865 15 798 -2.5 Q731 -20 652 -20 Z M628 950 Q572 950 522 929.5 Q472 909 432 869.5 Q392 830 364.5 772.5 Q337 715 326 640 L908 640 L908 654 Q905 708 887.5 761 Q870 814 836 856 Q802 898 750.5 924 Q699 950 628 950 Z " />
<glyph glyph-name="f" unicode="f" horiz-adv-x="1230" d="M450 0 L450 939 L152 939 L152 1082 L450 1082 L450 1158 Q450 1262 480.5 1340.5 Q511 1419 566.5 1472 Q622 1525 700 1552 Q778 1579 874 1579 Q940 1579 1002.5 1568 Q1065 1557 1131 1540 L1109 1387 Q1068 1401 1013.5 1411.5 Q959 1422 897 1422 Q767 1421 701.5 1356 Q636 1291 636 1158 L636 1082 L1053 1082 L1053 939 L636 939 L636 0 L450 0 Z " />
<glyph glyph-name="g" unicode="g" horiz-adv-x="1229" d="M140 550 Q140 671 169.5 772.5 Q199 874 255 947 Q311 1020 391 1061 Q471 1102 572 1102 Q672 1102 747.5 1066.5 Q823 1031 876 964 L885 1082 L1053 1082 L1053 23 Q1053 -84 1019.5 -167 Q986 -250 925.5 -308 Q865 -366 781 -396 Q697 -426 595 -426 Q553 -426 499 -416.5 Q445 -407 389.5 -385.5 Q334 -364 282.5 -328 Q231 -292 194 -239 L290 -128 Q324 -169 360 -197.5 Q396 -226 433 -243 Q470 -260 507 -267.5 Q544 -275 581 -275 Q647 -275 700 -256 Q753 -237 790.5 -200.5 Q828 -164 848 -110 Q868 -56 868 14 L868 107 Q814 45 740.5 12.5 Q667 -20 570 -20 Q471 -20 391 22 Q311 64 255.5 138 Q200 212 170 312.5 Q140 413 140 529 L140 550 Z M325 529 Q325 450 341.5 379 Q358 308 393.5 254 Q429 200 484 168.5 Q539 137 616 137 Q664 137 702.5 148.5 Q741 160 771.5 181 Q802 202 826 231 Q850 260 868 295 L868 791 Q850 825 826 853 Q802 881 771 901.5 Q740 922 702 933.5 Q664 945 618 945 Q540 945 484.5 913 Q429 881 393.5 826.5 Q358 772 341.5 700.5 Q325 629 325 550 L325 529 Z " />
<glyph glyph-name="h" unicode="h" horiz-adv-x="1229" d="M359 921 Q417 1006 502 1053.5 Q587 1101 693 1102 Q778 1102 847.5 1077.5 Q917 1053 966 1001 Q1015 949 1041.5 869.5 Q1068 790 1068 681 L1068 0 L883 0 L883 683 Q883 816 819.5 881 Q756 946 638 945 Q549 945 476.5 901.5 Q404 858 359 786 L359 0 L174 0 L174 1536 L359 1536 L359 921 Z " />
<glyph glyph-name="i" unicode="i" horiz-adv-x="1229" d="M203 1082 L756 1082 L756 160 L1109 160 L1109 0 L203 0 L203 160 L571 160 L571 921 L203 921 L203 1082 Z M547 1366 Q547 1412 574.5 1443.5 Q602 1475 658 1475 Q713 1475 741 1443.5 Q769 1412 769 1366 Q769 1321 741 1291 Q713 1261 658 1261 Q602 1261 574.5 1291 Q547 1321 547 1366 Z " />
<glyph glyph-name="j" unicode="j" horiz-adv-x="1229" d="M299 1082 L845 1082 L845 -7 Q845 -111 816.5 -191 Q788 -271 733.5 -325.5 Q679 -380 600.5 -408.5 Q522 -437 422 -437 Q365 -437 315.5 -433.5 Q266 -430 211 -420 L224 -268 Q241 -271 267 -273.5 Q293 -276 319.5 -277.5 Q346 -279 370.5 -279.5 Q395 -280 409 -280 Q461 -280 507 -266.5 Q553 -253 587 -221 Q621 -189 640.5 -136.5 Q660 -84 660 -7 L660 921 L299 921 L299 1082 Z M634 1367 Q634 1412 661 1443.5 Q688 1475 744 1475 Q800 1475 828 1443.5 Q856 1412 856 1367 Q856 1322 828 1291.5 Q800 1261 744 1261 Q688 1261 661 1291.5 Q634 1322 634 1367 Z " />
<glyph glyph-name="k" unicode="k" horiz-adv-x="1229" d="M498 505 L362 374 L362 0 L176 0 L176 1536 L362 1536 L362 596 L483 726 L838 1082 L1063 1082 L625 631 L1130 0 L895 0 L498 505 Z " />
<glyph glyph-name="l" unicode="l" horiz-adv-x="1229" d="M203 1536 L756 1536 L756 160 L1109 160 L1109 0 L203 0 L203 160 L571 160 L571 1375 L203 1375 L203 1536 Z " />
<glyph glyph-name="m" unicode="m" horiz-adv-x="1229" d="M259 1082 L264 980 Q297 1037 350.5 1069 Q404 1101 480 1102 Q629 1102 679 986 Q711 1038 763.5 1069.5 Q816 1101 891 1102 Q1010 1102 1074 1029 Q1138 956 1138 808 L1138 0 L962 0 L962 810 Q962 946 837 945 Q804 945 780 936 Q756 927 740 911.5 Q724 896 715 875.5 Q706 855 703 833 L703 0 L527 0 L527 811 Q527 876 498 911 Q469 946 406 945 Q348 945 316 922 Q284 899 269 861 L269 0 L93 0 L93 1082 L259 1082 Z " />
<glyph glyph-name="n" unicode="n" horiz-adv-x="1229" d="M340 1082 L353 922 Q412 1006 498 1053.5 Q584 1101 690 1102 Q775 1102 844.5 1078 Q914 1054 963 1003 Q1012 952 1038.5 873.5 Q1065 795 1065 687 L1065 0 L880 0 L880 683 Q880 755 864 805 Q848 855 816.5 886 Q785 917 739.5 931 Q694 945 635 945 Q542 945 471.5 898.5 Q401 852 359 776 L359 0 L174 0 L174 1082 L340 1082 Z " />
<glyph glyph-name="o" unicode="o" horiz-adv-x="1229" d="M122 551 Q122 668 156 768.5 Q190 869 253.5 943 Q317 1017 408 1059.5 Q499 1102 613 1102 Q728 1102 819.5 1059.5 Q911 1017 974.5 943 Q1038 869 1072 768.5 Q1106 668 1106 551 L1106 529 Q1106 412 1072 312 Q1038 212 974.5 138 Q911 64 820 22 Q729 -20 615 -20 Q500 -20 408.5 22 Q317 64 253.5 138 Q190 212 156 312 Q122 412 122 529 L122 551 Z M307 529 Q307 449 326 376.5 Q345 304 383.5 249 Q422 194 480 162 Q538 130 615 130 Q691 130 748.5 162 Q806 194 844.5 249 Q883 304 902 376.5 Q921 449 921 529 L921 551 Q921 630 901.5 702.5 Q882 775 843.5 830 Q805 885 747.5 917.5 Q690 950 613 950 Q536 950 479 917.5 Q422 885 383.5 830 Q345 775 326 702.5 Q307 630 307 551 L307 529 Z " />
<glyph glyph-name="p" unicode="p" horiz-adv-x="1229" d="M1087 529 Q1087 413 1059 312.5 Q1031 212 977 138 Q923 64 843.5 22 Q764 -20 662 -20 Q563 -20 487.5 12 Q412 44 358 104 L358 -416 L173 -416 L173 1082 L342 1082 L351 964 Q405 1031 481.5 1066.5 Q558 1102 659 1102 Q763 1102 843 1061 Q923 1020 977 947 Q1031 874 1059 772.5 Q1087 671 1087 550 L1087 529 Z M902 550 Q902 629 884.5 700.5 Q867 772 830.5 826.5 Q794 881 738 913 Q682 945 604 945 Q515 945 454.5 903.5 Q394 862 358 797 L358 276 Q394 212 454 171.5 Q514 131 606 131 Q683 131 739 163.5 Q795 196 831 251 Q867 306 884.5 378 Q902 450 902 529 L902 550 Z " />
<glyph glyph-name="q" unicode="q" horiz-adv-x="1229" d="M140 550 Q140 671 169 772.5 Q198 874 254 947 Q310 1020 391.5 1061 Q473 1102 577 1102 Q673 1102 746.5 1069.5 Q820 1037 874 975 L882 1082 L1052 1082 L1052 -416 L867 -416 L867 98 Q813 41 741 10.5 Q669 -20 575 -20 Q472 -20 391.5 22 Q311 64 255 138 Q199 212 169.5 312.5 Q140 413 140 529 L140 550 Z M325 529 Q325 450 342.5 378 Q360 306 396 251 Q432 196 487.5 163.5 Q543 131 620 131 Q709 131 769 171 Q829 211 867 275 L867 809 Q848 840 823.5 865.5 Q799 891 768.5 910 Q738 929 701.5 939.5 Q665 950 622 950 Q545 950 489 917 Q433 884 396.5 828.5 Q360 773 342.5 701 Q325 629 325 550 L325 529 Z " />
<glyph glyph-name="r" unicode="r" horiz-adv-x="1229" d="M883 1102 Q909 1102 937 1100.5 Q965 1099 990.5 1095.5 Q1016 1092 1037.5 1087 Q1059 1082 1073 1076 L1048 895 Q994 907 945.5 912.5 Q897 918 844 918 Q714 918 633.5 859 Q553 800 515 694 L515 0 L329 0 L329 1082 L505 1082 L514 910 Q580 999 672.5 1050.5 Q765 1102 883 1102 Z " />
<glyph glyph-name="s" unicode="s" horiz-adv-x="1229" d="M893 287 Q893 320 880 346.5 Q867 373 836 395 Q805 417 754 435.5 Q703 454 627 469 Q534 488 457.5 515 Q381 542 326.5 579.5 Q272 617 242 667.5 Q212 718 212 785 Q212 851 243 908.5 Q274 966 330 1009 Q386 1052 463.5 1077 Q541 1102 634 1102 Q734 1102 814 1076 Q894 1050 950 1004 Q1006 958 1036.5 896.5 Q1067 835 1067 764 L882 764 Q882 799 864 832.5 Q846 866 814 892 Q782 918 736.5 934 Q691 950 634 950 Q575 950 530.5 937 Q486 924 456.5 902 Q427 880 412 851 Q397 822 397 791 Q397 759 409 734 Q421 709 450.5 689 Q480 669 529.5 653 Q579 637 655 622 Q755 601 834 573.5 Q913 546 967 507.5 Q1021 469 1049.5 418 Q1078 367 1078 300 Q1078 228 1045.5 169 Q1013 110 955 68 Q897 26 816 3 Q735 -20 639 -20 Q529 -20 443 9.5 Q357 39 297.5 87.5 Q238 136 206.5 200 Q175 264 175 333 L360 333 Q364 276 390.5 237 Q417 198 456.5 174 Q496 150 544 140 Q592 130 639 130 Q756 130 824 173 Q892 216 893 287 Z " />
<glyph glyph-name="t" unicode="t" horiz-adv-x="1229" d="M612 1344 L612 1082 L1024 1082 L1024 939 L612 939 L612 351 Q612 288 628 247 Q644 206 672 181.5 Q700 157 736.5 147 Q773 137 814 137 Q844 137 876 140.5 Q908 144 938.5 149 Q969 154 995.5 159.5 Q1022 165 1039 169 L1065 38 Q1042 24 1009 13.5 Q976 3 937 -4.5 Q898 -12 854.5 -16 Q811 -20 768 -20 Q696 -20 633.5 0.5 Q571 21 525 65.5 Q479 110 452.5 180.5 Q426 251 426 351 L426 939 L142 939 L142 1082 L426 1082 L426 1344 L612 1344 Z " />
<glyph glyph-name="u" unicode="u" horiz-adv-x="1229" d="M876 149 Q822 69 741 24.5 Q660 -20 554 -20 Q469 -20 400 6.5 Q331 33 282 89 Q233 145 206.5 231.5 Q180 318 180 439 L180 1082 L365 1082 L365 437 Q365 349 379 291 Q393 233 421 198.5 Q449 164 489.5 150 Q530 136 583 136 Q696 136 765.5 182 Q835 228 869 306 L869 1082 L1055 1082 L1055 0 L887 0 L876 149 Z " />
<glyph glyph-name="v" unicode="v" horiz-adv-x="1229" d="M598 266 L615 199 L633 266 L936 1082 L1125 1082 L684 0 L543 0 L98 1082 L288 1082 L598 266 Z " />
<glyph glyph-name="w" unicode="w" horiz-adv-x="1229" d="M338 392 L360 237 L387 392 L560 1082 L679 1082 L851 392 L880 222 L907 392 L1027 1082 L1191 1082 L961 0 L815 0 L646 663 L618 831 L591 663 L424 0 L278 0 L48 1082 L212 1082 L338 392 Z " />
<glyph glyph-name="x" unicode="x" horiz-adv-x="1229" d="M621 681 L910 1082 L1127 1082 L724 547 L1138 0 L924 0 L625 412 L326 0 L110 0 L524 547 L121 1082 L335 1082 L621 681 Z " />
<glyph glyph-name="y" unicode="y" horiz-adv-x="1229" d="M572 384 L620 253 L950 1082 L1157 1082 L608 -167 Q589 -209 559.5 -256 Q530 -303 488 -343 Q446 -383 390 -410 Q334 -437 261 -437 Q248 -437 232 -435.5 Q216 -434 200 -431.5 Q184 -429 170 -426 Q156 -423 147 -421 L177 -270 Q184 -270 196 -271 Q208 -272 221 -273 Q234 -274 246 -274.5 Q258 -275 265 -275 Q303 -275 334.5 -254 Q366 -233 390.5 -204 Q415 -175 432.5 -144 Q450 -113 460 -93 L534 51 L68 1082 L275 1082 L572 384 Z " />
<glyph glyph-name="z" unicode="z" horiz-adv-x="1229" d="M396 151 L1085 151 L1085 0 L160 0 L160 136 L806 929 L169 929 L169 1082 L1049 1082 L1049 951 L396 151 Z " />
<glyph glyph-name="braceleft" unicode="&#x7b;" horiz-adv-x="1229" d="M978 -366 Q913 -364 860 -344 Q807 -324 765 -290 Q723 -256 692.5 -211 Q662 -166 641.5 -114.5 Q621 -63 611 -8.5 Q601 46 601 99 L601 268 Q601 412 532.5 477 Q464 542 323 543 L323 688 Q464 688 532.5 752.5 Q601 817 601 962 L601 1132 Q601 1185 610 1239.5 Q619 1294 638 1345.5 Q657 1397 686.5 1442 Q716 1487 758 1521 Q800 1555 854.5 1575 Q909 1595 978 1597 L999 1482 Q927 1480 884.5 1448 Q842 1416 820.5 1366.5 Q799 1317 793 1255 Q787 1193 787 1132 L787 962 Q786 842 731 751.5 Q676 661 560 614 Q676 568 731 477.5 Q786 387 787 268 L787 99 Q787 37 797 -24.5 Q807 -86 831.5 -135.5 Q856 -185 896.5 -217 Q937 -249 999 -251 L978 -366 Z " />
<glyph glyph-name="bar" unicode="&#x7c;" horiz-adv-x="1229" d="M689 -398 L540 -398 L540 1456 L689 1456 L689 -398 Z " />
<glyph glyph-name="braceright" unicode="&#x7d;" horiz-adv-x="1229" d="M323 -251 Q384 -249 425 -217 Q466 -185 490.5 -135.5 Q515 -86 525.5 -24.5 Q536 37 536 99 L536 268 Q536 387 591 477.5 Q646 568 762 614 Q646 661 591 751.5 Q536 842 536 962 L536 1132 Q536 1193 529.5 1255 Q523 1317 501.5 1366.5 Q480 1416 438 1448 Q396 1480 324 1482 L344 1597 Q413 1595 467.5 1575 Q522 1555 564 1521 Q606 1487 635.5 1442 Q665 1397 684 1345.5 Q703 1294 712 1239.5 Q721 1185 721 1132 L721 962 Q721 817 790 752.5 Q859 688 999 688 L999 543 Q859 542 790 477 Q721 412 721 268 L721 99 Q721 19 699 -62.5 Q677 -144 630.5 -211 Q584 -278 513 -321 Q442 -364 344 -366 L323 -251 Z " />
<glyph glyph-name="asciitilde" unicode="&#x7e;" horiz-adv-x="1229" d="M1180 740 Q1180 674 1158 613 Q1136 552 1096 505 Q1056 458 1001 430 Q946 402 879 402 Q832 402 791.5 411 Q751 420 712.5 438 Q674 456 636.5 482 Q599 508 559 542 Q504 587 454 613.5 Q404 640 348 639 Q313 639 282.5 624.5 Q252 610 230 585.5 Q208 561 195 527.5 Q182 494 182 456 L48 473 Q48 539 70 599 Q92 659 131.5 704 Q171 749 226 775.5 Q281 802 348 802 Q394 802 435.5 792.5 Q477 783 516 765 Q555 747 592.5 721 Q630 695 669 663 Q726 615 774.5 589.5 Q823 564 879 565 Q914 565 944.5 581 Q975 597 997.5 623.5 Q1020 650 1033 685 Q1046 720 1046 758 L1180 740 Z " />
<glyph glyph-name="exclamdown" unicode="&#xa1;" horiz-adv-x="1229" d="M522 611 L707 611 L707 -372 L522 -372 L522 611 Z M728 990 Q728 944 698.5 912.5 Q669 881 613 881 Q556 881 527 912.5 Q498 944 498 990 Q498 1038 527 1070.5 Q556 1103 613 1103 Q669 1103 698.5 1070.5 Q728 1038 728 990 Z " />
<glyph glyph-name="cent" unicode="&#xa2;" horiz-adv-x="1229" d="M639 130 Q689 130 736.5 146 Q784 162 821 190.5 Q858 219 880.5 257.5 Q903 296 904 341 L1079 341 Q1078 277 1049 218.5 Q1020 160 971 112.5 Q922 65 856.5 32 Q791 -1 718 -13 L718 -245 L533 -245 L533 -10 Q437 8 364.5 57.5 Q292 107 244 178 Q196 249 171.5 337 Q147 425 147 520 L147 562 Q147 657 171.5 744.5 Q196 832 244 903.5 Q292 975 364.5 1024.5 Q437 1074 533 1092 L533 1318 L718 1318 L718 1096 Q798 1084 864 1049.5 Q930 1015 978 964 Q1026 913 1052.5 848 Q1079 783 1079 710 L904 710 Q903 759 882.5 802.5 Q862 846 827 879 Q792 912 743.5 931 Q695 950 639 950 Q553 950 494.5 915.5 Q436 881 400 825.5 Q364 770 348.5 701 Q333 632 333 562 L333 520 Q333 449 348.5 379.5 Q364 310 399.5 254.5 Q435 199 493.5 164.5 Q552 130 639 130 Z " />
<glyph glyph-name="sterling" unicode="&#xa3;" horiz-adv-x="1229" d="M463 626 L471 400 Q471 331 456.5 265 Q442 199 410 151 L1148 151 L1147 0 L117 0 L117 151 L192 151 Q219 158 237.5 186 Q256 214 267 250.5 Q278 287 282 327.5 Q286 368 286 400 L278 626 L113 626 L113 778 L273 778 L264 1039 Q264 1141 297.5 1222 Q331 1303 390 1359.5 Q449 1416 531 1446 Q613 1476 709 1476 Q805 1476 881 1448 Q957 1420 1009.5 1369 Q1062 1318 1090 1247 Q1118 1176 1118 1089 L932 1089 Q932 1152 912.5 1196.5 Q893 1241 859.5 1269.5 Q826 1298 782.5 1311.5 Q739 1325 691 1325 Q640 1325 595.5 1305.5 Q551 1286 519 1249.5 Q487 1213 468.5 1159.5 Q450 1106 450 1039 L458 778 L778 778 L778 626 L463 626 Z " />
<glyph glyph-name="currency" unicode="&#xa4;" horiz-adv-x="1229" d="M931 84 Q869 34 794 7 Q719 -20 634 -20 Q549 -20 474.5 7 Q400 34 338 82 L234 -26 L103 109 L215 224 Q177 287 157 360.5 Q137 434 137 515 Q137 601 159 678 Q181 755 223 820 L103 944 L234 1079 L351 957 Q411 1001 482.5 1025 Q554 1049 634 1049 Q714 1049 786 1024.5 Q858 1000 918 955 L1038 1080 L1170 944 L1046 816 Q1086 752 1108 676 Q1130 600 1130 515 Q1130 435 1110 362.5 Q1090 290 1054 228 L1170 109 L1038 -27 L931 84 Z M309 515 Q309 441 334 375 Q359 309 402.5 259.5 Q446 210 505.5 180.5 Q565 151 634 151 Q703 151 762 180.5 Q821 210 864.5 259.5 Q908 309 932.5 375 Q957 441 957 515 Q957 589 932.5 655 Q908 721 864.5 770.5 Q821 820 762 849 Q703 878 634 878 Q565 878 505.5 849 Q446 820 402.5 770.5 Q359 721 334 655 Q309 589 309 515 Z " />
<glyph glyph-name="yen" unicode="&#xa5;" horiz-adv-x="1229" d="M614 779 L983 1456 L1195 1456 L774 736 L1092 736 L1092 615 L704 615 L703 613 L703 446 L1092 446 L1092 326 L703 326 L703 0 L518 0 L518 326 L138 326 L138 446 L518 446 L518 615 L138 615 L138 736 L454 736 L33 1456 L245 1456 L614 779 Z " />
<glyph glyph-name="brokenbar" unicode="&#xa6;" horiz-adv-x="1229" d="M511 -270 L511 521 L696 521 L696 -270 L511 -270 Z M696 698 L511 698 L511 1456 L696 1456 L696 698 Z " />
<glyph glyph-name="section" unicode="&#xa7;" horiz-adv-x="1229" d="M1140 431 Q1140 334 1091 265 Q1042 196 954 156 Q1023 108 1059.5 40 Q1096 -28 1096 -128 Q1096 -216 1060.5 -284 Q1025 -352 960.5 -399 Q896 -446 806.5 -470.5 Q717 -495 608 -495 Q510 -495 416.5 -472.5 Q323 -450 250 -399.5 Q177 -349 132 -266.5 Q87 -184 87 -64 L272 -62 Q272 -140 302 -193.5 Q332 -247 380 -280.5 Q428 -314 488 -328.5 Q548 -343 608 -343 Q678 -343 734 -327 Q790 -311 829.5 -283 Q869 -255 890 -216 Q911 -177 911 -130 Q911 -82 892 -47 Q873 -12 831 16.5 Q789 45 722.5 71 Q656 97 560 126 Q454 155 367.5 189.5 Q281 224 220 273 Q159 322 126 389 Q93 456 93 551 Q93 645 141 714.5 Q189 784 275 825 Q209 874 173.5 942 Q138 1010 138 1110 Q138 1194 173.5 1261.5 Q209 1329 273 1377 Q337 1425 427 1450.5 Q517 1476 626 1476 Q740 1476 831 1447.5 Q922 1419 985.5 1364.5 Q1049 1310 1083.5 1229.5 Q1118 1149 1118 1045 L933 1045 Q933 1103 912.5 1154.5 Q892 1206 853 1243.5 Q814 1281 756.5 1303 Q699 1325 626 1325 Q551 1325 494.5 1308.5 Q438 1292 399.5 1263.5 Q361 1235 342 1196 Q323 1157 323 1112 Q323 1060 340 1024 Q357 988 397.5 959.5 Q438 931 505 906.5 Q572 882 672 854 Q780 824 866.5 789 Q953 754 1014 706 Q1075 658 1107.5 591.5 Q1140 525 1140 431 Z M598 691 Q553 703 512.5 715.5 Q472 728 435 742 Q357 724 317.5 674 Q278 624 278 553 Q278 500 296 463 Q314 426 355 396.5 Q396 367 464 342 Q532 317 632 289 Q676 276 716 264 Q756 252 793 238 Q869 258 912 307.5 Q955 357 956 428 Q956 476 936 512.5 Q916 549 873 579 Q830 609 762 635.5 Q694 662 598 691 Z " />
<glyph glyph-name="dieresis" unicode="&#xa8;" horiz-adv-x="1229" d="M287 1371 Q287 1416 314.5 1446.5 Q342 1477 396 1477 Q450 1477 478 1446.5 Q506 1416 506 1371 Q506 1326 478 1296 Q450 1266 396 1266 Q342 1266 314.5 1296 Q287 1326 287 1371 Z M717 1369 Q717 1414 744.5 1445 Q772 1476 826 1476 Q880 1476 908 1445 Q936 1414 936 1369 Q936 1325 908 1294.5 Q880 1264 826 1264 Q772 1264 744.5 1294.5 Q717 1325 717 1369 Z " />
<glyph glyph-name="copyright" unicode="&#xa9;" horiz-adv-x="1229" d="M862 443 Q862 327 796.5 267.5 Q731 208 613 208 Q551 208 503 230 Q455 252 422 290.5 Q389 329 371 382 Q353 435 353 498 L353 585 Q353 647 371 700.5 Q389 754 422 793 Q455 832 503 854 Q551 876 613 876 Q731 876 797 816 Q863 756 863 641 L753 641 Q752 712 718.5 745 Q685 778 613 778 Q575 778 546.5 763 Q518 748 499 722.5 Q480 697 471 661.5 Q462 626 462 586 L462 498 Q462 457 471 422 Q480 387 499 361 Q518 335 546.5 320 Q575 305 613 305 Q685 305 718 338 Q751 371 752 443 L862 443 Z M177 542 Q177 444 211 357.5 Q245 271 305 206.5 Q365 142 446.5 105 Q528 68 623 68 Q717 68 798.5 105.5 Q880 143 940 207.5 Q1000 272 1034 358 Q1068 444 1068 542 Q1068 639 1034 724.5 Q1000 810 940 874 Q880 938 798.5 974.5 Q717 1011 623 1011 Q528 1011 446.5 974.5 Q365 938 305 874 Q245 810 211 724.5 Q177 639 177 542 Z M90 542 Q90 620 108.5 691.5 Q127 763 161 825.5 Q195 888 243.5 939 Q292 990 351 1026 Q410 1062 479 1082 Q548 1102 623 1102 Q736 1102 833 1058 Q930 1014 1001.5 938.5 Q1073 863 1114 761 Q1155 659 1155 542 Q1155 425 1114 322.5 Q1073 220 1001.5 143.5 Q930 67 833 23 Q736 -21 623 -21 Q510 -21 412.5 23 Q315 67 243.5 143.5 Q172 220 131 322.5 Q90 425 90 542 Z " />
<glyph glyph-name="ordfeminine" unicode="&#xaa;" horiz-adv-x="1229" d="M780 705 Q765 749 759 802 Q729 759 673 725.5 Q617 692 533 691 Q415 691 349.5 752 Q284 813 284 918 Q284 1030 370.5 1089.5 Q457 1149 615 1149 L756 1149 L756 1201 Q755 1266 724 1301 Q693 1336 630 1336 Q563 1336 522.5 1309.5 Q482 1283 481 1231 L320 1243 Q321 1294 343.5 1337 Q366 1380 406.5 1411 Q447 1442 504 1459 Q561 1476 630 1476 Q695 1476 748.5 1458.5 Q802 1441 839.5 1406.5 Q877 1372 898 1320 Q919 1268 919 1200 L919 886 Q919 838 925 794 Q931 750 945 705 L780 705 Z M572 828 Q599 828 628.5 836.5 Q658 845 683.5 859.5 Q709 874 728.5 892 Q748 910 756 928 L756 1037 L616 1037 Q537 1037 491.5 1004 Q446 971 446 922 Q446 877 478 852.5 Q510 828 572 828 Z " />
<glyph glyph-name="guillemotleft" unicode="&#xab;" horiz-adv-x="1229" d="M390 515 L648 118 L507 118 L212 506 L212 525 L507 914 L648 914 L390 515 Z M725 515 L983 118 L842 118 L547 506 L547 525 L842 914 L983 914 L725 515 Z " />
<glyph glyph-name="logicalnot" unicode="&#xac;" horiz-adv-x="1229" d="M1019 375 L834 375 L834 639 L189 639 L189 800 L1019 800 L1019 375 Z " />
<glyph glyph-name="registered" unicode="&#xae;" horiz-adv-x="1229" d="M87 540 Q87 657 128 759.5 Q169 862 240.5 938 Q312 1014 409.5 1057.5 Q507 1101 620 1101 Q733 1101 830 1057.5 Q927 1014 998.5 938 Q1070 862 1111 759.5 Q1152 657 1152 540 Q1152 423 1111 320.5 Q1070 218 998.5 142.5 Q927 67 830 23 Q733 -21 620 -21 Q507 -21 409.5 23 Q312 67 240.5 142.5 Q169 218 128 320.5 Q87 423 87 540 Z M174 540 Q174 442 208 356.5 Q242 271 302 207 Q362 143 443.5 106 Q525 69 620 69 Q714 69 795.5 106 Q877 143 937 207 Q997 271 1031 356.5 Q1065 442 1065 540 Q1065 638 1031 724 Q997 810 937 873.5 Q877 937 795.5 973.5 Q714 1010 620 1010 Q525 1010 443.5 973.5 Q362 937 302 873.5 Q242 810 208 724 Q174 638 174 540 Z M508 485 L508 232 L401 232 L401 867 L612 867 Q667 867 711 855 Q755 843 786.5 819 Q818 795 835 759 Q852 723 852 675 Q852 619 817 580 Q782 541 716 519 L863 232 L753 232 L633 485 L508 485 Z M508 582 L627 582 Q675 583 710 606 Q745 629 745 671 Q745 726 715 748 Q685 770 612 770 L508 770 L508 582 Z " />
<glyph glyph-name="&amp;#xaf;" unicode="&#xaf;" horiz-adv-x="1229" d="M971 1313 L257 1313 L257 1456 L971 1456 L971 1313 Z " />
<glyph glyph-name="&amp;#x2c9;" unicode="&#x2c9;" horiz-adv-x="1229" d="M971 1313 L257 1313 L257 1456 L971 1456 L971 1313 Z " />
<glyph glyph-name="degree" unicode="&#xb0;" horiz-adv-x="1229" d="M361 1216 Q361 1269 381.5 1316.5 Q402 1364 436.5 1399.5 Q471 1435 517.5 1455.5 Q564 1476 616 1476 Q667 1476 712.5 1455.5 Q758 1435 792 1399.5 Q826 1364 846 1316.5 Q866 1269 866 1216 Q866 1163 846 1116 Q826 1069 792 1034.5 Q758 1000 712.5 980 Q667 960 616 960 Q564 960 517.5 980 Q471 1000 436.5 1034.5 Q402 1069 381.5 1115.5 Q361 1162 361 1216 Z M485 1216 Q485 1189 495.5 1165.5 Q506 1142 523.5 1124.5 Q541 1107 565 1097.5 Q589 1088 616 1088 Q643 1088 666 1097.5 Q689 1107 706.5 1124.5 Q724 1142 733.5 1165.5 Q743 1189 743 1216 Q743 1244 733.5 1268.5 Q724 1293 706.5 1311 Q689 1329 666 1339 Q643 1349 616 1349 Q589 1349 565 1339 Q541 1329 523.5 1311 Q506 1293 495.5 1268.5 Q485 1244 485 1216 Z " />
<glyph glyph-name="plusminus" unicode="&#xb1;" horiz-adv-x="1229" d="M709 855 L1072 855 L1072 703 L709 703 L709 289 L541 289 L541 703 L156 703 L156 855 L541 855 L541 1267 L709 1267 L709 855 Z M1030 1 L195 1 L195 152 L1030 152 L1030 1 Z " />
<glyph glyph-name="twosuperior" unicode="&#xb2;" horiz-adv-x="1229" d="M934 667 L335 667 L335 775 L623 1046 Q688 1106 716 1149.5 Q744 1193 744 1228 Q744 1277 711 1307.5 Q678 1338 620 1338 Q546 1338 510.5 1300.5 Q475 1263 474 1205 L316 1205 Q316 1259 337 1307 Q358 1355 397 1390.5 Q436 1426 491.5 1446.5 Q547 1467 616 1467 Q682 1467 735 1450.5 Q788 1434 825 1403 Q862 1372 882 1328.5 Q902 1285 902 1230 Q902 1190 888.5 1154.5 Q875 1119 849.5 1084.5 Q824 1050 788.5 1014.5 Q753 979 710 940 L535 795 L934 795 L934 667 Z " />
<glyph glyph-name="threesuperior" unicode="&#xb3;" horiz-adv-x="1229" d="M526 1125 L610 1125 Q680 1125 718 1154 Q756 1183 756 1234 Q756 1279 723 1308 Q690 1337 623 1337 Q566 1337 529 1313 Q492 1289 491 1245 L334 1245 Q334 1296 356.5 1337 Q379 1378 417.5 1406.5 Q456 1435 508 1450.5 Q560 1466 620 1466 Q684 1466 738 1451.5 Q792 1437 831 1408.5 Q870 1380 891.5 1338 Q913 1296 913 1241 Q913 1185 877.5 1140 Q842 1095 777 1070 Q927 1028 927 886 Q927 830 903.5 787 Q880 744 838.5 715 Q797 686 741 670.5 Q685 655 621 655 Q564 655 510.5 668.5 Q457 682 415.5 710.5 Q374 739 348.5 783 Q323 827 323 888 L481 888 Q482 842 521.5 812.5 Q561 783 626 783 Q694 783 732 813 Q770 843 769 894 Q769 957 725.5 983 Q682 1009 610 1009 L526 1009 L526 1125 Z " />
<glyph glyph-name="acute" unicode="&#xb4;" horiz-adv-x="1229" d="M594 1481 L818 1481 L550 1215 L410 1215 L594 1481 Z " />
<glyph glyph-name="mu" unicode="&#xb5;" horiz-adv-x="1229" d="M373 1082 L373 460 Q373 360 389 296 Q405 232 434.5 195 Q464 158 504.5 144 Q545 130 593 130 Q700 130 762.5 171 Q825 212 854 283 L854 1082 L1040 1082 L1040 0 L873 0 L864 116 Q820 51 755.5 15.5 Q691 -20 601 -20 Q455 -20 373 53 L373 -416 L188 -416 L188 1082 L373 1082 Z " />
<glyph glyph-name="paragraph" unicode="&#xb6;" horiz-adv-x="1229" d="M790 0 L790 520 L703 520 Q585 520 493.5 555 Q402 590 339 652 Q276 714 243.5 800 Q211 886 211 988 Q211 1089 243.5 1174.5 Q276 1260 339 1322.5 Q402 1385 493.5 1420.5 Q585 1456 703 1456 L976 1456 L976 0 L790 0 Z " />
<glyph glyph-name="periodcentered" unicode="&#xb7;" horiz-adv-x="1229" d="M504 729 Q504 777 533 809 Q562 841 619 841 Q675 841 704.5 809 Q734 777 734 729 Q734 682 704.5 650.5 Q675 619 619 619 Q562 619 533 650.5 Q504 682 504 729 Z " />
<glyph glyph-name="cedilla" unicode="&#xb8;" horiz-adv-x="1229" d="M630 0 L618 -52 Q647 -57 674.5 -69 Q702 -81 723.5 -101 Q745 -121 758 -151.5 Q771 -182 771 -225 Q771 -322 692 -378 Q613 -434 468 -435 L461 -328 Q495 -328 525 -322.5 Q555 -317 577.5 -305 Q600 -293 613.5 -274.5 Q627 -256 627 -229 Q627 -204 617 -187 Q607 -170 586.5 -159.5 Q566 -149 536 -143 Q506 -137 466 -134 L497 0 L630 0 Z " />
<glyph glyph-name="onesuperior" unicode="&#xb9;" horiz-adv-x="1229" d="M758 665 L601 665 L601 1266 L386 1209 L386 1337 L740 1454 L758 1454 L758 665 Z " />
<glyph glyph-name="ordmasculine" unicode="&#xba;" horiz-adv-x="1229" d="M272 1141 Q272 1214 296 1275.5 Q320 1337 364.5 1381.5 Q409 1426 472 1451 Q535 1476 614 1476 Q693 1476 756.5 1451 Q820 1426 864.5 1381.5 Q909 1337 932.5 1275.5 Q956 1214 956 1141 L956 1024 Q956 952 932.5 890.5 Q909 829 865 784.5 Q821 740 758 715 Q695 690 616 690 Q536 690 472.5 715 Q409 740 364.5 784.5 Q320 829 296 890.5 Q272 952 272 1024 L272 1141 Z M435 1024 Q435 982 446 946.5 Q457 911 479.5 885 Q502 859 536 844 Q570 829 616 829 Q660 829 693.5 844 Q727 859 749 885 Q771 911 782.5 946.5 Q794 982 794 1024 L794 1141 Q794 1182 782.5 1217.5 Q771 1253 748.5 1279.5 Q726 1306 692.5 1321 Q659 1336 614 1336 Q569 1336 535.5 1321 Q502 1306 479.5 1279.5 Q457 1253 446 1217.5 Q435 1182 435 1141 L435 1024 Z " />
<glyph glyph-name="guillemotright" unicode="&#xbb;" horiz-adv-x="1229" d="M383 949 L677 560 L677 541 L383 152 L241 152 L499 550 L241 949 L383 949 Z M728 949 L1022 560 L1022 541 L728 152 L586 152 L844 550 L586 949 L728 949 Z " />
<glyph glyph-name="onequarter" unicode="&#xbc;" horiz-adv-x="1229" d="M383.118 751 L241.814 751 L241.814 1291.91 L48.3085 1240.61 L48.3085 1355.82 L366.917 1461.12 L383.118 1461.12 L383.118 751 Z M402 221 L289 287 L802 1241 L916 1175 L402 221 Z M1068.12 269.107 L1164.42 269.107 L1164.42 152.104 L1068.12 152.104 L1068.12 0 L926.816 0 L926.816 152.104 L589.307 152.104 L583.907 243.907 L923.216 710.119 L1068.12 710.119 L1068.12 269.107 Z M726.111 269.107 L926.816 269.107 L926.816 529.214 L911.516 504.014 L726.111 269.107 Z " />
<glyph glyph-name="onehalf" unicode="&#xbd;" horiz-adv-x="1229" d="M342 221 L229 287 L742 1241 L856 1175 L342 221 Z M371.118 747 L229.814 747 L229.814 1287.91 L36.3085 1236.61 L36.3085 1351.82 L354.917 1457.12 L371.118 1457.12 L371.118 747 Z M1173.82 0 L634.708 0 L634.708 97.2026 L893.915 341.109 Q952.417 395.111 977.617 434.262 Q1002.82 473.413 1002.82 504.914 Q1002.82 549.015 973.117 576.466 Q943.417 603.916 891.215 603.916 Q824.613 603.916 792.662 570.165 Q760.712 536.415 759.812 484.213 L617.608 484.213 Q617.608 532.814 636.508 576.016 Q655.409 619.217 690.51 651.168 Q725.611 683.119 775.562 701.569 Q825.513 720.02 887.615 720.02 Q947.017 720.02 994.718 705.169 Q1042.42 690.319 1075.72 662.418 Q1109.02 634.517 1127.02 595.366 Q1145.02 556.215 1145.02 506.714 Q1145.02 470.713 1132.87 438.762 Q1120.72 406.811 1097.77 375.76 Q1074.82 344.709 1042.87 312.758 Q1010.92 280.808 972.217 245.707 L814.713 115.203 L1173.82 115.203 L1173.82 0 Z " />
<glyph glyph-name="threequarters" unicode="&#xbe;" horiz-adv-x="1229" d="M469 220 L356 286 L869 1240 L983 1174 L469 220 Z M1101.12 269.107 L1197.42 269.107 L1197.42 152.104 L1101.12 152.104 L1101.12 0 L959.816 0 L959.816 152.104 L622.307 152.104 L616.907 243.907 L956.216 710.119 L1101.12 710.119 L1101.12 269.107 Z M759.111 269.107 L959.816 269.107 L959.816 529.214 L944.516 504.014 L759.111 269.107 Z M220.513 1157.11 L296.115 1157.11 Q359.116 1157.11 393.317 1183.21 Q427.518 1209.31 427.518 1255.21 Q427.518 1295.71 397.817 1321.82 Q368.117 1347.92 307.815 1347.92 Q256.514 1347.92 223.213 1326.32 Q189.912 1304.72 189.012 1265.11 L47.7079 1265.11 Q47.7079 1311.02 67.9584 1347.92 Q88.209 1384.82 122.86 1410.47 Q157.511 1436.12 204.312 1450.07 Q251.113 1464.02 305.115 1464.02 Q362.716 1464.02 411.318 1450.97 Q459.919 1437.92 495.02 1412.27 Q530.121 1386.62 549.471 1348.82 Q568.822 1311.02 568.822 1261.51 Q568.822 1211.11 536.871 1170.61 Q504.92 1130.11 446.419 1107.61 Q581.422 1069.81 581.422 942.005 Q581.422 891.604 560.272 852.903 Q539.121 814.202 501.77 788.101 Q464.419 762 414.018 748.05 Q363.616 734.1 306.015 734.1 Q254.714 734.1 206.562 746.25 Q158.411 758.4 121.06 784.051 Q83.7089 809.702 60.7582 849.303 Q37.8076 888.904 37.8076 943.805 L180.011 943.805 Q180.911 902.404 216.462 875.854 Q252.013 849.303 310.515 849.303 Q371.717 849.303 405.918 876.304 Q440.119 903.304 439.219 949.206 Q439.219 1005.91 400.067 1029.31 Q360.916 1052.71 296.115 1052.71 L220.513 1052.71 L220.513 1157.11 Z " />
<glyph glyph-name="questiondown" unicode="&#xbf;" horiz-adv-x="1229" d="M724 673 Q723 602 718.5 556 Q714 510 699 474 Q684 438 654.5 404.5 Q625 371 576 326 Q545 291 512 253.5 Q479 216 451.5 175 Q424 134 406.5 89 Q389 44 389 -7 Q389 -116 447 -173.5 Q505 -231 614 -231 Q657 -231 697.5 -219.5 Q738 -208 769.5 -183.5 Q801 -159 820 -121.5 Q839 -84 839 -32 L1024 -32 Q1023 -116 991.5 -183 Q960 -250 905 -296.5 Q850 -343 775.5 -367.5 Q701 -392 614 -392 Q517 -392 440.5 -366.5 Q364 -341 311.5 -292 Q259 -243 231.5 -173 Q204 -103 204 -13 Q204 59 227.5 123 Q251 187 287.5 243.5 Q324 300 369.5 349.5 Q415 399 460 442 Q489 471 505 496 Q521 521 528.5 547.5 Q536 574 537.5 604 Q539 634 539 673 L724 673 Z M509 988 Q509 1036 538 1068.5 Q567 1101 624 1101 Q681 1101 710 1068.5 Q739 1036 739 988 Q739 942 710 910.5 Q681 879 624 879 Q567 879 538 910.5 Q509 942 509 988 Z " />
<glyph glyph-name="AE" unicode="&#xc6;" horiz-adv-x="1229" d="M1195 0 L664 0 L663 353 L353 353 L230 0 L32 0 L592 1456 L1172 1456 L1172 1304 L835 1304 L837 833 L1139 833 L1139 682 L837 682 L838 151 L1195 151 L1195 0 Z M414 527 L663 527 L661 1233 L414 527 Z " />
<glyph glyph-name="multiply" unicode="&#xd7;" horiz-adv-x="1229" d="M181 329 L511 666 L184 1000 L303 1123 L631 788 L960 1123 L1079 1000 L751 666 L1082 329 L963 206 L631 543 L300 206 L181 329 Z " />
<glyph glyph-name="Oslash" unicode="&#xd8;" horiz-adv-x="1229" d="M1113 644 Q1112 566 1099.5 486.5 Q1087 407 1061 333 Q1035 259 994.5 195 Q954 131 898 83 Q842 35 769.5 7.5 Q697 -20 607 -20 Q516 -20 445 7.5 Q374 35 317 83 L213 -93 L71 -93 L231 177 Q197 226 172 282 Q147 338 130.5 398 Q114 458 106 520.5 Q98 583 98 644 L98 810 Q99 888 111.5 967.5 Q124 1047 150.5 1121 Q177 1195 217.5 1259.5 Q258 1324 314 1372.5 Q370 1421 442.5 1448.5 Q515 1476 605 1476 Q707 1476 785.5 1441.5 Q864 1407 923 1348 L1022 1516 L1164 1516 L1003 1244 Q1031 1197 1051.5 1144.5 Q1072 1092 1085.5 1036.5 Q1099 981 1105.5 923.5 Q1112 866 1113 810 L1113 644 Z M280 644 Q281 575 292.5 497.5 Q304 420 333 350 L831 1193 Q794 1246 738.5 1278.5 Q683 1311 605 1311 Q541 1311 492 1288 Q443 1265 407 1226.5 Q371 1188 347 1137.5 Q323 1087 308.5 1031.5 Q294 976 287.5 919.5 Q281 863 280 812 L280 644 Z M930 812 Q929 870 921.5 934.5 Q914 999 895 1061 L404 231 Q441 190 491 166.5 Q541 143 607 143 Q672 143 721.5 166 Q771 189 806.5 227.5 Q842 266 865.5 316.5 Q889 367 903.5 422.5 Q918 478 923.5 535 Q929 592 930 644 L930 812 Z " />
<glyph glyph-name="Thorn" unicode="&#xde;" horiz-adv-x="1229" d="M353 1456 L353 1163 L630 1163 Q747 1163 837.5 1131.5 Q928 1100 990.5 1043.5 Q1053 987 1085.5 909 Q1118 831 1118 738 Q1118 645 1085.5 567 Q1053 489 990.5 432.5 Q928 376 837.5 344.5 Q747 313 630 313 L353 313 L353 0 L168 0 L168 1456 L353 1456 Z M353 1011 L353 465 L630 465 Q708 465 765 487.5 Q822 510 859.5 547.5 Q897 585 915 634 Q933 683 933 736 Q933 790 915 839.5 Q897 889 860 927.5 Q823 966 765.5 988.5 Q708 1011 630 1011 L353 1011 Z " />
<glyph glyph-name="germandbls" unicode="&#xdf;" horiz-adv-x="1229" d="M353 0 L169 0 L169 1087 Q169 1199 198.5 1287 Q228 1375 280.5 1435 Q333 1495 405 1526.5 Q477 1558 562 1558 Q637 1558 702 1537.5 Q767 1517 816 1475 Q865 1433 893 1369.5 Q921 1306 921 1220 Q921 1141 901 1087.5 Q881 1034 857 992 Q833 950 813.5 911.5 Q794 873 794 823 Q794 777 816.5 740 Q839 703 873 668 Q907 633 947 598 Q987 563 1021 522 Q1055 481 1077.5 431 Q1100 381 1100 316 Q1100 231 1074.5 168 Q1049 105 1003 63 Q957 21 893.5 0 Q830 -21 754 -21 Q713 -21 669 -15.5 Q625 -10 584.5 -0.5 Q544 9 510 22 Q476 35 456 51 L498 206 Q516 195 542.5 181.5 Q569 168 600.5 156.5 Q632 145 666.5 137.5 Q701 130 735 130 Q782 130 816 143.5 Q850 157 872 181 Q894 205 904.5 237 Q915 269 915 307 Q915 354 892.5 392.5 Q870 431 836 465.5 Q802 500 762 535.5 Q722 571 688 612.5 Q654 654 631 705.5 Q608 757 608 825 Q608 864 618 897 Q628 930 643.5 959.5 Q659 989 677 1016.5 Q695 1044 710.5 1073.5 Q726 1103 736 1134.5 Q746 1166 746 1204 Q746 1254 731 1291.5 Q716 1329 691.5 1354.5 Q667 1380 635.5 1393 Q604 1406 572 1406 Q473 1406 413.5 1324 Q354 1242 353 1087 L353 0 Z " />
<glyph glyph-name="ae" unicode="&#xe6;" horiz-adv-x="1229" d="M896 -20 Q793 -20 719 17.5 Q645 55 599 126 Q580 97 554.5 70.5 Q529 44 496 24 Q463 4 423 -8 Q383 -20 335 -20 Q264 -20 210 2 Q156 24 119 63.5 Q82 103 62.5 159.5 Q43 216 43 285 Q43 451 147 543 Q251 635 448 635 L511 635 L511 783 Q511 859 480 904.5 Q449 950 381 950 Q318 950 279 908.5 Q240 867 240 792 L61 800 Q61 869 83.5 924.5 Q106 980 147.5 1019.5 Q189 1059 248 1080.5 Q307 1102 379 1102 Q462 1102 524.5 1075 Q587 1048 626 995 Q669 1046 728.5 1074 Q788 1102 862 1102 Q943 1102 1004.5 1075.5 Q1066 1049 1108 1000.5 Q1150 952 1171.5 883.5 Q1193 815 1193 731 L1193 497 L688 497 L688 411 Q688 345 701.5 293 Q715 241 744.5 205 Q774 169 820 149.5 Q866 130 932 130 Q970 130 999.5 137 Q1029 144 1052.5 154.5 Q1076 165 1095 177 Q1114 189 1130 200 L1176 64 Q1163 54 1140 39.5 Q1117 25 1082.5 12 Q1048 -1 1001.5 -10.5 Q955 -20 896 -20 Z M862 950 Q817 950 784.5 930.5 Q752 911 731 878 Q710 845 699.5 801 Q689 757 688 709 L688 640 L1017 640 L1017 768 Q1017 803 1007 835.5 Q997 868 977 893.5 Q957 919 928 934.5 Q899 950 862 950 Z M371 130 Q408 130 446 151.5 Q484 173 512 202 L511 495 L450 495 Q397 495 355 477.5 Q313 460 284 430.5 Q255 401 239.5 362.5 Q224 324 224 281 Q224 250 233.5 222.5 Q243 195 261.5 174.5 Q280 154 307.5 142 Q335 130 371 130 Z " />
<glyph glyph-name="eth" unicode="&#xf0;" horiz-adv-x="1229" d="M845 1286 Q949 1168 1007.5 1003.5 Q1066 839 1066 633 L1066 571 Q1066 433 1028.5 323.5 Q991 214 924 137.5 Q857 61 765.5 20.5 Q674 -20 565 -20 Q457 -20 366.5 17.5 Q276 55 210.5 121 Q145 187 109 276 Q73 365 73 467 Q73 582 109.5 676 Q146 770 211.5 837 Q277 904 366.5 940.5 Q456 977 561 977 Q649 977 725.5 943 Q802 909 859 853 Q836 963 791 1047 Q746 1131 684 1194 L418 1042 L345 1141 L584 1278 Q543 1305 499.5 1325.5 Q456 1346 410 1362 L467 1521 Q547 1499 618.5 1462.5 Q690 1426 753 1375 L983 1507 L1056 1407 L845 1286 Z M881 635 Q881 648 880.5 660 Q880 672 880 685 Q863 712 834.5 737.5 Q806 763 766 782.5 Q726 802 674.5 813.5 Q623 825 561 825 Q492 825 436 796.5 Q380 768 340.5 719 Q301 670 280 605 Q259 540 259 467 Q259 405 280 344.5 Q301 284 340.5 236.5 Q380 189 437.5 159.5 Q495 130 569 130 Q641 130 698.5 162 Q756 194 796.5 251.5 Q837 309 859 390.5 Q881 472 881 571 L881 635 Z " />
<glyph glyph-name="divide" unicode="&#xf7;" horiz-adv-x="1229" d="M1113 600 L115 600 L115 784 L1113 784 L1113 600 Z M507 1097 Q507 1142 534.5 1173 Q562 1204 616 1204 Q670 1204 698 1173 Q726 1142 726 1097 Q726 1052 698 1022 Q670 992 616 992 Q562 992 534.5 1022 Q507 1052 507 1097 Z M505 282 Q505 327 532.5 358 Q560 389 614 389 Q668 389 696 358 Q724 327 724 282 Q724 238 696 207.5 Q668 177 614 177 Q560 177 532.5 207.5 Q505 238 505 282 Z " />
<glyph glyph-name="oslash" unicode="&#xf8;" horiz-adv-x="1229" d="M122 551 Q122 668 156 768.5 Q190 869 253.5 943 Q317 1017 408 1059.5 Q499 1102 613 1102 Q670 1102 720.5 1091.5 Q771 1081 816 1061 L889 1209 L1012 1209 L911 1004 Q1005 929 1055.5 812 Q1106 695 1106 551 L1106 529 Q1106 412 1072 312 Q1038 212 974.5 138 Q911 64 820 22 Q729 -20 615 -20 Q561 -20 513.5 -10.5 Q466 -1 423 16 L349 -135 L226 -135 L327 70 Q228 143 175 262 Q122 381 122 529 L122 551 Z M307 529 Q307 438 331 359.5 Q355 281 403 224 L745 918 Q716 933 683.5 941.5 Q651 950 613 950 Q536 950 479 917.5 Q422 885 383.5 830 Q345 775 326 702.5 Q307 630 307 551 L307 529 Z M921 551 Q921 636 899 712 Q877 788 832 845 L492 156 Q547 130 615 130 Q691 130 748.5 162 Q806 194 844.5 249 Q883 304 902 376.5 Q921 449 921 529 L921 551 Z " />
<glyph glyph-name="thorn" unicode="&#xfe;" horiz-adv-x="1229" d="M1087 529 Q1087 413 1060 312.5 Q1033 212 979.5 138 Q926 64 848 22 Q770 -20 668 -20 Q568 -20 491 12.5 Q414 45 358 107 L358 -416 L173 -416 L173 1558 L358 1558 L358 970 Q413 1034 489 1068 Q565 1102 665 1102 Q769 1102 848 1061 Q927 1020 980 947 Q1033 874 1060 772.5 Q1087 671 1087 550 L1087 529 Z M902 550 Q902 629 885 700.5 Q868 772 832.5 826.5 Q797 881 742 913 Q687 945 610 945 Q519 945 457 903.5 Q395 862 358 796 L358 278 Q396 213 457 172 Q518 131 612 131 Q688 131 743 163.5 Q798 196 833 251 Q868 306 885 378 Q902 450 902 529 L902 550 Z " />
<glyph glyph-name="Hbar" unicode="&#x126;" horiz-adv-x="1229" d="M1084 1167 L1212 1167 L1212 1024 L1084 1024 L1084 0 L909 0 L909 673 L312 673 L312 0 L138 0 L138 1024 L24 1024 L24 1167 L138 1167 L138 1456 L312 1456 L312 1167 L909 1167 L909 1456 L1084 1456 L1084 1167 Z M312 830 L909 830 L909 1024 L312 1024 L312 830 Z " />
<glyph glyph-name="dotlessi" unicode="&#x131;" horiz-adv-x="1229" d="M203 1082 L756 1082 L756 160 L1109 160 L1109 0 L203 0 L203 160 L571 160 L571 921 L203 921 L203 1082 Z " />
<glyph glyph-name="IJ" unicode="&#x132;" horiz-adv-x="1229" d="M313 0 L128 0 L128 1456 L313 1456 L313 0 Z M915 1456 L1100 1456 L1100 323 Q1100 242 1079.5 178.5 Q1059 115 1016.5 71 Q974 27 909.5 4 Q845 -19 758 -19 Q685 -19 623.5 1.5 Q562 22 518 64 Q474 106 449 170 Q424 234 424 321 L610 321 Q610 222 650 177 Q690 132 758 132 Q804 132 834 145.5 Q864 159 882 183.5 Q900 208 907.5 243.5 Q915 279 915 323 L915 1456 Z " />
<glyph glyph-name="ij" unicode="&#x133;" horiz-adv-x="1229" d="M686 1082 L1093 1082 L1093 -5 Q1093 -109 1064.5 -188.5 Q1036 -268 981.5 -323 Q927 -378 848.5 -406 Q770 -434 670 -434 Q613 -434 563.5 -430.5 Q514 -427 459 -417 L472 -259 Q489 -262 515 -264.5 Q541 -267 568 -268.5 Q595 -270 619 -270.5 Q643 -271 657 -271 Q709 -271 755 -258.5 Q801 -246 835 -215.5 Q869 -185 888.5 -133.5 Q908 -82 908 -5 L908 921 L686 921 L686 1082 Z M85 1082 L505 1082 L505 160 L728 160 L728 0 L80 0 L80 160 L319 160 L319 921 L85 921 L85 1082 Z M881 1363 Q881 1408 908 1439.5 Q935 1471 991 1471 Q1047 1471 1075 1439.5 Q1103 1408 1103 1363 Q1103 1318 1075 1287.5 Q1047 1257 991 1257 Q935 1257 908 1287.5 Q881 1318 881 1363 Z M303 1362 Q303 1407 330.5 1438.5 Q358 1470 414 1470 Q469 1470 497 1438.5 Q525 1407 525 1362 Q525 1317 497 1286.5 Q469 1256 414 1256 Q358 1256 330.5 1286.5 Q303 1317 303 1362 Z " />
<glyph glyph-name="kgreenlandic" unicode="&#x138;" horiz-adv-x="1229" d="M521 477 L371 344 L371 0 L186 0 L186 1082 L371 1082 L371 551 L481 671 L879 1082 L1102 1082 L646 603 L1138 0 L904 0 L521 477 Z " />
<glyph glyph-name="Lslash" unicode="&#x141;" horiz-adv-x="1229" d="M387 845 L649 928 L649 766 L387 683 L387 157 L1099 157 L1099 0 L202 0 L202 624 L58 579 L58 741 L202 786 L202 1456 L387 1456 L387 845 Z " />
<glyph glyph-name="lslash" unicode="&#x142;" horiz-adv-x="1229" d="M756 973 L1046 1105 L1045 943 L756 811 L756 160 L1109 160 L1109 0 L203 0 L203 160 L571 160 L571 726 L232 572 L232 734 L571 888 L571 1375 L203 1375 L203 1536 L756 1536 L756 973 Z " />
<glyph glyph-name="Eng" unicode="&#x14a;" horiz-adv-x="1229" d="M1052 1456 L1053 -89 Q1053 -171 1031.5 -235.5 Q1010 -300 969.5 -345 Q929 -390 870 -413.5 Q811 -437 735 -437 Q705 -437 679.5 -433 Q654 -429 625 -419 L639 -272 Q647 -275 660.5 -277.5 Q674 -280 688.5 -281.5 Q703 -283 716 -284 Q729 -285 735 -285 Q800 -285 833.5 -230.5 Q867 -176 867 -89 L867 2 L360 1069 L360 0 L175 0 L175 1456 L360 1456 L867 389 L867 1456 L1052 1456 Z " />
<glyph glyph-name="eng" unicode="&#x14b;" horiz-adv-x="1229" d="M350 1082 L362 928 Q416 1009 495.5 1055.5 Q575 1102 681 1102 Q767 1102 835 1077 Q903 1052 950 1000.5 Q997 949 1022 869.5 Q1047 790 1047 682 L1047 -89 Q1047 -256 962.5 -346 Q878 -436 724 -437 Q694 -437 667 -433 Q640 -429 610 -419 L624 -262 Q633 -265 647 -267.5 Q661 -270 676 -271.5 Q691 -273 704 -274 Q717 -275 724 -275 Q791 -275 826.5 -227 Q862 -179 862 -89 L862 678 Q862 821 803 883 Q744 945 626 945 Q532 945 469 908.5 Q406 872 369 810 L369 0 L184 0 L184 1082 L350 1082 Z " />
<glyph glyph-name="OE" unicode="&#x152;" horiz-adv-x="1229" d="M1190 0 L762 0 Q700 -7 634 -13.5 Q568 -20 499 -20 Q402 -20 324.5 13.5 Q247 47 192.5 113 Q138 179 108.5 276.5 Q79 374 79 502 L79 953 Q79 1081 108 1178.5 Q137 1276 191 1342 Q245 1408 322.5 1442 Q400 1476 497 1476 Q566 1476 633 1470 Q700 1464 762 1456 L1180 1456 L1180 1304 L783 1304 L783 828 L1127 828 L1127 676 L783 676 L783 151 L1190 151 L1190 0 Z M499 131 Q548 131 598 134 L598 1320 Q573 1322 548 1323 Q523 1324 497 1324 Q440 1324 396 1305.5 Q352 1287 323 1244 Q294 1201 279 1130.5 Q264 1060 264 955 L264 502 Q264 397 279 325.5 Q294 254 324 211 Q354 168 398 149.5 Q442 131 499 131 Z " />
<glyph glyph-name="oe" unicode="&#x153;" horiz-adv-x="1229" d="M46 639 Q46 744 68.5 829 Q91 914 134.5 975 Q178 1036 242 1069 Q306 1102 388 1102 Q472 1102 536 1068.5 Q600 1035 644 973 Q689 1036 749 1069 Q809 1102 879 1102 Q962 1102 1022.5 1070 Q1083 1038 1122.5 981 Q1162 924 1181 846 Q1200 768 1200 677 L1200 496 L742 496 L742 432 Q742 364 752 308.5 Q762 253 782 213 Q802 173 833 151.5 Q864 130 907 130 Q975 130 1020.5 151 Q1066 172 1098 200 L1153 74 Q1136 56 1113.5 39 Q1091 22 1061 9 Q1031 -4 993 -12 Q955 -20 907 -20 Q820 -20 754.5 12.5 Q689 45 644 107 Q600 46 536.5 13 Q473 -20 390 -20 Q307 -20 243 13 Q179 46 135 106 Q91 166 68.5 251 Q46 336 46 441 L46 639 Z M232 441 Q232 373 240.5 315.5 Q249 258 268 217 Q287 176 317 153 Q347 130 390 130 Q432 130 461.5 153 Q491 176 510 217 Q529 258 538 315.5 Q547 373 547 441 L547 639 Q547 707 538 764 Q529 821 510 862.5 Q491 904 460.5 927 Q430 950 388 950 Q346 950 316.5 926.5 Q287 903 268.5 862 Q250 821 241 763.5 Q232 706 232 639 L232 441 Z M742 647 L1015 647 L1015 732 Q1015 774 1007.5 813 Q1000 852 983.5 882.5 Q967 913 941.5 931.5 Q916 950 879 950 Q847 950 821.5 928.5 Q796 907 778.5 868 Q761 829 751.5 773.5 Q742 718 742 651 L742 647 Z " />
<glyph glyph-name="longs" unicode="&#x17f;" horiz-adv-x="1229" d="M456 0 L456 1126 Q456 1235 486.5 1319.5 Q517 1404 573.5 1461.5 Q630 1519 710 1549 Q790 1579 890 1579 Q927 1579 962.5 1573 Q998 1567 1035 1558 L1012 1416 Q994 1421 971 1424 Q948 1427 919 1427 Q851 1427 799.5 1406 Q748 1385 713 1346 Q678 1307 660 1251 Q642 1195 642 1126 L642 0 L456 0 Z " />
<glyph glyph-name="florin" unicode="&#x192;" horiz-adv-x="1229" d="M895 939 L683 939 L683 -52 Q683 -145 658 -217 Q633 -289 586.5 -337.5 Q540 -386 472.5 -411.5 Q405 -437 320 -437 Q279 -437 239 -429 Q199 -421 160 -401 L174 -253 Q185 -261 205.5 -266.5 Q226 -272 248 -276.5 Q270 -281 289.5 -283 Q309 -285 320 -285 Q405 -285 451 -223 Q497 -161 498 -52 L498 939 L321 939 L321 1082 L498 1082 L498 1181 Q498 1277 527 1351.5 Q556 1426 610.5 1476.5 Q665 1527 742 1553 Q819 1579 915 1579 Q962 1579 1006.5 1568 Q1051 1557 1098 1540 L1075 1393 Q1049 1406 1013.5 1414 Q978 1422 938 1422 Q808 1421 746 1359.5 Q684 1298 683 1181 L683 1082 L895 1082 L895 939 Z " />
<glyph glyph-name="Ohorn" unicode="&#x1a0;" horiz-adv-x="1229" d="M1114 644 Q1113 566 1100.5 486.5 Q1088 407 1062 333 Q1036 259 995.5 195 Q955 131 899 83 Q843 35 770.5 7.5 Q698 -20 608 -20 Q518 -20 445.5 7.5 Q373 35 317 83 Q261 131 220 195.5 Q179 260 152.5 334 Q126 408 113 487 Q100 566 99 644 L99 810 Q100 888 112.5 967.5 Q125 1047 151.5 1121 Q178 1195 218.5 1259.5 Q259 1324 315 1372.5 Q371 1421 443.5 1448.5 Q516 1476 606 1476 Q719 1476 803.5 1434 Q888 1392 949 1321 Q1003 1339 1028 1393 Q1053 1447 1054 1530 L1221 1530 Q1222 1403 1172 1319 Q1122 1235 1028 1200 Q1072 1112 1092 1011 Q1112 910 1114 810 L1114 644 Z M931 812 Q930 864 924 920.5 Q918 977 903.5 1032.5 Q889 1088 865 1138.5 Q841 1189 805 1227.5 Q769 1266 720 1288.5 Q671 1311 606 1311 Q542 1311 493 1288 Q444 1265 408 1226.5 Q372 1188 348 1137.5 Q324 1087 309.5 1031.5 Q295 976 288.5 919.5 Q282 863 281 812 L281 644 Q282 593 288.5 536 Q295 479 310 423.5 Q325 368 349 317 Q373 266 409 227.5 Q445 189 494 166 Q543 143 608 143 Q673 143 722.5 166 Q772 189 807.5 227.5 Q843 266 866.5 316.5 Q890 367 904.5 422.5 Q919 478 924.5 535 Q930 592 931 644 L931 812 Z " />
<glyph glyph-name="ohorn" unicode="&#x1a1;" horiz-adv-x="1229" d="M119 551 Q119 668 153 768.5 Q187 869 250.5 943 Q314 1017 405 1059.5 Q496 1102 610 1102 Q706 1102 785 1072.5 Q864 1043 925 990 Q979 1007 1004.5 1059 Q1030 1111 1030 1194 L1198 1194 Q1197 1073 1151.5 992 Q1106 911 1020 875 Q1061 807 1082 725 Q1103 643 1103 551 L1103 529 Q1103 412 1069 312 Q1035 212 971.5 138 Q908 64 817 22 Q726 -20 612 -20 Q497 -20 405.5 22 Q314 64 250.5 138 Q187 212 153 312 Q119 412 119 529 L119 551 Z M304 529 Q304 449 323 376.5 Q342 304 380.5 249 Q419 194 477 162 Q535 130 612 130 Q688 130 745.5 162 Q803 194 841.5 249 Q880 304 899 376.5 Q918 449 918 529 L918 551 Q918 630 898.5 702.5 Q879 775 840.5 830 Q802 885 744.5 917.5 Q687 950 610 950 Q533 950 476 917.5 Q419 885 380.5 830 Q342 775 323 702.5 Q304 630 304 551 L304 529 Z " />
<glyph glyph-name="Uhorn" unicode="&#x1af;" horiz-adv-x="1229" d="M1088 1456 L1088 1272 Q1133 1278 1163 1295 Q1193 1312 1211 1341.5 Q1229 1371 1236.5 1413.5 Q1244 1456 1244 1512 L1411 1512 Q1411 1332 1333 1239.5 Q1255 1147 1089 1136 L1090 470 Q1088 368 1053 279 Q1018 190 955 123.5 Q892 57 805 18.5 Q718 -20 614 -20 Q508 -20 421 18 Q334 56 272 122.5 Q210 189 175 278.5 Q140 368 139 470 L141 1456 L317 1456 L321 470 Q322 405 341.5 345 Q361 285 397.5 239 Q434 193 488.5 165 Q543 137 614 137 Q685 137 739 164.5 Q793 192 829.5 238.5 Q866 285 885 345 Q904 405 906 470 L909 1456 L1088 1456 Z " />
<glyph glyph-name="uhorn" unicode="&#x1b0;" horiz-adv-x="1229" d="M1343 1171 Q1342 1001 1272 911 Q1202 821 1055 802 L1055 0 L887 0 L876 149 Q822 69 741 24.5 Q660 -20 554 -20 Q469 -20 400 6.5 Q331 33 282 89 Q233 145 206.5 231.5 Q180 318 180 439 L180 1082 L365 1082 L365 437 Q365 349 379 291 Q393 233 421 198.5 Q449 164 489.5 150 Q530 136 583 136 Q696 136 765.5 182 Q835 228 869 306 L869 1082 L1055 1082 L1055 941 Q1123 959 1149 1014.5 Q1175 1070 1175 1171 L1343 1171 Z " />
<glyph glyph-name="uni0237" unicode="&#x237;" horiz-adv-x="1229" d="M260 1082 L810 1082 L810 -7 Q810 -111 781.5 -191 Q753 -271 698.5 -325.5 Q644 -380 565.5 -408.5 Q487 -437 387 -437 Q330 -437 280.5 -433.5 Q231 -430 176 -420 L189 -268 Q206 -271 231.5 -273.5 Q257 -276 284 -277.5 Q311 -279 335.5 -279.5 Q360 -280 374 -280 Q426 -280 471.5 -266.5 Q517 -253 551 -221 Q585 -189 604.5 -136.5 Q624 -84 624 -7 L624 921 L260 921 L260 1082 Z " />
<glyph glyph-name="schwa" unicode="&#x259;" horiz-adv-x="1229" d="M609 1103 Q727 1103 821.5 1062.5 Q916 1022 982 949.5 Q1048 877 1083.5 778 Q1119 679 1119 562 L1119 518 Q1119 401 1080 302 Q1041 203 974.5 131.5 Q908 60 820.5 20 Q733 -20 637 -19 Q520 -19 433.5 17 Q347 53 290 117 Q233 181 205 269.5 Q177 358 177 463 L177 584 L933 584 Q930 660 908 727 Q886 794 845.5 844 Q805 894 746 923 Q687 952 609 952 Q496 952 415.5 921 Q335 890 281 844 L208 969 Q235 994 272.5 1018 Q310 1042 359.5 1061 Q409 1080 471.5 1091.5 Q534 1103 609 1103 Z M637 132 Q694 132 742.5 155 Q791 178 828.5 218.5 Q866 259 891 314 Q916 369 927 433 L362 433 L362 407 Q362 353 378.5 303 Q395 253 428.5 215 Q462 177 514 154.5 Q566 132 637 132 Z " />
<glyph glyph-name="circumflex" unicode="&#x2c6;" horiz-adv-x="1229" d="M798 1277 L798 1252 L644 1252 L494 1403 L345 1252 L193 1252 L193 1278 L438 1517 L550 1517 L798 1277 Z " />
<glyph glyph-name="caron" unicode="&#x2c7;" horiz-adv-x="1229" d="M612 1365 L763 1517 L923 1517 L923 1499 L669 1251 L555 1251 L304 1496 L304 1517 L461 1517 L612 1365 Z " />
<glyph glyph-name="breve" unicode="&#x2d8;" horiz-adv-x="1229" d="M913 1458 Q913 1399 892 1349.5 Q871 1300 832 1265 Q793 1230 738 1210.5 Q683 1191 615 1191 Q546 1191 491 1210.5 Q436 1230 397 1265 Q358 1300 336.5 1349.5 Q315 1399 315 1458 L465 1458 Q465 1428 474 1400.5 Q483 1373 501 1353 Q519 1333 547 1321 Q575 1309 615 1309 Q654 1309 681.5 1321 Q709 1333 727 1353 Q745 1373 754 1400.5 Q763 1428 763 1458 L913 1458 Z " />
<glyph glyph-name="dotaccent" unicode="&#x2d9;" horiz-adv-x="1229" d="M498 1358 Q498 1406 527 1438 Q556 1470 613 1470 Q670 1470 699 1438 Q728 1406 728 1358 Q728 1312 699 1280.5 Q670 1249 613 1249 Q556 1249 527 1280.5 Q498 1312 498 1358 Z " />
<glyph glyph-name="ring" unicode="&#x2da;" horiz-adv-x="1229" d="M410 1312 Q410 1355 426.5 1391.5 Q443 1428 470.5 1454.5 Q498 1481 535.5 1496 Q573 1511 615 1511 Q657 1511 693.5 1496 Q730 1481 757.5 1454.5 Q785 1428 801 1391.5 Q817 1355 817 1312 Q817 1269 801 1233 Q785 1197 757.5 1171.5 Q730 1146 693.5 1132 Q657 1118 615 1118 Q573 1118 535.5 1132 Q498 1146 470.5 1171.5 Q443 1197 426.5 1233 Q410 1269 410 1312 Z M509 1312 Q509 1290 517.5 1271 Q526 1252 540.5 1237.5 Q555 1223 574 1215 Q593 1207 615 1207 Q637 1207 655.5 1215 Q674 1223 688 1237 Q702 1251 710 1270 Q718 1289 718 1312 Q718 1360 688.5 1390.5 Q659 1421 615 1421 Q571 1421 540 1390.5 Q509 1360 509 1312 Z " />
<glyph glyph-name="ogonek" unicode="&#x2db;" horiz-adv-x="1229" d="M731 0 Q653 -42 606 -97.5 Q559 -153 559 -219 Q559 -253 577 -273.5 Q595 -294 637 -294 Q669 -295 695.5 -285.5 Q722 -276 738 -268 L769 -389 Q741 -405 698.5 -419 Q656 -433 591 -433 Q550 -433 515 -421 Q480 -409 454 -385 Q428 -361 413 -325.5 Q398 -290 398 -243 Q398 -202 415.5 -160.5 Q433 -119 465 -80 Q497 -41 542.5 -6 Q588 29 644 56 L731 0 Z " />
<glyph glyph-name="tilde" unicode="&#x2dc;" horiz-adv-x="1229" d="M826 1491 Q826 1446 810.5 1405 Q795 1364 768 1333.5 Q741 1303 703 1285 Q665 1267 620 1267 Q587 1267 561 1274 Q535 1281 513.5 1291.5 Q492 1302 473 1314.5 Q454 1327 434.5 1337.5 Q415 1348 393 1355 Q371 1362 344 1362 Q300 1362 271.5 1329.5 Q243 1297 242 1251 L138 1275 Q138 1320 153.5 1361.5 Q169 1403 196 1434.5 Q223 1466 260.5 1485 Q298 1504 344 1504 Q386 1504 419.5 1489 Q453 1474 484.5 1456.5 Q516 1439 548.5 1424 Q581 1409 620 1409 Q641 1409 660 1418 Q679 1427 692.5 1442 Q706 1457 714.5 1477.5 Q723 1498 723 1521 L826 1491 Z " />
<glyph glyph-name="hungarumlaut" unicode="&#x2dd;" horiz-adv-x="1229" d="M757 1519 L982 1519 L677 1250 L508 1250 L757 1519 Z M434 1519 L641 1519 L396 1250 L246 1250 L434 1519 Z " />
<glyph glyph-name="uni02F3" unicode="&#x2f3;" horiz-adv-x="1229" d="M429 -233 Q429 -201 441 -173.5 Q453 -146 474 -126.5 Q495 -107 523 -96 Q551 -85 583 -85 Q614 -85 641 -96 Q668 -107 688.5 -126.5 Q709 -146 721 -173.5 Q733 -201 733 -233 Q733 -265 721 -292 Q709 -319 688.5 -338 Q668 -357 641 -367.5 Q614 -378 583 -378 Q551 -378 523 -367.5 Q495 -357 474 -338 Q453 -319 441 -292 Q429 -265 429 -233 Z M515 -233 Q516 -260 535.5 -279 Q555 -298 583 -298 Q609 -298 628 -279.5 Q647 -261 647 -233 Q647 -204 628 -184.5 Q609 -165 583 -165 Q555 -165 535.5 -184.5 Q516 -204 515 -233 Z " />
<glyph glyph-name="gravecomb" unicode="&#x300;" horiz-adv-x="1106" d="M-517 1212 L-643 1212 L-822 1558 L-644 1558 L-517 1212 Z " />
<glyph glyph-name="acutecomb" unicode="&#x301;" horiz-adv-x="1106" d="M-534 1559 L-362 1559 L-548 1212 L-664 1212 L-534 1559 Z " />
<glyph glyph-name="tildecomb" unicode="&#x303;" horiz-adv-x="1106" d="M-200 1491 Q-200 1446 -215.5 1405 Q-231 1364 -258 1333.5 Q-285 1303 -323 1285 Q-361 1267 -406 1267 Q-439 1267 -465 1274 Q-491 1281 -512.5 1291.5 Q-534 1302 -553 1314.5 Q-572 1327 -591.5 1337.5 Q-611 1348 -633 1355 Q-655 1362 -682 1362 Q-726 1362 -754.5 1329.5 Q-783 1297 -784 1251 L-888 1275 Q-888 1320 -872.5 1361.5 Q-857 1403 -830 1434.5 Q-803 1466 -765.5 1485 Q-728 1504 -682 1504 Q-640 1504 -606.5 1489 Q-573 1474 -541.5 1456.5 Q-510 1439 -477.5 1424 Q-445 1409 -406 1409 Q-385 1409 -366 1418 Q-347 1427 -333.5 1442 Q-320 1457 -311.5 1477.5 Q-303 1498 -303 1521 L-200 1491 Z " />
<glyph glyph-name="hook" unicode="&#x309;" horiz-adv-x="1106" d="M-657 1241 L-658 1394 Q-587 1399 -550 1413 Q-513 1427 -513 1468 Q-513 1490 -526.5 1505 Q-540 1520 -563 1529 Q-586 1538 -616 1542 Q-646 1546 -679 1546 L-672 1652 Q-528 1652 -448.5 1602 Q-369 1552 -369 1464 Q-369 1426 -382.5 1399 Q-396 1372 -418 1354 Q-440 1336 -468 1326 Q-496 1316 -524 1312 L-525 1241 L-657 1241 Z " />
<glyph glyph-name="uni030F" unicode="&#x30f;" horiz-adv-x="1106" d="M-544 1252 L-713 1252 L-1019 1518 L-794 1518 L-544 1252 Z M-283 1252 L-433 1252 L-679 1518 L-472 1518 L-283 1252 Z " />
<glyph glyph-name="dotbelow" unicode="&#x323;" horiz-adv-x="1106" d="M-729 -235 Q-729 -187 -700 -155 Q-671 -123 -614 -123 Q-557 -123 -528 -155 Q-499 -187 -499 -235 Q-499 -281 -528 -312.5 Q-557 -344 -614 -344 Q-671 -344 -700 -312.5 Q-729 -281 -729 -235 Z " />
<glyph glyph-name="tonos" unicode="&#x384;" horiz-adv-x="1229" d="M618 1658 L813 1658 L643 1271 L553 1271 L618 1658 Z " />
<glyph glyph-name="dieresistonos" unicode="&#x385;" horiz-adv-x="1229" d="M628 1727 L833 1727 L715 1463 L580 1463 L628 1727 Z M275 1360 Q275 1408 303.5 1440 Q332 1472 389 1472 Q446 1472 475 1440 Q504 1408 504 1360 Q504 1314 475 1282 Q446 1250 389 1250 Q332 1250 303.5 1282 Q275 1314 275 1360 Z M782 1360 Q782 1408 810.5 1440 Q839 1472 896 1472 Q953 1472 982 1440 Q1011 1408 1011 1360 Q1011 1314 982 1282 Q953 1250 896 1250 Q839 1250 810.5 1282 Q782 1314 782 1360 Z " />
<glyph glyph-name="anoteleia" unicode="&#x387;" horiz-adv-x="1229" d="M560 729 Q560 777 589 809 Q618 841 675 841 Q731 841 760.5 809 Q790 777 790 729 Q790 682 760.5 650.5 Q731 619 675 619 Q618 619 589 650.5 Q560 682 560 729 Z " />
<glyph glyph-name="Gamma" unicode="&#x393;" horiz-adv-x="1229" d="M1072 1304 L367 1304 L367 0 L181 0 L181 1456 L1072 1456 L1072 1304 Z " />
<glyph glyph-name="&amp;#x394;" unicode="&#x394;" horiz-adv-x="1229" d="M564 1456 L724 1456 L1204 0 L46 0 L564 1456 Z M286 151 L967 151 L641 1203 L286 151 Z " />
<glyph glyph-name="&amp;#x2206;" unicode="&#x2206;" horiz-adv-x="1229" d="M564 1456 L724 1456 L1204 0 L46 0 L564 1456 Z M286 151 L967 151 L641 1203 L286 151 Z " />
<glyph glyph-name="Theta" unicode="&#x398;" horiz-adv-x="1229" d="M845 660 L381 660 L381 811 L845 811 L845 660 Z M1121 644 Q1120 566 1107.5 486.5 Q1095 407 1069 333 Q1043 259 1002.5 195 Q962 131 906 83 Q850 35 777.5 7.5 Q705 -20 615 -20 Q525 -20 452.5 7.5 Q380 35 324 83 Q268 131 227 195.5 Q186 260 159.5 334 Q133 408 120 487 Q107 566 106 644 L106 810 Q107 888 119.5 967.5 Q132 1047 158.5 1121 Q185 1195 225.5 1259.5 Q266 1324 322 1372.5 Q378 1421 450.5 1448.5 Q523 1476 613 1476 Q703 1476 776 1448.5 Q849 1421 905 1373 Q961 1325 1001.5 1260.5 Q1042 1196 1068.5 1122 Q1095 1048 1107.5 968 Q1120 888 1121 810 L1121 644 Z M938 812 Q937 864 931 920.5 Q925 977 910.5 1032.5 Q896 1088 872 1138.5 Q848 1189 812 1227.5 Q776 1266 727 1288.5 Q678 1311 613 1311 Q549 1311 500 1288 Q451 1265 415 1226.5 Q379 1188 355 1137.5 Q331 1087 316.5 1031.5 Q302 976 295.5 919.5 Q289 863 288 812 L288 644 Q289 593 295.5 536 Q302 479 317 423.5 Q332 368 356 317 Q380 266 416 227.5 Q452 189 501 166 Q550 143 615 143 Q680 143 729.5 166 Q779 189 814.5 227.5 Q850 266 873.5 316.5 Q897 367 911.5 422.5 Q926 478 931.5 535 Q937 592 938 644 L938 812 Z " />
<glyph glyph-name="Lambda" unicode="&#x39b;" horiz-adv-x="1229" d="M618 1180 L243 0 L54 0 L538 1456 L699 1456 L1184 0 L995 0 L618 1180 Z " />
<glyph glyph-name="Xi" unicode="&#x39e;" horiz-adv-x="1229" d="M145 151 L1079 151 L1079 0 L145 0 L145 151 Z M230 830 L984 830 L984 678 L230 678 L230 830 Z M147 1456 L1065 1456 L1065 1304 L147 1304 L147 1456 Z " />
<glyph glyph-name="Pi" unicode="&#x3a0;" horiz-adv-x="1229" d="M1066 0 L881 0 L881 1304 L347 1304 L347 0 L162 0 L162 1456 L1066 1456 L1066 0 Z " />
<glyph glyph-name="Sigma" unicode="&#x3a3;" horiz-adv-x="1229" d="M793 717 L341 152 L1135 152 L1135 0 L112 0 L112 144 L597 729 L112 1312 L112 1456 L1085 1456 L1085 1304 L342 1304 L793 742 L793 717 Z " />
<glyph glyph-name="Phi" unicode="&#x3a6;" horiz-adv-x="1229" d="M707 1250 Q804 1242 886.5 1201 Q969 1160 1029.5 1091 Q1090 1022 1124.5 929 Q1159 836 1159 725 Q1159 613 1124.5 519.5 Q1090 426 1029.5 356.5 Q969 287 886.5 245 Q804 203 707 196 L707 0 L522 0 L522 196 Q424 203 341.5 244 Q259 285 198 354 Q137 423 103 517 Q69 611 69 723 Q69 834 103 928 Q137 1022 198 1091 Q259 1160 341.5 1201.5 Q424 1243 522 1250 L522 1456 L707 1456 L707 1250 Z M252 723 Q252 643 270 576.5 Q288 510 322.5 461.5 Q357 413 407 383.5 Q457 354 522 348 L522 1098 Q457 1091 407 1061.5 Q357 1032 322.5 983 Q288 934 270 868 Q252 802 252 723 Z M975 725 Q975 804 957 869.5 Q939 935 904.5 983.5 Q870 1032 820.5 1061.5 Q771 1091 707 1098 L707 348 Q771 355 820.5 384.5 Q870 414 904.5 463 Q939 512 957 578.5 Q975 645 975 725 Z " />
<glyph glyph-name="Psi" unicode="&#x3a8;" horiz-adv-x="1229" d="M711 479 Q766 491 810.5 519 Q855 547 886.5 592 Q918 637 935.5 699.5 Q953 762 953 842 L953 1456 L1138 1456 L1138 842 Q1138 724 1106.5 632.5 Q1075 541 1019 476 Q963 411 884 373 Q805 335 711 324 L711 0 L526 0 L526 324 Q431 335 353 373 Q275 411 219 476 Q163 541 132 632.5 Q101 724 101 842 L101 1456 L286 1456 L286 842 Q286 762 303 700 Q320 638 351.5 593 Q383 548 427.5 520 Q472 492 526 480 L526 1456 L711 1456 L711 479 Z " />
<glyph glyph-name="&amp;#x3a9;" unicode="&#x3a9;" horiz-adv-x="1229" d="M680 193 Q808 222 876 366 Q944 510 944 759 L944 840 Q944 957 921.5 1047.5 Q899 1138 856.5 1199.5 Q814 1261 752 1293 Q690 1325 612 1325 Q535 1325 474 1293 Q413 1261 370.5 1199.5 Q328 1138 305 1047.5 Q282 957 282 840 L282 759 Q283 508 353.5 365 Q424 222 553 193 L553 0 L101 0 L101 151 L363 151 Q301 198 251.5 265.5 Q202 333 167.5 413.5 Q133 494 115 582 Q97 670 97 759 L97 838 Q97 977 133.5 1094.5 Q170 1212 237.5 1296.5 Q305 1381 400 1428.5 Q495 1476 612 1476 Q729 1476 824.5 1428.5 Q920 1381 987.5 1296.5 Q1055 1212 1092 1094.5 Q1129 977 1129 838 L1129 759 Q1129 670 1111 581.5 Q1093 493 1059.5 413 Q1026 333 977 265.5 Q928 198 866 151 L1132 151 L1132 0 L680 0 L680 193 Z " />
<glyph glyph-name="&amp;#x2126;" unicode="&#x2126;" horiz-adv-x="1229" d="M680 193 Q808 222 876 366 Q944 510 944 759 L944 840 Q944 957 921.5 1047.5 Q899 1138 856.5 1199.5 Q814 1261 752 1293 Q690 1325 612 1325 Q535 1325 474 1293 Q413 1261 370.5 1199.5 Q328 1138 305 1047.5 Q282 957 282 840 L282 759 Q283 508 353.5 365 Q424 222 553 193 L553 0 L101 0 L101 151 L363 151 Q301 198 251.5 265.5 Q202 333 167.5 413.5 Q133 494 115 582 Q97 670 97 759 L97 838 Q97 977 133.5 1094.5 Q170 1212 237.5 1296.5 Q305 1381 400 1428.5 Q495 1476 612 1476 Q729 1476 824.5 1428.5 Q920 1381 987.5 1296.5 Q1055 1212 1092 1094.5 Q1129 977 1129 838 L1129 759 Q1129 670 1111 581.5 Q1093 493 1059.5 413 Q1026 333 977 265.5 Q928 198 866 151 L1132 151 L1132 0 L680 0 L680 193 Z " />
<glyph glyph-name="alpha" unicode="&#x3b1;" horiz-adv-x="1229" d="M1007 1082 L1007 277 Q1007 239 1013 213.5 Q1019 188 1029.5 173 Q1040 158 1054.5 151.5 Q1069 145 1087 145 Q1102 145 1115.5 147 Q1129 149 1139 151 L1162 13 Q1131 -8 1101.5 -14.5 Q1072 -21 1040 -21 Q965 -21 915.5 12.5 Q866 46 842 120 Q788 51 711 15 Q634 -21 531 -21 Q433 -21 358 18.5 Q283 58 232 127.5 Q181 197 155 292.5 Q129 388 129 500 L129 521 Q129 646 155 752.5 Q181 859 232 936.5 Q283 1014 358.5 1058 Q434 1102 533 1102 Q637 1102 714.5 1064 Q792 1026 846 955 L895 1082 L1007 1082 Z M314 500 Q314 425 328 358 Q342 291 373.5 240.5 Q405 190 455 160 Q505 130 576 130 Q665 130 724.5 171 Q784 212 822 277 L822 808 Q803 839 779 865 Q755 891 724.5 910 Q694 929 657.5 939.5 Q621 950 578 950 Q506 950 455.5 915 Q405 880 373.5 820.5 Q342 761 328 683.5 Q314 606 314 521 L314 500 Z " />
<glyph glyph-name="beta" unicode="&#x3b2;" horiz-adv-x="1229" d="M619 1476 Q716 1476 795 1447.5 Q874 1419 930 1366.5 Q986 1314 1016.5 1242 Q1047 1170 1047 1083 Q1047 991 998 915.5 Q949 840 861 793 Q982 749 1048.5 652 Q1115 555 1115 424 Q1115 317 1081 234.5 Q1047 152 986 95 Q925 38 842 8.5 Q759 -21 661 -21 Q580 -21 501 2 Q422 25 360 75 L360 -384 L174 -384 L174 1073 Q174 1155 209.5 1228.5 Q245 1302 305.5 1357 Q366 1412 446.5 1444 Q527 1476 619 1476 Z M615 858 Q679 858 726 875 Q773 892 803 922 Q833 952 847.5 994 Q862 1036 862 1087 Q862 1133 846 1176 Q830 1219 799 1252 Q768 1285 722.5 1305 Q677 1325 619 1325 Q564 1325 516.5 1305.5 Q469 1286 434.5 1252 Q400 1218 380 1172 Q360 1126 360 1073 L360 246 Q405 193 477 161.5 Q549 130 642 130 Q709 130 762.5 151.5 Q816 173 853 211.5 Q890 250 910 303.5 Q930 357 930 420 Q930 473 913 524 Q896 575 863 615.5 Q830 656 782.5 681 Q735 706 674 706 L531 706 L531 858 L615 858 Z " />
<glyph glyph-name="gamma" unicode="&#x3b3;" horiz-adv-x="1229" d="M984 1082 L1174 1082 L716 47 L716 -416 L530 -416 L530 54 L71 1082 L261 1082 L601 298 L625 201 L651 298 L984 1082 Z " />
<glyph glyph-name="delta" unicode="&#x3b4;" horiz-adv-x="1229" d="M263 1269 Q263 1338 290 1393 Q317 1448 366.5 1486 Q416 1524 486 1544 Q556 1564 642 1564 Q722 1564 801.5 1540.5 Q881 1517 956 1479 L915 1349 Q892 1358 860.5 1369 Q829 1380 793 1389.5 Q757 1399 718 1405.5 Q679 1412 639 1412 Q597 1412 562.5 1402 Q528 1392 503 1374 Q478 1356 464 1330.5 Q450 1305 450 1274 Q450 1252 461.5 1228.5 Q473 1205 500 1181 Q527 1157 571.5 1133 Q616 1109 683 1086 Q903 1013 1014.5 875 Q1126 737 1126 530 L1126 509 Q1126 396 1092 299.5 Q1058 203 993.5 132 Q929 61 836 20.5 Q743 -20 625 -20 Q505 -20 411.5 20.5 Q318 61 253 132 Q188 203 154 299.5 Q120 396 120 509 L120 530 Q120 617 147 693 Q174 769 220.5 829 Q267 889 330.5 930 Q394 971 466 988 L470 999 Q423 1018 385 1045 Q347 1072 320 1106.5 Q293 1141 278 1181.5 Q263 1222 263 1269 Z M306 509 Q306 432 325 363 Q344 294 383.5 242.5 Q423 191 483 160.5 Q543 130 625 130 Q706 130 765 160.5 Q824 191 863 242.5 Q902 294 921 363 Q940 432 940 509 L940 530 Q940 593 917.5 655.5 Q895 718 854 770.5 Q813 823 755.5 860.5 Q698 898 627 910 Q546 911 486 880.5 Q426 850 386 797.5 Q346 745 326 675.5 Q306 606 306 530 L306 509 Z " />
<glyph glyph-name="epsilon" unicode="&#x3b5;" horiz-adv-x="1229" d="M618 478 Q473 478 399 437.5 Q325 397 325 304 Q325 267 345 235 Q365 203 403.5 179.5 Q442 156 499 142.5 Q556 129 630 129 Q696 129 752 144 Q808 159 848.5 185.5 Q889 212 912 246.5 Q935 281 935 320 L1120 320 Q1119 261 1099.5 212.5 Q1080 164 1045.5 126.5 Q1011 89 964 61.5 Q917 34 863 15.5 Q809 -3 749.5 -11.5 Q690 -20 630 -20 Q522 -20 432 1.5 Q342 23 276.5 64.5 Q211 106 175 166 Q139 226 139 304 Q139 399 195.5 462 Q252 525 358 556 Q263 591 210.5 651.5 Q158 712 158 787 Q158 865 191 923.5 Q224 982 285.5 1021.5 Q347 1061 434.5 1081 Q522 1101 630 1101 Q725 1101 810.5 1079 Q896 1057 960.5 1015.5 Q1025 974 1063 914.5 Q1101 855 1102 780 L917 780 Q917 817 893.5 848.5 Q870 880 831 902.5 Q792 925 740 938 Q688 951 630 951 Q555 951 501 938 Q447 925 412 902.5 Q377 880 360.5 850 Q344 820 344 786 Q344 749 359 719.5 Q374 690 407 669 Q440 648 492 637 Q544 626 618 626 L861 626 L861 478 L618 478 Z " />
<glyph glyph-name="zeta" unicode="&#x3b6;" horiz-adv-x="1229" d="M1071 1456 L1071 1336 L662 909 Q593 843 538 784.5 Q483 726 444.5 666 Q406 606 385.5 541 Q365 476 365 398 Q365 299 411 250 Q457 201 547 183 L768 133 Q822 121 870 108 Q918 95 953 72 Q988 49 1008.5 11.5 Q1029 -26 1029 -88 Q1028 -127 1010.5 -170 Q993 -213 967 -252.5 Q941 -292 909.5 -326.5 Q878 -361 850 -383 L752 -299 Q801 -245 826 -202.5 Q851 -160 851 -116 Q851 -81 813.5 -53 Q776 -25 696 -9 L515 26 Q426 42 362.5 71.5 Q299 101 258.5 145.5 Q218 190 199 251 Q180 312 180 393 Q180 450 201 517.5 Q222 585 265.5 661 Q309 737 376 819 Q443 901 535 988 L841 1304 L117 1304 L117 1456 L1071 1456 Z " />
<glyph glyph-name="eta" unicode="&#x3b7;" horiz-adv-x="1229" d="M331 1082 L344 922 Q399 1006 484 1053.5 Q569 1101 681 1102 Q771 1102 842 1080 Q913 1058 963 1008.5 Q1013 959 1040 879.5 Q1067 800 1067 685 L1067 -415 L881 -415 L881 681 Q881 825 817 887.5 Q753 950 626 950 Q525 950 457 911.5 Q389 873 350 808 L350 0 L164 0 L164 1082 L331 1082 Z " />
<glyph glyph-name="theta" unicode="&#x3b8;" horiz-adv-x="1229" d="M1048 557 Q1048 419 1019.5 311.5 Q991 204 936 130.5 Q881 57 801 18.5 Q721 -20 618 -20 Q516 -20 435.5 18.5 Q355 57 299.5 130.5 Q244 204 214.5 311.5 Q185 419 185 557 L185 898 Q185 1036 214 1143.5 Q243 1251 298 1325.5 Q353 1400 433.5 1438.5 Q514 1477 616 1477 Q719 1477 799.5 1438.5 Q880 1400 935 1325.5 Q990 1251 1019 1143.5 Q1048 1036 1048 898 L1048 557 Z M863 659 L370 659 L370 518 Q370 332 430.5 231 Q491 130 618 130 Q745 130 804 231 Q863 332 863 518 L863 659 Z M370 810 L863 810 L863 939 Q863 1125 803.5 1225 Q744 1325 616 1325 Q489 1325 429.5 1225 Q370 1125 370 939 L370 810 Z " />
<glyph glyph-name="iota" unicode="&#x3b9;" horiz-adv-x="1229" d="M184 1082 L721 1082 L722 322 Q722 257 735.5 219.5 Q749 182 772.5 163.5 Q796 145 826 140 Q856 135 889 135 Q934 135 973 149 Q1012 163 1041 180 L1082 50 Q1020 6 962 -7 Q904 -20 842 -20 Q770 -20 713.5 -3 Q657 14 617.5 55 Q578 96 557 163.5 Q536 231 536 332 L536 921 L184 921 L184 1082 Z " />
<glyph glyph-name="lambda" unicode="&#x3bb;" horiz-adv-x="1229" d="M263 0 L57 0 L452 1032 L397 1175 Q383 1210 366 1244.5 Q349 1279 327 1306 Q305 1333 277.5 1349.5 Q250 1366 216 1366 Q203 1366 183 1364 Q163 1362 150 1361 L149 1503 Q167 1508 197 1513 Q227 1518 252 1518 Q324 1518 377 1491 Q430 1464 467.5 1423.5 Q505 1383 529.5 1335.5 Q554 1288 569 1248 L931 298 Q941 265 955.5 237 Q970 209 987 188.5 Q1004 168 1025 156 Q1046 144 1070 144 Q1078 144 1083 144 Q1088 144 1092.5 145 Q1097 146 1102 146.5 Q1107 147 1116 149 L1114 -2 Q1103 -8 1085 -12.5 Q1067 -17 1055 -17 Q996 -17 950 0 Q904 17 867.5 50.5 Q831 84 802.5 134 Q774 184 750 250 L538 805 L509 686 L263 0 Z " />
<glyph glyph-name="xi" unicode="&#x3be;" horiz-adv-x="1229" d="M1015 1288 Q958 1303 901.5 1313.5 Q845 1324 784 1324 Q689 1324 621.5 1309 Q554 1294 510.5 1268.5 Q467 1243 446.5 1209 Q426 1175 426 1136 Q426 1085 447 1044.5 Q468 1004 514.5 975.5 Q561 947 633.5 932 Q706 917 808 917 L950 917 L950 765 L808 765 Q587 765 473.5 687 Q360 609 360 444 Q360 376 387.5 325 Q415 274 461.5 237 Q508 200 569.5 177 Q631 154 698 142 L809 117 Q863 104 910.5 91.5 Q958 79 993.5 56.5 Q1029 34 1049.5 -3 Q1070 -40 1070 -101 Q1069 -140 1051.5 -182 Q1034 -224 1007.5 -263.5 Q981 -303 950 -337 Q919 -371 892 -393 L795 -309 Q819 -282 837 -261 Q855 -240 867.5 -219.5 Q880 -199 886.5 -176.5 Q893 -154 893 -125 Q892 -81 853 -59.5 Q814 -38 737 -21 L679 -8 Q565 14 472 46.5 Q379 79 313 130.5 Q247 182 211 259 Q175 336 175 448 Q175 524 198.5 587 Q222 650 266.5 699 Q311 748 374 784 Q437 820 516 842 Q451 863 400 892.5 Q349 922 313.5 959 Q278 996 259 1039.5 Q240 1083 240 1132 Q240 1215 277.5 1279 Q315 1343 385.5 1387 Q456 1431 556 1453.5 Q656 1476 782 1476 Q853 1476 923 1465 Q993 1454 1041 1437 L1015 1288 Z " />
<glyph glyph-name="pi" unicode="&#x3c0;" horiz-adv-x="1229" d="M1100 929 L957 929 L957 268 Q957 224 965 198.5 Q973 173 987 159 Q1001 145 1019.5 141 Q1038 137 1060 137 Q1086 137 1110.5 145 Q1135 153 1152 162 L1193 32 Q1146 0 1102.5 -9.5 Q1059 -19 1012 -19 Q955 -19 910 -4 Q865 11 834.5 45.5 Q804 80 788 137 Q772 194 772 278 L772 929 L406 929 L406 0 L221 0 L221 929 L89 929 L89 1082 L1100 1082 L1100 929 Z " />
<glyph glyph-name="rho" unicode="&#x3c1;" horiz-adv-x="1229" d="M1094 500 Q1094 388 1067 292.5 Q1040 197 987.5 127.5 Q935 58 857.5 19 Q780 -20 678 -20 Q572 -20 490.5 14 Q409 48 350 112 L350 -416 L165 -416 L165 577 L165 578 Q165 705 201.5 803 Q238 901 301.5 967.5 Q365 1034 449.5 1068 Q534 1102 630 1102 Q747 1102 834.5 1058 Q922 1014 979.5 936.5 Q1037 859 1065.5 753 Q1094 647 1094 521 L1094 500 Z M909 521 Q909 606 894 684 Q879 762 846 821 Q813 880 760 915 Q707 950 630 950 Q581 950 541 934 Q501 918 470 890 Q439 862 416.5 825 Q394 788 379.5 746.5 Q365 705 357.5 661.5 Q350 618 350 577 L350 284 Q369 251 395 222.5 Q421 194 454.5 173.5 Q488 153 530 141.5 Q572 130 623 130 Q699 130 753.5 159.5 Q808 189 842.5 240 Q877 291 893 358 Q909 425 909 500 L909 521 Z " />
<glyph glyph-name="sigma1" unicode="&#x3c2;" horiz-adv-x="1229" d="M614 1102 Q714 1102 798 1075.5 Q882 1049 942.5 998.5 Q1003 948 1037.5 875 Q1072 802 1072 709 L897 709 Q897 759 879 803 Q861 847 826 879.5 Q791 912 738 931 Q685 950 614 950 Q533 950 474.5 915.5 Q416 881 378.5 825.5 Q341 770 323.5 701 Q306 632 306 562 L306 520 Q306 452 327.5 390.5 Q349 329 393.5 280 Q438 231 506 196.5 Q574 162 666 149 Q752 137 821 120.5 Q890 104 939 76 Q988 48 1014 4.5 Q1040 -39 1040 -105 Q1039 -164 1016 -213.5 Q993 -263 956.5 -303 Q920 -343 875 -373 Q830 -403 785 -423 L708 -300 Q730 -290 757 -274.5 Q784 -259 807.5 -236.5 Q831 -214 847 -184 Q863 -154 863 -114 Q864 -63 808 -38.5 Q752 -14 644 0 Q514 19 416 63 Q318 107 252.5 173.5 Q187 240 153.5 327.5 Q120 415 120 520 L120 562 Q120 670 153 767.5 Q186 865 249 939.5 Q312 1014 403.5 1058 Q495 1102 614 1102 Z " />
<glyph glyph-name="sigma" unicode="&#x3c3;" horiz-adv-x="1229" d="M1158 929 L875 929 Q972 857 1023.5 751.5 Q1075 646 1075 514 L1075 491 Q1075 392 1042.5 300 Q1010 208 948.5 137 Q887 66 797 23 Q707 -20 593 -20 Q478 -20 388 22 Q298 64 236 138 Q174 212 141.5 312 Q109 412 109 529 L109 551 Q109 663 141.5 760.5 Q174 858 236 929 Q298 1000 387.5 1041 Q477 1082 591 1082 L1158 1082 L1158 929 Z M294 529 Q294 449 312 376.5 Q330 304 366.5 249 Q403 194 459.5 162 Q516 130 593 130 Q669 130 725 162 Q781 194 818 249 Q855 304 872.5 376.5 Q890 449 890 529 L890 551 Q890 627 872 695.5 Q854 764 817.5 816 Q781 868 724.5 898.5 Q668 929 591 929 Q515 929 459 898.5 Q403 868 366.5 816 Q330 764 312 695.5 Q294 627 294 551 L294 529 Z " />
<glyph glyph-name="tau" unicode="&#x3c4;" horiz-adv-x="1229" d="M1074 924 L719 924 L718 324 Q718 260 731.5 222.5 Q745 185 767 166 Q789 147 818 141.5 Q847 136 880 136 Q924 136 962.5 149.5 Q1001 163 1028 180 L1069 49 Q1039 27 1009.5 13.5 Q980 0 951 -7.5 Q922 -15 892.5 -18 Q863 -21 833 -21 Q761 -21 705.5 -3 Q650 15 611.5 56.5 Q573 98 553 165.5 Q533 233 533 334 L533 924 L173 924 L173 1082 L1074 1082 L1074 924 Z " />
<glyph glyph-name="upsilon" unicode="&#x3c5;" horiz-adv-x="1229" d="M343 1082 L343 463 Q343 374 362 311 Q381 248 416 207.5 Q451 167 500.5 148.5 Q550 130 610 130 Q687 130 742 168.5 Q797 207 832.5 268.5 Q868 330 885 407 Q902 484 902 562 Q899 696 864.5 826.5 Q830 957 778 1082 L973 1082 Q996 1034 1016.5 977.5 Q1037 921 1053 856 Q1069 791 1078 717.5 Q1087 644 1087 562 Q1087 448 1061 342.5 Q1035 237 979 156.5 Q923 76 834 28 Q745 -20 619 -20 Q509 -20 423.5 9 Q338 38 279 97.5 Q220 157 189 248.5 Q158 340 158 465 L158 1082 L343 1082 Z " />
<glyph glyph-name="phi" unicode="&#x3c6;" horiz-adv-x="1229" d="M525 -14 Q412 1 333.5 52.5 Q255 104 205 179.5 Q155 255 132.5 349.5 Q110 444 110 546 Q110 716 171.5 853.5 Q233 991 361 1082 L462 949 Q417 908 386 859 Q355 810 335.5 757.5 Q316 705 306.5 651 Q297 597 295 545 Q295 481 307.5 417 Q320 353 347 298.5 Q374 244 418 202.5 Q462 161 525 143 L525 835 Q525 883 540 927.5 Q555 972 585.5 1006.5 Q616 1041 663 1061.5 Q710 1082 774 1082 Q852 1082 919 1040 Q986 998 1036 925.5 Q1086 853 1114.5 754.5 Q1143 656 1143 544 Q1143 443 1119 349 Q1095 255 1043 179 Q991 103 909 51.5 Q827 0 710 -15 L710 -478 L525 -478 L525 -14 Z M710 141 Q777 159 824 200 Q871 241 901 296.5 Q931 352 944.5 416.5 Q958 481 958 544 Q956 614 944.5 683 Q933 752 910.5 806.5 Q888 861 854 895 Q820 929 774 929 Q741 929 726 905 Q711 881 710 842 L710 141 Z " />
<glyph glyph-name="psi" unicode="&#x3c8;" horiz-adv-x="1229" d="M700 1082 L700 140 Q773 158 824 201 Q875 244 906.5 302.5 Q938 361 952.5 430 Q967 499 967 567 Q965 701 940.5 829 Q916 957 878 1082 L1073 1082 Q1105 987 1128.5 859 Q1152 731 1152 567 Q1152 460 1128 361 Q1104 262 1050.5 183 Q997 104 911 51.5 Q825 -1 700 -15 L700 -472 L515 -472 L515 -13 Q416 1 338.5 45 Q261 89 207 165 Q153 241 125 348.5 Q97 456 97 596 L97 1082 L282 1082 L282 594 Q282 491 298.5 413 Q315 335 345.5 279.5 Q376 224 419 190.5 Q462 157 515 142 L515 1082 L700 1082 Z " />
<glyph glyph-name="omega" unicode="&#x3c9;" horiz-adv-x="1229" d="M369 1082 Q324 956 295 825.5 Q266 695 264 560 Q264 476 270 398.5 Q276 321 290.5 261 Q305 201 328 165.5 Q351 130 385 130 Q452 130 489.5 213 Q527 296 527 471 L527 770 L713 770 L713 471 Q713 296 750.5 213 Q788 130 854 130 Q888 130 911.5 165.5 Q935 201 949.5 260 Q964 319 970 397 Q976 475 976 560 Q974 695 945 825.5 Q916 956 871 1082 L1065 1082 Q1105 985 1133 855 Q1161 725 1161 560 Q1161 449 1146 344.5 Q1131 240 1096 159 Q1061 78 1004 29 Q947 -20 864 -20 Q774 -20 713 34.5 Q652 89 620 191 Q587 89 526.5 34.5 Q466 -20 376 -20 Q293 -20 236 29 Q179 78 144 159 Q109 240 94 344.5 Q79 449 79 560 Q79 725 107 855 Q135 985 175 1082 L369 1082 Z " />
<glyph glyph-name="uni03D1" unicode="&#x3d1;" horiz-adv-x="1229" d="M1177 627 Q1110 603 1033 595 L1033 435 Q1033 326 1002 241 Q971 156 915 98 Q859 40 779.5 10 Q700 -20 602 -20 Q500 -20 417 12.5 Q334 45 275.5 104.5 Q217 164 184.5 248 Q152 332 152 435 L152 769 L338 771 L338 435 Q338 366 356 310.5 Q374 255 408 216.5 Q442 178 491 157.5 Q540 137 602 137 Q720 136 784 210.5 Q848 285 848 435 L848 601 Q738 617 648.5 662 Q559 707 495.5 774.5 Q432 842 397 929 Q362 1016 362 1116 L362 1131 Q362 1212 387 1276.5 Q412 1341 456 1386 Q500 1431 561 1454.5 Q622 1478 696 1478 Q775 1478 838 1452.5 Q901 1427 944 1379 Q987 1331 1010 1262 Q1033 1193 1033 1105 L1033 752 Q1068 755 1102 761.5 Q1136 768 1168 776 L1177 627 Z M548 1114 Q548 1051 568 994 Q588 937 626.5 891 Q665 845 721 812 Q777 779 848 763 L848 1105 Q848 1214 811 1267 Q774 1320 696 1320 Q629 1320 588.5 1275.5 Q548 1231 548 1131 L548 1114 Z " />
<glyph glyph-name="uni03D2" unicode="&#x3d2;" horiz-adv-x="1229" d="M825 1239 Q851 1302 879 1346 Q907 1390 938.5 1417 Q970 1444 1005 1455.5 Q1040 1467 1080 1467 Q1108 1467 1134.5 1463.5 Q1161 1460 1188 1443 L1166 1294 Q1152 1303 1122 1303 Q1087 1303 1057.5 1284 Q1028 1265 1010 1225 L714 580 L714 0 L530 0 L530 576 L232 1225 Q214 1264 184.5 1283.5 Q155 1303 120 1303 Q91 1303 77 1294 L54 1443 Q81 1460 107.5 1463.5 Q134 1467 163 1467 Q202 1467 237 1455.5 Q272 1444 303.5 1417 Q335 1390 363.5 1346 Q392 1302 418 1239 L597 832 L621 744 L645 832 L825 1239 Z " />
<glyph glyph-name="uni03D6" unicode="&#x3d6;" horiz-adv-x="1229" d="M1174 929 L1048 929 Q1080 823 1101 697.5 Q1122 572 1122 432 Q1122 343 1107.5 261.5 Q1093 180 1060.5 117.5 Q1028 55 974.5 17.5 Q921 -20 843 -20 Q753 -20 692 34.5 Q631 89 599 192 Q567 90 506.5 35 Q446 -20 356 -20 Q278 -20 224.5 17.5 Q171 55 138.5 117.5 Q106 180 91.5 261.5 Q77 343 77 432 Q77 572 97.5 697.5 Q118 823 151 929 L46 929 L46 1082 L1174 1082 L1174 929 Z M936 431 Q934 555 910.5 681.5 Q887 808 849 929 L350 929 Q312 808 288.5 681.5 Q265 555 263 431 Q263 372 268 317.5 Q273 263 285 221.5 Q297 180 316.5 155 Q336 130 366 130 Q433 130 470 213 Q507 296 507 471 L507 722 L693 722 L693 471 Q693 296 730 213 Q767 130 834 130 Q863 130 882.5 154.5 Q902 179 914 220 Q926 261 931 316 Q936 371 936 431 Z " />
<glyph glyph-name="uni0402" unicode="&#x402;" horiz-adv-x="1229" d="M1085 1304 L573 1304 L573 849 Q603 851 633.5 853 Q664 855 695 855 Q803 855 887.5 823 Q972 791 1030 732 Q1088 673 1118 587.5 Q1148 502 1148 396 Q1148 198 1047 93.5 Q946 -11 754 -11 L752 134 Q810 134 850.5 152.5 Q891 171 915.5 205 Q940 239 951 287.5 Q962 336 962 396 Q961 535 896.5 614 Q832 693 695 693 Q663 693 633 691 Q603 689 573 687 L573 0 L389 0 L389 1304 L42 1304 L42 1456 L1085 1456 L1085 1304 Z " />
<glyph glyph-name="uni0404" unicode="&#x404;" horiz-adv-x="1229" d="M1131 439 Q1121 338 1085 253.5 Q1049 169 986.5 108 Q924 47 836 13.5 Q748 -20 634 -20 Q517 -20 423.5 23.5 Q330 67 264.5 145.5 Q199 224 164 332.5 Q129 441 129 572 L129 885 Q129 1016 164 1125 Q199 1234 264.5 1312 Q330 1390 423.5 1433.5 Q517 1477 634 1477 Q748 1477 836 1445.5 Q924 1414 986.5 1354 Q1049 1294 1085 1207.5 Q1121 1121 1131 1011 L946 1011 Q936 1086 914 1145 Q892 1204 855 1244 Q818 1284 763.5 1305 Q709 1326 634 1326 Q555 1326 495.5 1292.5 Q436 1259 395.5 1200.5 Q355 1142 334.5 1061.5 Q314 981 314 887 L314 812 L885 812 L885 660 L314 660 L314 572 Q314 477 334.5 396.5 Q355 316 395.5 257 Q436 198 495.5 164.5 Q555 131 634 131 Q709 131 763.5 150.5 Q818 170 855.5 208.5 Q893 247 914.5 304.5 Q936 362 946 439 L1131 439 Z " />
<glyph glyph-name="uni0409" unicode="&#x409;" horiz-adv-x="1229" d="M747 1456 L747 887 L838 887 Q922 887 986.5 852.5 Q1051 818 1094 758.5 Q1137 699 1159 618 Q1181 537 1181 443 Q1181 349 1159 268 Q1137 187 1094 127.5 Q1051 68 986.5 34 Q922 0 838 0 L562 0 L562 1304 L365 1304 L364 772 Q364 588 348.5 444.5 Q333 301 298 202 Q263 103 205 51.5 Q147 0 62 0 L30 0 L30 151 L52 151 Q124 151 151.5 308.5 Q179 466 180 772 L183 1456 L747 1456 Z M747 735 L747 151 L838 151 Q882 151 912.5 176.5 Q943 202 961.5 243.5 Q980 285 988.5 337.5 Q997 390 997 445 Q997 499 988.5 551 Q980 603 961 644 Q942 685 911.5 710 Q881 735 838 735 L747 735 Z " />
<glyph glyph-name="uni040A" unicode="&#x40a;" horiz-adv-x="1229" d="M315 825 L565 825 L565 1456 L749 1456 L749 839 L798 839 Q889 839 957.5 808 Q1026 777 1071.5 721.5 Q1117 666 1140 590 Q1163 514 1163 424 Q1163 334 1140 256.5 Q1117 179 1071.5 122 Q1026 65 957.5 32.5 Q889 0 798 0 L565 0 L565 673 L315 673 L315 0 L131 0 L131 1456 L315 1456 L315 825 Z M749 687 L749 161 L798 161 Q849 161 883.5 183.5 Q918 206 939.5 243 Q961 280 970 327.5 Q979 375 979 426 Q979 477 969.5 524 Q960 571 939 607 Q918 643 883.5 665 Q849 687 798 687 L749 687 Z " />
<glyph glyph-name="uni040B" unicode="&#x40b;" horiz-adv-x="1229" d="M1088 1304 L598 1304 L598 852 Q626 856 653 858 Q680 860 706 859 Q805 859 883.5 836 Q962 813 1016 764 Q1070 715 1099 639 Q1128 563 1128 457 L1128 0 L943 0 L943 457 Q943 525 929 572.5 Q915 620 885.5 650 Q856 680 811.5 693.5 Q767 707 706 707 Q650 707 598 701 L598 0 L413 0 L413 1304 L67 1304 L67 1456 L1088 1456 L1088 1304 Z " />
<glyph glyph-name="uni040F" unicode="&#x40f;" horiz-adv-x="1229" d="M162 1456 L347 1456 L347 151 L881 151 L881 1456 L1066 1456 L1066 0 L711 0 L711 -359 L526 -359 L526 0 L162 0 L162 1456 Z " />
<glyph glyph-name="uni0411" unicode="&#x411;" horiz-adv-x="1229" d="M1053 1304 L348 1304 L348 857 L614 857 Q730 857 820.5 827 Q911 797 973 741.5 Q1035 686 1067.5 608 Q1100 530 1100 433 Q1100 337 1067.5 257 Q1035 177 973 120 Q911 63 820.5 31.5 Q730 0 614 0 L162 0 L162 1456 L1053 1456 L1053 1304 Z M348 706 L348 151 L614 151 Q692 151 748.5 174 Q805 197 842 236 Q879 275 896.5 326.5 Q914 378 914 435 Q914 491 896.5 540.5 Q879 590 842 626.5 Q805 663 748.5 684.5 Q692 706 614 706 L348 706 Z " />
<glyph glyph-name="uni0414" unicode="&#x414;" horiz-adv-x="1229" d="M1126 -357 L959 -357 L959 0 L254 0 L254 -359 L97 -359 L70 151 L135 151 Q181 181 216 237.5 Q251 294 276 381.5 Q301 469 316 590 Q331 711 336 871 L368 1456 L1017 1456 L1017 151 L1144 151 L1126 -357 Z M523 871 Q514 629 481 446.5 Q448 264 384 151 L832 151 L832 1304 L545 1304 L523 871 Z " />
<glyph glyph-name="uni0416" unicode="&#x416;" horiz-adv-x="1229" d="M763 651 L709 651 L709 0 L526 0 L526 651 L464 651 L259 0 L29 0 L298 727 L68 1456 L283 1456 L457 803 L526 803 L526 1456 L709 1456 L709 803 L771 803 L944 1456 L1160 1456 L928 729 L1198 0 L969 0 L763 651 Z " />
<glyph glyph-name="uni0417" unicode="&#x417;" horiz-adv-x="1229" d="M615 818 Q774 819 851 886.5 Q928 954 928 1066 Q928 1121 907.5 1168 Q887 1215 846 1250 Q805 1285 744 1305 Q683 1325 601 1325 Q538 1325 482 1306.5 Q426 1288 385 1254.5 Q344 1221 319.5 1175 Q295 1129 295 1075 L110 1075 Q110 1168 149.5 1242.5 Q189 1317 256.5 1368.5 Q324 1420 413 1448 Q502 1476 601 1476 Q716 1476 810.5 1450 Q905 1424 972.5 1372 Q1040 1320 1077 1242 Q1114 1164 1114 1062 Q1113 959 1049.5 877 Q986 795 876 747 Q1001 705 1068.5 620 Q1136 535 1136 406 Q1136 303 1095.5 223.5 Q1055 144 983.5 89.5 Q912 35 814 7 Q716 -21 601 -21 Q506 -21 414.5 3.5 Q323 28 251 80 Q179 132 134 212.5 Q89 293 89 404 L275 404 Q275 347 299 297 Q323 247 366 210 Q409 173 469 151.5 Q529 130 601 130 Q682 130 746.5 150 Q811 170 856.5 206 Q902 242 926 292 Q950 342 950 402 Q950 471 927.5 520.5 Q905 570 862 602.5 Q819 635 756.5 650.5 Q694 666 615 666 L432 666 L432 818 L615 818 Z " />
<glyph glyph-name="uni0418" unicode="&#x418;" horiz-adv-x="1229" d="M881 1456 L1066 1456 L1066 0 L881 0 L882 1073 L347 0 L162 0 L162 1456 L347 1456 L346 384 L881 1456 Z " />
<glyph glyph-name="uni041B" unicode="&#x41b;" horiz-adv-x="1229" d="M1067 1456 L1067 0 L882 0 L882 1304 L461 1304 L459 680 Q459 518 440 391.5 Q421 265 378.5 178 Q336 91 267 45.5 Q198 0 98 0 L47 0 L47 151 L87 151 Q189 151 231.5 285.5 Q274 420 274 680 L278 1456 L1067 1456 Z " />
<glyph glyph-name="uni0423" unicode="&#x423;" horiz-adv-x="1229" d="M559 759 L630 568 L990 1456 L1205 1456 L670 240 Q647 188 617.5 140.5 Q588 93 546 57 Q504 21 444.5 0 Q385 -21 302 -21 Q234 -21 181.5 -9 Q129 3 103 14 L127 155 Q140 152 158.5 147.5 Q177 143 198.5 139 Q220 135 241.5 132.5 Q263 130 282 130 Q328 130 363 143.5 Q398 157 424 179 Q450 201 468 229 Q486 257 499 285 L541 370 L43 1456 L251 1456 L559 759 Z " />
<glyph glyph-name="uni0426" unicode="&#x426;" horiz-adv-x="1229" d="M166 1456 L351 1456 L351 151 L872 151 L872 1456 L1057 1456 L1057 156 L1204 156 L1186 -351 L1020 -351 L1020 0 L166 0 L166 1456 Z " />
<glyph glyph-name="uni0427" unicode="&#x427;" horiz-adv-x="1229" d="M1063 1456 L1063 0 L878 0 L878 603 Q845 591 812 582 Q779 573 743.5 566 Q708 559 667.5 555.5 Q627 552 579 552 Q482 552 406 576.5 Q330 601 278 655 Q226 709 198.5 794 Q171 879 171 1000 L171 1456 L356 1456 L356 1000 Q356 915 369.5 858.5 Q383 802 410.5 767.5 Q438 733 480 718.5 Q522 704 579 704 Q662 704 734 718.5 Q806 733 878 757 L878 1456 L1063 1456 Z " />
<glyph glyph-name="uni0428" unicode="&#x428;" horiz-adv-x="1229" d="M310 1456 L310 151 L523 151 L523 1456 L707 1456 L707 151 L920 151 L920 1456 L1104 1456 L1104 0 L125 0 L125 1456 L310 1456 Z " />
<glyph glyph-name="uni0429" unicode="&#x429;" horiz-adv-x="1229" d="M310 1456 L310 151 L523 151 L523 1456 L707 1456 L707 151 L856 151 L856 152 L920 152 L920 1456 L1104 1456 L1104 152 L1194 152 L1176 -351 L1011 -351 L1011 0 L125 0 L125 1456 L310 1456 Z " />
<glyph glyph-name="uni042A" unicode="&#x42a;" horiz-adv-x="1229" d="M50 1456 L540 1456 L540 857 L684 857 Q795 857 881 826.5 Q967 796 1025.5 740.5 Q1084 685 1114.5 607 Q1145 529 1145 433 Q1145 338 1114.5 258.5 Q1084 179 1025.5 121.5 Q967 64 881 32 Q795 0 684 0 L355 0 L355 1304 L50 1304 L50 1456 Z M540 706 L540 151 L684 151 Q757 151 809 174.5 Q861 198 894.5 237 Q928 276 943.5 327.5 Q959 379 959 435 Q959 490 943.5 539.5 Q928 589 894.5 626 Q861 663 809 684.5 Q757 706 684 706 L540 706 Z " />
<glyph glyph-name="uni042B" unicode="&#x42b;" horiz-adv-x="1229" d="M329 857 L421 857 Q516 857 588.5 826.5 Q661 796 710.5 740.5 Q760 685 785 606.5 Q810 528 810 433 Q810 338 785 258.5 Q760 179 710.5 121.5 Q661 64 588.5 32 Q516 0 421 0 L144 0 L144 1456 L329 1456 L329 857 Z M1099 0 L914 0 L914 1456 L1099 1456 L1099 0 Z M329 706 L329 151 L421 151 Q476 151 515 174.5 Q554 198 578 237.5 Q602 277 613 328 Q624 379 624 435 Q624 490 613 539 Q602 588 577.5 625 Q553 662 514.5 684 Q476 706 421 706 L329 706 Z " />
<glyph glyph-name="uni042C" unicode="&#x42c;" horiz-adv-x="1229" d="M353 857 L619 857 Q735 857 825.5 827 Q916 797 978 741.5 Q1040 686 1072.5 608 Q1105 530 1105 433 Q1105 337 1072.5 257 Q1040 177 978 120 Q916 63 825.5 31.5 Q735 0 619 0 L168 0 L168 1456 L353 1456 L353 857 Z M353 706 L353 151 L619 151 Q697 151 753.5 174 Q810 197 847 236 Q884 275 901.5 326.5 Q919 378 919 435 Q919 491 901.5 540.5 Q884 590 847 626.5 Q810 663 753.5 684.5 Q697 706 619 706 L353 706 Z " />
<glyph glyph-name="uni042D" unicode="&#x42d;" horiz-adv-x="1229" d="M299 465 Q300 389 319.5 327.5 Q339 266 376 222.5 Q413 179 467.5 155 Q522 131 593 131 Q671 131 732 163 Q793 195 835 252 Q877 309 899.5 388 Q922 467 922 561 L922 651 L438 651 L438 802 L922 802 L922 895 Q922 989 900 1068.5 Q878 1148 836 1205 Q794 1262 733 1294 Q672 1326 593 1326 Q522 1326 467.5 1302 Q413 1278 376 1234.5 Q339 1191 319.5 1128.5 Q300 1066 299 990 L114 990 Q115 1091 148.5 1180 Q182 1269 244.5 1335 Q307 1401 395 1439 Q483 1477 593 1477 Q710 1477 805 1435 Q900 1393 967 1316.5 Q1034 1240 1070.5 1132.5 Q1107 1025 1107 894 L1107 562 Q1107 431 1070.5 324 Q1034 217 967 140.5 Q900 64 805 22 Q710 -20 593 -20 Q483 -20 395 14.5 Q307 49 244.5 112.5 Q182 176 148.5 265.5 Q115 355 114 465 L299 465 Z " />
<glyph glyph-name="uni042E" unicode="&#x42e;" horiz-adv-x="1229" d="M1130 515 Q1130 388 1107 288.5 Q1084 189 1038 120.5 Q992 52 923.5 16 Q855 -20 765 -20 Q679 -20 614 16 Q549 52 505.5 120.5 Q462 189 440 288.5 Q418 388 418 515 L418 637 L304 637 L304 0 L119 0 L119 1456 L304 1456 L304 788 L418 788 L418 940 Q418 1067 439.5 1166.5 Q461 1266 504.5 1335 Q548 1404 613 1440 Q678 1476 764 1476 Q855 1476 923.5 1440 Q992 1404 1038 1335 Q1084 1266 1107 1166.5 Q1130 1067 1130 940 L1130 515 Z M945 942 Q945 1130 904.5 1224 Q864 1318 764 1318 Q719 1318 688 1294.5 Q657 1271 638 1224 Q619 1177 611 1106.5 Q603 1036 603 942 L603 515 Q603 420 611 349 Q619 278 638 231 Q657 184 688 160.5 Q719 137 765 137 Q815 137 849.5 160.5 Q884 184 905 231 Q926 278 935.5 349 Q945 420 945 515 L945 942 Z " />
<glyph glyph-name="uni042F" unicode="&#x42f;" horiz-adv-x="1229" d="M877 0 L877 607 L567 607 L262 0 L65 0 L406 658 Q266 709 192 803 Q118 897 118 1036 Q118 1136 153.5 1214.5 Q189 1293 255.5 1346.5 Q322 1400 416.5 1428 Q511 1456 628 1456 L1062 1456 L1062 0 L877 0 Z M303 1038 Q303 979 323.5 928 Q344 877 384 839.5 Q424 802 484 781 Q544 760 622 760 L877 760 L877 1304 L628 1304 Q548 1304 487.5 1285.5 Q427 1267 386 1232.5 Q345 1198 324 1148.5 Q303 1099 303 1038 Z " />
<glyph glyph-name="uni0431" unicode="&#x431;" horiz-adv-x="1229" d="M646 1020 Q752 1020 835 982.5 Q918 945 976 879.5 Q1034 814 1064.5 724.5 Q1095 635 1095 530 L1095 507 Q1095 394 1062.5 298 Q1030 202 968 131 Q906 60 816.5 20 Q727 -20 613 -20 Q499 -20 409 20 Q319 60 257 131 Q195 202 162 298 Q129 394 129 507 L129 530 L129 537 L129 606 Q129 787 163.5 924.5 Q198 1062 261.5 1158.5 Q325 1255 415.5 1312.5 Q506 1370 617 1391 Q670 1401 715.5 1412.5 Q761 1424 794.5 1441.5 Q828 1459 847 1485.5 Q866 1512 866 1553 L1018 1553 Q1018 1487 1003.5 1440 Q989 1393 963.5 1360.5 Q938 1328 903.5 1307.5 Q869 1287 829 1273 Q789 1259 745 1250 Q701 1241 657 1231 Q587 1216 526 1189.5 Q465 1163 417 1118 Q369 1073 336 1007.5 Q303 942 288 850 Q320 887 359 918.5 Q398 950 443 972.5 Q488 995 539 1007.5 Q590 1020 646 1020 Z M611 868 Q535 868 479 840.5 Q423 813 386.5 766.5 Q350 720 332 659 Q314 598 314 530 L314 507 Q314 431 332 362.5 Q350 294 386.5 242.5 Q423 191 479.5 160.5 Q536 130 613 130 Q689 130 744.5 160.5 Q800 191 837 242.5 Q874 294 892 362.5 Q910 431 910 507 L910 530 Q910 598 892 659 Q874 720 837 766.5 Q800 813 743.5 840.5 Q687 868 611 868 Z " />
<glyph glyph-name="uni0432" unicode="&#x432;" horiz-adv-x="1229" d="M164 0 L164 1082 L589 1082 Q689 1082 771 1064 Q853 1046 911.5 1010 Q970 974 1001.5 918 Q1033 862 1033 785 Q1033 708 988 649 Q943 590 857 558 Q909 546 949 521.5 Q989 497 1016.5 464 Q1044 431 1058 391 Q1072 351 1072 307 Q1072 230 1043 172.5 Q1014 115 960 76.5 Q906 38 829.5 19 Q753 0 658 0 L164 0 Z M350 475 L350 149 L658 149 Q770 149 828 191 Q886 233 886 313 Q886 391 827.5 433 Q769 475 658 475 L350 475 Z M350 623 L591 623 Q715 623 781.5 660 Q848 697 848 775 Q848 856 780.5 894 Q713 932 589 932 L350 932 L350 623 Z " />
<glyph glyph-name="uni0433" unicode="&#x433;" horiz-adv-x="1229" d="M1066 929 L369 929 L369 0 L183 0 L183 1082 L1066 1082 L1066 929 Z " />
<glyph glyph-name="uni0434" unicode="&#x434;" horiz-adv-x="1229" d="M156 151 Q199 157 228.5 196.5 Q258 236 277 304 Q296 372 307.5 466 Q319 560 326 676 L342 1082 L1039 1082 L1039 151 L1178 151 L1160 -318 L993 -318 L993 0 L238 0 L238 -318 L72 -318 L54 151 L156 151 Z M511 676 Q506 592 498.5 516 Q491 440 480 373.5 Q469 307 452.5 251 Q436 195 412 151 L854 151 L854 911 L520 911 L511 676 Z " />
<glyph glyph-name="uni0436" unicode="&#x436;" horiz-adv-x="1229" d="M757 470 L699 470 L699 0 L514 0 L514 470 L455 470 L240 0 L17 0 L314 563 L52 1082 L266 1082 L455 634 L514 634 L514 1082 L699 1082 L699 634 L758 634 L948 1082 L1162 1082 L898 563 L1196 0 L972 0 L757 470 Z " />
<glyph glyph-name="uni0437" unicode="&#x437;" horiz-adv-x="1229" d="M636 630 Q764 630 828 670.5 Q892 711 892 786 Q892 820 874.5 850 Q857 880 823.5 902.5 Q790 925 740 938 Q690 951 625 951 Q567 951 515 938 Q463 925 423.5 902.5 Q384 880 360.5 848.5 Q337 817 337 780 L152 780 Q153 855 191.5 914.5 Q230 974 294.5 1015.5 Q359 1057 444.5 1079 Q530 1101 625 1101 Q725 1101 808 1081 Q891 1061 951 1021.5 Q1011 982 1044 923.5 Q1077 865 1077 787 Q1077 712 1024 651.5 Q971 591 880 556 Q983 525 1040.5 462 Q1098 399 1098 304 Q1098 226 1061.5 166 Q1025 106 961 64.5 Q897 23 811 2 Q725 -19 625 -19 Q565 -19 505.5 -10.5 Q446 -2 392 16 Q338 34 291 61.5 Q244 89 209.5 126.5 Q175 164 155 212.5 Q135 261 135 320 L320 320 Q320 281 343 246.5 Q366 212 407 185.5 Q448 159 504 143.5 Q560 128 625 128 Q689 128 742 141.5 Q795 155 832.5 179 Q870 203 890.5 235 Q911 267 911 304 Q911 350 892 382.5 Q873 415 837 435.5 Q801 456 750 465 Q699 474 636 474 L395 474 L395 630 L636 630 Z " />
<glyph glyph-name="uni0438" unicode="&#x438;" horiz-adv-x="1229" d="M878 1082 L1063 1082 L1063 0 L878 0 L878 798 L349 0 L165 0 L165 1082 L349 1082 L349 283 L878 1082 Z " />
<glyph glyph-name="uni043A" unicode="&#x43a;" horiz-adv-x="1229" d="M525 461 L349 461 L349 0 L164 0 L164 1082 L349 1082 L349 624 L509 624 L912 1082 L1137 1082 L673 561 L1173 0 L938 0 L525 461 Z " />
<glyph glyph-name="uni043B" unicode="&#x43b;" horiz-adv-x="1229" d="M1062 1082 L1062 0 L876 0 L876 929 L478 929 L477 619 Q477 471 459 356 Q441 241 399 162 Q357 83 286 41.5 Q215 0 109 0 L55 0 L58 165 L99 166 Q156 166 193.5 194.5 Q231 223 252.5 279.5 Q274 336 282.5 421 Q291 506 291 619 L293 1082 L1062 1082 Z " />
<glyph glyph-name="uni043C" unicode="&#x43c;" horiz-adv-x="1229" d="M604 245 L834 1082 L1065 1082 L1065 0 L880 0 L880 667 L668 0 L540 0 L322 691 L322 0 L137 0 L137 1082 L376 1082 L604 245 Z " />
<glyph glyph-name="uni043D" unicode="&#x43d;" horiz-adv-x="1229" d="M1063 0 L878 0 L878 462 L350 462 L350 0 L165 0 L165 1082 L350 1082 L350 613 L878 613 L878 1082 L1063 1082 L1063 0 Z " />
<glyph glyph-name="uni043F" unicode="&#x43f;" horiz-adv-x="1229" d="M1063 0 L878 0 L878 929 L350 929 L350 0 L165 0 L165 1082 L1063 1082 L1063 0 Z " />
<glyph glyph-name="uni0442" unicode="&#x442;" horiz-adv-x="1229" d="M1147 932 L715 932 L715 0 L529 0 L529 932 L104 932 L104 1082 L1147 1082 L1147 932 Z " />
<glyph glyph-name="uni0444" unicode="&#x444;" horiz-adv-x="1229" d="M122 551 Q122 655 149 747 Q176 839 227.5 910.5 Q279 982 353 1029.5 Q427 1077 520 1094 L520 1536 L705 1536 L705 1094 Q799 1078 873.5 1030 Q948 982 1000 910.5 Q1052 839 1079 747 Q1106 655 1106 551 L1106 529 Q1106 424 1078.5 332.5 Q1051 241 999.5 169.5 Q948 98 873.5 50.5 Q799 3 705 -12 L705 -416 L520 -416 L520 -11 Q427 5 353 52.5 Q279 100 227.5 171 Q176 242 149 333.5 Q122 425 122 529 L122 551 Z M921 551 Q921 617 907.5 679 Q894 741 867 792 Q840 843 799.5 880 Q759 917 705 935 L705 143 Q759 161 799.5 198 Q840 235 867 286 Q894 337 907.5 399 Q921 461 921 529 L921 551 Z M307 529 Q307 462 320 400.5 Q333 339 359.5 288 Q386 237 426 200 Q466 163 520 145 L520 935 Q467 917 427 879.5 Q387 842 360.5 791 Q334 740 320.5 678.5 Q307 617 307 551 L307 529 Z " />
<glyph glyph-name="uni0446" unicode="&#x446;" horiz-adv-x="1229" d="M170 1082 L355 1082 L355 151 L853 151 L853 1082 L1039 1082 L1039 151 L1168 151 L1150 -321 L984 -321 L984 0 L170 0 L170 1082 Z " />
<glyph glyph-name="uni0447" unicode="&#x447;" horiz-adv-x="1229" d="M1063 0 L878 0 L878 395 Q810 378 737.5 369 Q665 360 580 360 Q480 360 399 385 Q318 410 260.5 460.5 Q203 511 172 587.5 Q141 664 141 767 L141 1082 L326 1082 L326 767 Q327 634 392.5 573 Q458 512 580 512 Q661 512 735 521 Q809 530 878 547 L878 1082 L1063 1082 L1063 0 Z " />
<glyph glyph-name="uni0448" unicode="&#x448;" horiz-adv-x="1229" d="M314 1082 L314 151 L522 151 L522 1082 L707 1082 L707 151 L915 151 L915 1082 L1100 1082 L1100 0 L129 0 L129 1082 L314 1082 Z " />
<glyph glyph-name="uni0449" unicode="&#x449;" horiz-adv-x="1229" d="M303 1082 L303 151 L511 151 L511 1082 L696 1082 L696 151 L850 151 L850 152 L904 152 L904 1082 L1089 1082 L1089 152 L1176 152 L1158 -321 L993 -321 L993 0 L118 0 L118 1082 L303 1082 Z " />
<glyph glyph-name="uni044A" unicode="&#x44a;" horiz-adv-x="1229" d="M57 1082 L542 1082 L542 672 L742 672 Q838 672 913 647 Q988 622 1039 578 Q1090 534 1116.5 473 Q1143 412 1143 340 Q1143 268 1116.5 206 Q1090 144 1039 98.5 Q988 53 913 26.5 Q838 0 742 0 L357 0 L357 930 L57 930 L57 1082 Z M542 521 L542 151 L742 151 Q800 151 840.5 166 Q881 181 907 206.5 Q933 232 945 265 Q957 298 957 333 Q957 367 945 400.5 Q933 434 907 460.5 Q881 487 840 504 Q799 521 742 521 L542 521 Z " />
<glyph glyph-name="uni044B" unicode="&#x44b;" horiz-adv-x="1229" d="M329 672 L428 672 Q515 672 582.5 647 Q650 622 695.5 577.5 Q741 533 764.5 472 Q788 411 788 340 Q788 269 764.5 207 Q741 145 695.5 99 Q650 53 583 26.5 Q516 0 428 0 L144 0 L144 1082 L329 1082 L329 672 Z M1087 0 L902 0 L902 1082 L1087 1082 L1087 0 Z M329 521 L329 151 L428 151 Q475 151 508 166.5 Q541 182 561.5 207.5 Q582 233 591.5 265.5 Q601 298 601 333 Q601 366 591.5 399.5 Q582 433 561.5 460 Q541 487 508 504 Q475 521 428 521 L329 521 Z " />
<glyph glyph-name="uni044C" unicode="&#x44c;" horiz-adv-x="1229" d="M350 672 L681 672 Q778 672 853.5 647.5 Q929 623 981 579 Q1033 535 1060.5 474 Q1088 413 1088 340 Q1088 268 1061 205.5 Q1034 143 982 97.5 Q930 52 854 26 Q778 0 681 0 L165 0 L165 1082 L350 1082 L350 672 Z M350 521 L350 151 L681 151 Q739 151 781 166 Q823 181 850 206 Q877 231 889.5 264 Q902 297 902 333 Q902 368 889 401.5 Q876 435 849 461.5 Q822 488 780.5 504.5 Q739 521 681 521 L350 521 Z " />
<glyph glyph-name="uni044D" unicode="&#x44d;" horiz-adv-x="1229" d="M572 950 Q522 950 474 934 Q426 918 388.5 889.5 Q351 861 328 822.5 Q305 784 305 738 L129 738 Q129 811 166 877 Q203 943 264.5 993 Q326 1043 406 1072.5 Q486 1102 572 1102 Q699 1102 795 1058 Q891 1014 954.5 940 Q1018 866 1050 768 Q1082 670 1082 562 L1082 520 Q1082 412 1050 314 Q1018 216 954 141.5 Q890 67 794.5 23.5 Q699 -20 572 -20 Q476 -20 395 10 Q314 40 255 92.5 Q196 145 162.5 216.5 Q129 288 129 371 L305 371 Q305 321 326 277 Q347 233 383 200.5 Q419 168 467.5 149 Q516 130 572 130 Q656 130 715 159.5 Q774 189 812.5 237.5 Q851 286 870.5 348 Q890 410 895 475 L466 475 L466 627 L893 627 Q887 690 866 748 Q845 806 807 851 Q769 896 711 923 Q653 950 572 950 Z " />
<glyph glyph-name="uni044E" unicode="&#x44e;" horiz-adv-x="1229" d="M298 623 L428 623 Q435 725 460 812.5 Q485 900 530 964.5 Q575 1029 639 1065.5 Q703 1102 788 1102 Q881 1102 950 1059 Q1019 1016 1064 941 Q1109 866 1131 765.5 Q1153 665 1153 551 L1153 529 Q1153 415 1131 314.5 Q1109 214 1064.5 140 Q1020 66 951.5 23 Q883 -20 790 -20 Q703 -20 637.5 17.5 Q572 55 527 121 Q482 187 457.5 277 Q433 367 427 471 L298 471 L298 0 L113 0 L113 1082 L298 1082 L298 623 Z M612 529 Q612 451 620 378.5 Q628 306 648.5 251 Q669 196 703 163 Q737 130 790 130 Q842 130 876.5 163 Q911 196 931 251 Q951 306 959.5 378.5 Q968 451 968 529 L968 551 Q968 629 959.5 701 Q951 773 930.5 828.5 Q910 884 875.5 917 Q841 950 788 950 Q736 950 702 917 Q668 884 648 828.5 Q628 773 620 701 Q612 629 612 551 L612 529 Z " />
<glyph glyph-name="uni044F" unicode="&#x44f;" horiz-adv-x="1229" d="M1057 1082 L1057 0 L872 0 L872 421 L536 421 L279 0 L79 0 L352 449 Q248 487 192 566.5 Q136 646 136 752 Q136 824 164.5 884.5 Q193 945 246 988.5 Q299 1032 376 1057 Q453 1082 549 1082 L1057 1082 Z M322 750 Q322 716 334 684 Q346 652 371.5 627.5 Q397 603 435 588 Q473 573 526 573 L872 573 L872 932 L549 932 Q492 932 449 916.5 Q406 901 378 875.5 Q350 850 336 817.5 Q322 785 322 750 Z " />
<glyph glyph-name="uni0452" unicode="&#x452;" horiz-adv-x="1229" d="M614 1209 L351 1209 L351 921 Q409 1006 494 1053.5 Q579 1101 685 1102 Q770 1102 839.5 1077.5 Q909 1053 958 1001 Q1007 949 1033.5 869.5 Q1060 790 1060 681 L1060 454 L1061 454 L1061 -89 Q1061 -257 976.5 -347 Q892 -437 738 -437 Q706 -437 679 -433.5 Q652 -430 622 -420 L637 -272 Q645 -275 659 -277.5 Q673 -280 688 -281.5 Q703 -283 716.5 -284 Q730 -285 738 -285 Q804 -285 840 -232.5 Q876 -180 876 -89 L876 0 L875 0 L875 683 Q875 816 811.5 881 Q748 946 630 945 Q541 945 468.5 901.5 Q396 858 351 786 L351 0 L166 0 L166 1209 L-23 1209 L-23 1360 L166 1360 L166 1536 L351 1536 L351 1360 L614 1360 L614 1209 Z " />
<glyph glyph-name="uni0454" unicode="&#x454;" horiz-adv-x="1229" d="M635 130 Q685 130 732.5 146 Q780 162 817 190.5 Q854 219 876.5 257.5 Q899 296 900 341 L1075 341 Q1074 269 1037.5 203.5 Q1001 138 940 88.5 Q879 39 800 9.5 Q721 -20 635 -20 Q512 -20 420 24 Q328 68 266.5 142.5 Q205 217 174 314.5 Q143 412 143 520 L143 562 Q143 669 174 767 Q205 865 266.5 939.5 Q328 1014 420 1058 Q512 1102 635 1102 Q731 1102 811.5 1071.5 Q892 1041 950.5 988.5 Q1009 936 1042 864 Q1075 792 1075 710 L900 710 Q899 759 878.5 802.5 Q858 846 823 879 Q788 912 739.5 931 Q691 950 635 950 Q557 950 502 921.5 Q447 893 410.5 846.5 Q374 800 355 739.5 Q336 679 331 616 L741 616 L741 464 L331 464 Q336 400 355 339.5 Q374 279 410 232.5 Q446 186 501.5 158 Q557 130 635 130 Z " />
<glyph glyph-name="uni0459" unicode="&#x459;" horiz-adv-x="1229" d="M776 1082 L776 670 L842 670 Q929 670 996 645 Q1063 620 1108 575.5 Q1153 531 1176.5 470.5 Q1200 410 1200 338 Q1200 267 1176.5 205.5 Q1153 144 1108 98.5 Q1063 53 996 26.5 Q929 0 842 0 L591 0 L591 929 L397 929 L397 619 Q397 473 381.5 358 Q366 243 329.5 163.5 Q293 84 233 42 Q173 0 83 0 L38 0 L42 155 L72 156 Q113 156 140 186.5 Q167 217 183 276 Q199 335 205.5 421 Q212 507 212 619 L212 1082 L776 1082 Z M776 518 L776 149 L842 149 Q889 149 921.5 166.5 Q954 184 974.5 211 Q995 238 1004 272 Q1013 306 1013 340 Q1013 373 1004 405 Q995 437 974.5 462 Q954 487 921.5 502.5 Q889 518 842 518 L776 518 Z " />
<glyph glyph-name="uni045A" unicode="&#x45a;" horiz-adv-x="1229" d="M315 673 L564 673 L564 1082 L749 1082 L749 669 L832 669 Q914 669 977.5 644 Q1041 619 1083.5 574.5 Q1126 530 1148 469.5 Q1170 409 1170 338 Q1170 267 1148 205.5 Q1126 144 1083.5 98.5 Q1041 53 977.5 26.5 Q914 0 832 0 L564 0 L564 522 L315 522 L315 0 L130 0 L130 1082 L315 1082 L315 673 Z M749 518 L749 149 L832 149 Q874 149 903 166.5 Q932 184 950 211 Q968 238 976 272 Q984 306 984 340 Q984 373 976 405 Q968 437 950 462 Q932 487 903 502.5 Q874 518 832 518 L749 518 Z " />
<glyph glyph-name="uni045B" unicode="&#x45b;" horiz-adv-x="1229" d="M665 1214 L358 1214 L358 921 Q416 1006 501 1053.5 Q586 1101 692 1102 Q777 1102 846.5 1077.5 Q916 1053 965 1001 Q1014 949 1040.5 869.5 Q1067 790 1067 681 L1067 0 L882 0 L882 683 Q882 816 818.5 881 Q755 946 637 945 Q548 945 475.5 901.5 Q403 858 358 786 L358 0 L173 0 L173 1214 L28 1214 L28 1365 L173 1365 L173 1536 L358 1536 L358 1365 L665 1365 L665 1214 Z " />
<glyph glyph-name="uni045F" unicode="&#x45f;" horiz-adv-x="1229" d="M350 1082 L350 151 L878 151 L878 1082 L1063 1082 L1063 0 L709 0 L709 -356 L524 -356 L524 0 L165 0 L165 1082 L350 1082 Z " />
<glyph glyph-name="uni0460" unicode="&#x460;" horiz-adv-x="1229" d="M1150 1456 L1151 318 Q1151 236 1129.5 173 Q1108 110 1069 67 Q1030 24 975.5 2 Q921 -20 855 -20 Q777 -20 719 17 Q661 54 629 127 Q597 55 539 17.5 Q481 -20 404 -20 Q337 -20 282.5 2 Q228 24 189 67 Q150 110 128.5 173 Q107 236 107 318 L108 1456 L292 1456 L293 318 Q293 230 322.5 180 Q352 130 404 130 Q464 130 498.5 180 Q533 230 533 318 L534 1456 L725 1456 L725 318 Q725 230 759.5 180 Q794 130 855 130 Q907 130 936 180 Q965 230 965 318 L966 1456 L1150 1456 Z " />
<glyph glyph-name="uni0461" unicode="&#x461;" horiz-adv-x="1229" d="M1146 1083 L1146 316 Q1146 234 1124.5 171 Q1103 108 1063.5 65.5 Q1024 23 969 1 Q914 -21 848 -21 Q770 -21 711.5 16 Q653 53 620 126 Q588 54 530 16.5 Q472 -21 394 -21 Q327 -21 272 1 Q217 23 178 65.5 Q139 108 117 171 Q95 234 95 316 L96 1083 L281 1083 L281 316 Q281 228 311 179 Q341 130 394 130 Q454 130 489.5 179 Q525 228 525 316 L525 1083 L716 1083 L717 316 Q717 228 752 179 Q787 130 848 130 Q900 130 930.5 179 Q961 228 961 316 L961 1083 L1146 1083 Z " />
<glyph glyph-name="uni0463" unicode="&#x463;" horiz-adv-x="1229" d="M727 1076 L405 1076 L405 672 L680 672 Q777 672 852 647.5 Q927 623 978.5 578.5 Q1030 534 1057 473 Q1084 412 1084 340 Q1084 268 1057 206 Q1030 144 978.5 98 Q927 52 852 26 Q777 0 680 0 L220 0 L220 1076 L28 1076 L28 1228 L220 1228 L220 1560 L405 1560 L405 1228 L727 1228 L727 1076 Z M405 521 L405 151 L680 151 Q738 151 779 166 Q820 181 846.5 206.5 Q873 232 885.5 264.5 Q898 297 898 333 Q898 367 885.5 401 Q873 435 846.5 461.5 Q820 488 779 504.5 Q738 521 680 521 L405 521 Z " />
<glyph glyph-name="uni0464" unicode="&#x464;" horiz-adv-x="1229" d="M309 832 L459 832 L459 931 Q459 1060 484 1161.5 Q509 1263 556.5 1333 Q604 1403 672.5 1440 Q741 1477 828 1477 Q909 1477 970 1447.5 Q1031 1418 1073.5 1363.5 Q1116 1309 1140.5 1231 Q1165 1153 1172 1057 L1005 1057 Q1000 1118 988 1167.5 Q976 1217 955 1252.5 Q934 1288 903 1307 Q872 1326 828 1326 Q781 1326 746.5 1299 Q712 1272 689.5 1221.5 Q667 1171 655.5 1098 Q644 1025 644 933 L644 832 L926 832 L926 681 L644 681 L644 526 Q644 433 655.5 359.5 Q667 286 689.5 235.5 Q712 185 746.5 158 Q781 131 828 131 Q872 131 903 149 Q934 167 955 200.5 Q976 234 987.5 282.5 Q999 331 1005 393 L1172 393 Q1165 305 1140.5 229.5 Q1116 154 1073.5 98.5 Q1031 43 970 12 Q909 -19 828 -19 Q741 -19 672.5 18 Q604 55 556.5 124.5 Q509 194 484 295.5 Q459 397 459 526 L459 681 L309 681 L309 0 L125 0 L125 1456 L309 1456 L309 832 Z " />
<glyph glyph-name="uni0465" unicode="&#x465;" horiz-adv-x="1229" d="M967 464 L668 464 Q670 398 680.5 338 Q691 278 712 231.5 Q733 185 766.5 157.5 Q800 130 847 130 Q877 130 902 143.5 Q927 157 945.5 181 Q964 205 974.5 236.5 Q985 268 986 304 L1161 304 Q1161 240 1136 181.5 Q1111 123 1068.5 78 Q1026 33 968.5 6.5 Q911 -20 847 -20 Q758 -20 691.5 17.5 Q625 55 579.5 120.5 Q534 186 510 274 Q486 362 483 464 L340 464 L340 0 L155 0 L155 1082 L340 1082 L340 615 L483 615 Q485 717 509 805.5 Q533 894 578.5 960 Q624 1026 691 1064 Q758 1102 847 1102 Q918 1102 976 1074 Q1034 1046 1075 998 Q1116 950 1138.5 885.5 Q1161 821 1161 747 L986 747 Q986 787 976.5 824 Q967 861 949 889 Q931 917 905.5 933.5 Q880 950 847 950 Q800 950 766.5 922 Q733 894 711.5 847 Q690 800 679.5 739.5 Q669 679 668 615 L967 615 L967 464 Z " />
<glyph glyph-name="uni0466" unicode="&#x466;" horiz-adv-x="1229" d="M869 440 L708 440 L708 0 L523 0 L523 440 L375 440 L228 0 L39 0 L545 1456 L705 1456 L1202 0 L1013 0 L869 440 Z M428 601 L816 601 L624 1188 L428 601 Z " />
<glyph glyph-name="uni0467" unicode="&#x467;" horiz-adv-x="1229" d="M842 297 L714 297 L714 0 L529 0 L529 297 L394 297 L276 0 L87 0 L539 1082 L698 1082 L1153 0 L963 0 L842 297 Z M455 449 L780 449 L641 792 L617 874 L592 792 L455 449 Z " />
<glyph glyph-name="uni0468" unicode="&#x468;" horiz-adv-x="1229" d="M929 468 L859 468 L859 0 L711 0 L711 468 L642 468 L538 0 L349 0 L466 468 L298 468 L298 0 L113 0 L113 1456 L298 1456 L298 629 L507 629 L715 1456 L874 1456 L1212 0 L1024 0 L929 468 Z M677 629 L896 629 L792 1145 L677 629 Z " />
<glyph glyph-name="uni0469" unicode="&#x469;" horiz-adv-x="1229" d="M939 293 L867 293 L867 0 L710 0 L710 293 L631 293 L538 0 L349 0 L448 293 L297 293 L297 0 L112 0 L112 1082 L297 1082 L297 454 L502 454 L715 1082 L874 1082 L1213 0 L1024 0 L939 293 Z M682 454 L893 454 L792 802 L682 454 Z " />
<glyph glyph-name="uni046A" unicode="&#x46a;" horiz-adv-x="1229" d="M86 0 L85 427 Q85 525 109.5 594.5 Q134 664 180.5 708.5 Q227 753 294.5 773.5 Q362 794 448 794 L451 794 L114 1456 L1105 1456 L796 794 Q882 793 949 772.5 Q1016 752 1062.5 707.5 Q1109 663 1133 594 Q1157 525 1157 427 L1157 0 L972 0 L972 427 Q972 488 961 529 Q950 570 928 595 Q906 620 872.5 631 Q839 642 793 642 L725 642 L716 622 L716 0 L531 0 L531 637 L528 642 L448 642 Q402 642 368.5 631 Q335 620 313.5 595 Q292 570 281.5 529 Q271 488 271 427 L271 0 L86 0 Z M624 830 L828 1304 L398 1304 L624 830 Z " />
<glyph glyph-name="uni046B" unicode="&#x46b;" horiz-adv-x="1229" d="M105 0 L105 219 Q105 318 126.5 389.5 Q148 461 189.5 507 Q231 553 290.5 576.5 Q350 600 425 603 L143 1082 L1087 1082 L804 602 Q877 597 934 573 Q991 549 1031 502.5 Q1071 456 1092 386 Q1113 316 1113 219 L1113 0 L928 0 L927 219 Q927 286 917 330.5 Q907 375 887 402 Q867 429 836.5 440.5 Q806 452 764 452 L715 452 L705 435 L705 0 L519 0 L519 443 L514 452 L453 452 Q411 452 380.5 440.5 Q350 429 330 402 Q310 375 300 330.5 Q290 286 290 219 L290 0 L105 0 Z M612 604 L617 604 L795 930 L433 930 L612 604 Z " />
<glyph glyph-name="uni046C" unicode="&#x46c;" horiz-adv-x="1229" d="M911 792 Q1031 787 1095 716.5 Q1159 646 1159 500 L1159 0 L1006 0 L1005 500 Q1005 575 979.5 607.5 Q954 640 893 640 L858 640 L851 620 L851 0 L698 0 L698 617 L690 640 L652 640 L650 640 L646 640 Q589 638 564.5 605.5 Q540 573 540 500 L540 0 L387 0 L386 500 Q386 580 406 640 L251 640 L251 0 L80 0 L80 1456 L251 1456 L251 792 L636 792 L401 1456 L1146 1456 L911 792 Z M774 893 L903 1304 L645 1304 L774 893 Z " />
<glyph glyph-name="uni046D" unicode="&#x46d;" horiz-adv-x="1229" d="M935 592 Q1044 581 1101 512 Q1158 443 1158 303 L1158 0 L1005 0 L1004 303 Q1004 379 977.5 411 Q951 443 888 443 L870 443 L858 414 L852 414 L852 0 L698 0 L698 421 L688 443 L656 443 L652 443 L650 443 Q593 441 567 409 Q541 377 541 303 L541 0 L388 0 L387 303 Q387 384 408 443 L252 443 L252 0 L81 0 L81 1082 L252 1082 L252 595 L622 595 L412 1082 L1146 1082 L935 592 Z M779 620 L903 939 L655 939 L779 620 Z " />
<glyph glyph-name="uni046E" unicode="&#x46e;" horiz-adv-x="1229" d="M540 823 Q699 824 775.5 889 Q852 954 852 1067 Q852 1117 833.5 1160.5 Q815 1204 778 1236 Q741 1268 686.5 1286 Q632 1304 560 1304 L254 1304 L254 1456 L560 1456 Q662 1456 749.5 1429.5 Q837 1403 901 1352.5 Q965 1302 1001.5 1229 Q1038 1156 1038 1063 Q1038 1010 1020.5 963 Q1003 916 971 876 Q939 836 893 804 Q847 772 790 750 Q918 710 989 624 Q1060 538 1060 406 Q1060 304 1023 224.5 Q986 145 921.5 91 Q857 37 769 9 Q681 -19 580 -19 L527 -19 Q449 -19 413.5 -50 Q378 -81 378 -132 Q378 -172 394.5 -202.5 Q411 -233 436 -255 Q461 -277 488.5 -292.5 Q516 -308 539 -318 L465 -442 Q418 -422 371.5 -392.5 Q325 -363 287.5 -323 Q250 -283 226.5 -233 Q203 -183 202 -123 Q202 -56 226 -8 Q250 40 293.5 71 Q337 102 398 117 Q459 132 534 132 L580 132 Q646 132 700.5 152 Q755 172 793.5 207.5 Q832 243 853 292.5 Q874 342 874 402 Q874 471 851.5 522 Q829 573 786 606 Q743 639 681 655.5 Q619 672 540 672 L399 672 L399 823 L540 823 Z M572 1756 L723 1908 L883 1908 L883 1890 L629 1642 L515 1642 L264 1887 L264 1908 L421 1908 L572 1756 Z " />
<glyph glyph-name="uni046F" unicode="&#x46f;" horiz-adv-x="1229" d="M556 617 Q693 617 759.5 659.5 Q826 702 825 777 Q825 810 808.5 838 Q792 866 760 886 Q728 906 682 917.5 Q636 929 576 929 L276 929 L276 1082 L576 1082 Q667 1082 746.5 1061.5 Q826 1041 884.5 1001 Q943 961 977 903.5 Q1011 846 1011 773 Q1011 698 959 639 Q907 580 816 545 Q919 514 976 453.5 Q1033 393 1033 304 Q1033 226 999 166 Q965 106 906 65 Q847 24 767 2.5 Q687 -19 596 -19 L548 -19 Q470 -19 434 -50 Q398 -81 399 -132 Q399 -172 415.5 -202.5 Q432 -233 457 -255 Q482 -277 509.5 -292.5 Q537 -308 560 -318 L485 -442 Q439 -422 392.5 -392.5 Q346 -363 308.5 -323 Q271 -283 247 -233 Q223 -183 222 -123 Q222 -56 246 -8 Q270 40 313.5 71 Q357 102 418.5 117 Q480 132 555 132 L596 132 Q651 132 697.5 144 Q744 156 777 178 Q810 200 829 231 Q848 262 848 300 Q848 343 827.5 374.5 Q807 406 769 426 Q731 446 677 456 Q623 466 556 466 L415 466 L415 617 L556 617 Z M580 1414 L731 1566 L891 1566 L891 1548 L637 1300 L523 1300 L272 1545 L272 1566 L429 1566 L580 1414 Z " />
<glyph glyph-name="uni0472" unicode="&#x472;" horiz-adv-x="1229" d="M1114 644 Q1113 566 1100.5 486.5 Q1088 407 1062 333 Q1036 259 995.5 195 Q955 131 899 83 Q843 35 770.5 7.5 Q698 -20 608 -20 Q518 -20 445.5 7.5 Q373 35 317 83 Q261 131 220 195.5 Q179 260 152.5 334 Q126 408 113 487 Q100 566 99 644 L99 810 Q100 888 112.5 967.5 Q125 1047 151.5 1121 Q178 1195 218.5 1259.5 Q259 1324 315 1372.5 Q371 1421 443.5 1448.5 Q516 1476 606 1476 Q696 1476 769 1448.5 Q842 1421 898 1373 Q954 1325 994.5 1260.5 Q1035 1196 1061.5 1122 Q1088 1048 1100.5 968 Q1113 888 1114 810 L1114 644 Z M281 801 L931 801 L931 812 Q930 864 924 920.5 Q918 977 903.5 1032.5 Q889 1088 865 1138.5 Q841 1189 805 1227.5 Q769 1266 720 1288.5 Q671 1311 606 1311 Q542 1311 493 1288 Q444 1265 408 1226.5 Q372 1188 348 1137.5 Q324 1087 309.5 1031.5 Q295 976 288.5 919.5 Q282 863 281 812 L281 801 Z M931 649 L281 649 L281 644 Q282 593 288.5 536 Q295 479 310 423.5 Q325 368 349 317 Q373 266 409 227.5 Q445 189 494 166 Q543 143 608 143 Q673 143 722.5 166 Q772 189 807.5 227.5 Q843 266 866.5 316.5 Q890 367 904.5 422.5 Q919 478 924.5 535 Q930 592 931 644 L931 649 Z " />
<glyph glyph-name="uni0473" unicode="&#x473;" horiz-adv-x="1229" d="M93 551 Q93 668 127 768.5 Q161 869 224.5 943 Q288 1017 379 1059.5 Q470 1102 584 1102 Q699 1102 790.5 1059.5 Q882 1017 945.5 943 Q1009 869 1043 768.5 Q1077 668 1077 551 L1077 529 Q1077 412 1043 312 Q1009 212 945.5 138 Q882 64 791 22 Q700 -20 586 -20 Q471 -20 379.5 22 Q288 64 224.5 138 Q161 212 127 312 Q93 412 93 529 L93 551 Z M586 130 Q655 130 708.5 156.5 Q762 183 800 229 Q838 275 860 336.5 Q882 398 889 468 L281 468 Q288 398 310 336.5 Q332 275 370.5 229 Q409 183 462.5 156.5 Q516 130 586 130 Z M584 950 Q516 950 463 924 Q410 898 372 853 Q334 808 311 747.5 Q288 687 281 619 L888 619 Q880 687 857.5 747.5 Q835 808 797 853 Q759 898 705.5 924 Q652 950 584 950 Z " />
<glyph glyph-name="uni0474" unicode="&#x474;" horiz-adv-x="1229" d="M583 374 L617 244 L651 373 L909 1182 Q933 1259 961 1314 Q989 1369 1024 1405 Q1059 1441 1103 1458 Q1147 1475 1203 1475 L1249 1474 L1248 1303 L1235 1303 Q1208 1303 1187 1295 Q1166 1287 1148.5 1269.5 Q1131 1252 1117 1224.5 Q1103 1197 1089 1159 L702 0 L532 0 L26 1456 L235 1456 L583 374 Z " />
<glyph glyph-name="uni0475" unicode="&#x475;" horiz-adv-x="1229" d="M539 316 L563 215 L588 316 L764 859 Q806 988 871.5 1045 Q937 1102 1014 1101 Q1042 1101 1068 1097.5 Q1094 1094 1120 1077 L1099 929 Q1093 932 1081.5 934.5 Q1070 937 1056 937 Q1023 937 993 911 Q963 885 949 844 L632 0 L491 0 L81 1082 L271 1082 L539 316 Z " />
<glyph glyph-name="uni0478" unicode="&#x478;" horiz-adv-x="1229" d="M650 487 Q650 372 630.5 278.5 Q611 185 573 118.5 Q535 52 478.5 16 Q422 -20 349 -20 Q280 -20 227.5 16 Q175 52 139.5 118.5 Q104 185 86.5 278.5 Q69 372 69 487 L69 968 Q69 1083 86.5 1177 Q104 1271 139.5 1337.5 Q175 1404 227.5 1440 Q280 1476 349 1476 Q422 1476 478 1440 Q534 1404 572.5 1337.5 Q611 1271 630.5 1177 Q650 1083 650 968 L650 487 Z M926 627 L941 464 L1046 1082 L1210 1082 L969 -168 Q960 -207 943 -253 Q926 -299 898.5 -338.5 Q871 -378 831 -404.5 Q791 -431 734 -431 Q724 -431 711.5 -429.5 Q699 -428 686 -425.5 Q673 -423 661 -420 Q649 -417 642 -415 L646 -271 Q652 -272 661.5 -273 Q671 -274 681 -275 Q691 -276 700.5 -276.5 Q710 -277 716 -277 Q745 -277 765.5 -256.5 Q786 -236 799.5 -207 Q813 -178 821.5 -147 Q830 -116 835 -95 L859 -1 L700 1082 L864 1082 L926 627 Z M465 1007 Q465 1079 459 1136.5 Q453 1194 439.5 1234.5 Q426 1275 403.5 1296.5 Q381 1318 349 1318 Q317 1318 295.5 1296.5 Q274 1275 261 1234.5 Q248 1194 242 1136.5 Q236 1079 236 1007 L236 450 Q236 378 242 320 Q248 262 261 221.5 Q274 181 295.5 159 Q317 137 349 137 Q382 137 404 159 Q426 181 439.5 221.5 Q453 262 459 320 Q465 378 465 450 L465 1007 Z " />
<glyph glyph-name="uni0479" unicode="&#x479;" horiz-adv-x="1229" d="M55 552 Q55 669 72.5 769.5 Q90 870 128.5 944 Q167 1018 227 1060 Q287 1102 372 1102 Q458 1102 519 1060 Q580 1018 618.5 944 Q657 870 675 769.5 Q693 669 693 552 L693 529 Q693 412 675 311.5 Q657 211 618.5 137.5 Q580 64 519.5 22 Q459 -20 374 -20 Q288 -20 227.5 22 Q167 64 129 137.5 Q91 211 73 311.5 Q55 412 55 529 L55 552 Z M926 627 L939 448 L1047 1082 L1211 1082 L970 -168 Q961 -207 944 -253 Q927 -299 899.5 -338.5 Q872 -378 832 -404.5 Q792 -431 735 -431 Q725 -431 712.5 -429.5 Q700 -428 687 -425.5 Q674 -423 662 -420 Q650 -417 643 -415 L647 -271 Q653 -272 662.5 -273 Q672 -274 682 -275 Q692 -276 701.5 -276.5 Q711 -277 717 -277 Q746 -277 766.5 -256.5 Q787 -236 800.5 -207 Q814 -178 822 -147 Q830 -116 836 -95 L860 -1 L701 1082 L865 1082 L926 627 Z M240 529 Q240 449 244 377 Q248 305 262 250 Q276 195 302.5 162.5 Q329 130 374 130 Q419 130 445.5 162.5 Q472 195 485.5 250 Q499 305 503 377 Q507 449 507 529 L507 552 Q507 630 503 702 Q499 774 485 829 Q471 884 444 917 Q417 950 372 950 Q328 950 301.5 917 Q275 884 261.5 829 Q248 774 244 702 Q240 630 240 552 L240 529 Z " />
<glyph glyph-name="uni047A" unicode="&#x47a;" horiz-adv-x="1229" d="M706 1203 L521 1203 L521 1589 L706 1589 L706 1203 Z M706 -141 L521 -141 L521 254 L706 254 L706 -141 Z M1121 644 Q1120 566 1107.5 486.5 Q1095 407 1069 333 Q1043 259 1002.5 195 Q962 131 906 83 Q850 35 777.5 7.5 Q705 -20 615 -20 Q525 -20 452.5 7.5 Q380 35 324 83 Q268 131 227 195.5 Q186 260 159.5 334 Q133 408 120 487 Q107 566 106 644 L106 810 Q107 888 119.5 967.5 Q132 1047 158.5 1121 Q185 1195 225.5 1259.5 Q266 1324 322 1372.5 Q378 1421 450.5 1448.5 Q523 1476 613 1476 Q703 1476 776 1448.5 Q849 1421 905 1373 Q961 1325 1001.5 1260.5 Q1042 1196 1068.5 1122 Q1095 1048 1107.5 968 Q1120 888 1121 810 L1121 644 Z M938 812 Q937 864 931 920.5 Q925 977 910.5 1032.5 Q896 1088 872 1138.5 Q848 1189 812 1227.5 Q776 1266 727 1288.5 Q678 1311 613 1311 Q549 1311 500 1288 Q451 1265 415 1226.5 Q379 1188 355 1137.5 Q331 1087 316.5 1031.5 Q302 976 295.5 919.5 Q289 863 288 812 L288 644 Q289 593 295.5 536 Q302 479 317 423.5 Q332 368 356 317 Q380 266 416 227.5 Q452 189 501 166 Q550 143 615 143 Q680 143 729.5 166 Q779 189 814.5 227.5 Q850 266 873.5 316.5 Q897 367 911.5 422.5 Q926 478 931.5 535 Q937 592 938 644 L938 812 Z " />
<glyph glyph-name="uni047B" unicode="&#x47b;" horiz-adv-x="1229" d="M708 838 L522 838 L522 1227 L708 1227 L708 838 Z M708 -159 L522 -159 L522 248 L708 248 L708 -159 Z M122 551 Q122 668 156 768.5 Q190 869 253.5 943 Q317 1017 408 1059.5 Q499 1102 613 1102 Q728 1102 819.5 1059.5 Q911 1017 974.5 943 Q1038 869 1072 768.5 Q1106 668 1106 551 L1106 529 Q1106 412 1072 312 Q1038 212 974.5 138 Q911 64 820 22 Q729 -20 615 -20 Q500 -20 408.5 22 Q317 64 253.5 138 Q190 212 156 312 Q122 412 122 529 L122 551 Z M307 529 Q307 449 326 376.5 Q345 304 383.5 249 Q422 194 480 162 Q538 130 615 130 Q691 130 748.5 162 Q806 194 844.5 249 Q883 304 902 376.5 Q921 449 921 529 L921 551 Q921 630 901.5 702.5 Q882 775 843.5 830 Q805 885 747.5 917.5 Q690 950 613 950 Q536 950 479 917.5 Q422 885 383.5 830 Q345 775 326 702.5 Q307 630 307 551 L307 529 Z " />
<glyph glyph-name="uni047C" unicode="&#x47c;" horiz-adv-x="1229" d="M802 1455 Q880 1455 945 1429.5 Q1010 1404 1056.5 1354 Q1103 1304 1129 1230.5 Q1155 1157 1155 1061 L1155 336 Q1155 249 1132 182.5 Q1109 116 1067.5 71 Q1026 26 967.5 2.5 Q909 -21 839 -21 Q763 -21 705.5 15 Q648 51 616 121 Q583 51 525.5 15 Q468 -21 393 -21 Q322 -21 264 2.5 Q206 26 164.5 71 Q123 116 100 182.5 Q77 249 77 336 L77 1061 Q77 1157 102.5 1230.5 Q128 1304 174.5 1354 Q221 1404 286 1429.5 Q351 1455 430 1455 L430 1304 Q352 1303 307.5 1240 Q263 1177 263 1061 L263 336 Q263 239 297.5 184.5 Q332 130 393 130 Q453 130 488 180 Q523 230 523 318 L523 826 L709 826 L709 318 Q709 230 744 180 Q779 130 839 130 Q899 130 934 184.5 Q969 239 970 336 L970 1061 Q969 1177 924 1240 Q879 1303 802 1304 L802 1455 Z M989 1747 L989 1620 L947 1620 Q874 1620 816 1640 Q758 1660 710 1683.5 Q662 1707 621.5 1726.5 Q581 1746 543 1746 Q493 1746 464.5 1719 Q436 1692 436 1637 L435 1619 L308 1619 L308 1655 Q308 1765 369 1819 Q430 1873 539 1873 Q573 1873 604.5 1863.5 Q636 1854 666.5 1840.5 Q697 1827 728 1810.5 Q759 1794 793 1780 Q827 1766 865.5 1756.5 Q904 1747 949 1747 L989 1747 Z M509 1379 Q542 1419 559 1454.5 Q576 1490 576 1528 L576 1624 L715 1624 L715 1522 Q715 1493 704 1463.5 Q693 1434 675 1407.5 Q657 1381 633.5 1358.5 Q610 1336 585 1323 L509 1379 Z " />
<glyph glyph-name="uni047D" unicode="&#x47d;" horiz-adv-x="1229" d="M813 1101 Q887 1101 948.5 1076 Q1010 1051 1054.5 1001.5 Q1099 952 1123.5 879 Q1148 806 1148 710 L1148 332 Q1148 245 1126.5 179 Q1105 113 1065.5 68.5 Q1026 24 971 1.5 Q916 -21 849 -21 Q773 -21 716 14 Q659 49 626 119 Q593 49 535.5 14 Q478 -21 402 -21 Q335 -21 280 1.5 Q225 24 185.5 68.5 Q146 113 124.5 179 Q103 245 103 332 L103 710 Q103 806 127.5 879 Q152 952 196 1001.5 Q240 1051 301.5 1076 Q363 1101 438 1101 L438 950 Q369 949 329 888.5 Q289 828 289 710 L289 332 Q289 235 318.5 182.5 Q348 130 402 130 Q462 130 497 178 Q532 226 533 314 L533 583 L719 583 L719 314 Q719 226 754 178 Q789 130 849 130 Q902 130 932.5 182.5 Q963 235 963 332 L963 710 Q963 828 922.5 888.5 Q882 949 813 950 L813 1101 Z M1007 1376 L1007 1249 L964 1249 Q890 1249 832 1269 Q774 1289 725.5 1312.5 Q677 1336 636.5 1355.5 Q596 1375 557 1375 Q507 1375 478 1348 Q449 1321 449 1266 L448 1248 L321 1248 L321 1285 Q321 1395 382.5 1448.5 Q444 1502 553 1502 Q605 1502 650.5 1482.5 Q696 1463 743.5 1439.5 Q791 1416 845 1396 Q899 1376 967 1376 L1007 1376 Z M522 1007 Q555 1047 572 1082.5 Q589 1118 589 1156 L589 1252 L728 1252 L728 1150 Q728 1121 717 1091.5 Q706 1062 688 1035.5 Q670 1009 646.5 986.5 Q623 964 598 951 L522 1007 Z " />
<glyph glyph-name="uni047E" unicode="&#x47e;" horiz-adv-x="1229" d="M283 1796 L1003 1796 L1004 1688 L719 1688 L719 1563 L551 1563 L551 1688 L283 1688 L283 1796 Z M1156 1456 L1157 318 Q1157 236 1135.5 173 Q1114 110 1075 67 Q1036 24 981.5 2 Q927 -20 861 -20 Q783 -20 725 17 Q667 54 635 127 Q603 55 545 17.5 Q487 -20 410 -20 Q343 -20 288.5 2 Q234 24 195 67 Q156 110 134.5 173 Q113 236 113 318 L114 1456 L298 1456 L299 318 Q299 230 328.5 180 Q358 130 410 130 Q470 130 504.5 180 Q539 230 539 318 L540 1456 L731 1456 L731 318 Q731 230 765.5 180 Q800 130 861 130 Q913 130 942 180 Q971 230 971 318 L972 1456 L1156 1456 Z " />
<glyph glyph-name="uni047F" unicode="&#x47f;" horiz-adv-x="1229" d="M260 1456 L986 1456 L987 1348 L699 1348 L699 1221 L531 1221 L531 1348 L260 1348 L260 1456 Z M1146 1083 L1146 316 Q1146 234 1124.5 171 Q1103 108 1063.5 65.5 Q1024 23 969 1 Q914 -21 848 -21 Q770 -21 711.5 16 Q653 53 620 126 Q588 54 530 16.5 Q472 -21 394 -21 Q327 -21 272 1 Q217 23 178 65.5 Q139 108 117 171 Q95 234 95 316 L96 1083 L281 1083 L281 316 Q281 228 311 179 Q341 130 394 130 Q454 130 489.5 179 Q525 228 525 316 L525 1083 L716 1083 L717 316 Q717 228 752 179 Q787 130 848 130 Q900 130 930.5 179 Q961 228 961 316 L961 1083 L1146 1083 Z " />
<glyph glyph-name="uni0480" unicode="&#x480;" horiz-adv-x="1229" d="M810 -382 L625 -382 L625 -15 Q515 -1 427.5 52.5 Q340 106 278.5 188.5 Q217 271 184 377.5 Q151 484 151 605 L151 852 Q151 983 186 1097 Q221 1211 286 1295.5 Q351 1380 443 1428.5 Q535 1477 649 1477 Q759 1477 847 1442.5 Q935 1408 996.5 1344 Q1058 1280 1091.5 1190.5 Q1125 1101 1125 991 L940 991 Q939 1066 920 1128 Q901 1190 864.5 1233.5 Q828 1277 774 1301 Q720 1325 649 1325 Q574 1325 515.5 1286.5 Q457 1248 417 1183.5 Q377 1119 356.5 1033.5 Q336 948 336 854 L336 605 Q336 510 360 424 Q384 338 430.5 272.5 Q477 207 545 168.5 Q613 130 701 130 L810 130 L810 -382 Z " />
<glyph glyph-name="uni0481" unicode="&#x481;" horiz-adv-x="1229" d="M765 -382 L580 -382 L580 -14 Q485 2 412.5 50.5 Q340 99 291 171 Q242 243 216.5 332.5 Q191 422 191 520 L191 562 Q191 669 222 767 Q253 865 313 939.5 Q373 1014 461 1058 Q549 1102 663 1102 Q754 1102 831 1071.5 Q908 1041 964 988 Q1020 935 1051.5 863.5 Q1083 792 1083 709 L908 709 Q908 758 889 802 Q870 846 837.5 879 Q805 912 760 931 Q715 950 663 950 Q587 950 533 915.5 Q479 881 444 825.5 Q409 770 392.5 700.5 Q376 631 376 562 L376 520 Q376 449 392 379.5 Q408 310 443 254.5 Q478 199 532 164.5 Q586 130 663 130 L765 130 L765 -382 Z " />
<glyph glyph-name="uni0482" unicode="&#x482;" horiz-adv-x="1229" d="M602 446 L891 274 L823 151 L532 321 L350 0 L182 0 L407 398 L118 569 L186 692 L479 521 L684 886 L394 1057 L464 1182 L755 1011 L943 1342 L1108 1342 L877 934 L1170 763 L1098 641 L810 811 L602 446 Z " />
<glyph glyph-name="uni0483" unicode="&#x483;" d="M375 1315 L375 1190 L209 1191 L210 1424 L749 1424 L748 1532 L913 1531 L913 1315 L375 1315 Z " />
<glyph glyph-name="uni0484" unicode="&#x484;" d="M294 1430 Q346 1430 391 1439.5 Q436 1449 475.5 1463 Q515 1477 551 1493.5 Q587 1510 622.5 1524 Q658 1538 694 1547.5 Q730 1557 770 1557 Q880 1557 944 1503 Q1008 1449 1008 1339 L1008 1303 L880 1303 L880 1321 Q880 1377 848.5 1403 Q817 1429 766 1429 Q721 1429 674 1409.5 Q627 1390 571.5 1366.5 Q516 1343 448.5 1323.5 Q381 1304 296 1304 L252 1304 L252 1430 L294 1430 Z " />
<glyph glyph-name="uni0485" unicode="&#x485;" d="M451 1500 L451 1623 L631 1623 L630 1483 L690 1367 L612 1302 L451 1500 Z " />
<glyph glyph-name="uni0486" unicode="&#x486;" d="M648 1302 L572 1367 L630 1483 L630 1623 L810 1623 L810 1500 L648 1302 Z " />
<glyph glyph-name="uni0488" unicode="&#x488;" d="M468 1267 Q468 1308 482.5 1342.5 Q497 1377 524.5 1402 Q552 1427 591 1441 Q630 1455 678 1455 Q726 1455 765 1441 Q804 1427 831.5 1402 Q859 1377 874 1342.5 Q889 1308 889 1267 L777 1267 Q777 1287 771.5 1305 Q766 1323 754 1337 Q742 1351 723.5 1359.5 Q705 1368 678 1368 Q651 1368 632.5 1359.5 Q614 1351 602.5 1337 Q591 1323 586 1305 Q581 1287 581 1267 L468 1267 Z M1059 990 Q1059 1031 1074 1065.5 Q1089 1100 1116 1125 Q1143 1150 1182 1164 Q1221 1178 1269 1178 Q1317 1178 1356 1164 Q1395 1150 1423 1125 Q1451 1100 1466 1065.5 Q1481 1031 1481 990 L1368 990 Q1368 1010 1362.5 1028 Q1357 1046 1345 1060 Q1333 1074 1314.5 1082.5 Q1296 1091 1269 1091 Q1243 1091 1224.5 1082.5 Q1206 1074 1194.5 1060 Q1183 1046 1178 1028 Q1173 1010 1173 990 L1059 990 Z M1246 487 Q1246 528 1261 562.5 Q1276 597 1303 622 Q1330 647 1369 661 Q1408 675 1456 675 Q1504 675 1543 661 Q1582 647 1609.5 622 Q1637 597 1652 562.5 Q1667 528 1667 487 L1555 487 Q1555 507 1549.5 525 Q1544 543 1532 557 Q1520 571 1501.5 579.5 Q1483 588 1456 588 Q1430 588 1411.5 579.5 Q1393 571 1381.5 557 Q1370 543 1364.5 525 Q1359 507 1359 487 L1246 487 Z M1049 -32 Q1049 9 1064 43.5 Q1079 78 1106 103 Q1133 128 1172 142 Q1211 156 1259 156 Q1307 156 1346 142 Q1385 128 1412.5 103 Q1440 78 1455 43.5 Q1470 9 1470 -32 L1358 -32 Q1358 -12 1352.5 6 Q1347 24 1335 38 Q1323 52 1304.5 60.5 Q1286 69 1259 69 Q1233 69 1214.5 60.5 Q1196 52 1184.5 38 Q1173 24 1167.5 6 Q1162 -12 1162 -32 L1049 -32 Z M473 -316 Q473 -274 487.5 -239.5 Q502 -205 529.5 -180.5 Q557 -156 596 -142 Q635 -128 683 -128 Q731 -128 770 -142 Q809 -156 836.5 -180.5 Q864 -205 879 -239.5 Q894 -274 894 -316 L782 -316 Q782 -296 776.5 -277.5 Q771 -259 759 -245 Q747 -231 728.5 -223 Q710 -215 683 -215 Q657 -215 638.5 -223 Q620 -231 608.5 -245 Q597 -259 591.5 -277.5 Q586 -296 586 -316 L473 -316 Z M-105 990 Q-105 1031 -90 1065.5 Q-75 1100 -47.5 1125 Q-20 1150 19 1164 Q58 1178 106 1178 Q154 1178 193 1164 Q232 1150 259.5 1125 Q287 1100 302 1065.5 Q317 1031 317 990 L205 990 Q205 1010 199.5 1028 Q194 1046 182 1060 Q170 1074 151.5 1082.5 Q133 1091 106 1091 Q79 1091 60.5 1082.5 Q42 1074 30.5 1060 Q19 1046 14 1028 Q9 1010 9 990 L-105 990 Z M-281 487 Q-281 528 -266 562.5 Q-251 597 -223.5 622 Q-196 647 -157.5 661 Q-119 675 -71 675 Q-23 675 16 661 Q55 647 82.5 622 Q110 597 125 562.5 Q140 528 140 487 L28 487 Q28 507 22.5 525 Q17 543 5 557 Q-7 571 -25.5 579.5 Q-44 588 -71 588 Q-97 588 -115 579.5 Q-133 571 -145 557 Q-157 543 -162.5 525 Q-168 507 -168 487 L-281 487 Z M-115 -32 Q-115 9 -100 43.5 Q-85 78 -57.5 103 Q-30 128 8.5 142 Q47 156 95 156 Q143 156 182 142 Q221 128 249 103 Q277 78 292 43.5 Q307 9 307 -32 L194 -32 Q194 -12 188.5 6 Q183 24 171 38 Q159 52 140.5 60.5 Q122 69 95 69 Q69 69 50.5 60.5 Q32 52 21 38 Q10 24 4.5 6 Q-1 -12 -1 -32 L-115 -32 Z " />
<glyph glyph-name="uni0489" unicode="&#x489;" d="M1105 -60 L1116 -74 L994 -413 L898 -413 L968 -60 L1105 -60 Z M910 1126 L898 1140 L1020 1478 L1116 1478 L1046 1126 L910 1126 Z M1588 631 L1601 643 L1934 519 L1934 421 L1588 492 L1588 631 Z M424 433 L411 421 L78 545 L78 643 L424 572 L424 433 Z M1348 1002 L1350 1018 L1671 1171 L1739 1103 L1445 903 L1348 1002 Z M664 21 L662 4 L342 -149 L273 -80 L567 120 L664 21 Z M524 860 L507 862 L359 1188 L424 1257 L622 958 L524 860 Z M1486 161 L1503 159 L1652 -166 L1586 -237 L1389 62 L1486 161 Z " />
<glyph glyph-name="uni048E" unicode="&#x48e;" horiz-adv-x="1229" d="M1073 467 L941 397 L578 889 L709 959 L1073 467 Z M376 584 L376 0 L191 0 L191 1456 L663 1456 Q761 1454 848.5 1425 Q936 1396 1002 1341 Q1068 1286 1106.5 1205 Q1145 1124 1145 1019 Q1145 914 1106.5 833.5 Q1068 753 1002 698 Q936 643 848.5 614 Q761 585 663 584 L376 584 Z M376 736 L663 736 Q727 737 781 756.5 Q835 776 875 812 Q915 848 937.5 899.5 Q960 951 960 1017 Q960 1083 937.5 1136 Q915 1189 875.5 1226 Q836 1263 781.5 1283 Q727 1303 663 1304 L376 1304 L376 736 Z " />
<glyph glyph-name="uni048F" unicode="&#x48f;" horiz-adv-x="1229" d="M1078 2 L966 -91 L603 282 L716 376 L1078 2 Z M1087 529 Q1087 413 1059 312.5 Q1031 212 977 138 Q923 64 843.5 22 Q764 -20 662 -20 Q563 -20 487.5 12 Q412 44 358 104 L358 -416 L173 -416 L173 1082 L342 1082 L351 964 Q405 1031 481.5 1066.5 Q558 1102 659 1102 Q763 1102 843 1061 Q923 1020 977 947 Q1031 874 1059 772.5 Q1087 671 1087 550 L1087 529 Z M902 550 Q902 629 884.5 700.5 Q867 772 830.5 826.5 Q794 881 738 913 Q682 945 604 945 Q515 945 454.5 903.5 Q394 862 358 797 L358 276 Q394 212 454 171.5 Q514 131 606 131 Q683 131 739 163.5 Q795 196 831 251 Q867 306 884.5 378 Q902 450 902 529 L902 550 Z " />
<glyph glyph-name="uni0490" unicode="&#x490;" horiz-adv-x="1229" d="M1095 1304 L368 1304 L368 0 L182 0 L182 1456 L910 1456 L910 1791 L1095 1791 L1095 1304 Z " />
<glyph glyph-name="uni0491" unicode="&#x491;" horiz-adv-x="1229" d="M1073 929 L368 929 L368 0 L182 0 L182 1082 L887 1082 L887 1399 L1073 1399 L1073 929 Z " />
<glyph glyph-name="uni0494" unicode="&#x494;" horiz-adv-x="1229" d="M1076 1304 L371 1304 L371 834 L555 834 Q697 834 807.5 794 Q918 754 994.5 679.5 Q1071 605 1111 498 Q1151 391 1151 257 Q1151 126 1120.5 24.5 Q1090 -77 1030 -146 Q970 -215 881.5 -251.5 Q793 -288 678 -288 L676 -141 Q757 -141 812.5 -112.5 Q868 -84 902 -32 Q936 20 951 93.5 Q966 167 966 257 Q964 456 862.5 564 Q761 672 555 672 L371 672 L371 0 L185 0 L185 1456 L1076 1456 L1076 1304 Z " />
<glyph glyph-name="uni0495" unicode="&#x495;" horiz-adv-x="1229" d="M1067 929 L370 929 L370 646 L588 646 Q699 646 793.5 613.5 Q888 581 957.5 520.5 Q1027 460 1066.5 371.5 Q1106 283 1106 170 Q1106 112 1084 41 Q1062 -30 1015 -96 Q968 -162 894 -213.5 Q820 -265 717 -284 L669 -138 Q737 -120 785 -90.5 Q833 -61 863 -21.5 Q893 18 907 66 Q921 114 921 170 Q921 246 895.5 305 Q870 364 825 403.5 Q780 443 719.5 463.5 Q659 484 588 484 L370 484 L370 0 L184 0 L184 1082 L1067 1082 L1067 929 Z " />
<glyph glyph-name="uni049C" unicode="&#x49c;" horiz-adv-x="1229" d="M1176 1456 L841 769 L1220 0 L989 0 L663 660 L609 660 L609 415 L460 415 L460 660 L359 660 L359 0 L174 0 L174 1456 L359 1456 L359 811 L460 811 L460 1068 L609 1068 L609 811 L663 811 L960 1456 L1176 1456 Z " />
<glyph glyph-name="uni049D" unicode="&#x49d;" horiz-adv-x="1229" d="M1113 1082 L775 568 L1150 0 L916 0 L638 461 L587 461 L587 267 L439 267 L439 461 L349 461 L349 0 L163 0 L163 1082 L349 1082 L349 624 L439 624 L439 837 L587 837 L587 624 L631 624 L890 1082 L1113 1082 Z " />
<glyph glyph-name="uni04A0" unicode="&#x4a0;" horiz-adv-x="1229" d="M661 659 L555 659 L555 0 L371 0 L371 1304 L45 1304 L45 1456 L555 1456 L555 810 L653 810 L939 1456 L1150 1456 L825 751 L1190 0 L964 0 L661 659 Z " />
<glyph glyph-name="uni04A1" unicode="&#x4a1;" horiz-adv-x="1229" d="M700 461 L566 461 L566 0 L381 0 L381 929 L56 929 L56 1082 L566 1082 L566 624 L693 624 L942 1082 L1166 1082 L837 568 L1201 0 L967 0 L700 461 Z " />
<glyph glyph-name="uni04A4" unicode="&#x4a4;" horiz-adv-x="1229" d="M299 799 L670 799 L670 1456 L1178 1456 L1178 1304 L854 1304 L854 0 L670 0 L670 647 L299 647 L299 0 L114 0 L114 1456 L299 1456 L299 799 Z " />
<glyph glyph-name="uni04A5" unicode="&#x4a5;" horiz-adv-x="1229" d="M295 613 L675 613 L675 1082 L1180 1082 L1180 929 L860 929 L860 0 L675 0 L675 462 L295 462 L295 0 L110 0 L110 1082 L295 1082 L295 613 Z " />
<glyph glyph-name="uni04A6" unicode="&#x4a6;" horiz-adv-x="1229" d="M737 833 Q844 831 926.5 789.5 Q1009 748 1065 672 Q1121 596 1149.5 490.5 Q1178 385 1178 256 Q1178 127 1154 26 Q1130 -75 1081.5 -145 Q1033 -215 961 -252 Q889 -289 793 -289 L791 -142 Q849 -142 888 -112.5 Q927 -83 950.5 -30.5 Q974 22 983.5 95.5 Q993 169 993 256 Q992 350 977 426 Q962 502 931 555.5 Q900 609 852 638.5 Q804 668 737 670 L737 0 L552 0 L552 1304 L293 1304 L293 0 L109 0 L109 1456 L737 1456 L737 833 Z " />
<glyph glyph-name="uni04A7" unicode="&#x4a7;" horiz-adv-x="1229" d="M717 645 L725 645 Q818 645 896 612 Q974 579 1030 517 Q1086 455 1117 367 Q1148 279 1148 170 Q1147 132 1139 87.5 Q1131 43 1114 -3 Q1097 -49 1070.5 -93.5 Q1044 -138 1006.5 -176 Q969 -214 920 -242 Q871 -270 810 -283 L762 -137 Q819 -119 857.5 -89 Q896 -59 919.5 -19.5 Q943 20 953 68 Q963 116 963 170 Q962 243 945 301.5 Q928 360 897 400 Q866 440 822.5 461.5 Q779 483 725 483 L717 483 L717 0 L532 0 L532 929 L301 929 L301 0 L116 0 L116 1082 L717 1082 L717 645 Z " />
<glyph glyph-name="uni04A8" unicode="&#x4a8;" horiz-adv-x="1229" d="M1104 -30 Q1022 -29 949 -12.5 Q876 4 813 35 Q765 8 710.5 -6.5 Q656 -21 596 -21 Q483 -21 392 30 Q301 81 237 168 Q173 255 138.5 371.5 Q104 488 104 621 L104 900 Q104 1020 127.5 1125 Q151 1230 194.5 1308 Q238 1386 300 1431.5 Q362 1477 440 1477 L441 1319 Q403 1319 375 1286 Q347 1253 327.5 1196.5 Q308 1140 298.5 1064.5 Q289 989 289 902 L289 621 Q289 520 309 432 Q329 344 368 278.5 Q407 213 464.5 174.5 Q522 136 596 136 Q613 136 629 138 Q645 140 661 144 Q570 235 521.5 361 Q473 487 473 642 L473 981 Q473 1082 494.5 1172 Q516 1262 556 1329 Q596 1396 653.5 1435 Q711 1474 783 1474 Q855 1474 912.5 1436 Q970 1398 1010 1331.5 Q1050 1265 1071.5 1175 Q1093 1085 1093 981 L1093 621 Q1092 481 1054.5 360.5 Q1017 240 947 152 Q982 140 1021 133.5 Q1060 127 1104 127 L1104 -30 Z M658 640 Q658 512 694.5 410.5 Q731 309 800 241 Q853 308 880 406.5 Q907 505 907 621 L907 984 Q907 1053 899.5 1114 Q892 1175 876.5 1220 Q861 1265 837.5 1290.5 Q814 1316 783 1316 Q751 1316 728 1289 Q705 1262 689 1216.5 Q673 1171 665.5 1111 Q658 1051 658 984 L658 640 Z " />
<glyph glyph-name="uni04A9" unicode="&#x4a9;" horiz-adv-x="1229" d="M1163 -12 Q1073 -11 994 3.5 Q915 18 846 46 Q789 14 723.5 -3.5 Q658 -21 584 -21 Q473 -21 382.5 24.5 Q292 70 227.5 149.5 Q163 229 127.5 337 Q92 445 92 569 L92 627 Q92 726 117 812.5 Q142 899 188 963.5 Q234 1028 299 1065 Q364 1102 444 1102 L444 944 Q404 944 373 919.5 Q342 895 321 852.5 Q300 810 289 752.5 Q278 695 278 629 L278 569 Q278 478 299 399 Q320 320 359 261.5 Q398 203 455 169.5 Q512 136 584 136 Q631 136 675 148 Q581 227 530.5 335.5 Q480 444 480 572 L480 676 Q480 767 501.5 845 Q523 923 563.5 980.5 Q604 1038 663 1070.5 Q722 1103 797 1103 Q872 1103 931.5 1067.5 Q991 1032 1031.5 971 Q1072 910 1093.5 828.5 Q1115 747 1115 655 L1115 550 Q1115 437 1082 339 Q1049 241 987 166 Q1066 145 1163 145 L1163 -12 Z M666 570 Q666 465 706.5 381.5 Q747 298 824 241 Q875 298 902 377 Q929 456 930 550 L930 658 Q930 716 922 768 Q914 820 897.5 859.5 Q881 899 856 922.5 Q831 946 797 946 Q763 946 738.5 925.5 Q714 905 698 869 Q682 833 674 784 Q666 735 666 678 L666 570 Z " />
<glyph glyph-name="uni04B4" unicode="&#x4b4;" horiz-adv-x="1229" d="M326 1304 L57 1304 L57 1455 L326 1455 L326 1456 L511 1456 L511 1455 L749 1455 L749 1304 L511 1304 L511 151 L876 151 L876 1456 L1061 1456 L1061 156 L1206 156 L1188 -351 L1023 -351 L1023 0 L326 0 L326 1304 Z " />
<glyph glyph-name="uni04B5" unicode="&#x4b5;" horiz-adv-x="1229" d="M284 931 L52 931 L52 1082 L697 1082 L697 931 L469 931 L469 151 L850 151 L850 1082 L1035 1082 L1035 151 L1163 151 L1145 -321 L979 -321 L979 0 L284 0 L284 931 Z " />
<glyph glyph-name="uni04B8" unicode="&#x4b8;" horiz-adv-x="1229" d="M678 309 L529 309 L529 1009 L678 1009 L678 309 Z M1063 1456 L1063 0 L878 0 L878 603 Q845 591 812 582 Q779 573 743.5 566 Q708 559 667.5 555.5 Q627 552 579 552 Q482 552 406 576.5 Q330 601 278 655 Q226 709 198.5 794 Q171 879 171 1000 L171 1456 L356 1456 L356 1000 Q356 915 369.5 858.5 Q383 802 410.5 767.5 Q438 733 480 718.5 Q522 704 579 704 Q662 704 734 718.5 Q806 733 878 757 L878 1456 L1063 1456 Z " />
<glyph glyph-name="uni04B9" unicode="&#x4b9;" horiz-adv-x="1229" d="M687 211 L537 211 L537 777 L687 777 L687 211 Z M1068 0 L883 0 L883 395 Q815 378 742.5 369 Q670 360 585 360 Q485 360 404 385 Q323 410 265.5 460.5 Q208 511 177 587.5 Q146 664 146 767 L146 1082 L331 1082 L331 767 Q332 634 397.5 573 Q463 512 585 512 Q666 512 740 521 Q814 530 883 547 L883 1082 L1068 1082 L1068 0 Z " />
<glyph glyph-name="uni04BA" unicode="&#x4ba;" horiz-adv-x="1229" d="M227 0 L227 1456 L412 1456 L412 851 Q445 863 477.5 872.5 Q510 882 545.5 889 Q581 896 621.5 899.5 Q662 903 710 903 Q807 903 883 878.5 Q959 854 1011.5 800 Q1064 746 1091.5 661 Q1119 576 1119 455 L1118 0 L933 0 L933 455 Q933 540 919.5 596.5 Q906 653 878.5 687.5 Q851 722 809 736.5 Q767 751 710 751 Q627 751 555 736.5 Q483 722 412 698 L412 0 L227 0 Z " />
<glyph glyph-name="uni04BC" unicode="&#x4bc;" horiz-adv-x="1229" d="M810 -22 Q686 -22 590.5 22 Q495 66 430 144.5 Q365 223 331.5 330.5 Q298 438 298 566 L298 710 Q233 722 184.5 753.5 Q136 785 103.5 832.5 Q71 880 54.5 943 Q38 1006 38 1081 L187 1081 Q188 997 214 937 Q240 877 298 852 Q298 996 333 1111 Q368 1226 429 1307 Q490 1388 572.5 1431.5 Q655 1475 750 1475 Q963 1475 1062 1325.5 Q1161 1176 1161 890 L1161 702 L483 702 L483 566 Q483 476 501 396.5 Q519 317 558.5 257.5 Q598 198 660 163 Q722 128 810 128 Q857 128 895.5 136 Q934 144 966.5 157 Q999 170 1025.5 185 Q1052 200 1074 214 L1121 78 Q1106 66 1079.5 48.5 Q1053 31 1015 15.5 Q977 0 926 -11 Q875 -22 810 -22 Z M483 834 L976 834 L976 946 Q976 1024 965.5 1092.5 Q955 1161 929.5 1212 Q904 1263 860.5 1293 Q817 1323 750 1323 Q623 1323 553 1201.5 Q483 1080 483 850 L483 834 Z " />
<glyph glyph-name="uni04BD" unicode="&#x4bd;" horiz-adv-x="1229" d="M766 -20 Q656 -20 568.5 20.5 Q481 61 420 133.5 Q359 206 326 305 Q293 404 293 521 L293 522 Q165 545 101.5 634.5 Q38 724 38 866 L186 866 Q187 789 214 735.5 Q241 682 300 661 Q315 758 355 839.5 Q395 921 453 979.5 Q511 1038 583.5 1070 Q656 1102 736 1102 Q843 1102 922.5 1065.5 Q1002 1029 1054 964.5 Q1106 900 1131.5 811 Q1157 722 1157 617 L1157 497 L479 497 Q482 421 501 354.5 Q520 288 556 238 Q592 188 644.5 159 Q697 130 766 130 Q866 130 935.5 161.5 Q1005 193 1053 239 L1127 115 Q1103 90 1069.5 66 Q1036 42 991.5 23 Q947 4 891 -8 Q835 -20 766 -20 Z M736 950 Q686 950 644 927 Q602 904 570 863.5 Q538 823 516 768 Q494 713 485 649 L972 649 L972 673 Q972 727 958 777 Q944 827 915 865.5 Q886 904 841.5 927 Q797 950 736 950 Z " />
<glyph glyph-name="uni04C3" unicode="&#x4c3;" horiz-adv-x="1229" d="M714 821 Q822 806 906 759.5 Q990 713 1047 640 Q1104 567 1134 468.5 Q1164 370 1164 251 Q1164 120 1133.5 19 Q1103 -82 1044 -151.5 Q985 -221 897.5 -257.5 Q810 -294 695 -294 L693 -148 Q773 -148 827.5 -119 Q882 -90 916 -37.5 Q950 15 964.5 88 Q979 161 979 251 Q978 350 955 427 Q932 504 886.5 557 Q841 610 771.5 638 Q702 666 609 666 L385 666 L385 0 L200 0 L200 1456 L385 1456 L385 828 L527 828 L938 1456 L1153 1456 L714 821 Z " />
<glyph glyph-name="uni04C4" unicode="&#x4c4;" horiz-adv-x="1229" d="M687 612 Q773 598 844.5 564 Q916 530 967 475.5 Q1018 421 1046.5 346 Q1075 271 1075 175 Q1075 119 1054 51 Q1033 -17 989 -79.5 Q945 -142 875.5 -191 Q806 -240 709 -258 L660 -112 Q723 -96 766.5 -68 Q810 -40 838 -3.5 Q866 33 878.5 78.5 Q891 124 891 175 Q891 251 866 305.5 Q841 360 797.5 394.5 Q754 429 694.5 445 Q635 461 564 461 L365 461 L365 0 L180 0 L180 1082 L365 1082 L365 624 L484 624 L860 1082 L1084 1082 L687 612 Z " />
<glyph glyph-name="uni04C7" unicode="&#x4c7;" horiz-adv-x="1229" d="M367 1456 L367 796 L864 796 L864 1456 L1049 1456 L1049 -89 Q1049 -171 1028 -235.5 Q1007 -300 966.5 -345 Q926 -390 867 -413.5 Q808 -437 732 -437 Q703 -437 677 -433 Q651 -429 622 -419 L636 -272 Q644 -275 657.5 -277.5 Q671 -280 685.5 -281.5 Q700 -283 713 -284 Q726 -285 732 -285 Q797 -285 830.5 -230.5 Q864 -176 864 -89 L864 645 L367 645 L367 0 L182 0 L182 1456 L367 1456 Z " />
<glyph glyph-name="uni04C8" unicode="&#x4c8;" horiz-adv-x="1229" d="M364 1082 L364 613 L861 613 L861 1082 L1046 1082 L1046 -89 Q1046 -172 1024 -236.5 Q1002 -301 961 -345.5 Q920 -390 860 -413.5 Q800 -437 724 -437 Q694 -437 667.5 -433 Q641 -429 612 -419 L626 -272 Q634 -275 648 -277.5 Q662 -280 676.5 -281.5 Q691 -283 704 -284 Q717 -285 724 -285 Q790 -285 825.5 -232 Q861 -179 861 -89 L861 462 L364 462 L364 0 L179 0 L179 1082 L364 1082 Z " />
<glyph glyph-name="uni04D8" unicode="&#x4d8;" horiz-adv-x="1229" d="M574 1476 Q704 1476 804 1428.5 Q904 1381 972.5 1297 Q1041 1213 1076 1097.5 Q1111 982 1111 846 L1111 628 Q1111 488 1071.5 369 Q1032 250 962.5 163 Q893 76 798.5 27.5 Q704 -21 593 -20 Q467 -20 373 23 Q279 66 216 145.5 Q153 225 121.5 337 Q90 449 90 587 L90 753 L926 753 L926 846 Q926 944 906.5 1031 Q887 1118 844.5 1183.5 Q802 1249 735 1287 Q668 1325 574 1325 Q521 1325 476.5 1317 Q432 1309 395 1296.5 Q358 1284 327.5 1268.5 Q297 1253 272 1239 L225 1375 Q242 1387 271.5 1404.5 Q301 1422 344.5 1438 Q388 1454 445 1465 Q502 1476 574 1476 Z M593 130 Q674 130 735.5 169.5 Q797 209 839 276 Q881 343 903 432.5 Q925 522 926 621 L275 621 L275 531 Q275 448 291.5 375 Q308 302 345.5 247.5 Q383 193 443.5 161.5 Q504 130 593 130 Z " />
<glyph glyph-name="uni04E0" unicode="&#x4e0;" horiz-adv-x="1229" d="M842 1304 L190 1304 L190 1456 L1059 1456 L1060 1338 L649 846 Q757 840 842 808 Q927 776 985.5 720.5 Q1044 665 1075 585.5 Q1106 506 1106 406 Q1106 304 1069.5 225 Q1033 146 967.5 91 Q902 36 812.5 7.5 Q723 -21 617 -21 Q530 -21 445.5 4 Q361 29 295 81 Q229 133 188.5 213 Q148 293 148 404 L333 404 Q333 347 354 297.5 Q375 248 412 210.5 Q449 173 501.5 151.5 Q554 130 617 130 Q688 130 744.5 150.5 Q801 171 840 207 Q879 243 900 293 Q921 343 921 402 Q921 558 837.5 629 Q754 700 595 700 L452 700 L452 851 L842 1304 Z " />
<glyph glyph-name="uni04E1" unicode="&#x4e1;" horiz-adv-x="1229" d="M812 929 L180 929 L180 1082 L1049 1082 L1050 964 L652 469 Q757 461 839.5 428.5 Q922 396 979 340.5 Q1036 285 1066 207 Q1096 129 1096 31 Q1096 -70 1059.5 -149 Q1023 -228 957.5 -283 Q892 -338 802 -366.5 Q712 -395 606 -395 Q519 -395 435 -370 Q351 -345 285 -293 Q219 -241 178 -161 Q137 -81 137 29 L323 29 Q323 -27 343.5 -76.5 Q364 -126 401.5 -163 Q439 -200 491 -221.5 Q543 -243 606 -243 Q678 -243 734.5 -223 Q791 -203 830 -167 Q869 -131 890 -81.5 Q911 -32 911 27 Q911 184 825.5 254.5 Q740 325 581 325 L440 325 L440 476 L812 929 Z " />
<glyph glyph-name="uni04FA" unicode="&#x4fa;" horiz-adv-x="1229" d="M1147 1304 L442 1304 L442 0 L256 0 L256 1456 L1147 1456 L1147 1304 Z M703 714 L66 714 L66 865 L703 865 L703 714 Z M609 151 L609 -89 Q609 -256 525 -346.5 Q441 -437 287 -437 Q257 -437 230.5 -433 Q204 -429 175 -419 L189 -262 Q197 -265 210.5 -267.5 Q224 -270 239 -271.5 Q254 -273 267 -274 Q280 -275 287 -275 Q353 -275 388.5 -227 Q424 -179 424 -89 L424 151 L609 151 Z " />
<glyph glyph-name="uni04FB" unicode="&#x4fb;" horiz-adv-x="1229" d="M1148 929 L451 929 L451 0 L265 0 L265 1082 L1148 1082 L1148 929 Z M753 495 L116 495 L116 646 L753 646 L753 495 Z M598 151 L598 -89 Q598 -256 514 -346.5 Q430 -437 276 -437 Q246 -437 219.5 -433 Q193 -429 164 -419 L178 -262 Q186 -265 199.5 -267.5 Q213 -270 228 -271.5 Q243 -273 256 -274 Q269 -275 276 -275 Q342 -275 377.5 -227 Q413 -179 413 -89 L413 151 L598 151 Z " />
<glyph glyph-name="uni0500" unicode="&#x500;" horiz-adv-x="1229" d="M887 877 L887 1456 L1072 1456 L1072 0 L584 0 Q467 0 376.5 33 Q286 66 224 125 Q162 184 129.5 265.5 Q97 347 97 443 Q97 540 129.5 620 Q162 700 224 757 Q286 814 376.5 845.5 Q467 877 584 877 L887 877 Z M887 151 L887 726 L584 726 Q506 726 449 703 Q392 680 355 641.5 Q318 603 300.5 552 Q283 501 283 445 Q283 388 300.5 335 Q318 282 355 241 Q392 200 449 175.5 Q506 151 584 151 L887 151 Z " />
<glyph glyph-name="uni0502" unicode="&#x502;" horiz-adv-x="1229" d="M463 0 Q369 0 297 33.5 Q225 67 176 126.5 Q127 186 102 267 Q77 348 77 443 Q77 538 102 618 Q127 698 176 755.5 Q225 813 297 845 Q369 877 463 877 L577 877 L577 1456 L762 1456 L762 150 L811 151 Q852 152 882.5 175.5 Q913 199 934 242 Q955 285 966 344.5 Q977 404 978 476 Q980 567 964 665.5 Q948 764 919 855 L1098 855 Q1125 764 1145 668 Q1165 572 1163 476 Q1161 358 1132.5 269 Q1104 180 1056.5 120 Q1009 60 945.5 30 Q882 0 811 0 L463 0 Z M577 151 L577 726 L463 726 Q409 726 370.5 703 Q332 680 308 641 Q284 602 273 551 Q262 500 262 445 Q262 389 273 336 Q284 283 308 242 Q332 201 370.5 176 Q409 151 463 151 L577 151 Z " />
<glyph glyph-name="uni0503" unicode="&#x503;" horiz-adv-x="1229" d="M101 576 Q101 687 120 783 Q139 879 176.5 950 Q214 1021 271 1061.5 Q328 1102 403 1102 Q455 1102 497 1083 Q539 1064 572 1029 L572 1560 L757 1560 L757 308 Q756 272 761.5 239.5 Q767 207 779 183 Q791 159 808.5 144.5 Q826 130 849 130 Q883 131 908 161 Q933 191 949.5 244 Q966 297 974.5 369.5 Q983 442 984 529 Q986 629 970.5 730 Q955 831 926 931 L1104 932 Q1132 834 1152 733 Q1172 632 1170 529 Q1168 395 1143 293 Q1118 191 1075 121 Q1032 51 974 15 Q916 -21 849 -21 Q681 -24 614 110 Q577 47 524.5 13 Q472 -21 401 -21 Q327 -21 271 15 Q215 51 177 114 Q139 177 120 262 Q101 347 101 445 L101 576 Z M572 872 Q550 905 520 925 Q490 945 449 945 Q403 945 371.5 914.5 Q340 884 321 832.5 Q302 781 294 714.5 Q286 648 286 576 L286 445 Q286 383 294 327.5 Q302 272 321 229 Q340 186 371 161 Q402 136 447 136 Q493 135 525 159 Q557 183 580 223 Q577 243 575 264 Q573 285 572 308 L572 872 Z " />
<glyph glyph-name="uni0504" unicode="&#x504;" horiz-adv-x="1229" d="M503 370 Q503 428 489.5 477 Q476 526 451.5 561 Q427 596 392.5 615.5 Q358 635 316 635 L183 635 L183 787 L265 787 Q394 787 453.5 853.5 Q513 920 513 1047 Q513 1106 498.5 1153.5 Q484 1201 455 1234.5 Q426 1268 382.5 1286 Q339 1304 280 1304 L55 1304 L55 1456 L280 1456 Q378 1456 455.5 1429 Q533 1402 587 1350.5 Q641 1299 669.5 1222 Q698 1145 698 1045 Q698 931 648 846 Q598 761 507 713 Q556 692 590.5 658.5 Q625 625 647 581 Q669 537 678.5 484 Q688 431 688 372 L688 267 Q688 239 695 214 Q702 189 716 170.5 Q730 152 750.5 141 Q771 130 798 130 Q841 131 873.5 160.5 Q906 190 928 243 Q950 296 961.5 369 Q973 442 975 529 Q976 629 960 730 Q944 831 915 932 L1094 932 Q1120 834 1141 733 Q1162 632 1160 529 Q1158 394 1129 291.5 Q1100 189 1051.5 119.5 Q1003 50 937.5 14.5 Q872 -21 798 -21 Q661 -23 585 46.5 Q509 116 503 267 L503 370 Z " />
<glyph glyph-name="uni0505" unicode="&#x505;" horiz-adv-x="1229" d="M731 213 Q731 174 750 149.5 Q769 125 822 125 Q856 125 881.5 146.5 Q907 168 924.5 206.5 Q942 245 951 299 Q960 353 961 419 Q963 497 946.5 578.5 Q930 660 900 738 L1080 738 Q1106 660 1127.5 580 Q1149 500 1147 419 Q1145 309 1118.5 226 Q1092 143 1048.5 87 Q1005 31 946.5 2.5 Q888 -26 822 -26 Q688 -29 620 28 Q552 85 546 214 L546 289 Q545 363 491.5 402 Q438 441 339 442 L166 442 L164 592 L313 592 Q435 592 491 635.5 Q547 679 547 754 Q547 833 489 882.5 Q431 932 309 932 L86 932 L80 1082 L309 1082 Q409 1082 488 1060 Q567 1038 621.5 997 Q676 956 704.5 896 Q733 836 733 760 Q733 676 684.5 620.5 Q636 565 545 529 Q647 501 689 438 Q731 375 731 290 L731 213 L731 213 Z " />
<glyph glyph-name="uni0506" unicode="&#x506;" horiz-adv-x="1229" d="M272 633 L272 785 L435 785 Q604 785 681.5 849.5 Q759 914 759 1044 Q759 1104 741 1152.5 Q723 1201 685.5 1234.5 Q648 1268 590.5 1286 Q533 1304 455 1304 L179 1304 L179 1456 L455 1456 Q571 1456 662 1429.5 Q753 1403 815.5 1351 Q878 1299 911 1221.5 Q944 1144 944 1042 Q944 927 884.5 845 Q825 763 713 714 Q775 694 818 661 Q861 628 888 584 Q915 540 927.5 486 Q940 432 940 371 L940 235 Q940 172 955 117.5 Q970 63 1009 25 L1009 0 L818 0 Q795 21 782.5 53.5 Q770 86 764 120.5 Q758 155 756.5 186.5 Q755 218 755 237 L755 369 Q755 429 736 478 Q717 527 682.5 561.5 Q648 596 599.5 614.5 Q551 633 491 633 L272 633 Z M1106 32 Q1106 -15 1094.5 -66.5 Q1083 -118 1060.5 -168.5 Q1038 -219 1006 -265 Q974 -311 932 -347 L817 -284 Q865 -214 885 -135 Q905 -56 905 29 L905 208 L1106 208 L1106 32 Z " />
<glyph glyph-name="uni0507" unicode="&#x507;" horiz-adv-x="1229" d="M281 441 L281 591 L493 591 Q617 591 675 634 Q733 677 733 755 Q733 835 674.5 883.5 Q616 932 493 932 L208 932 L209 1082 L493 1082 Q593 1082 672 1060.5 Q751 1039 806 998 Q861 957 890 897.5 Q919 838 919 761 Q919 677 870 619.5 Q821 562 727 527 Q779 512 815.5 487 Q852 462 875 429 Q898 396 908.5 355.5 Q919 315 919 269 L919 172 Q919 154 921.5 133 Q924 112 930.5 91 Q937 70 948.5 51 Q960 32 978 19 L978 0 L787 0 Q767 14 756 38 Q745 62 740 87.5 Q735 113 734 136.5 Q733 160 733 173 L733 268 Q733 350 678 395 Q623 440 522 441 L281 441 Z M1072 13 Q1072 -34 1060.5 -85.5 Q1049 -137 1026.5 -187.5 Q1004 -238 972 -284 Q940 -330 898 -366 L783 -303 Q831 -233 851 -154 Q871 -75 871 10 L871 189 L1072 189 L1072 13 Z " />
<glyph glyph-name="uni0508" unicode="&#x508;" horiz-adv-x="1229" d="M611 1304 L409 1304 L410 768 Q410 584 392.5 441 Q375 298 333.5 200 Q292 102 223.5 51 Q155 0 54 0 L20 0 L20 151 L43 151 Q95 151 130 190 Q165 229 186 306.5 Q207 384 216 499.5 Q225 615 225 768 L226 1456 L795 1456 L796 271 Q796 244 800 218.5 Q804 193 812.5 173.5 Q821 154 835 142 Q849 130 868 130 Q902 131 926.5 161 Q951 191 967.5 244 Q984 297 992 370 Q1000 443 1001 529 Q1002 629 991.5 730 Q981 831 961 931 L1140 932 Q1160 834 1174.5 733 Q1189 632 1187 529 Q1185 395 1160 293 Q1135 191 1092 121 Q1049 51 991.5 15 Q934 -21 868 -21 Q746 -23 680.5 49 Q615 121 610 271 L611 1304 Z " />
<glyph glyph-name="uni0509" unicode="&#x509;" horiz-adv-x="1229" d="M762 1082 L762 289 Q762 257 766.5 228.5 Q771 200 780 178 Q789 156 802.5 143 Q816 130 835 130 Q868 131 893 157 Q918 183 935 230 Q952 277 960.5 341.5 Q969 406 970 484 Q972 579 956 675 Q940 771 911 865 L1090 865 Q1117 772 1137 676.5 Q1157 581 1155 484 Q1153 360 1128 266 Q1103 172 1060 108 Q1017 44 959.5 11.5 Q902 -21 835 -21 Q714 -23 648 53 Q582 129 577 289 L577 929 L380 929 L380 622 Q380 476 365.5 360.5 Q351 245 317 165 Q283 85 226 42.5 Q169 0 85 0 L47 0 L50 165 L73 166 Q109 166 133 195.5 Q157 225 170.5 282.5 Q184 340 189.5 425 Q195 510 195 622 L195 1082 L762 1082 Z " />
<glyph glyph-name="uni050A" unicode="&#x50a;" horiz-adv-x="1229" d="M780 1456 L780 308 Q780 272 784 240 Q788 208 797 183.5 Q806 159 819.5 144.5 Q833 130 852 130 Q886 131 910.5 161 Q935 191 951 244.5 Q967 298 975.5 370.5 Q984 443 985 529 Q987 629 971 730 Q955 831 927 931 L1105 932 Q1131 834 1152 733 Q1173 632 1171 529 Q1169 396 1144 293.5 Q1119 191 1076.5 121 Q1034 51 976.5 15 Q919 -21 852 -21 Q731 -23 665.5 57.5 Q600 138 595 308 L595 645 L296 645 L296 0 L111 0 L111 1456 L296 1456 L296 796 L595 796 L595 1456 L780 1456 Z " />
<glyph glyph-name="uni050B" unicode="&#x50b;" horiz-adv-x="1229" d="M571 461 L302 461 L302 0 L117 0 L117 1082 L302 1082 L302 612 L571 612 L571 1082 L756 1082 L756 289 Q756 257 761 228.5 Q766 200 777.5 178 Q789 156 806 143 Q823 130 846 130 Q875 131 897 157 Q919 183 933 230 Q947 277 954.5 341.5 Q962 406 963 484 Q964 579 953 675 Q942 771 922 865 L1100 865 Q1120 772 1135 676.5 Q1150 581 1148 484 Q1146 360 1122.5 266 Q1099 172 1058.5 108 Q1018 44 963.5 11.5 Q909 -21 846 -21 Q717 -23 646.5 53 Q576 129 571 289 L571 461 Z " />
<glyph glyph-name="uni050C" unicode="&#x50c;" horiz-adv-x="1229" d="M660 -21 Q543 -21 447.5 26.5 Q352 74 284 157 Q216 240 179 353 Q142 466 142 597 L142 859 Q142 990 179 1102.5 Q216 1215 284 1298.5 Q352 1382 447.5 1429.5 Q543 1477 660 1477 Q772 1477 859 1455 Q946 1433 1013 1389 L954 1257 Q889 1290 817.5 1307.5 Q746 1325 660 1325 Q581 1325 519 1288 Q457 1251 414.5 1187.5 Q372 1124 349.5 1039.5 Q327 955 327 861 L327 597 Q327 502 349.5 417 Q372 332 414.5 268 Q457 204 519 167 Q581 130 660 130 Q801 132 876.5 210.5 Q952 289 955 425 Q957 515 942.5 605.5 Q928 696 905 786 L1084 786 Q1094 742 1104 697 Q1114 652 1122.5 606.5 Q1131 561 1136 515.5 Q1141 470 1140 425 Q1138 313 1099 229 Q1060 145 994.5 89.5 Q929 34 842.5 6.5 Q756 -21 660 -21 Z " />
<glyph glyph-name="uni050D" unicode="&#x50d;" horiz-adv-x="1229" d="M692 130 Q813 131 865 180 Q917 229 919 319 Q919 372 916 427.5 Q913 483 899 537 L1077 537 Q1088 483 1096 428 Q1104 373 1104 319 Q1102 232 1070 168 Q1038 104 983 62 Q928 20 853.5 -0.5 Q779 -21 692 -21 Q564 -21 465 23.5 Q366 68 298.5 142 Q231 216 195.5 314 Q160 412 160 520 L160 562 Q160 670 194 767.5 Q228 865 293 939 Q358 1013 453 1057.5 Q548 1102 671 1102 Q778 1102 857.5 1085 Q937 1068 990 1036 L946 892 Q892 920 822 935 Q752 950 671 950 Q585 950 524 915.5 Q463 881 423 825.5 Q383 770 364.5 701 Q346 632 346 562 L346 520 Q346 449 366 379.5 Q386 310 428 254.5 Q470 199 535.5 164.5 Q601 130 692 130 Z " />
<glyph glyph-name="uni050E" unicode="&#x50e;" horiz-adv-x="1229" d="M437 1304 L76 1304 L76 1456 L1012 1456 L1012 1304 L622 1304 L622 345 Q622 300 631.5 260.5 Q641 221 660 192 Q679 163 707 146.5 Q735 130 771 130 Q824 131 863.5 160.5 Q903 190 929.5 242.5 Q956 295 969.5 368 Q983 441 985 529 Q987 629 970.5 730 Q954 831 925 931 L1104 932 Q1131 834 1152 733 Q1173 632 1170 529 Q1168 394 1136.5 291.5 Q1105 189 1051 119.5 Q997 50 925 14.5 Q853 -21 771 -21 Q694 -22 633.5 -0.5 Q573 21 530.5 66 Q488 111 464.5 180.5 Q441 250 437 345 L437 1304 Z " />
<glyph glyph-name="uni050F" unicode="&#x50f;" horiz-adv-x="1229" d="M410 932 L73 932 L73 1082 L974 1082 L974 932 L596 932 L596 345 Q596 299 605.5 260 Q615 221 634.5 192 Q654 163 682 146.5 Q710 130 747 130 Q795 131 831 152.5 Q867 174 892 213 Q917 252 929.5 306 Q942 360 944 426 Q946 505 929.5 589 Q913 673 884 751 L1062 751 Q1075 712 1087.5 671.5 Q1100 631 1109.5 590 Q1119 549 1124.5 508 Q1130 467 1129 426 Q1127 316 1096.5 232.5 Q1066 149 1014 92.5 Q962 36 893.5 7.5 Q825 -21 747 -21 Q592 -23 505 65.5 Q418 154 410 345 L410 932 Z " />
<glyph glyph-name="uni0510" unicode="&#x510;" horiz-adv-x="1229" d="M629 666 Q550 666 487.5 650.5 Q425 635 382 602.5 Q339 570 316.5 520.5 Q294 471 294 402 Q294 342 318.5 292 Q343 242 388 206 Q433 170 497.5 150 Q562 130 643 130 Q711 130 767 151.5 Q823 173 863.5 210 Q904 247 926.5 297 Q949 347 950 404 L1135 404 Q1135 293 1092 213 Q1049 133 979.5 81 Q910 29 822 4.5 Q734 -20 643 -20 Q528 -20 430.5 8 Q333 36 261.5 90 Q190 144 149.5 223.5 Q109 303 109 406 Q108 534 175.5 619.5 Q243 705 367 747 Q312 770 268 803 Q224 836 193.5 876.5 Q163 917 146.5 964 Q130 1011 130 1062 Q130 1164 167 1241.5 Q204 1319 271.5 1371.5 Q339 1424 433.5 1450.5 Q528 1477 643 1477 Q738 1477 824 1449 Q910 1421 974.5 1369 Q1039 1317 1077 1242.5 Q1115 1168 1115 1075 L930 1075 Q929 1129 906.5 1175 Q884 1221 845.5 1254 Q807 1287 755 1306 Q703 1325 643 1325 Q561 1325 499.5 1305 Q438 1285 397.5 1250 Q357 1215 336.5 1168 Q316 1121 316 1066 Q316 1010 335 964.5 Q354 919 392.5 886.5 Q431 854 490 836 Q549 818 629 818 L811 818 L811 666 L629 666 Z " />
<glyph glyph-name="uni2000" unicode="&#x2000;" horiz-adv-x="1229" d="" />
<glyph glyph-name="uni2001" unicode="&#x2001;" horiz-adv-x="1229" d="" />
<glyph glyph-name="uni2002" unicode="&#x2002;" horiz-adv-x="1229" d="" />
<glyph glyph-name="uni2003" unicode="&#x2003;" horiz-adv-x="1229" d="" />
<glyph glyph-name="uni2004" unicode="&#x2004;" horiz-adv-x="1229" d="" />
<glyph glyph-name="uni2005" unicode="&#x2005;" horiz-adv-x="1229" d="" />
<glyph glyph-name="uni2006" unicode="&#x2006;" horiz-adv-x="1229" d="" />
<glyph glyph-name="uni2007" unicode="&#x2007;" horiz-adv-x="1229" d="" />
<glyph glyph-name="uni2008" unicode="&#x2008;" horiz-adv-x="1229" d="" />
<glyph glyph-name="uni2009" unicode="&#x2009;" horiz-adv-x="1229" d="" />
<glyph glyph-name="uni200A" unicode="&#x200a;" horiz-adv-x="1229" d="" />
<glyph glyph-name="uni200B" unicode="&#x200b;" horiz-adv-x="1229" d="" />
<glyph glyph-name="endash" unicode="&#x2013;" horiz-adv-x="1229" d="M1159.19 651 L73.6979 651 L73.6979 802 L1159.19 802 L1159.19 651 Z " />
<glyph glyph-name="emdash" unicode="&#x2014;" horiz-adv-x="1229" d="M1164.19 651 L78.6979 651 L78.6979 802 L1164.19 802 L1164.19 651 Z " />
<glyph glyph-name="underscoredbl" unicode="&#x2017;" horiz-adv-x="1229" d="M1083 -406 L166 -406 L166 -255 L1083 -255 L1083 -406 Z M1083 -151 L166 -151 L166 0 L1083 0 L1083 -151 Z " />
<glyph glyph-name="quoteleft" unicode="&#x2018;" horiz-adv-x="1229" d="M492 1185 Q492 1232 503.5 1284 Q515 1336 537.5 1386.5 Q560 1437 592 1483 Q624 1529 666 1565 L767 1493 Q720 1422 696.5 1348 Q673 1274 673 1188 L673 1039 L492 1039 L492 1185 Z " />
<glyph glyph-name="quoteright" unicode="&#x2019;" horiz-adv-x="1229" d="M736 1411 Q736 1364 724.5 1312 Q713 1260 690.5 1209.5 Q668 1159 636 1113 Q604 1067 562 1031 L461 1103 Q508 1174 531.5 1248 Q555 1322 555 1408 L555 1558 L736 1558 L736 1411 Z " />
<glyph glyph-name="quotesinglbase" unicode="&#x201a;" horiz-adv-x="1229" d="M723 76 Q723 29 711.5 -22.5 Q700 -74 677.5 -124 Q655 -174 623 -220.5 Q591 -267 549 -303 L444 -230 Q491 -160 514.5 -86 Q538 -12 538 74 L538 225 L723 225 L723 76 Z " />
<glyph glyph-name="quotereversed" unicode="&#x201b;" horiz-adv-x="1229" d="M463 1411 Q463 1364 474.5 1312 Q486 1260 508.5 1209.5 Q531 1159 563 1113 Q595 1067 637 1031 L738 1103 Q691 1174 667.5 1248 Q644 1322 644 1408 L644 1558 L463 1558 L463 1411 Z " />
<glyph glyph-name="quotedblleft" unicode="&#x201c;" horiz-adv-x="1229" d="M329 1185 Q329 1232 340.5 1284 Q352 1336 374.5 1386.5 Q397 1437 429 1483 Q461 1529 503 1565 L604 1493 Q557 1422 533.5 1348 Q510 1274 510 1188 L510 1039 L329 1039 L329 1185 Z M654 1185 Q654 1232 665.5 1284 Q677 1336 699.5 1386.5 Q722 1437 754 1483 Q786 1529 828 1565 L929 1493 Q882 1422 858.5 1348 Q835 1274 835 1188 L835 1039 L654 1039 L654 1185 Z " />
<glyph glyph-name="quotedblright" unicode="&#x201d;" horiz-adv-x="1229" d="M576 1411 Q576 1364 564.5 1312 Q553 1260 530.5 1209.5 Q508 1159 476 1113 Q444 1067 402 1031 L301 1103 Q348 1174 371.5 1248 Q395 1322 395 1408 L395 1558 L576 1558 L576 1411 Z M908 1411 Q908 1364 896.5 1312 Q885 1260 862.5 1209.5 Q840 1159 808 1113 Q776 1067 734 1031 L633 1103 Q680 1174 703.5 1248 Q727 1322 727 1408 L727 1558 L908 1558 L908 1411 Z " />
<glyph glyph-name="quotedblbase" unicode="&#x201e;" horiz-adv-x="1229" d="M582 75 Q582 28 570.5 -24 Q559 -76 536.5 -126 Q514 -176 482 -222.5 Q450 -269 408 -305 L303 -232 Q350 -162 373.5 -88 Q397 -14 397 72 L397 223 L582 223 L582 75 Z M872 75 Q872 28 860.5 -24 Q849 -76 826.5 -126 Q804 -176 772 -222.5 Q740 -269 698 -305 L593 -232 Q640 -162 663.5 -88 Q687 -14 687 72 L687 223 L872 223 L872 75 Z " />
<glyph glyph-name="dagger" unicode="&#x2020;" horiz-adv-x="1229" d="M1109 929 L704 929 L704 0 L519 0 L519 929 L119 929 L119 1082 L519 1082 L519 1456 L704 1456 L704 1082 L1109 1082 L1109 929 Z " />
<glyph glyph-name="daggerdbl" unicode="&#x2021;" horiz-adv-x="1229" d="M1110 0 L703 0 L703 -416 L518 -416 L518 0 L121 0 L121 151 L518 151 L518 929 L121 929 L121 1082 L518 1082 L518 1456 L703 1456 L703 1082 L1110 1082 L1110 929 L703 929 L703 151 L1110 151 L1110 0 Z " />
<glyph glyph-name="bullet" unicode="&#x2022;" horiz-adv-x="1229" d="M410 790 Q410 833 424.5 869.5 Q439 906 465 932 Q491 958 528.5 973 Q566 988 613 988 Q660 988 698 973 Q736 958 762.5 932 Q789 906 803 869.5 Q817 833 817 790 L817 732 Q817 689 803 653 Q789 617 762.5 590.5 Q736 564 698.5 549.5 Q661 535 614 535 Q567 535 529.5 549.5 Q492 564 465.5 590.5 Q439 617 424.5 653 Q410 689 410 732 L410 790 Z " />
<glyph glyph-name="uni2025" unicode="&#x2025;" horiz-adv-x="1229" d="M348 120 Q348 150 357.5 176 Q367 202 385 221.5 Q403 241 430 252 Q457 263 493 263 Q529 263 556.5 252 Q584 241 602.5 221.5 Q621 202 630.5 176 Q640 150 640 120 Q640 91 630.5 65.5 Q621 40 602.5 21 Q584 2 556.5 -8.5 Q529 -19 493 -19 Q457 -19 430 -8.5 Q403 2 385 21 Q367 40 357.5 65.5 Q348 91 348 120 Z M790 120 Q790 150 799.5 176 Q809 202 827 221.5 Q845 241 872 252 Q899 263 935 263 Q971 263 998.5 252 Q1026 241 1044.5 221.5 Q1063 202 1072.5 176 Q1082 150 1082 120 Q1082 91 1072.5 65.5 Q1063 40 1044.5 21 Q1026 2 998.5 -8.5 Q971 -19 935 -19 Q899 -19 872 -8.5 Q845 2 827 21 Q809 40 799.5 65.5 Q790 91 790 120 Z " />
<glyph glyph-name="ellipsis" unicode="&#x2026;" horiz-adv-x="1229" d="M265 120 Q265 150 274.5 176 Q284 202 302 221.5 Q320 241 347 252 Q374 263 410 263 Q446 263 473.5 252 Q501 241 519.5 221.5 Q538 202 547.5 176 Q557 150 557 120 Q557 91 547.5 65.5 Q538 40 519.5 21 Q501 2 473.5 -8.5 Q446 -19 410 -19 Q374 -19 347 -8.5 Q320 2 302 21 Q284 40 274.5 65.5 Q265 91 265 120 Z M652 120 Q652 150 661.5 176 Q671 202 689 221.5 Q707 241 734 252 Q761 263 797 263 Q833 263 860.5 252 Q888 241 906.5 221.5 Q925 202 934.5 176 Q944 150 944 120 Q944 91 934.5 65.5 Q925 40 906.5 21 Q888 2 860.5 -8.5 Q833 -19 797 -19 Q761 -19 734 -8.5 Q707 2 689 21 Q671 40 661.5 65.5 Q652 91 652 120 Z M1026 120 Q1026 150 1035.5 176 Q1045 202 1063 221.5 Q1081 241 1108 252 Q1135 263 1171 263 Q1207 263 1234.5 252 Q1262 241 1280.5 221.5 Q1299 202 1308.5 176 Q1318 150 1318 120 Q1318 91 1308.5 65.5 Q1299 40 1280.5 21 Q1262 2 1234.5 -8.5 Q1207 -19 1171 -19 Q1135 -19 1108 -8.5 Q1081 2 1063 21 Q1045 40 1035.5 65.5 Q1026 91 1026 120 Z " />
<glyph glyph-name="perthousand" unicode="&#x2030;" horiz-adv-x="1229" d="M342 303 Q342 359 357.5 409.5 Q373 460 404 498.5 Q435 537 480.5 560 Q526 583 586 583 Q644 583 688 562 Q732 541 763 506 Q794 541 837.5 562 Q881 583 939 583 Q1000 583 1045.5 560 Q1091 537 1122 498.5 Q1153 460 1168.5 409.5 Q1184 359 1184 303 L1184 259 Q1184 203 1168.5 152 Q1153 101 1122.5 62.5 Q1092 24 1046.5 1.5 Q1001 -21 941 -21 Q883 -21 838.5 -0.5 Q794 20 763 55 Q732 20 688.5 -0.5 Q645 -21 588 -21 Q527 -21 481 1.5 Q435 24 404 62.5 Q373 101 357.5 152 Q342 203 342 259 L342 303 Z M54 1196 Q54 1252 69.5 1303 Q85 1354 116 1392.5 Q147 1431 192.5 1454 Q238 1477 298 1477 Q359 1477 404.5 1454 Q450 1431 481 1392.5 Q512 1354 527.5 1303 Q543 1252 543 1196 L543 1152 Q543 1096 527 1045.5 Q511 995 480.5 957 Q450 919 405 896 Q360 873 300 873 Q240 873 194 896 Q148 919 117 957 Q86 995 70 1045.5 Q54 1096 54 1152 L54 1196 Z M175 447 L107 531 L891 1172 L959 1088 L175 447 Z M833 259 Q833 229 838.5 200 Q844 171 857 148.5 Q870 126 890.5 112.5 Q911 99 941 99 Q970 99 990 112.5 Q1010 126 1022 148.5 Q1034 171 1039.5 200 Q1045 229 1045 259 L1045 303 Q1045 333 1039.5 361.5 Q1034 390 1021.5 412.5 Q1009 435 988.5 449 Q968 463 939 463 Q909 463 889 449 Q869 435 856.5 412.5 Q844 390 838.5 361.5 Q833 333 833 303 L833 259 Z M481 259 Q481 229 486.5 200 Q492 171 504.5 148.5 Q517 126 537.5 112.5 Q558 99 588 99 Q617 99 637 112.5 Q657 126 669 148.5 Q681 171 686.5 200 Q692 229 692 259 L692 303 Q692 333 686.5 361.5 Q681 390 668.5 412.5 Q656 435 636 449 Q616 463 586 463 Q557 463 537 449 Q517 435 504.5 412.5 Q492 390 486.5 361.5 Q481 333 481 303 L481 259 Z M193 1152 Q193 1122 198.5 1093.5 Q204 1065 217 1042.5 Q230 1020 250 1006.5 Q270 993 300 993 Q328 993 348 1006.5 Q368 1020 380.5 1042.5 Q393 1065 398.5 1093.5 Q404 1122 404 1152 L404 1196 Q404 1226 398.5 1254.5 Q393 1283 380.5 1305.5 Q368 1328 348 1342 Q328 1356 298 1356 Q269 1356 249 1342 Q229 1328 216.5 1305.5 Q204 1283 198.5 1254.5 Q193 1226 193 1196 L193 1152 Z " />
<glyph glyph-name="guilsinglleft" unicode="&#x2039;" horiz-adv-x="1229" d="M574 550 L832 153 L691 153 L396 541 L396 560 L691 949 L832 949 L574 550 Z " />
<glyph glyph-name="guilsinglright" unicode="&#x203a;" horiz-adv-x="1229" d="M538 949 L832 560 L832 541 L538 152 L396 152 L654 550 L396 949 L538 949 Z " />
<glyph glyph-name="fraction" unicode="&#x2044;" horiz-adv-x="1229" d="M412 213 L299 279 L812 1233 L926 1167 L412 213 Z " />
<glyph glyph-name="uni2074" unicode="&#x2074;" horiz-adv-x="1229" d="M897 879 L1048 879 L1048 753 L897 753 L897 568 L734 568 L734 753 L274 753 L271 847 L728 1475 L897 1475 L897 879 Z M452 879 L734 879 L734 1271 L712 1227 L452 879 Z " />
<glyph glyph-name="nsuperior" unicode="&#x207f;" horiz-adv-x="1229" d="M460 1451 L489 1328 Q525 1392 580.5 1428.5 Q636 1465 710 1466 Q770 1466 817.5 1448 Q865 1430 899 1392.5 Q933 1355 951 1297 Q969 1239 969 1159 L969 651 L799 651 L799 1127 Q799 1233 760.5 1277.5 Q722 1322 655 1322 Q596 1322 558.5 1292 Q521 1262 501 1213 L501 651 L331 651 L331 1451 L460 1451 Z " />
<glyph glyph-name="lira" unicode="&#x20a4;" horiz-adv-x="1229" d="M802 471 L461 471 L464 400 Q464 331 449.5 265 Q435 199 404 151 L1142 151 L1141 0 L111 0 L111 151 L186 151 Q213 158 231 186 Q249 214 260 250.5 Q271 287 275.5 327.5 Q280 368 280 400 L277 471 L105 471 L105 593 L273 593 L268 731 L105 731 L105 854 L264 854 L258 1039 Q258 1141 291 1222 Q324 1303 383.5 1359.5 Q443 1416 524.5 1446 Q606 1476 702 1476 Q798 1476 874 1448 Q950 1420 1002.5 1369 Q1055 1318 1083 1247 Q1111 1176 1111 1089 L926 1089 Q926 1152 906 1196.5 Q886 1241 852.5 1269.5 Q819 1298 775.5 1311.5 Q732 1325 684 1325 Q633 1325 588.5 1305.5 Q544 1286 512 1249.5 Q480 1213 461.5 1159.5 Q443 1106 443 1039 L449 854 L802 854 L802 731 L453 731 L457 593 L802 593 L802 471 Z " />
<glyph glyph-name="peseta" unicode="&#x20a7;" horiz-adv-x="1229" d="M1182 939 L1006 939 L1006 295 Q1006 251 1013.5 221 Q1021 191 1033.5 172.5 Q1046 154 1064 145.5 Q1082 137 1103 137 Q1123 137 1144.5 142 Q1166 147 1178 151 L1203 19 Q1180 2 1139.5 -9 Q1099 -20 1057 -20 Q1005 -20 962 -2 Q919 16 887.5 54.5 Q856 93 838.5 153 Q821 213 821 296 L821 939 L732 939 Q724 857 697.5 788 Q671 719 626.5 669.5 Q582 620 520.5 592.5 Q459 565 381 565 L312 565 L312 0 L127 0 L127 1456 L381 1456 Q459 1456 520.5 1428 Q582 1400 626 1350.5 Q670 1301 697 1232.5 Q724 1164 732 1082 L821 1082 L821 1344 L1006 1344 L1006 1082 L1182 1082 L1182 939 Z M312 716 L381 716 Q426 716 458 741 Q490 766 510.5 807 Q531 848 540.5 900 Q550 952 550 1008 Q550 1064 540.5 1117.5 Q531 1171 511 1212.5 Q491 1254 458.5 1279 Q426 1304 381 1304 L312 1304 L312 716 Z " />
<glyph glyph-name="Euro" unicode="&#x20ac;" horiz-adv-x="1229" d="M878 543 L492 543 Q494 440 519.5 362.5 Q545 285 590 233.5 Q635 182 699 156 Q763 130 842 130 Q901 130 956 138.5 Q1011 147 1063 164 L1081 10 Q1025 -5 965 -13 Q905 -21 842 -21 Q725 -21 627.5 15 Q530 51 459.5 122 Q389 193 349 298.5 Q309 404 306 543 L127 543 L127 665 L306 665 L306 803 L127 803 L127 926 L306 926 Q311 1062 351.5 1165 Q392 1268 462 1337 Q532 1406 628 1441 Q724 1476 840 1476 Q903 1476 961.5 1467.5 Q1020 1459 1081 1445 L1063 1290 Q1011 1306 955.5 1315.5 Q900 1325 840 1325 Q762 1325 699 1300 Q636 1275 591 1225.5 Q546 1176 520.5 1101 Q495 1026 492 926 L878 926 L878 803 L492 803 L492 665 L878 665 L878 543 Z " />
<glyph glyph-name="uni2105" unicode="&#x2105;" horiz-adv-x="1229" d="M588 1054 Q588 1002 570.5 955.5 Q553 909 520 874.5 Q487 840 439.5 820 Q392 800 333 800 Q272 800 223.5 824 Q175 848 141.5 889 Q108 930 90.5 984.5 Q73 1039 73 1099 L73 1176 Q73 1237 90.5 1291.5 Q108 1346 141 1387.5 Q174 1429 222 1453 Q270 1477 331 1477 Q391 1477 438.5 1456.5 Q486 1436 519 1401 Q552 1366 570 1319.5 Q588 1273 588 1220 L450 1220 Q450 1247 442.5 1272 Q435 1297 420 1316 Q405 1335 383 1346 Q361 1357 331 1357 Q301 1357 278.5 1341.5 Q256 1326 241.5 1301 Q227 1276 219.5 1243 Q212 1210 212 1176 L212 1099 Q212 1065 219.5 1033 Q227 1001 242 976 Q257 951 279.5 935.5 Q302 920 333 920 Q363 920 384.5 932 Q406 944 420.5 963 Q435 982 442.5 1006 Q450 1030 450 1054 L588 1054 Z M654 357 Q654 418 671.5 472.5 Q689 527 722.5 568 Q756 609 804 633 Q852 657 913 657 Q974 657 1022 633 Q1070 609 1103.5 568 Q1137 527 1154.5 472.5 Q1172 418 1172 357 L1172 279 Q1172 218 1154.5 163.5 Q1137 109 1104 68 Q1071 27 1023 3 Q975 -21 914 -21 Q853 -21 804.5 3 Q756 27 722.5 68 Q689 109 671.5 163.5 Q654 218 654 279 L654 357 Z M793 279 Q793 244 800 212 Q807 180 822 154.5 Q837 129 860 114 Q883 99 914 99 Q944 99 966.5 114 Q989 129 1004 154.5 Q1019 180 1026 212 Q1033 244 1033 279 L1033 357 Q1033 391 1026 423.5 Q1019 456 1004 481.5 Q989 507 966.5 522 Q944 537 913 537 Q882 537 859.5 522 Q837 507 822 481.5 Q807 456 800 423.5 Q793 391 793 357 L793 279 Z M437 213 L324 279 L837 1233 L951 1167 L437 213 Z " />
<glyph glyph-name="uni2113" unicode="&#x2113;" horiz-adv-x="1229" d="M852 -21 Q744 -21 665 12 Q586 45 533.5 104.5 Q481 164 455.5 247 Q430 330 430 431 L430 445 Q381 433 329 426.5 Q277 420 221 420 L221 596 Q279 596 331 603 Q383 610 430 623 L430 1102 Q430 1188 450.5 1258 Q471 1328 511 1377.5 Q551 1427 608.5 1454 Q666 1481 740 1481 Q800 1481 850 1458.5 Q900 1436 936 1394.5 Q972 1353 991.5 1295 Q1011 1237 1011 1165 L1011 1124 Q1011 1047 985 962.5 Q959 878 908.5 796.5 Q858 715 784.5 642.5 Q711 570 615 518 L615 431 Q615 363 626.5 308.5 Q638 254 666 215.5 Q694 177 739 156.5 Q784 136 852 136 L852 -21 Z M615 711 Q669 750 708.5 798 Q748 846 774 899.5 Q800 953 813 1009.5 Q826 1066 826 1122 L826 1165 Q826 1243 803.5 1283 Q781 1323 740 1323 Q674 1323 644.5 1265.5 Q615 1208 615 1102 L615 711 Z " />
<glyph glyph-name="uni2116" unicode="&#x2116;" horiz-adv-x="1229" d="M739 0 L563 0 L296 915 L297 0 L121 0 L121 1456 L296 1456 L564 545 L563 1456 L739 1456 L739 0 Z M822 1275 Q822 1315 832.5 1351 Q843 1387 863 1414 Q883 1441 913 1456.5 Q943 1472 981 1472 Q1020 1472 1050.5 1456.5 Q1081 1441 1101 1414 Q1121 1387 1131.5 1351 Q1142 1315 1142 1275 L1142 1069 Q1142 1029 1131.5 993.5 Q1121 958 1101 931.5 Q1081 905 1051 889.5 Q1021 874 982 874 Q943 874 913.5 889.5 Q884 905 863.5 931.5 Q843 958 832.5 993.5 Q822 1029 822 1069 L822 1275 Z M923 1078 Q923 1055 925 1035.5 Q927 1016 933.5 1001.5 Q940 987 951.5 978.5 Q963 970 982 970 Q1001 970 1012.5 978.5 Q1024 987 1030.5 1001.5 Q1037 1016 1039 1035.5 Q1041 1055 1041 1078 L1041 1266 Q1041 1288 1038.5 1308 Q1036 1328 1029.5 1342.5 Q1023 1357 1011.5 1365.5 Q1000 1374 981 1374 Q963 1374 951.5 1365.5 Q940 1357 934 1342.5 Q928 1328 925.5 1308 Q923 1288 923 1266 L923 1078 Z M1140 711 L833 711 L833 806 L1140 806 L1140 711 Z " />
<glyph glyph-name="trademark" unicode="&#x2122;" horiz-adv-x="1229" d="M989 1313 L849 919 L797 919 L658 1312 L658 919 L568 919 L568 1456 L680 1456 L823 1057 L967 1456 L1079 1456 L1079 919 L989 919 L989 1313 Z M489 1375 L341 1375 L341 919 L250 919 L250 1375 L103 1375 L103 1456 L489 1456 L489 1375 Z " />
<glyph glyph-name="estimated" unicode="&#x212e;" horiz-adv-x="1229" d="M1047 94 Q962 41 869 10.5 Q776 -20 677 -20 Q567 -20 471.5 24.5 Q376 69 305.5 145.5 Q235 222 194 324 Q153 426 153 541 Q153 617 173.5 688.5 Q194 760 230 822 Q266 884 315.5 935.5 Q365 987 423.5 1024 Q482 1061 546.5 1081.5 Q611 1102 677 1102 Q780 1102 870.5 1061 Q961 1020 1027.5 947 Q1094 874 1133 775 Q1172 676 1172 561 L1172 514 L404 514 L404 186 Q459 135 529 105.5 Q599 76 677 76 Q771 75 863.5 105 Q956 135 1045 198 L1047 94 Z M677 1008 Q601 1008 531 975 Q461 942 404 886 L404 609 L944 609 L944 895 Q890 946 822 977 Q754 1008 677 1008 Z " />
<glyph glyph-name="oneeighth" unicode="&#x215b;" horiz-adv-x="1229" d="M415.118 744 L273.814 744 L273.814 1284.91 L80.3085 1233.61 L80.3085 1348.82 L398.917 1454.12 L415.118 1454.12 L415.118 744 Z M404 213 L291 279 L804 1233 L918 1167 L404 213 Z M1191.92 521.114 Q1191.02 468.013 1162.22 428.412 Q1133.42 388.811 1083.92 365.41 Q1140.62 342.009 1174.82 298.358 Q1209.02 254.707 1209.02 194.405 Q1209.02 143.104 1188.32 104.853 Q1167.62 66.6018 1132.07 40.9511 Q1096.52 15.3004 1047.92 2.70007 Q999.317 -9.90027 943.515 -9.90027 Q887.714 -9.90027 838.662 2.70007 Q789.611 15.3004 753.61 40.9511 Q717.609 66.6018 696.908 104.853 Q676.208 143.104 676.208 194.405 Q676.208 254.707 709.959 298.358 Q743.71 342.009 801.311 365.41 Q751.81 388.811 723.009 428.412 Q694.208 468.013 694.208 521.114 Q694.208 569.715 712.659 606.616 Q731.109 643.517 764.41 668.718 Q797.711 693.919 843.162 706.969 Q888.614 720.02 942.615 720.02 Q995.716 720.02 1041.62 706.969 Q1087.52 693.919 1120.82 668.718 Q1154.12 643.517 1173.02 606.616 Q1191.92 569.715 1191.92 521.114 Z M1068.62 205.206 Q1068.62 228.606 1058.72 247.057 Q1048.82 265.507 1032.17 278.108 Q1015.52 290.708 992.566 297.458 Q969.616 304.208 942.615 304.208 Q887.714 304.208 852.613 278.558 Q817.512 252.907 817.512 205.206 Q817.512 156.604 852.613 130.954 Q887.714 105.303 943.515 105.303 Q970.516 105.303 993.016 112.053 Q1015.52 118.803 1032.62 131.404 Q1049.72 144.004 1059.17 162.454 Q1068.62 180.905 1068.62 205.206 Z M1049.72 513.014 Q1049.72 555.315 1020.47 579.616 Q991.216 603.916 942.615 603.916 Q894.014 603.916 864.763 580.066 Q835.512 556.215 835.512 513.014 Q835.512 470.713 865.213 445.962 Q894.914 421.211 943.515 421.211 Q992.116 421.211 1020.92 445.962 Q1049.72 470.713 1049.72 513.014 Z " />
</font>
</svg>
